MeshVersionFormatted 1

Dimension
2

Vertices
753
-81.42844977912038 30.655 1
-81.435829 30.526070999999995 1
-81.39346899999998 30.395553000000003 1
-81.39620300000001 30.331085999999992 1
-81.30897800000001 29.96943999999998 1
-81.253877 29.776852 1
-81.163581 29.555289999999996 1
-80.96617599999999 29.147959999999994 1
-80.709725 28.75669199999999 1
-80.57424000000002 28.585338999999994 1
-80.525094 28.459454 1
-80.58903 28.407871999999998 1
-80.606823 28.29640399999999 1
-80.59416399999999 28.195863999999997 1
-80.530964 28.01365599999999 1
-80.384408 27.741190999999993 1
-80.261462 27.394352999999988 1
-80.09390900000001 27.018586999999997 1
-80.031362 26.796339000000003 1
-80.03615800000001 26.60258600000001 1
-80.108775 26.090087999999998 1
-80.12100799999999 25.813198999999987 1
-80.237858 25.727228000000007 1
-80.340026 25.467887999999988 1
-80.31035999999999 25.373100000000004 1
-80.25301499999999 25.340493999999996 1
-80.39971699999998 25.108491999999995 1
-80.461342 25.132487 1
-80.465501 25.21175499999999 1
-80.582083 25.21068 1
-80.722391 25.15954699999999 1
-80.868151 25.175953 1
-80.900577 25.139669 1
-81.08393 25.10619399999999 1
-81.172044 25.222276 1
-81.12140999999998 25.338749999999994 1
-81.16796999999998 25.46948900000001 1
-81.27148900000002 25.614339999999984 1
-81.290328 25.687505999999992 1
-81.41504 25.78435 1
-81.642345 25.905431000000004 1
-81.68953999999998 25.85271 1
-81.80174799999999 26.091405 1
-81.833142 26.294517999999997 1
-81.868983 26.378647999999984 1
-82.00589900000001 26.534412999999997 1
-82.10062499999998 26.510763999999998 1
-82.14255399999999 26.643910999999992 1
-82.091355 26.666770999999986 1
-82.051105 26.864954999999995 1
-82.11547800000001 26.951132 1
-82.181198 26.921363 1
-82.145071 26.788833999999994 1
-82.249888 26.762945999999996 1
-82.445718 27.060633999999983 1
-82.522032 27.228374999999986 1
-82.70782099999997 27.48761499999999 1
-82.641346 27.525508000000006 1
-82.514265 27.705588000000002 1
-82.39190100000002 27.823856999999997 1
-82.41531799999998 27.900378 1
-82.67557199999999 28.00544199999999 1
-82.72060799999998 27.936155999999997 1
-82.638423 27.904629999999994 1
-82.58762499999999 27.81900999999999 1
-82.63981999999997 27.703906999999997 1
-82.738022 27.706807 1
-82.85216799999999 27.885971999999985 1
-82.792986 28.00649099999998 1
-82.73146099999998 28.32501499999999 1
-82.66988199999999 28.433054999999992 1
-82.655132 28.674851999999998 1
-82.715027 28.72697099999999 1
-82.738695 28.824795999999996 1
-82.68886399999998 28.905608999999988 1
-82.76405499999998 28.999707000000015 1
-82.763751 29.054518 1
-82.83421600000001 29.154919999999983 1
-82.99857899999999 29.174124000000003 1
-83.05654199999998 29.12990899999999 1
-83.07726499999998 29.255330999999998 1
-83.16457799999998 29.296822999999993 1
-83.218075 29.420492 1
-83.280229 29.433412999999998 1
-83.395742 29.526314 1
-83.406437 29.650325000000002 1
-83.54248500000001 29.728152000000005 1
-83.586836 29.818941000000002 1
-83.68079099999999 29.921573999999985 1
-83.92536399999999 30.034567999999986 1
-84.02427399999999 30.103270999999992 1
-84.15727799999999 30.072714000000005 1
-84.23701399999997 30.08556 1
-84.33428 30.037079999999996 1
-84.361962 29.98773900000001 1
-84.34446 29.899024999999998 1
-84.451705 29.929085000000004 1
-84.535873 29.91009199999999 1
-84.88177699999999 29.73388199999999 1
-85.12147299999998 29.715854 1
-85.275 29.69238220883236 1
-85.275 23.30499999999999 1
-78.97499999999998 23.30499999999999 1
-78.97499999999998 30.655 1
-80.20172488956018 30.655 1
-78.97499999999998 26.979999999999997 1
-78.97499999999998 28.8175 1
-82.125 23.30499999999999 1
-78.97499999999998 25.14249999999999 1
-82.54544499999999 27.952909999999996 1
-82.5778055 27.615548000000004 1
-85.275 26.498691104416174 1
-82.07123 26.76586299999999 1
-80.80443001584642 25.086376225160556 0
-82.90841899603689 29.027914033682862 0
-84.25841835781232 29.962083228928144 0
-80.54999999999998 23.30499999999999 1
-80.5820662417612 24.73130626554565 0
-80.50582293652168 24.92711762976182 0
-80.46722035800575 25.026258446647862 0
-80.75644426882954 30.336245756948614 0
-80.81508733434029 30.655 1
-81.0764538969316 30.34981713956951 0
-81.23727663333632 30.356637518392183 0
-80.22821156539159 25.450846483844924 0
-83.27046655099592 29.324422927813085 0
-81.56067973891854 25.78484095182322 0
-81.5286925 25.8448905 1
-80.47552688430834 28.332600048642426 0
-81.45312862934814 25.606579247206785 0
-82.80537466484023 28.562668653854864 0
-84.45041162684501 29.727360482078755 0
-82.9155340893112 28.730235509425622 0
-83.93945992058468 29.590454615511963 0
-83.74931119238998 29.683343470357762 0
-82.10919110827136 26.226615242379275 0
-81.97669931844304 26.283059296101378 0
-84.15383592672488 29.729152546015854 0
-83.43033566941814 29.365035402125407 0
-83.26972466384258 29.11034580024638 0
-79.61201128827973 25.254382180969962 0
-79.92873386360773 25.32557049873916 0
-80.17542963621302 24.855557769576617 0
-80.33492499644044 24.917660668852623 0
-80.62694917926679 25.031366474398038 0
-80.71325475230925 25.066727018386608 0
-80.74758351925331 24.859935123182648 0
-80.95492607308526 24.92823920095003 0
-83.46992175575409 28.264116292730147 0
-83.14344468431261 28.103796624945353 0
-81.77517440648661 25.53385391093858 0
-81.87829657582567 24.594699861363306 0
-81.5008968760851 24.88117146886551 0
-81.30992508571896 25.02613182737543 0
-79.76079033692305 28.684988292139366 0
-80.13327038404428 28.539444843235735 0
-80.34979670661583 28.600426650047595 0
-80.0508139990941 25.59539722177097 0
-81.12176855673033 30.655 1
-82.45115395440571 26.473555154102044 0
-85.275 28.09553665662427 1
-85.07437636364648 28.893959432729282 0
-85.275 28.893959432728316 1
-85.1368624268764 29.302675485145432 0
-85.275 29.29317082078034 1
-85.275 29.49277651480635 1
-85.19187019870834 29.09356512675157 0
-85.275 29.093565126754328 1
-82.85913311567269 28.896627863905877 0
-83.0938139553866 28.883421037900572 0
-85.275 28.494748044676292 1
-83.29618237224625 26.774944137264065 0
-82.8856988837535 26.961694168210148 0
-83.1453418160022 28.459165424007068 0
-81.0447367710984 24.30675697456876 0
-80.84933700335438 24.558193846301744 0
-84.30228213436216 29.754463731579833 0
-84.29966795440457 29.321832821814198 0
-80.91636900423823 29.977592217705613 0
-79.46793696818665 26.68545658906999 0
-78.97499999999998 26.061249999999994 1
-79.75914176284293 26.692664829433546 0
-79.53595146775086 25.881541199474018 0
-79.82171330302336 25.789444768087762 0
-81.00815452807946 29.747813683837652 0
-81.11161130521327 29.92236094164915 0
-80.12033957367595 29.526395341135544 0
-80.54913960312139 29.697680424486244 0
-80.7716760362895 29.786573075806476 0
-80.53540072566213 30.055073123274912 0
-80.78090938583391 29.44045964584478 0
-80.95728114056035 29.547742456886134 0
-81.06487849999999 29.351624999999995 1
-84.98500520833859 29.50389520313389 0
-80.11125594685666 29.0325086152564 0
-80.17996287753586 28.788552920723443 0
-80.47608814332482 28.802184472318775 0
-80.65049403561754 29.075191651543168 0
-80.8379505 28.952325999999992 1
-81.60776448757323 25.22023357336415 0
-81.39050546553399 25.349516252061377 0
-83.72376009731899 29.389971920327273 0
-83.2139130763197 27.52956055382472 0
-82.99492347710304 27.669078801217996 0
-83.24834424946025 27.825227697997736 0
-84.0054730084735 29.303153640482492 0
-83.72212537092807 28.88419925790371 0
-84.18004367099988 28.879793672477334 0
-84.1647195657197 29.12114655860893 0
-83.91224316511007 29.060912772392218 0
-84.52736150078147 29.02300868625569 0
-84.80901938201391 29.21316965428094 0
-84.97893683055295 29.084521000262058 0
-84.77884476234043 28.86512785684953 0
-84.71698279801663 29.045820124058686 0
-84.47421932825158 28.659130052862498 0
-84.58107921006618 28.829343698871078 0
-83.66407802841012 29.13727584789116 0
-83.47799233352679 28.9613986272544 0
-83.50191568773295 28.612433857352606 0
-83.58453027249837 29.28945946303699 0
-83.28740867408924 28.91499242025495 0
-81.58712536538343 25.43274240755884 0
-79.94163886918513 28.853085132273012 0
-78.97499999999998 29.73625 1
-79.66148982819675 29.287807666858694 0
-79.85499482636695 29.104878700379086 0
-80.04302313261462 29.280790458305944 0
-79.8557586049183 29.47471340289019 0
-79.44545530206042 29.706766553138106 0
-79.61598341420957 29.529520587082484 0
-79.82770289628635 29.903871043785983 0
-79.66598811631789 29.74828546545976 0
-79.48615491590388 30.0970385963154 0
-79.58836244478007 30.655 1
-78.97499999999998 29.276874999999997 1
-79.29874001836232 29.394956550685333 0
-79.94980192181818 29.696357257261567 0
-80.24918553102438 29.82621638338075 0
-80.36644466112612 29.236156368069857 0
-79.53185235732343 28.95686448560161 0
-79.74185287212566 28.925141496540313 0
-84.66957372581706 29.500475737584175 0
-79.62332410812557 26.2937681248317 0
-79.83186913246604 26.445332204784126 0
-79.8626227385401 26.183760595641058 0
-79.66517283597261 26.069525271441677 0
-79.61776796451619 26.518230070742167 0
-79.601143538581 27.189838160417597 0
-79.60786540588848 26.918282289570076 0
-79.8511894577783 26.966970017399714 0
-79.30093171271156 27.046545838354593 0
-78.97499999999998 27.89875 1
-79.41085822091632 26.87822236656268 0
-78.97499999999998 26.520624999999995 1
-78.97499999999998 26.750312499999996 1
-79.22138979423845 26.717286462758565 0
-79.30500052148966 26.394151771595276 0
-79.38662465341851 26.12259514327379 0
-79.16414384996823 26.203767708764886 0
-78.97499999999998 26.290937499999995 1
-84.15107475032639 29.49839810085083 0
-82.2632899055993 26.37346428956805 0
-82.72322585665779 25.73654413451421 0
-82.53680242007789 26.08644881114218 0
-80.14410531625953 25.109243964104856 0
-79.81195039150477 24.939453580460224 0
-80.00898771625188 24.963783088081037 0
-83.94753779923094 29.81299139377102 0
-82.11380260113168 25.798990027634275 0
-81.9103786136403 25.894617496952105 0
-79.80105485369376 25.15346840807558 0
-79.16827258820322 26.53115801216773 0
-79.15978492178375 26.90640635110083 0
-79.25964249811737 27.5191840404857 0
-78.97499999999998 27.439375 1
-79.17497222847541 27.2736647339902 0
-78.97499999999998 27.209687499999998 1
-79.40754415458969 27.330818954230256 0
-79.81079992192072 27.68116394773726 0
-79.53924647796946 27.586477503277017 0
-79.7508518417627 27.416350009888365 0
-79.92439662905633 27.219207416381522 0
-80.00887882499757 27.468534269276244 0
-80.18913789282394 27.61519996100368 0
-80.322935 27.56777199999999 1
-80.0651024087738 28.021756657445657 0
-80.18488887949388 27.83610284299672 0
-79.49022531238565 28.16380686119605 0
-79.3257348181032 27.85909405828807 0
-79.37026912399443 27.67405425427352 0
-79.59863148451036 27.85290629296486 0
-79.83517239294463 27.928199753182067 0
-78.97499999999998 27.6690625 1
-78.97499999999998 28.358125 1
-79.18409021835242 28.13231099211272 0
-78.97499999999998 28.1284375 1
-79.15788371863516 27.94539962014128 0
-80.30012184497977 28.137822188064945 0
-80.25521126029224 28.3546343768042 0
-84.44182388292027 29.49977151590928 0
-84.55639715418704 29.27427278043118 0
-84.82839648294936 29.400067857776317 0
-84.66630609653653 29.716612860744117 0
-84.70882499999999 29.821986999999993 1
-79.23099935251892 29.077844678176362 0
-79.28244864395722 28.77121849388987 0
-79.14551063171271 28.905870919726024 0
-78.97499999999998 29.0471875 1
-78.97499999999998 28.5878125 1
-79.29272676565799 28.442611415176756 0
-79.58917900787641 28.443257241688638 0
-79.83961822623543 28.246595524960775 0
-80.0364203326324 28.342907148500522 0
-79.84993847923013 28.474734669746326 0
-79.65095702791615 28.264136577052078 0
-79.51281320821188 28.679252620734857 0
-79.17415016593759 28.6033668726277 0
-79.15623657424085 28.316229689819647 0
-79.44718806454546 29.180891752291664 0
-79.16541859952214 29.257645113180807 0
-80.34594031491561 29.000139200444842 0
-80.59148824510595 29.302174846744325 0
-80.41611403660616 29.483416728569917 0
-80.28676322486079 29.632471799773114 0
-79.20447604104416 29.629732188570394 0
-78.97499999999998 29.506562499999998 1
-79.24284024391184 29.925154519280323 0
-78.97499999999998 30.195625 1
-79.23881006535218 30.189016565893773 0
-79.45474380540122 30.39113439645498 0
-79.28168122239003 30.655 1
-79.21980273965838 30.425729089247948 0
-79.81556535855249 30.280946855292626 0
-79.6694047740023 30.44819674943863 0
-79.89504366717013 30.655 1
-80.04838427836364 30.426948099006616 0
-80.08741925818349 30.10607009181141 0
-80.3075463598395 30.04663163775905 0
-80.40936348371433 30.37772966014797 0
-80.50840611195024 30.655 1
-80.59609493837534 30.467352544997297 0
-80.23747023593533 30.465386498132794 0
-80.57069051892407 30.25480297350104 0
-79.88782815265145 30.094539641710142 0
-80.04381298381197 29.894183540849962 0
-78.97499999999998 30.4253125 1
-78.97499999999998 29.9659375 1
-83.36060059296403 28.4497858918784 0
-83.26248036622778 28.672709414046274 0
-83.98025038544942 28.39286934409199 0
-83.78828723433804 28.605488827577236 0
-83.6406174030404 28.424065573168043 0
-83.78226931164929 28.101839976119344 0
-84.04991785145431 28.648735050672784 0
-83.93951912583465 28.84094167095825 0
-84.267010676251 28.45220728821618 0
-84.2055264325725 28.02676301690009 0
-84.15920429396253 28.2506223051486 0
-84.00041496276309 28.101042529378258 0
-83.88904548830132 27.473181150726596 0
-83.99923202694336 27.777444360595073 0
-84.4913271673899 28.202624658787247 0
-84.49478462813406 28.431327490181634 0
-84.89726178993429 28.310865411158815 0
-84.7554626613428 28.56969025097018 0
-84.67898361418735 28.314165275088417 0
-84.78229057293889 27.926733828175813 0
-85.01703754398068 28.54474073348269 0
-84.9405544207525 28.73661525860708 0
-85.275 28.694353738702304 1
-84.26138553812547 28.681813244062727 0
-84.48058390269146 27.899919332949267 0
-84.32972687081426 27.48567504016658 0
-84.65926150571696 27.60025832589951 0
-85.275 27.29711388052022 1
-85.275 27.696325268572245 1
-84.96342292911416 27.67205699414539 0
-85.10271936416808 27.895930962596914 0
-85.275 27.895930962598257 1
-85.04074079786189 28.123575931932457 0
-85.275 28.29514235065028 1
-85.08852500691061 28.36052115369212 0
-84.78719137594165 27.738468113665466 0
-84.89174210626938 27.29555879890318 0
-84.84352746052129 27.499810989602597 0
-85.08724223473709 27.458019063331424 0
-85.275 27.496719574546233 1
-84.57953643762498 27.2983902911549 0
-84.73047359231869 26.72739697991361 0
-84.73325043730125 27.03357713774365 0
-84.17327718981994 26.88555304181216 0
-84.47354812805797 26.88282978941414 0
-84.52654228284099 27.090610040284627 0
-84.31844444847705 26.336387172919473 0
-84.47087743392065 26.588354023934524 0
-84.1784748552458 26.593157209286126 0
-83.62176066066654 26.123148206787896 0
-83.94826057865495 26.301128711670287 0
-84.1258130862461 26.39791551988241 0
-85.275 24.90184555220808 1
-85.275 25.700268328312127 1
-84.83423748739989 26.196438929246845 0
-84.7129027035658 26.44834494855938 0
-84.56416222849096 26.221527107073943 0
-84.64084459582396 25.58078623820283 0
-84.671370470052 25.9093985209226 0
-84.9978131504492 26.430402389286446 0
-85.275 26.897902492468198 1
-85.0788191005262 26.698296798443078 0
-85.275 26.698296798442186 1
-85.00456324715282 26.96748886518864 0
-84.91167879897867 26.79702929407866 0
-85.275 27.09750818649421 1
-85.275 26.09947971636415 1
-85.06769092830255 26.20738357718731 0
-85.07173941709135 27.174024517464368 0
-84.14063993343225 25.79297585786735 0
-84.32633626270928 26.033010435841213 0
-84.05502553585958 26.051055933458848 0
-83.8418488181747 26.107870482429295 0
-83.70124373359943 25.67525297494397 0
-83.88824998758216 25.85363183688075 0
-83.66552473840368 25.89991442731297 0
-83.17673169650759 25.919995307220347 0
-83.41434359253371 25.744808844337115 0
-83.412921583571 25.991614265245694 0
-83.31572405472504 26.377492697648243 0
-83.23531730083681 26.152058745969107 0
-83.43382874978671 26.208311120583254 0
-83.6560395721448 26.44873199212296 0
-82.88120507916494 26.405418411412086 0
-82.93378067214095 26.104756375728083 0
-83.09447321837239 26.329350904038495 0
-83.07342218932115 26.607331205687416 0
-82.79040530474084 26.684307955827816 0
-82.67455743583717 26.492364765609334 0
-82.69764674927308 26.258196162676477 0
-82.63878932803759 26.891456022317207 0
-82.54609736851322 26.68200014235492 0
-82.71139981494417 27.105309045737986 0
-82.99800221520876 27.275568789630224 0
-83.27250902376386 26.574574051198677 0
-83.85843840071325 26.733712314100025 0
-84.05082340184659 26.737132174293816 0
-83.071324500245 25.528293473731377 0
-83.45752045893632 25.296429632548136 0
-83.51368810764122 25.528106793334448 0
-83.29251881090282 25.5578370115052 0
-83.81959495062449 25.33129574932072 0
-84.03299923299828 25.900508302822676 0
-83.57484869358014 26.720759453646853 0
-83.69913014441245 27.110674026377204 0
-83.47800878267661 26.966390260619708 0
-83.42708312181142 27.28601722679003 0
-83.70908433290325 26.892737192377407 0
-83.94309175665263 27.012621143455405 0
-83.89286590476615 27.24017833076323 0
-84.11276314532473 27.360316592992834 0
-84.12595383108089 27.58792071180897 0
-84.32141647532747 27.723292727114174 0
-84.15499535093218 27.124461191481362 0
-83.47444932983223 26.542663604162883 0
-84.3502914048912 27.252858533097907 0
-84.17563898324502 27.841486174096115 0
-83.21176768955308 27.312618693594178 0
-83.21179515428906 27.03715919226639 0
-83.02832052070343 27.087692800937376 0
-83.6665040716923 27.35876795972115 0
-83.61476251469287 27.73304446759112 0
-83.48539748172473 27.52444576284365 0
-83.70630652566895 27.55498515724492 0
-83.52830495911167 27.994751980412207 0
-83.34939238501111 28.09698295584686 0
-83.34786048992164 27.431738805809804 0
-83.87069858021508 26.51064083889027 0
-82.91876859487573 27.47171593223073 0
-82.79126258657998 27.2972263793632 0
-82.347803 26.91178999999999 1
-82.93791868019694 25.858083235057233 0
-82.74070831505892 25.978146256752503 0
-84.42410463997342 25.76552775903813 0
-84.2436068405284 25.378909479031808 0
-84.41439048243751 25.534619921571313 0
-84.61132355183328 25.147109983579522 0
-84.56628778608338 25.368018540902128 0
-85.275 25.301056940260104 1
-84.91974573123282 25.325031721638823 0
-84.52067494111182 26.032114381330008 0
-84.94324659589473 25.71841908893024 0
-85.06437201108112 25.9479101104401 0
-84.86175181231496 25.991101614362496 0
-84.7526675983216 25.73612259794751 0
-84.84797576200313 25.52671489354977 0
-85.275 25.500662634286115 1
-84.51771706785485 27.476179078732233 0
-84.61959874381421 28.046528886829677 0
-83.80067087834072 28.302177618247473 0
-83.0590544615317 27.912982878524662 0
-79.59336914510627 25.570312976007223 0
-79.824706588681 25.53516676538558 0
-78.97499999999998 25.601874999999993 1
-79.27432747473988 25.392971862843748 0
-79.47650503655107 25.404901763671013 0
-79.32285775079579 25.681317569462674 0
-79.16775411376591 25.559165604028852 0
-80.92270994773183 30.195401903841482 0
-80.31352899551709 24.02382993482114 0
-80.66158601935271 24.21064226042633 0
-80.60109558131626 24.467808135408553 0
-80.39788331490418 24.284311436292946 0
-79.79577530086442 24.3353986718246 0
-78.97499999999998 24.22374999999999 1
-80.09088782434422 24.23982944360887 0
-80.20441798407208 24.53790944339284 0
-80.4176253315746 24.586994455547607 0
-79.94212967230969 24.67412009942946 0
-79.99288218134045 24.451211983246623 0
-79.76249999999999 23.30499999999999 1
-79.7918312479487 23.819789413726284 0
-79.8751172620513 24.076972047213523 0
-79.42577764988047 24.08040918333953 0
-79.64990540354873 24.007827660239215 0
-79.4227822781085 23.68882178668156 0
-78.97499999999998 23.764374999999987 1
-79.36874999999998 23.30499999999999 1
-80.0725711567687 23.87095159903014 0
-80.15624999999999 23.30499999999999 1
-79.98265901737427 23.56849565626944 0
-79.7181774266355 23.565755687869576 0
-79.56562499999998 23.30499999999999 1
-79.52019186338426 23.50658264421363 0
-79.959375 23.30499999999999 1
-80.8319959463084 24.343073355034328 0
-81.21446544337701 24.640302836061824 0
-81.0512009831047 24.513424715928828 0
-80.96842794553531 30.655 1
-80.91135755836098 30.46308825559205 0
-82.92858256401786 28.197886344468458 0
-82.94344836237822 28.4061057171236 0
-80.09357675078235 25.274312043317178 0
-81.16553045324599 24.857133596493945 0
-81.52274740513772 24.27347286111997 0
-81.51191734909412 24.577325588328133 0
-81.38777908156285 24.724945896579463 0
-81.32289101049356 24.41846885777676 0
-81.70241068141351 24.431995869179914 0
-82.00848092472862 23.904035908210925 0
-82.02101426054143 24.263999640891054 0
-81.76853189123553 24.092590593943804 0
-81.82580034517939 24.27989067947783 0
-81.33749999999999 23.30499999999999 1
-81.62303116704308 23.660477427842526 0
-81.73124999999999 23.30499999999999 1
-81.77250898774095 23.850698415804654 0
-81.45359967228471 23.947459809489608 0
-81.93514344569792 23.569057223154733 0
-81.74660966725496 23.503887351161932 0
-81.928125 23.30499999999999 1
-81.27435773585411 23.648130672574087 0
-81.45402328283494 23.5038173933374 0
-81.44533851463727 23.749075994575733 0
-81.09914022896842 23.956383748680114 0
-80.88750037421403 24.09579551885504 0
-80.76560698855067 23.680399937431076 0
-80.89013256545495 23.869441185359882 0
-81.01901469457468 23.64900925159336 0
-80.94375 23.30499999999999 1
-80.87202350055563 23.500930901499522 0
-81.140625 23.30499999999999 1
-81.26459095569916 24.161484062162184 0
-81.57818568222442 24.091374658996898 0
-80.59247522575284 23.92175997650905 0
-80.4308501244641 23.62304823926074 0
-80.58428525369324 23.73310993174146 0
-80.28743392031524 23.79862850451715 0
-80.62194468806707 23.513295095268244 0
-80.21448124008086 23.532291463145928 0
-80.35312499999998 23.30499999999999 1
-83.7 23.30499999999999 1
-83.01175719204487 24.04930356591409 0
-82.9125 23.30499999999999 1
-83.71688104073014 24.500497605390184 0
-83.6757792643492 24.927327610209264 0
-83.65308601826993 25.162990376797744 0
-82.64004556118785 24.727295977530915 0
-82.27504961388294 24.569777556599828 0
-82.50797766314224 24.117851503609522 0
-82.55310993428009 24.427103178085165 0
-82.31432769059697 24.30403197683266 0
-82.19582784806796 24.077712862571577 0
-82.51875 23.30499999999999 1
-82.37352688029078 23.69814238766346 0
-82.22394659233169 23.859496015977964 0
-82.15170875965649 23.64251927900085 0
-82.7806048820347 24.235983360232282 0
-83.20459004560198 24.52452439998786 0
-83.03626089489303 24.316094386602884 0
-83.44824981005432 24.143734106127745 0
-83.27102585949618 24.298683744440694 0
-83.50133730491837 24.383277970196094 0
-83.47287531016757 24.692394928959402 0
-82.90961979127349 24.590557143752307 0
-82.76117476718242 24.443811703196072 0
-82.97898631979287 25.061405942407646 0
-82.86546131348577 24.83759668994534 0
-83.16783132350693 24.82491936320049 0
-82.58807240485528 25.118996279915265 0
-82.67964762695345 24.93184882520745 0
-82.35444535582647 24.888699028350104 0
-82.4357165016259 24.699122964128588 0
-82.17195461707985 25.307479466116938 0
-82.3437567940787 25.13319325403156 0
-83.40582373854454 24.95539247514284 0
-83.22921386915264 25.1566010424842 0
-83.0340684692411 25.293086937347912 0
-82.78956073221791 25.45237014311543 0
-82.46929940607694 25.428766433937202 0
-82.62042742286108 25.56271855806995 0
-82.42157398047722 25.797627872198728 0
-82.27888299935664 26.0219524082562 0
-82.07218227671527 26.02325049578106 0
-82.370849905161 26.202133863250534 0
-82.26676669609571 25.590079795780508 0
-82.02006332969587 25.569898843090844 0
-82.63860883838034 25.31602833657232 0
-82.83136892483537 25.218890360678426 0
-83.28937245640458 24.687345578283317 0
-83.68651585789603 24.71296753613324 0
-84.26303277007386 24.686955777977897 0
-83.9808742982252 24.835159903080395 0
-83.90158159384424 25.083665686820346 0
-84.2282316662713 25.05098934018246 0
-84.08040336389944 25.222241074917235 0
-84.17509392781851 24.862229196324773 0
-84.39254002013827 25.207605939977107 0
-84.00733158147509 24.542834798596157 0
-84.48750000000001 23.30499999999999 1
-84.474901397734 24.01216132673708 0
-84.29739913093864 24.3270880001012 0
-84.20028519274045 24.499388726434642 0
-83.8735370532 24.67808537042746 0
-83.94118322853215 23.91882768690032 0
-83.90340473664122 24.238342034254607 0
-83.66974468763893 24.22030114472543 0
-84.14056838774123 24.10439302197501 0
-84.32967011928669 24.137790733100275 0
-84.57740947228781 24.277424179395823 0
-85.275 24.103422776104033 1
-84.88065282515124 24.00780091823635 0
-84.67859281166413 24.08588491197889 0
-84.47705647414264 24.525819605546573 0
-85.275 24.502634164156056 1
-84.87686059876442 24.542873206964416 0
-84.86789225291797 24.27526006274624 0
-85.0549030472042 24.150148437173375 0
-85.07502205426907 24.382544502487047 0
-84.67998749947287 24.46333548731401 0
-84.66647116618995 24.78021200288988 0
-84.43253265564023 24.89161725292776 0
-84.97124844394726 24.83846295077919 0
-85.07608759666219 25.095570182792883 0
-85.275 25.10145124623409 1
-84.84177308533705 25.10391371853177 0
-85.08762220666829 24.638437574664692 0
-85.275 24.702239858182068 1
-84.67403770570054 23.66201619732605 0
-84.88125000000001 23.30499999999999 1
-85.275 23.70421138805201 1
-85.11280612458309 23.901442998738244 0
-85.275 23.90381708207802 1
-84.90652238301293 23.75772196171203 0
-84.86305708328852 23.5330819599484 0
-85.07812500000007 23.435470256483377 0
-85.078125 23.30499999999999 1
-84.66185740173573 23.44114007171902 0
-84.68437500000002 23.30499999999999 1
-85.07786267445002 23.64214656884711 0
-85.275 23.504605694025997 1
-84.26161252518978 23.659159132426545 0
-84.09375 23.30499999999999 1
-84.45132915174173 23.531046351128015 0
-84.290625 23.30499999999999 1
-84.16966287813332 23.873231974426513 0
-83.94287184682072 23.59337332616676 0
-83.56827758803479 23.754161306828507 0
-83.62692728094788 23.985508077449957 0
-83.80801191083955 24.065072464792216 0
-83.79057749770179 23.755314708772598 0
-83.68052518939886 23.543184068910485 0
-83.28316737796835 23.46712372273974 0
-83.30625 23.30499999999999 1
-83.50312500000001 23.30499999999999 1
-83.47008968758949 23.566573223088305 0
-83.23961758646743 23.80669854075281 0
-83.41788132421026 23.92944116136334 0
-83.23695657322179 24.06437918428958 0
-82.87147706781928 23.68924068936109 0
-83.09768017790783 23.615915356026463 0
-83.02752342076661 23.835803125598446 0
-83.896875 23.30499999999999 1
-84.12704809507989 23.506078414694656 0
-82.74132527248122 23.947305628102267 0
-82.51598492667665 23.8838967081843 0
-82.62181441747265 23.655230458720652 0
-82.7722423404578 23.484335805956103 0
-82.71562499999999 23.30499999999999 1
-82.46885551810348 23.509962669884874 0
-82.2633153599503 23.46387115907372 0
-82.321875 23.30499999999999 1
-84.46702571885636 23.775982762284013 0
-81.88863131438535 25.27179912542143 0
-82.05392872080122 24.998042082107364 0
-82.14192899654148 24.772261586034755 0
-81.76817913177672 24.983300494279103 0
-81.70235712531141 24.754746304490844 0
-81.92004280338642 24.816431717342113 0
-82.07681199574037 24.584449955058062 0
-82.15095993934526 24.40645611216565 0
-78.97499999999998 23.53468749999999 1
-79.17187500000055 23.419843750001515 0
-79.17187499999997 23.30499999999999 1
-79.18716417756463 23.6570960478956 0
-79.27632149221483 23.885747264617713 0
-79.18675887517091 24.10921617796489 0
-78.97499999999998 23.994062499999988 1
-78.97499999999998 24.68312499999999 1
-79.35476825369447 24.497229128935295 0
-79.17683526605143 24.34389355115605 0
-78.97499999999998 24.45343749999999 1
-79.61985884637735 24.680607280401734 0
-79.50574978306162 24.965987719105577 0
-79.3766657228966 24.748870182813505 0
-79.21887977535374 24.98961080291964 0
-78.97499999999998 24.91281249999999 1
-79.16499430812033 24.782214995806505 0
-79.37840340427901 25.173173583639276 0
-79.17271130418527 25.210316480476326 0
-78.97499999999998 25.372187499999992 1
-79.58616974718375 24.446012151340344 0
-79.43156585574167 24.295853810327905 0
-79.77830819005398 24.543924870780288 0
-79.6245549972893 24.215380392440835 0
-79.20591829490861 25.923462039853852 0
-78.97499999999998 25.831562499999993 1
-83.7932343214515 27.874421152409333 0
-83.96401903996302 25.57333037558888 0
-84.17768523614059 25.582352297892307 0
-80.1776855 27.206469999999992 1
-79.92521557432507 25.97798667332809 0
-80.44662164676987 29.87269985695517 0
-83.08308418052707 26.851050390054425 0
-80.0724665 26.346337000000005 1

Edges
210
1 2 1
1 159 1
2 3 1
3 4 1
4 5 1
5 6 1
6 7 1
7 193 1
8 193 1
8 199 1
9 10 1
9 199 1
10 11 1
11 12 1
12 13 1
13 14 1
14 15 1
15 16 1
16 286 1
17 286 1
17 749 1
18 19 1
18 749 1
19 20 1
20 753 1
21 22 1
21 753 1
22 23 1
23 24 1
24 25 1
25 26 1
26 27 1
27 28 1
28 29 1
29 30 1
30 31 1
31 32 1
32 33 1
33 34 1
34 35 1
35 36 1
36 37 1
37 38 1
38 39 1
39 40 1
40 128 1
41 42 1
41 128 1
42 43 1
43 44 1
44 45 1
45 46 1
46 47 1
47 48 1
48 49 1
49 113 1
50 51 1
50 113 1
51 52 1
52 53 1
53 54 1
54 479 1
55 56 1
55 479 1
56 57 1
57 58 1
58 111 1
59 60 1
59 111 1
60 61 1
61 110 1
62 63 1
62 110 1
63 64 1
64 65 1
65 66 1
66 67 1
67 68 1
68 69 1
69 70 1
70 71 1
71 72 1
72 73 1
73 74 1
74 75 1
75 76 1
76 77 1
77 78 1
78 79 1
79 80 1
80 81 1
81 82 1
82 83 1
83 84 1
84 85 1
85 86 1
86 87 1
87 88 1
88 89 1
89 90 1
90 91 1
91 92 1
92 93 1
93 94 1
94 95 1
95 96 1
96 97 1
97 98 1
98 305 1
99 100 1
99 305 1
100 101 1
101 166 1
102 675 1
102 679 1
103 720 1
103 722 1
104 332 1
104 347 1
105 336 1
105 341 1
106 256 1
106 278 1
107 309 1
107 310 1
108 559 1
108 710 1
109 735 1
109 739 1
112 411 1
112 415 1
117 568 1
117 579 1
122 341 1
122 537 1
159 537 1
161 380 1
161 382 1
163 168 1
163 371 1
165 166 1
165 168 1
171 371 1
171 382 1
181 261 1
181 745 1
225 327 1
225 348 1
235 332 1
235 336 1
236 309 1
236 327 1
253 294 1
253 297 1
255 256 1
255 261 1
276 278 1
276 294 1
295 297 1
295 310 1
329 347 1
329 348 1
376 388 1
376 414 1
377 380 1
377 388 1
401 663 1
401 666 1
402 415 1
402 495 1
409 411 1
409 414 1
487 495 1
487 663 1
502 739 1
502 745 1
513 726 1
513 730 1
519 531 1
519 533 1
525 720 1
525 726 1
526 531 1
526 722 1
528 533 1
528 579 1
552 554 1
552 570 1
554 559 1
568 570 1
580 693 1
580 701 1
582 692 1
582 707 1
592 707 1
592 710 1
638 677 1
638 683 1
649 653 1
649 671 1
653 666 1
668 675 1
668 677 1
669 671 1
669 679 1
681 683 1
681 701 1
692 693 1
727 730 1
727 735 1

Triangles
1294
2 3 124 0
2 159 1 0
3 4 124 0
4 5 124 0
5 6 186 0
5 123 124 0
6 7 185 0
6 185 186 0
8 198 323 0
9 10 197 0
9 197 198 0
10 11 157 0
10 157 197 0
11 12 129 0
11 129 300 0
12 13 129 0
13 14 129 0
14 15 299 0
15 16 288 0
15 288 299 0
16 285 288 0
17 284 285 0
18 19 251 0
18 251 283 0
19 20 182 0
19 182 251 0
21 22 750 0
22 23 158 0
22 158 184 0
22 184 750 0
23 24 125 0
23 125 158 0
24 25 125 0
25 26 125 0
26 27 266 0
26 266 541 0
27 28 120 0
27 120 144 0
27 144 266 0
28 30 145 0
30 28 29 0
30 31 145 0
31 32 114 0
31 114 146 0
32 33 114 0
33 34 148 0
34 35 154 0
34 154 542 0
35 36 201 0
36 37 201 0
37 38 201 0
38 39 130 0
38 130 201 0
39 40 130 0
40 127 130 0
41 42 127 0
42 43 271 0
43 44 137 0
43 137 622 0
44 45 137 0
45 46 137 0
46 47 137 0
47 48 263 0
47 136 137 0
48 53 54 0
48 54 160 0
48 160 263 0
51 52 50 0
52 53 50 0
53 48 49 0
53 113 50 0
55 56 441 0
56 57 478 0
57 67 477 0
57 477 478 0
60 65 59 0
61 65 60 0
63 64 62 0
64 110 62 0
65 66 59 0
65 110 64 0
66 67 58 0
66 111 59 0
67 57 58 0
67 68 204 0
67 204 477 0
68 69 499 0
69 70 539 0
70 71 131 0
70 131 540 0
71 72 131 0
72 73 131 0
73 74 133 0
74 75 169 0
75 76 169 0
76 77 115 0
76 115 169 0
77 78 115 0
78 79 115 0
79 80 115 0
80 81 140 0
80 140 170 0
81 82 140 0
82 83 126 0
82 126 140 0
83 84 126 0
84 85 139 0
85 87 202 0
87 85 86 0
87 88 135 0
87 135 202 0
88 89 135 0
89 90 269 0
90 92 269 0
91 92 90 0
92 93 116 0
92 116 269 0
93 94 116 0
94 95 116 0
95 96 116 0
96 97 132 0
96 132 177 0
97 98 132 0
99 100 194 0
99 194 303 0
99 243 304 0
100 166 194 0
103 720 721 0
104 332 333 0
105 341 343 0
106 252 274 0
107 308 318 0
108 557 595 0
108 595 709 0
110 65 61 0
111 66 58 0
112 408 410 0
112 415 416 0
113 53 49 0
114 33 148 0
115 80 170 0
116 96 177 0
116 138 269 0
117 574 577 0
118 119 147 0
118 147 176 0
118 176 510 0
118 510 516 0
119 118 144 0
119 120 145 0
119 145 147 0
120 28 145 0
120 119 144 0
121 342 538 0
122 537 538 0
123 5 186 0
123 186 507 0
123 507 538 0
125 26 541 0
126 84 139 0
126 139 140 0
127 42 151 0
127 128 41 0
128 127 40 0
129 14 299 0
129 299 300 0
130 127 151 0
130 151 223 0
131 73 133 0
131 133 540 0
132 98 304 0
133 74 169 0
133 169 170 0
133 170 350 0
133 174 540 0
134 135 269 0
134 138 262 0
135 89 269 0
135 134 202 0
136 47 263 0
136 263 623 0
136 621 622 0
137 136 622 0
138 116 177 0
138 134 269 0
138 177 262 0
139 85 202 0
139 202 221 0
140 139 221 0
140 219 222 0
141 142 272 0
141 272 732 0
141 500 501 0
141 732 737 0
142 141 501 0
142 158 541 0
143 144 516 0
143 515 517 0
144 118 516 0
144 143 266 0
145 31 146 0
145 146 147 0
146 114 147 0
147 114 148 0
147 148 176 0
148 34 542 0
149 349 353 0
149 353 498 0
149 354 473 0
149 473 474 0
150 174 349 0
150 205 499 0
150 349 474 0
150 499 539 0
151 42 271 0
151 271 625 0
151 625 712 0
152 547 716 0
152 549 551 0
152 716 717 0
152 717 718 0
153 154 200 0
153 200 715 0
153 544 545 0
153 715 716 0
154 35 201 0
154 153 545 0
155 156 315 0
155 312 317 0
156 155 224 0
156 157 300 0
156 300 314 0
156 314 315 0
157 11 300 0
157 156 196 0
157 196 197 0
158 125 541 0
158 142 501 0
159 2 124 0
159 123 538 0
159 124 123 0
160 54 440 0
160 437 438 0
160 438 623 0
161 379 381 0
163 162 167 0
164 165 167 0
164 166 165 0
164 167 213 0
164 212 303 0
166 100 101 0
166 164 194 0
167 162 213 0
167 168 163 0
168 167 165 0
169 115 170 0
170 140 222 0
170 222 350 0
171 382 383 0
172 435 752 0
172 452 463 0
173 436 439 0
173 439 441 0
173 441 468 0
173 468 752 0
174 133 350 0
174 150 539 0
174 539 540 0
175 534 536 0
175 536 546 0
175 546 571 0
175 563 564 0
176 148 536 0
177 132 301 0
178 206 262 0
178 262 301 0
178 301 302 0
179 185 189 0
179 189 190 0
179 190 507 0
180 182 248 0
180 248 258 0
180 258 273 0
181 260 744 0
182 20 245 0
182 180 250 0
182 245 248 0
182 250 251 0
183 184 500 0
183 500 505 0
183 505 744 0
184 158 501 0
184 183 247 0
184 247 750 0
185 7 192 0
185 179 186 0
186 179 507 0
187 228 229 0
187 229 238 0
187 238 239 0
187 239 325 0
188 189 191 0
188 191 324 0
188 324 325 0
188 325 751 0
189 185 192 0
189 188 751 0
190 189 751 0
190 339 344 0
190 344 507 0
191 8 323 0
191 189 192 0
191 193 8 0
191 323 324 0
193 191 192 0
193 192 7 0
194 164 303 0
195 196 224 0
195 224 227 0
195 227 228 0
195 228 240 0
195 240 322 0
196 156 224 0
196 195 322 0
197 196 322 0
198 197 322 0
198 199 9 0
198 240 323 0
199 198 8 0
200 154 201 0
200 201 223 0
200 223 712 0
200 712 715 0
201 130 223 0
202 134 206 0
202 206 210 0
202 210 218 0
202 218 221 0
203 204 205 0
203 205 471 0
203 442 477 0
203 471 475 0
204 68 499 0
204 203 477 0
205 150 474 0
205 204 499 0
205 470 471 0
206 134 262 0
206 178 209 0
206 209 210 0
207 210 356 0
208 209 211 0
208 211 217 0
208 217 372 0
208 355 356 0
209 178 211 0
209 208 210 0
210 207 218 0
210 208 356 0
211 178 302 0
211 215 217 0
212 164 213 0
212 213 215 0
212 215 302 0
212 302 303 0
213 162 214 0
213 214 215 0
214 162 370 0
215 211 302 0
215 214 217 0
216 217 366 0
216 357 372 0
217 214 366 0
217 216 372 0
218 207 219 0
218 219 221 0
219 140 221 0
219 207 220 0
219 220 222 0
220 207 352 0
220 349 350 0
220 352 353 0
222 220 350 0
223 151 712 0
224 155 242 0
226 227 242 0
226 241 320 0
227 224 242 0
227 226 229 0
228 187 240 0
228 227 229 0
229 226 231 0
229 231 233 0
229 233 238 0
230 231 237 0
230 237 326 0
230 326 328 0
231 226 237 0
231 230 233 0
232 233 234 0
232 234 345 0
232 345 346 0
233 230 234 0
233 232 238 0
234 230 328 0
234 328 330 0
234 330 331 0
234 331 335 0
234 334 345 0
237 226 320 0
237 320 321 0
237 327 326 0
238 232 346 0
239 238 346 0
239 339 751 0
240 187 324 0
240 198 322 0
241 226 242 0
241 242 317 0
241 306 320 0
242 155 317 0
243 99 303 0
243 301 304 0
244 245 246 0
244 246 247 0
244 247 259 0
245 244 248 0
246 21 750 0
246 753 21 0
247 183 259 0
247 246 750 0
248 244 258 0
249 250 252 0
249 252 279 0
249 279 282 0
249 282 283 0
250 180 254 0
250 249 251 0
251 249 283 0
252 250 254 0
252 254 274 0
252 277 279 0
252 278 277 0
253 297 298 0
254 180 257 0
254 257 274 0
255 256 273 0
256 106 274 0
256 257 273 0
257 180 273 0
257 256 274 0
258 244 259 0
258 259 260 0
258 260 273 0
259 183 744 0
260 259 744 0
260 261 273 0
261 255 273 0
261 260 181 0
262 177 301 0
263 160 623 0
264 446 617 0
264 617 619 0
264 619 620 0
265 438 481 0
265 481 620 0
265 620 621 0
265 621 623 0
266 143 268 0
266 268 272 0
266 272 541 0
267 268 517 0
267 517 731 0
267 731 732 0
268 143 517 0
268 267 272 0
270 271 622 0
270 620 624 0
270 624 625 0
271 43 622 0
271 270 625 0
272 142 541 0
272 267 732 0
276 275 277 0
277 275 279 0
277 278 276 0
278 252 106 0
279 275 281 0
279 281 282 0
280 281 292 0
280 292 293 0
281 275 291 0
281 280 282 0
281 291 292 0
282 280 284 0
283 282 284 0
283 749 18 0
284 280 285 0
284 749 283 0
285 280 288 0
285 286 17 0
286 285 16 0
287 288 293 0
287 293 313 0
287 313 314 0
288 280 293 0
288 287 299 0
289 290 296 0
289 296 319 0
289 311 312 0
289 312 316 0
290 289 292 0
290 294 298 0
291 290 292 0
291 294 290 0
292 289 293 0
293 289 316 0
294 253 298 0
294 275 276 0
294 291 275 0
295 310 318 0
295 318 319 0
296 290 298 0
296 297 319 0
297 295 319 0
297 296 298 0
299 287 314 0
300 299 314 0
301 132 304 0
301 243 302 0
302 243 303 0
304 305 99 0
305 304 98 0
306 241 307 0
306 307 308 0
306 309 321 0
307 241 317 0
307 311 318 0
308 307 318 0
309 236 321 0
309 306 308 0
309 308 107 0
310 107 318 0
311 289 319 0
311 307 317 0
312 155 315 0
312 311 317 0
312 315 316 0
313 293 316 0
314 313 315 0
315 313 316 0
318 311 319 0
320 306 321 0
323 240 324 0
324 187 325 0
325 239 751 0
326 225 328 0
326 327 225 0
327 237 321 0
327 321 236 0
330 329 333 0
330 348 329 0
331 235 335 0
331 330 333 0
331 332 235 0
332 331 333 0
333 347 104 0
334 234 335 0
334 336 337 0
334 337 338 0
334 338 345 0
336 105 337 0
336 334 335 0
336 335 235 0
337 105 343 0
338 337 343 0
338 339 346 0
339 190 751 0
339 239 346 0
339 338 340 0
339 340 344 0
340 338 343 0
340 341 342 0
340 342 344 0
341 122 342 0
341 340 343 0
342 121 344 0
342 122 538 0
344 121 507 0
345 338 346 0
347 333 329 0
348 328 225 0
348 330 328 0
349 149 474 0
349 174 350 0
349 220 353 0
351 352 355 0
351 355 357 0
351 357 359 0
351 359 360 0
351 360 498 0
352 207 356 0
352 351 498 0
353 352 498 0
354 149 498 0
354 360 746 0
355 208 372 0
355 352 356 0
357 216 364 0
357 355 372 0
358 359 363 0
358 363 373 0
358 373 465 0
359 357 363 0
359 358 360 0
360 354 498 0
360 358 465 0
360 362 746 0
361 362 460 0
361 458 469 0
361 469 472 0
362 360 465 0
362 361 472 0
362 472 746 0
363 357 364 0
363 364 367 0
363 367 497 0
364 216 366 0
364 366 367 0
365 366 369 0
365 368 497 0
365 369 383 0
366 214 370 0
366 365 367 0
367 365 497 0
368 365 381 0
368 373 497 0
368 378 384 0
369 171 383 0
369 366 370 0
369 371 171 0
370 371 369 0
371 162 163 0
371 370 162 0
373 363 497 0
373 368 384 0
373 375 461 0
373 461 465 0
374 459 460 0
374 460 461 0
374 461 496 0
375 373 384 0
375 384 386 0
375 386 389 0
375 389 496 0
376 414 417 0
377 378 379 0
378 368 379 0
378 377 387 0
379 368 381 0
379 380 377 0
380 379 161 0
381 365 383 0
381 382 161 0
382 381 383 0
384 378 386 0
385 386 387 0
385 387 417 0
386 378 387 0
386 385 389 0
387 376 417 0
387 388 376 0
388 387 377 0
389 385 391 0
389 391 394 0
389 394 464 0
389 464 496 0
390 391 413 0
391 385 412 0
391 390 393 0
391 393 394 0
391 412 413 0
392 393 397 0
392 397 445 0
392 445 457 0
392 457 462 0
393 390 396 0
393 392 462 0
393 396 397 0
394 393 462 0
394 462 464 0
395 396 405 0
395 405 419 0
395 419 420 0
396 390 404 0
396 395 397 0
396 404 405 0
397 395 400 0
397 400 476 0
398 421 424 0
398 424 427 0
398 427 430 0
398 430 431 0
399 400 420 0
399 420 421 0
399 421 431 0
399 431 476 0
400 395 420 0
400 399 476 0
401 661 662 0
402 490 491 0
403 404 408 0
403 407 489 0
403 408 416 0
403 416 492 0
404 390 408 0
404 403 405 0
405 403 489 0
406 482 493 0
406 493 494 0
407 403 492 0
407 482 489 0
407 492 493 0
408 112 416 0
408 390 413 0
409 410 412 0
410 408 413 0
410 411 112 0
411 410 409 0
412 385 417 0
412 410 413 0
412 414 409 0
414 412 417 0
415 402 491 0
416 415 491 0
416 491 492 0
418 419 482 0
418 423 451 0
418 482 748 0
419 405 489 0
419 418 451 0
420 419 451 0
421 398 431 0
421 420 451 0
421 423 424 0
422 423 747 0
423 418 747 0
423 421 451 0
423 422 424 0
424 422 426 0
424 426 427 0
425 426 449 0
425 446 480 0
426 422 448 0
426 425 427 0
426 448 449 0
427 425 429 0
427 429 430 0
428 429 434 0
428 434 443 0
428 443 463 0
429 425 433 0
429 428 430 0
429 433 434 0
430 428 463 0
431 430 463 0
431 444 476 0
432 433 438 0
433 425 480 0
433 432 434 0
433 480 481 0
434 432 435 0
434 435 443 0
435 172 443 0
435 432 436 0
435 436 752 0
436 173 752 0
436 432 437 0
436 437 440 0
437 160 440 0
437 432 438 0
438 265 623 0
438 433 481 0
439 55 441 0
439 436 440 0
439 479 55 0
441 56 478 0
442 203 466 0
442 466 468 0
442 468 478 0
443 172 463 0
444 431 452 0
444 445 476 0
444 452 456 0
444 456 457 0
445 397 476 0
445 444 457 0
446 264 480 0
446 425 449 0
446 449 616 0
446 616 617 0
447 448 450 0
447 450 585 0
447 585 614 0
447 614 615 0
448 422 450 0
448 447 449 0
449 447 615 0
449 615 616 0
450 422 747 0
452 172 454 0
452 431 463 0
452 454 456 0
453 454 455 0
453 455 469 0
454 172 467 0
454 453 456 0
455 454 467 0
455 466 475 0
456 453 457 0
457 453 458 0
457 458 462 0
458 361 459 0
458 453 469 0
458 459 462 0
459 361 460 0
459 374 464 0
460 362 465 0
461 375 496 0
461 460 465 0
462 459 464 0
464 374 496 0
466 203 475 0
466 455 467 0
466 467 468 0
467 172 752 0
468 441 478 0
468 467 752 0
469 455 471 0
469 471 472 0
470 205 473 0
470 473 746 0
471 455 475 0
471 470 472 0
472 470 746 0
473 205 474 0
473 354 746 0
477 442 478 0
479 439 440 0
479 440 54 0
480 264 481 0
481 264 620 0
482 406 484 0
482 407 493 0
482 419 489 0
482 484 748 0
483 484 486 0
483 486 636 0
483 634 747 0
483 747 748 0
484 406 486 0
484 483 748 0
485 486 488 0
485 488 664 0
485 659 660 0
486 406 494 0
486 485 636 0
488 486 494 0
488 487 662 0
488 495 487 0
488 662 664 0
490 495 494 0
491 490 492 0
492 490 493 0
493 490 494 0
494 495 488 0
495 490 402 0
499 69 539 0
500 141 504 0
500 184 501 0
500 504 505 0
503 504 737 0
503 737 738 0
503 739 506 0
504 141 737 0
504 503 505 0
505 503 506 0
505 506 744 0
506 739 502 0
506 745 744 0
507 121 538 0
508 509 573 0
508 573 576 0
509 508 511 0
509 510 534 0
509 534 564 0
509 564 573 0
510 176 534 0
510 509 511 0
510 511 516 0
511 508 514 0
511 514 515 0
511 515 516 0
512 514 521 0
512 521 743 0
512 740 742 0
514 508 527 0
514 512 518 0
515 143 516 0
515 514 518 0
517 515 518 0
517 518 742 0
518 512 742 0
520 521 527 0
520 527 529 0
520 529 530 0
521 514 527 0
521 520 523 0
521 523 743 0
522 523 524 0
522 524 724 0
522 724 725 0
522 725 741 0
522 741 743 0
523 520 524 0
523 522 743 0
524 520 530 0
524 530 532 0
524 532 721 0
524 721 723 0
524 723 724 0
527 508 576 0
527 576 578 0
528 529 578 0
529 519 530 0
529 527 578 0
529 533 519 0
530 531 532 0
531 526 532 0
531 530 519 0
532 526 721 0
533 529 528 0
534 175 564 0
534 176 536 0
535 536 542 0
535 542 545 0
535 545 546 0
536 148 542 0
536 535 546 0
537 159 538 0
539 70 540 0
542 154 545 0
543 544 547 0
543 547 551 0
543 550 572 0
544 153 716 0
544 543 546 0
545 544 546 0
546 543 571 0
547 152 551 0
547 544 716 0
548 549 591 0
548 591 594 0
548 594 595 0
549 152 718 0
549 548 550 0
549 550 551 0
549 590 591 0
549 718 719 0
550 543 551 0
550 548 555 0
550 555 572 0
552 560 561 0
553 555 557 0
553 557 558 0
553 558 561 0
553 561 562 0
554 552 561 0
555 548 557 0
555 553 562 0
555 556 572 0
556 555 562 0
556 562 563 0
556 563 571 0
556 571 572 0
557 548 595 0
558 554 561 0
558 559 554 0
559 557 108 0
559 558 557 0
560 570 567 0
561 560 562 0
562 560 563 0
563 175 571 0
563 560 567 0
564 563 566 0
564 566 573 0
565 566 567 0
565 567 569 0
565 569 577 0
566 563 567 0
566 565 573 0
568 117 569 0
569 117 577 0
569 570 568 0
570 560 552 0
570 569 567 0
571 543 572 0
573 565 575 0
573 575 576 0
574 575 577 0
574 579 578 0
575 565 577 0
575 574 576 0
576 574 578 0
578 579 528 0
579 574 117 0
581 596 598 0
581 598 697 0
581 697 700 0
581 700 703 0
583 601 602 0
583 602 629 0
583 629 642 0
583 637 644 0
583 644 645 0
584 585 632 0
584 602 614 0
584 631 642 0
585 450 632 0
585 584 614 0
586 589 611 0
586 603 604 0
587 589 590 0
587 590 719 0
588 589 596 0
588 596 703 0
588 703 704 0
589 586 604 0
589 587 611 0
589 588 590 0
590 549 719 0
590 588 591 0
591 588 704 0
593 594 704 0
593 704 705 0
593 705 708 0
593 708 709 0
594 591 704 0
594 593 595 0
595 593 709 0
596 581 703 0
596 589 604 0
597 598 603 0
597 603 607 0
597 607 628 0
598 596 604 0
598 597 600 0
598 600 697 0
599 600 601 0
599 601 645 0
599 645 687 0
599 687 696 0
599 696 697 0
600 597 601 0
600 599 697 0
601 583 645 0
601 597 602 0
602 584 629 0
602 597 628 0
603 586 606 0
603 598 604 0
603 606 607 0
605 606 609 0
605 609 627 0
606 586 609 0
606 605 607 0
607 605 615 0
607 614 628 0
608 609 610 0
608 610 613 0
608 613 618 0
608 618 626 0
608 626 627 0
609 586 610 0
609 608 627 0
610 586 611 0
610 611 714 0
611 587 714 0
612 613 713 0
613 610 713 0
613 612 618 0
614 602 628 0
614 607 615 0
615 605 616 0
616 605 627 0
617 616 627 0
618 612 624 0
618 619 626 0
619 617 626 0
619 618 624 0
620 270 621 0
620 619 624 0
621 136 623 0
621 270 622 0
624 612 625 0
625 612 712 0
626 617 627 0
629 584 642 0
630 631 635 0
630 635 660 0
631 584 632 0
631 630 637 0
631 632 635 0
631 637 642 0
632 450 634 0
632 633 635 0
633 632 634 0
633 634 636 0
633 636 660 0
634 450 747 0
634 483 636 0
635 633 660 0
636 485 660 0
637 583 642 0
637 630 641 0
637 641 644 0
639 647 648 0
639 648 651 0
639 651 711 0
640 641 652 0
641 630 652 0
641 640 644 0
643 646 684 0
643 684 685 0
643 685 689 0
644 640 646 0
644 646 688 0
645 644 688 0
646 640 647 0
646 643 688 0
646 647 684 0
647 639 684 0
647 640 648 0
648 640 652 0
648 652 658 0
649 656 657 0
650 651 655 0
650 655 656 0
650 656 670 0
650 670 672 0
651 648 655 0
651 650 667 0
651 667 711 0
652 630 660 0
653 649 657 0
653 657 665 0
654 655 658 0
654 658 659 0
654 659 661 0
654 661 665 0
655 648 658 0
655 654 657 0
656 649 670 0
656 655 657 0
657 654 665 0
658 652 659 0
659 485 664 0
659 652 660 0
661 659 664 0
661 666 665 0
662 661 664 0
662 663 401 0
663 662 487 0
665 666 653 0
666 661 401 0
667 650 672 0
667 672 673 0
667 673 676 0
667 676 682 0
667 682 711 0
668 673 674 0
670 669 678 0
670 671 669 0
671 670 649 0
672 670 678 0
673 668 676 0
673 672 678 0
674 673 678 0
674 675 668 0
674 679 102 0
675 674 102 0
676 638 682 0
676 677 638 0
677 676 668 0
678 679 674 0
679 678 669 0
680 682 702 0
680 684 711 0
681 701 702 0
682 680 711 0
682 683 702 0
683 681 702 0
683 682 638 0
684 639 711 0
684 680 685 0
685 680 702 0
686 687 689 0
686 689 690 0
686 690 694 0
686 694 695 0
686 695 696 0
687 645 688 0
687 686 696 0
687 688 689 0
688 643 689 0
689 685 690 0
690 693 694 0
690 701 580 0
691 582 699 0
691 692 582 0
691 693 692 0
693 690 580 0
693 691 694 0
694 691 695 0
695 691 699 0
695 699 700 0
696 695 697 0
697 695 700 0
698 699 706 0
699 582 706 0
699 698 700 0
700 698 703 0
701 685 702 0
701 690 685 0
703 698 705 0
704 703 705 0
705 698 706 0
705 706 708 0
706 592 708 0
706 707 592 0
707 706 582 0
708 710 709 0
709 710 108 0
710 708 592 0
712 612 713 0
712 713 715 0
713 610 714 0
713 714 717 0
714 587 718 0
715 713 717 0
716 715 717 0
717 714 718 0
718 587 719 0
720 525 723 0
721 720 723 0
721 722 103 0
722 721 526 0
723 525 724 0
724 726 725 0
725 513 729 0
725 726 513 0
725 729 741 0
726 724 525 0
727 735 736 0
728 727 736 0
728 730 727 0
728 731 740 0
728 740 741 0
729 728 741 0
730 728 729 0
730 729 513 0
731 517 742 0
731 728 733 0
732 731 733 0
732 733 734 0
732 734 737 0
733 728 736 0
734 109 738 0
734 733 736 0
734 735 109 0
735 734 736 0
737 734 738 0
739 503 738 0
739 738 109 0
740 512 743 0
740 731 742 0
741 740 743 0
744 745 181 0
745 506 502 0
747 418 748 0
749 284 17 0
753 245 20 0
753 246 245 0

End
