MeshVersionFormatted 1

Dimension
2

Vertices
753
-81.42844977912038 30.655 1
-81.435829 30.526070999999995 1
-81.39346899999998 30.395553000000003 1
-81.39620300000001 30.331085999999992 1
-81.30897800000001 29.96943999999998 1
-81.253877 29.776852 1
-81.163581 29.555289999999996 1
-80.96617599999999 29.147959999999994 1
-80.709725 28.75669199999999 1
-80.57424000000002 28.585338999999994 1
-80.525094 28.459454 1
-80.58903 28.407871999999998 1
-80.606823 28.29640399999999 1
-80.59416399999999 28.195863999999997 1
-80.530964 28.01365599999999 1
-80.384408 27.741190999999993 1
-80.261462 27.394352999999988 1
-80.09390900000001 27.018586999999997 1
-80.031362 26.796339000000003 1
-80.03615800000001 26.60258600000001 1
-80.108775 26.090087999999998 1
-80.12100799999999 25.813198999999987 1
-80.237858 25.727228000000007 1
-80.340026 25.467887999999988 1
-80.31035999999999 25.373100000000004 1
-80.25301499999999 25.340493999999996 1
-80.39971699999998 25.108491999999995 1
-80.461342 25.132487 1
-80.465501 25.21175499999999 1
-80.582083 25.21068 1
-80.722391 25.15954699999999 1
-80.868151 25.175953 1
-80.900577 25.139669 1
-81.08393 25.10619399999999 1
-81.172044 25.222276 1
-81.12140999999998 25.338749999999994 1
-81.16796999999998 25.46948900000001 1
-81.27148900000002 25.614339999999984 1
-81.290328 25.687505999999992 1
-81.41504 25.78435 1
-81.642345 25.905431000000004 1
-81.68953999999998 25.85271 1
-81.80174799999999 26.091405 1
-81.833142 26.294517999999997 1
-81.868983 26.378647999999984 1
-82.00589900000001 26.534412999999997 1
-82.10062499999998 26.510763999999998 1
-82.14255399999999 26.643910999999992 1
-82.091355 26.666770999999986 1
-82.051105 26.864954999999995 1
-82.11547800000001 26.951132 1
-82.181198 26.921363 1
-82.145071 26.788833999999994 1
-82.249888 26.762945999999996 1
-82.445718 27.060633999999983 1
-82.522032 27.228374999999986 1
-82.70782099999997 27.48761499999999 1
-82.641346 27.525508000000006 1
-82.514265 27.705588000000002 1
-82.39190100000002 27.823856999999997 1
-82.41531799999998 27.900378 1
-82.67557199999999 28.00544199999999 1
-82.72060799999998 27.936155999999997 1
-82.638423 27.904629999999994 1
-82.58762499999999 27.81900999999999 1
-82.63981999999997 27.703906999999997 1
-82.738022 27.706807 1
-82.85216799999999 27.885971999999985 1
-82.792986 28.00649099999998 1
-82.73146099999998 28.32501499999999 1
-82.66988199999999 28.433054999999992 1
-82.655132 28.674851999999998 1
-82.715027 28.72697099999999 1
-82.738695 28.824795999999996 1
-82.68886399999998 28.905608999999988 1
-82.76405499999998 28.999707000000015 1
-82.763751 29.054518 1
-82.83421600000001 29.154919999999983 1
-82.99857899999999 29.174124000000003 1
-83.05654199999998 29.12990899999999 1
-83.07726499999998 29.255330999999998 1
-83.16457799999998 29.296822999999993 1
-83.218075 29.420492 1
-83.280229 29.433412999999998 1
-83.395742 29.526314 1
-83.406437 29.650325000000002 1
-83.54248500000001 29.728152000000005 1
-83.586836 29.818941000000002 1
-83.68079099999999 29.921573999999985 1
-83.92536399999999 30.034567999999986 1
-84.02427399999999 30.103270999999992 1
-84.15727799999999 30.072714000000005 1
-84.23701399999997 30.08556 1
-84.33428 30.037079999999996 1
-84.361962 29.98773900000001 1
-84.34446 29.899024999999998 1
-84.451705 29.929085000000004 1
-84.535873 29.91009199999999 1
-84.88177699999999 29.73388199999999 1
-85.12147299999998 29.715854 1
-85.275 29.69238220883236 1
-85.275 23.30499999999999 1
-78.97499999999998 23.30499999999999 1
-78.97499999999998 30.655 1
-80.20172488956018 30.655 1
-78.97499999999998 26.979999999999997 1
-78.97499999999998 28.8175 1
-82.125 23.30499999999999 1
-78.97499999999998 25.14249999999999 1
-82.54544499999999 27.952909999999996 1
-82.07123 26.76586299999999 1
-80.81831526299176 25.100402062870828 0
-80.54999999999998 23.30499999999999 1
-80.47265906889493 24.71009115823171 0
-80.45254435528896 24.996790408771464 0
-81.5286925 25.8448905 1
-80.49666377135603 28.364420072385986 0
-80.30749137859338 25.005205175353126 0
-80.59320997815452 25.062444964722218 0
-80.7252303857552 25.035357325567283 0
-80.70177277320194 24.867384232079207 0
-80.91876076004299 24.9362225057335 0
-81.85868089421143 24.60637935536007 0
-81.42748589000325 24.944333196388865 0
-81.23434625441485 25.11166665777268 0
-79.75089780382713 28.612787607739794 0
-80.16930073053796 28.507925902833968 0
-80.33717125314942 28.686783458910977 0
-81.12176855673033 30.655 1
-80.96842794553531 30.655 1
-81.43648999116645 25.69307798649401 0
-81.42152209890378 25.48508165428128 0
-81.58909808249793 25.675555758511525 0
-85.275 29.49277651480635 1
-85.275 29.093565126754328 1
-80.29173186219062 24.67909026019326 0
-80.36761458925957 24.860372487274844 0
-80.1606668068592 24.812160535411405 0
-80.4823945017355 24.85654028985721 0
-85.275 28.694353738702304 1
-85.275 28.195339503637275 1
-82.14065124296785 25.73161267040763 0
-81.74564399999998 25.9720575 1
-81.86304737666298 25.693630531324736 0
-82.10339428367597 25.420198680943713 0
-81.69851604756812 25.022569334547153 0
-81.59421959898977 25.154426560201827 0
-81.82826450031732 25.277986229980947 0
-80.74588759599948 30.363001831455563 0
-80.50840611195024 30.655 1
-79.89504366717013 30.655 1
-80.33614323708316 29.99168560940017 0
-78.97499999999998 29.73625 1
-80.08609000856383 29.844380107795132 0
-79.71413886339569 29.21644074627969 0
-79.70936435580894 29.471813393188945 0
-80.0669174759287 30.27623370018732 0
-83.30308014295935 27.561115424867115 0
-83.03324231614994 27.82730125027633 0
-83.55668023136711 29.304593554634696 0
-84.05294107950292 29.42331916796963 0
-83.69750768537308 29.783517381583305 0
-83.14414644137968 28.955869247753203 0
-83.50394008951491 28.65800581647794 0
-83.86991921176998 28.58558239838917 0
-80.99513733073239 24.305886073009788 0
-80.87393263670673 24.5524467599451 0
-80.74965717864534 24.664014766270004 0
-80.5422655759231 24.477404626126855 0
-80.71500343869262 24.352470830978554 0
-80.95787658566645 24.741300366328712 0
-81.09267126737909 24.620701148286738 0
-80.97900637693934 24.63511232933914 0
-81.01953015294328 24.497782094114875 0
-81.11386743168411 24.822789919631255 0
-81.0156246935461 24.79333547715918 0
-80.5165193643864 24.180456807664445 0
-80.62496230503538 24.287786668032442 0
-80.29174152967101 24.351350920511607 0
-80.42500984688355 24.312396993474152 0
-80.32885925347593 24.154201557023125 0
-80.7890771858112 24.060263350103277 0
-80.74850979233793 24.21865114137334 0
-80.8865180779131 24.166849490733885 0
-81.33749999999999 23.30499999999999 1
-81.19182236959129 23.823078103967635 0
-81.09561022596225 23.993702984464367 0
-80.95949791377618 24.020630356118584 0
-81.03076590061191 23.887692845130136 0
-81.0466109294373 24.14408743915853 0
-81.24391430947674 24.15238277055652 0
-84.70882499999999 29.821986999999993 1
-84.795301 29.777934499999994 1
-78.97499999999998 26.061249999999994 1
-80.0724665 26.346337000000005 1
-78.97499999999998 26.520624999999995 1
-79.31925349051811 26.143347487214537 0
-78.97499999999998 25.601874999999993 1
-78.97499999999998 25.831562499999993 1
-79.88343969983619 25.872821988344448 0
-80.1148915 25.951643499999992 1
-78.97499999999998 26.750312499999996 1
-79.75507437631825 26.32173621136982 0
-79.74089957201845 26.758230935029204 0
-80.0626355 26.907463 1
-81.36666482918945 23.867203579376547 0
-81.633729543527 24.136776974967034 0
-81.51515435827574 24.589274396839965 0
-81.59295391463681 24.71813857627533 0
-81.30347011891689 24.772265546526278 0
-81.67810942933633 24.595226704182483 0
-81.78561329599805 24.759264192934673 0
-82.00891698074714 24.828404554942935 0
-81.6215377510587 24.439872536024986 0
-81.88499962175462 24.277802209159212 0
-81.42108631587227 24.291692406042703 0
-81.79032506782656 24.440757790221177 0
-81.266304136325 24.858282751002744 0
-81.15572334977924 24.701443589152632 0
-81.25035439859305 24.48497642486811 0
-81.38131793265913 24.527921382988843 0
-81.11884460533649 24.396839273380582 0
-81.26643304149762 24.30168030320133 0
-81.04827663966216 24.72418564642038 0
-81.40495444354288 24.051417924484916 0
-81.48519579865554 24.171387636611684 0
-81.65257195993189 23.7970010296885 0
-81.53272249765499 23.90986714038426 0
-81.48582708621876 23.716195667765664 0
-81.64145893089467 23.598316548960817 0
-81.66131702116525 23.984617603991936 0
-81.97070201554783 23.94740733231158 0
-81.81297174847579 24.099139318936373 0
-81.80395284139327 23.866402575061702 0
-81.95299024190082 23.753208508026773 0
-81.82425049752858 23.6704200847029 0
-82.17134676035467 24.5495368986861 0
-82.0058991665953 24.43345069354869 0
-82.04285496967566 24.181816215910285 0
-82.14860364298491 23.98088458402829 0
-82.24362180559035 24.120797992218442 0
-83.7 23.30499999999999 1
-82.44713321836495 24.14277249249824 0
-82.9125 23.30499999999999 1
-82.18765491041371 24.327583951349343 0
-82.34942583818514 24.449432466213246 0
-82.34518499074275 24.646859644288938 0
-82.63745345516784 24.596118078100396 0
-82.4898754975257 24.698559959801127 0
-82.47354378630807 24.512185707557133 0
-81.95728532467436 25.04276988444412 0
-82.37496690127199 24.837572549164474 0
-82.21915007823176 24.7612405618068 0
-82.5268252166055 23.90813463011282 0
-82.32089467813825 23.944431074732577 0
-82.1363595262222 23.793125870131796 0
-82.06688516138998 24.62506352280851 0
-81.72461939000044 24.279745312611755 0
-81.73124999999999 23.30499999999999 1
-81.53437499999998 23.30499999999999 1
-81.67231526223965 23.44079422164273 0
-81.79601105669188 23.469127207401602 0
-81.4638944910273 23.52963624225271 0
-81.1972602968957 23.55513494422585 0
-80.94375 23.30499999999999 1
-81.32597529045873 23.70438594027216 0
-80.95036469935326 23.501727042216082 0
-81.140625 23.30499999999999 1
-81.80589189874998 24.940208098209247 0
-81.23326480121162 23.990584510542213 0
-80.47036098052011 23.927531693395352 0
-80.7805308556666 23.641510382280835 0
-80.15624999999999 23.30499999999999 1
-80.34261915517563 23.52960830605571 0
-80.60407344614742 23.530797468456917 0
-80.99678405851448 23.697682522199322 0
-80.81644321935369 23.4799835556153 0
-80.86914794849369 23.851825513192857 0
-80.74687499999999 23.30499999999999 1
-79.6011400090172 23.692573916720388 0
-78.97499999999998 23.764374999999987 1
-79.36874999999998 23.30499999999999 1
-79.27362947347892 24.003371667561453 0
-79.25126511808486 23.566469375348994 0
-79.17187499999997 23.30499999999999 1
-79.66406249999999 23.30499999999999 1
-78.97499999999998 23.41984374999999 1
-79.959375 23.30499999999999 1
-78.97499999999998 24.338593749999987 1
-78.97499999999998 24.56828124999999 1
-79.61156928767664 24.642793366380545 0
-79.82186772311535 24.73689051600327 0
-79.91679683822727 24.320139548140876 0
-80.18289271808601 24.589926261179336 0
-79.67182646618582 24.335906235560806 0
-79.86035697249493 24.546742512676037 0
-80.01499707189818 24.683362065566648 0
-79.95917052761752 24.90806035165687 0
-80.1757688705394 25.244544456710713 0
-80.243207883945 25.114692140383315 0
-80.32636599999998 25.224492999999995 1
-80.22066282744684 25.450148048791778 0
-80.13196567144766 25.05770762831522 0
-80.18677135871462 24.415240548436753 0
-80.04864532700067 24.468841281033217 0
-79.92448087640848 25.187806415762786 0
-80.08102171474944 25.391237061576366 0
-79.86249908553006 25.458639247969 0
-80.1085893365756 25.610541570351227 0
-79.2893497631464 25.88495644862482 0
-79.43089102812782 25.209710863473013 0
-79.36771092941862 24.81858796143474 0
-79.25494486223586 25.527146846050506 0
-79.68574484471834 24.959848752160212 0
-80.14109647161355 24.23875401985462 0
-79.85670523452985 24.038825250253602 0
-80.14379989262495 23.98459333205539 0
-79.3051725620034 24.403991618044866 0
-79.57393985877863 24.101715276456304 0
-79.95940736057604 23.74197350155905 0
-80.27059944446533 23.74393527415528 0
-80.08121976096119 23.50879185006988 0
-81.15535169942491 24.979195618079505 0
-80.42604631432133 24.566237687299953 0
-80.41726361165024 24.43278789938427 0
-84.50314522031778 29.096456949602405 0
-84.92953874562455 29.05445563529592 0
-83.86876902403273 28.347586775799538 0
-84.85104027565197 28.41993517957856 0
-84.4828174128378 28.218901746165745 0
-84.54897457279313 28.715354887390067 0
-83.60979515662638 28.3377713031194 0
-83.7179294353843 28.12366873489597 0
-83.57769866187769 28.141077126975393 0
-83.2680259391296 28.33214715215547 0
-83.22071761986005 28.75002299491401 0
-82.87970498699586 28.535185934451984 0
-82.55931589067521 26.68471774871421 0
-82.56796982449036 26.10026256359379 0
-82.89879288073672 26.373086629388347 0
-83.3270949975129 26.885972263063646 0
-82.99029933090513 27.158141712629348 0
-83.5499422067054 27.069141820383905 0
-83.3479779037536 27.210952538619463 0
-83.36382703351958 27.380213360670695 0
-83.17710726476585 27.414170817555032 0
-83.08949001645419 27.607952775127256 0
-82.91002358783105 27.465692641005962 0
-82.74269679411634 27.630887560958772 0
-82.7104436763814 27.254680452199384 0
-82.61492649999998 27.35799499999999 1
-83.26381277388228 27.978444019541765 0
-83.01917882239074 28.175459862838775 0
-83.5908495748792 27.94923768111556 0
-83.88315527814166 27.897005953931455 0
-83.7170440426076 27.660022124074427 0
-83.97059455309459 27.60966490167884 0
-83.77981437610173 27.39359593439759 0
-84.22892569800413 27.872568215973065 0
-83.7485832037236 27.162137736808262 0
-83.53209817203845 27.293203227881733 0
-83.9519799496066 26.999081897089784 0
-83.71544496824093 26.899482879113073 0
-84.0254287331383 26.669891175605954 0
-85.275 26.299085410390163 1
-85.275 26.698296798442186 1
-85.275 27.09750818649421 1
-85.275 27.496719574546233 1
-84.89215704508788 26.43136907481991 0
-84.41645667157056 26.730247358399517 0
-84.91433545515511 26.910002142723712 0
-84.47397767492585 27.1814112536314 0
-84.33002167689185 27.56190390073664 0
-84.02701374079781 27.248233787571312 0
-84.9187917008179 27.316755243508968 0
-84.91883157479806 27.717942998226526 0
-84.96547585411659 28.007827362239595 0
-84.73894134038338 28.059460896994832 0
-84.55955291491287 27.786656956796282 0
-84.92799546975529 25.662651931650153 0
-84.985426011321 26.02894362942536 0
-84.48750000000001 23.30499999999999 1
-85.275 24.103422776104033 1
-84.3061592667173 24.496197011529112 0
-84.68437500000002 23.30499999999999 1
-85.275 24.502634164156056 1
-85.078125 23.30499999999999 1
-85.275 23.504605694025997 1
-85.275 25.500662634286115 1
-85.275 25.001648399221086 1
-84.290625 23.30499999999999 1
-83.30625 23.30499999999999 1
-84.3258279712397 23.527621052078587 0
-83.109375 23.30499999999999 1
-82.71562499999999 23.30499999999999 1
-82.50799603939817 23.535018537136402 0
-82.42240763681313 23.710344607962455 0
-82.93371025989845 23.461321064683702 0
-83.24367268905979 24.40116171521431 0
-83.1928939805636 24.751210500242564 0
-83.77448596913563 24.72917233849088 0
-83.47244277180177 24.97413237431944 0
-82.93685152907932 24.28918872349421 0
-82.7460845702968 24.290528286228408 0
-82.6103122619061 24.250668929992887 0
-82.48772181011591 24.345665827935843 0
-82.58412490107473 24.060896381222484 0
-82.7602711698452 24.16095340256226 0
-83.14568663193738 23.625696765105776 0
-83.05677959830169 24.035969685323693 0
-82.75805026232507 23.91690441565012 0
-82.90006716333212 23.737614721725805 0
-83.00484478497303 24.58623944893661 0
-83.027306093426 24.74605245235799 0
-82.5588066982354 24.87169131749497 0
-82.81374114976765 25.065566705067535 0
-82.90268858642588 25.259585518427425 0
-81.90408784974478 25.920419461808063 0
-82.44313869034508 25.838075312789442 0
-82.1438265113767 26.203118966643647 0
-82.28394236411981 26.5286399201892 0
-82.74919158498051 25.527522066333457 0
-83.70441485039514 26.030177213343364 0
-84.26320450067183 25.786876412981854 0
-83.80499445406407 25.659143590607236 0
-83.29551196798779 26.231208545427272 0
-84.0344721120507 26.349082470745476 0
-83.5563459883272 26.515869183610718 0
-83.4143848316114 25.387418844742424 0
-83.31535345859216 25.798152512315326 0
-84.54871691201701 25.48643004390361 0
-84.71115912625903 25.951862930052194 0
-82.420256425159 25.03692478509854 0
-82.57488066906683 25.435744449627133 0
-82.3750569559257 25.29729677489754 0
-82.18534987442483 25.112144567427638 0
-82.6551415995602 25.227632606895753 0
-82.67398314637161 24.952249614614615 0
-82.74545619099842 24.74113640034312 0
-82.78427508582432 24.51640076322834 0
-82.7696823022707 23.49318406407575 0
-82.33064651698326 24.28853193761055 0
-82.61798690123558 24.416996794490718 0
-83.80021055129104 25.105860828602808 0
-84.53428458710411 24.93034250180043 0
-83.47345506479182 23.94466046149708 0
-83.87676152310908 24.196068863766893 0
-83.91612531280764 23.663790904985444 0
-82.321875 23.30499999999999 1
-82.25286276519768 23.54506731423453 0
-81.928125 23.30499999999999 1
-82.00818840747844 23.5506109004103 0
-83.5312230259577 23.527342219861225 0
-84.88296050801598 24.56418862061915 0
-84.92260239319337 25.207094900035415 0
-85.275 25.89987402233814 1
-84.34026853214988 26.239794743107172 0
-84.09889191849476 28.18021080161224 0
-82.68024519343064 27.05714811977875 0
-83.0042840946516 26.809162284320582 0
-82.347803 26.91178999999999 1
-78.97499999999998 29.276874999999997 1
-79.23264671393346 29.175284516566485 0
-78.97499999999998 30.195625 1
-79.23042750798102 29.47871086922999 0
-78.97499999999998 29.0471875 1
-79.39137623168708 28.898303728975055 0
-79.4694669504324 29.35370002092383 0
-79.47313560458255 29.114263567212408 0
-79.60472536660009 28.738612883117842 0
-80.08045577661336 29.32576166416416 0
-79.87990985358805 29.32286816437591 0
-79.94957743362312 29.19765485084075 0
-79.84221497108594 29.006567736528712 0
-79.99888134457818 29.031522118959195 0
-79.96411973058905 29.56872824774606 0
-80.2855729439935 29.142141629301165 0
-80.11877783501656 29.178520603768234 0
-80.25090801497389 29.263219488311442 0
-80.2006913562277 29.45114922589671 0
-80.46205346615005 28.926306850532658 0
-80.33826048398751 28.965779814859754 0
-80.4941357817627 28.744339092725067 0
-80.60810341730885 28.874655132696123 0
-80.59223212909423 29.169714163269166 0
-80.41913942896244 29.263662977066897 0
-80.45488591155903 29.075731439764734 0
-80.5937220994938 29.052280277148455 0
-80.8379505 28.952325999999992 1
-80.74974513548189 29.10478355021048 0
-80.62741243150738 29.264271112119573 0
-80.49685449940802 29.521869353753818 0
-80.79632724868546 29.618732386775765 0
-81.06487849999999 29.351624999999995 1
-80.85564596460992 29.35527594897759 0
-80.96840065571514 29.99178473247257 0
-80.60735130607269 30.11563019276398 0
-80.59090374728723 29.852793127247985 0
-80.29758140521882 29.679401168180146 0
-79.95852424234188 28.792199632754723 0
-79.93681788740099 28.91497660895486 0
-79.96441143999965 28.58787289836501 0
-79.49112569937776 27.871611247222294 0
-78.97499999999998 27.89875 1
-79.8644189002183 28.21022008271013 0
-79.9936966564867 28.401639732695326 0
-79.7671608536943 28.445266816635396 0
-79.81042538799595 28.28874714080516 0
-79.4646142800149 28.368451063284986 0
-79.60866543835486 28.516429162900454 0
-79.37787073703304 28.583974223934103 0
-78.97499999999998 28.5878125 1
-79.19511408450967 28.476156381702403 0
-79.98138917859487 28.504966600919914 0
-79.19285917772153 28.714578696056314 0
-79.142802728267 28.929617998433073 0
-79.15640331814016 28.043750967024916 0
-79.28080302516577 28.252488094231595 0
-79.4990107812205 28.177911741778168 0
-78.97499999999998 27.439375 1
-78.97499999999998 28.243281250000003 1
-78.97499999999998 27.6690625 1
-79.1808624008037 27.824019302778847 0
-79.19680951947917 27.618631710808373 0
-79.43392713868788 27.54794061387097 0
-79.3536444062958 27.752926014280163 0
-79.37027077616744 27.99025061131579 0
-79.88284064487223 27.511466289211498 0
-79.68556051712615 27.608245835763185 0
-79.85370904987913 27.70614368578016 0
-79.37921062792836 27.278585065998417 0
-79.1621154735269 27.39971937430072 0
-79.16301483682214 27.154365030160957 0
-79.36339162184234 26.93399642196353 0
-78.97499999999998 27.32453125 1
-79.77638798003022 27.98815274850183 0
-79.60420555738871 27.996206681869126 0
-80.14860657224524 27.644140252894566 0
-79.99920297808357 27.645495258722477 0
-79.6158109471415 27.37044624754642 0
-80.06468244030235 27.44899622794017 0
-80.322935 27.56777199999999 1
-80.20805296163451 27.54514958475793 0
-79.65369036917808 28.320238318319536 0
-80.12841154938938 28.19554601421003 0
-79.96505908280133 28.056993785005222 0
-79.89286742898645 27.952381913408153 0
-80.07908682014553 27.781054095564606 0
-80.23332309346726 27.76603045791136 0
-80.43727062803208 27.998391797907225 0
-80.457686 27.877423499999992 1
-80.22235608519996 27.99882956009136 0
-80.3269120226042 28.282542158231987 0
-80.35063196224765 28.466808635590386 0
-80.36224751443518 28.147829694294483 0
-80.2876608635203 28.07739038035402 0
-80.23726021728159 28.42935515868394 0
-80.10574820506406 28.76759393499816 0
-80.2026210798962 28.875461313179102 0
-80.21534631795613 28.722869300888988 0
-79.80179635525333 28.822283366428962 0
-79.65009597172795 28.98230465544908 0
-79.45020699319316 29.623113841787323 0
-79.43502183358505 30.655 1
-79.28744115824406 30.13048917363687 0
-78.97499999999998 30.4253125 1
-79.71508615304144 30.042595784018808 0
-80.39116168158685 30.3612543015916 0
-81.57205072473678 24.994299475096597 0
-81.451617400291 25.296132715093055 0
-81.2750864430491 25.300332636547438 0
-81.38718426488123 25.153860323020783 0
-82.3841419750484 25.541663653768907 0
-81.35259050000002 30.15026299999999 1
-80.28894199999999 25.597558 1
-80.84125165796686 24.956189834809337 0
-83.80307749999999 29.978070999999986 1
-79.90724219292429 27.195710266782 0
-80.1776855 27.206469999999992 1
-79.88452645398756 26.939338895526618 0
-79.35659307650356 26.589170405708607 0
-81.02112146139712 29.624018787872075 0
-85.275 27.895930962598257 1
-84.71834777867035 29.617243868220978 0
-80.62757290722126 24.02979717500494 0
-79.71358582248418 30.32984544982531 0
-80.56435228127093 28.10991568281352 1
-80.58660302139153 24.79436194677133 0
-80.66894647249305 24.974139040108575 0
-81.003808616532 25.005735669777216 0
-80.83652374685414 24.872294361000183 0
-80.88305711958975 25.019366166063122 0
-80.46517823029593 28.58107780503214 0
-80.68143821731663 24.765371107022688 0
-80.60583477633877 24.68219407635377 0
-80.75670189115155 24.55199373670733 0
-80.6069673085041 24.374018999634647 0
-80.67708870919822 24.472302447878086 0
-80.93748422637714 24.838131948562612 0
-80.79606431012806 24.444258637620003 0
-80.84422755843154 24.318891225093186 0
-81.1486061183849 24.225312150300912 0
-81.37320452975682 24.67422116020752 0
-81.21413873115917 24.769436963337693 0
-81.40364231043955 24.801709826482515 0
-81.46836978563232 24.43685239505358 0
-81.12431334911436 24.50983516341573 0
-81.19633849710256 24.603004664734424 0
-81.34921763867511 24.404562399720923 0
-81.36260168950062 24.189201912569413 0
-81.56114492663517 24.28073989952197 0
-81.54864086077981 24.04480901157578 0
-80.53381893045498 24.599105955441885 0
-80.31298959583219 24.50048418756673 0
-80.53251280144481 24.34291441367586 0
-82.90500289929727 27.660121090609127 0
-83.19717551356526 27.75897642788859 0
-83.52468754065706 27.527099943058857 0
-83.41632043707001 27.728937850431134 0
-80.1783709487039 29.01147635576518 0
-80.71022684743123 28.93866668747342 0
-80.06511432829065 28.896150928207945 0
-80.04822953790719 28.563161079569063 0
-79.93525586562679 28.296750479943995 0
-79.86473879077792 28.541393191240843 0
-79.90350694132572 28.405659841658697 0
-79.71556591137906 28.159702336742924 0
-79.68795582388557 27.815221886963325 0
-80.2640050150933 27.648099451817185 0
-80.04918497976888 28.46381291732146 0
-80.05150960962338 28.225800942301046 0
-80.074813456204 28.11862209923029 0
-79.96843528211402 27.804208980588612 0
-80.02459011027415 27.910301212698553 0
-80.3299677344365 27.85149944244658 0
-80.24619281785054 27.893706892057107 0
-80.14449109517042 27.888087684180036 0
-80.10017338041769 28.013601880922717 0
-80.34237270407795 27.967563552057978 0
-80.17697824661866 28.270968730872173 0
-80.47942558920391 28.11732435373018 0
-80.245943432418 28.173105416438236 0
-80.46343737968964 28.245312121701872 0
-80.25373487976155 28.60204242738267 0
-80.2564788743824 28.369732919879247 0
-80.13525246191597 28.638159798667026 0
-80.02198785157432 28.662422431064993 0
-80.34301471010582 28.81597889348145 0
-79.91061543494023 28.664883635779024 0
-81.66780361994118 24.868738762719104 0
-80.770135303181 24.94355074567144 0
-80.5895511527896 24.91931629333405 0
-81.03245582411846 24.902062257946483 0
-80.77639485989587 24.773443523872658 0
-80.65373493374607 24.579235986915634 0
-80.8484282976767 24.677110993398745 0
-80.87238075200156 24.772602157018383 0
-80.90476195757905 24.414004552598495 0
-81.15388865314819 24.098785264368317 0
-81.25923909620715 24.68183444492154 0
-80.15599843217244 28.38565719921219 0
-80.05703031639163 28.33643083726823 0
-79.88307274507147 28.08117454539014 0
-79.9588854124412 28.172872609235398 0
-80.17756519137146 28.09927694484033 0
-80.38309291201436 28.058596909737094 0
-81.28040151419255 24.595375168308237 0
-82.5778055 27.615548000000004 1
-80.90206325 29.05014299999999 1
-83.23279988405635 29.171577178253735 0
-81.27510916792536 30.655 1
-79.85074182088803 23.527286904660652 0
-82.92692581102466 28.907185043197913 0
-83.94428904736755 29.977636354207057 0
-81.20680596213865 30.375544202570563 0
-84.81058106296904 23.833455340204747 0
-81.83232879279689 25.1229583374405 0
-81.54400579854655 24.836692968513592 0
-80.48319743860074 29.340712699125337 0
-80.42312116947295 28.459673479352432 0
-80.35228479999566 28.551076508677646 0
-80.3904777064256 28.367279949136986 0
-80.29701605084449 28.43018950148938 0
-81.30725274191722 25.017510686006837 0
-81.45245931707184 25.035929342531922 0
-80.6813054657144 24.156407097303806 0
-81.59961198464723 25.413524900397192 0
-81.77088934815674 25.49183675166761 0
-81.99211788139577 25.204116663816396 0
-83.69509313873634 29.021340689628317 0
-83.36573011106378 29.00712541996644 0
-83.43626300258681 28.171384739314984 0
-84.13570751586384 28.516044049286194 0
-84.14555221652277 28.909829453500887 0
-79.56695163053901 25.727318902642235 0
-82.10791949960816 24.936958153987423 0
-82.24906693855098 24.934760570787773 0
-82.66152948430478 23.74997452303648 0
-80.6732823803564 23.86300755523984 0
-79.72865598338491 25.249544041455955 0
-82.50506050268102 26.43069289017939 0
-83.23172391739786 26.5229927341997 0
-84.20490603972985 26.998545337332086 0
-84.27581580175224 26.507150251335805 0
-84.67098266487696 27.509767662015854 0
-83.57789723660926 24.36278441997926 0
-83.15852280322186 25.205338434947436 0
-83.11201679459163 24.921949624399534 0
-84.11435585825042 24.918146728081574 0
-84.17839779667565 25.314237941584633 0
-82.87533868080489 24.89849500138124 0
-82.86583743509927 24.688729518506 0
-82.96255056462513 25.103561616175217 0
-83.07123222078799 25.467805517419507 0
-82.7002459655391 25.77544371872028 0
-82.94210366152292 25.753863388891542 0
-83.98210310138757 26.033872702874252 0
-84.35136484232251 24.134083155463962 0
-80.35176349604657 29.42789476685815 0
-80.67125657428213 29.419206655455643 0
-79.34852659918792 28.41897343108624 0
-79.65897553929811 27.055821143871817 0
-81.4877452139507 24.728273432220398 0
-80.80452467906144 25.01232268970702 0
-80.8011346269679 24.608776630234487 0
-79.53184445410068 25.97492244409251 0
-83.45425563760455 24.64467310007303 0
-79.5319281942994 27.718659611221074 0
-79.8290847687251 27.851468209045027 0
-79.8132037825229 29.7059235811035 0
-80.28714234386298 28.49024766360908 0
-79.57771298334856 25.430491325069372 0
-80.48817320953879 23.71562524446724 0
-82.52851438037047 25.614984880854596 0
-82.97530787682919 25.998827150614385 0
-80.35367149999999 27.654481499999992 1
-80.77383775000001 28.854508999999993 1
-80.795271 25.167749999999995 1
-84.25841835781141 29.962083228929632 0
-82.88772822904747 29.027799275824766 0
-83.27046655099053 29.324422927815053 0
-81.30293802712994 30.35942217178776 0
-82.76787868516506 28.60575892232444 0
-82.66250699999999 28.553953499999995 1
-84.45041162684545 29.72736048209365 0
-81.23217578368482 30.23215075572527 0
-81.27813340333581 30.50618576649457 0
-81.9961230664271 26.274784405438126 0
-82.88947058517267 28.736541372104323 0
-84.13336003753543 29.701213620979644 0
-80.97928357719408 30.26134891062566 0
-83.70367428206707 29.52153703948747 0
-84.97029542215401 29.437038434671752 0

Edges
200
1 2 1
1 671 1
2 3 1
3 4 1
4 574 1
5 6 1
5 574 1
6 7 1
7 494 1
8 494 1
8 669 1
9 10 1
9 737 1
10 11 1
11 12 1
12 13 1
13 14 1
14 587 1
15 551 1
15 587 1
16 551 1
16 736 1
17 542 1
17 579 1
18 205 1
18 579 1
19 20 1
19 205 1
20 195 1
21 195 1
21 201 1
22 23 1
22 201 1
23 575 1
24 25 1
24 575 1
25 26 1
26 301 1
27 28 1
27 301 1
28 29 1
29 30 1
30 31 1
31 738 1
32 33 1
32 738 1
33 34 1
34 35 1
35 36 1
36 37 1
37 38 1
38 39 1
39 40 1
40 116 1
41 42 1
41 116 1
42 143 1
43 44 1
43 143 1
44 45 1
45 46 1
46 47 1
47 48 1
48 49 1
49 111 1
50 51 1
50 111 1
51 52 1
52 53 1
53 54 1
54 461 1
55 56 1
55 461 1
56 351 1
57 58 1
57 351 1
58 668 1
59 60 1
59 668 1
60 61 1
61 110 1
62 63 1
62 110 1
63 64 1
64 65 1
65 66 1
66 67 1
67 68 1
68 69 1
69 70 1
70 71 1
71 744 1
72 73 1
72 744 1
73 74 1
74 75 1
75 76 1
76 77 1
77 78 1
78 79 1
79 80 1
80 81 1
81 82 1
82 83 1
83 84 1
84 85 1
85 86 1
86 87 1
87 88 1
88 89 1
89 577 1
90 91 1
90 577 1
91 92 1
92 93 1
93 94 1
94 95 1
95 96 1
96 97 1
97 98 1
98 192 1
99 100 1
99 193 1
100 101 1
101 134 1
102 387 1
102 388 1
103 285 1
103 287 1
104 564 1
104 566 1
105 150 1
105 151 1
106 202 1
106 535 1
107 466 1
107 512 1
108 449 1
108 451 1
109 198 1
109 290 1
113 273 1
113 279 1
129 130 1
129 671 1
130 150 1
134 135 1
135 140 1
140 141 1
141 583 1
151 564 1
153 462 1
153 464 1
185 260 1
185 268 1
192 193 1
194 196 1
194 199 1
196 202 1
198 199 1
242 391 1
242 392 1
244 394 1
244 395 1
259 260 1
259 451 1
265 268 1
265 279 1
273 288 1
281 287 1
281 289 1
282 285 1
282 286 1
286 288 1
289 290 1
365 366 1
365 456 1
366 367 1
367 368 1
368 583 1
382 385 1
382 391 1
383 386 1
383 388 1
385 387 1
386 390 1
389 390 1
389 456 1
392 394 1
395 449 1
462 466 1
464 566 1
489 669 1
489 737 1
504 521 1
504 522 1
512 521 1
520 522 1
520 535 1
542 736 1

Triangles
1304
2 3 747 0
3 4 742 0
3 742 747 0
4 574 746 0
5 496 746 0
6 7 582 0
7 494 582 0
8 669 490 0
9 10 483 0
9 483 484 0
10 11 593 0
11 12 117 0
11 117 680 0
12 13 117 0
13 643 117 0
15 551 550 0
16 549 635 0
18 205 580 0
18 580 578 0
19 20 204 0
21 201 200 0
21 203 195 0
22 309 200 0
25 302 24 0
26 307 302 0
27 28 115 0
27 300 301 0
28 30 119 0
30 28 29 0
30 31 119 0
31 112 120 0
32 33 112 0
33 34 590 0
33 590 592 0
34 35 125 0
34 125 323 0
34 323 590 0
36 571 35 0
37 38 132 0
37 571 36 0
38 131 132 0
39 131 38 0
40 131 39 0
42 143 418 0
43 44 748 0
44 45 748 0
45 46 748 0
46 47 748 0
47 48 421 0
47 420 748 0
48 53 54 0
51 52 50 0
52 53 50 0
53 48 49 0
53 111 50 0
54 338 421 0
54 421 48 0
55 338 461 0
56 459 55 0
57 58 349 0
57 349 348 0
60 65 59 0
61 65 60 0
63 64 62 0
64 110 62 0
65 66 59 0
65 110 64 0
66 668 59 0
67 616 349 0
68 353 159 0
68 616 67 0
70 353 69 0
72 73 743 0
73 74 749 0
74 673 749 0
76 74 75 0
76 77 740 0
77 78 740 0
78 79 740 0
79 80 740 0
80 163 673 0
80 670 163 0
80 673 740 0
81 670 80 0
82 83 741 0
83 84 741 0
84 160 741 0
85 86 87 0
85 87 752 0
87 162 752 0
89 162 88 0
89 577 162 0
91 674 90 0
92 93 739 0
93 94 739 0
94 95 739 0
95 96 739 0
96 97 745 0
96 745 750 0
97 98 745 0
98 192 745 0
99 100 753 0
100 134 753 0
101 134 100 0
104 564 566 0
105 150 568 0
106 535 533 0
107 466 516 0
107 515 512 0
108 452 450 0
109 198 313 0
109 312 290 0
109 313 311 0
110 65 61 0
111 53 49 0
112 33 592 0
112 592 724 0
112 738 32 0
113 273 274 0
113 274 275 0
114 136 137 0
114 137 139 0
114 139 588 0
114 588 595 0
114 595 613 0
115 28 119 0
115 119 652 0
116 41 42 0
116 131 40 0
116 133 131 0
118 27 115 0
118 115 137 0
118 137 138 0
118 138 303 0
118 300 27 0
119 31 120 0
119 120 589 0
119 589 652 0
120 112 724 0
121 588 652 0
121 591 654 0
122 576 592 0
122 590 653 0
123 211 212 0
123 212 213 0
123 213 257 0
124 218 684 0
124 684 685 0
125 35 571 0
125 571 572 0
125 572 684 0
126 507 510 0
126 561 649 0
127 557 661 0
127 623 646 0
127 644 731 0
128 483 593 0
128 560 648 0
128 593 681 0
129 671 747 0
129 675 130 0
130 675 751 0
131 133 132 0
132 687 570 0
133 42 144 0
133 116 42 0
133 144 688 0
134 135 753 0
135 140 327 0
135 327 753 0
136 114 324 0
136 324 614 0
137 115 139 0
137 136 138 0
138 136 294 0
138 294 297 0
138 298 303 0
139 115 652 0
140 141 329 0
141 377 329 0
142 145 144 0
142 420 419 0
144 145 688 0
144 418 142 0
145 148 688 0
145 436 689 0
146 147 677 0
146 269 650 0
146 650 569 0
147 146 569 0
147 148 677 0
147 570 687 0
147 572 570 0
147 685 572 0
148 145 689 0
148 147 687 0
148 687 688 0
149 130 751 0
149 568 150 0
150 130 149 0
151 105 157 0
151 157 586 0
152 498 499 0
153 464 565 0
153 563 465 0
153 565 563 0
154 152 499 0
154 157 152 0
155 472 473 0
155 473 474 0
155 474 562 0
155 562 469 0
156 155 468 0
156 563 730 0
157 105 568 0
157 154 567 0
158 345 346 0
158 346 347 0
158 617 619 0
158 619 618 0
159 347 616 0
160 84 85 0
160 85 752 0
160 161 690 0
160 670 741 0
160 690 691 0
161 160 752 0
161 326 694 0
162 87 88 0
162 674 750 0
162 750 752 0
163 336 673 0
164 332 335 0
164 335 336 0
165 164 690 0
165 328 332 0
165 332 164 0
165 690 694 0
166 174 222 0
166 222 602 0
166 601 658 0
167 173 174 0
167 596 725 0
167 658 600 0
168 596 655 0
168 656 725 0
169 324 613 0
169 597 615 0
169 613 655 0
169 655 598 0
170 178 597 0
170 597 598 0
170 598 600 0
170 600 601 0
171 173 656 0
171 176 224 0
172 173 224 0
172 219 608 0
173 167 656 0
173 171 224 0
173 172 174 0
174 166 658 0
174 607 222 0
175 176 653 0
175 218 604 0
175 219 224 0
176 171 599 0
176 175 224 0
176 599 653 0
177 178 686 0
177 585 271 0
177 615 178 0
178 170 183 0
178 183 686 0
179 180 181 0
179 181 315 0
179 304 614 0
180 177 181 0
180 179 325 0
180 325 615 0
181 177 271 0
182 183 184 0
182 184 188 0
182 188 278 0
182 278 699 0
182 585 686 0
183 170 601 0
183 182 686 0
184 166 190 0
184 183 601 0
186 189 187 0
186 264 276 0
186 270 206 0
187 188 190 0
187 190 659 0
188 184 190 0
188 189 278 0
189 186 276 0
189 188 187 0
189 276 278 0
190 166 602 0
190 602 659 0
191 223 610 0
191 225 270 0
191 270 659 0
192 584 745 0
193 99 584 0
194 196 197 0
194 310 199 0
197 196 581 0
197 203 726 0
200 308 695 0
200 695 726 0
201 22 200 0
202 534 581 0
203 20 195 0
203 21 200 0
203 200 726 0
203 204 20 0
203 581 204 0
204 722 580 0
205 19 580 0
206 225 228 0
206 228 229 0
206 229 266 0
206 266 186 0
207 226 611 0
207 231 612 0
207 233 231 0
208 209 211 0
208 211 214 0
208 214 606 0
208 221 603 0
208 603 723 0
209 208 723 0
210 218 605 0
210 603 660 0
211 123 217 0
211 209 212 0
212 209 650 0
212 650 269 0
213 212 269 0
213 253 257 0
213 696 253 0
214 211 217 0
214 217 258 0
215 217 238 0
215 238 239 0
216 223 609 0
216 226 610 0
216 606 611 0
217 123 238 0
217 215 258 0
218 124 605 0
218 175 323 0
218 210 604 0
219 172 224 0
219 175 604 0
219 604 660 0
220 221 609 0
220 222 607 0
220 607 608 0
220 608 667 0
221 208 606 0
221 220 667 0
221 606 609 0
222 220 223 0
222 223 602 0
223 191 602 0
223 216 610 0
223 220 609 0
225 191 610 0
225 206 270 0
225 226 612 0
226 207 612 0
226 216 611 0
226 225 610 0
227 228 231 0
227 230 229 0
227 231 234 0
227 234 236 0
228 225 612 0
228 227 229 0
229 230 263 0
230 227 236 0
231 228 612 0
231 233 234 0
232 239 240 0
233 207 258 0
233 215 239 0
233 232 234 0
233 258 215 0
234 232 235 0
234 235 236 0
236 262 230 0
237 238 257 0
238 123 257 0
238 237 245 0
239 232 233 0
239 238 245 0
240 239 241 0
240 255 256 0
240 256 232 0
241 239 245 0
241 255 240 0
243 241 442 0
243 406 405 0
243 407 254 0
243 442 406 0
244 398 394 0
244 441 398 0
245 237 246 0
245 442 241 0
246 237 247 0
246 250 406 0
247 237 253 0
247 250 246 0
248 439 440 0
248 440 443 0
249 247 252 0
249 248 250 0
249 439 248 0
250 247 249 0
250 248 443 0
251 436 696 0
251 677 689 0
252 247 253 0
252 253 697 0
253 237 257 0
253 696 697 0
254 411 698 0
255 241 243 0
255 243 254 0
256 235 232 0
256 397 450 0
256 450 452 0
258 611 214 0
259 260 261 0
259 261 262 0
260 263 261 0
261 230 262 0
262 236 452 0
263 230 261 0
263 260 185 0
263 266 229 0
264 263 185 0
264 266 263 0
264 268 267 0
265 277 267 0
266 264 186 0
267 268 265 0
267 272 276 0
267 276 264 0
268 264 185 0
269 251 213 0
269 677 251 0
270 186 187 0
270 187 659 0
271 317 181 0
271 585 699 0
271 699 733 0
272 267 277 0
272 275 733 0
273 288 322 0
274 273 322 0
275 274 733 0
277 265 279 0
277 275 272 0
278 272 699 0
278 276 272 0
279 113 275 0
279 275 277 0
280 282 284 0
280 320 672 0
281 284 287 0
281 289 283 0
282 280 286 0
284 281 283 0
284 282 285 0
284 283 280 0
285 103 287 0
286 280 672 0
287 284 285 0
288 286 672 0
289 290 318 0
291 314 292 0
291 318 312 0
293 305 315 0
293 316 295 0
294 304 305 0
294 614 304 0
295 291 296 0
295 296 293 0
295 318 291 0
296 291 292 0
296 292 297 0
298 138 297 0
298 292 314 0
298 297 292 0
298 306 303 0
299 301 300 0
299 303 306 0
300 118 303 0
301 299 26 0
302 25 26 0
302 307 309 0
302 575 24 0
303 299 300 0
304 179 315 0
305 293 296 0
305 296 297 0
305 297 294 0
305 304 315 0
306 298 314 0
306 308 307 0
306 314 700 0
307 26 299 0
307 299 306 0
308 200 309 0
308 306 700 0
308 700 732 0
309 22 23 0
309 307 308 0
309 575 302 0
310 194 197 0
310 197 726 0
311 312 109 0
311 313 732 0
311 314 312 0
312 318 290 0
313 198 199 0
313 199 310 0
313 310 695 0
313 695 732 0
314 291 312 0
314 311 700 0
315 181 317 0
316 293 315 0
316 319 295 0
316 320 280 0
317 271 321 0
317 316 315 0
317 320 316 0
318 283 289 0
318 295 319 0
318 319 283 0
319 280 283 0
319 316 280 0
320 321 322 0
320 322 672 0
321 320 317 0
321 733 274 0
322 288 672 0
322 321 274 0
323 175 653 0
323 684 218 0
324 114 613 0
324 169 325 0
324 325 614 0
325 169 615 0
325 179 614 0
326 161 745 0
326 331 694 0
326 584 753 0
327 140 329 0
327 326 753 0
327 331 326 0
328 165 693 0
329 331 327 0
329 377 378 0
329 378 330 0
330 331 329 0
330 359 458 0
331 330 693 0
331 693 694 0
332 333 334 0
332 334 692 0
333 328 458 0
333 332 328 0
333 458 355 0
335 332 692 0
335 337 336 0
335 352 353 0
336 337 749 0
336 691 164 0
337 70 71 0
337 71 743 0
337 335 353 0
337 743 749 0
338 54 461 0
338 55 459 0
338 340 701 0
338 459 460 0
339 340 735 0
339 420 701 0
340 339 701 0
340 426 735 0
340 460 702 0
341 363 428 0
341 428 702 0
341 460 342 0
342 346 344 0
342 459 350 0
344 341 342 0
344 343 341 0
344 361 343 0
345 158 618 0
345 344 346 0
347 159 617 0
347 346 348 0
347 617 158 0
348 342 350 0
348 346 342 0
348 350 57 0
348 616 347 0
349 66 67 0
349 668 66 0
350 351 57 0
351 350 56 0
352 159 353 0
352 335 692 0
352 354 619 0
353 68 69 0
353 70 337 0
354 333 355 0
354 334 333 0
354 692 334 0
355 356 354 0
355 359 357 0
356 357 358 0
356 358 618 0
356 619 354 0
357 356 355 0
357 374 358 0
358 360 361 0
358 361 618 0
358 374 360 0
359 330 379 0
359 373 357 0
360 362 363 0
360 363 343 0
360 374 362 0
361 344 345 0
361 345 618 0
361 360 343 0
362 374 703 0
363 341 343 0
364 363 362 0
364 370 704 0
364 427 428 0
364 428 363 0
364 703 370 0
365 381 369 0
365 456 381 0
366 365 369 0
366 369 371 0
367 366 371 0
368 367 375 0
368 375 376 0
369 704 370 0
371 369 370 0
371 370 372 0
371 372 375 0
372 370 703 0
372 373 705 0
373 372 374 0
373 374 357 0
374 372 703 0
375 367 371 0
375 372 705 0
376 375 705 0
376 378 377 0
377 141 583 0
377 583 376 0
378 376 379 0
379 330 378 0
379 373 359 0
379 705 373 0
380 389 455 0
380 431 432 0
380 432 381 0
381 456 380 0
383 454 386 0
384 401 709 0
385 382 393 0
387 385 676 0
387 676 388 0
388 102 387 0
388 676 383 0
389 390 455 0
390 386 454 0
391 393 382 0
391 448 393 0
392 453 242 0
393 448 718 0
394 398 409 0
394 409 392 0
395 449 396 0
396 698 441 0
397 255 254 0
397 256 255 0
397 396 450 0
398 441 412 0
399 400 727 0
399 410 403 0
400 402 727 0
400 414 708 0
401 384 447 0
401 444 709 0
401 447 706 0
401 706 727 0
402 400 708 0
402 401 727 0
402 444 401 0
403 413 399 0
403 440 413 0
404 403 408 0
404 405 443 0
404 408 405 0
404 440 403 0
405 407 243 0
406 250 443 0
406 442 246 0
406 443 405 0
407 408 411 0
407 411 254 0
408 407 405 0
409 398 412 0
409 410 446 0
409 453 392 0
410 399 446 0
410 408 403 0
410 411 408 0
411 410 412 0
411 412 698 0
412 410 409 0
412 441 698 0
413 400 399 0
413 440 712 0
414 400 413 0
414 413 712 0
415 249 252 0
416 417 713 0
417 422 714 0
417 437 422 0
417 707 713 0
418 43 748 0
418 143 43 0
418 144 42 0
419 339 715 0
419 420 339 0
419 573 142 0
419 715 734 0
420 47 421 0
420 142 418 0
420 418 748 0
420 421 701 0
421 338 701 0
422 434 734 0
422 715 716 0
423 425 430 0
423 426 428 0
423 427 717 0
423 428 427 0
424 425 717 0
424 431 710 0
424 457 432 0
425 423 717 0
425 424 710 0
425 429 430 0
425 444 429 0
426 340 702 0
426 423 430 0
426 430 735 0
427 364 704 0
428 426 702 0
429 402 707 0
429 707 714 0
430 429 714 0
430 714 716 0
430 716 735 0
431 380 455 0
431 424 432 0
431 445 710 0
432 369 381 0
432 457 369 0
433 252 697 0
433 415 252 0
434 437 435 0
435 433 436 0
436 145 435 0
436 251 689 0
436 433 697 0
437 417 416 0
437 433 435 0
437 434 422 0
437 438 433 0
438 415 433 0
438 416 711 0
438 437 416 0
439 249 415 0
439 415 438 0
439 438 711 0
439 711 712 0
440 439 712 0
441 244 395 0
441 395 396 0
442 245 246 0
443 440 404 0
444 402 429 0
444 425 710 0
445 384 709 0
445 455 454 0
445 709 710 0
446 399 706 0
446 447 448 0
447 384 718 0
447 446 706 0
448 242 453 0
448 391 242 0
448 447 718 0
449 450 396 0
450 449 108 0
451 259 262 0
452 108 451 0
452 235 256 0
452 236 235 0
452 451 262 0
453 409 446 0
453 446 448 0
454 383 676 0
454 384 445 0
454 718 384 0
455 390 454 0
455 445 431 0
456 389 380 0
457 427 704 0
457 717 427 0
458 359 355 0
458 693 330 0
459 56 350 0
459 342 460 0
460 340 338 0
460 341 702 0
462 153 465 0
462 465 463 0
463 468 469 0
465 468 463 0
466 462 463 0
466 463 516 0
467 463 469 0
467 511 515 0
467 516 463 0
468 155 469 0
468 465 563 0
468 563 156 0
471 472 476 0
471 476 480 0
472 155 156 0
472 471 473 0
473 475 474 0
473 478 475 0
475 478 620 0
475 501 474 0
475 622 501 0
476 154 499 0
476 472 156 0
476 730 154 0
477 478 479 0
477 479 486 0
477 482 620 0
477 486 487 0
478 471 479 0
478 473 471 0
478 477 620 0
479 471 480 0
479 480 719 0
480 476 499 0
481 482 487 0
481 483 648 0
481 487 488 0
482 477 487 0
482 648 559 0
483 10 593 0
483 128 648 0
483 481 484 0
484 481 488 0
484 488 621 0
484 737 9 0
485 679 491 0
486 479 719 0
486 485 487 0
487 485 488 0
488 485 490 0
489 621 490 0
490 485 491 0
491 679 720 0
492 493 720 0
492 498 493 0
492 679 719 0
493 495 720 0
494 8 495 0
495 8 490 0
495 490 491 0
495 491 720 0
496 5 6 0
496 6 582 0
496 497 751 0
496 498 497 0
496 582 493 0
497 149 751 0
498 152 497 0
498 492 499 0
498 496 493 0
499 719 480 0
500 501 622 0
500 558 647 0
500 647 649 0
501 500 561 0
502 514 625 0
502 625 649 0
503 526 527 0
503 527 537 0
503 537 628 0
503 628 728 0
504 521 517 0
505 508 624 0
505 624 664 0
505 664 663 0
506 514 630 0
506 630 662 0
507 126 625 0
507 625 626 0
508 505 627 0
508 507 626 0
509 511 510 0
509 518 721 0
510 470 126 0
510 507 544 0
510 511 470 0
510 544 509 0
511 467 470 0
511 509 721 0
513 511 721 0
513 515 511 0
514 502 623 0
514 506 626 0
515 107 516 0
515 513 512 0
515 516 467 0
517 521 518 0
518 513 721 0
518 527 517 0
519 509 544 0
519 518 509 0
519 527 518 0
519 544 627 0
520 522 524 0
520 524 532 0
521 512 513 0
521 513 518 0
522 504 523 0
522 523 524 0
523 504 517 0
523 527 526 0
524 526 525 0
525 526 728 0
525 529 540 0
525 531 532 0
525 532 524 0
526 503 728 0
526 524 523 0
527 519 537 0
527 523 517 0
528 529 530 0
528 530 539 0
528 578 540 0
529 525 728 0
530 529 628 0
530 628 729 0
531 534 533 0
531 540 722 0
532 531 533 0
532 535 520 0
533 534 106 0
533 535 532 0
534 202 106 0
534 204 581 0
536 547 729 0
536 627 663 0
537 536 628 0
537 627 536 0
538 539 548 0
538 543 541 0
538 548 549 0
538 629 543 0
539 530 633 0
539 541 528 0
540 529 528 0
540 531 525 0
540 578 722 0
541 539 538 0
542 17 543 0
542 543 629 0
543 17 541 0
544 507 508 0
544 508 627 0
545 642 665 0
546 547 663 0
546 632 638 0
547 536 663 0
547 546 634 0
548 539 633 0
548 633 634 0
548 634 637 0
549 16 629 0
549 548 637 0
550 639 666 0
551 16 635 0
551 639 550 0
552 556 639 0
552 637 638 0
552 638 665 0
553 555 642 0
553 645 682 0
554 680 682 0
554 682 683 0
554 683 731 0
555 553 643 0
555 556 642 0
555 641 666 0
556 552 665 0
556 555 666 0
557 127 731 0
557 645 661 0
558 500 622 0
558 559 560 0
558 560 646 0
558 646 647 0
559 558 622 0
559 620 482 0
560 128 644 0
560 559 648 0
561 126 470 0
561 474 501 0
561 500 649 0
562 467 469 0
562 470 467 0
562 474 561 0
562 561 470 0
563 565 567 0
563 567 730 0
564 151 586 0
564 565 566 0
565 464 566 0
565 564 586 0
567 154 730 0
567 586 157 0
568 149 497 0
568 152 157 0
568 497 152 0
569 124 685 0
569 678 124 0
571 37 132 0
571 132 570 0
571 570 572 0
573 145 142 0
573 434 435 0
573 435 145 0
573 734 434 0
574 5 746 0
575 309 23 0
576 122 591 0
576 651 724 0
577 674 162 0
578 528 541 0
578 580 722 0
579 18 578 0
579 541 17 0
579 578 541 0
580 19 204 0
581 196 202 0
581 203 197 0
582 494 495 0
582 495 493 0
583 368 376 0
584 99 753 0
584 192 193 0
584 326 745 0
585 177 686 0
585 182 699 0
586 567 565 0
587 15 641 0
588 121 594 0
588 139 652 0
588 594 595 0
589 120 651 0
589 121 652 0
590 122 592 0
590 323 653 0
591 122 599 0
591 599 657 0
591 651 576 0
592 576 724 0
593 11 680 0
593 680 681 0
594 121 654 0
594 168 595 0
595 168 655 0
596 168 725 0
596 600 598 0
597 178 615 0
598 597 169 0
599 122 653 0
599 171 657 0
600 596 167 0
601 166 184 0
601 600 658 0
602 191 659 0
603 210 605 0
603 221 667 0
603 605 723 0
604 210 660 0
605 124 678 0
605 678 723 0
606 214 611 0
606 216 609 0
607 172 608 0
607 174 172 0
608 219 660 0
608 660 667 0
611 258 207 0
613 595 655 0
614 294 136 0
615 177 180 0
616 68 159 0
616 348 349 0
617 159 352 0
617 352 619 0
619 356 618 0
620 622 475 0
621 488 490 0
622 620 559 0
623 502 647 0
623 630 514 0
624 506 662 0
624 626 506 0
625 126 649 0
625 514 626 0
626 624 508 0
627 505 663 0
627 537 519 0
628 529 728 0
628 536 729 0
629 538 549 0
629 736 542 0
630 127 661 0
630 623 127 0
631 545 632 0
631 624 662 0
631 632 664 0
632 545 665 0
632 546 664 0
633 547 634 0
633 729 547 0
634 546 638 0
635 549 636 0
636 552 639 0
637 552 636 0
637 634 638 0
637 636 549 0
638 632 665 0
639 551 635 0
639 556 666 0
639 635 636 0
640 545 631 0
640 661 645 0
641 14 587 0
641 15 550 0
641 550 666 0
642 545 640 0
642 556 665 0
642 640 553 0
643 13 14 0
643 14 641 0
643 641 555 0
643 682 117 0
644 128 681 0
644 646 560 0
644 681 731 0
645 553 640 0
645 557 683 0
646 623 647 0
646 644 127 0
647 502 649 0
648 482 481 0
650 209 678 0
651 120 724 0
651 121 589 0
651 591 121 0
654 168 594 0
654 591 657 0
655 596 598 0
656 167 725 0
656 168 654 0
656 654 657 0
656 657 171 0
658 167 174 0
660 603 667 0
661 662 630 0
662 640 631 0
662 661 640 0
664 546 663 0
664 624 631 0
668 349 58 0
669 489 490 0
670 81 82 0
670 82 741 0
670 691 163 0
671 1 2 0
671 2 747 0
673 74 76 0
673 76 740 0
673 336 749 0
674 91 92 0
674 92 739 0
674 577 90 0
674 739 750 0
675 129 747 0
675 742 746 0
675 746 751 0
676 385 393 0
676 393 718 0
677 148 689 0
677 269 146 0
678 209 723 0
678 569 650 0
679 485 486 0
679 486 719 0
679 492 720 0
680 117 682 0
680 554 681 0
681 554 731 0
682 643 553 0
682 645 683 0
683 557 731 0
684 323 125 0
684 572 685 0
685 147 569 0
687 132 133 0
687 133 688 0
690 161 694 0
690 164 691 0
691 336 163 0
691 670 160 0
692 354 352 0
693 165 694 0
693 458 328 0
695 308 732 0
695 310 726 0
696 213 251 0
696 436 697 0
698 396 397 0
698 397 254 0
699 272 733 0
700 311 732 0
703 364 362 0
704 369 457 0
705 379 376 0
706 399 727 0
707 402 708 0
707 417 714 0
707 708 713 0
708 711 713 0
709 444 710 0
711 414 712 0
711 416 713 0
711 708 414 0
714 422 716 0
715 339 735 0
715 422 734 0
716 715 735 0
717 457 424 0
718 454 676 0
719 499 492 0
722 204 534 0
722 534 531 0
729 633 530 0
730 476 156 0
733 321 271 0
734 573 419 0
736 629 16 0
737 484 621 0
737 621 489 0
738 112 31 0
739 96 750 0
742 4 746 0
742 675 747 0
743 73 749 0
743 744 72 0
744 743 71 0
745 161 750 0
746 496 751 0
750 161 752 0

End
