MeshVersionFormatted 1

Dimension
2

Vertices
410
-81.42844977912038 30.655 1
-81.435829 30.526070999999995 1
-81.39346899999998 30.395553000000003 1
-81.39620300000001 30.331085999999992 1
-81.30897800000001 29.96943999999998 1
-81.253877 29.776852 1
-81.163581 29.555289999999996 1
-80.96617599999999 29.147959999999994 1
-80.709725 28.75669199999999 1
-80.57424000000002 28.585338999999994 1
-80.525094 28.459454 1
-80.58903 28.407871999999998 1
-80.606823 28.29640399999999 1
-80.59416399999999 28.195863999999997 1
-80.530964 28.01365599999999 1
-80.384408 27.741190999999993 1
-80.261462 27.394352999999988 1
-80.09390900000001 27.018586999999997 1
-80.031362 26.796339000000003 1
-80.03615800000001 26.60258600000001 1
-80.108775 26.090087999999998 1
-80.12100799999999 25.813198999999987 1
-80.237858 25.727228000000007 1
-80.340026 25.467887999999988 1
-80.31035999999999 25.373100000000004 1
-80.25301499999999 25.340493999999996 1
-80.39971699999998 25.108491999999995 1
-80.461342 25.132487 1
-80.465501 25.21175499999999 1
-80.582083 25.21068 1
-80.722391 25.15954699999999 1
-80.868151 25.175953 1
-80.900577 25.139669 1
-81.08393 25.10619399999999 1
-81.172044 25.222276 1
-81.12140999999998 25.338749999999994 1
-81.16796999999998 25.46948900000001 1
-81.27148900000002 25.614339999999984 1
-81.290328 25.687505999999992 1
-81.41504 25.78435 1
-81.642345 25.905431000000004 1
-81.68953999999998 25.85271 1
-81.80174799999999 26.091405 1
-81.833142 26.294517999999997 1
-81.868983 26.378647999999984 1
-82.00589900000001 26.534412999999997 1
-82.10062499999998 26.510763999999998 1
-82.14255399999999 26.643910999999992 1
-82.091355 26.666770999999986 1
-82.051105 26.864954999999995 1
-82.11547800000001 26.951132 1
-82.181198 26.921363 1
-82.145071 26.788833999999994 1
-82.249888 26.762945999999996 1
-82.445718 27.060633999999983 1
-82.522032 27.228374999999986 1
-82.70782099999997 27.48761499999999 1
-82.641346 27.525508000000006 1
-82.514265 27.705588000000002 1
-82.39190100000002 27.823856999999997 1
-82.41531799999998 27.900378 1
-82.67557199999999 28.00544199999999 1
-82.72060799999998 27.936155999999997 1
-82.638423 27.904629999999994 1
-82.58762499999999 27.81900999999999 1
-82.63981999999997 27.703906999999997 1
-82.738022 27.706807 1
-82.85216799999999 27.885971999999985 1
-82.792986 28.00649099999998 1
-82.73146099999998 28.32501499999999 1
-82.66988199999999 28.433054999999992 1
-82.655132 28.674851999999998 1
-82.715027 28.72697099999999 1
-82.738695 28.824795999999996 1
-82.68886399999998 28.905608999999988 1
-82.76405499999998 28.999707000000015 1
-82.763751 29.054518 1
-82.83421600000001 29.154919999999983 1
-82.99857899999999 29.174124000000003 1
-83.05654199999998 29.12990899999999 1
-83.07726499999998 29.255330999999998 1
-83.16457799999998 29.296822999999993 1
-83.218075 29.420492 1
-83.280229 29.433412999999998 1
-83.395742 29.526314 1
-83.406437 29.650325000000002 1
-83.54248500000001 29.728152000000005 1
-83.586836 29.818941000000002 1
-83.68079099999999 29.921573999999985 1
-83.92536399999999 30.034567999999986 1
-84.02427399999999 30.103270999999992 1
-84.15727799999999 30.072714000000005 1
-84.23701399999997 30.08556 1
-84.33428 30.037079999999996 1
-84.361962 29.98773900000001 1
-84.34446 29.899024999999998 1
-84.451705 29.929085000000004 1
-84.535873 29.91009199999999 1
-84.88177699999999 29.73388199999999 1
-85.12147299999998 29.715854 1
-85.275 29.69238220883236 1
-85.275 23.30499999999999 1
-78.97499999999998 23.30499999999999 1
-78.97499999999998 30.655 1
-78.97499999999998 26.979999999999997 1
-82.125 23.30499999999999 1
-78.97499999999998 25.14249999999999 1
-82.54544499999999 27.952909999999996 1
-82.07123 26.76586299999999 1
-80.81508733434029 30.655 1
-81.5286925 25.8448905 1
-80.79669438274236 25.11683759534903 0
-80.92651298000901 25.038887785904727 0
-81.12176855673033 30.655 1
-85.275 29.49277651480635 1
-85.275 29.093565126754328 1
-85.275 28.494748044676292 1
-81.74564399999998 25.9720575 1
-79.58836244478007 30.655 1
-83.04271640259051 27.834210578393154 0
-81.0096267070688 24.662613946498865 0
-80.64642236214372 24.528100548419435 0
-80.79520766503636 24.98669062698862 0
-80.94482845160994 24.342977338626174 0
-80.50824243416588 24.33910232390119 0
-80.79974473340374 24.16012980770627 0
-81.33749999999999 23.30499999999999 1
-81.02314179308969 24.1186451283159 0
-81.32424662659655 24.077117645459985 0
-84.70882499999999 29.821986999999993 1
-84.795301 29.777934499999994 1
-80.0724665 26.346337000000005 1
-78.97499999999998 25.601874999999993 1
-78.97499999999998 26.290937499999995 1
-80.1148915 25.951643499999992 1
-80.0626355 26.907463 1
-81.35182245715708 24.66393169608378 0
-81.55253781372437 24.624709583884897 0
-81.78967113197145 24.59639729380263 0
-81.23211514443221 25.106859532295093 0
-81.19787372667685 24.853176896566456 0
-81.27652456832725 24.482361821524798 0
-81.17069675271173 24.63013075333133 0
-81.18656643759753 24.29441715185268 0
-80.9331227112511 24.867504735227705 0
-81.63328973421356 24.333268563326175 0
-81.89064079992184 24.35976674953072 0
-81.95296351579552 23.965646682649325 0
-82.19775717699702 23.937845203566877 0
-81.99866652283868 24.52994867492703 0
-82.09197662542569 25.124587654322706 0
-81.76889360912494 25.104102500307807 0
-82.57737655788463 23.79169347257702 0
-81.93968481850376 24.845075396467703 0
-81.73124999999999 23.30499999999999 1
-81.55982547547146 23.631337207041636 0
-80.94375 23.30499999999999 1
-81.29964457269189 23.709598542162915 0
-81.0433381609242 23.639331330873137 0
-81.7214368504055 24.87297518854171 0
-81.12015837285746 23.90104921609521 0
-80.172583207588 23.772241964192755 0
-80.35312499999998 23.30499999999999 1
-80.66182817415591 23.660053873595956 0
-80.85044773250732 23.905721987608423 0
-78.97499999999998 23.764374999999987 1
-79.36874999999998 23.30499999999999 1
-79.17187499999997 23.30499999999999 1
-78.97499999999998 23.41984374999999 1
-79.86093749999999 23.30499999999999 1
-78.97499999999998 24.338593749999987 1
-80.33540995483976 24.966448254538623 0
-80.32636599999998 25.224492999999995 1
-80.08999815470203 25.535331958115556 0
-79.5238056223492 25.33114592391276 0
-80.02615254183719 24.42839727379278 0
-79.95968689081309 24.15745360950295 0
-79.47770125871588 24.79089331029653 0
-79.64912920371499 24.36790458337542 0
-79.56272408761178 23.863899065485878 0
-81.07497581153848 24.952589591897674 0
-80.3834801724582 24.498751195262127 0
-82.88761826103753 27.638236693796216 0
-83.19209836534125 27.199912615877217 0
-83.33875346270788 27.447916970050965 0
-82.87759885476999 27.21404969725385 0
-83.13540516696693 27.665905073209085 0
-83.67329473330302 27.647369671547935 0
-82.91320139346628 28.396096648673208 0
-83.54864951958969 28.47701661083356 0
-83.96932982343984 27.815512966189594 0
-85.275 27.29711388052022 1
-83.6764408636009 27.277968245150696 0
-83.40799786544927 27.78945130165809 0
-85.275 26.698296798442186 1
-85.275 27.696325268572245 1
-84.80648175717158 28.042397246239666 0
-84.26970839843074 27.571826963148954 0
-84.72094652478695 27.522721862072103 0
-85.275 24.103422776104033 1
-84.88125000000001 23.30499999999999 1
-85.275 24.303028470130045 1
-85.078125 23.30499999999999 1
-85.275 23.504605694025997 1
-85.275 25.001648399221086 1
-84.09375 23.30499999999999 1
-83.30625 23.30499999999999 1
-82.51875 23.30499999999999 1
-82.34279417482475 23.558644423094584 0
-83.35403679108683 24.89818800950594 0
-82.89628040650322 24.722454282527845 0
-83.1969899464993 24.125941275867703 0
-83.20962160338601 24.500286640517306 0
-83.08293384551678 25.20859636229006 0
-84.77306091289063 26.102457282820875 0
-84.7908566114118 26.819231000338984 0
-82.00936686387492 26.070877844296348 0
-81.83969988643625 25.53018791936161 0
-82.34168522297023 25.583640904689027 0
-82.56597418652886 25.079258640966405 0
-83.0935765346006 23.704858889450126 0
-82.40855668965077 24.393804020801486 0
-82.90098107168276 24.426904716985568 0
-83.78628275576935 24.419055072067867 0
-84.27539570364772 24.028732055386612 0
-81.93626166529354 23.652761714464198 0
-83.34854879426119 26.848936264605943 0
-84.6091157640145 28.434112148412336 0
-78.97499999999998 29.506562499999998 1
-79.53515587988026 29.560041824487737 0
-79.3629812733857 30.192168912844796 0
-80.58255900848322 30.011352995803215 0
-80.16184435323183 29.213537787536534 0
-80.4623621661084 28.700705573392227 0
-80.8379505 28.952325999999992 1
-81.05408088105257 29.771996686928922 0
-79.94094470022483 30.10696122608485 0
-79.63960582270508 28.898400507169452 0
-79.92640328784438 28.310484625430764 0
-79.88847049062323 28.089332085216192 0
-78.97499999999998 28.5878125 1
-78.97499999999998 28.1284375 1
-78.97499999999998 27.6690625 1
-79.3250631613986 27.97350620110102 0
-79.84332055388786 27.65158758885075 0
-80.14296273452439 27.65413661567915 0
-79.49686357340676 27.512861740861524 0
-78.97499999999998 27.209687499999998 1
-79.71457455987363 27.89556326198966 0
-79.96698401556898 27.418685465042458 0
-80.322935 27.56777199999999 1
-79.37703292239182 28.352085739969528 0
-80.20507044134013 28.035598709171243 0
-79.96684475019224 27.853167700179856 0
-80.42882993844306 28.39632200987701 0
-80.43229628125115 28.53523980221014 0
-80.34297549504744 27.943514609757074 0
-80.19791246282179 28.44733695966595 0
-79.97313005175342 28.9038337544228 0
-80.25930924327231 28.984356731573772 0
-80.17919836205242 28.73346140902191 0
-79.29566591482745 28.678671561520304 0
-79.37477706132161 29.07845801122551 0
-78.97499999999998 30.4253125 1
-79.128340611195 30.655 1
-80.35506550075522 30.655 1
-81.26699953702379 25.410949290989862 0
-81.49124591682568 25.630827960675195 0
-81.35259050000002 30.15026299999999 1
-80.28894199999999 25.597558 1
-80.1776855 27.206469999999992 1
-79.84302783802546 27.080729109051028 0
-80.57281026402237 24.045940990521522 0
-80.45194866918732 27.86675712100576 1
-80.652237 25.185113499999993 1
-79.74720685336673 26.292191439279918 0
-79.69665154395932 25.89340936018257 0
-80.73934093181066 24.890940919334273 0
-81.08887342432979 24.81192138349478 0
-81.57172315888084 24.44914651153169 0
-83.01099885382229 27.423243386673857 0
-82.56527181765743 24.668100536492123 0
-80.04756322603177 28.01398558451844 0
-80.46333895756702 28.003150791657994 0
-80.33802947689041 28.093044984511202 0
-79.6282011925511 28.5421459020093 0
-80.25147600161343 24.18963586731237 0
-82.02406531693467 24.188286779957146 0
-82.22460009612865 24.73053206364605 0
-83.66249479019031 29.599357284874717 0
-83.2123302207322 28.393624623256855 0
-84.05391775846775 28.242608813225527 0
-83.63721675905096 28.049527235928807 0
-84.38187837486603 27.959276049381447 0
-84.19261738342969 26.481865359057924 0
-82.59630060533851 26.011291648806615 0
-83.19659985940106 25.98789064234805 0
-84.42263019861541 29.644737291566774 0
-82.71170772569381 26.915111001774502 0
-80.74715619179912 29.471169312121635 0
-80.73869557168054 29.097351092453433 0
-81.48374131758848 24.973114946096512 0
-84.49650678795464 25.546452773790794 0
-84.21446931171602 27.14935683266204 0
-81.6789899876747 24.474070721175426 0
-81.42103564261062 24.323910248470035 0
-80.18903673987354 27.869599951946743 0
-83.3510686002829 28.20097588078218 0
-83.09237864614761 28.033542899299327 0
-82.86952778968175 26.536627725090902 0
-80.48353275653315 29.204999285221337 0
-83.31595667720444 28.003222966513697 0
-85.275 25.89987402233814 1
-78.97499999999998 28.8175 1
-80.795271 25.167749999999995 1
-79.56938015269738 26.730995479086836 0
-79.3721799087997 27.08959904446634 0
-84.80545027419859 23.907988800060863 0
-81.08411796709099 24.490271307584358 0
-80.64591532703817 24.77164801057817 0
-80.4682479638347 24.750372483446682 0
-80.13812820362331 28.34004282598384 0
-80.08870923694722 28.150805342967626 0
-80.2912305732334 28.35847665493129 0
-80.51156862325782 28.29700617949751 0
-80.29652600377192 28.466664585496396 0
-80.24457874060732 28.54783901004204 0
-80.33998071912708 28.64827016426588 0
-81.42016502104585 24.51324241782514 0
-81.539698320495 24.176793945417288 0
-81.58625742071199 24.02273351474113 0
-81.72102360363792 23.862874836497713 0
-81.39823451054684 23.863227959235022 0
-80.02278187918986 25.071620096352877 0
-80.17810440522418 24.740550003975997 0
-82.85415707026391 24.08532191106108 0
-79.58643709149742 28.114327375589607 0
-81.77607619196456 24.129828194014863 0
-79.69129746653296 28.315103293356078 0
-84.61459862237027 24.626944186414338 0
-80.80434339303643 24.724667032230304 0
-80.49230133512249 28.13295910030347 0
-79.81721684986994 28.479324358742694 0
-79.90168661415686 28.652099085917854 0
-83.92313668632904 25.861018713497288 0
-82.87590346189565 25.569409237723992 0
-80.23086428466507 28.204123905320476 0
-81.47373593588114 25.2788348967137 0
-83.47318462641893 25.35034649092794 0
-80.56950840139002 25.000339157428243 0
-79.85876813662348 24.687031386283778 0
-83.89875580468018 25.153742969798458 0
-80.09842778226235 28.4736054145572 0
-80.38515160922337 28.25707396531948 0
-81.06487849999999 29.351624999999995 1
-85.275 26.299085410390163 1
-80.562564 28.10475999999999 1
-81.27510916792536 30.655 1
-82.40442080541688 26.4637992691219 0
-83.09082071632318 28.803452341611116 0
-83.29666633166899 29.29520600756501 0
-81.18820792090575 30.284319114504466 0
-80.87782961016568 24.522756689008002 0
-80.77010364281035 24.367757699603697 0
-80.3566314099267 28.80375229692647 0
-82.67030620347525 24.35428084170355 0
-82.11682822358233 24.418220964804693 0
-83.98510519279931 27.46395350678816 0
-82.68740119702304 23.51202656143749 0
-82.52829474376404 24.13288105183964 0
-79.83842629990708 29.23418376123184 0
-80.03950087023743 29.614541114985506 0
-80.44502895298767 29.5968901687567 0
-80.67995339250915 24.306583167955072 0
-83.6060455508399 23.85847765018208 0
-83.40547125359245 29.069018971882443 0
-84.06289518546325 29.09298248904321 0
-83.71720092477821 26.773202592563194 0
-84.77214302384515 29.145592083322484 0
-80.52419673757089 28.959092336115432 0
-83.2037730700699 27.89509060886571 0
-82.26862334597374 24.213052558145456 0
-82.93930349537003 23.30499999999999 1
-83.60032648728436 26.416702986639052 0
-82.5778055 27.615548000000004 1
-78.97499999999998 29.9659375 1
-80.49145633459366 27.940206560502876 1
-82.90841899606049 29.027914033698195 0
-84.25841835781141 29.962083228929632 0
-81.28078772173531 30.358482792958032 0
-80.22821156538306 25.450846483843648 0
-80.46701434134185 25.026787547621765 0
-84.46324781925358 29.784244420526512 0
-80.65165009483985 25.074469158234198 0
-82.8053746648371 28.562668653852672 0
-82.01889532795678 26.384932896133108 0
-84.64935251073454 29.598337862088986 0
-82.9097577622119 28.731633046969538 0
-80.07708876018019 25.35891556580022 0
-81.1206599802529 30.463506697039147 0
-84.12745552679544 29.69315703886486 0
-79.87813695675672 26.899423581002125 0
-79.89342267697259 26.01121633619429 0
-81.96131139780105 25.797813833624865 0
-80.83736108090923 30.254386658025542 0
-79.7942606164138 25.46829223884799 0
-79.27031249999975 23.619062500001096 0
-84.97968749999856 23.59898451008233 0
-84.95801427723248 24.20322562311724 0
-84.4716441996014 29.30711699147569 0

Edges
173
1 2 1
1 358 1
2 3 1
3 4 1
4 269 1
5 6 1
5 269 1
6 7 1
7 355 1
8 235 1
8 355 1
9 10 1
9 235 1
10 11 1
11 12 1
12 13 1
13 14 1
14 357 1
15 357 1
15 387 1
16 251 1
16 274 1
17 251 1
17 271 1
18 136 1
18 271 1
19 20 1
19 136 1
20 132 1
21 132 1
21 135 1
22 23 1
22 135 1
23 270 1
24 25 1
24 270 1
25 26 1
26 173 1
27 28 1
27 173 1
28 29 1
29 30 1
30 275 1
31 275 1
31 315 1
32 33 1
32 315 1
33 34 1
34 35 1
35 36 1
36 37 1
37 38 1
38 39 1
39 40 1
40 111 1
41 42 1
41 111 1
42 118 1
43 44 1
43 118 1
44 45 1
45 46 1
46 47 1
47 48 1
48 49 1
49 109 1
50 51 1
50 109 1
51 52 1
52 53 1
53 54 1
54 55 1
55 56 1
56 57 1
57 58 1
58 385 1
59 60 1
59 385 1
60 61 1
61 108 1
62 63 1
62 108 1
63 64 1
64 65 1
65 66 1
66 67 1
67 68 1
68 69 1
69 70 1
70 71 1
71 72 1
72 73 1
73 74 1
74 75 1
75 76 1
76 77 1
77 78 1
78 79 1
79 80 1
80 81 1
81 82 1
82 83 1
83 84 1
84 85 1
85 86 1
86 87 1
87 88 1
88 89 1
89 90 1
90 91 1
91 92 1
92 93 1
93 94 1
94 95 1
95 96 1
96 97 1
97 98 1
98 130 1
99 100 1
99 131 1
100 101 1
101 115 1
102 203 1
102 204 1
103 168 1
103 169 1
104 264 1
104 265 1
105 134 1
105 248 1
106 155 1
106 208 1
107 133 1
107 171 1
110 114 1
110 266 1
114 358 1
115 116 1
116 117 1
117 196 1
119 265 1
119 266 1
127 155 1
127 157 1
130 131 1
133 134 1
157 163 1
163 170 1
166 169 1
166 171 1
167 168 1
167 170 1
192 195 1
192 196 1
195 356 1
200 202 1
200 204 1
201 203 1
201 206 1
202 205 1
205 313 1
206 207 1
207 383 1
208 383 1
229 314 1
229 386 1
241 242 1
241 314 1
242 243 1
243 248 1
264 386 1
274 387 1
313 356 1

Triangles
645
2 3 390 0
2 358 1 0
3 4 390 0
4 269 390 0
6 7 236 0
7 300 236 0
8 301 300 0
9 10 234 0
9 234 380 0
10 256 234 0
11 255 256 0
11 325 255 0
13 14 325 0
14 342 325 0
15 342 357 0
16 251 246 0
16 257 274 0
17 246 251 0
17 271 250 0
18 136 402 0
19 20 402 0
20 132 276 0
20 276 316 0
20 316 402 0
21 135 403 0
22 174 406 0
22 277 403 0
23 174 22 0
24 25 391 0
25 26 391 0
26 173 334 0
26 334 399 0
27 28 392 0
28 30 394 0
28 350 392 0
30 28 29 0
30 275 394 0
31 112 394 0
32 112 315 0
33 34 113 0
33 113 112 0
34 140 181 0
35 348 140 0
36 37 267 0
38 39 268 0
38 267 37 0
42 118 404 0
43 217 118 0
44 45 396 0
44 217 43 0
45 46 396 0
46 47 396 0
47 48 359 0
47 359 396 0
48 53 54 0
48 54 359 0
51 52 50 0
52 53 50 0
53 48 49 0
53 109 50 0
54 299 359 0
55 299 54 0
57 58 67 0
57 67 183 0
57 186 56 0
57 281 186 0
60 65 59 0
61 65 60 0
63 64 62 0
64 108 62 0
65 66 59 0
65 108 64 0
66 67 58 0
66 385 59 0
67 68 183 0
69 70 189 0
69 309 68 0
71 72 395 0
72 73 395 0
73 74 398 0
74 75 76 0
74 76 388 0
74 388 398 0
76 77 388 0
77 78 388 0
78 79 388 0
79 80 388 0
80 360 388 0
80 376 360 0
82 80 81 0
82 361 80 0
83 361 82 0
85 361 84 0
85 376 361 0
86 290 85 0
88 290 87 0
89 90 401 0
90 92 389 0
90 389 401 0
91 92 90 0
92 93 389 0
93 94 389 0
94 95 389 0
95 96 389 0
96 97 393 0
96 298 401 0
97 98 393 0
98 130 393 0
99 379 397 0
101 115 100 0
105 248 317 0
106 155 226 0
106 226 209 0
108 65 61 0
109 53 49 0
110 114 400 0
110 400 405 0
111 41 42 0
111 42 268 0
112 32 33 0
112 113 123 0
112 123 394 0
113 34 181 0
114 358 400 0
115 99 100 0
116 117 379 0
117 228 379 0
118 217 404 0
120 68 309 0
120 187 183 0
120 309 381 0
121 279 143 0
121 319 363 0
122 182 321 0
122 320 341 0
122 341 363 0
122 363 364 0
122 364 374 0
123 278 394 0
124 126 364 0
124 128 126 0
124 144 128 0
125 122 374 0
125 273 287 0
126 128 165 0
126 273 374 0
127 157 159 0
127 158 156 0
128 144 129 0
129 161 128 0
130 131 397 0
131 99 397 0
132 21 403 0
133 134 277 0
134 105 316 0
135 22 403 0
136 19 402 0
137 138 329 0
137 141 302 0
137 143 141 0
138 139 305 0
138 160 139 0
138 280 329 0
139 147 305 0
139 150 147 0
140 34 35 0
141 140 302 0
141 143 279 0
141 181 140 0
142 137 329 0
142 144 319 0
143 137 142 0
143 142 319 0
144 124 319 0
144 306 129 0
145 121 341 0
145 123 113 0
145 181 279 0
145 278 123 0
146 147 338 0
146 305 147 0
147 367 288 0
148 226 332 0
149 148 288 0
149 153 209 0
149 209 226 0
149 288 382 0
150 154 289 0
150 289 367 0
151 154 152 0
151 219 220 0
152 154 160 0
152 302 348 0
153 149 370 0
153 221 369 0
154 139 160 0
154 150 139 0
154 151 289 0
155 127 156 0
156 158 333 0
156 226 155 0
157 163 164 0
158 127 159 0
159 157 164 0
159 161 158 0
161 159 165 0
161 333 158 0
162 170 180 0
162 273 164 0
162 287 273 0
163 162 164 0
163 170 162 0
164 165 159 0
164 273 165 0
165 128 161 0
165 273 126 0
166 180 407 0
167 168 407 0
167 180 170 0
168 103 169 0
168 169 407 0
169 166 407 0
171 107 178 0
171 180 166 0
172 27 392 0
172 173 27 0
172 335 334 0
173 172 334 0
174 23 270 0
174 270 391 0
174 391 399 0
174 399 406 0
175 107 133 0
175 277 406 0
176 179 351 0
176 182 287 0
177 162 180 0
177 176 287 0
177 179 176 0
178 107 175 0
178 175 334 0
178 334 351 0
179 171 178 0
179 177 180 0
179 178 351 0
180 167 407 0
180 171 179 0
181 141 279 0
181 145 113 0
182 122 125 0
182 125 287 0
182 176 335 0
183 68 120 0
183 187 281 0
184 186 281 0
184 227 299 0
185 184 281 0
185 188 193 0
185 194 188 0
187 120 381 0
187 185 281 0
188 191 368 0
188 293 191 0
189 70 71 0
189 71 395 0
189 291 309 0
189 395 398 0
190 291 360 0
190 292 293 0
190 293 308 0
190 360 376 0
190 377 292 0
191 198 368 0
192 195 216 0
193 184 185 0
193 188 368 0
193 304 378 0
194 185 187 0
194 187 381 0
197 117 196 0
197 199 294 0
198 191 294 0
198 199 304 0
198 304 368 0
199 192 216 0
199 196 192 0
199 197 196 0
199 198 294 0
199 216 304 0
200 204 408 0
200 318 409 0
201 206 318 0
201 318 408 0
202 200 409 0
202 340 205 0
203 201 408 0
204 102 203 0
204 203 408 0
206 375 225 0
207 221 375 0
208 106 209 0
208 369 383 0
209 369 208 0
210 211 214 0
210 213 211 0
210 214 349 0
210 349 352 0
211 220 214 0
211 223 282 0
211 282 220 0
212 221 336 0
212 224 375 0
213 210 224 0
215 216 356 0
215 295 216 0
215 303 345 0
215 313 303 0
215 356 313 0
216 295 304 0
217 44 396 0
217 219 404 0
217 359 296 0
218 42 404 0
218 151 152 0
218 152 348 0
218 268 42 0
219 151 218 0
219 218 404 0
219 296 346 0
220 289 151 0
220 346 214 0
221 153 336 0
221 207 383 0
221 212 375 0
222 282 366 0
222 289 282 0
222 366 370 0
222 370 382 0
223 211 213 0
223 212 336 0
223 213 212 0
223 336 366 0
224 212 213 0
224 225 375 0
224 352 340 0
225 340 409 0
226 148 149 0
226 156 332 0
227 184 193 0
227 193 378 0
227 384 310 0
228 117 197 0
228 197 294 0
228 292 377 0
228 377 379 0
230 237 372 0
230 386 231 0
231 265 119 0
231 386 264 0
232 236 300 0
232 266 405 0
232 300 373 0
233 260 259 0
233 371 372 0
233 372 373 0
234 256 328 0
234 328 365 0
234 365 380 0
235 380 301 0
236 5 6 0
236 232 405 0
236 362 5 0
237 230 231 0
237 231 119 0
237 232 372 0
238 263 371 0
238 286 262 0
238 344 286 0
239 240 339 0
239 343 353 0
239 353 322 0
240 239 323 0
240 249 337 0
240 254 249 0
240 337 339 0
242 241 252 0
242 252 244 0
243 242 244 0
243 244 247 0
244 252 337 0
245 250 247 0
245 254 246 0
246 17 250 0
246 250 245 0
246 254 307 0
247 249 245 0
247 272 317 0
248 243 247 0
248 247 317 0
249 244 337 0
249 247 244 0
252 286 339 0
254 245 249 0
254 283 307 0
255 324 326 0
255 325 354 0
256 10 11 0
256 255 326 0
256 327 328 0
257 253 285 0
257 307 253 0
257 387 274 0
258 324 322 0
258 353 327 0
259 260 261 0
259 261 344 0
259 371 233 0
260 233 311 0
261 327 353 0
261 365 328 0
262 241 314 0
262 252 241 0
262 263 238 0
263 229 230 0
263 230 371 0
264 104 265 0
265 231 264 0
266 110 405 0
266 232 237 0
266 237 119 0
267 35 36 0
267 38 268 0
268 39 40 0
268 40 111 0
269 5 362 0
269 362 390 0
270 24 391 0
271 272 250 0
272 18 402 0
272 247 250 0
272 271 18 0
272 316 317 0
273 125 374 0
275 31 394 0
276 132 403 0
276 134 316 0
277 22 406 0
277 134 276 0
277 175 133 0
277 276 403 0
278 145 341 0
278 320 350 0
278 350 394 0
279 121 145 0
280 138 305 0
280 146 306 0
281 57 183 0
282 223 366 0
283 240 323 0
283 253 307 0
283 254 240 0
283 323 253 0
284 285 342 0
285 253 347 0
285 284 257 0
285 347 354 0
286 252 262 0
286 343 339 0
287 162 177 0
288 338 147 0
288 367 382 0
289 220 282 0
289 222 367 0
290 86 87 0
290 88 89 0
290 89 401 0
291 189 398 0
291 190 308 0
291 308 309 0
292 191 293 0
292 294 191 0
293 188 194 0
293 312 308 0
294 292 228 0
295 345 384 0
296 219 217 0
296 297 346 0
297 310 384 0
298 96 393 0
298 393 397 0
298 397 410 0
299 55 56 0
299 56 186 0
299 186 184 0
299 310 359 0
300 7 355 0
300 301 311 0
300 311 373 0
300 355 8 0
301 8 235 0
302 138 137 0
302 140 348 0
302 152 160 0
302 160 138 0
303 205 340 0
303 340 352 0
304 193 368 0
304 295 378 0
305 146 280 0
306 144 142 0
306 146 330 0
306 329 280 0
307 16 246 0
307 257 16 0
309 69 189 0
309 308 312 0
309 312 381 0
310 296 359 0
310 297 296 0
310 299 227 0
311 233 373 0
311 380 260 0
312 194 381 0
312 293 194 0
313 205 303 0
314 229 263 0
314 263 262 0
315 112 31 0
316 105 317 0
316 272 402 0
318 200 408 0
318 206 225 0
318 225 409 0
319 121 143 0
319 124 363 0
320 278 341 0
321 172 392 0
321 182 335 0
321 320 122 0
321 335 172 0
322 323 239 0
323 347 253 0
324 255 354 0
324 258 326 0
324 347 322 0
325 11 12 0
325 12 13 0
325 342 354 0
326 258 327 0
327 256 326 0
327 261 328 0
329 306 142 0
330 129 306 0
330 146 338 0
330 331 129 0
331 330 338 0
331 332 333 0
332 156 333 0
332 338 148 0
333 129 331 0
333 161 129 0
334 175 406 0
334 335 351 0
335 176 351 0
336 153 370 0
337 252 339 0
338 288 148 0
338 332 331 0
339 343 239 0
340 202 409 0
340 225 224 0
341 121 363 0
342 14 357 0
342 15 284 0
342 285 354 0
343 286 344 0
343 344 353 0
344 238 259 0
344 261 353 0
345 295 215 0
345 297 384 0
345 303 352 0
345 349 297 0
346 220 219 0
346 297 349 0
346 349 214 0
347 323 322 0
347 324 354 0
348 35 267 0
348 267 268 0
348 268 218 0
349 345 352 0
350 28 394 0
350 320 321 0
350 321 392 0
352 224 210 0
353 258 322 0
356 216 195 0
358 2 390 0
358 390 400 0
359 217 396 0
360 291 398 0
361 83 84 0
362 236 405 0
363 124 364 0
364 126 374 0
365 260 380 0
365 261 260 0
366 336 370 0
367 147 150 0
367 222 382 0
369 209 153 0
369 221 383 0
370 149 382 0
371 230 372 0
371 259 238 0
372 232 373 0
375 206 207 0
376 80 361 0
376 85 290 0
376 290 377 0
377 190 376 0
377 290 401 0
377 401 410 0
378 295 384 0
379 99 115 0
379 115 116 0
379 377 410 0
380 235 9 0
380 311 301 0
384 227 378 0
385 66 58 0
386 230 229 0
387 257 284 0
387 284 15 0
388 360 398 0
389 96 401 0
390 362 400 0
391 26 399 0
393 130 397 0
395 73 398 0
397 379 410 0
399 334 406 0
400 362 405 0
401 298 410 0

End
