MeshVersionFormatted 1

Dimension
2

Vertices
407
-81.42844977912038 30.655 1
-81.435829 30.526070999999995 1
-81.39346899999998 30.395553000000003 1
-81.39620300000001 30.331085999999992 1
-81.30897800000001 29.96943999999998 1
-81.253877 29.776852 1
-81.163581 29.555289999999996 1
-80.96617599999999 29.147959999999994 1
-80.709725 28.75669199999999 1
-80.57424000000002 28.585338999999994 1
-80.525094 28.459454 1
-80.58903 28.407871999999998 1
-80.606823 28.29640399999999 1
-80.59416399999999 28.195863999999997 1
-80.530964 28.01365599999999 1
-80.384408 27.741190999999993 1
-80.261462 27.394352999999988 1
-80.09390900000001 27.018586999999997 1
-80.031362 26.796339000000003 1
-80.03615800000001 26.60258600000001 1
-80.108775 26.090087999999998 1
-80.12100799999999 25.813198999999987 1
-80.237858 25.727228000000007 1
-80.340026 25.467887999999988 1
-80.31035999999999 25.373100000000004 1
-80.25301499999999 25.340493999999996 1
-80.39971699999998 25.108491999999995 1
-80.461342 25.132487 1
-80.465501 25.21175499999999 1
-80.582083 25.21068 1
-80.722391 25.15954699999999 1
-80.868151 25.175953 1
-80.900577 25.139669 1
-81.08393 25.10619399999999 1
-81.172044 25.222276 1
-81.12140999999998 25.338749999999994 1
-81.16796999999998 25.46948900000001 1
-81.27148900000002 25.614339999999984 1
-81.290328 25.687505999999992 1
-81.41504 25.78435 1
-81.642345 25.905431000000004 1
-81.68953999999998 25.85271 1
-81.80174799999999 26.091405 1
-81.833142 26.294517999999997 1
-81.868983 26.378647999999984 1
-82.00589900000001 26.534412999999997 1
-82.10062499999998 26.510763999999998 1
-82.14255399999999 26.643910999999992 1
-82.091355 26.666770999999986 1
-82.051105 26.864954999999995 1
-82.11547800000001 26.951132 1
-82.181198 26.921363 1
-82.145071 26.788833999999994 1
-82.249888 26.762945999999996 1
-82.445718 27.060633999999983 1
-82.522032 27.228374999999986 1
-82.70782099999997 27.48761499999999 1
-82.641346 27.525508000000006 1
-82.514265 27.705588000000002 1
-82.39190100000002 27.823856999999997 1
-82.41531799999998 27.900378 1
-82.67557199999999 28.00544199999999 1
-82.72060799999998 27.936155999999997 1
-82.638423 27.904629999999994 1
-82.58762499999999 27.81900999999999 1
-82.63981999999997 27.703906999999997 1
-82.738022 27.706807 1
-82.85216799999999 27.885971999999985 1
-82.792986 28.00649099999998 1
-82.73146099999998 28.32501499999999 1
-82.66988199999999 28.433054999999992 1
-82.655132 28.674851999999998 1
-82.715027 28.72697099999999 1
-82.738695 28.824795999999996 1
-82.68886399999998 28.905608999999988 1
-82.76405499999998 28.999707000000015 1
-82.763751 29.054518 1
-82.83421600000001 29.154919999999983 1
-82.99857899999999 29.174124000000003 1
-83.05654199999998 29.12990899999999 1
-83.07726499999998 29.255330999999998 1
-83.16457799999998 29.296822999999993 1
-83.218075 29.420492 1
-83.280229 29.433412999999998 1
-83.395742 29.526314 1
-83.406437 29.650325000000002 1
-83.54248500000001 29.728152000000005 1
-83.586836 29.818941000000002 1
-83.68079099999999 29.921573999999985 1
-83.92536399999999 30.034567999999986 1
-84.02427399999999 30.103270999999992 1
-84.15727799999999 30.072714000000005 1
-84.23701399999997 30.08556 1
-84.33428 30.037079999999996 1
-84.361962 29.98773900000001 1
-84.34446 29.899024999999998 1
-84.451705 29.929085000000004 1
-84.535873 29.91009199999999 1
-84.88177699999999 29.73388199999999 1
-85.12147299999998 29.715854 1
-85.275 29.69238220883236 1
-85.275 23.30499999999999 1
-78.97499999999998 23.30499999999999 1
-78.97499999999998 30.655 1
-80.20172488956018 30.655 1
-78.97499999999998 26.979999999999997 1
-78.97499999999998 28.8175 1
-82.125 23.30499999999999 1
-78.97499999999998 25.14249999999999 1
-82.54544499999999 27.952909999999996 1
-82.5778055 27.615548000000004 1
-85.275 26.498691104416174 1
-82.07123 26.76586299999999 1
-80.80443001584642 25.086376225160556 0
-82.90841899603689 29.027914033682862 0
-84.25841835781232 29.962083228928144 0
-80.54999999999998 23.30499999999999 1
-80.5820662417612 24.73130626554565 0
-80.50582293652168 24.92711762976182 0
-80.46722035800575 25.026258446647862 0
-80.75644426882954 30.336245756948614 0
-80.81508733434029 30.655 1
-81.0764538969316 30.34981713956951 0
-81.23727663333632 30.356637518392183 0
-80.22821156539159 25.450846483844924 0
-83.27046655099592 29.324422927813085 0
-81.56067973891854 25.78484095182322 0
-81.5286925 25.8448905 1
-80.47552688430834 28.332600048642426 0
-81.45312862934814 25.606579247206785 0
-82.80537466484023 28.562668653854864 0
-84.45041162684501 29.727360482078755 0
-82.9155340893112 28.730235509425622 0
-83.93945992058468 29.590454615511963 0
-83.74931119238998 29.683343470357762 0
-82.10919110827136 26.226615242379275 0
-81.97669931844304 26.283059296101378 0
-84.15383592672488 29.729152546015854 0
-83.43033566941814 29.365035402125407 0
-83.26972466384258 29.11034580024638 0
-79.61201128827973 25.254382180969962 0
-79.92873386360773 25.32557049873916 0
-80.17542963621302 24.855557769576617 0
-80.33492499644044 24.917660668852623 0
-80.62694917926679 25.031366474398038 0
-80.71325475230925 25.066727018386608 0
-80.74758351925331 24.859935123182648 0
-80.95492607308526 24.92823920095003 0
-83.46992175575409 28.264116292730147 0
-83.14344468431261 28.103796624945353 0
-81.77517440648661 25.53385391093858 0
-81.87829657582567 24.594699861363306 0
-81.5008968760851 24.88117146886551 0
-81.30992508571896 25.02613182737543 0
-79.76079033692305 28.684988292139366 0
-80.13327038404428 28.539444843235735 0
-80.34979670661583 28.600426650047595 0
-80.0508139990941 25.59539722177097 0
-81.12176855673033 30.655 1
-82.45115395440571 26.473555154102044 0
-85.275 28.09553665662427 1
-85.07437636364648 28.893959432729282 0
-85.275 28.893959432728316 1
-85.1368624268764 29.302675485145432 0
-85.275 29.29317082078034 1
-85.275 29.49277651480635 1
-85.19187019870834 29.09356512675157 0
-85.275 29.093565126754328 1
-82.85913311567269 28.896627863905877 0
-83.0938139553866 28.883421037900572 0
-85.275 28.494748044676292 1
-83.29618237224625 26.774944137264065 0
-82.8856988837535 26.961694168210148 0
-83.1453418160022 28.459165424007068 0
-81.0447367710984 24.30675697456876 0
-80.84933700335438 24.558193846301744 0
-80.91636900423823 29.977592217705613 0
-79.46793696818665 26.68545658906999 0
-78.97499999999998 26.061249999999994 1
-79.75914176284293 26.692664829433546 0
-79.53595146775086 25.881541199474018 0
-80.11125594685666 29.0325086152564 0
-80.47608814332482 28.802184472318775 0
-81.60776448757323 25.22023357336415 0
-83.2139130763197 27.52956055382472 0
-79.62332410812557 26.2937681248317 0
-79.601143538581 27.189838160417597 0
-83.53179107017439 28.72554865931357 0
-84.29935003461553 29.269219027023784 0
-82.11380260113168 25.798990027634275 0
-80.31352899551709 24.02382993482114 0
-80.66158601935271 24.21064226042633 0
-81.21446544337701 24.640302836061824 0
-80.0759216251929 28.0827704609461 0
-81.52274740513772 24.27347286111997 0
-80.68575390374241 23.747968986311527 0
-84.72326640736165 29.15677303668454 0
-82.20051054992699 25.105318603345882 0
-80.12236300908158 29.838524699536762 0
-80.50190311795491 30.00776282170042 0
-80.39665894256309 30.352179774625657 0
-80.51809098918984 29.461254367539603 0
-80.6907326295705 29.739862078559618 0
-83.46951251409813 27.852368751575494 0
-83.92924786840764 27.22575455137194 0
-83.61331035054133 27.475913786803243 0
-83.36819167586467 27.164587451209957 0
-84.22658763547987 27.92586409081849 0
-83.8581451733988 27.785126860979723 0
-83.90359618713933 28.21878840545111 0
-84.7047604040926 28.295142350650377 0
-85.02481502012513 28.295142350650938 0
-85.275 27.29711388052022 1
-84.86478771210761 27.837971487359354 0
-84.56029457943488 27.98798050576378 0
-84.48688275693706 27.45492733748464 0
-85.275 27.696325268572245 1
-84.67532935056735 28.726788545287754 0
-84.28261864449865 28.483185790891206 0
-84.31100050197502 28.875776347810714 0
-83.87146336735043 29.059654783958702 0
-83.92646111638597 28.66402211517081 0
-84.96223768913488 28.601781112926226 0
-80.85192058864997 29.454831138733798 0
-80.43164213305356 29.135890416767815 0
-82.11625677652633 25.447041898352047 0
-83.32266656762 25.563240657425908 0
-82.7077101743786 25.627148793212978 0
-82.51148907885337 26.029757615735587 0
-83.0623614095309 26.04911755181365 0
-82.9211778961147 26.495174377084105 0
-82.78109042649467 26.205462905942387 0
-84.66985658942738 29.481765742698244 0
-81.33749999999999 23.30499999999999 1
-81.25124807816862 23.823451375131715 0
-81.2717567617192 24.117987350733586 0
-80.94375 23.30499999999999 1
-80.27205929699976 24.444273208047314 0
-78.97499999999998 24.22374999999999 1
-79.65128241356514 24.170777165957468 0
-80.00648280699342 24.20581174533165 0
-79.78732440700485 24.60963504019836 0
-79.76249999999999 23.30499999999999 1
-79.87122543548739 23.75899892984796 0
-79.3225316777 23.730553427252083 0
-78.97499999999998 23.764374999999987 1
-79.60528252593666 23.582669514965474 0
-79.36874999999998 23.30499999999999 1
-80.15624999999999 23.30499999999999 1
-80.32145868122394 23.645473749802743 0
-78.97499999999998 24.68312499999999 1
-79.33320717052817 24.45343750000009 0
-79.44622345031104 24.863094574507326 0
-79.3010721101348 25.155360733906164 0
-78.97499999999998 25.601874999999993 1
-79.21067820668677 25.83156249999906 0
-79.23186925350413 26.36513978985565 0
-78.97499999999998 26.520624999999995 1
-78.97499999999998 26.750312499999996 1
-78.97499999999998 29.73625 1
-79.49379420460676 29.304725347494852 0
-79.74904550962266 29.04731074941779 0
-79.94641360651062 29.437864746453442 0
-79.36514320263646 28.921895123845825 0
-79.30367265139238 28.370406602426268 0
-78.97499999999998 27.89875 1
-78.97499999999998 28.358125 1
-79.46037626669956 28.632110057247296 0
-80.22801340444316 29.553164462754705 0
-82.61116261874159 26.76860131606874 0
-79.54915689831336 27.848995923050595 0
-78.97499999999998 27.439375 1
-79.24433041635707 27.669062499998805 0
-79.24625839252647 27.209687499999646 0
-79.9406937716536 27.677112327499234 0
-79.6402223233326 27.524549166848214 0
-79.69301087132622 28.235216800803766 0
-79.27639376203994 28.039070190515258 0
-79.30449545429187 24.086886812190674 0
-80.98951598392202 23.628271388916577 0
-81.73124999999975 23.636906353561123 0
-81.73124999999999 23.30499999999999 1
-82.01760094130474 24.08312844698765 0
-81.81838280155075 24.303632465397957 0
-82.5776227419581 24.51037865013898 0
-82.21083320836924 24.410499372671367 0
-82.3127915246773 24.759500422823063 0
-82.83249666205596 25.04665127179376 0
-82.5360538748976 25.286587637746326 0
-84.03335024702841 24.14721922710318 0
-85.275 24.90184555220808 1
-83.7 23.30499999999999 1
-83.34214121145278 24.475729670094722 0
-82.96717354736442 24.653940293939918 0
-81.69262285187516 23.97668430625044 0
-82.12210421919126 23.70107627245806 0
-82.91250000000045 23.508806268073545 0
-82.9125 23.30499999999999 1
-83.30624999999982 23.406903134039638 0
-83.30625 23.30499999999999 1
-83.50312500000094 23.35595156702112 0
-83.50312500000001 23.30499999999999 1
-83.60156250000242 23.330475783512284 0
-83.6015625 23.30499999999999 1
-83.65078125 23.30499999999999 1
-83.55234375000265 23.317737891776677 0
-83.55234375 23.30499999999999 1
-83.576953125 23.30499999999999 1
-83.52773437500001 23.30499999999999 1
-83.67539062500526 23.41282762083576 0
-83.40468749999887 23.330475783513506 0
-83.40468750000001 23.30499999999999 1
-83.45390625000002 23.30499999999999 1
-83.35546875 23.30499999999999 1
-83.10937500000138 23.355951567023045 0
-83.109375 23.30499999999999 1
-83.2078125 23.30499999999999 1
-83.0109375 23.30499999999999 1
-83.4862205123338 23.69646794187329 0
-82.51874999999917 23.406903134040274 0
-82.51875 23.30499999999999 1
-82.71562499999999 23.30499999999999 1
-82.321875 23.30499999999999 1
-84.48750000000001 23.30499999999999 1
-84.09375000000003 23.451587208896537 0
-84.09375 23.30499999999999 1
-83.88714345984961 23.404433633740737 0
-83.896875 23.30499999999999 1
-83.9087517320096 23.785962513197184 0
-84.46021991367543 23.83384492957967 0
-82.51633289951552 24.012029597690653 0
-82.65037018428615 23.70999693330531 0
-83.07292366568085 23.98917988700446 0
-83.04058928476319 24.324827702579398 0
-82.73705424027641 24.23782742890829 0
-83.62442863473936 24.08614195118313 0
-83.32594837752671 24.166932915062795 0
-85.275 24.103422776104033 1
-84.88125000000014 23.59043738792418 0
-84.88125000000001 23.30499999999999 1
-85.275 23.70421138805201 1
-84.64721433304486 24.535985559891696 0
-84.41634402604971 24.221500511931524 0
-84.83328449272216 24.072380154605582 0
-81.43590465554645 23.587771362730816 0
-80.94290450603296 23.97747230345558 0
-83.02795236868579 25.718016364272376 0
-83.02514714365677 25.354698825396657 0
-83.3496327575879 24.975076866217847 0
-83.88066029338655 24.717380235391367 0
-83.78848854506218 24.387170705277644 0
-84.16590900520951 24.48824445764897 0
-84.35642819263725 25.017539228225502 0
-84.41099572113285 24.467412797176646 0
-83.55499015272204 24.722266160260407 0
-83.84509271897579 25.30089487865853 0
-83.50598205580876 25.276945253691284 0
-84.02300284689436 25.0188979042651 0
-84.530617463246 25.934924670952768 0
-85.275 25.700268328312127 1
-83.80766735232018 26.135743229706886 0
-83.45211963379063 25.94526101878209 0
-83.6935687684579 25.65049883170099 0
-84.16198599012316 25.64587992550598 0
-83.45093796032518 26.37453453111249 0
-83.91102382256685 26.676001029718854 0
-83.63394164116512 26.913999047924925 0
-84.16524678131123 26.021309631023744 0
-84.47571207702984 26.518570595277605 0
-84.6187283328679 25.442964668805264 0
-84.87946115889372 25.743532763617747 0
-85.275 26.09947971636415 1
-84.87014432878027 26.299085410390106 0
-84.30169764769647 25.34485842651363 0
-84.82369005196927 25.023018997601447 0
-85.03860794634946 25.368798710047084 0
-85.275 25.301056940260104 1
-84.59227438943266 24.83138250662151 0
-85.275 24.502634164156056 1
-84.95424121148545 24.390069448909376 0
-84.98601545198414 24.726561563644683 0
-84.28854174616238 26.938665324852973 0
-84.8478252024958 26.936106645487676 0
-84.56760644423258 26.811257096071728 0
-84.96294697711797 26.621238521467863 0
-85.275 26.897902492468198 1
-84.87351717496139 27.338944285393545 0
-84.13448208268402 26.386067710791412 0
-83.74330554467933 29.34582723051243 0
-84.12797521772559 27.535220240201642 0
-80.0724665 26.346337000000005 1
-82.97928324265523 27.28638794113483 0
-79.53974929184787 29.887592879392724 0
-79.65721663388571 29.585086002282836 0
-79.58836244478007 30.655 1
-79.86383885319346 30.25230600333049 0
-80.15896494837374 30.14904462287583 0
-79.89504366717013 30.655 1
-79.46838902419752 30.27735667395619 0
-79.28168122239003 30.655 1
-78.97499999999998 30.195625 1
-79.21610105005512 29.965937500001033 0
-79.83826702678512 29.94867752384647 0
-78.97499999999998 29.276874999999997 1
-79.22281436735975 29.50656249999912 0
-79.83218707529863 24.968041898088554 0
-81.8648553725915 24.960153771595838 0

Edges
178
1 2 1
1 159 1
2 3 1
3 4 1
4 5 1
5 6 1
6 7 1
7 8 1
8 9 1
9 10 1
10 11 1
11 12 1
12 13 1
13 14 1
14 15 1
15 16 1
16 17 1
17 18 1
18 19 1
19 20 1
20 391 1
21 22 1
21 391 1
22 23 1
23 24 1
24 25 1
25 26 1
26 27 1
27 28 1
28 29 1
29 30 1
30 31 1
31 32 1
32 33 1
33 34 1
34 35 1
35 36 1
36 37 1
37 38 1
38 39 1
39 40 1
40 128 1
41 42 1
41 128 1
42 43 1
43 44 1
44 45 1
45 46 1
46 47 1
47 48 1
48 49 1
49 113 1
50 51 1
50 113 1
51 52 1
52 53 1
53 54 1
54 55 1
55 56 1
56 57 1
57 58 1
58 111 1
59 60 1
59 111 1
60 61 1
61 110 1
62 63 1
62 110 1
63 64 1
64 65 1
65 66 1
66 67 1
67 68 1
68 69 1
69 70 1
70 71 1
71 72 1
72 73 1
73 74 1
74 75 1
75 76 1
76 77 1
77 78 1
78 79 1
79 80 1
80 81 1
81 82 1
82 83 1
83 84 1
84 85 1
85 86 1
86 87 1
87 88 1
88 89 1
89 90 1
90 91 1
91 92 1
92 93 1
93 94 1
94 95 1
95 96 1
96 97 1
97 98 1
98 99 1
99 100 1
100 101 1
101 166 1
102 340 1
102 341 1
103 246 1
103 248 1
104 400 1
104 401 1
105 122 1
105 398 1
106 259 1
106 272 1
107 267 1
107 404 1
108 282 1
108 323 1
109 251 1
109 255 1
112 372 1
112 386 1
117 237 1
117 249 1
122 159 1
161 171 1
161 217 1
163 168 1
163 171 1
165 166 1
165 168 1
179 255 1
179 258 1
213 217 1
213 386 1
234 237 1
234 282 1
239 246 1
239 251 1
243 248 1
243 249 1
258 259 1
260 401 1
260 404 1
266 267 1
266 272 1
291 377 1
291 379 1
292 305 1
292 328 1
298 318 1
298 322 1
300 314 1
300 317 1
302 309 1
302 313 1
304 305 1
304 308 1
307 308 1
307 309 1
312 313 1
312 314 1
316 317 1
316 318 1
321 322 1
321 323 1
324 326 1
324 340 1
326 328 1
338 341 1
338 379 1
360 372 1
360 377 1
395 398 1
395 400 1

Triangles
634
2 3 124 0
2 159 1 0
3 4 124 0
4 5 124 0
5 6 177 0
5 123 124 0
6 7 177 0
7 8 224 0
8 9 225 0
9 10 183 0
9 183 225 0
10 11 157 0
10 157 183 0
11 12 129 0
11 129 157 0
12 13 129 0
13 14 129 0
14 15 129 0
15 16 194 0
16 17 275 0
17 18 187 0
17 187 276 0
18 19 180 0
18 180 187 0
19 20 180 0
21 22 181 0
21 181 186 0
22 23 158 0
22 158 181 0
23 24 125 0
23 125 158 0
24 25 125 0
25 26 125 0
26 27 143 0
27 28 120 0
27 120 144 0
28 30 145 0
30 28 29 0
30 31 145 0
31 32 114 0
31 114 146 0
32 33 114 0
33 34 148 0
34 35 154 0
35 37 184 0
37 35 36 0
37 38 130 0
37 130 184 0
38 39 130 0
39 40 130 0
40 127 130 0
41 42 127 0
42 43 190 0
43 44 137 0
43 136 190 0
44 45 137 0
45 46 137 0
46 47 137 0
47 48 160 0
47 136 137 0
48 53 54 0
48 54 160 0
51 52 50 0
52 53 50 0
53 48 49 0
53 113 50 0
54 55 270 0
55 56 173 0
55 173 270 0
56 57 392 0
57 67 185 0
57 185 392 0
60 65 59 0
61 65 60 0
63 64 62 0
64 110 62 0
65 66 59 0
65 110 64 0
66 67 58 0
66 111 59 0
67 57 58 0
67 68 185 0
68 69 150 0
68 150 185 0
69 70 150 0
70 71 131 0
70 131 174 0
71 72 131 0
72 73 131 0
73 74 133 0
74 75 169 0
75 76 169 0
76 77 115 0
76 115 169 0
77 78 115 0
78 79 115 0
79 80 115 0
80 81 140 0
80 140 170 0
81 82 140 0
82 83 126 0
82 126 140 0
83 84 126 0
84 85 139 0
85 87 135 0
85 135 389 0
87 85 86 0
87 88 135 0
88 89 135 0
89 90 135 0
90 92 138 0
90 134 135 0
91 92 90 0
92 93 116 0
92 116 138 0
93 94 116 0
94 95 116 0
95 96 116 0
96 97 132 0
96 132 138 0
97 98 132 0
98 99 132 0
99 100 164 0
99 164 233 0
100 166 164 0
105 122 201 0
105 201 397 0
106 272 274 0
107 264 268 0
108 281 296 0
110 65 61 0
111 66 58 0
112 372 373 0
112 373 385 0
113 53 49 0
114 33 148 0
115 80 170 0
116 96 138 0
117 249 250 0
118 119 147 0
118 147 176 0
118 176 192 0
118 192 238 0
119 118 144 0
119 120 145 0
119 145 147 0
120 28 145 0
120 119 144 0
121 122 123 0
121 123 177 0
121 177 200 0
121 200 201 0
122 121 201 0
123 5 177 0
125 26 142 0
125 142 158 0
126 84 139 0
126 139 140 0
127 42 151 0
127 128 41 0
128 127 40 0
129 15 194 0
129 156 157 0
130 127 151 0
130 151 184 0
131 73 133 0
131 133 174 0
132 99 233 0
133 74 169 0
133 169 170 0
133 170 174 0
134 90 138 0
134 138 189 0
134 189 389 0
135 134 389 0
136 43 137 0
136 47 160 0
136 160 229 0
138 132 189 0
139 85 389 0
140 139 389 0
141 142 406 0
141 253 254 0
141 254 256 0
142 26 143 0
142 141 181 0
142 143 406 0
143 27 144 0
143 144 238 0
143 238 242 0
143 242 406 0
144 118 238 0
145 31 146 0
145 146 147 0
146 114 147 0
147 114 148 0
147 148 176 0
148 34 154 0
148 154 193 0
149 150 174 0
149 174 188 0
149 188 222 0
150 70 174 0
150 149 204 0
151 42 190 0
151 190 226 0
152 153 407 0
153 152 195 0
153 154 184 0
153 184 407 0
154 35 184 0
154 153 193 0
155 156 277 0
156 129 194 0
156 155 182 0
156 194 277 0
157 156 182 0
157 182 183 0
158 142 181 0
159 2 124 0
159 123 122 0
159 124 123 0
160 54 270 0
160 231 232 0
162 171 223 0
163 162 167 0
164 165 167 0
164 166 165 0
164 167 197 0
164 197 233 0
166 100 101 0
167 162 197 0
167 168 163 0
168 167 165 0
169 115 170 0
170 140 188 0
171 161 212 0
171 162 163 0
171 212 223 0
172 173 207 0
172 207 367 0
173 56 392 0
173 172 231 0
173 231 270 0
174 170 188 0
175 176 193 0
175 193 195 0
175 195 236 0
175 236 346 0
176 148 193 0
176 175 192 0
177 7 203 0
178 106 274 0
178 180 186 0
178 186 257 0
178 259 106 0
180 20 186 0
180 178 187 0
181 141 256 0
181 256 257 0
182 155 262 0
182 262 263 0
182 263 269 0
183 182 225 0
184 151 226 0
184 226 407 0
185 150 204 0
185 204 206 0
185 206 207 0
185 207 392 0
186 181 257 0
186 391 21 0
187 178 274 0
187 274 276 0
188 140 221 0
188 221 222 0
189 132 233 0
189 197 220 0
189 220 221 0
189 221 389 0
190 136 229 0
191 192 196 0
191 196 250 0
192 175 346 0
192 191 238 0
193 153 195 0
194 16 275 0
194 271 277 0
195 152 284 0
195 284 295 0
196 117 250 0
196 192 346 0
196 237 117 0
197 162 218 0
197 189 233 0
197 218 220 0
198 226 289 0
198 287 407 0
199 200 269 0
199 263 403 0
200 177 203 0
200 199 397 0
200 203 269 0
201 200 397 0
202 203 224 0
202 224 225 0
202 225 269 0
203 7 224 0
203 202 269 0
204 149 210 0
205 206 390 0
205 366 367 0
206 204 209 0
206 205 207 0
206 209 390 0
207 173 392 0
207 205 367 0
208 209 210 0
208 210 219 0
208 215 216 0
208 216 390 0
209 204 210 0
209 208 390 0
210 149 222 0
211 212 214 0
211 214 215 0
211 215 219 0
211 218 223 0
212 161 214 0
212 211 223 0
213 383 387 0
214 217 387 0
215 208 219 0
215 214 216 0
216 214 387 0
216 382 390 0
216 383 384 0
217 213 387 0
217 214 161 0
218 162 223 0
218 211 219 0
218 219 220 0
219 210 222 0
220 219 222 0
221 140 389 0
221 220 222 0
224 8 225 0
225 182 269 0
226 190 228 0
226 198 407 0
226 228 289 0
227 347 362 0
227 362 363 0
228 190 229 0
228 229 232 0
228 230 347 0
228 347 348 0
229 160 232 0
230 228 232 0
230 231 365 0
231 160 270 0
231 172 365 0
231 230 232 0
234 237 280 0
234 280 345 0
235 236 295 0
235 280 346 0
235 295 345 0
236 195 295 0
236 235 346 0
237 196 280 0
238 191 241 0
238 241 242 0
239 251 252 0
239 252 279 0
240 241 244 0
240 244 247 0
240 245 279 0
241 191 244 0
241 240 242 0
242 240 252 0
242 252 253 0
242 253 406 0
244 191 250 0
244 243 247 0
244 249 243 0
245 240 247 0
245 246 279 0
245 248 103 0
246 239 279 0
246 245 103 0
248 245 247 0
248 247 243 0
249 244 250 0
251 109 254 0
252 240 279 0
252 251 253 0
253 141 406 0
253 251 254 0
254 255 256 0
255 179 256 0
255 254 109 0
256 179 257 0
258 178 257 0
258 257 179 0
259 178 258 0
260 401 402 0
260 402 405 0
261 262 264 0
261 404 405 0
262 155 264 0
262 261 263 0
263 199 269 0
263 261 394 0
263 394 403 0
264 155 268 0
264 404 261 0
265 107 268 0
265 267 107 0
265 268 277 0
265 277 278 0
266 267 278 0
267 265 278 0
268 155 277 0
271 194 275 0
271 273 278 0
271 275 276 0
272 266 273 0
272 273 274 0
273 266 278 0
273 271 276 0
274 273 276 0
275 17 276 0
277 271 278 0
280 196 346 0
280 235 345 0
281 282 345 0
281 295 296 0
282 234 345 0
282 281 108 0
283 284 286 0
283 286 331 0
284 152 286 0
284 283 295 0
285 286 287 0
285 287 288 0
285 288 294 0
285 294 335 0
286 152 287 0
286 285 331 0
287 152 407 0
287 198 289 0
288 287 289 0
288 289 348 0
288 348 349 0
289 228 348 0
290 329 336 0
290 336 351 0
290 351 352 0
291 375 376 0
291 379 381 0
292 305 310 0
292 310 327 0
293 294 349 0
293 336 337 0
293 349 355 0
294 288 349 0
294 293 334 0
294 334 335 0
295 281 345 0
295 283 296 0
296 283 331 0
296 323 108 0
296 331 332 0
297 299 315 0
297 318 298 0
297 322 332 0
297 332 333 0
299 297 333 0
299 301 311 0
299 314 300 0
299 317 315 0
301 299 319 0
301 303 306 0
301 309 302 0
301 313 311 0
303 301 310 0
303 305 304 0
303 308 306 0
305 303 310 0
306 308 307 0
308 303 304 0
309 301 306 0
309 306 307 0
310 301 319 0
310 319 329 0
311 313 312 0
313 301 302 0
314 299 311 0
314 311 312 0
315 317 316 0
317 299 300 0
318 297 315 0
318 315 316 0
319 299 333 0
319 333 337 0
320 296 332 0
320 322 321 0
322 297 298 0
322 320 332 0
323 296 320 0
323 320 321 0
324 325 330 0
324 330 339 0
325 326 327 0
325 327 329 0
325 329 330 0
326 325 324 0
327 310 329 0
327 328 292 0
328 327 326 0
329 290 330 0
329 319 336 0
330 290 343 0
330 343 344 0
331 285 335 0
332 331 333 0
333 331 335 0
333 334 337 0
334 293 337 0
334 333 335 0
336 293 351 0
336 319 337 0
338 341 344 0
338 344 380 0
339 330 344 0
339 340 324 0
339 341 102 0
340 339 102 0
341 339 344 0
342 343 354 0
342 354 378 0
342 378 381 0
343 290 352 0
343 342 344 0
343 352 354 0
344 342 380 0
347 227 348 0
347 230 362 0
348 227 357 0
349 348 357 0
350 351 355 0
350 355 358 0
351 293 355 0
351 350 352 0
352 350 358 0
352 353 354 0
353 352 358 0
353 358 374 0
353 370 375 0
353 375 378 0
354 353 378 0
355 349 357 0
355 356 358 0
356 355 357 0
356 357 363 0
356 363 364 0
356 364 374 0
357 227 363 0
358 356 374 0
359 364 368 0
359 368 369 0
359 369 373 0
361 362 365 0
361 365 366 0
361 366 388 0
362 230 365 0
362 361 363 0
363 361 368 0
364 359 370 0
364 363 368 0
364 370 374 0
365 172 367 0
366 205 382 0
366 365 367 0
366 382 388 0
368 361 388 0
369 368 388 0
369 382 384 0
369 384 385 0
370 353 374 0
370 359 371 0
370 371 376 0
371 359 373 0
371 360 376 0
371 372 360 0
372 371 373 0
373 369 385 0
375 291 381 0
375 370 376 0
376 377 291 0
377 376 360 0
378 375 381 0
379 338 380 0
379 380 381 0
380 342 381 0
382 205 390 0
382 216 384 0
382 369 388 0
383 216 387 0
383 386 385 0
384 383 385 0
385 386 112 0
386 383 213 0
391 186 20 0
393 394 405 0
393 399 403 0
394 261 405 0
394 393 403 0
395 396 399 0
396 105 397 0
396 397 403 0
396 398 105 0
397 199 403 0
398 396 395 0
399 393 402 0
399 396 403 0
399 400 395 0
400 401 104 0
401 399 402 0
401 400 399 0
402 393 405 0
404 260 405 0
404 264 107 0

End
