MeshVersionFormatted 1

Dimension
2

Vertices
1044
12.4665091187847 44.8437119771478 1
12.5483287300564 44.9742356267723 1
12.4011692851598 45.0420916857034 1
12.3369488519464 45.0982936201917 1
12.3060177640152 45.195315745709 1
12.3047390169693 45.2804458864651 1
12.3580103159005 45.3928503352823 1
12.4019604996061 45.4286670860949 1
12.5894189824772 45.4812495382774 1
12.7560273315521 45.539977150055 1
12.9063217973796 45.6116116435634 1
13.1016070603669 45.6387561790759 1
13.1838559730596 45.7118696317413 1
13.2526696133605 45.7142385074864 1
13.351624468746 45.6789887642625 1
13.4334776299413 45.6821996496021 1
13.6254892590629 45.7689924416082 1
13.7538226565618 45.6797005915982 1
13.7755635950321 45.5860112606007 1
13.8513216633637 45.5849179279325 1
13.91806601965 45.6311428040477 1
13.8337694021818 45.6870363787251 1
13.7962964368786 45.742703023159 1
13.6694004435771 45.7996399494454 1
13.5953732092659 45.8082196542324 1
13.5758690161593 45.85486161433 1
13.637611291423 45.9374569873859 1
13.5934794629324 45.9894931113614 1
13.5278131611238 45.9670588064383 1
13.4769755186716 46.0068396287964 1
13.4980857550562 46.0476487400065 1
13.6438945340985 46.1370788427458 1
13.6632032999803 46.1801180739753 1
13.5650907979615 46.1878132451032 1
13.5290561346402 46.2187462931567 1
13.4224830271448 46.2343906868873 1
13.3918725812048 46.279286535458 1
13.4368276721122 46.3543666140295 1
13.566768686709 46.3990163118781 1
13.5922053931799 46.4364120292453 1
13.6896161829898 46.440479502895 1
13.713851953313 46.5230831381509 1
13.5634968621047 46.5512596489436 1
13.4272676034889 46.5576322658018 1
13.3727504715915 46.5793596015485 1
13.321705680818 46.5522620406772 1
13.1684161584976 46.5888332641975 1
13.0459232639385 46.5953535957145 1
12.6901078223716 46.6559724317266 1
12.5600431496081 46.6526812331482 1
12.3836906218178 46.7165570639119 1
12.2664934282946 46.887141478694 1
12.2150331153855 46.8741910326124 1
12.1348196106834 46.9608448913646 1
12.1210602016694 47.0068721017289 1
12.2048300383247 47.0269560725472 1
12.1866807159223 47.0917837412546 1
12.0200610216554 47.0467601730478 1
11.9153275191586 47.0325484816003 1
11.8369458955245 46.9934682993358 1
11.7279659316202 46.9723283056021 1
11.6094559914435 47.0107877269712 1
11.5380769316425 46.9841080803969 1
11.4802010838993 47.0110072143114 1
11.4015726090875 46.9647178607478 1
11.3582864949248 46.990361686161 1
11.1645252044119 46.9655681889566 1
11.1150127257363 46.9310053721726 1
11.0216718250076 46.7659119540504 1
10.813742093985 46.7755439807329 1
10.690586419022 46.8674048097454 1
10.5507225958055 46.8498961708728 1
10.4789377713679 46.8588796717761 1
10.3934553049837 46.6895512030236 1
10.4107545709797 46.635140051732 1
10.4912498177598 46.6113322016427 1
10.4717042250074 46.5426395669415 1
10.2957488566402 46.5504005220037 1
10.2578775842468 46.6108948049292 1
10.1906283889865 46.6260855754382 1
10.1301717188487 46.6055997409266 1
10.0447308960168 46.5364591412527 1
10.0398111453648 46.4457027652724 1
10.1306732832993 46.4318674177678 1
10.1639410512736 46.3908954107905 1
10.1081225237328 46.3521705784877 1
10.1745305350301 46.2546688251621 1
10.1232875695219 46.2237739177906 1
10.0441320032536 46.2296273158372 1
9.99940475414943 46.2831987020732 1
9.9955282372934 46.3419161098712 1
9.90760361427454 46.3805592569705 1
9.76469640048219 46.3378205066345 1
9.71447073486712 46.2929887725993 1
9.63857663304354 46.2863324690102 1
9.53750092387015 46.3092574070205 1
9.45340951038651 46.4205298094312 1
9.46072009143845 46.4989228266861 1
9.28323474459985 46.4969396274636 1
9.249473858272 46.4311595389212 1
9.30005009759922 46.3265876715291 1
9.24982722061509 46.2404180082093 1
9.12080217418474 46.1346118391927 1
9.07163492547375 46.1195150932817 1
9.07787243138708 46.0653167230874 1
9.01733719938931 46.0501586091087 1
9.0194603788022 45.9306208679103 1
9.08821200458521 45.8970799348015 1
8.99791578701989 45.8229498336994 1
8.94953746092534 45.8434779517375 1
8.92461458576802 45.9058511620373 1
8.79307311306311 46.0079550509246 1
8.8545170568959 46.0616280883307 1
8.74268748913822 46.1221459640006 1
8.71481518135028 46.0980427908335 1
8.61187265224488 46.1214527959948 1
8.53258300750051 46.218059155312 1
8.46921785780056 46.2329383985732 1
8.42752235939834 46.2982653737841 1
8.4654509402538 46.3333951670651 1
8.46588126353392 46.4429043808451 1
8.44549436229094 46.4637053485781 1
8.30703806303767 46.4257188592637 1
8.31194808810202 46.3765566635197 1
8.13770892900747 46.3016128219569 1
8.08132587448341 46.2581992155877 1
8.13900332353752 46.2260774425799 1
8.15346299008365 46.1459411343765 1
8.10802490312943 46.1115753512038 1
8.03420374491764 46.1001930023984 1
8.03402231269552 46.0461092138343 1
7.98869708172567 45.9963235403176 1
7.90924780405532 45.9972128320578 1
7.87287076105589 45.9201494087475 1
7.73455489877146 45.9236515188949 1
7.66810268655349 45.9737216734543 1
7.54736305683446 45.9853460566116 1
7.38179670727254 45.8969054845377 1
7.29071029299065 45.9204564697461 1
7.1182716025759 45.8595393340097 1
7.04468985326543 45.9226757928963 1
6.98921993916586 45.8680872053215 1
6.80442669796791 45.816305599576 1
6.80918691485319 45.7247597519242 1
6.9320039719203 45.6470858208151 1
6.96856687796303 45.6545108101548 1
6.99968771296081 45.5045716821256 1
7.10432952311263 45.466959179766 1
7.18377718229405 45.4074377584469 1
7.11080588733565 45.3161412731383 1
7.13709087038754 45.2560744482754 1
6.96575642034875 45.2077194720885 1
6.9549300337527 45.1811423785853 1
6.84832428811479 45.1273063623854 1
6.76915683184795 45.1598399338996 1
6.68020827370634 45.1404147308975 1
6.6266214180328 45.1042965127997 1
6.67544704189947 45.0193253896185 1
6.74321799440189 45.015913225878 1
6.76506151123029 44.9590743555631 1
6.7508371157408 44.906169047796 1
6.8629425564623 44.8507195850411 1
6.93155495138414 44.8634781284311 1
7.00608613358737 44.839968171568 1
7.00007931334232 44.7890465593086 1
7.07593757547201 44.6832958630382 1
6.98711551011773 44.6895243078571 1
6.94793613325846 44.6547890413418 1
6.93258952204008 44.5728875500453 1
6.85661086427053 44.5340270860425 1
6.89615134301384 44.3719506294673 1
6.99669543039481 44.2500784899263 1
7.35547623720818 44.117144214756 1
7.45995894248233 44.1258573247322 1
7.56727570798818 44.1548304395936 1
7.67050148933977 44.1526394185181 1
7.71283794591046 44.0882474604884 1
7.65163712320359 43.9734155763346 1
7.57459512253233 43.94623703205 1
7.56076801525607 43.8979430942189 1
7.49557338789157 43.8643664865991 1
7.51810430757754 43.8030359788564 1
7.67406432839098 43.7766120271902 1
7.80463456374518 43.8232195051959 1
7.94605844570994 43.846299881574 1
8.068365064876 43.8891493135198 1
8.16923187909367 43.9523204986167 1
8.16775032903707 43.9997420879321 1
8.22568317879584 44.0431891681654 1
8.26899860339 44.1392465523744 1
8.42224992297937 44.1925700628227 1
8.44821357915295 44.2855097314897 1
8.50874174983448 44.3283452552319 1
8.74132037417174 44.4265780905423 1
9.14038386713752 44.3612418925952 1
9.14725605079033 44.323026984075 1
9.2084247207067 44.3013001410869 1
9.24574463365055 44.3409018536351 1
9.3538732351821 44.3020810261346 1
9.40598222204334 44.2519365736525 1
9.4944031903717 44.2356835510045 1
9.56671414882412 44.1847194704554 1
9.71768171481846 44.1178493456134 1
9.76077882831744 44.0833490961983 1
9.90245276183694 44.0826689316803 1
9.96372617005857 44.0373829436421 1
10.0624411805922 44.0805018869871 1
10.0021276170079 44.1076514785957 1
9.96646590344114 44.1694324595424 1
9.85702737554422 44.2340298168792 1
9.85152700016102 44.2708617623997 1
9.72945517703846 44.3283305886953 1
9.70175670900835 44.3733654225884 1
9.82771721509078 44.4682755723092 1
9.97071255253267 44.4644400153182 1
9.99024752225866 44.4041067525981 1
10.0996251225494 44.3468385163805 1
10.1431469271392 44.3540996682063 1
10.2538566607365 44.2685809325483 1
10.3743586757747 44.2700211359209 1
10.4307826676763 44.2266451259214 1
10.4929026339752 44.2170001171755 1
10.525121660642 44.1562359371357 1
10.5805042263733 44.1293739798774 1
10.641209777052 44.1598351370565 1
10.743297466758 44.156422793633 1
10.9182507047052 44.0630111702492 1
10.9934661128499 44.1292192763118 1
11.0902321562633 44.0904143013152 1
11.195928094289 44.1423410133889 1
11.3805451260451 44.2000007622584 1
11.4186587572945 44.2353237086708 1
11.5033713243374 44.1622972771291 1
11.6148393027568 44.1579255920263 1
11.6486547479033 44.0990952633611 1
11.7370405988185 44.0880672689522 1
11.6455490895208 43.9898490082628 1
11.7189113993713 43.9215207704847 1
11.7082517700258 43.8875439552591 1
11.8173736459634 43.8173317701513 1
11.867411373189 43.8169127794017 1
11.9865105231571 43.7619275924772 1
12.0778355602715 43.7405522723673 1
12.1640477492167 43.762261490074 1
12.2485810022764 43.7515461748488 1
12.3158868509415 43.8056377181818 1
12.3985444404399 43.8263582202131 1
12.4186885736586 43.900657176033 1
12.4038455771899 43.9531063954558 1
12.514350791412 43.9908595803099 1
12.4868313433064 43.8859691163426 1
12.5658966114931 43.8822433587816 1
12.6288042831026 43.8209490755853 1
12.7223995471574 43.860934894005 1
12.7506269054553 43.9686455922617 1
12.6897185384765 43.9862505697796 1
12.5744771319126 44.079217140276 1
12.5294085915389 44.0952262802193 1
12.3923352740308 44.2130694722059 1
12.3678734250307 44.2494098436947 1
12.2892055727343 44.4631776945294 1
12.2819234948781 44.5965273799381 1
12.2401778651663 44.6917633955571 1
12.2483074047846 44.7627650813921 1
12.2914928410913 44.8411945236713 1
12.3981077218541 44.7927775006591 1
10.013083675325385 44.058942415314604 1
12.10337086878885 47.0692719571512 1
13.632386826421499 45.803929801838905 1
13.68965595781235 45.7243465166032 1
13.732848440227851 45.7711714863022 1
7.051423645368145 45.23189696018195 1
8.376266212664305 46.4447121039209 1
8.46566610189386 46.3881497739551 1
8.410880287477623 46.454208726249504 1
11.7628127079946 43.8524378627052 1
8.79860227301706 46.09188702616565 1
12.168661655157614 44.052536264246804 0
12.228081271961967 44.164708936883315 0
6.896823318566885 45.84219640244875 1
10.084314160081844 44.455678914212 0
8.697569716099924 45.13067084887851 0
8.840851233648534 45.53857584548328 0
8.9493503956221 45.7372866278469 0
13.529483444502102 45.725596045605144 1
11.275785551490543 44.346409924218996 0
11.32563986244884 44.23741487884075 0
8.638446405659465 45.998014687123835 0
8.333662693156075 45.95564948537083 0
8.315571915189448 46.25374679670121 0
12.128088745048585 45.714653877201286 0
12.259552569038007 45.57401314711725 0
12.318521185063481 45.478065862720385 0
12.3262155967441 43.902285335823585 0
12.3250920250562 46.80184927130295 1
8.10018016075817 46.00804994683769 0
11.69192094360402 44.73008667037681 0
11.992105895479217 44.75501591828585 0
12.144572432979889 44.74625921366383 0
13.317668343376827 45.794025148927446 0
8.880828509211035 45.80428452650855 0
8.098692199603201 44.827022009417085 0
8.235951116704948 44.54962291885271 0
8.409165611825246 44.39686570826018 0
10.22766672114166 44.428859217091784 0
12.200730964935905 44.374147747963434 0
10.444599428456824 44.330154856882196 0
10.4361965381758 46.774215437399846 1
13.453159488491774 45.86129706987767 0
11.84465309957144 45.20047924564287 0
12.128914361290983 45.24859561816799 0
8.224828508554744 46.3390847427383 1
12.365990444218538 44.90757328367889 0
12.259331522881151 45.129368063659115 0
7.658611827432628 44.38826517071043 0
10.60919079576282 44.3163681946144 0
12.148285434304551 44.5926149410037 0
12.1894241823131 44.82435556426661 0
9.238198717824485 45.53610391357002 0
9.01082717888987 45.63480511009254 0
12.08021192316853 43.8452521305247 0
7.264945746429215 45.74111302005072 0
7.218852868661213 45.5518001887972 0
12.216786054813117 46.66670842309136 0
11.952793343472633 46.84078536272625 0
12.154527825609192 45.40574905601659 0
12.24586656514485 45.38464576023875 0
12.243336979236027 45.31125183022461 0
12.018769176727549 44.142881741331124 0
11.851941732211417 43.95380481983176 0
11.820408904425095 44.21646156371623 0
12.039795268057269 44.006053311978754 0
13.044425799324943 45.773868978000586 0
13.340017940562856 45.99643077285055 0
12.419445159414293 45.65927708435504 0
12.421179939469384 45.53310542330527 0
7.352613925662978 45.10544928127975 0
7.23014107601752 45.17494395279237 0
11.560264293259467 44.28499408271194 0
11.480581925789501 44.588000255953034 0
11.375757961220039 44.41894400930528 0
11.36696089633075 44.55340363298333 0
11.440769607526136 44.786037873605444 0
11.399715182063806 44.67020296930362 0
11.576839091411607 44.65712992229952 0
11.477753164496917 44.371111245104416 0
11.595982219329521 44.41570020287052 0
12.664066379574292 46.12610741404055 0
12.441991718228172 46.52369031000676 0
11.96006761860211 46.161993720627684 0
12.0044322928075 46.305178492646085 0
12.101948240384285 46.14852772455273 0
12.479795056793245 46.36016177522816 0
12.339598627770382 46.26583954421716 0
8.94085212065463 44.39390999156875 1
9.081096412045895 44.54536113533155 0
8.921438042461993 44.58958920950213 0
9.096714419034397 44.805607545219715 0
9.202756242762767 44.65522091686668 0
9.030409169700059 45.159240633086085 0
9.18069691349603 44.91250012417054 0
9.309359178553638 44.46831404384093 0
9.947588284887818 44.91108640741573 0
10.05910721676524 44.72061465143561 0
9.907093229199392 44.58407888306097 0
7.847033861781185 43.99932891838457 0
7.600240328256291 44.282034020699456 0
7.765571215806877 44.268860366889214 0
7.789328218984946 44.65695337835503 0
7.590323670812329 45.40978419745184 0
7.40615417481814 45.45595749296808 0
7.347296366122594 45.586615496663875 0
7.533563555232433 45.58162337740108 0
7.450454604170289 45.57650847579198 0
7.5204850195362 45.85383926519497 0
7.095031073918178 45.66305667569097 0
10.332707601199948 46.3413619769993 0
10.858628142011932 44.33976254570897 0
7.766411246293794 45.809498984694834 0
7.639099689921633 45.70885337181302 0
7.647319792368671 45.87364073474038 0
8.014878992122785 45.856918082046406 0
7.737201097508564 45.55532820897162 0
10.417170091563019 44.53920139521118 0
10.001832799395503 46.05773448844776 0
12.051245458874755 44.66252000607465 0
11.993050076551492 44.41210094101679 0
12.023126997846918 44.54612174018927 0
12.101860557981079 44.46663788731633 0
11.799425349022492 44.61297024944306 0
11.921860725736224 44.6263583840616 0
11.852580034252991 44.738105229564425 0
11.669122699491748 44.57367179663652 0
11.80950921521444 44.96950684574847 0
11.758840041380248 44.85890378462044 0
11.587258272303707 45.04484794363124 0
11.68164573363836 44.940140547314435 0
11.90571509318375 44.878692247648985 0
12.06346812596115 45.055008208869985 0
12.095598604578434 44.32106154398455 0
12.300208677485434 44.03876543709156 0
12.250539366237723 43.95042522825666 0
8.223530777444076 46.07418026614754 0
8.201809740089896 45.3972852110554 0
8.30105451148559 45.62222608583363 0
8.303774067933096 45.767595968193525 0
8.480789841359266 45.68802055477698 0
8.407076310251309 45.67015689211074 0
8.435152145387308 45.45944112108778 0
8.394216836894865 45.55388943168902 0
8.23055937117487 45.50833377373452 0
8.010769746231844 45.50247768099861 0
8.126016344185835 45.59780145753398 0
8.17277920629105 45.881852139864435 0
11.28823661016705 44.17117088782365 1
11.231336271846278 44.23698756779185 0
11.055433064444225 44.4165200726649 0
11.108099578165413 44.18675779244817 0
10.80191842919302 44.63135142801546 0
10.856425424610338 44.49416879210575 0
10.735645975546504 44.39630629131624 0
11.024491603345895 44.60008493496061 0
11.082614318028957 44.51232751002808 0
8.182245995961637 45.722419836580585 0
8.109802520133746 45.462226523657314 0
7.996345343956719 45.14839734307118 0
8.051467587257052 45.25437560062906 0
8.192095443393352 45.28065829116645 0
8.164606797948654 45.04427711476311 0
8.108135753303657 45.153356065060045 0
8.388197645600068 45.162460570579874 0
8.307653211596822 45.197245895023336 0
8.29514293941205 45.309361222392724 0
8.59425979477349 45.31406686784752 0
8.287428261152572 45.078149487859356 0
8.484832654970356 44.89628320070194 0
8.25969139179892 44.9429181630298 0
8.398882170538444 45.02217848700146 0
8.588700937192712 45.11627668238622 0
8.510800265149875 45.22162428781966 0
8.720435581998542 44.90625139161196 0
8.65343735329399 45.02799336114498 0
8.34137438773376 44.73795603481236 0
8.45755391553393 44.51733839240184 0
8.328218108959277 44.62650054100564 0
8.563481047007947 44.79323472336823 0
8.706509212721215 44.56361670758951 0
8.565795853192622 44.57653851256324 0
8.668274888496812 44.82241432708682 0
8.599773175682111 44.90011948027545 0
8.530269560453121 44.44190669322323 0
8.62503106200311 44.3774616728871 1
7.781341516587868 45.16382282287067 0
7.817437015731129 45.32119652574702 0
7.862938850614772 45.218876167371256 0
7.834526611464056 45.01819049286769 0
7.843544569341242 45.11284600847109 0
7.598147091779675 45.02528758528098 0
7.69309063954668 45.116565762992664 0
7.545460563301564 45.199241829715795 0
7.653642442442613 45.3319562505007 0
7.793509340839872 45.4403903989193 0
7.961734635187398 45.64434052489092 0
8.053260609828035 45.744983273184324 0
7.919133091631287 45.76073998613879 0
7.868865945648257 45.54668067258398 0
7.815033378031254 45.663748372924644 0
11.978575566953186 44.24499311614574 0
11.855184331029493 44.36087112199346 0
11.704138741619587 44.32528951893133 0
11.75049645736774 44.45696953311924 0
12.171769323133995 44.24455590996259 0
12.152144747591633 45.13945496507578 0
11.939614232847216 45.13057870126408 0
11.235543824561413 45.50719941484528 0
11.61281706639987 45.40695176045645 0
11.678414619486254 45.23768858358078 0
11.442832207784287 45.145646787075655 0
11.553679436453372 45.22960191564866 0
11.550560002338454 45.15391966448163 0
11.636424802634298 45.131501227492535 0
11.829145074879495 45.534207260137364 0
11.773202509662276 45.381364320395974 0
11.695705537543292 45.39345536358993 0
11.6268253088832 45.655050103997375 0
11.634704983670378 45.52368588200786 0
11.422961111217557 45.56313890177437 0
11.977810478612653 45.44302384738208 0
12.112752379078985 45.34544036346257 0
11.948637107476946 45.23479186627847 0
11.86136546755322 45.42749532690532 0
11.995165942559478 45.6029337197865 0
12.128189080488783 45.6384710276045 0
12.032108952684545 45.50518128582784 0
9.382137185414555 46.1950033997419 0
9.85362922455764 45.91657568017568 0
9.854963567542734 46.172670904928964 0
7.22652086424781 44.87046365132173 0
7.1028171040284525 44.826836718905625 0
7.233487209161735 44.50520558292771 0
7.2504942572876425 44.72636231644772 0
7.4585586194663955 44.424452262465266 0
7.541315933704371 44.69748393451502 0
7.3919716589689655 44.620496437040885 0
7.394771279820938 44.83024554819348 0
7.588088713054763 44.546080150386054 0
7.6758911080359296 44.65687050989662 0
7.727998004058687 44.84612516599895 0
7.896470416580607 44.811597502587375 0
7.846920486484003 44.74527797743654 0
7.983479121263195 44.64314146363011 0
7.881253943160537 44.659889947321886 0
7.990879361431579 44.499073647684156 0
7.919982654715393 44.37264333357961 0
8.241506660347953 44.420366798378474 0
8.104657259188118 44.329222025214165 0
8.292046311363537 44.270894435520404 0
8.161238454955694 44.1584670689975 0
7.831311955844746 44.902272325425166 0
7.58957777443641 44.87209778185039 0
7.4690327301414525 44.98466658578421 0
7.482738611461946 45.11588224478418 0
7.424410915970047 45.30313984539576 0
7.479519139450989 45.37672677402525 0
7.239661552961037 45.3076012600891 0
7.349167273422587 45.24293565359542 0
7.718067526400378 44.97152377511997 0
7.338936019800225 44.973786215248616 0
10.831841500685247 46.36668559831324 0
10.703353542109705 46.60772894083302 0
10.631337554827454 46.36535984937161 0
10.792480131918115 46.10889764537636 0
11.069173009815655 45.69149461910566 0
10.918019190508195 45.819313247194174 0
10.939030746735778 45.624112894502964 0
10.75071176128541 45.67481448310491 0
10.509853019033587 46.106760303915024 0
7.9402838876954975 44.17207686461867 0
9.764736962049565 44.4208204974488 1
9.05284496371992 45.409529289258 0
9.115284599651035 45.525285432199006 0
8.975929314600345 45.52367589173924 0
8.841086247413186 44.41024404105552 1
8.813968235431512 44.50690736406166 0
12.21316154056791 46.27687324820576 0
12.310750166359913 46.413928667548 0
12.373300013404965 46.03787508391656 0
12.249370361657176 46.16041578668212 0
12.19633197576326 45.92873377169459 0
12.013282745563039 46.03136696434416 0
11.954168225375419 45.84293212027662 0
11.953404833077986 45.691934802084724 0
11.753945232896982 45.850330375402486 0
11.87193003664287 45.77171699986346 0
11.843682156401929 45.64760031288329 0
11.873459613615909 45.91998002027301 0
11.587440308881805 45.910702793401605 0
11.349396227487746 45.78944950837703 0
11.44819692688318 45.93512627399134 0
11.510066858023098 45.77333147483144 0
11.641931231633183 45.790775473676284 0
11.500641825236418 45.61058018439465 0
11.38481822807032 45.67096285114599 0
11.314674485290315 45.68681156456752 0
11.192342415145974 45.797968317018054 0
11.290368570430491 45.96169935473645 0
11.060057451727843 45.98822385354791 0
11.731673892759645 46.030729375232475 0
11.36226868518469 46.058407898482784 0
11.653163266856254 46.23463625917547 0
11.591215772137605 46.48183803463537 0
11.832923961131577 46.35846312343329 0
11.60365786990627 46.83916940488398 0
12.057433190246156 45.907714282816826 0
11.976591233502427 46.52040600665014 0
11.561815441022448 44.781439982835714 0
11.400271742312285 44.94946275693399 0
11.573022309123088 44.915182996111625 0
11.266867905032852 44.83833725268874 0
11.362131391198815 44.85527502553539 0
11.337364082762834 44.749938721291095 0
11.43026391983205 45.03877215541593 0
11.322276982451227 45.01374238421745 0
11.11607090586304 45.0822131793218 0
11.223001586414536 44.96023501826641 0
12.739348524810211 45.831713829767786 0
12.79884883862944 45.68350346913292 0
12.656605922266744 45.725889337237994 0
12.67272315701465 45.5106133441662 1
12.604469905649301 45.55327792984786 0
12.546815592799222 45.90640986843589 0
12.60671419872254 45.83590151477609 0
12.89817167224857 45.817436987176805 0
12.923293927364362 45.71973087617931 0
12.779732830346687 46.05002910374759 0
12.987277652114052 45.95371681349933 0
12.99190100972262 46.10135920061109 0
12.83610964356704 46.12817476791605 0
13.142776243367548 46.05765101760043 0
12.898524191910118 46.273517464352345 0
12.661071241311788 45.961417313296536 0
12.45712495376964 45.98363450988021 0
12.832552516938533 45.93542086729243 0
13.241960376103897 46.19186357374237 0
12.119777110621799 44.14565737921886 0
12.235293380939842 44.932503319684066 0
9.43332930157547 45.88096064807822 0
9.258348786034999 45.89625875023763 0
9.323546161685012 45.69856173855842 0
9.5767835467228 45.6042823785594 0
9.382155276038452 45.54556479662516 0
9.453644540149444 45.61380645693834 0
9.171824545915321 45.38659514134059 0
9.34390206939524 45.420593721915075 0
9.478850789087804 45.459486342879 0
9.595087100290668 45.21523784120937 0
9.583690741345444 45.36377014622949 0
9.725039228207562 45.43586586863136 0
9.62476402138539 45.444895012828 0
9.714061384320349 45.53423058825472 0
10.00143452478773 45.5078219637851 0
10.161562812092836 45.65955232997023 0
10.336927574311819 45.89853347438531 0
10.427516250239744 45.41009181904889 0
10.214528699496872 45.45064915586111 0
10.041712827052578 45.343203406562985 0
10.233793956918324 45.10136371454248 0
10.164431840022832 45.249909952583835 0
10.354253915131583 45.12484468620046 0
10.018148374695018 45.180555618971894 0
10.092831928220555 44.8966256811211 0
9.950585262984356 44.78429232174778 0
10.324892438719086 44.79107619821295 0
10.15031335307788 44.77638702240029 0
10.207506165721478 44.91759553742078 0
10.33934118815426 44.96048666657992 0
10.65063386341505 44.81225447613888 0
10.451458541945044 44.87309335285521 0
10.60001576736997 45.15350163482263 0
10.574921489499463 44.90407145704291 0
10.498447901985141 45.04264501492899 0
10.777755135264451 44.97762773437504 0
10.71591908081305 44.899925112988775 0
10.868733157083495 44.81548351390338 0
10.76148224095929 44.822826666589926 0
10.775300128282232 44.718519592063096 0
10.634147179669473 44.56150779994956 0
10.73056797871931 44.53232333444298 0
10.451646560135005 45.22080556323181 0
10.601217094547847 45.33358220676751 0
10.5556895499386 45.56308156668542 0
10.837384175922498 45.214654904316006 0
10.357446884539165 45.645557236415875 0
10.549359020642923 44.69062394847297 0
10.374827467313182 44.63989813320932 0
10.608067002763615 44.72791345712111 0
10.592828993797646 44.62233468466835 0
9.898234518377993 45.249071317418924 0
9.762703143045542 45.17084464122359 0
9.670186150563461 45.32486515406255 0
9.78094193765702 45.33325548244502 0
9.90602988994571 45.075224243080406 0
9.783068775452872 45.457308164789595 0
9.90011699668548 45.41267521622987 0
9.965537339371409 45.705033898605926 0
9.775977824442997 45.69132459472029 0
9.477744118923294 45.72492687387371 0
9.625730743676046 46.09665039305708 0
9.626671416313945 45.82897205903744 0
9.429094587348043 45.114986229220555 0
9.434141696706666 45.302271412395406 0
9.260582457407358 45.08009200629436 0
9.513511063893612 44.92040736183957 0
9.339790945778683 44.92320748088467 0
9.387557526847809 44.653400168612364 0
9.283279659202075 44.78416790549395 0
9.473856378485397 44.81145986481655 0
9.247883373327928 46.061159535848205 0
8.380331312123957 46.09290451265553 0
8.513330303663961 46.09128669663562 0
8.609947946498187 45.81967142878243 0
8.495373834002184 45.95742755456212 0
8.544030210415563 45.74043214132135 0
8.71984995665712 45.61465044342984 0
8.449949787543966 45.80686602955524 0
12.328539498882499 44.35629376911205 1
13.239610975353205 46.40291678900995 0
8.677970677131718 45.70786498477738 0
8.82193681140494 45.68411018188707 0
8.727914443607112 45.50829241171849 0
8.539760109444156 45.43203358994558 0
8.496781188028715 45.54094973758206 0
8.866232936660897 45.30243535712318 0
8.923663938223788 45.416147824451436 0
8.786350721906047 45.40847568190052 0
8.721936683847979 45.27347474339534 0
8.839275199433043 45.0678634073554 0
8.970343880877742 45.038226723272814 0
9.037543559186187 44.911109897429895 0
9.487741691861073 44.54664820210102 0
9.775860022213378 44.56892177626491 0
9.6154381928874 44.81866732952725 0
9.865006042552437 44.831846990926934 0
9.839731397122398 44.691253863178865 0
9.09894673761226 45.04955213232088 0
9.16490176414055 45.21381711735988 0
9.31454693332255 45.223091072371055 0
9.679878442093184 44.95253378253259 0
10.689470808260962 44.65009313113455 0
10.878373872016049 45.091857891499544 0
10.751211684306899 45.1394786114157 0
10.95331664816504 45.20696742152862 0
10.880336140299606 45.33354192753268 0
11.130870973149404 45.44179751600394 0
11.013644507989069 45.34965067462224 0
11.018009500426205 45.50277720692259 0
11.135037098761876 45.55465544017254 0
11.245329683661911 45.2799512424931 0
11.379350537402292 45.404895523619025 0
11.323367033723375 45.276682280773336 0
11.289710288029376 45.182865090485436 0
11.187537455459735 45.19908250930194 0
11.069809594235602 45.20257835040514 0
11.142438208216516 45.30880720723502 0
11.222631132232094 45.38509827418237 0
11.423782571000986 45.47106822281534 0
10.973285357765741 45.11871990236375 0
11.0072066302681 45.008991893800136 0
11.151170884739681 44.852913467551694 0
11.013659415927789 44.86051813244971 0
11.15655334523422 44.748833080506174 0
11.241964167480196 44.73322609687602 0
10.89243610351818 44.952733366995616 0
10.980932001453219 44.721705121605424 0
11.198328299785098 44.65001362854031 0
11.215674603474675 45.63664100110461 0
11.328550392510396 45.588897043406114 0
10.74423749177938 45.261766923572374 0
10.730348855545556 45.45241617886681 0
10.883752554979619 45.51369701235779 0
10.521793953048407 44.430028429696804 0
10.187815939892804 44.5523500075273 0
10.250918380824118 44.66345525255242 0
10.034172362331104 44.587580487616854 0
10.134780941435286 44.658727314199965 0
10.293825376698111 44.542696045590986 0
10.316331439431687 45.26462277282568 0
10.568145514145682 45.79120156841917 0
10.08213903771022 45.90428793199658 0
9.038261782111189 45.719322561231564 0
13.079481036930208 46.26210644271558 0
12.69529314625213 46.29958070970281 0
12.86801554315505 46.625663013720555 1
12.551029003337346 46.230794366874 0
12.466874109023095 46.09474276015559 0
12.790780013678285 46.47354157857551 0
13.002884303042096 46.4533512805052 0
12.606535210571842 46.50079176099858 0
12.36346862337536 45.86111140076072 0
12.271170474230022 45.83896459522286 0
12.278671799472669 45.667167393045474 0
12.353518131401104 45.66728459167863 0
12.311164449483003 45.921113381282275 0
12.462515928295808 45.885534507663714 0
12.474291787271166 45.79994108171147 0
11.298648059673502 46.64000508832845 0
11.404794134447956 46.30551234315245 0
11.202048040139712 46.15254607204237 0
8.807877307795998 44.663259623044105 0
8.918760968186684 45.61763299670947 0
10.986885819212995 46.57748305047756 0
8.107841150606074 44.60951998387026 0
8.030145370305863 44.72218658416649 0
8.24027757006975 44.81672346198505 0
8.232393190360904 44.682930663039095 0
8.170298353932761 44.909344359182725 0
7.987911194488415 44.96224257443131 0
8.079749241067084 44.921638744575176 0
7.934507493322072 45.06346428963075 0
7.447712045650229 44.23383303509974 0
7.24838340341825 45.027695979567575 0
7.093205671006455 44.95933608703904 0
11.844863082145455 45.092810753003654 0
8.761624200272326 44.79744928175637 0
8.856449133050894 44.93421174183274 0
8.918932733534255 44.77621353366872 0
7.09747178624682 45.11581362317653 0
12.080154714852942 44.89990585426049 0
10.199250883658358 46.12370051991761 0
7.626586862667324 45.526328967101804 0
10.860213036193034 44.20463716798346 0
7.4500714397710075 45.6954063779562 0
7.765439077115377 44.4098427656339 0
9.475457386056814 44.39060812657398 0
11.969905541401832 43.88261248393875 0
8.036151364820174 44.00066682067358 0
7.176085833801495 44.18361135234115 1
7.086390632098153 44.21684492113373 1
7.070130874107495 44.41180957807303 0
7.249011900367483 44.31076299740326 0
7.464579882053499 45.941125770574644 1
8.813711762856585 45.15723621708479 0
8.911221209842383 45.160218269375974 0
13.184481342595383 45.844981790200464 0
11.829230983525829 46.161448200848795 0
11.89174900867297 46.0398432190319 0
12.498577766668992 45.455768408731934 1
12.461127075702139 44.15392852749957 1
12.47464460541832 44.04859356010411 0
12.325210665105566 44.166597469728536 0
12.287778462450143 44.2689909550435 0
12.219740170033107 45.22558097892248 0
12.299150117834735 45.0266695165014 0
12.212920947767854 44.506817190211564 0
12.21472060044156 45.48295963057775 0
12.191935070750054 45.349338742006374 0
11.899195279018796 44.12215226916022 0
12.332945158528503 45.57421504844644 0
11.68696537745438 44.18645921596234 0
11.267516615246631 44.48487778924883 0
11.295066137620863 44.65800948066369 0
11.475703088371159 44.698658115283166 0
7.285330866164745 45.43949446125983 0
7.508753095624983 45.489056569175965 0
10.744096181945537 44.259755807504916 0
7.6987851175131965 45.43860786309875 0
10.354368571716504 44.392505110143446 0
10.455360044363216 44.442556589650394 0
11.891917789584648 44.50918645494933 0
11.658894188274619 44.83841478185599 0
11.771281389482269 45.15244694830504 0
11.719994251864632 45.08442870684272 0
11.934427274581425 45.0000166687862 0
12.39001748277198 44.097980053695046 0
12.207271204621254 43.85628338191224 0
8.321497697269663 45.44238482968423 0
10.915768587241871 44.60015544792799 0
10.980585445259821 44.508351186521935 0
8.025159278935112 45.37838980762168 0
7.954257107090905 45.213164234740766 0
8.115371442079839 45.36299902061013 0
8.624321102940756 45.22169802522555 0
8.47331308635804 45.33496669631691 0
8.216665019201796 45.14228877886216 0
8.449215824017756 44.64247146515283 0
8.343186128495065 44.52631046762973 0
8.66733960335275 44.69585746125191 0
8.525803703662053 45.019353294344086 0
8.632248938970625 44.47601087193417 0
7.912381060506409 45.417954552903716 0
7.726258998078059 45.29280910414719 0
7.9371764927566355 45.30500080863952 0
7.771368806444502 45.06517086606659 0
7.564772890120885 45.30038688131517 0
7.580996916445507 45.12964517208366 0
7.638867983017706 45.22009807761658 0
7.7472440913134415 45.363242058629005 0
12.051105610880537 45.1852409719533 0
11.757236137336069 45.23565964818506 0
11.696525207662644 45.16763069184634 0
11.639875426309663 45.32675732759247 0
11.620092073099523 45.19784506841891 0
11.845367232045982 45.311248255980196 0
11.72785158067691 45.31315920472711 0
11.740365938680736 45.595075450912894 0
11.916146392175616 45.49897803727977 0
11.9574911106096 45.34498453768628 0
11.909486386823042 45.58658924050054 0
12.05879453581137 45.665165455846605 0
12.071414651643439 45.428305731240705 0
12.081233421030001 45.573318031936644 0
7.6623005549797325 44.76528541721206 0
7.757290073478337 44.752512273375075 0
8.004602119479271 44.84359445415029 0
7.815329033173521 44.816797335986486 0
7.929378882628796 44.737598854500845 0
7.86553892596797 44.544633398694224 0
8.113713148772625 44.469962785552255 0
7.366223747873259 45.35086838175044 0
7.434512354379224 45.204891967652074 0
7.485337917220743 45.28598242459353 0
12.0909705917534 46.027267084542046 0
12.161400777248906 45.81576488083449 0
12.034891812398074 45.77374209115197 0
11.963241375036251 45.946072025862534 0
11.751470998832707 45.713015296270775 0
11.472777607981117 44.876380612141254 0
11.495257427267507 44.983079085770086 0
11.508112420301924 45.06746958978575 0
12.585771490118812 45.63621727058734 0
12.688935487378671 45.60011199012878 0
12.083897879874009 44.21369782588809 0
12.183132989006959 45.043223855441646 0
10.54317436716857 44.789277614796234 0
10.645368876910986 45.022411498086484 0
10.632237210754507 44.44413014655624 0
10.487709061091934 44.627889521811774 0
10.442458437631116 44.732175433672154 0
10.698439108325667 44.757531115577514 0
8.554269610446871 45.62506664442514 0
8.624798443140577 45.534274762396144 0
8.461670683537594 45.620292260164234 0
8.762411085531037 45.03868625789551 0
9.019217536948952 45.28702722689472 0
11.489014824442208 45.375534274881765 0
11.298455281803413 45.43618429550082 0
11.321044525045606 45.349929896820676 0
11.398306546277007 45.31096440468125 0
11.256638514937894 45.100726481554716 0
11.34976788174455 45.11654835567225 0
11.525512930978667 45.504374710914924 0
11.094526310155466 44.67610268400714 0
11.083437305991547 44.77797885921656 0
10.806124153695507 44.88184141789984 0
10.870331215214629 44.69589602103322 0
11.116684941186064 44.58746424580456 0
10.530585712999033 44.52805201983803 0
12.328596038336421 45.75789532628221 0
12.224932023569743 45.7410840604076 0
12.20952204393103 45.65005909532751 0
12.384248570577693 45.602924730611136 0
12.295726741171912 46.00262255094115 0
12.373852287837733 45.94639032218061 0
12.538234359967817 45.745271720724894 0
7.9042628163168525 44.983009029245096 0
7.912394793017654 44.91215609617193 0
8.02758004614051 45.05332801198692 0
7.91648817024679 45.14979728221962 0
12.121907927456572 45.489790935265496 0
12.171399267840908 45.57270781541889 0
12.18151655732077 45.30047953962363 0
11.25949684421101 44.57219082817666 0
8.394093496716836 45.26737782594412 0
11.74000337325592 45.467554104744956 0
11.968811776109897 45.523646757389365 0
11.349784011535473 45.495476749221595 0
11.380173100838181 45.213595742518336 0
12.327342178982226 45.61801837694773 0
12.489425049861273 45.66336458902038 0
11.180193422099679 44.54013540332343 0
13.00396442887325 45.62518391131965 1
12.321483307980799 45.146804682950346 1
12.3482064619566 44.302851806403375 1
8.118798471984835 43.92073490606825 1
6.937726188981781 44.96359506272754 0
11.202259030687369 46.85035882381464 0
12.151091621611139 43.95599620730418 0
12.450443391983546 45.603748827506436 0
11.370411814371337 44.33245372354069 0
11.470593039288815 44.498969650099674 0
9.953011335300838 44.670407557521735 0
11.150791158095158 44.30796885285013 0
10.995637319951642 44.27646819155423 0
11.179687850558159 44.43028818191529 0
8.389807848319574 45.35977795766338 0
8.48106118030912 45.101364237817265 0
8.443472903920474 44.764517405564455 0
8.520974530017806 44.69395880030853 0
11.562821368032559 45.30885198890859 0
11.602046296379916 45.26044379461794 0
11.497677044787169 45.20856835333702 0
11.663314357996933 45.45254443002194 0
7.7352238085928375 44.53544148449054 0
8.030453370577844 44.40611055778983 0
12.282153896212028 46.068250849675394 0
11.567857030455434 45.5801369185753 0
11.527028073423622 46.092999867340076 0
11.320993814456761 44.92362859397584 0
12.514706164577142 45.559232126305105 0
12.88070978958547 46.03963559236135 0
10.118196149696278 45.10758057803885 0
10.022397837183888 45.04587378552125 0
9.594940427927408 45.05979638567347 0
8.769219315034633 45.90481070093408 0
8.749053453273534 45.788685465587974 0
8.673687843817545 45.415439208464655 0
9.638831527058324 44.495310490659776 0
9.698102962649381 44.68166114255101 0
9.761379487132984 44.82939465020356 0
9.306599974525243 45.32364870892679 0
9.695243252316015 45.08571426110715 0
11.102535818393733 44.95579842890334 0
12.36848397423812 46.12159471245168 0
12.57749649169009 46.02512552132294 0
12.525781400587512 46.13226911674169 0
12.391289384813897 45.71998433150514 0
12.466913629174364 45.73225267479287 0
12.512095535160432 45.82661015944345 0
12.416756371327653 45.787424343580604 0
8.134008257786183 44.740888922701046 0
12.146539443499954 46.45255590282286 0
9.043222081080467 44.65921016174479 0
8.37337434083752 44.86507175375655 0
10.70330107931284 45.89481485854963 0
11.049377033979132 45.825300805135434 0
10.982123645102735 46.19327769863507 0
11.775005891777962 46.69514750037426 0
13.104756663938444 46.15657172558357 0
9.152493682569592 45.649251222039084 0
9.864888951115406 45.55137141154712 0
10.024069023258848 44.82128515039565 0
9.55763482951928 44.669407005428546 0
10.946620017236365 45.43027476821899 0
11.086900093793115 46.362965134200884 0
11.54062964095403 44.545678868612036 0
7.723562870734028 45.209929293169964 0
7.7767404102970215 45.23638337632465 0
12.038473438557842 45.36772991426624 0
8.631284339342207 45.62340066894255 0
8.591954906054346 45.68475254887535 0
11.433203645612545 45.23533071384869 0
11.48900414371699 45.28701585109911 0
12.197466910472295 46.06348567862251 0
8.3187119881438 45.53454237026507 0
10.942047002300441 44.406078807416804 0
12.034829457641946 45.29146104649376 0
11.953129186402576 45.76303039540208 0
9.200410164277075 45.29235201785881 0
9.387666399658631 46.037099117880665 0
11.198249145531742 44.79374857010867 0
10.129950115162515 45.01330263635115 0
9.76243220501058 45.04956555040103 0
12.46087370043334 46.2173599579962 0
9.143467410802003 45.78774634583286 0
9.808464984528625 44.95332167654019 0
7.022949838320851 45.16892763330355 0
8.408179772998487 46.39622135176176 0
6.930634408202867 45.747565899380305 0
9.761791505269501 44.23863424738809 0
9.79049108859974 44.2995961755475 1
11.319894960745119 46.8762029358553 0
13.490498241830167 46.13737390810327 0
12.04364287214812 46.958658677554084 0
13.403236446951157 46.07084891438697 0
7.025909253351772 44.6063035316468 0
13.497211498582594 46.47367830075809 0
13.517238621255425 45.80294523829893 0
9.78743930530431 44.160821110131984 0
9.617886310409467 44.290745993801785 0
10.225113818077023 46.47455756297689 0
6.847069034904605 45.02320706802638 0
13.333722576646146 46.206756090340754 0
6.970164994655242 45.07048367767926 0
10.596194287238099 46.54434458337058 0

Edges
300
1 2 1
1 266 1
2 3 1
3 4 1
4 942 1
5 6 1
5 942 1
6 7 1
7 8 1
8 807 1
9 589 1
9 807 1
10 11 1
10 589 1
11 941 1
12 13 1
12 941 1
13 14 1
14 15 1
15 16 1
16 285 1
17 270 1
17 285 1
18 19 1
18 270 1
19 20 1
20 21 1
21 22 1
22 23 1
23 271 1
24 269 1
24 271 1
25 26 1
25 269 1
26 27 1
27 28 1
28 29 1
29 30 1
30 31 1
31 32 1
32 33 1
33 34 1
34 35 1
35 36 1
36 37 1
37 38 1
38 39 1
39 40 1
40 41 1
41 42 1
42 43 1
43 44 1
44 45 1
45 46 1
46 47 1
47 48 1
48 753 1
49 50 1
49 753 1
50 51 1
51 295 1
52 53 1
52 295 1
53 54 1
54 55 1
55 56 1
56 57 1
57 268 1
58 59 1
58 268 1
59 60 1
60 61 1
61 62 1
62 63 1
63 64 1
64 65 1
65 66 1
66 67 1
67 68 1
68 69 1
69 70 1
70 71 1
71 72 1
72 73 1
73 308 1
74 75 1
74 308 1
75 76 1
76 77 1
77 78 1
78 79 1
79 80 1
80 81 1
81 82 1
82 83 1
83 84 1
84 85 1
85 86 1
86 87 1
87 88 1
88 89 1
89 90 1
90 91 1
91 92 1
92 93 1
93 94 1
94 95 1
95 96 1
96 97 1
97 98 1
98 99 1
99 100 1
100 101 1
101 102 1
102 103 1
103 104 1
104 105 1
105 106 1
106 107 1
107 108 1
108 109 1
109 110 1
110 111 1
111 112 1
112 113 1
113 277 1
114 115 1
114 277 1
115 116 1
116 117 1
117 118 1
118 119 1
119 120 1
120 274 1
121 122 1
121 274 1
122 275 1
123 124 1
123 273 1
124 312 1
125 126 1
125 312 1
126 127 1
127 128 1
128 129 1
129 130 1
130 131 1
131 132 1
132 133 1
133 134 1
134 135 1
135 136 1
136 137 1
137 801 1
138 139 1
138 801 1
139 140 1
140 141 1
141 142 1
142 280 1
143 144 1
143 280 1
144 145 1
145 146 1
146 147 1
147 148 1
148 149 1
149 150 1
150 151 1
151 272 1
152 153 1
152 272 1
153 154 1
154 155 1
155 156 1
156 157 1
157 158 1
158 159 1
159 160 1
160 161 1
161 162 1
162 163 1
163 164 1
164 165 1
165 166 1
166 167 1
167 168 1
168 169 1
169 170 1
170 171 1
171 172 1
172 798 1
173 174 1
173 797 1
174 175 1
175 176 1
176 177 1
177 178 1
178 179 1
179 180 1
180 181 1
181 182 1
182 183 1
183 184 1
184 185 1
185 186 1
186 944 1
187 188 1
187 944 1
188 189 1
189 190 1
190 191 1
191 192 1
192 193 1
193 452 1
194 452 1
194 543 1
195 196 1
195 355 1
196 197 1
197 198 1
198 199 1
199 200 1
200 201 1
201 202 1
202 203 1
203 204 1
204 205 1
205 206 1
206 267 1
207 208 1
207 267 1
208 209 1
209 210 1
210 211 1
211 1030 1
212 213 1
212 1030 1
213 539 1
214 215 1
214 539 1
215 216 1
216 217 1
217 218 1
218 219 1
219 220 1
220 221 1
221 222 1
222 223 1
223 224 1
224 225 1
225 226 1
226 227 1
227 228 1
228 229 1
229 230 1
230 415 1
231 232 1
231 415 1
232 233 1
233 234 1
234 235 1
235 236 1
236 237 1
237 238 1
238 239 1
239 276 1
240 241 1
240 276 1
241 242 1
242 243 1
243 244 1
244 245 1
245 246 1
246 247 1
247 248 1
248 249 1
249 250 1
250 251 1
251 252 1
252 253 1
253 254 1
254 255 1
255 256 1
256 257 1
257 258 1
258 808 1
259 260 1
259 808 1
260 943 1
261 262 1
261 686 1
262 263 1
263 264 1
264 265 1
265 266 1
273 275 1
355 543 1
686 943 1
797 798 1

Triangles
1786
2 313 1 0
3 813 313 0
4 314 813 0
6 7 327 0
6 327 328 0
6 812 5 0
7 8 293 0
7 293 327 0
9 589 590 0
9 969 807 0
10 11 587 0
10 587 891 0
12 13 333 0
14 804 13 0
16 285 1037 0
16 300 15 0
16 309 300 0
17 269 25 0
18 271 270 0
19 22 18 0
22 19 20 0
22 20 21 0
23 18 22 0
25 26 1037 0
25 285 17 0
26 309 1037 0
27 28 29 0
29 26 27 0
30 31 1034 0
30 334 309 0
31 32 1032 0
31 1032 1034 0
32 34 1032 0
34 32 33 0
34 35 1032 0
35 36 1032 0
36 37 1042 0
37 687 1042 0
38 39 1036 0
39 40 1036 0
40 42 43 0
40 43 1036 0
42 40 41 0
43 44 1036 0
44 38 1036 0
44 46 38 0
45 46 44 0
46 47 687 0
46 687 38 0
49 50 758 0
49 756 753 0
50 51 349 0
50 349 758 0
51 324 349 0
53 54 1033 0
53 325 324 0
54 55 1033 0
55 58 1033 0
55 268 58 0
57 55 56 0
58 59 1033 0
59 60 325 0
59 325 1033 0
61 325 60 0
61 997 325 0
62 63 573 0
62 573 61 0
64 65 63 0
65 66 1031 0
66 67 1031 0
67 68 946 0
67 946 1031 0
69 766 946 0
70 771 69 0
72 308 76 0
72 530 71 0
73 308 72 0
74 75 76 0
76 77 1044 0
76 308 74 0
77 377 531 0
77 531 1044 0
78 79 1040 0
79 80 1040 0
80 81 1040 0
81 84 1040 0
82 84 81 0
84 82 83 0
84 85 1040 0
85 87 377 0
85 377 1040 0
87 85 86 0
87 789 377 0
88 789 87 0
89 385 88 0
92 90 91 0
92 497 90 0
94 95 668 0
96 668 95 0
97 99 100 0
97 495 96 0
99 97 98 0
100 101 97 0
102 103 678 0
103 105 678 0
105 103 104 0
107 105 106 0
108 105 107 0
109 110 284 0
109 284 750 0
109 1024 108 0
110 111 301 0
111 974 301 0
112 288 974 0
114 115 277 0
115 116 288 0
115 288 112 0
118 290 679 0
118 679 680 0
118 680 117 0
119 120 1027 0
119 290 118 0
120 274 1027 0
121 122 275 0
121 275 1027 0
124 119 1027 0
124 290 119 0
127 125 126 0
127 290 312 0
127 312 125 0
128 403 290 0
129 403 128 0
131 129 130 0
132 134 382 0
132 296 131 0
134 132 133 0
134 465 382 0
135 379 134 0
137 381 136 0
139 322 138 0
141 142 140 0
142 280 1028 0
142 376 140 0
143 144 1028 0
144 145 1028 0
145 146 1028 0
146 147 376 0
146 376 1028 0
147 148 376 0
148 149 323 0
148 323 376 0
149 150 525 0
149 525 823 0
150 151 525 0
151 338 525 0
152 153 1026 0
153 154 1043 0
154 159 1041 0
154 1041 1043 0
155 159 154 0
156 158 159 0
158 156 157 0
159 155 156 0
159 160 1041 0
160 162 1041 0
162 160 161 0
162 945 1041 0
164 165 499 0
164 945 163 0
165 166 499 0
166 167 1035 0
166 501 499 0
167 168 1035 0
168 169 1035 0
169 170 171 0
169 171 799 0
169 799 1035 0
173 800 797 0
174 175 780 0
175 367 780 0
176 367 175 0
177 178 366 0
177 366 538 0
177 368 176 0
178 183 184 0
180 178 179 0
180 182 183 0
182 180 181 0
183 178 180 0
184 185 366 0
184 366 178 0
185 186 796 0
188 518 796 0
188 944 187 0
189 190 518 0
190 191 517 0
190 517 518 0
192 193 304 0
194 447 849 0
194 543 544 0
195 197 198 0
195 362 356 0
197 195 196 0
198 199 362 0
199 200 794 0
200 201 794 0
201 202 1039 0
202 203 1039 0
203 204 1038 0
203 1029 1039 0
204 205 1038 0
205 209 210 0
205 210 1038 0
206 208 205 0
208 267 207 0
209 205 208 0
210 211 1029 0
210 1029 1038 0
212 213 1039 0
213 977 1039 0
214 215 365 0
214 365 701 0
215 216 281 0
216 217 281 0
217 218 281 0
219 305 218 0
219 827 305 0
220 221 307 0
221 222 307 0
222 223 225 0
222 225 316 0
223 224 225 0
225 825 316 0
226 227 791 0
226 791 825 0
227 228 791 0
228 229 418 0
228 953 791 0
229 230 418 0
230 415 416 0
230 416 418 0
231 232 287 0
232 233 339 0
232 339 346 0
232 949 287 0
233 234 339 0
235 819 234 0
236 330 817 0
238 236 237 0
238 330 236 0
240 330 276 0
241 242 795 0
241 330 240 0
242 243 321 0
242 321 795 0
244 245 835 0
245 246 835 0
246 247 294 0
246 294 835 0
247 248 294 0
248 249 294 0
249 250 809 0
249 809 834 0
249 834 401 0
250 258 809 0
252 250 251 0
252 253 254 0
252 256 250 0
254 256 252 0
256 254 255 0
257 250 256 0
258 250 257 0
258 808 809 0
261 262 814 0
262 263 317 0
262 317 814 0
263 264 299 0
263 299 317 0
264 265 318 0
265 606 318 0
266 313 265 0
267 208 206 0
268 55 57 0
269 17 24 0
270 24 17 0
270 271 24 0
271 18 23 0
272 152 1026 0
273 123 124 0
273 124 1027 0
274 121 1027 0
275 273 1027 0
276 238 239 0
277 112 113 0
277 115 112 0
278 332 947 0
278 402 401 0
279 278 401 0
279 605 278 0
280 143 1028 0
282 439 442 0
282 442 903 0
282 696 842 0
283 542 770 0
284 110 301 0
284 320 750 0
285 25 1037 0
286 287 949 0
286 341 820 0
286 820 954 0
287 286 416 0
287 415 231 0
288 116 680 0
288 681 974 0
288 682 681 0
289 406 685 0
289 414 406 0
290 124 312 0
290 127 128 0
291 493 920 0
291 883 884 0
292 293 818 0
292 818 938 0
292 920 930 0
293 8 336 0
293 292 815 0
293 336 818 0
294 401 402 0
294 402 835 0
295 52 53 0
296 129 131 0
296 132 382 0
296 382 414 0
297 345 393 0
297 390 392 0
297 392 395 0
297 395 830 0
298 299 788 0
299 264 318 0
299 298 386 0
299 318 788 0
300 14 15 0
300 309 334 0
300 334 804 0
301 689 284 0
301 974 975 0
302 774 776 0
302 776 778 0
302 990 774 0
303 445 775 0
303 772 878 0
304 193 451 0
304 444 846 0
304 515 517 0
304 517 192 0
305 281 218 0
306 389 400 0
306 400 472 0
306 472 811 0
306 686 261 0
306 814 389 0
307 316 741 0
307 741 828 0
307 827 220 0
309 16 1037 0
309 26 29 0
309 29 30 0
310 474 490 0
310 490 863 0
311 473 812 0
311 489 1016 0
311 812 931 0
313 2 3 0
313 266 1 0
314 4 942 0
314 5 812 0
314 473 893 0
314 942 5 0
315 368 793 0
315 793 963 0
316 307 222 0
316 421 896 0
317 299 386 0
317 386 388 0
317 388 389 0
317 389 814 0
318 606 788 0
319 609 999 0
320 284 770 0
320 999 750 0
321 243 244 0
321 244 835 0
321 332 795 0
321 835 947 0
322 139 140 0
322 140 376 0
322 323 372 0
322 372 792 0
323 149 823 0
324 51 295 0
324 295 53 0
324 546 349 0
324 575 991 0
325 53 1033 0
325 575 324 0
326 327 815 0
326 489 816 0
326 815 929 0
327 293 815 0
327 326 816 0
328 327 816 0
328 816 931 0
329 332 605 0
329 468 817 0
329 605 892 0
330 238 276 0
330 241 795 0
330 795 332 0
331 236 817 0
331 468 469 0
331 469 470 0
331 470 819 0
331 819 236 0
332 278 605 0
332 321 947 0
332 817 330 0
333 593 594 0
333 941 12 0
334 30 1034 0
334 599 804 0
335 762 921 0
335 921 948 0
335 939 987 0
335 986 762 0
336 8 807 0
336 807 969 0
337 338 781 0
337 521 522 0
337 880 526 0
338 151 787 0
338 337 526 0
339 234 819 0
340 822 344 0
340 950 1005 0
341 286 949 0
341 342 820 0
341 346 950 0
342 340 344 0
342 344 821 0
342 821 932 0
342 950 340 0
343 344 822 0
343 576 887 0
343 580 581 0
344 343 581 0
344 581 821 0
345 297 576 0
345 340 1005 0
345 576 822 0
346 341 949 0
346 347 950 0
347 339 470 0
347 346 339 0
347 393 1005 0
347 470 471 0
348 598 752 0
348 601 595 0
348 752 754 0
348 754 985 0
349 353 758 0
350 572 805 0
350 805 806 0
351 350 352 0
351 352 545 0
351 575 572 0
352 350 550 0
352 550 882 0
352 1013 548 0
353 754 752 0
353 1023 754 0
354 545 548 0
354 548 983 0
354 983 1023 0
355 356 357 0
356 355 195 0
356 992 357 0
357 769 544 0
358 359 676 0
358 361 699 0
358 786 992 0
359 358 992 0
360 698 705 0
360 705 706 0
361 674 672 0
362 195 198 0
362 199 794 0
362 359 356 0
363 631 972 0
363 632 1001 0
363 662 1025 0
363 703 632 0
364 632 951 0
364 634 1001 0
364 744 745 0
364 745 634 0
365 215 744 0
365 744 951 0
366 185 796 0
367 502 780 0
368 315 367 0
368 367 176 0
369 507 963 0
369 873 507 0
370 461 826 0
370 524 854 0
370 790 824 0
371 372 823 0
371 524 824 0
371 823 879 0
372 323 823 0
372 371 374 0
372 374 792 0
373 374 824 0
374 371 824 0
374 373 792 0
375 137 801 0
375 380 381 0
376 142 1028 0
376 323 322 0
377 77 78 0
377 78 1040 0
378 420 421 0
378 421 825 0
378 791 953 0
378 953 1015 0
379 135 381 0
379 380 467 0
379 465 134 0
380 373 790 0
380 379 381 0
380 383 467 0
380 792 373 0
381 135 136 0
381 137 375 0
383 380 790 0
383 462 466 0
383 466 467 0
383 790 826 0
384 746 827 0
384 827 828 0
384 828 917 0
385 89 497 0
385 496 749 0
385 749 789 0
386 298 391 0
387 388 829 0
388 386 391 0
388 387 389 0
388 391 829 0
389 387 400 0
390 297 393 0
390 391 392 0
390 393 471 0
390 471 829 0
391 298 392 0
391 390 829 0
392 298 398 0
393 345 1005 0
393 347 471 0
394 395 398 0
394 398 833 0
394 783 832 0
395 392 398 0
395 394 397 0
395 397 830 0
396 397 832 0
396 480 889 0
396 481 480 0
397 394 832 0
397 396 578 0
397 578 830 0
398 298 788 0
398 788 833 0
399 474 833 0
399 788 893 0
399 858 474 0
400 387 468 0
400 468 892 0
401 294 249 0
401 810 279 0
402 278 947 0
403 129 296 0
403 296 414 0
403 679 290 0
404 411 425 0
404 425 841 0
404 433 836 0
405 406 424 0
405 411 1014 0
405 413 411 0
406 405 408 0
406 408 685 0
406 414 424 0
407 408 902 0
407 1010 683 0
408 405 410 0
408 410 902 0
409 410 836 0
409 691 692 0
409 836 955 0
410 405 1014 0
410 409 692 0
410 692 902 0
411 404 836 0
411 413 425 0
411 836 1014 0
412 413 463 0
412 463 466 0
412 466 850 0
413 405 424 0
413 412 425 0
413 424 464 0
414 289 403 0
414 382 464 0
415 287 416 0
416 286 952 0
417 423 838 0
417 838 1015 0
417 952 954 0
418 416 952 0
418 952 953 0
419 420 837 0
419 646 709 0
419 837 915 0
420 378 1015 0
420 419 648 0
421 316 825 0
421 420 648 0
421 648 896 0
422 423 916 0
422 734 837 0
422 837 838 0
423 417 954 0
423 422 838 0
424 414 464 0
425 412 839 0
425 839 841 0
426 427 840 0
426 779 927 0
426 840 928 0
427 426 430 0
427 428 841 0
427 430 428 0
427 839 852 0
428 404 841 0
428 430 844 0
428 433 404 0
429 430 927 0
429 435 844 0
430 426 927 0
430 429 844 0
431 432 435 0
431 435 438 0
431 438 956 0
431 440 933 0
432 428 844 0
432 431 933 0
433 428 432 0
433 432 933 0
434 440 842 0
434 691 843 0
434 696 976 0
435 429 437 0
435 432 844 0
435 437 438 0
436 450 848 0
437 429 776 0
437 774 993 0
438 436 848 0
438 993 436 0
439 282 842 0
439 440 956 0
440 431 956 0
440 439 842 0
440 843 933 0
441 442 450 0
441 449 784 0
441 784 785 0
441 785 903 0
442 441 903 0
442 848 450 0
443 445 845 0
443 774 775 0
443 845 957 0
444 304 451 0
444 448 845 0
445 303 846 0
445 443 775 0
446 436 957 0
446 450 436 0
446 957 958 0
447 194 544 0
447 769 847 0
448 447 847 0
448 451 849 0
448 847 958 0
448 849 447 0
449 441 450 0
449 446 847 0
449 847 784 0
450 446 449 0
451 448 444 0
451 452 849 0
452 194 849 0
452 451 193 0
453 853 457 0
453 1007 1006 0
454 455 852 0
454 462 857 0
454 851 1007 0
455 453 457 0
455 454 1007 0
455 457 928 0
455 840 852 0
456 457 853 0
456 519 925 0
457 456 779 0
457 779 928 0
458 459 855 0
458 520 527 0
459 453 1006 0
459 458 527 0
459 527 853 0
460 522 855 0
460 854 881 0
460 855 856 0
461 370 854 0
461 851 857 0
461 854 856 0
462 383 826 0
462 454 850 0
463 413 464 0
463 464 465 0
463 465 467 0
464 382 465 0
465 379 467 0
466 462 850 0
466 463 467 0
468 329 892 0
468 331 817 0
468 387 469 0
469 387 829 0
470 339 819 0
470 469 471 0
471 469 829 0
472 279 811 0
472 400 892 0
473 311 858 0
473 314 812 0
473 399 893 0
474 310 783 0
474 783 833 0
475 714 725 0
475 725 906 0
475 906 936 0
476 484 962 0
476 486 911 0
476 905 959 0
477 859 864 0
477 861 960 0
478 480 961 0
478 582 889 0
478 961 1011 0
479 480 862 0
479 862 960 0
479 959 1012 0
480 478 889 0
480 479 961 0
481 396 832 0
481 862 480 0
482 555 865 0
482 866 868 0
483 484 864 0
484 476 861 0
484 483 934 0
484 861 864 0
484 934 962 0
485 486 865 0
485 560 562 0
485 562 966 0
485 865 886 0
486 476 962 0
486 485 966 0
487 562 563 0
487 563 737 0
487 726 911 0
487 737 936 0
488 491 867 0
488 494 935 0
488 867 1008 0
489 311 931 0
489 326 870 0
489 870 1008 0
489 1008 1016 0
490 474 858 0
491 482 934 0
491 483 863 0
491 488 866 0
491 866 482 0
492 494 871 0
492 552 868 0
492 868 935 0
493 291 869 0
493 871 930 0
494 488 870 0
494 492 935 0
494 870 929 0
495 97 101 0
495 101 102 0
495 102 678 0
495 678 1019 0
496 385 497 0
496 666 665 0
497 89 90 0
497 92 93 0
497 93 94 0
497 94 668 0
497 668 496 0
498 499 501 0
498 501 505 0
498 505 528 0
498 781 782 0
499 498 782 0
500 166 1035 0
500 800 502 0
501 166 500 0
501 504 505 0
502 315 506 0
502 367 315 0
502 504 500 0
502 506 504 0
503 504 506 0
503 506 507 0
503 507 872 0
504 501 500 0
504 503 505 0
505 503 520 0
505 520 521 0
505 521 528 0
506 315 963 0
507 506 963 0
508 519 527 0
508 520 872 0
508 872 873 0
508 873 875 0
509 510 876 0
509 519 875 0
509 874 926 0
510 369 512 0
510 509 875 0
510 512 876 0
511 512 877 0
511 513 772 0
511 772 773 0
511 773 876 0
512 369 877 0
512 511 876 0
513 511 877 0
513 514 964 0
514 368 538 0
514 513 877 0
514 516 964 0
514 538 516 0
515 303 878 0
515 516 517 0
515 846 303 0
516 878 964 0
517 191 192 0
517 516 518 0
518 188 189 0
518 538 796 0
519 456 527 0
519 508 875 0
519 509 926 0
520 458 521 0
520 503 872 0
520 508 527 0
521 337 528 0
521 458 522 0
522 458 855 0
522 460 880 0
523 524 879 0
523 526 880 0
523 880 881 0
524 370 824 0
524 371 879 0
524 523 881 0
525 338 526 0
526 523 879 0
526 879 525 0
527 456 853 0
528 337 781 0
529 530 531 0
529 532 996 0
529 996 1004 0
530 70 71 0
530 72 76 0
530 76 1044 0
530 529 771 0
531 377 537 0
531 530 1044 0
531 532 529 0
531 537 532 0
532 534 567 0
532 537 994 0
532 567 996 0
533 535 716 0
533 565 995 0
533 717 736 0
534 532 994 0
534 533 995 0
534 535 533 0
534 536 535 0
535 536 740 0
535 740 716 0
536 534 994 0
537 623 748 0
538 366 796 0
538 368 177 0
538 518 516 0
539 214 701 0
539 977 213 0
540 541 542 0
540 542 694 0
540 694 904 0
541 319 999 0
541 320 542 0
541 540 613 0
542 283 694 0
543 355 544 0
544 355 357 0
545 352 548 0
545 354 546 0
545 991 351 0
546 324 991 0
546 353 349 0
546 354 353 0
547 602 755 0
547 755 983 0
548 965 983 0
549 574 883 0
549 760 763 0
549 763 922 0
549 1013 882 0
550 350 806 0
550 574 882 0
550 806 885 0
551 554 1017 0
551 574 885 0
552 492 869 0
552 554 555 0
552 884 1017 0
553 554 556 0
553 556 568 0
553 557 561 0
553 561 886 0
553 568 557 0
554 551 556 0
554 552 1017 0
554 886 555 0
555 868 552 0
556 551 885 0
556 806 568 0
556 885 806 0
557 559 560 0
557 560 561 0
557 967 559 0
558 559 566 0
559 558 560 0
559 569 566 0
560 485 561 0
560 558 563 0
561 485 886 0
562 487 911 0
562 560 563 0
562 911 966 0
563 558 564 0
563 564 737 0
564 558 565 0
564 736 737 0
565 558 566 0
565 567 995 0
565 736 564 0
566 768 567 0
567 534 995 0
567 565 566 0
567 768 996 0
568 570 967 0
568 805 570 0
569 559 967 0
569 767 768 0
570 572 571 0
571 572 997 0
571 767 570 0
572 350 351 0
572 570 805 0
572 575 997 0
573 63 65 0
573 65 1031 0
573 571 997 0
574 549 882 0
574 550 885 0
574 551 884 0
575 325 997 0
575 351 991 0
576 343 822 0
576 578 887 0
576 830 578 0
577 580 887 0
577 583 968 0
577 887 888 0
578 396 888 0
579 580 968 0
579 585 729 0
579 729 1020 0
580 343 887 0
580 577 968 0
580 579 581 0
581 579 732 0
581 732 821 0
582 478 910 0
582 577 888 0
582 583 577 0
583 582 910 0
583 585 968 0
584 585 909 0
584 723 727 0
584 727 728 0
584 728 982 0
585 579 968 0
585 583 909 0
585 584 982 0
586 587 593 0
586 593 603 0
587 11 594 0
587 586 588 0
587 588 891 0
588 586 592 0
588 924 890 0
589 10 891 0
590 589 891 0
590 890 969 0
591 592 601 0
591 602 764 0
591 764 988 0
591 984 602 0
592 586 601 0
592 988 924 0
593 333 596 0
593 587 594 0
593 596 603 0
595 601 603 0
595 603 970 0
596 333 804 0
596 597 970 0
597 596 599 0
597 599 998 0
597 751 600 0
598 348 595 0
598 600 752 0
598 970 597 0
599 334 604 0
599 596 804 0
599 604 998 0
600 598 597 0
600 756 752 0
601 348 984 0
601 586 603 0
602 923 764 0
603 596 970 0
604 334 1034 0
604 687 751 0
604 751 998 0
604 1034 1042 0
605 279 472 0
605 472 892 0
606 265 313 0
606 313 813 0
606 813 893 0
607 608 609 0
607 667 669 0
608 108 1024 0
608 607 1019 0
608 678 108 0
609 319 611 0
609 608 1024 0
609 611 612 0
609 667 607 0
610 612 615 0
610 615 619 0
610 619 620 0
610 620 666 0
610 666 669 0
610 667 612 0
611 614 615 0
612 611 615 0
613 319 541 0
613 614 319 0
613 980 614 0
614 611 319 0
616 659 660 0
616 660 617 0
616 670 973 0
616 671 670 0
616 973 981 0
618 660 661 0
618 661 663 0
619 615 617 0
619 618 620 0
620 618 663 0
620 663 1000 0
621 626 625 0
621 665 1000 0
622 623 749 0
622 625 653 0
622 749 665 0
623 537 789 0
624 649 650 0
624 650 651 0
624 651 653 0
625 622 621 0
625 747 624 0
626 621 664 0
626 630 628 0
627 628 971 0
627 635 636 0
627 747 628 0
627 971 1021 0
628 625 626 0
628 630 971 0
629 627 636 0
629 649 747 0
630 626 658 0
631 363 1001 0
631 635 1021 0
632 364 1001 0
632 704 951 0
633 634 743 0
633 655 898 0
634 631 1001 0
634 633 635 0
635 627 1021 0
635 631 634 0
635 633 636 0
636 633 638 0
636 638 641 0
637 640 894 0
638 633 898 0
638 640 641 0
640 637 643 0
640 638 894 0
640 643 895 0
641 629 636 0
641 639 649 0
641 649 629 0
641 895 639 0
642 643 914 0
642 710 711 0
642 711 895 0
643 637 645 0
643 642 895 0
643 645 914 0
644 645 646 0
644 646 915 0
644 730 733 0
644 733 914 0
645 637 899 0
645 644 914 0
646 419 915 0
646 645 899 0
647 648 709 0
647 657 917 0
648 419 709 0
648 647 896 0
649 624 747 0
650 639 738 0
650 649 639 0
651 536 748 0
651 650 739 0
651 739 536 0
651 748 653 0
652 712 713 0
652 713 738 0
653 623 622 0
653 625 624 0
654 894 898 0
655 384 897 0
655 633 743 0
655 743 746 0
656 637 894 0
656 654 657 0
656 657 709 0
656 899 637 0
657 647 709 0
657 654 897 0
658 626 664 0
658 664 661 0
659 616 981 0
659 658 661 0
659 981 1022 0
660 618 619 0
660 619 617 0
660 659 661 0
662 630 658 0
662 658 659 0
662 659 1022 0
662 972 630 0
662 1022 1025 0
663 661 664 0
663 664 1000 0
664 621 1000 0
665 621 622 0
665 666 1000 0
665 749 496 0
666 620 1000 0
667 609 612 0
667 610 669 0
668 96 495 0
668 669 496 0
668 1019 607 0
669 666 496 0
669 668 607 0
670 672 674 0
670 673 973 0
670 707 672 0
671 614 980 0
671 615 614 0
671 616 617 0
671 617 615 0
672 705 361 0
673 670 674 0
673 702 708 0
673 708 973 0
674 361 676 0
674 677 673 0
675 359 362 0
675 362 700 0
675 676 359 0
675 677 676 0
675 1002 677 0
676 361 358 0
677 674 676 0
678 105 108 0
678 608 1019 0
679 289 682 0
679 403 289 0
680 116 117 0
680 679 682 0
681 683 1010 0
681 975 974 0
681 1010 688 0
682 288 680 0
682 289 685 0
683 681 685 0
683 685 407 0
684 688 1009 0
684 690 283 0
685 408 407 0
685 681 682 0
686 306 811 0
687 37 38 0
687 47 757 0
687 604 1042 0
688 684 689 0
688 689 975 0
689 283 770 0
689 301 975 0
689 684 283 0
690 684 901 0
690 695 283 0
690 901 976 0
691 409 843 0
691 434 976 0
692 691 901 0
693 694 695 0
693 695 696 0
693 696 802 0
693 802 803 0
693 803 904 0
694 283 695 0
694 693 904 0
695 690 976 0
696 282 802 0
696 434 842 0
696 695 976 0
697 698 803 0
697 785 698 0
698 360 803 0
699 705 698 0
699 785 786 0
699 786 358 0
700 794 977 0
700 977 1002 0
701 365 704 0
701 704 978 0
702 673 677 0
702 677 1002 0
702 978 979 0
703 363 1025 0
704 365 951 0
704 632 703 0
704 703 979 0
705 672 706 0
705 699 361 0
706 672 707 0
707 670 671 0
707 980 1018 0
707 1018 706 0
708 702 979 0
708 979 1025 0
709 899 656 0
710 642 733 0
710 652 711 0
710 728 727 0
711 639 895 0
711 652 738 0
711 738 639 0
712 652 710 0
712 710 727 0
713 712 715 0
713 715 1003 0
713 739 738 0
714 475 717 0
714 715 724 0
714 724 725 0
715 714 716 0
715 716 1003 0
715 723 724 0
716 714 717 0
716 717 533 0
716 740 1003 0
717 475 736 0
718 720 907 0
719 726 936 0
719 906 907 0
719 907 908 0
720 721 937 0
721 718 722 0
721 720 718 0
721 722 909 0
721 909 910 0
721 910 937 0
722 584 909 0
722 718 724 0
723 584 722 0
723 715 712 0
723 722 724 0
724 718 725 0
725 718 907 0
726 487 936 0
726 719 905 0
727 723 712 0
728 710 733 0
729 585 982 0
729 730 913 0
729 731 1020 0
730 644 734 0
730 728 733 0
730 734 913 0
730 982 728 0
731 729 913 0
731 732 1020 0
732 579 1020 0
732 731 735 0
732 735 821 0
733 642 914 0
734 422 912 0
734 644 915 0
735 731 912 0
735 916 940 0
735 932 821 0
736 475 737 0
736 565 533 0
737 475 936 0
738 739 650 0
739 713 740 0
740 536 739 0
740 713 1003 0
741 316 896 0
742 281 305 0
742 305 746 0
742 743 745 0
743 634 745 0
743 742 746 0
744 215 281 0
744 281 742 0
744 364 951 0
744 742 745 0
746 305 827 0
746 384 655 0
747 625 628 0
747 627 629 0
748 623 653 0
748 994 537 0
749 623 789 0
750 999 1024 0
751 597 998 0
753 757 48 0
755 602 984 0
755 984 985 0
756 49 758 0
757 47 48 0
757 600 751 0
757 751 687 0
757 753 756 0
757 756 600 0
758 353 752 0
758 752 756 0
759 760 918 0
759 764 923 0
760 549 883 0
760 759 763 0
761 292 938 0
761 762 918 0
761 918 919 0
761 920 292 0
762 761 938 0
763 759 923 0
764 759 989 0
764 765 988 0
765 764 989 0
765 924 988 0
766 69 771 0
766 571 573 0
766 573 1031 0
766 767 571 0
766 771 1004 0
767 766 1004 0
767 967 570 0
768 566 569 0
768 767 1004 0
769 357 786 0
769 447 544 0
770 284 689 0
770 542 320 0
771 70 530 0
771 529 1004 0
772 303 775 0
772 513 878 0
772 775 990 0
773 302 874 0
773 772 990 0
773 874 876 0
774 437 776 0
774 443 993 0
775 774 990 0
776 429 778 0
777 778 927 0
777 779 925 0
777 925 926 0
778 429 927 0
778 874 302 0
779 426 928 0
779 456 925 0
779 777 927 0
780 173 174 0
780 800 173 0
781 338 787 0
781 498 528 0
782 164 499 0
782 781 787 0
782 787 1043 0
783 310 831 0
783 394 833 0
784 769 786 0
785 697 903 0
785 699 698 0
786 357 992 0
786 785 784 0
787 151 272 0
787 272 1026 0
787 1026 1043 0
788 399 833 0
788 606 893 0
789 88 385 0
789 537 377 0
790 370 826 0
790 373 824 0
791 378 825 0
792 138 322 0
792 375 138 0
792 380 375 0
793 368 514 0
794 201 1039 0
794 700 362 0
798 800 799 0
799 171 172 0
799 172 798 0
799 500 1035 0
799 800 500 0
800 780 502 0
800 798 797 0
801 138 375 0
802 697 803 0
802 903 697 0
803 360 904 0
804 14 300 0
804 333 13 0
805 568 806 0
808 259 834 0
810 259 260 0
810 260 811 0
810 401 834 0
810 811 279 0
811 943 686 0
812 6 328 0
812 328 931 0
813 3 4 0
813 314 893 0
814 306 261 0
815 292 930 0
816 489 931 0
817 332 329 0
818 336 921 0
818 921 938 0
819 235 236 0
820 342 932 0
820 932 940 0
820 940 954 0
822 340 345 0
823 525 879 0
825 225 226 0
826 857 462 0
827 219 220 0
827 307 828 0
828 741 917 0
830 576 297 0
831 310 859 0
831 859 860 0
832 783 831 0
834 259 810 0
834 809 808 0
835 402 947 0
836 410 1014 0
836 433 955 0
837 420 838 0
837 734 915 0
838 420 1015 0
839 412 850 0
839 427 841 0
839 850 852 0
840 427 852 0
840 455 928 0
843 409 955 0
843 440 434 0
845 448 958 0
845 846 444 0
846 515 304 0
846 845 445 0
847 446 958 0
847 769 784 0
848 442 439 0
848 956 438 0
850 454 852 0
851 454 857 0
851 856 1006 0
851 1006 1007 0
853 453 459 0
854 460 856 0
854 524 881 0
855 459 856 0
856 459 1006 0
856 851 461 0
857 826 461 0
858 399 473 0
858 1016 490 0
859 310 863 0
859 477 860 0
859 863 864 0
860 477 862 0
860 481 832 0
860 832 831 0
861 476 959 0
861 477 864 0
861 959 960 0
862 477 960 0
862 481 860 0
863 483 864 0
863 867 491 0
865 486 934 0
865 555 886 0
866 488 935 0
867 490 1016 0
867 863 490 0
868 555 482 0
868 866 935 0
869 871 493 0
869 884 552 0
870 326 929 0
870 488 1008 0
871 494 929 0
871 869 492 0
871 929 930 0
872 507 873 0
873 369 510 0
873 510 875 0
874 509 876 0
874 777 926 0
874 778 777 0
877 793 514 0
877 963 793 0
878 513 964 0
878 516 515 0
880 337 522 0
880 460 881 0
883 574 884 0
883 919 760 0
884 551 1017 0
884 869 291 0
886 554 553 0
887 578 888 0
888 889 582 0
889 888 396 0
890 891 588 0
890 924 939 0
890 939 969 0
891 890 590 0
894 638 898 0
894 654 656 0
895 641 640 0
896 917 741 0
897 898 655 0
897 917 657 0
898 897 654 0
899 709 646 0
900 692 901 0
900 901 1009 0
900 902 692 0
900 1009 1010 0
901 684 1009 0
901 691 976 0
902 900 407 0
903 802 282 0
904 360 706 0
904 613 540 0
904 1018 613 0
905 719 908 0
905 908 1012 0
905 911 726 0
906 719 936 0
906 725 907 0
907 720 908 0
908 937 1011 0
908 1011 1012 0
909 583 910 0
910 478 937 0
911 486 966 0
911 905 476 0
912 913 734 0
912 916 735 0
913 912 731 0
916 423 940 0
916 912 422 0
917 896 647 0
917 897 384 0
918 760 919 0
918 762 986 0
918 989 759 0
919 883 291 0
919 920 761 0
920 493 930 0
920 919 291 0
921 336 948 0
921 762 938 0
922 547 965 0
922 923 547 0
922 965 1013 0
923 602 547 0
923 922 763 0
924 588 592 0
924 987 939 0
925 519 926 0
929 815 930 0
932 735 940 0
933 955 433 0
934 482 865 0
934 483 491 0
934 486 962 0
937 478 1011 0
937 908 720 0
939 948 969 0
940 423 954 0
941 333 594 0
941 594 11 0
943 811 260 0
944 188 796 0
944 796 186 0
945 162 163 0
945 164 782 0
945 782 1043 0
946 68 69 0
946 766 1031 0
948 336 969 0
948 939 335 0
949 232 346 0
950 342 341 0
950 347 1005 0
952 286 954 0
952 417 953 0
953 228 418 0
953 417 1015 0
955 933 843 0
956 848 439 0
957 845 958 0
957 993 443 0
959 479 960 0
959 905 1012 0
961 479 1012 0
963 877 369 0
965 547 983 0
965 548 1013 0
967 557 568 0
967 767 569 0
969 9 590 0
970 598 595 0
971 630 972 0
971 972 1021 0
972 631 1021 0
972 662 363 0
973 708 981 0
974 111 112 0
975 681 688 0
977 539 701 0
977 701 978 0
977 794 1039 0
977 978 1002 0
978 702 1002 0
978 704 979 0
979 703 1025 0
980 613 1018 0
980 707 671 0
981 708 1022 0
982 730 729 0
983 755 1023 0
984 348 985 0
984 591 601 0
985 1023 755 0
986 335 987 0
987 924 765 0
987 989 986 0
988 592 591 0
989 918 986 0
989 987 765 0
990 302 773 0
991 545 546 0
992 356 359 0
993 438 437 0
993 957 436 0
994 748 536 0
996 768 1004 0
997 61 573 0
999 320 541 0
999 609 1024 0
1002 675 700 0
1007 453 455 0
1008 867 1016 0
1009 688 1010 0
1010 407 900 0
1011 961 1012 0
1013 352 882 0
1013 549 922 0
1016 858 311 0
1018 904 706 0
1019 668 495 0
1022 708 1025 0
1023 353 354 0
1023 985 754 0
1024 109 750 0
1026 153 1043 0
1029 203 1038 0
1029 212 1039 0
1029 1030 212 0
1030 1029 211 0
1032 36 1034 0
1034 36 1042 0
1041 945 1043 0

End
