MeshVersionFormatted 1

Dimension
2

Vertices
1353
0.0 0.0 1
1.0 0.0 1
1.0 1.0 1
0.0 1.0 1
1.0 0.5 1
0.5 1.0 1
0.0 0.5 1
0.0 0.75 1
0.25 1.0 1
0.7356836177592062 0.7331185541243489 0
0.5356312571712094 0.5016850655661399 0
0.6663166597407624 0.4628749405213682 0
0.8307856611039536 0.5443460338634067 0
1.0 0.25 1
1.0 0.375 1
0.7040555182215904 0.5457046023451613 0
0.51212245919045 0.26425093637386343 0
0.75 0.0 1
0.625 0.0 1
0.25 0.0 1
0.75 1.0 1
0.48780975683839356 0.7646886933653542 0
0.375 1.0 1
0.2891644116900542 0.6305037232442177 0
0.10642127649628186 0.8880552071689185 0
0.125 1.0 1
0.0 0.25 1
0.18406718457521523 0.2744868483900923 0
0.30776502887795915 0.29057909820449734 0
0.08999146479484342 0.4026066283828782 0
0.0 0.625 1
0.09328285330898486 0.2922026973501585 0
0.125 0.0 1
0.10413382869332813 0.16735158710577488 0
0.0 0.125 1
0.5667654830334591 0.07271478907237282 0
0.8691903223935402 0.15655580236671873 0
0.8619256599879014 0.24704636932978516 0
1.0 0.125 1
0.875 0.0 1
1.0 0.625 1
0.9052325436505521 0.5838521869184274 0
0.8364776686588946 0.8490769287955033 0
0.8913295754462134 0.7766073893832448 0
1.0 0.875 1
0.7066338131650644 0.9170716605721805 0
0.5980097064099728 0.909829977446907 0
0.875 1.0 1
0.5992035288752746 0.47708898393456795 0
0.7220875455656585 0.46857524754724517 0
1.0 0.43537912291931197 1
1.0 0.30952314353680727 1
0.9469940168396667 0.37940467192784577 0
0.8420605608900128 0.42674098253169984 0
0.5414857244251258 0.43666633956715145 0
0.5432023109417579 0.3157616896411069 0
0.5996072142562661 0.34533953108145204 0
0.6029631297956498 0.2768281557635101 0
0.6924524745127513 0.0 1
0.5688232171660983 0.0 1
0.6595683723524142 0.0647498740570997 0
0.4174737248077209 0.38809340127158126 0
0.4097826398442628 0.3423463041544849 0
0.3778506708877462 0.4145193974680394 0
0.4062805170156135 0.4526475477313537 0
0.5273280305314259 0.6538478707793591 0
0.5619258557528137 1.0 1
0.3128964240269088 1.0 1
0.4380741442471863 1.0 1
0.49501382370146835 0.8621610283147074 0
0.42536426525590737 0.9409118633231477 0
0.4056832768306514 0.8068712717191637 0
0.2432398838926991 0.6188509980983516 0
0.3428990383783383 0.608608634781252 0
0.05802745939898342 1.0 1
0.18912161472877745 1.0 1
0.244602485449256 0.9299752314665869 0
0.2516191086802333 0.8931008906318738 0
0.16428881641020301 0.8966357926705012 0
0.33328666955478997 0.3218991672544251 0
0.25663648432314584 0.26909335690583 0
0.2536018331312952 0.4455379281206248 0
0.21123160726118143 0.33637734780438233 0
0.2638524734293769 0.31697223310318035 0
0.18453323204086758 0.38729987637702673 0
0.0 0.309826547890243 1
0.0 0.447299597653368 1
0.10184910524671434 0.463510936266142 0
0.03151592584948944 0.5129290057763206 0
0.038235798834010626 0.6466372471826181 0
0.14122146119912143 0.288532208212329 0
0.18769116342255782 0.0 1
0.052982798337561386 0.0 1
0.056682207400755934 0.2169582970378261 0
0.13574961129388072 0.22346925542556056 0
0.0 0.05576570316334456 1
0.0 0.18467067309134272 1
0.23154640370713173 0.2097946994185686 0
0.1396644702974267 0.134367489081916 0
0.21760324672609452 0.13112771237844412 0
0.42923978862492607 0.0 1
0.31801928685008285 0.0 1
0.29707336212096114 0.12293186325927637 0
0.36564486144560443 0.025468298707990077 0
0.6120910098377474 0.028586671331498646 0
0.5306831963296633 0.03698973089756961 0
0.8309150894082802 0.29421080811637373 0
0.9757117596244262 0.4927950095485958 0
0.9003767170674203 0.44117357630091525 0
1.0 0.182569063326372 1
0.9428573867094294 0.0 1
0.8124662806422563 0.0 1
0.13617473060539348 0.74220174882089 0
0.10554780558333939 0.822830318050093 0
1.0 0.6872552822631974 1
1.0 0.5650170462783299 1
0.7710800270367103 0.6944491726177174 0
0.7889889275986137 0.946367833785057 0
0.8545612917677563 0.8247398455316226 0
1.0 0.9395727577404045 1
1.0 0.8166277209169843 1
0.7093467675930468 0.8026621166163309 0
0.7341996274248047 0.9751332727653278 0
0.639420796817258 0.8995339959964148 0
0.8103507306753324 1.0 1
0.9706702937890364 0.8974510200863237 0
0.8842443040628546 0.9543807582183901 0
0.8613757989085888 0.8837074010671471 0
0.0 0.811770229246461 1
0.0 0.9399842676051562 1
0.03137228406846119 0.8839439236330154 0
0.6587914758252083 0.6917579058191844 0
0.7090737904494491 0.6889290593419545 0
0.5620433420237027 0.5212502425567608 0
0.6363714227631462 0.47962095142505795 0
0.5657415341845463 0.48854368117758973 0
0.5870678963515968 0.5068523823226406 0
0.6931240131710886 0.4485930456472241 0
0.8002757556779259 0.36199438084130414 0
0.7221228313873713 0.4326824969784193 0
0.8015221097263747 0.5113304603219169 0
1.0 0.4671225871644413 1
1.0 0.40469457088000793 1
1.0 0.34144432725883705 1
1.0 0.27908616757944654 1
0.9284062549711266 0.39087770125320087 0
0.7041703896908713 0.49687007376734643 0
0.5542777205582111 0.4070694851983032 0
0.5401650902469902 0.46989899983337313 0
0.5701821493470205 0.4567213798923694 0
0.601853457630541 0.4391085179364457 0
0.6246205499481075 0.4080920167795741 0
0.6392255720745605 0.44226245726625396 0
0.5294150570257908 0.28579270743931545 0
0.5645846309687418 0.3475500736516844 0
0.5847500202127709 0.3697856498495747 0
0.5815700731905618 0.3140123440641866 0
0.5399664517321151 0.25772545978544725 0
0.5614105044962259 0.2839451433651813 0
0.6430673028873882 0.2873676418280066 0
0.6601704918710684 0.0 1
0.5981922247773627 0.0 1
0.5363330380246524 0.0 1
0.6438496207272744 0.030215162865004176 0
0.613637928467036 0.07732164981801673 0
0.6814013413806436 0.09181637189991965 0
0.6803423068685179 0.03391047538247517 0
0.7001767383918082 0.06730407290462294 0
0.7229586028778875 0.035816912441030004 0
0.7102145200552138 0.09946808057556149 0
0.4905765166118102 0.44087937172920494 0
0.5124339879068248 0.482394235705857 0
0.5152432857478876 0.45506294233195993 0
0.5254534604426491 0.41166170759744103 0
0.49907298543248324 0.4140403681186066 0
0.5618685830483493 0.3794972627699759 0
0.4536454969113194 0.4269838694198825 0
0.4863330090238284 0.3010743120116662 0
0.4313399162125385 0.3328044587403001 0
0.39089017032168233 0.3581299773488942 0
0.4134166123559182 0.3662039962119132 0
0.4749492241966872 0.4193390058649777 0
0.4571131802750352 0.40429407053395966 0
0.40536566022448556 0.22924798225318202 0
0.42659995248493493 0.5368606477911377 0
0.3644144937740517 0.3923255425131243 0
0.35839781657257114 0.43413640496959616 0
0.39912876967383915 0.40278640169543467 0
0.38335631041677365 0.44185189781378614 0
0.45083573431443374 0.44922956754068316 0
0.38432550155517503 0.4683881427279744 0
0.5284941301609849 0.5359669524907519 0
0.5514530534668657 0.5850305159863798 0
0.5584444595754103 0.5535185514408119 0
0.629652556458347 0.6146448730995354 0
0.7089939374117283 0.731802763727434 0
0.6617317942288634 0.6189324265664112 0
0.6515665941889209 0.6627183930596677 0
0.5717998983587409 0.8820913016731537 0
0.5323402756392627 0.9459532184142233 0
0.5634537101641275 0.917411247579201 0
0.7138671753267808 1.0 1
0.5599158031090496 0.6703679348205257 0
0.5356017073133422 0.6946737093130105 0
0.4730182114817147 0.7174711617174908 0
0.5210317626361807 0.7939780674699084 0
0.5484430950070099 0.8185597029544652 0
0.5431841204650538 0.8543044983749265 0
0.5189928248076833 0.8275882008158361 0
0.40726001206727946 0.896836733381838 0
0.44345356482222975 0.8397747175857747 0
0.28987285065099755 0.9252280511981752 0
0.2717065440435604 0.9638604894442679 0
0.36084939098526303 0.812106722077694 0
0.39347886858749553 0.856245247878316 0
0.29443004122240346 0.8062503456047037 0
0.24836561514461786 0.7398359843909752 0
0.26339060569893863 0.6382253826422694 0
0.31616853775159337 0.622070016650408 0
0.03448904325189109 0.9662320395012078 0
0.09022827335576261 1.0 1
0.15748759161311401 1.0 1
0.1094249382243799 0.9621565482687915 0
0.06859443140200251 0.9625876224922087 0
0.22277380205695804 0.9664717006936372 0
0.296516591418978 0.8801940452334149 0
0.13674821822941052 0.884262815202535 0
0.13058219989614236 0.9216280443827214 0
0.1940598128631793 0.9052961096933557 0
0.35445233473007465 0.3384391310007115 0
0.3783361241798952 0.33961065282535746 0
0.3136883969641237 0.2743699474980905 0
0.23657073528581735 0.26194693348202397 0
0.2743742064097617 0.27987294678554475 0
0.24997025099338954 0.47616907898697586 0
0.22691227362766922 0.3534660551800321 0
0.24685323799843126 0.30479249253543644 0
0.24836170848867573 0.3269810389837302 0
0.3018361327387529 0.3061725045621007 0
0.24824980185713239 0.3470883695538226 0
0.3074139026257316 0.32671725239956484 0
0.05673885462945075 0.4595496838291546 0
0.028505564691721927 0.4751447542078072 0
0.21773925098735658 0.39200881533391674 0
0.0 0.2793005785502044 1
0.0 0.3416861861790656 1
0.020434645048863737 0.29301853795859845 0
0.0 0.41444626981853033 1
0.06008962668394419 0.39930655119922775 0
0.058222985948512246 0.49255596493439585 0
0.13373706315930142 0.5268205781538259 0
0.1591582144507064 0.5234529107072872 0
0.03831962045684995 0.6904029700878709 0
0.11407960589910697 0.5459113750279676 0
0.0 0.5924145798504498 1
0.0 0.6589689604576984 1
0.06904459859299056 0.275467366577782 0
0.15720257345656916 0.2999947568077849 0
0.12364001311297663 0.29581991467502 0
0.12143679950173263 0.31514913457888083 0
0.05697956651527621 0.3666714899940008 0
0.15639366547386876 0.0 1
0.08581581950564 0.0 1
0.09774276477783818 0.18864003413948063 0
0.03179775383860863 0.23649464449280966 0
0.13339726058923093 0.05669791644464795 0
0.11548163724432371 0.10831931855923783 0
0.1297536578466143 0.09384498669027483 0
0.17267265762481884 0.2601762492104261 0
0.11628557013763634 0.18732388193523974 0
0.10631763964757335 0.20396550326195528 0
0.0 0.08831135215093992 1
0.033073435592560055 0.03396718934894946 0
0.0 0.1541902555919076 1
0.0 0.21656213045185754 1
0.03020378316879517 0.20311544998691425 0
0.05739756037406709 0.18974287816977833 0
0.028901352126601998 0.13636198479945694 0
0.08088925888065487 0.17934829167221306 0
0.09727724226577977 0.10218524844035463 0
0.3095570138262218 0.20858190399424098 0
0.27693117114406535 0.17452036357173192 0
0.2402814351139949 0.1184662998992434 0
0.2655789416805132 0.032888551524001094 0
0.2050150268303591 0.06475406426368055 0
0.24931079989609464 0.16806602139416718 0
0.18253916916230076 0.21228847790623584 0
0.14114955822495195 0.02727630737472013 0
0.12262240590006605 0.14961193475194043 0
0.19644057690819544 0.11034352177999568 0
0.17680865910704197 0.12731098651144102 0
0.4869510188775677 0.08793322367964443 0
0.5178782215020897 0.23855122207623022 0
0.507081661540618 0.18186513987971537 0
0.38089027140064924 0.1252445940039187 0
0.46196236185589834 0.0 1
0.4696222102345809 0.03440344755184938 0
0.3476588966851184 0.0 1
0.2856469273891217 0.0 1
0.32440252082097915 0.14440594869918683 0
0.2722400337776147 0.14693968976912564 0
0.3351792846745715 0.02955878565600458 0
0.5463881260608076 0.22404184468173918 0
0.5715371965952297 0.25005590766280655 0
0.5151077373530053 0.21030240703320585 0
0.5809406942174562 0.029631548209943872 0
0.5332024814171998 0.06040713147610039 0
0.5573446288405647 0.16523623054511052 0
0.5587600487298934 0.11060327228808575 0
0.5410970607402289 0.14455229578248355 0
0.35607556056448686 0.4826814531045797 0
0.3195897279692067 0.5454637288026045 0
0.376124530174399 0.5650755071767832 0
0.34070713407691194 0.5748372980727251 0
0.7716852579917798 0.04087728904571796 0
0.9278092771865656 0.17737012313183786 0
0.860754754687359 0.18029656058932747 0
0.8434041953313772 0.16434323932752984 0
0.8361859226291246 0.22736067394464615 0
0.9051290896797938 0.4614194710227463 0
0.9178361904549729 0.4085274325380155 0
0.402959080785173 0.725209865022579 0
0.4845045756601564 0.6480138724329281 0
0.4555498317413143 0.678383926169342 0
1.0 0.21484749415985227 1
0.9661831480194506 0.19440032255739217 0
0.954099718981991 0.11199076614884983 0
0.9323803561387368 0.14300699475659379 0
0.8507175455473882 0.04152960489291558 0
0.8984920555502804 0.05182623115763975 0
0.03397937867080247 0.7339228378242428 0
0.11836848208666167 0.7897416076531364 0
0.12725735634854704 0.853233120914354 0
0.0861259139849542 0.8546538430627987 0
0.9715501371021162 0.7446464723412066 0
0.8387811384240107 0.7068541381733855 0
1.0 0.7185659814295805 1
1.0 0.6560669396203601 1
1.0 0.5955883625214465 1
1.0 0.5331897582454572 1
0.8883631558689133 0.5639702396877957 0
0.918954095343721 0.6245913152532183 0
0.8975598814291874 0.6289786860264404 0
0.7778448334296375 0.6491869281036867 0
0.7508980477304166 0.7073642177351479 0
0.7919555906819675 0.6964678762890689 0
0.7190349172596092 0.5711652585598936 0
0.8283235327573186 0.5874176486398482 0
0.8106882687209847 0.8959512486838549 0
0.9397111132038468 0.7899286689250545 0
1.0 0.9702709038051089 1
1.0 0.9078396575914398 1
0.9796269360076598 0.9251586710908062 0
1.0 0.8467150126834767 1
1.0 0.7844878195753299 1
0.7363459944263862 0.8008513171445624 0
0.7443921305768605 0.775889524066937 0
0.7642532610905798 0.9672175303523242 0
0.7373375352038823 0.9417415338032202 0
0.5774619338980749 0.8429136138628586 0
0.6806893488632686 0.8876010525663176 0
0.6298564447991633 0.9444189226523878 0
0.7796742159252739 1.0 1
0.8421002916313337 1.0 1
0.7981824536258539 0.9711888582776783 0
0.9109639833933949 1.0 1
0.9729076060396274 1.0 1
0.8888764743688147 0.9796070050493408 0
0.9412476638906592 0.9765182814462944 0
0.9078063799825403 0.9343520171852352 0
0.8665950945296923 0.8563329609198784 0
0.902506623951669 0.8921244014219607 0
0.03499083603682615 0.774799275797059 0
0.04109757337339289 0.924593434603987 0
0.06638084053406042 0.8880406983063273 0
0.050490208780927755 0.8519926039079982 0
0.4510618198074516 0.5509375882282841 0
0.4314963287918443 0.5699187772722626 0
0.49899081757257047 0.535034752662633 0
0.503191264666111 0.5622895670497495 0
0.6700438382499208 0.6449001459015538 0
0.6766167916484765 0.6684786109082643 0
0.6351688831406093 0.7120748827733769 0
0.6985383287692806 0.7096695097352955 0
0.6973020894933724 0.67350140154219 0
0.7234710198099418 0.7096306364300232 0
0.7336315297671204 0.68587109744941 0
0.7433255762768193 0.6622670170925681 0
0.5830926955516521 0.5765930899256683 0
0.6212083041388284 0.5730316657014558 0
0.6555348724230465 0.5892237492579272 0
0.6701982067014838 0.49636919779736144 0
0.6156883799098466 0.5078756167471034 0
0.7186027239758431 0.39866799414910925 0
0.7679509874423354 0.3489424009831487 0
0.7866645176479004 0.41280583589171677 0
0.7772267441874775 0.3841216734029512 0
0.8091941302922399 0.5379031048630095 0
0.7792857604927845 0.4557081815408423 0
0.8513139353362852 0.3536928145789588 0
0.8070352004058129 0.3910689501100626 0
0.9710981085044692 0.36176921201678425 0
0.935191214107215 0.33377472781605266 0
0.9084138627312227 0.38918454156958865 0
0.9719814537458118 0.3957084518531446 0
0.8836667530375482 0.4771400922920311 0
0.8827017386646954 0.4535766714642624 0
0.8145836099565803 0.4183168035048204 0
0.7731694030997266 0.4334042151417329 0
0.8595176423123411 0.40569845272702465 0
0.8834585589802222 0.3894264853993262 0
0.8560160195875789 0.3810933246717421 0
0.7508977973385369 0.44702831269081456 0
0.6794027066423316 0.5449801953645903 0
0.6894219625203544 0.5220270349493397 0
0.6798657015688071 0.5998842698817123 0
0.7817938594302871 0.5299325105591683 0
0.7950309556035381 0.48247944917536606 0
0.571025146728125 0.42849711091370907 0
0.6918575330610167 0.4184766992979339 0
0.6705598927438418 0.4367027560769284 0
0.5057490615923264 0.2868702110027071 0
0.7488276750116425 0.32032659999626456 0
0.7202909671809604 0.32092209603779415 0
0.6843834440697197 0.38216795222624766 0
0.6597248241178324 0.41127566404579113 0
0.6597693416211179 0.32061831415222514 0
0.5187024191311654 0.0 1
0.5289838047205253 0.01672541619453993 0
0.5493493319332321 0.023080468762096986 0
0.6655365979398274 0.1724956173435478 0
0.6335109760132673 0.15442442352302602 0
0.6321841382405758 0.18576984706716154 0
0.6069567491741418 0.16779529412653843 0
0.6737957222829554 0.266329512680951 0
0.628413365108475 0.056676665665070576 0
0.6000154163834308 0.054024067819826396 0
0.6338686601645815 0.07866328878939585 0
0.6843323665247485 0.11618381583832928 0
0.7106704439834535 0.12650493034430946 0
0.48721475258895297 0.4930372184023003 0
0.4805040349235307 0.51853005770212 0
0.5071215925531978 0.511443370050833 0
0.5361844486719017 0.38626631525301275 0
0.5432788193866668 0.3654672241040309 0
0.47407650123765327 0.3248760753062102 0
0.43051291421042254 0.35354858450332105 0
0.4810665298988146 0.391808117087148 0
0.5100343885191275 0.3898025001348558 0
0.45137205757042775 0.32703243110106917 0
0.4920579404766509 0.2478682290653892 0
0.47381179605016116 0.2280425002876551 0
0.46437640912001893 0.25649598727599554 0
0.4871080303821907 0.274173019525179 0
0.3638880293837624 0.5121941699474977 0
0.35329655698487 0.5396948324118795 0
0.4555609295407048 0.5270826387862168 0
0.40284564027524034 0.42560334163434344 0
0.46821295325648893 0.43844403385360076 0
0.5666028475537453 0.6419073065865436 0
0.5946794347560647 0.6677210317001893 0
0.600888644716211 0.6015352040770622 0
0.6483282595587754 0.6381006763987411 0
0.6279251692555329 0.6808734791896535 0
0.5342119819993244 0.8944584849393156 0
0.4743643130909148 0.951215100633463 0
0.49940367644926154 0.9099634667303887 0
0.5852711881934767 0.9537100365635641 0
0.4417971285248043 0.7460797431430486 0
0.5547054960102491 0.7846869879504021 0
0.45312784799365513 0.8980560001978727 0
0.3752721869310126 0.7548006858680079 0
0.40926264853322897 0.767962766583286 0
0.4464162451989905 0.7888249899129941 0
0.3490881322467983 0.9561328732451599 0
0.3823366855610074 0.7837559570006581 0
0.34052235121953983 0.8594563888949227 0
0.29863574381763436 0.8406527389756554 0
0.3706525751200586 0.8884716445331091 0
0.34187110048266883 0.7512795141003852 0
0.35847835184122323 0.7778613019170213 0
0.27523223564607563 0.752376264905161 0
0.23463302149196205 0.6497917418826609 0
0.2116464517154975 0.6989549342359987 0
0.24269535900483385 0.710910298189516 0
0.41438429352554945 0.6304368029523967 0
0.36281428244700376 0.6627754683324115 0
0.33991988546887847 0.6393590036348482 0
0.3100051757350153 0.6529818097113163 0
0.2831507925544645 0.653489457756316 0
0.3234393893514487 0.7199159545019174 0
0.20624810397017812 0.9349092612740697 0
0.18231110060196767 0.9657253606874422 0
0.2651602380462143 0.8527062452155777 0
0.271209514511453 0.8229829919331858 0
0.17061633923986175 0.9317797106753867 0
0.22412267800407232 0.9093401243969177 0
0.3327301597190572 0.3754358652313091 0
0.34013281792303024 0.3017286206822757 0
0.32615375767059956 0.28645760742635606 0
0.2955287194691763 0.2748954295445262 0
0.27834201465918235 0.4945006195825781 0
0.32460353586516993 0.47838381106144845 0
0.27752454733068704 0.4626213705170248 0
0.2003144306061489 0.29080820512832534 0
0.2067452162314378 0.31309971666214065 0
0.21942740890393753 0.27581584446448676 0
0.22346441627408795 0.2982110129266955 0
0.24020701690431975 0.2830091119197004 0
0.2281292654028737 0.3193000848877608 0
0.2890158084770574 0.2941697047934271 0
0.31949072332432293 0.3051048153132664 0
0.2841345781451273 0.3166130625614494 0
0.07831005205570521 0.4200851183188491 0
0.05623243102850012 0.42925541835817094 0
0.24375767371818338 0.3689637446889179 0
0.22246360244807223 0.3741788655753723 0
0.18390900784972528 0.36636635303934106 0
0.20739441021067523 0.3595892088828784 0
0.19295913779812568 0.3470446663645859 0
0.10114448314839974 0.3655002765019291 0
0.14618114253646936 0.3977573497331544 0
0.11730332341771964 0.4054101983441548 0
0.2367970723125633 0.39057786240025777 0
0.23269460989925214 0.4308177458834763 0
0.20232185637237005 0.3800889050877859 0
0.025398144722847803 0.2677529610826983 0
0.04768668680141265 0.28887792111446736 0
0.0 0.3957063247927823 1
0.1389995348786987 0.44196114956733656 0
0.11152803763204186 0.4453778056457131 0
0.09979958069783378 0.424962405205799 0
0.08358081967780714 0.4455723689072644 0
0.10717138158951567 0.4875460259815532 0
0.09092365700366642 0.530978811672225 0
0.08562562145347964 0.5043286618288628 0
0.1367845040141116 0.4975754203543312 0
0.21203510899150696 0.622305452797493 0
0.19379285992905546 0.6711626533563702 0
0.1755458465221425 0.5444388431032071 0
0.1883750111512081 0.5210434425737164 0
0.17809035320965544 0.5719997022445485 0
0.07914632130702143 0.5635236771107813 0
0.14690911726073924 0.5549434622321567 0
0.16802619687598597 0.6695838232420347 0
0.17996470252542543 0.6416545811564863 0
0.1804623358717364 0.6057237262712981 0
0.07104620041439784 0.6338208588913073 0
0.07268957866800849 0.6674234054650304 0
0.10598323070868332 0.7550626613882891 0
0.12259636303985137 0.7171423304676329 0
0.036581114790404524 0.5546815907275805 0
0.06388584816353972 0.5264250889446367 0
0.07435623402481978 0.2922849065197997 0
0.17691008269089953 0.29375844872351825 0
0.13905931305121955 0.26885911862448814 0
0.10279317480132684 0.32218127729648416 0
0.13924457603643042 0.3077611755477544 0
0.10650314879134291 0.30218430132634555 0
0.0815087917542012 0.37865975244207023 0
0.07880507973918832 0.3535020507852998 0
0.15598023951358475 0.046029252822494565 0
0.17138756010602366 0.026166832782301357 0
0.15764420300180812 0.06966708889760109 0
0.05150751482098063 0.2604074256491639 0
0.10741240542409153 0.03330250331968567 0
0.10617719013667379 0.0658330757441796 0
0.13999119601730314 0.07807919846865376 0
0.12361878616247357 0.07644077431818064 0
0.135610415980525 0.1130011999117093 0
0.1608845735539307 0.27715678930631543 0
0.15117361985091934 0.23650514661521085 0
0.13562513919714214 0.18802756837934106 0
0.08206236132591783 0.2046657075368877 0
0.12612896821569677 0.20362956006207383 0
0.035059434979226686 0.07101047832794853 0
0.06697871290576468 0.02999595535904536 0
0.033663112439355006 0.16908032182218857 0
0.09982437793960615 0.1431654240615591 0
0.1099698591820175 0.08777353185038193 0
0.053359878479916564 0.11861186227198445 0
0.3166020475886137 0.23017465743086304 0
0.3337183916061232 0.2430169141286386 0
0.26293110571832884 0.12020121649800043 0
0.2772382059167705 0.09351893985311047 0
0.30909382170651084 0.08926068224574753 0
0.25605425425627015 0.07035769406381061 0
0.18152780864269158 0.08427475607097351 0
0.17906562459739683 0.05351796712844205 0
0.23174610283600536 0.05070326158269859 0
0.22151366234944425 0.2296280622767255 0
0.19057899988896926 0.254557475943162 0
0.2145053102647437 0.25248459365760095 0
0.24372688836142437 0.22769324592108978 0
0.23359260035488372 0.24411264255943432 0
0.15825061568613177 0.2187433565436973 0
0.17318125218092395 0.23876413252517967 0
0.20816898368041203 0.21244905997154334 0
0.21912703811027381 0.19281606118749228 0
0.1532110445008796 0.09518000610210703 0
0.17257369503960843 0.10736175469874114 0
0.1567552610058468 0.1198543574948606 0
0.19515221086079654 0.13327866272282668 0
0.4960798490012654 0.06477846641606848 0
0.5484834192032985 0.0707169414799127 0
0.5132648985896268 0.05003617694608872 0
0.5106483837239238 0.02291293787623197 0
0.5020199954350952 0.15346047992196882 0
0.4972484889193591 0.22571197287359707 0
0.3996046263433947 0.17338452682182207 0
0.3967396368769092 0.20540440097402027 0
0.4245752757309498 0.21742341887922598 0
0.4256662982224054 0.1596916750826599 0
0.4462722957940478 0.23407188175195562 0
0.48070507615135016 0.11217148590015769 0
0.3592766859344784 0.10634896579896784 0
0.3526892736940765 0.1355475616042598 0
0.3759946606699102 0.1550251580423299 0
0.4859804141261581 0.019895126774057886 0
0.24407315596349505 0.14049115491812048 0
0.2990818001598793 0.15632480910728525 0
0.3217143485265943 0.0606870456993201 0
0.33028495075099235 0.11348985594888777 0
0.3272559121595869 0.19014551314153882 0
0.31953742156429793 0.16810713901020644 0
0.5275486418436669 0.16189339463012595 0
0.5362959267596742 0.18996648919858033 0
0.5787307887242505 0.056309277796692286 0
0.5840121975125901 0.15100621722894236 0
0.5227871778394901 0.13802980987051378 0
0.3312996708387615 0.5114702019710902 0
0.261700425621008 0.553577049297759 0
0.32038277409221433 0.5963420446353562 0
0.30642798420343725 0.5744158856926219 0
0.29537160327242434 0.6018819552262795 0
0.2691146720135046 0.6112491193040674 0
0.8297954716746864 0.07554732396603041 0
0.9637842254130425 0.23179245024427228 0
0.9391648896893036 0.20856515901748143 0
0.8896211361866572 0.18117638409518705 0
0.9431482992609903 0.2544862823023249 0
0.9275097221995514 0.23289696854070477 0
0.8703068971795463 0.21120036656407104 0
0.8752853355336213 0.3616853591968277 0
0.6920712426060759 0.14533054107088747 0
0.7290661128391683 0.17750768305163692 0
0.6556865109643331 0.20163979075943841 0
0.8315865661543091 0.2610282060775272 0
0.8092574373812227 0.20561816141247777 0
0.8583009405649853 0.5144224219495562 0
0.8313697665391804 0.5202502553186635 0
0.881060041334535 0.4130475600957742 0
0.9317649280647599 0.47161786120577903 0
0.9430220449231436 0.4040911455219979 0
0.8979795716012282 0.40449374238677066 0
0.8987990351747501 0.4215464162286402 0
0.4164932084151296 0.686812555749784 0
0.3620757978114268 0.7216420805372453 0
0.5071334532082679 0.6191927742392299 0
0.9628517872938755 0.15582556535176004 0
0.9528251916527785 0.06319533761435227 0
0.9012688236964177 0.15058425915111048 0
0.06668324763474973 0.751948589231444 0
0.1782764116053673 0.6958157758832915 0
0.19017656636752497 0.7273158417834121 0
0.2197025995370044 0.7315643966059061 0
0.13481022772613938 0.7682700354991726 0
0.13863862843852393 0.8197297140494789 0
0.07646397338434674 0.7914777548858904 0
0.9293903451121117 0.7145415609148601 0
0.8971347369237505 0.7508891298509763 0
0.9470465577555632 0.7339388486316125 0
0.7617299964770987 0.7350860905364641 0
0.7772430908164935 0.7143830051872178 0
0.8153525508317528 0.7008946498596303 0
0.8571625883152765 0.6915414959854913 0
0.8319515454087422 0.6802975653299373 0
0.8062914731668679 0.6790285489790978 0
0.8032372146871017 0.6558251480294136 0
0.9778232569975512 0.5205207997116774 0
0.8666261932517719 0.554723908037492 0
0.8810319161091907 0.5335193916486047 0
0.8519669746659407 0.5386770728862291 0
0.9735883993086123 0.6069947423306974 0
0.9243859403485895 0.6006530650906695 0
0.9456074929745405 0.6183571175476097 0
0.8790275305705494 0.6203429473350025 0
0.8793098144940014 0.592572159877752 0
0.7818613084381942 0.6734069057314445 0
0.738668443922718 0.5952592354016818 0
0.6859341038833422 0.5725484491694636 0
0.7616365903009724 0.6059580603647836 0
0.7696821438349087 0.6272420142470299 0
0.7619647143420247 0.5510483076319495 0
0.7686043926660866 0.5809346885551643 0
0.8166386188548229 0.5627313652380778 0
0.8449684336095666 0.5644894914492171 0
0.7842444749959725 0.6073562867160767 0
0.8525635497267008 0.5892781099388616 0
0.8567333668015167 0.6634591570555185 0
0.8286248721040643 0.6520291749112006 0
0.8542197603974107 0.6328935811186056 0
0.7945641990548947 0.6316374483414128 0
0.7982343678223051 0.9217853402542571 0
0.8232742809966193 0.8713380232993344 0
0.7430583130253464 0.9010942770594776 0
0.7685509346381738 0.9294671017326807 0
0.7813639593124381 0.8976959409482731 0
0.7932369306293906 0.8037490860740764 0
0.8244116650836667 0.8270363786124324 0
0.8069990307198479 0.7370906650058556 0
0.9456133297065766 0.7606390851326675 0
0.9014394609553887 0.724271446243334 0
0.9371404343865427 0.8641665580000579 0
0.8666538306821302 0.7808352164859712 0
0.9702878711823737 0.9537357870426514 0
0.9745934381039817 0.7826183208354488 0
0.6982745531294006 0.8276568543575187 0
0.765163579916704 0.7946149438922051 0
0.7238612388908546 0.7832879016442597 0
0.7467242727771809 0.7518742565793617 0
0.7005374867484001 0.7784046345484074 0
0.6412198449687805 0.7412508535115516 0
0.6429287388730244 0.8057269847456962 0
0.6746049302885652 0.8383265366512964 0
0.6620339976851631 0.9661152422900664 0
0.829263584815245 0.9708384792915923 0
0.9117958127773736 0.9664015821507961 0
0.8804969515417292 0.8990147656440015 0
0.9186215422015632 0.9076642135298402 0
0.08632096811200861 0.9248357927392528 0
0.40442576655703427 0.5585840360299549 0
0.4010624711719972 0.5930618640485628 0
0.5327066824625231 0.565842281871205 0
0.4755789715313329 0.5449748325424076 0
0.6869380913651524 0.6899358738547625 0
0.7172332464086333 0.6639257860199969 0
0.7557499730199767 0.6443030239780482 0
0.6949060708532532 0.6528146421546213 0
0.75326906533666 0.41238198458968306 0
0.9435926338372783 0.35496931671867915 0
0.9182711609791218 0.34800475083962706 0
0.8822572275634021 0.31603477957262094 0
0.9646190945055487 0.3295913878689496 0
0.8211511630981608 0.4936492990717211 0
0.8199961505430133 0.4683183021009322 0
0.8187414928425131 0.4440978377591549 0
0.9079797190369773 0.4883203648979043 0
0.8629082759971578 0.44327343135176284 0
0.7197046177268296 0.5215850050715305 0
0.7338001912110478 0.5467033025204954 0
0.5875046263048829 0.40099032440988225 0
0.5139225922355036 0.30742803390883866 0
0.4853282520102328 0.3458738390763114 0
0.7764681876892958 0.3190157175313137 0
0.694397870116259 0.3008028154044278 0
0.7309266103966874 0.29520579397185576 0
0.7482145054363875 0.19547018063060614 0
0.8016866973535831 0.27490534787510856 0
0.7992444766427077 0.3061013465272836 0
0.6855481354352134 0.20262907966904264 0
0.731859845314398 0.3461579383303385 0
0.6202658986343387 0.31543302854830274 0
0.6641259622336869 0.22932324644809365 0
0.5830308870514003 0.17627738875240506 0
0.5888166196963637 0.07526078624272528 0
0.5761517812562793 0.09387856124704146 0
0.6533948152215173 0.10217437261726978 0
0.6314132141440424 0.12473564864256617 0
0.6239615164774519 0.09879133943776391 0
0.7180289762512964 0.15034077362704454 0
0.49116459027147635 0.4679448893088575 0
0.4388139710821136 0.5116298298339099 0
0.4307484738101067 0.4629132130899189 0
0.47264239783619383 0.4771350734634951 0
0.514130926824941 0.4317010177100154 0
0.5332412320841549 0.34507213056088465 0
0.459858425573266 0.3064911922067328 0
0.4497482027513511 0.36035840883713377 0
0.43433822049599113 0.3742006543882241 0
0.3662927606374929 0.21059460132292704 0
0.38890538728638036 0.5307366196179338 0
0.35211157460932346 0.4106034213504922 0
0.2617575935417918 0.3841426199253974 0
0.42931485174538375 0.43444278731711183 0
0.42072898295816996 0.4103036759739992 0
0.385941544199119 0.4963545876182579 0
0.6064704096889691 0.7036458141049386 0
0.5731964144358906 0.6091456987428558 0
0.5853320123007149 0.8056906144403063 0
0.48555514922468246 0.813291197622563 0
0.3243213193398574 0.8209745968653942 0
0.3845444405006112 0.926860708675974 0
0.3260313400599837 0.786447691527302 0
0.37550610644847343 0.6274281185190411 0
0.3473976263740527 0.6912562555502164 0
0.26209970147046185 0.6656397561649577 0
0.29421017133641564 0.7287377337164804 0
0.1882213245298644 0.8740530240115929 0
0.14560558116831968 0.9634915443961675 0
0.34747368547651913 0.3586080311458545 0
0.3564006323145483 0.3766919271876587 0
0.42158504844261613 0.2673238335731873 0
0.4154880355947177 0.30093810568159457 0
0.3860698783796497 0.3043573447146125 0
0.3527752507338875 0.3162366817780442 0
0.30799616001655966 0.4162565148460173 0
0.2807511658332702 0.4315977871930911 0
0.26753781225241624 0.33611434102456417 0
0.15282850757254693 0.34084836019216913 0
0.12519627813750833 0.37779994328652644 0
0.10284186629102515 0.3858237416489247 0
0.16572969407823637 0.3820703020092108 0
0.1998571676760951 0.4991697828447781 0
0.21747361188585423 0.5173674676075957 0
0.08605782920137078 0.30944616507341 0
0.0284056277318329 0.4392460582436566 0
0.17258466705606643 0.4028491627329079 0
0.08168714876745704 0.4758256306212752 0
0.12091979054718949 0.4273522811555525 0
0.11113881106772636 0.5158281059741195 0
0.24536136783611273 0.5070497436667396 0
0.2302660609721047 0.5991029549801778 0
0.23933632287879325 0.5382420312201295 0
0.20736814618403546 0.5867780404779939 0
0.23855504067276284 0.5717298704504546 0
0.10303119274238373 0.6431329351162626 0
0.1477203233762287 0.6896519157354286 0
0.15694285205690678 0.7231193088702538 0
0.10928803405262878 0.6793998252651786 0
0.18889496324339003 0.3077150247974592 0
0.15519194472579728 0.2547130893113961 0
0.12519163500311128 0.27981991252215976 0
0.13243989097869524 0.24738122017877823 0
0.1149184528491767 0.23319992759795155 0
0.03178887440448257 0.3201001399381078 0
0.06324873414260827 0.3131796885396356 0
0.08384314721677508 0.08339186893114219 0
0.16029970954698186 0.14131126467316574 0
0.12856425127850457 0.1702041195390817 0
0.0785168823607645 0.23043581332922883 0
0.028779203494530555 0.10652687568203062 0
0.3092439823540504 0.25348715736291727 0
0.3374626521456596 0.216274165655461 0
0.24838729192341183 0.09729799333721519 0
0.14544147251771125 0.20415518881091943 0
0.22934738675580246 0.17644824185214708 0
0.5010258517753818 0.12631921158230644 0
0.5162269542429182 0.07213522716207403 0
0.5545676274472289 0.08853663886863182 0
0.4931257069440704 0.04044119602676703 0
0.4872580144769107 0.20379741036008428 0
0.4781201667233433 0.13862332626312973 0
0.424302408057575 0.18876605648456757 0
0.45256437509150343 0.14747971624460557 0
0.47509118410042905 0.17145223296860004 0
0.34608601679092865 0.16756414490551716 0
0.3717229498108449 0.18395791613758303 0
0.41388539121136597 0.025404738516145636 0
0.38873068464829375 0.03712376740485704 0
0.4795424726282165 0.05361787663924335 0
0.3410810608970621 0.0849090502991159 0
0.30348084344569604 0.030590569031725964 0
0.6001298856358824 0.20052177907526098 0
0.5775365778390437 0.22147277593603587 0
0.29913740214350065 0.5210764623538334 0
0.2688977856588971 0.5275621826304061 0
0.2881225413725614 0.5500690975358109 0
0.8196028327487515 0.10849924328405323 0
0.8110273442386682 0.047218179568009236 0
0.9076253922696266 0.20798967921304795 0
0.8946418311735732 0.2377123093855816 0
0.7003519073802618 0.17490802458544552 0
0.8410376900411582 0.1939117542810164 0
0.9314822261127005 0.5284958607995313 0
0.9068915916712671 0.5163547417215144 0
0.9490404745264515 0.4900774952258895 0
0.9114086980879653 0.564738697305647 0
0.9284500726266685 0.5774763320121247 0
0.9561673603321913 0.543286987555052 0
0.9724770538484095 0.5741729025284732 0
0.9747199220376396 0.4439476632282109 0
0.8820158237713255 0.43258832454206897 0
0.9642116843288472 0.4684817839146603 0
0.981418054874389 0.42041726645543054 0
0.43875189319591945 0.7108340943471033 0
0.5216547592651302 0.5896443446141963 0
0.541985329725986 0.6173093266885966 0
0.8776867399089172 0.12578732207116447 0
0.8888240471516655 0.09320359593137534 0
0.1646079595714533 0.7556811076972735 0
0.8841177846054702 0.6479024824333011 0
0.8803266156547944 0.7071037625846364 0
0.9237140946745502 0.742809480881978 0
0.8579695887865731 0.7137977498679287 0
0.9355505279137694 0.6842292383944789 0
0.936505787146602 0.6497606028457373 0
0.9649362985534844 0.7082301756491025 0
0.7447038624743162 0.5691045789049114 0
0.8132712783629668 0.63562590362545 0
0.8274670100056017 0.9162294184801003 0
0.8562241025945492 0.9118398533253308 0
0.8103381221470304 0.8488333345072957 0
0.7009339691192346 0.8567532409181643 0
0.7967129311290978 0.8716859445400708 0
0.7869055749470933 0.7370274788270216 0
0.8208471240060418 0.722300939630003 0
0.914350194124687 0.8423319000508688 0
0.9477094642286398 0.8838764108707087 0
0.9258842045815198 0.8867877667756157 0
0.9757339375605727 0.8362763090885821 0
0.8557232583196587 0.7991519010292344 0
0.8145648297338128 0.787087647390225 0
0.9549392528578433 0.9247334060424272 0
0.7900817764355577 0.7809467013202308 0
0.7717482551845058 0.7625489405150574 0
0.6844897320733302 0.7284491773842755 0
0.6484199252343023 0.7735734333221755 0
0.7223597419631301 0.7576675592824943 0
0.669185702542659 0.929095721088537 0
0.6189772515076707 0.828336874804797 0
0.6081480395238085 0.8705340555861402 0
0.6515646219587242 0.8253246622931084 0
0.7011914304151349 0.9625644495277352 0
0.9351894999908797 0.9494519394580185 0
0.7325583565161499 0.6415250904062217 0
0.7460477989547954 0.6226813988692224 0
0.5943133715932779 0.5393114452696697 0
0.825421554693849 0.3440279011949582 0
0.8353316723881449 0.39984215981606885 0
0.9241194485508313 0.3716058349125628 0
0.8929231657220859 0.34327168882300446 0
0.8427693364035782 0.5000992829965285 0
0.7960993527171843 0.4366287366980505 0
0.8420318043718819 0.4789106061982158 0
0.8417275666389432 0.4542937820012065 0
0.8659050962650486 0.4244101141829031 0
0.7310784568899005 0.4976487478248646 0
0.47198801547613684 0.36496048235154516 0
0.7991305585365166 0.3329528982799674 0
0.8064987816629373 0.24118876976388662 0
0.7394021801339229 0.23530379672111554 0
0.6955322747848476 0.34175039999234397 0
0.6129743600669896 0.3756476056408177 0
0.6465922266900328 0.3803055681370203 0
0.6364586557895746 0.252249376209196 0
0.6031549485366059 0.23663823963865474 0
0.6601673781912277 0.13536596076784 0
0.5991844277745546 0.09695018266835206 0
0.6098060335706103 0.11643945949135516 0
0.7576468037198878 0.1573983291758623 0
0.4345746285528684 0.48836792206017693 0
0.4091137860217223 0.4798744669664063 0
0.4607777015168227 0.49822483067265433 0
0.45556462412696697 0.3815199777517933 0
0.4532990532425528 0.47162536146903916 0
0.4713746341472339 0.45784671738971877 0
0.5723643978488356 0.6996525576585485 0
0.6253120170610369 0.648904141634396 0
0.599082864824705 0.6301349142009378 0
0.5319659758570012 0.7582272030493408 0
0.6167521899770865 0.7297621172734553 0
0.5871851810753113 0.7711750751729651 0
0.5613440548497814 0.7556513077387287 0
0.3373652167210005 0.9110642896292928 0
0.3812368384715287 0.6913015102656068 0
0.3672713993931151 0.5942771769355456 0
0.23918533006850906 0.6812375014198232 0
0.1550528136035505 0.8402747306892004 0
0.2174368425713638 0.8833017233884674 0
0.3266333161263313 0.34821720049684196 0
0.28120283394251283 0.3511149480842793 0
0.3003943816185423 0.34983391541763326 0
0.3671419086782764 0.35788339238318706 0
0.37667587376618133 0.3767573000649066 0
0.346825676505902 0.3904280715912959 0
0.44454154833152426 0.27392888673960747 0
0.4399414238451629 0.25495787536028885 0
0.4226732277975227 0.24282338201367662 0
0.41408602179436277 0.28580564631236915 0
0.4353296775096953 0.3097248503577629 0
0.4141741630933224 0.31980402984552614 0
0.3931694876869098 0.3257082044619219 0
0.4018388632170115 0.30914894121775194 0
0.40032413939095185 0.293445155169963 0
0.4005874217548594 0.275839574803019 0
0.38292026532701334 0.2317575443267521 0
0.34646078113399364 0.2812918169056343 0
0.3839903306317515 0.28519367492185455 0
0.33015977335492186 0.26661815018675805 0
0.30924618113668284 0.4497699835712805 0
0.3301285050449403 0.40172836201961537 0
0.25328155444310013 0.4136621068014821 0
0.26926764973497264 0.30032456001717434 0
0.25716989033140125 0.2873383963694777 0
0.17435895771362603 0.34479101572210424 0
0.13693640598003282 0.32627505354209974 0
0.13942906031868033 0.3587483673165683 0
0.17325209642579256 0.49366697951296246 0
0.22329096434485657 0.45668991440740314 0
0.15741092713455057 0.4217738135662704 0
0.19786600941797364 0.47490623944917726 0
0.1928674063906837 0.45033915111062 0
0.18288178338815753 0.4254458285254143 0
0.029433207962101506 0.41009507194822004 0
0.12546586770305093 0.4670766372278209 0
0.25066148586611414 0.5961210937642587 0
0.20649234283179638 0.5499492252332666 0
0.09064979602079631 0.6068732631641341 0
0.14165790088295258 0.6516675750840725 0
0.11816194791690085 0.5797376820573255 0
0.16880322203976267 0.32898588482813906 0
0.11958396155004795 0.2649168148989777 0
0.028479368620326864 0.35408875446563537 0
0.08158729870794437 0.3299885190798238 0
0.05396416145108528 0.052315538086739076 0
0.18516634245774546 0.17119629889165242 0
0.1441963328052144 0.15527162767237532 0
0.0782771419816608 0.2553520563555492 0
0.09870409826941123 0.22190998724005823 0
0.3495041639706221 0.19378814297340283 0
0.2039399508957344 0.031498136558841934 0
0.19834737884623913 0.23346332711252085 0
0.2937149373371862 0.22915178231060337 0
0.2524317251155008 0.24773559276032542 0
0.2531898770361328 0.20782770142699344 0
0.2802372210768336 0.20306476441738414 0
0.30177848986834227 0.18327554266027826 0
0.2779920445509196 0.2545349983641242 0
0.15070310733440642 0.19028589156845638 0
0.22562330895469368 0.157297207342384 0
0.5350473611525164 0.08000015904241932 0
0.4535641830954766 0.20244378625029766 0
0.45636066611034204 0.12304838747105407 0
0.403231084885502 0.14206033507348334 0
0.3574143969466513 0.05480046508353022 0
0.47559543063342963 0.07411677069103244 0
0.2891645181333021 0.0635717360339833 0
0.5668770903510684 0.19614814685624085 0
0.6323075780736337 0.2173701667854985 0
0.5028860699465392 0.10243730882070684 0
0.5041676548549273 0.08376011963704574 0
0.5203593885007132 0.11393069819615163 0
0.540767329465154 0.12406774724217322 0
0.2728886748458473 0.5802930502721014 0
0.8135818063020567 0.17277874642206104 0
0.7405656875381857 0.07709509865156125 0
0.7871015703894335 0.08271529633431444 0
0.9678723019961157 0.2638245077909723 0
0.9385891293140696 0.3084388715186956 0
0.8781888623962467 0.28997475451244353 0
0.9300444750442796 0.5539500602867458 0
0.9544232673808897 0.5121419745291608 0
0.9145471232534057 0.42737584210920765 0
0.9124886019062131 0.11811816717815439 0
0.9212440680954804 0.08864264623309405 0
0.0384334302433262 0.8158627804116583 0
0.07170617379335993 0.826887916652237 0
0.8264470526846979 0.7465152485806115 0
0.8440774170066632 0.7298090672479994 0
0.9062798465405002 0.6959922150268398 0
0.9093970454867215 0.6668892442889454 0
0.9089331623138778 0.6445900945974775 0
0.9677235311957536 0.6707887761175574 0
0.970671596307902 0.6378989330937078 0
0.6924986575789476 0.6248816953738088 0
0.7067501378544733 0.597381733920699 0
0.7996825942774642 0.5853840416845715 0
0.7897182588780131 0.5582478761411106 0
0.8160511081845172 0.9457286251049913 0
0.8613514370452766 0.975911243669969 0
0.8809433560579051 0.9240084404672494 0
0.837304742224755 0.8917277080033718 0
0.7266541723285636 0.8302444878745028 0
0.7660464072712815 0.870732262324255 0
0.7836915950759428 0.8467503237570714 0
0.8045838387304617 0.7597184111982552 0
0.940735917099265 0.9049063241511868 0
0.9088393417783414 0.8691814447900231 0
0.9300100450258844 0.8163277043273721 0
0.9105056463992354 0.7955266115944224 0
0.947172294583286 0.839827515978356 0
0.9607747845547833 0.8137136086695136 0
0.83380607318567 0.8042248054753195 0
0.6505639420128908 0.858951019240802 0
0.8504891434372092 0.9425269929861925 0
0.4731819279839156 0.6133851950758628 0
0.4671271944390492 0.5774663029827761 0
0.4945808982774479 0.5930271220757327 0
0.6562914518252648 0.5570309035819779 0
0.8479572071271902 0.323948095414379 0
0.8199085570891353 0.32134790506433386 0
0.9000696272667406 0.3663872586756959 0
0.7774731040714471 0.5045938160938641 0
0.7519446088971908 0.5192283849490119 0
0.7679543269680967 0.29146047863324986 0
0.7457665501282494 0.26872892873304427 0
0.7143892806086187 0.26630273129806337 0
0.7002647418335293 0.23414662030480468 0
0.5853732200343662 0.12069254938605369 0
0.6078276088222483 0.13908720375996575 0
0.5212979803170016 0.3664011121677088 0
0.3412232419886016 0.45478547393200475 0
0.4390566189526878 0.4139129917010377 0
0.6166270954211693 0.7572206457694435 0
0.617655946942327 0.7907594178948463 0
0.5498765125219963 0.7279671425419658 0
0.3961535429352339 0.6604212558165782 0
0.26952927642842156 0.7215082665659983 0
0.17886834467337623 0.8433511661896499 0
0.20876701118818994 0.8501759749880469 0
0.2867666769172908 0.37194967348014824 0
0.2650231422475341 0.3601707833236735 0
0.4649754944771873 0.2839570596446219 0
0.4298887426146737 0.2884837513968942 0
0.37153488368998994 0.32062112784110314 0
0.3991358212745255 0.2531318546770599 0
0.3676163465777985 0.2748673978346409 0
0.33265422484767154 0.42794704943116335 0
0.1603103538008365 0.36107399927069744 0
0.18809114462238377 0.3272880744354426 0
0.11937979585359813 0.33411362505440284 0
0.14839799737619944 0.3758657563413661 0
0.11982437765315691 0.3533911083025554 0
0.13302440054586934 0.34295437637242 0
0.22228544424658317 0.48813081530682423 0
0.16699494709876544 0.44606333430267253 0
0.19925910109123093 0.40412767012246925 0
0.04590646835257938 0.6034945004042926 0
0.15100776911103064 0.5915856939785475 0
0.0789846907116065 0.7144135544240228 0
0.17218167252750888 0.3127031573497258 0
0.05727158539917107 0.33938713354530015 0
0.06185073365074004 0.0707484251157891 0
0.07919094170042923 0.05573620159595815 0
0.21007671940253217 0.17379738714130125 0
0.20171606933175104 0.15232972381625656 0
0.18028465263007884 0.1480399583882132 0
0.11293306594328509 0.2494864580752121 0
0.2665321347067024 0.2286033166243905 0
0.2400011478025649 0.19063515537349318 0
0.2597808898247234 0.18921758755285137 0
0.5200740573070616 0.09274166127853765 0
0.41651938576666736 0.05392050546393888 0
0.41218305034409014 0.08695413767651426 0
0.42990514538292723 0.13421777396038265 0
0.5387544297753863 0.1019061240583037 0
0.9160214897620564 0.26039789529815205 0
0.9130179067664301 0.32365590709528 0
0.9414230135354592 0.2799035081935972 0
0.9688215642238469 0.2942325431242714 0
0.8587440856332356 0.3000431284852848 0
0.9475702259284526 0.5682902704774156 0
0.9809565601922314 0.5468416795503933 0
0.9349640956387187 0.4263900689513287 0
0.9227506621706599 0.4466039206003817 0
0.4273193257424384 0.6582489028228774 0
0.8722493244478267 0.7345028015318108 0
0.851198265493314 0.7566607711626934 0
0.9490304847667064 0.5907180151817965 0
0.7212604771400843 0.6210374582980778 0
0.8414115975035636 0.6091881102687795 0
0.8610026675065874 0.6088561205967333 0
0.7557936486398031 0.8429092999783726 0
0.7520790747023998 0.8187426900631865 0
0.7751773010326429 0.8219226208082372 0
0.8856987576599531 0.8760764846432394 0
0.9684469525320522 0.8641529867425386 0
0.6672942241977453 0.7479431227509139 0
0.6745748879567939 0.8030028164812116 0
0.6939957875534272 0.7525641440227687 0
0.4398001034491343 0.6035682170919578 0
0.6428629519779742 0.5089186380479377 0
0.829542421982437 0.3722766756684797 0
0.4983960049749849 0.3254368831518169 0
0.49657366751993454 0.3677005324286065 0
0.775486911272606 0.21643944250751973 0
0.7732551567491968 0.2538785949492857 0
0.7149884181543668 0.20233981206638876 0
0.63384935206202 0.34925323405758374 0
0.413939921354669 0.5074788691953318 0
0.5879859195911292 0.7351719247249472 0
0.23491244824095134 0.8595383975147839 0
0.3111366011491544 0.36733959295601754 0
0.44665105775429537 0.29299899624459386 0
0.36375617251208764 0.29719928354284597 0
0.3849836864714077 0.26871118481649003 0
0.10081796282427669 0.3429268284737584 0
0.20953531724617055 0.4298545119455268 0
0.1531280302510749 0.4688674055308118 0
0.156281081666035 0.6209500699126652 0
0.15405001169016097 0.31949983035225654 0
0.10872996531088076 0.28249361055547556 0
0.16291640298863463 0.20010275024560653 0
0.09757720608045808 0.24192990053750793 0
0.432256147745546 0.10453752489514048 0
0.38579705057157293 0.09717075712805286 0
0.3874692252009971 0.06905745754222109 0
0.4528431208505578 0.05910728624547563 0
0.4580456570018186 0.09026582275234821 0
0.7400602183079997 0.11992378073340204 0
0.886050810788643 0.26781565030581744 0
0.8580633219526969 0.27703790956122115 0
0.8618584558483596 0.4895829305606743 0
0.9088681395711132 0.5431877751513492 0
0.9587030767503179 0.4236459884774813 0
0.44938453607507023 0.6384241752117071 0
0.8282778201350779 0.7662700191356622 0
0.8418218292949285 0.7820369969717771 0
0.7118453962479554 0.6411077589634011 0
0.7335323355649017 0.8644904918554648 0
0.8000600899513717 0.8262026915665436 0
0.8926116081247017 0.85518425063757 0
0.6322862484359593 0.5359913759767074 0
0.6616477917807485 0.5276280332688914 0
0.9076792026680139 0.2925218680879327 0
0.5196931544885321 0.3287055007834712 0
0.29288350504996685 0.7034984791227298 0
0.26613229724833176 0.6930942905059682 0
0.28888380619419834 0.6758140456949286 0
0.1508289328298751 0.7876654161955555 0
0.23820738093411103 0.827164556650704 0
0.37401018999176955 0.25388644705514424 0
0.1649102858297861 0.18177664578299244 0
0.08804154464051497 0.2759362116618269 0
0.4077671431453408 0.11554765158601313 0
0.3655624980937032 0.08216748743830041 0
0.8140641397087783 0.14534070995898252 0
0.7818321304522828 0.12593413263303813 0
0.23041639620491772 0.7645755559837878 0
0.876005442228404 0.7595523008069571 0
0.8136413814103219 0.6117983487229558 0
0.8853241668477151 0.8337725338764196 0
0.6770497171967929 0.7709494902308549 0
0.7583664154909332 0.48252281212609466 0
0.6634791047736818 0.3550701281779762 0
0.20157649379329856 0.8230553239095195 0
0.2596264136310816 0.7878019323139849 0
0.35766623174090456 0.23599551099269164 0
0.10129415007889593 0.26143419689004554 0
0.9474124795092265 0.44661330060068555 0
0.8301875258701652 0.6292599314812303 0
0.5093013436784322 0.34674104375588904 0
0.16943331477962933 0.8175009318363624 0
0.35160230616404853 0.2594383372853019 0
0.12674959077336725 0.6157965733036135 0
0.18935254686035868 0.7865413246151297 0
0.22196410585638301 0.7941546356302802 0
0.0 0.5303762917271853 1
0.0 0.7204953516181437 1
1.0 0.09046090537175466 1
0.8808989421781136 0.8041311229347774 0
0.4371330196722233 0.3958980429559803 0
0.23307245162003276 0.33631405557196986 0
0.06133725892248016 0.1690552380796338 0
0.09752796038857829 0.12146651361616029 0
0.05553903318952272 0.1464509718672535 0
0.07642312330540757 0.10777933528023527 0
0.11595625514749108 0.2170033432908897 0
0.28828684641950764 0.33607004872071045 0
0.05620267344319386 0.09374615860906449 0
0.07684328347084331 0.1314422876275719 0
0.15800693760667758 0.8664325143411578 0
0.07939542647820258 0.15517522504602424 0
0.0 0.9074921338025781 1
0.4994573150488628 0.0 1
0.3966990865090207 0.3809477444528784 0
0.3827045846513554 0.3937582479188034 0
0.36411847736184927 0.4558582249232388 0
0.7577504022037245 0.6812458309590397 0
0.20768493709938796 0.6515922447996895 0
0.5553383885131434 0.05019683334130545 0
0.7128050650186605 0.8836795844333023 0
0.23380878229652838 0.022460772655777974 0
0.19761179889233368 0.19250839783099175 0
0.1784593555400421 0.19152814549065678 0
0.7998681957677779 0.7184052711936607 0
0.30657972681068063 0.49632878657835394 0
0.6676699653238197 0.29311160618733006 0
0.21815048089548816 0.6708363883397161 0
0.05904561798563118 0.23982821007776323 0
0.8559962254031042 0.10227345587686408 0
0.9179112965330143 0.7690801184066863 0
0.8133718011310092 0.8086338801198037 0
0.6777737629094546 0.706931879137464 0
0.028848454819814896 0.3826192654856557 0
0.8466100837270514 0.13478966274016868 0
0.8828767001741743 0.6787798968320891 0
0.9014405514543811 0.6083304483235166 0
0.6609378960674602 0.7216727262938919 0
0.8015292053472971 0.4578100602732992 0
0.4460200140245809 0.1727777662685091 0
0.8835350713989955 0.5023299249843374 0
0.9303496884928689 0.5015247363833604 0
0.28325814601534144 0.40090417146398016 0
0.904378101632861 0.8183284304251675 0
0.31633015592712177 0.6846947343822835 0
0.17658224800653952 0.46653442939510775 0
0.14863926456536028 0.17484979470646367 0
0.16353306838636184 0.1619204667479981 0
0.2993068290975544 0.475855801058384 0
0.21999912289892448 0.0 1
0.3879176406079819 0.0 1
1.0 0.7672439097876649 1
0.6191827555059902 0.46008577571064885 0
0.22443734819030062 0.4103978555960333 0
0.20149223796122398 0.2696205353318102 0
0.4621832610571367 0.3442600228122018 0
0.444769629191963 0.3438001621761566 0
0.4403852564222024 0.027719525671504954 0
0.8446342056642687 0.8702094459390516 0
0.5613395138619708 0.13555313156862941 0
0.4978383576838101 0.686162292096497 0
0.8640670929667028 0.07282587036632468 0
0.7436194927687527 0.37676966442465215 0
0.6913477171056036 0.4748743740470615 0
0.3086719356967704 0.3882015457925081 0
0.3354115467790925 0.6654598462258676 0
0.8705501047297695 0.3392659070723899 0
0.71496848548679 0.36921807379279126 0
0.30854384459396655 0.7525966022836943 0
0.1361275840686787 0.4188644843516743 0
0.9310166251742801 0.9239437195817704 0
0.7809932523669585 0.1868905815961723 0
0.20159261329316794 0.7581667004374542 0
0.8622117666159189 0.46577039811033405 0
0.2931708387769077 0.7773140232117431 0
0.7632594232284485 0.6626825146960625 0
0.0 0.36951179421713387 1
0.8660167574970447 0.5733708036163109 0
0.5130182569647163 0.725695774998166 0
0.6835360614261063 1.0 1
0.11824012987186205 0.12831224388621215 0
0.20756434684924752 0.08783427964581929 0
0.22261356938662388 0.10381883960054987 0
0.4239544284062452 0.8777502179862868 0
0.22909667747642418 0.0792360053558014 0
0.0 0.8433851146232305 1
0.6233339377009193 1.0 1
0.8979094479521379 0.9131709036032069 0
0.6769227020163852 0.8617071188083382 0
0.7623983451141861 0.10179377444356415 0
1.0 0.04219615950556514 1
0.20957416635653317 0.775707723198627 0
0.3905616900006443 0.9635567467747619 0
0.30854883071323896 0.9560421517560685 0
0.7907538627059246 0.15502987135880092 0
0.25370631375070324 0.7627107538567308 0
0.4343460161055082 0.07982687209712924 0
0.39283406545644556 0.3408903775469544 0
0.3255038728987193 0.9358120604809803 0
0.8180137942243558 0.6672861166662759 0
0.9431482569640373 1.0 1

Edges
105
1 93 1
1 96 1
2 111 1
2 1343 1
3 351 1
3 367 1
4 75 1
4 130 1
5 142 1
5 340 1
6 67 1
6 69 1
7 87 1
7 1249 1
8 129 1
8 1250 1
9 68 1
9 76 1
14 145 1
14 325 1
15 143 1
15 144 1
18 59 1
18 112 1
19 161 1
19 162 1
20 299 1
20 1302 1
21 202 1
21 363 1
23 68 1
23 69 1
26 221 1
26 222 1
27 245 1
27 275 1
31 255 1
31 256 1
33 262 1
33 263 1
35 272 1
35 274 1
39 110 1
39 1251 1
40 111 1
40 112 1
41 338 1
41 339 1
45 352 1
45 354 1
48 364 1
48 366 1
51 142 1
51 143 1
52 144 1
52 145 1
59 161 1
60 162 1
60 163 1
67 1339 1
75 221 1
76 222 1
86 245 1
86 246 1
87 248 1
92 262 1
92 1302 1
93 263 1
96 272 1
97 274 1
97 275 1
101 296 1
101 1303 1
102 298 1
102 299 1
110 325 1
115 337 1
115 338 1
116 339 1
116 340 1
120 351 1
120 352 1
121 354 1
121 355 1
125 363 1
125 364 1
129 1338 1
130 1265 1
163 428 1
202 1332 1
246 1329 1
248 529 1
255 1249 1
256 1250 1
296 1266 1
298 1303 1
337 1304 1
355 1304 1
366 1353 1
367 1353 1
428 1266 1
529 1329 1
1251 1343 1
1265 1338 1
1332 1339 1

Triangles
2599
1 93 273 0
4 130 220 0
5 340 680 0
6 69 466 0
7 87 243 0
9 76 225 0
9 225 213 0
10 196 386 0
10 345 673 0
10 919 196 0
11 134 192 0
12 135 153 0
12 138 1316 0
12 153 421 0
14 145 1049 0
15 402 144 0
17 454 451 0
18 112 315 0
19 105 162 0
19 161 164 0
20 284 1274 0
20 1274 1302 0
22 205 1331 0
23 475 1345 0
24 218 636 0
24 219 489 0
24 489 490 0
24 635 219 0
25 227 228 0
26 221 223 0
26 800 222 0
27 527 245 0
28 505 555 0
28 555 571 0
28 592 1307 0
29 232 500 0
29 511 501 0
29 512 239 0
30 249 560 0
30 523 532 0
30 560 812 0
31 90 256 0
32 1225 1193 0
33 288 566 0
34 264 279 0
34 270 264 0
34 279 1264 0
34 840 270 0
35 272 842 0
36 628 766 0
36 766 767 0
36 767 850 0
37 317 318 0
37 889 662 0
38 872 1202 0
39 110 660 0
40 111 330 0
42 341 878 0
42 685 1289 0
42 878 879 0
43 705 903 0
43 710 119 0
43 1311 705 0
44 1252 715 0
45 1168 354 0
46 361 1273 0
46 920 361 0
46 924 920 0
46 1273 706 0
47 362 468 0
47 922 124 0
48 364 1071 0
48 1071 368 0
49 135 393 0
49 136 150 0
49 150 151 0
49 151 1305 0
50 138 140 0
50 140 413 0
51 885 143 0
52 744 1151 0
53 405 654 0
53 931 741 0
54 408 930 0
54 747 408 0
54 936 747 0
54 937 749 0
55 148 419 0
55 149 173 0
55 173 776 0
56 154 159 0
56 155 777 0
56 777 1217 0
57 155 157 0
57 157 763 0
57 1180 944 0
58 157 159 0
58 160 763 0
58 304 947 0
58 947 946 0
59 18 169 0
59 169 167 0
60 162 306 0
60 306 430 0
61 164 167 0
61 166 768 0
61 167 168 0
62 780 1253 0
63 179 447 0
63 180 1350 0
64 186 1268 0
64 458 189 0
65 189 458 0
65 458 785 0
65 774 953 0
66 204 1313 0
66 460 203 0
67 6 200 0
68 213 1346 0
69 71 466 0
69 1345 71 0
70 208 465 0
70 471 211 0
71 471 466 0
71 793 210 0
72 211 215 0
72 473 474 0
73 483 538 0
73 1007 636 0
74 314 967 0
74 633 314 0
74 795 488 0
75 4 220 0
76 222 493 0
77 78 212 0
77 492 497 0
78 77 497 0
78 970 1183 0
79 227 1263 0
79 229 496 0
80 230 971 0
80 499 806 0
81 233 1025 0
81 234 995 0
81 1025 1029 0
82 525 993 0
83 236 519 0
83 506 510 0
83 510 1254 0
83 519 520 0
84 513 809 0
85 518 526 0
85 1128 818 0
86 247 836 0
87 248 817 0
88 533 531 0
88 534 819 0
88 1006 534 0
89 243 250 0
89 552 1249 0
89 1249 7 0
90 253 256 0
90 549 253 0
91 259 833 0
91 558 259 0
91 571 258 0
94 265 276 0
94 276 277 0
94 574 841 0
94 841 1281 0
95 572 834 0
96 1 273 0
96 273 576 0
98 591 598 0
98 598 599 0
98 599 1141 0
99 289 1333 0
99 602 839 0
99 839 1018 0
99 1018 289 0
100 283 620 0
100 290 1335 0
100 620 1031 0
100 1031 1137 0
100 1137 603 0
101 296 1310 0
102 298 302 0
103 300 621 0
103 301 584 0
103 584 585 0
103 623 300 0
104 860 1036 0
105 19 164 0
105 164 436 0
105 436 437 0
106 307 606 0
106 429 430 0
106 430 1272 0
107 759 648 0
107 1091 1092 0
107 1152 1091 0
107 1203 1152 0
108 680 1053 0
109 320 407 0
109 407 883 0
109 656 1054 0
110 325 326 0
110 326 660 0
111 2 1343 0
112 40 329 0
113 551 829 0
113 829 891 0
114 332 668 0
114 333 334 0
114 334 1058 0
115 337 898 0
116 1154 340 0
117 345 1270 0
117 346 674 0
118 358 707 0
119 371 43 0
119 912 1252 0
119 1233 371 0
120 351 716 0
121 354 911 0
122 1170 722 0
123 21 202 0
124 362 47 0
124 922 1085 0
125 363 365 0
125 365 727 0
126 45 352 0
126 352 353 0
126 353 914 0
126 914 1078 0
126 1168 45 0
127 368 1071 0
127 370 728 0
127 1086 1072 0
128 371 1167 0
128 729 902 0
128 902 1073 0
128 1073 1311 0
129 8 373 0
129 373 1057 0
130 1265 374 0
131 1338 376 0
132 382 736 0
132 464 198 0
132 736 1285 0
132 1290 383 0
133 384 736 0
133 385 737 0
133 387 386 0
134 11 136 0
134 136 137 0
134 137 928 0
135 12 392 0
135 49 1305 0
135 392 1173 0
136 11 149 0
136 49 137 0
136 149 150 0
137 49 393 0
138 12 421 0
140 138 420 0
140 394 740 0
140 420 394 0
141 398 417 0
141 1094 418 0
142 5 108 0
142 108 884 0
142 882 51 0
143 405 15 0
145 52 1151 0
146 53 654 0
146 404 931 0
147 392 1316 0
147 1316 50 0
148 55 174 0
148 174 444 0
149 11 172 0
149 55 150 0
150 55 419 0
151 152 153 0
151 153 1305 0
151 419 752 0
151 752 152 0
152 944 945 0
153 135 1305 0
153 152 426 0
154 17 158 0
154 56 753 0
154 158 159 0
155 56 157 0
155 57 156 0
155 176 445 0
155 445 777 0
156 57 944 0
157 56 159 0
157 58 763 0
158 293 303 0
158 303 304 0
159 304 58 0
160 58 946 0
160 435 1279 0
160 946 435 0
161 59 167 0
162 105 306 0
163 60 430 0
163 430 429 0
164 61 436 0
164 161 167 0
165 436 438 0
165 438 770 0
165 770 949 0
165 949 766 0
166 61 168 0
166 168 170 0
168 167 169 0
168 1047 170 0
169 18 315 0
170 439 166 0
170 1047 1201 0
170 1201 440 0
171 175 776 0
171 772 957 0
172 11 443 0
172 441 772 0
172 772 173 0
173 149 172 0
173 171 776 0
174 55 776 0
175 174 776 0
175 182 448 0
175 448 449 0
175 449 174 0
176 148 444 0
176 155 156 0
176 752 148 0
177 459 190 0
177 785 1104 0
178 422 753 0
179 63 982 0
179 450 1309 0
180 63 181 0
180 231 1350 0
181 62 1267 0
181 63 447 0
181 447 780 0
182 171 459 0
182 175 171 0
182 177 183 0
183 177 1104 0
183 448 182 0
183 1104 1253 0
184 611 612 0
184 1117 987 0
185 378 732 0
185 457 377 0
186 802 975 0
186 976 802 0
187 64 189 0
187 189 1269 0
187 1103 1119 0
188 62 786 0
188 64 1268 0
189 65 191 0
189 191 1269 0
190 459 957 0
190 956 774 0
191 65 953 0
191 787 311 0
192 134 194 0
192 380 379 0
193 194 389 0
193 887 734 0
194 134 928 0
194 193 734 0
195 390 391 0
195 462 390 0
195 959 960 0
195 960 462 0
196 384 386 0
196 919 1171 0
196 1171 917 0
197 195 391 0
197 391 416 0
197 1066 381 0
198 382 132 0
198 464 959 0
199 208 360 0
199 922 47 0
200 6 466 0
200 466 467 0
200 468 67 0
201 47 468 0
201 199 47 0
201 200 465 0
202 924 123 0
203 460 461 0
203 461 958 0
204 66 203 0
204 958 1107 0
204 1107 1331 0
205 22 469 0
205 886 324 0
206 22 961 0
206 207 209 0
206 209 791 0
206 791 22 0
207 206 470 0
207 470 790 0
207 790 360 0
208 70 209 0
208 199 465 0
208 207 360 0
209 70 791 0
209 207 208 0
210 215 1336 0
211 72 474 0
211 471 1336 0
211 474 791 0
211 791 70 0
212 213 77 0
212 965 1351 0
213 68 9 0
213 212 1346 0
214 72 215 0
214 215 477 0
214 476 72 0
214 481 476 0
214 792 794 0
215 211 1336 0
216 792 478 0
216 1238 1327 0
217 482 1348 0
217 1109 482 0
218 24 490 0
218 490 797 0
219 74 488 0
219 633 74 0
220 130 374 0
220 224 75 0
221 75 224 0
223 221 224 0
223 731 228 0
224 374 731 0
225 76 493 0
225 77 213 0
225 492 77 0
226 78 494 0
226 212 78 0
226 477 965 0
226 965 212 0
227 25 333 0
227 79 228 0
227 333 1263 0
228 79 496 0
228 496 800 0
228 800 223 0
229 79 799 0
229 492 496 0
229 799 970 0
230 801 971 0
231 974 230 0
231 983 1350 0
231 1116 983 0
232 29 501 0
232 501 843 0
233 593 595 0
233 595 1025 0
234 81 1029 0
234 994 995 0
235 82 504 0
235 502 822 0
235 1000 82 0
236 83 1254 0
236 516 517 0
236 517 519 0
237 84 238 0
237 238 510 0
237 508 509 0
237 509 995 0
237 994 84 0
238 84 809 0
239 241 513 0
240 238 809 0
240 516 236 0
240 809 1113 0
240 1254 238 0
241 512 80 0
241 973 1260 0
242 533 819 0
242 817 515 0
243 89 7 0
243 817 242 0
244 517 524 0
244 524 1306 0
244 526 517 0
245 247 86 0
248 529 1005 0
249 30 514 0
249 261 560 0
249 514 515 0
249 1005 1286 0
250 243 242 0
250 553 89 0
251 821 537 0
252 251 537 0
252 537 999 0
252 544 251 0
254 251 544 0
254 821 251 0
254 1011 543 0
255 552 1129 0
255 1249 552 0
258 555 1132 0
259 260 559 0
260 259 558 0
260 557 559 0
260 997 1122 0
261 249 1286 0
262 92 563 0
262 288 33 0
263 33 566 0
263 577 93 0
264 271 574 0
265 27 275 0
265 94 1281 0
265 275 276 0
265 527 27 0
265 565 527 0
266 288 562 0
266 564 568 0
267 268 570 0
267 280 580 0
268 600 570 0
270 573 575 0
271 264 270 0
271 270 575 0
271 575 1259 0
272 96 576 0
272 576 842 0
273 93 577 0
273 577 1016 0
274 35 278 0
275 97 276 0
276 97 578 0
277 276 578 0
277 574 94 0
277 578 1255 0
278 35 842 0
278 578 274 0
278 581 1257 0
279 277 1255 0
279 574 277 0
279 1255 1264 0
280 267 1256 0
280 1256 1258 0
283 100 1335 0
283 584 620 0
284 299 863 0
284 587 590 0
284 590 1274 0
285 588 589 0
285 589 1022 0
285 590 1337 0
285 1022 590 0
286 282 1142 0
287 596 1194 0
287 598 1023 0
287 1194 1276 0
288 266 566 0
288 563 562 0
289 34 579 0
289 579 1333 0
289 840 34 0
290 100 603 0
290 291 601 0
290 588 1334 0
290 1334 1335 0
291 290 603 0
291 603 1138 0
291 839 602 0
292 604 1042 0
292 615 1200 0
292 1041 615 0
293 17 451 0
293 158 17 0
293 609 305 0
294 305 852 0
294 608 626 0
294 852 856 0
295 1197 1226 0
295 1226 1035 0
296 297 1310 0
296 1266 619 0
297 296 619 0
297 619 851 0
297 861 1199 0
298 104 302 0
298 1303 104 0
299 102 863 0
299 284 20 0
300 623 617 0
300 625 621 0
301 282 286 0
302 104 1036 0
302 863 102 0
302 1036 622 0
303 865 304 0
304 159 158 0
304 865 947 0
305 294 627 0
305 303 293 0
306 105 437 0
306 628 1272 0
307 106 1272 0
307 605 1032 0
307 1032 849 0
308 310 1312 0
308 1312 629 0
309 1100 1312 0
310 626 630 0
310 630 1044 0
310 1044 1312 0
311 1269 191 0
312 314 634 0
312 634 868 0
313 456 782 0
313 733 967 0
313 782 732 0
314 312 456 0
314 313 967 0
314 633 634 0
315 870 1048 0
316 328 660 0
316 639 871 0
316 662 328 0
317 37 640 0
317 643 874 0
318 317 874 0
319 643 38 0
320 109 1156 0
320 406 407 0
320 748 406 0
321 146 654 0
321 404 146 0
321 654 1155 0
321 655 404 0
322 966 657 0
323 66 1313 0
323 659 66 0
323 1207 1087 0
324 323 1313 0
325 14 638 0
325 638 326 0
326 316 660 0
327 39 660 0
327 1055 1056 0
327 1251 39 0
328 1055 327 0
329 330 1314 0
329 637 870 0
330 111 661 0
330 329 40 0
330 661 1056 0
330 890 1314 0
330 1056 890 0
331 373 8 0
331 1250 253 0
332 550 667 0
332 667 1221 0
332 669 550 0
333 25 334 0
333 114 668 0
333 668 969 0
334 25 375 0
334 375 376 0
335 1304 717 0
336 676 895 0
337 1304 335 0
339 41 684 0
340 1154 680 0
341 42 688 0
341 681 682 0
341 688 1330 0
342 343 1289 0
342 685 686 0
342 686 897 0
342 897 1063 0
343 687 1289 0
343 892 687 0
343 1063 892 0
344 689 1328 0
344 738 693 0
345 10 386 0
345 117 674 0
345 386 387 0
345 387 1270 0
346 117 689 0
346 678 675 0
346 1277 674 0
347 690 1067 0
347 691 16 0
347 751 899 0
348 696 697 0
349 704 708 0
349 705 1073 0
349 708 905 0
350 1080 1081 0
350 1081 1283 0
351 3 367 0
352 120 353 0
356 122 720 0
356 1074 122 0
356 1165 1074 0
357 356 720 0
357 720 919 0
357 721 916 0
358 21 123 0
358 118 365 0
358 359 707 0
359 46 706 0
359 123 924 0
359 358 123 0
359 706 707 0
360 790 921 0
361 124 1085 0
361 904 1273 0
361 920 124 0
361 1085 1341 0
362 124 920 0
363 21 358 0
363 358 365 0
364 125 727 0
364 727 1071 0
365 118 1070 0
366 48 368 0
366 369 1353 0
366 728 369 0
367 369 716 0
367 716 351 0
368 127 728 0
369 367 1353 0
370 127 1072 0
370 730 1323 0
371 128 1311 0
372 730 1340 0
374 224 220 0
374 375 731 0
375 25 731 0
375 131 376 0
375 374 131 0
378 185 377 0
378 1088 1172 0
379 442 443 0
379 443 192 0
380 192 734 0
380 735 379 0
381 198 463 0
381 463 197 0
382 198 381 0
382 385 736 0
383 962 788 0
384 133 386 0
385 133 736 0
387 133 737 0
387 388 1270 0
387 737 388 0
389 194 928 0
389 390 462 0
389 462 789 0
389 789 193 0
389 928 390 0
391 390 1090 0
391 1090 691 0
392 12 1316 0
392 147 415 0
392 415 1215 0
392 1215 1173 0
393 135 1173 0
394 425 1320 0
395 139 397 0
395 397 1315 0
395 755 940 0
396 934 409 0
397 396 740 0
397 401 396 0
398 141 651 0
398 696 1069 0
399 418 1235 0
399 934 1291 0
400 1091 1319 0
401 139 1174 0
401 397 139 0
401 1174 930 0
402 53 741 0
402 741 744 0
402 744 144 0
403 742 1149 0
403 1149 1050 0
404 411 1093 0
405 53 402 0
405 402 15 0
405 1206 654 0
406 1326 407 0
408 396 401 0
408 747 934 0
409 413 740 0
410 54 930 0
410 412 411 0
410 652 937 0
411 404 655 0
411 644 1093 0
412 400 644 0
412 410 930 0
412 930 1174 0
413 140 740 0
413 399 1235 0
413 409 399 0
413 1235 50 0
415 16 414 0
415 147 750 0
415 414 1215 0
416 391 691 0
416 691 1067 0
417 398 1069 0
417 1069 694 0
418 399 1291 0
418 745 141 0
419 148 752 0
419 151 150 0
420 425 394 0
421 420 138 0
421 426 420 0
422 17 154 0
422 154 753 0
423 395 762 0
423 424 757 0
423 762 424 0
425 420 426 0
425 943 1320 0
425 945 1236 0
426 421 153 0
427 160 1279 0
427 756 943 0
427 1236 1180 0
428 163 429 0
428 429 607 0
428 607 1266 0
429 106 607 0
430 306 1272 0
431 647 433 0
431 761 647 0
433 432 431 0
433 434 432 0
434 433 864 0
434 629 1101 0
434 1101 432 0
435 756 1279 0
435 764 1099 0
436 61 438 0
436 165 437 0
437 766 628 0
438 61 768 0
438 768 770 0
440 439 170 0
440 645 439 0
441 172 443 0
441 443 442 0
441 954 775 0
443 11 192 0
444 449 1102 0
444 1102 445 0
445 176 444 0
446 450 778 0
446 754 1308 0
446 778 178 0
447 179 1309 0
447 779 780 0
448 183 955 0
448 955 939 0
449 444 174 0
449 1176 1102 0
450 446 1308 0
450 981 778 0
450 1308 1309 0
451 453 452 0
452 453 614 0
452 614 1033 0
453 451 454 0
453 977 978 0
453 1114 977 0
454 17 422 0
454 178 1114 0
454 422 178 0
455 311 787 0
455 631 311 0
455 782 456 0
456 313 314 0
457 185 773 0
457 735 377 0
458 64 188 0
458 188 786 0
459 171 957 0
459 177 182 0
460 66 888 0
460 789 960 0
463 195 197 0
463 198 959 0
464 132 383 0
464 461 959 0
465 199 201 0
465 200 467 0
466 471 467 0
467 70 465 0
467 471 70 0
468 200 201 0
468 362 1339 0
469 322 886 0
469 473 322 0
470 206 961 0
470 961 964 0
471 71 210 0
471 210 1336 0
472 473 476 0
472 476 481 0
472 658 322 0
473 469 474 0
473 472 322 0
474 469 22 0
475 23 68 0
475 68 1346 0
475 793 1345 0
475 1346 1351 0
476 473 72 0
477 226 478 0
477 792 214 0
478 494 495 0
478 495 216 0
478 792 477 0
479 215 210 0
479 477 215 0
481 480 472 0
481 794 480 0
482 798 1321 0
482 1238 1348 0
482 1321 1327 0
483 73 218 0
483 968 1280 0
484 539 1280 0
484 665 664 0
484 666 665 0
484 968 485 0
485 217 666 0
485 1219 1109 0
486 733 1172 0
486 1157 1108 0
487 796 1318 0
487 1108 966 0
488 487 1318 0
488 795 487 0
489 219 488 0
489 488 1318 0
490 489 1220 0
490 1220 797 0
491 480 1321 0
491 1218 1297 0
491 1321 798 0
492 225 493 0
492 493 496 0
493 222 800 0
494 478 226 0
494 1222 495 0
495 1238 216 0
496 493 800 0
497 229 970 0
497 492 229 0
498 801 802 0
498 802 976 0
498 971 801 0
498 976 992 0
498 992 1317 0
498 1184 971 0
499 988 1186 0
500 499 512 0
500 512 29 0
500 988 499 0
500 990 988 0
501 234 1029 0
501 511 234 0
502 504 1301 0
502 867 822 0
503 631 1278 0
503 991 1103 0
503 1278 1301 0
504 82 808 0
504 502 235 0
504 991 1301 0
505 506 831 0
505 507 508 0
505 1307 507 0
506 83 1121 0
506 1121 831 0
507 509 508 0
507 593 233 0
508 506 505 0
509 81 995 0
509 233 81 0
509 507 233 0
510 238 1254 0
510 506 508 0
510 508 237 0
511 29 239 0
511 513 994 0
512 241 239 0
512 499 80 0
513 84 994 0
513 241 1260 0
513 511 239 0
514 30 532 0
514 532 533 0
515 533 242 0
515 1005 249 0
516 240 1113 0
517 516 524 0
518 85 813 0
518 813 1120 0
518 996 520 0
519 517 526 0
520 519 518 0
520 996 1121 0
520 1121 83 0
521 811 812 0
522 523 811 0
522 818 1001 0
522 1001 1322 0
523 30 812 0
523 522 1322 0
524 516 784 0
524 993 1306 0
525 1189 1306 0
526 244 1128 0
526 518 519 0
527 247 245 0
527 528 247 0
527 565 528 0
528 257 554 0
528 565 257 0
528 836 247 0
528 837 836 0
529 1286 1005 0
530 820 1322 0
530 1001 1127 0
530 1127 1190 0
531 532 820 0
531 1006 88 0
532 523 820 0
532 531 533 0
533 88 819 0
533 515 514 0
534 537 821 0
535 254 543 0
535 543 553 0
536 821 535 0
537 534 1006 0
537 1190 999 0
538 483 1271 0
538 546 547 0
538 825 823 0
539 546 1271 0
539 664 545 0
539 1271 1280 0
541 540 252 0
541 814 815 0
542 540 1008 0
542 544 540 0
542 547 1130 0
543 552 553 0
543 1009 1129 0
544 252 540 0
544 542 1130 0
544 1130 1011 0
545 546 539 0
545 1010 546 0
546 538 1271 0
546 1010 1191 0
546 1191 547 0
547 542 825 0
548 827 549 0
549 90 548 0
549 827 830 0
549 1131 253 0
550 113 667 0
550 1131 551 0
551 113 550 0
551 828 829 0
551 830 828 0
552 89 553 0
552 543 1129 0
553 250 536 0
553 536 535 0
554 32 816 0
554 257 1225 0
554 837 528 0
555 505 831 0
555 831 1132 0
556 91 833 0
556 571 91 0
556 833 1013 0
557 260 1122 0
557 816 559 0
557 1122 1188 0
558 91 258 0
558 997 260 0
559 32 1193 0
559 1193 259 0
560 261 561 0
560 561 521 0
561 261 1133 0
561 1015 1188 0
563 92 1022 0
563 288 262 0
564 266 562 0
564 562 589 0
564 588 600 0
565 265 1281 0
566 266 567 0
567 569 580 0
567 580 838 0
567 838 1135 0
567 1135 566 0
568 268 569 0
568 569 266 0
569 268 580 0
569 567 266 0
570 602 99 0
570 1333 267 0
571 269 28 0
571 555 258 0
571 556 832 0
571 832 269 0
572 95 596 0
572 596 597 0
572 832 834 0
573 270 840 0
574 271 1020 0
574 279 264 0
575 846 95 0
576 273 1016 0
576 1016 1134 0
576 1261 842 0
577 263 566 0
578 97 274 0
578 1257 1255 0
579 34 1264 0
579 1256 1333 0
580 268 267 0
580 280 838 0
581 278 842 0
581 842 1261 0
581 1258 1262 0
582 843 1024 0
582 844 583 0
582 1024 281 0
583 1239 1245 0
583 1245 990 0
584 283 845 0
585 584 845 0
585 587 1038 0
585 845 587 0
586 103 585 0
586 622 862 0
586 1038 622 0
587 284 1038 0
587 1337 590 0
588 285 1334 0
588 290 601 0
588 564 589 0
589 562 563 0
590 1022 1274 0
591 98 594 0
591 594 595 0
592 28 269 0
592 269 597 0
592 593 1307 0
592 597 1023 0
593 507 1307 0
593 591 595 0
594 98 1026 0
594 1025 595 0
594 1026 1140 0
596 95 846 0
596 287 597 0
596 846 1194 0
597 287 1023 0
597 832 572 0
598 287 1275 0
598 591 1023 0
599 598 1275 0
599 847 1141 0
600 268 568 0
600 568 564 0
600 601 602 0
600 602 570 0
601 291 602 0
601 600 588 0
603 1137 1138 0
604 606 849 0
604 849 1042 0
604 861 851 0
604 1037 861 0
605 36 850 0
605 307 1272 0
605 850 1032 0
605 1272 36 0
606 604 851 0
606 607 106 0
607 606 851 0
607 619 1266 0
607 851 619 0
608 294 856 0
608 630 626 0
609 293 451 0
609 451 452 0
609 852 305 0
610 611 858 0
610 613 854 0
610 618 1035 0
610 854 611 0
610 1035 613 0
611 184 987 0
611 987 781 0
612 611 854 0
612 1033 614 0
613 855 1292 0
616 295 617 0
617 295 618 0
617 618 857 0
617 623 616 0
618 295 1035 0
618 610 858 0
620 286 1031 0
620 301 286 0
620 584 301 0
621 282 301 0
621 301 103 0
623 103 586 0
623 586 862 0
623 862 616 0
624 844 281 0
624 1021 844 0
625 300 857 0
625 857 624 0
626 308 627 0
626 310 308 0
626 627 294 0
627 303 305 0
627 1039 303 0
628 306 437 0
630 848 1043 0
630 1043 1044 0
631 312 866 0
631 455 456 0
631 456 312 0
631 503 311 0
631 866 1278 0
632 824 867 0
632 826 824 0
632 867 868 0
634 633 635 0
634 635 1045 0
635 633 219 0
636 218 73 0
636 635 24 0
637 329 1314 0
637 1048 870 0
639 316 326 0
639 326 638 0
639 642 871 0
640 37 662 0
640 643 317 0
640 871 643 0
641 638 1049 0
641 642 638 0
642 639 638 0
643 319 874 0
644 400 1319 0
644 411 412 0
644 932 1093 0
645 431 948 0
645 771 873 0
647 1040 433 0
648 38 1203 0
648 319 38 0
649 874 319 0
649 1046 874 0
650 682 683 0
650 683 651 0
651 13 398 0
651 745 933 0
652 410 411 0
652 411 655 0
652 656 883 0
652 883 937 0
653 320 1156 0
655 321 656 0
656 109 883 0
656 321 1054 0
656 652 655 0
657 886 322 0
658 472 480 0
658 480 491 0
658 491 796 0
658 796 966 0
659 323 1087 0
659 887 888 0
659 1087 1089 0
660 328 327 0
661 111 1343 0
661 327 1056 0
661 1251 327 0
662 316 640 0
663 373 331 0
663 550 669 0
663 669 373 0
663 1131 550 0
664 539 484 0
665 666 1325 0
665 829 664 0
665 1325 891 0
666 484 485 0
666 1230 1325 0
667 113 891 0
668 1221 1244 0
668 1244 969 0
669 114 1058 0
669 332 114 0
670 672 894 0
670 1061 896 0
671 44 1231 0
671 894 1283 0
671 1158 713 0
673 721 10 0
674 673 345 0
674 906 673 0
674 1277 906 0
675 677 336 0
675 678 677 0
675 907 1277 0
675 1277 346 0
676 336 677 0
676 677 700 0
676 700 1288 0
676 893 895 0
677 678 1352 0
678 346 689 0
678 679 1352 0
679 701 1352 0
680 108 5 0
680 880 1053 0
681 341 1330 0
681 683 682 0
682 876 1205 0
683 13 651 0
683 697 13 0
684 41 1065 0
684 1065 686 0
685 42 879 0
685 342 1289 0
686 685 1160 0
686 1160 684 0
687 688 1289 0
687 1163 688 0
688 42 1289 0
688 699 1330 0
689 344 679 0
689 679 678 0
689 1270 1328 0
690 347 899 0
690 695 692 0
690 899 695 0
690 1161 1067 0
691 347 1067 0
691 414 16 0
692 698 693 0
692 927 690 0
693 927 692 0
694 899 751 0
694 1095 417 0
695 698 692 0
695 899 694 0
696 13 697 0
696 348 1068 0
696 398 13 0
696 1068 1069 0
697 681 1330 0
697 683 681 0
697 699 348 0
698 703 693 0
698 1232 703 0
699 688 1163 0
700 702 892 0
700 892 1288 0
701 677 1352 0
701 679 900 0
701 700 677 0
701 1242 702 0
702 700 701 0
702 1162 1163 0
703 344 693 0
703 679 344 0
703 900 679 0
704 118 707 0
704 349 901 0
704 707 708 0
704 1070 118 0
705 349 905 0
707 706 708 0
708 1075 905 0
709 719 915 0
709 913 1284 0
709 915 913 0
710 43 903 0
710 903 1212 0
710 1084 119 0
710 1212 1284 0
711 906 1277 0
711 907 1059 0
712 350 1283 0
712 672 335 0
713 894 671 0
714 908 1082 0
714 909 910 0
714 910 1079 0
715 1231 44 0
716 353 120 0
716 369 925 0
716 914 353 0
717 121 1083 0
717 350 712 0
717 355 121 0
717 712 335 0
718 904 725 0
718 1170 122 0
719 356 357 0
719 357 916 0
719 709 1166 0
719 916 915 0
719 1165 356 0
719 1166 1165 0
720 122 722 0
720 722 919 0
721 357 919 0
722 1171 919 0
723 383 1290 0
723 918 1105 0
723 1105 962 0
724 918 1170 0
724 1106 918 0
725 904 1341 0
725 1170 718 0
726 362 920 0
726 920 924 0
727 1070 1086 0
728 366 368 0
728 370 925 0
729 372 1340 0
729 1167 372 0
730 372 910 0
731 25 228 0
731 223 224 0
732 782 185 0
733 313 732 0
733 378 1172 0
733 732 378 0
733 795 967 0
734 192 194 0
734 887 380 0
735 380 1088 0
735 442 379 0
735 457 442 0
736 384 1285 0
737 926 388 0
737 1210 926 0
738 344 1328 0
738 388 926 0
738 1328 388 0
739 382 381 0
739 385 382 0
739 737 385 0
740 396 409 0
741 403 744 0
741 742 403 0
742 741 931 0
742 1093 932 0
743 932 1319 0
743 1091 1152 0
744 52 144 0
744 403 1050 0
745 651 141 0
745 746 935 0
746 418 1291 0
746 745 418 0
746 747 936 0
746 936 935 0
747 1291 934 0
748 320 653 0
748 876 1293 0
748 1294 876 0
749 407 1326 0
749 883 407 0
749 936 54 0
750 16 415 0
750 1095 751 0
751 16 750 0
751 347 16 0
752 176 156 0
754 446 1175 0
754 1243 1176 0
755 395 423 0
756 427 1279 0
756 435 1098 0
756 757 424 0
757 756 1098 0
757 1097 1096 0
758 951 1324 0
759 941 648 0
759 1178 941 0
760 755 1096 0
760 759 107 0
760 940 755 0
760 1092 940 0
760 1096 759 0
761 431 873 0
761 873 1179 0
761 1099 764 0
762 395 1315 0
763 160 427 0
764 435 946 0
764 647 761 0
765 308 629 0
765 434 864 0
765 629 434 0
765 864 1039 0
766 437 165 0
766 949 767 0
767 309 850 0
767 949 1100 0
767 1100 309 0
768 166 439 0
769 432 1101 0
769 948 432 0
770 768 769 0
771 645 440 0
771 646 873 0
772 171 173 0
772 441 775 0
772 775 957 0
773 952 954 0
774 785 190 0
774 952 953 0
775 956 957 0
777 445 1102 0
779 447 1309 0
780 62 181 0
780 779 955 0
781 844 1021 0
781 1021 858 0
783 64 187 0
783 186 64 0
784 1112 1295 0
784 1113 1112 0
785 177 190 0
785 458 786 0
785 774 65 0
786 1253 1104 0
787 191 953 0
787 782 455 0
787 1181 782 0
788 461 464 0
788 464 383 0
788 958 461 0
788 962 1182 0
789 460 888 0
789 462 960 0
790 470 963 0
790 963 1106 0
791 474 22 0
793 71 1345 0
793 479 210 0
793 965 479 0
794 216 1327 0
794 481 214 0
794 792 216 0
794 1321 480 0
795 74 967 0
795 486 1108 0
795 733 486 0
796 487 966 0
796 491 1297 0
797 483 218 0
798 482 1109 0
799 1263 1110 0
800 26 223 0
801 230 974 0
802 801 974 0
802 974 975 0
803 977 1115 0
803 978 977 0
803 1115 980 0
803 1117 979 0
804 980 1115 0
804 981 982 0
804 982 984 0
804 985 980 0
805 983 1116 0
805 984 983 0
805 1116 1186 0
806 230 80 0
806 499 1186 0
806 1116 230 0
807 808 1295 0
807 992 1119 0
807 1295 1317 0
808 82 993 0
808 993 1295 0
809 513 1260 0
809 972 1113 0
810 998 1125 0
810 1125 997 0
811 523 812 0
811 998 1123 0
811 1123 522 0
811 1124 998 0
812 560 521 0
813 818 522 0
813 1123 1120 0
814 541 999 0
814 1002 1126 0
815 814 1126 0
815 1008 541 0
815 1126 822 0
816 32 559 0
816 1015 837 0
817 243 87 0
817 248 1005 0
817 1005 515 0
818 813 85 0
818 1004 1001 0
818 1128 1004 0
819 250 242 0
819 534 536 0
819 536 250 0
820 523 1322 0
820 530 531 0
821 254 535 0
821 536 534 0
822 824 815 0
822 867 824 0
823 73 538 0
823 826 1007 0
823 1007 73 0
825 538 547 0
825 1008 826 0
826 823 825 0
826 1008 824 0
827 1009 1246 0
828 545 664 0
828 830 1010 0
828 1010 545 0
829 665 891 0
829 828 664 0
830 1131 549 0
832 556 834 0
832 597 269 0
833 259 1193 0
834 556 1013 0
834 835 95 0
834 1139 835 0
835 1020 1259 0
835 1195 1020 0
835 1259 95 0
836 246 86 0
836 837 1133 0
836 1014 246 0
837 554 816 0
837 1015 1133 0
838 280 1258 0
838 1134 1135 0
838 1261 1134 0
839 291 1138 0
840 289 1018 0
840 1018 1299 0
841 574 1020 0
841 1019 1281 0
841 1020 1195 0
843 582 583 0
844 582 281 0
844 1239 583 0
845 283 1335 0
846 573 1030 0
846 575 573 0
846 1030 1194 0
847 286 1141 0
847 599 1136 0
847 1031 286 0
848 608 853 0
848 615 1041 0
848 630 608 0
848 1041 1043 0
849 606 307 0
849 1032 1143 0
850 309 1147 0
852 452 1033 0
852 609 452 0
853 608 856 0
853 615 848 0
853 1034 615 0
854 613 1292 0
855 853 856 0
855 1034 853 0
855 1146 1034 0
856 852 1033 0
856 1292 855 0
857 300 617 0
857 618 858 0
858 611 781 0
859 101 1310 0
860 104 1303 0
860 859 1144 0
860 1303 859 0
861 297 851 0
861 1037 1199 0
862 622 1036 0
862 1036 1227 0
863 302 622 0
863 622 1038 0
864 865 1039 0
864 947 865 0
866 502 1278 0
866 868 867 0
867 502 866 0
868 866 312 0
868 1045 632 0
869 637 1282 0
869 1229 1048 0
869 1282 1287 0
870 112 329 0
870 315 112 0
871 640 316 0
871 642 872 0
872 38 643 0
872 642 1148 0
872 643 871 0
872 1148 1202 0
873 431 645 0
873 646 1179 0
874 1046 318 0
875 1052 1205 0
875 1294 1053 0
877 1053 1294 0
878 1205 1052 0
879 878 1052 0
879 1153 1160 0
880 680 1154 0
880 1052 875 0
880 1154 881 0
881 116 339 0
881 339 684 0
881 684 1160 0
882 885 51 0
883 749 937 0
884 108 877 0
884 877 653 0
884 882 142 0
884 1241 882 0
885 405 143 0
886 205 469 0
886 657 324 0
887 193 888 0
887 659 1089 0
887 1089 380 0
888 66 659 0
888 193 789 0
889 37 1287 0
889 890 1055 0
890 889 1282 0
890 1282 1314 0
891 1221 667 0
892 702 687 0
892 1062 1288 0
893 676 1288 0
893 713 1158 0
893 1061 713 0
893 1158 895 0
894 672 712 0
894 712 1283 0
894 713 670 0
895 1060 336 0
895 1158 1060 0
896 1061 1062 0
896 1064 898 0
897 686 1065 0
897 1062 1063 0
897 1064 896 0
897 1065 1064 0
898 335 672 0
898 337 335 0
898 670 896 0
898 672 670 0
898 1064 115 0
900 1232 1242 0
900 1242 701 0
901 349 1073 0
901 902 1086 0
901 1070 704 0
902 901 1073 0
903 705 905 0
904 361 1341 0
904 718 1074 0
904 1074 1211 0
904 1211 1273 0
905 1076 903 0
906 711 1077 0
906 916 673 0
906 1077 916 0
907 675 336 0
907 711 1277 0
908 714 1079 0
908 1079 1213 0
908 1080 1082 0
908 1213 1233 0
909 714 1168 0
910 909 1078 0
910 1078 730 0
911 1083 121 0
912 1084 1209 0
913 1209 1084 0
914 925 1323 0
916 721 673 0
917 384 196 0
917 1285 384 0
918 723 1169 0
919 10 721 0
921 724 923 0
921 790 1106 0
921 1085 922 0
922 199 360 0
922 360 921 0
923 725 1085 0
923 1085 921 0
924 46 359 0
924 202 1332 0
924 1332 726 0
925 369 728 0
925 370 1323 0
925 914 716 0
927 693 738 0
927 738 926 0
928 137 393 0
928 393 1214 0
929 400 1174 0
929 940 1092 0
929 1174 139 0
930 408 401 0
931 53 146 0
931 404 1093 0
932 644 1319 0
932 1149 742 0
933 650 651 0
933 745 935 0
933 935 1204 0
934 396 408 0
934 399 409 0
935 1326 1204 0
936 749 1326 0
937 54 410 0
938 50 1235 0
938 147 50 0
938 750 147 0
939 779 1308 0
939 1308 754 0
940 139 395 0
940 929 139 0
941 319 648 0
941 649 319 0
941 1177 649 0
942 1177 1178 0
942 1178 1097 0
942 1179 758 0
943 424 762 0
943 756 424 0
943 762 1320 0
944 152 752 0
944 752 156 0
945 425 426 0
945 426 152 0
946 1040 764 0
947 864 1040 0
948 431 432 0
948 439 645 0
948 768 439 0
948 769 768 0
949 770 950 0
949 950 1100 0
950 770 769 0
950 1101 1100 0
951 646 771 0
951 758 646 0
951 1229 1347 0
952 773 1181 0
952 956 954 0
952 1181 953 0
954 441 442 0
954 442 457 0
954 457 773 0
954 956 775 0
955 779 939 0
955 1253 780 0
956 952 774 0
957 956 190 0
958 204 203 0
958 1182 1107 0
959 195 463 0
960 461 460 0
960 959 461 0
961 22 1331 0
961 1107 964 0
962 383 723 0
963 964 1182 0
963 1182 1105 0
964 963 470 0
964 1107 1182 0
965 475 1351 0
965 477 479 0
965 793 475 0
966 322 658 0
968 483 797 0
968 484 1280 0
969 1263 333 0
970 78 497 0
970 799 1111 0
970 1111 1183 0
971 241 80 0
971 1184 973 0
972 809 1260 0
973 241 971 0
973 972 1260 0
973 1112 972 0
974 231 180 0
975 180 1267 0
975 974 180 0
975 1268 186 0
976 186 783 0
976 783 992 0
977 1114 1185 0
977 1185 1115 0
978 614 453 0
978 803 979 0
978 979 614 0
979 184 612 0
979 612 614 0
981 179 982 0
981 450 179 0
981 804 1115 0
981 1115 1185 0
982 983 984 0
983 63 1350 0
983 982 63 0
984 805 985 0
984 985 804 0
985 805 989 0
986 803 980 0
986 980 985 0
986 985 989 0
986 1117 803 0
987 1117 1223 0
987 1239 781 0
988 1245 1118 0
989 805 1186 0
989 1186 1118 0
989 1187 986 0
990 232 843 0
990 500 232 0
990 843 583 0
991 503 1301 0
991 504 808 0
991 807 1119 0
991 808 807 0
991 1119 1103 0
992 807 1317 0
993 524 784 0
993 525 1306 0
993 784 1295 0
994 234 511 0
994 237 995 0
996 518 1120 0
996 810 1012 0
996 1012 1121 0
997 558 1192 0
998 810 1120 0
998 1124 1125 0
999 541 252 0
999 1190 1298 0
1000 235 1126 0
1000 525 82 0
1000 1189 525 0
1001 530 1322 0
1002 814 999 0
1002 999 1298 0
1002 1003 1000 0
1003 1002 1298 0
1003 1004 1189 0
1003 1189 1000 0
1004 1127 1001 0
1004 1128 1189 0
1006 531 530 0
1007 1045 636 0
1008 540 541 0
1008 815 824 0
1008 825 542 0
1009 543 1011 0
1009 827 548 0
1010 830 827 0
1011 254 544 0
1013 833 1193 0
1013 1193 1240 0
1014 261 1286 0
1014 836 1133 0
1014 1133 261 0
1014 1286 1329 0
1014 1329 246 0
1015 561 1133 0
1015 816 557 0
1016 577 1135 0
1017 1224 1300 0
1018 839 1300 0
1019 257 565 0
1019 565 1281 0
1019 841 1195 0
1019 1225 257 0
1019 1240 1225 0
1020 271 1259 0
1021 624 857 0
1021 857 858 0
1022 92 1302 0
1022 589 563 0
1023 591 593 0
1023 593 592 0
1024 843 1029 0
1024 1027 281 0
1024 1029 1140 0
1025 594 1140 0
1025 1140 1029 0
1026 98 1141 0
1026 1027 1140 0
1026 1142 1027 0
1027 1028 281 0
1027 1142 282 0
1028 282 621 0
1028 621 625 0
1028 624 281 0
1028 625 624 0
1028 1027 282 0
1029 843 501 0
1031 847 1136 0
1031 1136 1137 0
1032 850 1147 0
1032 1147 1143 0
1033 612 854 0
1033 854 1292 0
1034 1196 1200 0
1034 1200 615 0
1035 1146 613 0
1036 860 1198 0
1037 604 292 0
1038 284 863 0
1038 586 585 0
1039 308 765 0
1039 627 308 0
1039 865 303 0
1040 647 764 0
1040 864 433 0
1040 946 947 0
1041 292 1042 0
1042 849 1143 0
1043 1041 1143 0
1044 1147 309 0
1045 635 636 0
1045 826 632 0
1045 868 634 0
1045 1007 826 0
1046 649 1324 0
1047 168 169 0
1047 169 315 0
1047 315 1048 0
1047 1048 1342 0
1048 637 869 0
1048 1229 1342 0
1049 145 1151 0
1049 638 14 0
1049 1150 641 0
1050 1216 1150 0
1051 1203 1202 0
1052 880 1153 0
1053 877 108 0
1053 880 875 0
1054 321 1155 0
1055 328 662 0
1055 662 889 0
1055 890 1056 0
1057 373 669 0
1057 376 1338 0
1057 1338 129 0
1058 334 376 0
1058 376 1057 0
1058 1057 669 0
1059 907 1060 0
1060 907 336 0
1061 670 713 0
1061 893 1288 0
1062 892 1063 0
1062 897 896 0
1062 1061 1288 0
1063 343 342 0
1064 338 115 0
1064 1065 338 0
1065 41 338 0
1066 197 416 0
1066 739 381 0
1066 1161 1210 0
1066 1210 739 0
1067 1066 416 0
1067 1161 1066 0
1068 348 1232 0
1068 695 1069 0
1068 698 695 0
1069 695 694 0
1070 727 365 0
1070 901 1086 0
1071 727 1086 0
1072 729 1340 0
1072 902 729 0
1073 705 1311 0
1074 718 122 0
1074 1164 1211 0
1074 1165 1164 0
1075 706 1211 0
1075 708 706 0
1075 1211 1164 0
1076 905 1075 0
1076 1075 1164 0
1076 1166 1212 0
1076 1212 903 0
1077 711 1059 0
1077 913 915 0
1077 915 916 0
1077 1059 1208 0
1078 909 126 0
1078 1323 730 0
1079 372 1167 0
1079 910 372 0
1079 1167 1213 0
1080 350 1083 0
1080 908 1296 0
1081 44 1283 0
1081 1080 1296 0
1082 1080 1083 0
1082 1083 911 0
1082 1168 714 0
1083 350 717 0
1084 710 1284 0
1084 912 119 0
1085 725 1341 0
1086 127 1071 0
1086 902 1072 0
1088 377 735 0
1088 378 377 0
1088 1089 1087 0
1089 1088 380 0
1090 390 1214 0
1090 414 691 0
1090 1215 414 0
1091 400 929 0
1091 743 1319 0
1092 760 107 0
1092 1091 929 0
1093 742 931 0
1094 141 417 0
1094 1235 418 0
1095 694 751 0
1095 750 938 0
1095 1094 417 0
1096 423 757 0
1096 755 423 0
1096 1178 759 0
1097 757 1098 0
1097 1098 942 0
1097 1178 1096 0
1098 435 1099 0
1098 1099 942 0
1099 1179 942 0
1100 629 1312 0
1100 1101 629 0
1101 950 769 0
1102 1243 777 0
1103 187 1269 0
1103 311 503 0
1104 785 786 0
1105 918 1106 0
1106 724 921 0
1106 963 1105 0
1107 961 1331 0
1108 487 795 0
1108 657 966 0
1109 217 485 0
1109 1219 1218 0
1110 969 1244 0
1110 1111 799 0
1111 1237 1222 0
1112 973 1184 0
1112 1184 1317 0
1113 784 516 0
1113 972 1112 0
1114 178 778 0
1114 453 454 0
1114 778 1185 0
1116 231 230 0
1116 806 1186 0
1117 184 979 0
1117 986 1187 0
1117 1187 1223 0
1119 783 187 0
1119 992 783 0
1120 810 996 0
1121 1132 831 0
1122 997 1125 0
1122 1124 1188 0
1123 813 522 0
1123 998 1120 0
1124 811 521 0
1124 1122 1125 0
1126 235 822 0
1126 1002 1000 0
1127 1003 1298 0
1127 1004 1003 0
1128 85 526 0
1128 244 1306 0
1129 31 255 0
1129 90 31 0
1129 548 90 0
1129 1009 548 0
1130 547 1191 0
1130 1191 1246 0
1130 1246 1011 0
1131 331 253 0
1131 663 331 0
1131 830 551 0
1132 1012 1192 0
1132 1121 1012 0
1134 1016 1135 0
1134 1261 576 0
1135 577 566 0
1136 599 1275 0
1136 1017 1137 0
1136 1275 1017 0
1137 1017 1138 0
1138 1300 839 0
1139 834 1013 0
1139 1013 1240 0
1140 1027 1024 0
1141 286 1142 0
1142 1026 1141 0
1143 1041 1042 0
1144 1199 1349 0
1145 1144 1349 0
1145 1198 1144 0
1146 855 613 0
1146 1196 1034 0
1146 1226 1196 0
1147 1043 1143 0
1147 1044 1043 0
1148 641 1150 0
1148 642 641 0
1148 1150 1216 0
1148 1216 1202 0
1149 932 743 0
1150 1151 1050 0
1151 744 1050 0
1151 1150 1049 0
1152 1051 743 0
1153 879 1052 0
1153 880 881 0
1153 881 1160 0
1154 116 881 0
1155 1156 1054 0
1155 1241 1156 0
1156 109 1054 0
1157 324 657 0
1157 657 1108 0
1157 1207 324 0
1158 671 1231 0
1159 1059 1060 0
1159 1060 1158 0
1159 1158 1231 0
1159 1209 1208 0
1159 1231 715 0
1160 685 879 0
1161 690 927 0
1161 926 1210 0
1161 927 926 0
1162 348 699 0
1162 702 1242 0
1163 687 702 0
1163 1162 699 0
1164 1166 1076 0
1166 709 1212 0
1166 1164 1165 0
1167 371 1213 0
1167 729 128 0
1168 126 909 0
1168 911 354 0
1168 1082 911 0
1169 723 1290 0
1169 1290 917 0
1170 725 923 0
1170 923 724 0
1171 1169 917 0
1172 1088 1087 0
1173 1214 393 0
1174 400 412 0
1175 178 753 0
1175 446 178 0
1175 753 1217 0
1175 1217 1243 0
1176 448 939 0
1176 449 448 0
1176 939 754 0
1177 942 758 0
1177 1324 649 0
1178 1177 941 0
1179 646 758 0
1179 1099 761 0
1180 57 763 0
1180 763 427 0
1180 945 944 0
1180 1236 945 0
1181 185 782 0
1181 773 185 0
1181 787 953 0
1182 958 788 0
1182 962 1105 0
1183 494 78 0
1183 1111 1222 0
1185 778 981 0
1186 988 1118 0
1187 989 1118 0
1188 521 561 0
1188 1015 557 0
1188 1124 521 0
1189 1128 1306 0
1190 537 1006 0
1190 1006 530 0
1190 1127 1298 0
1191 1010 1246 0
1192 258 1132 0
1192 558 258 0
1192 810 997 0
1192 1012 810 0
1194 1030 1224 0
1195 835 1139 0
1195 1139 1240 0
1196 1226 1145 0
1196 1349 1200 0
1197 295 616 0
1197 616 1227 0
1197 1227 1198 0
1198 860 1144 0
1198 1145 1197 0
1199 1037 1200 0
1199 1144 1310 0
1199 1200 1349 0
1199 1310 297 0
1200 1037 292 0
1201 771 440 0
1201 951 771 0
1201 1047 1342 0
1202 1203 38 0
1203 107 648 0
1203 1051 1152 0
1204 406 1293 0
1204 650 933 0
1205 341 682 0
1205 876 875 0
1205 878 341 0
1206 405 885 0
1206 882 1241 0
1206 885 882 0
1206 1155 654 0
1207 323 324 0
1207 486 1172 0
1207 1157 486 0
1207 1172 1087 0
1208 913 1077 0
1208 1059 1159 0
1209 715 912 0
1209 913 1208 0
1209 1159 715 0
1210 737 739 0
1212 709 1284 0
1214 390 928 0
1214 1173 1215 0
1214 1215 1090 0
1216 743 1051 0
1216 1050 1149 0
1216 1051 1202 0
1216 1149 743 0
1217 753 56 0
1218 491 798 0
1218 798 1109 0
1218 1220 1297 0
1219 485 968 0
1219 968 797 0
1219 1220 1218 0
1220 489 1297 0
1220 1219 797 0
1221 668 332 0
1221 891 1247 0
1222 494 1183 0
1222 1238 495 0
1222 1248 1238 0
1223 1118 1245 0
1223 1187 1118 0
1223 1239 987 0
1224 1030 1299 0
1224 1276 1194 0
1224 1299 1300 0
1225 32 554 0
1225 1240 1193 0
1226 1146 1035 0
1226 1197 1145 0
1227 616 862 0
1227 1036 1198 0
1228 318 1046 0
1228 869 1287 0
1228 1046 1347 0
1229 869 1228 0
1229 951 1201 0
1229 1201 1342 0
1229 1228 1347 0
1230 217 1348 0
1230 666 217 0
1230 1238 1248 0
1230 1248 1344 0
1232 348 1162 0
1232 698 1068 0
1232 900 703 0
1233 1213 371 0
1233 1296 908 0
1234 722 1170 0
1234 918 1169 0
1234 1169 1171 0
1234 1170 918 0
1234 1171 722 0
1235 1094 1095 0
1235 1095 938 0
1236 427 943 0
1236 943 425 0
1237 1110 1244 0
1237 1111 1110 0
1237 1244 1247 0
1237 1247 1248 0
1238 482 1327 0
1238 1230 1348 0
1239 844 781 0
1240 1019 1195 0
1241 653 1156 0
1241 884 653 0
1241 1155 1206 0
1242 1232 1162 0
1243 754 1175 0
1243 1102 1176 0
1243 1217 777 0
1245 988 990 0
1245 1239 1223 0
1246 1009 1011 0
1246 1010 827 0
1247 891 1325 0
1247 1244 1221 0
1247 1325 1344 0
1248 1222 1237 0
1248 1247 1344 0
1250 256 253 0
1250 331 8 0
1251 661 1343 0
1252 44 1081 0
1252 912 715 0
1252 1081 1296 0
1252 1233 119 0
1253 786 62 0
1253 955 183 0
1254 240 236 0
1255 1257 1264 0
1256 267 1333 0
1256 579 1262 0
1257 578 278 0
1257 581 1262 0
1257 1262 1264 0
1258 581 1261 0
1258 1256 1262 0
1259 575 95 0
1261 838 1258 0
1262 579 1264 0
1263 799 79 0
1263 969 1110 0
1265 131 374 0
1265 1338 131 0
1267 62 188 0
1267 180 181 0
1267 188 1268 0
1267 1268 975 0
1269 311 1103 0
1270 388 1328 0
1270 689 117 0
1271 483 1280 0
1272 628 36 0
1273 1211 706 0
1274 1022 1302 0
1275 287 1276 0
1275 1276 1017 0
1276 1224 1017 0
1278 502 1301 0
1282 637 1314 0
1282 889 1287 0
1283 44 671 0
1284 913 1084 0
1285 1290 132 0
1286 529 1329 0
1287 37 318 0
1287 318 1228 0
1290 1285 917 0
1291 747 746 0
1292 856 1033 0
1293 406 748 0
1293 650 1204 0
1293 682 650 0
1293 876 682 0
1294 653 877 0
1294 748 653 0
1294 875 876 0
1295 1112 1317 0
1296 1233 1252 0
1297 1318 796 0
1299 573 840 0
1299 1018 1300 0
1299 1030 573 0
1300 1138 1017 0
1303 101 859 0
1304 355 717 0
1307 505 28 0
1308 779 1309 0
1310 1144 859 0
1311 43 371 0
1312 1044 309 0
1313 205 324 0
1315 397 740 0
1315 740 394 0
1315 1320 762 0
1316 138 50 0
1317 1184 498 0
1318 1297 489 0
1320 1315 394 0
1321 794 1327 0
1323 1078 914 0
1324 1177 758 0
1324 1347 1046 0
1325 1230 1344 0
1326 406 1204 0
1326 935 936 0
1330 699 697 0
1331 205 1313 0
1331 1313 204 0
1332 1339 726 0
1333 570 99 0
1334 285 1337 0
1337 587 845 0
1337 845 1335 0
1337 1335 1334 0
1339 67 468 0
1339 362 726 0
1340 370 1072 0
1340 730 370 0
1345 69 23 0
1346 212 1351 0
1347 1324 951 0
1349 1196 1145 0

End
