MeshVersionFormatted 1

Dimension
2

Vertices
1386
0.0 0.0 1
1.0 0.0 1
1.0 1.0 1
0.0 1.0 1
0.5 0.0 1
1.0 0.5 1
0.2525730190319127 0.4937385700295677 0
0.0 0.5 1
0.0 0.75 1
0.25 1.0 1
0.3826274242746274 0.7542225316504737 0
0.7380405020726978 0.733335751414779 0
0.5326491051478678 0.5115908875619035 0
0.3884485426683929 0.5758166500473166 0
0.7567194361166695 0.335790039486616 0
0.6785236441435541 0.4484103184147557 0
0.8494733571733878 0.5676228700854345 0
0.7834786671194315 0.460667652588943 0
1.0 0.25 1
0.7493516007728515 0.529058293752926 0
0.5326474041906752 0.24151092681414937 0
0.5416135009060004 0.3798495450644247 0
0.6229120623994828 0.26397582567706435 0
0.625 0.0 1
0.6906490228735951 0.10864089881189402 0
0.37844023066163185 0.3616716667524642 0
0.47663273010932283 0.4424201103708019 0
0.5120388464619755 0.32937501370152367 0
0.25 0.0 1
0.5621918366669298 0.600723972072993 0
0.5608823034688484 0.8532915961367535 0
0.4837486467808448 0.7510301151443592 0
0.375 1.0 1
0.43994334310868904 0.8936251849934316 0
0.292262322429005 0.8777072429541687 0
0.28285194510363587 0.7720011086351994 0
0.13226176173746304 0.8925369726077195 0
0.125 1.0 1
0.0 0.25 1
0.0 0.375 1
0.18889551236891217 0.5824345323268894 0
0.0 0.625 1
0.10322141918764668 0.28579896359733514 0
0.125 0.0 1
0.0 0.125 1
0.25248696600402615 0.15961432754064114 0
0.4838173986192158 0.13849749911201642 0
0.375 0.0 1
0.3288966248598109 0.10128061666637231 0
0.5748970613847643 0.16956646103419115 0
0.5587232459068836 0.05530805916622658 0
0.8876132647189799 0.14848859653879332 0
0.8306687959162464 0.2493185796829887 0
1.0 0.125 1
0.875 0.0 1
1.0 0.75 1
0.867913781714931 0.6923670800271151 0
1.0 0.625 1
0.9346321220834471 0.5936714445562918 0
0.7898262596909019 0.6457954006312673 0
0.833255633871357 0.8448855990921589 0
1.0 0.875 1
0.7077296575432404 0.9095732314174543 0
0.6048292929337004 0.9239345081282929 0
0.9246807727946129 0.9096023538655196 0
0.47269293046519134 0.5351887522731834 0
0.7090206018232991 0.665186183856124 0
0.5872996196740886 0.5801151306509504 0
0.5894835897843219 0.4629061331897044 0
1.0 0.4351855739713241 1
1.0 0.3172234259301113 1
0.8199416086223799 0.33897075767005425 0
0.9716079616834453 0.3720110931310049 0
0.7722653461812232 0.5585529980594579 0
0.5487751930746454 0.44631830196716127 0
0.6126324512144294 0.4054414973847982 0
0.5912180404709161 0.3189097046331731 0
0.6876872765126851 0.0 1
0.5588683592975177 0.0 1
0.6379116470406294 0.03161659478014594 0
0.7050934609971539 0.03366450885890977 0
0.510573379731196 0.38673671047223523 0
0.4309538446045934 0.39676188507435733 0
0.434647619724254 0.33987182158930507 0
0.4842204325993671 0.37344588454045446 0
0.4735056618303503 0.21238386772361872 0
0.37863407345205063 0.44218372137227324 0
0.4165677338845558 0.45345934622564055 0
0.687290375994939 0.7071759485302263 0
0.5108851565258838 0.941027734306409 0
0.5690693064295287 1.0 1
0.687600821073978 1.0 1
0.5372955529016508 0.8029480694251921 0
0.3138501521153192 1.0 1
0.43853201321224394 1.0 1
0.40527687168699567 0.9479272943754573 0
0.33799246606524586 0.8066212015124253 0
0.374896959487904 0.877311196979237 0
0.2861576686140967 0.8231624320434716 0
0.32816502805881875 0.7742825879064329 0
0.21267564270894493 0.7228956763161564 0
0.22891470185907092 0.6779377498503939 0
0.33640714508722264 0.5922170762756929 0
0.054839703645337246 1.0 1
0.18057087892654294 1.0 1
0.09197807026710993 0.964478889036932 0
0.1623262256071293 0.8820166595625921 0
0.3310333580563533 0.2516520897132015 0
0.21119893892165786 0.3306685764809297 0
0.038013212578099205 0.4559094955772304 0
0.0 0.3192279714896925 1
0.0 0.4409388539544832 1
0.052978312429904036 0.4980615780421727 0
0.2506416000684316 0.6191671854200677 0
0.15461959107591614 0.5703082011230235 0
0.021562595266225292 0.7117458063855413 0
0.0 0.5579117948882594 1
0.0 0.6876515109314282 1
0.05800707450970616 0.28373216264194345 0
0.1927374537269549 0.0 1
0.052982798337561386 0.0 1
0.059165798727274246 0.20777410131207916 0
0.13646533647672682 0.06149295871353141 0
0.0 0.0481177331913243 1
0.0 0.19254173253113652 1
0.046468171898593605 0.13528131040279034 0
0.3107641198931392 0.1629573131449788 0
0.14069039031377675 0.12324395949188302 0
0.2201885048819252 0.1275684245375463 0
0.5094858111595647 0.06034295754765178 0
0.5031665327706937 0.18149259148664204 0
0.43143245863949076 0.147208162080006 0
0.43917144639346906 0.0 1
0.31297509111319927 0.0 1
0.28561823395410496 0.11644434397152938 0
0.36351666757461065 0.02963766723886612 0
0.3586458705905511 0.1494298157054244 0
0.6062485693037779 0.030539531672361217 0
0.5642904334686955 0.1101343307627799 0
0.28743544205919513 0.5111761919472979 0
0.8238858212727583 0.06800231949117044 0
0.7925472448278479 0.2990769103350557 0
0.7371975068531526 0.14151659108098652 0
0.8968714552520144 0.43567229974655924 0
1.0 0.18293306144839255 1
1.0 0.055921810743509326 1
0.9428573867094294 0.0 1
0.8172328050629817 0.0 1
0.8825266534950583 0.05583825902266305 0
0.1484471099163774 0.7449397458607918 0
0.8218980820902203 0.7206702084108265 0
1.0 0.688257315942262 1
1.0 0.5640332003380076 1
0.7625545092563566 0.6910457486614464 0
0.8431152700256686 0.666547579310256 0
0.7772461425387099 0.911704212936423 0
0.7528553992306692 0.8303629077337835 0
0.942800707845339 0.7271431904403132 0
0.8885206920744833 0.7085555731839144 0
0.8904681208922363 0.8435921244053629 0
1.0 0.9393752925305989 1
1.0 0.8168407443580274 1
0.7788107123155871 0.8784533976652755 0
0.7280230985389159 0.8161868010929884 0
0.6851917490399863 0.8465877521153676 0
0.6267525363943021 0.9643676984111654 0
0.6054947732336353 0.8936520872639551 0
0.6678028029361902 0.903661992393147 0
0.9642184969587766 0.9093863260056577 0
0.879265577582168 0.8990468569932577 0
0.0 0.9431885952846392 1
0.05924825282011101 0.8895529727668795 0
0.5151657140001453 0.5463820146741681 0
0.4469700772169621 0.5608572371380681 0
0.7356404668388729 0.6754818154410165 0
0.5634408634863433 0.5362730181086985 0
0.6268712720338379 0.5772178200978119 0
0.6352278085838097 0.47054953563884316 0
0.5596428775653678 0.4899673677440777 0
0.7689313924804623 0.3617885793092584 0
0.7203499028271522 0.42579871813106457 0
0.7457307770496577 0.4614769971465731 0
0.8314126195351466 0.5257641828950056 0
1.0 0.46697032640587577 1
1.0 0.28497965375059187 1
0.8651937914697879 0.36095347379050363 0
0.787524069178288 0.33106218326994913 0
0.7982005527881786 0.36085075817236445 0
0.9294668032806005 0.3828259420053098 0
0.8586137646434823 0.3955320227452187 0
0.829676661429918 0.3711608014575296 0
0.709456181537155 0.5314085866982969 0
0.6981651781276853 0.5861874364561314 0
0.7115905710389226 0.46459797362474853 0
0.7282496519495618 0.49535011383025307 0
0.8051984524694554 0.49418242047875865 0
0.788014979907919 0.5269031224660331 0
0.555997870652752 0.410309670930305 0
0.5210669991197057 0.4781450762803165 0
0.6139223493357144 0.43752265435818083 0
0.581095145700197 0.39053138738356524 0
0.6437494019530585 0.42539734560138537 0
0.5098816704536591 0.3038408206622809 0
0.5389809536164559 0.34059196622501847 0
0.6677438025412579 0.2933175150416052 0
0.5744769547772727 0.3529341874221037 0
0.6097878902711109 0.37050259668437713 0
0.6033613007395563 0.2913585984278257 0
0.5617775106462288 0.31725358769075795 0
0.5802488247945045 0.24706596067213663 0
0.598966705198591 0.26589151282732687 0
0.7188901773296165 0.0 1
0.6563907384903315 0.0 1
0.590916868391765 0.0 1
0.5421292232050858 0.0291043270963805 0
0.6636483559453906 0.1823834443109287 0
0.6562703996458827 0.06581476531051349 0
0.6856151755111832 0.055026879969999734 0
0.49655785828410115 0.5086475711417527 0
0.5251079190083228 0.41229416930131296 0
0.4053903258622925 0.37992992987323804 0
0.44718242660938795 0.4236063633611779 0
0.4853093664306794 0.31364717420248084 0
0.5167182126886947 0.2633426139915422 0
0.41095418609202994 0.34879723932405815 0
0.433725882310415 0.3674005263169292 0
0.4872649100556395 0.41164589865948464 0
0.4874994571690622 0.3439576859482199 0
0.4558099794078351 0.38652991542027354 0
0.49336789888198945 0.2281607289302078 0
0.4309217781904109 0.2147587083381496 0
0.47042113770749694 0.2655685617953278 0
0.32007249823275985 0.491695908391585 0
0.3578012972847769 0.5101272238996805 0
0.376569068086537 0.5450882513497293 0
0.4351672367933472 0.5268221480756475 0
0.3678434491174631 0.39983020709528894 0
0.4087026712810694 0.4157767066771689 0
0.3884848833171551 0.4788210906354346 0
0.5567715509882514 0.624421891346599 0
0.644999435086482 0.6072866508781617 0
0.7377028887593637 0.7054735738254129 0
0.5363261717137878 0.6719544552172277 0
0.6546316706362276 0.6324864018213072 0
0.6270416717813639 0.6332614158836699 0
0.5463282266138748 0.906614363284423 0
0.4873500173295643 0.9200233476608539 0
0.5365455287672407 1.0 1
0.6665031937968595 0.9629727256418616 0
0.5480645878930319 0.6916410713426406 0
0.5169691562948294 0.7182622637552226 0
0.4063616441928937 0.7484400629743506 0
0.5043997283056575 0.7629145913178317 0
0.49584907108494625 0.8044021786732966 0
0.2822773953997469 1.0 1
0.3447482265601794 1.0 1
0.40703261863742085 1.0 1
0.469515577042862 1.0 1
0.45919492898501374 0.8782469947011348 0
0.5359689729985476 0.8544681753452988 0
0.5187828276741396 0.8268464555619843 0
0.388766577331114 0.9705363252146872 0
0.4221381982517273 0.9712065243919521 0
0.41463556480393876 0.9250416845369643 0
0.4011358986615445 0.795820959628433 0
0.41892105120822326 0.8060112187539272 0
0.26191376210456757 0.973508443357523 0
0.29688552843562016 0.9669512124640918 0
0.30895948589413325 0.8361946158038078 0
0.3726566888491062 0.8173215745594077 0
0.4201946068182535 0.8843814911302892 0
0.38878675175154087 0.8419847351143487 0
0.33192119210302784 0.8807560100105126 0
0.40003693763958686 0.9099927058787635 0
0.2737298531947224 0.7889350382608147 0
0.2816235413639861 0.838511227695274 0
0.3013396595878741 0.8231558633713748 0
0.33464707836033075 0.7896711395384901 0
0.3102053911042536 0.7777837559083844 0
0.3584732834399468 0.7551910647513619 0
0.19064529909778954 0.7125041456593829 0
0.24069923266619586 0.7571535980371292 0
0.2547605641298555 0.667575061889586 0
0.20805818075557014 0.6976755097359963 0
0.23320364665052917 0.707349004319501 0
0.351239061047542 0.7176497200969706 0
0.3292679592432811 0.7214421292776525 0
0.041104323395089924 0.9585451373552029 0
0.15141143807728494 1.0 1
0.21314167353320568 1.0 1
0.24018068980302373 0.9524070526729937 0
0.2692602426254442 0.8796818998524887 0
0.26402244153515203 0.8451798824635657 0
0.1197902911931378 0.9296194219672371 0
0.3560169461442611 0.331430484382503 0
0.38751350819873526 0.3256343985538683 0
0.3046746514912875 0.2570015064736037 0
0.3679929978985776 0.22920600963801227 0
0.19931898730316766 0.2780199900299817 0
0.2408027860149783 0.20525398931746283 0
0.28663880622564886 0.47504245098758124 0
0.20678813396767515 0.30415081330683913 0
0.23418557885982316 0.31774901222018886 0
0.26854808956437753 0.34719207321069534 0
0.3207361897479729 0.3293713570672347 0
0.20482395589483518 0.3862556146878193 0
0.20510966564529526 0.4279376806511812 0
0.0 0.2866831512727637 1
0.0 0.3484575135011549 1
0.055220287944344935 0.309492288245433 0
0.10704676908611549 0.4067893217288748 0
0.11331313444722475 0.44754494290840724 0
0.07550507333106832 0.4650204300590937 0
0.1237778497177568 0.5438306302455753 0
0.17861161132042488 0.5355630721292116 0
0.18861650871705002 0.6922569290942318 0
0.2002438323751529 0.6738976241753032 0
0.23926688881202776 0.6500676368564837 0
0.2263360841800586 0.5908758848022093 0
0.2721026423026362 0.6495857803124343 0
0.04718476116964959 0.7498117214885628 0
0.1297836472596579 0.5878864384071519 0
0.14413438694300207 0.6932879920324475 0
0.10785408078016398 0.6583044960451256 0
0.0 0.5901325567056159 1
0.03209191161471389 0.5321900927271475 0
0.03028388789086404 0.2629371259296514 0
0.15479623121156327 0.2848959037383681 0
0.11553071855325373 0.30636770662257673 0
0.09176969810570713 0.37269320046619175 0
0.22246987794385883 0.0 1
0.1604092840113325 0.0 1
0.08581581950564 0.0 1
0.08269738069575465 0.16624153744602893 0
0.020640551288708082 0.23332222466289496 0
0.06253569733915482 0.25240107059866046 0
0.07681032302325737 0.02725390216974095 0
0.208620853360074 0.1900548225773669 0
0.17292345391268882 0.24964820048924052 0
0.13588678149041492 0.18840917024767068 0
0.0 0.08105693567243108 1
0.028605285729557693 0.0316263129172533 0
0.0 0.16024512174732516 1
0.0 0.2223379774581401 1
0.019947967776759078 0.20990780431216985 0
0.02119385290459881 0.13459140956853025 0
0.08154103048369339 0.13322904434142266 0
0.3198938839290346 0.2061761166785888 0
0.28241974492377253 0.16752276708692015 0
0.2254804937273252 0.06972773404415653 0
0.12302695625431993 0.12685690875201516 0
0.2244556864390867 0.15181536182295013 0
0.24498061885104513 0.0914820622240692 0
0.18339488319128844 0.10425665670495542 0
0.5024015352781703 0.10216277611238332 0
0.5304029319120914 0.05678185614529404 0
0.4808907728485379 0.02687499759131078 0
0.5196205902172609 0.20087840322212888 0
0.4956836278240569 0.15650015214196775 0
0.479359520008735 0.19199924864118412 0
0.4121174925092809 0.18350077109355917 0
0.44516134930766244 0.18464313442432706 0
0.46350213958057335 0.14384923109020295 0
0.39329415318765665 0.1285322572343388 0
0.40752631087938906 0.0 1
0.4531054810314739 0.024520519053530247 0
0.3441045212036521 0.0 1
0.28160813262348316 0.0 1
0.3120399514631236 0.11975003059894962 0
0.2702254330003873 0.1378974382692627 0
0.29646959405537077 0.1415239753626281 0
0.37842030759609036 0.19037893203773326 0
0.3555500821048937 0.13122957886431197 0
0.33118436195842826 0.1608514558833121 0
0.6707098499644979 0.12747247206515464 0
0.5401168223904068 0.21083554471894325 0
0.5485921601660069 0.16470698239092071 0
0.5756872212178127 0.03128665426219072 0
0.5709098012268583 0.14331018167982423 0
0.5071776496014845 0.1319132870393487 0
0.5452540925791006 0.08013361058104862 0
0.32025982285371024 0.5283007026059616 0
0.25962381738553914 0.5267367228614827 0
0.34797462232554727 0.5432125096948226 0
0.35624869737587783 0.569560766742798 0
0.30232062789465863 0.5881255664583239 0
0.3250884058523255 0.5616364308245779 0
0.7483290801766476 0.03895938798452429 0
0.9678202462036896 0.23488846117328538 0
0.9039926212685004 0.17859834118867682 0
0.9029576746236813 0.22976785805902905 0
0.813450375621014 0.2762225866672098 0
0.8458872007092519 0.27830153502496296 0
0.8267084684479484 0.30765258216676644 0
0.8459238505983134 0.2264314569743044 0
0.715831586194138 0.12347168619599042 0
0.692584398745537 0.18722739482566866 0
0.8599173293463797 0.1533806828968904 0
0.8454218239983227 0.20011467917782227 0
0.7986806342858805 0.20305671404993586 0
0.8675758055886642 0.5380898404185107 0
0.965672766471987 0.5484025449748577 0
0.9383091044527215 0.4863555963123176 0
0.9751001611060901 0.48793808570092007 0
0.9053966165500815 0.46802074190586174 0
0.3580354454619552 0.6933651448531661 0
0.39164196781064253 0.7303177546659332 0
0.36579726800155926 0.5990370104322343 0
0.5267006181289503 0.6948454184485549 0
0.5225130586354549 0.6515618910135458 0
0.48168830359546816 0.677424135138816 0
1.0 0.21515017390031776 1
0.9669949820663982 0.1994246821615471 0
0.9465293009916471 0.11970867659294555 0
0.9652348969578386 0.08483566912668268 0
0.9231117470050094 0.15169191269099097 0
0.9342482602613745 0.1848449512817669 0
0.7849874492807184 0.0 1
0.7943491484850782 0.04467397851977994 0
0.8539460281412133 0.08035420265672838 0
0.9157966730602657 0.034984831358030086 0
0.17000182840653727 0.728234895763679 0
0.11881869829111337 0.7085655820015825 0
0.19380989466625392 0.7384996600968319 0
0.12444353329042425 0.8129531208126106 0
0.9167414693418945 0.7119525900256244 0
0.9750967051674398 0.7173807959366573 0
0.7626689269972381 0.720733331383116 0
0.8428281403048691 0.7000820824819195 0
1.0 0.6568226100356006 1
1.0 0.5948813810640162 1
1.0 0.5324189960872471 1
0.9629084541176959 0.6149925581242957 0
0.9248565966152715 0.626680693648856 0
0.9020803094787173 0.6055800193221124 0
0.7898160961736502 0.675568660046109 0
0.8087459884792003 0.5591908565090482 0
0.8793479287291474 0.6612086278547671 0
0.8122647624242573 0.6613824626377283 0
0.8169310332367361 0.6885918885328198 0
0.744533649931394 0.9675117084637223 0
0.8064295383258285 0.8915990986886368 0
0.7591260464495144 0.7770471394644585 0
0.8037834627788807 0.8389899363459957 0
0.7860476713557677 0.767465940416779 0
0.9231645331423078 0.7485133539922663 0
0.8925904518288981 0.7374857896249859 0
0.8987611415326053 0.6863947130188597 0
0.8636401480844378 0.8522014359022508 0
0.8983035581695906 0.8082143817101756 0
0.9603604735255155 0.7611527299852197 0
0.718802429132331 0.8663125153297037 0
0.7804613488796155 0.8488799637712515 0
0.713287549248302 0.8384217631746762 0
0.7176077457234376 0.7708059314451856 0
0.5479338965600086 0.8319291919483641 0
0.6607209013379747 0.7192105179214144 0
0.6733774876713777 0.8229794406524285 0
0.5854998192855628 0.8681664518764143 0
0.6330370955028063 0.8972921960613511 0
0.9070049542441616 0.8695140424604156 0
0.8966452778857303 0.9445950828004678 0
0.8521864888932824 0.8725098652073775 0
0.0 0.7831524396361138 1
0.032977349076759886 0.9186270509005295 0
0.09661377747318275 0.8944253224963357 0
0.031090625521577018 0.8225236968048943 0
0.08496407092903333 0.8569033953379734 0
0.4216332739157068 0.5872078922611638 0
0.5464111098991027 0.5770263301035545 0
0.48183594553597625 0.5723947199246444 0
0.6879294010425987 0.6818475177125403 0
0.7049953687679517 0.637472117893685 0
0.7328879545675485 0.6449469447512277 0
0.7625461733736811 0.6594483896492179 0
0.6668882768017239 0.5769002184182805 0
0.6105234507993903 0.5441654257216368 0
0.7370084448584281 0.3545601670688585 0
0.7489541892583537 0.3914601847547989 0
0.7651459850555459 0.4264721279784367 0
0.7662654205843596 0.49568679933417276 0
0.9443124865554474 0.31287049821164037 0
0.7900640607912532 0.39287728527236465 0
0.9143600937123468 0.4113862767717961 0
0.8663813636810771 0.42899226639800153 0
0.6953652308939592 0.5587450147701741 0
0.6815166253041777 0.6154738205081497 0
0.7616268627666238 0.5924347321420343 0
0.5843649051806304 0.4251423700864864 0
0.6779806411798531 0.40524579918918024 0
0.5360931311982219 0.2671856209603047 0
0.5238079416709728 0.28540380853425384 0
0.7100190056813919 0.3793275935543708 0
0.7055316843247224 0.3444079772521944 0
0.6437341344538487 0.3855018753030823 0
0.6371822439022438 0.29025507864697775 0
0.6071632505389767 0.3408100488085762 0
0.5766037401487755 0.27590930437326455 0
0.6537241803826552 0.15061265656682962 0
0.6324376496109626 0.17426526435853226 0
0.6208173471234452 0.14551182498149137 0
0.6420104162834187 0.20857078179361488 0
0.6108334571503309 0.1690019623607644 0
0.6529783484774171 0.2632109581171873 0
0.5891292504865476 0.05829181195720159 0
0.6869009069806616 0.08065340039157534 0
0.7156070733053298 0.09400818940011889 0
0.48642920245292426 0.4726615021096694 0
0.5089487224821803 0.44313248724588294 0
0.5125375746628884 0.3587173031130664 0
0.45898486704875197 0.3532337107844266 0
0.5105964056909662 0.24102097781623325 0
0.4088287650913753 0.21442492682491876 0
0.49343035153496406 0.2540133273988227 0
0.49586660152205897 0.2830083889847876 0
0.4717961616259467 0.23980744149924083 0
0.4122100459761422 0.5530481958168797 0
0.46218238841756776 0.49783652625904234 0
0.3988445291532937 0.5165423763671724 0
0.34278101856818954 0.4308951208049447 0
0.3505540507475878 0.4685144494933253 0
0.6594542744835378 0.6850364032577528 0
0.6336897426100933 0.7072539269283259 0
0.5499249669108363 0.6495479548147522 0
0.5667731545342657 0.6746676228497098 0
0.6113757253264258 0.6081643208867673 0
0.6415676113058563 0.6571472720410042 0
0.5366133700744764 0.9301626069505192 0
0.5781720534939039 0.8999886687605743 0
0.5556324463388943 0.8771819829377445 0
0.5248978801488607 0.8823355266405949 0
0.48976191198909896 0.8872229687890565 0
0.462299875891728 0.9063560516022032 0
0.5661508395800152 0.9318079186134705 0
0.5846558983319939 0.9634911479754843 0
0.5439440383729682 0.9630377466872864 0
0.6789551169220381 0.9343073200586229 0
0.5335303089616559 0.7372808487765672 0
0.5156304840712307 0.7848010012420569 0
0.5009389868396982 0.9734688699974144 0
0.5051907956683125 0.857198607119167 0
0.39931074067806954 0.7723203602196558 0
0.4007720476168544 0.816323256184922 0
0.4036313948304351 0.8354451006216401 0
0.43870724461594374 0.7667134593474436 0
0.2822670255499642 0.9012933933725666 0
0.2334465421458278 0.9093818788197431 0
0.27109862451088806 0.943497967311633 0
0.35045399030594937 0.7958687616498601 0
0.3814487389227233 0.7859454165648797 0
0.3694914196408274 0.7710086461307094 0
0.32390914622333733 0.8301561104249496 0
0.38572870248804086 0.8194055280047762 0
0.3837947725301946 0.8060579774541752 0
0.399066753671888 0.8746646474090928 0
0.41970421443653394 0.9044713014672813 0
0.4186515499341687 0.8638949758910731 0
0.38282478682998583 0.8586331993965932 0
0.39057655873801633 0.8288933954372832 0
0.32698962921650876 0.8609172160076556 0
0.35502416626757577 0.8786586220176877 0
0.31121728868883397 0.8729128199274764 0
0.3037371652139435 0.9129482794858468 0
0.40527676356637227 0.8927486581768583 0
0.38787767425691316 0.894223091729851 0
0.28841125401540524 0.7966385745345799 0
0.29492952578232673 0.8324149157379078 0
0.32147884634751567 0.801567117848419 0
0.2926622030582745 0.7826280207147855 0
0.319904466640721 0.7872548093766966 0
0.34845208241011066 0.7757306562233275 0
0.2618503492587462 0.7679071236159218 0
0.25991092553248135 0.7423684137036898 0
0.2540730727211045 0.6922321464169592 0
0.3035880019175046 0.6418654687346328 0
0.3168204366820488 0.616559835819871 0
0.36745964102124146 0.733945135855567 0
0.3345067552076615 0.6999020972495774 0
0.3449070445479141 0.7375538411757933 0
0.32926630715109034 0.6416346222819076 0
0.33607509279059355 0.7573987586151387 0
0.32086365224806684 0.6815080964796109 0
0.31582095991294906 0.7599616100392007 0
0.23255415283827888 0.9770947087973779 0
0.20342601832497573 0.9624257056099962 0
0.1654898318899905 0.9697031105802489 0
0.22156265210310647 0.9308499003627664 0
0.2486364550933525 0.8767792025796837 0
0.2805622392158004 0.859157740559347 0
0.15161937079213356 0.945960540228354 0
0.3364200076523848 0.3672945782019057 0
0.4124365756806177 0.27414518313974756 0
0.32255888974211394 0.2785352120247301 0
0.3394232129481915 0.3022727536940301 0
0.24053019685039076 0.2540069666078344 0
0.25887556427354125 0.18671564979404634 0
0.2821549270304443 0.1951409208919944 0
0.2891947017584307 0.28556472253689624 0
0.31245492847808537 0.3035814843828708 0
0.0724469748680024 0.41739984971430233 0
0.24124002077861104 0.4016317624354388 0
0.176559488309821 0.3743425165474398 0
0.23576989896372075 0.3544221858829827 0
0.19577875788943036 0.35295856283468074 0
0.12270835489380823 0.38529798865555037 0
0.2510101309506162 0.4481110840580669 0
0.17334748802344782 0.40430124819365887 0
0.0299265890950131 0.2982755158487307 0
0.04202541042835921 0.37059902467290445 0
0.03233911691893247 0.3309887881569143 0
0.138289176901835 0.4119679701741447 0
0.09631928068001654 0.4974929473287204 0
0.22419507721678794 0.5252000979251652 0
0.19094876077535505 0.6485293433669319 0
0.21199676350197622 0.5581348671542444 0
0.2655518868417562 0.5861017443548178 0
0.07449864209410735 0.7060396794842094 0
0.02373826887278347 0.735489662772693 0
0.08177590974191765 0.5863486483858629 0
0.1388186767014439 0.66578928598582 0
0.16786789395040108 0.7033292636135657 0
0.07448325774250872 0.6331893338304379 0
0.07209802545172385 0.671653601058648 0
0.16192150613479397 0.3463982417008214 0
0.10361617024852125 0.3339329755378131 0
0.12767040271157806 0.28094476155640774 0
0.08447769436115922 0.304117632899715 0
0.14094881475256804 0.031522835747393105 0
0.17708669072233818 0.027688337737442028 0
0.16331217664782713 0.05290243991746661 0
0.19690040516285456 0.0522258203108536 0
0.06767277107088154 0.19330640674312438 0
0.08250090898562305 0.1479156284182403 0
0.04008150066344872 0.2195512020252777 0
0.08380144585715735 0.2725810682525779 0
0.11730471960654625 0.04817783030931412 0
0.10584540131405878 0.026912779026611947 0
0.09422942619276205 0.05100323022622329 0
0.0838100891964191 0.11779056507450997 0
0.13518546220870561 0.08908184570572003 0
0.12719412102756936 0.10907020372244645 0
0.15354510275942634 0.07744238288718729 0
0.22279180675718072 0.20079496344645825 0
0.2297352740705719 0.18092089743768358 0
0.17715835889956685 0.2688282090823154 0
0.11094712438554004 0.16260103587766758 0
0.15454389214780664 0.2574477716065326 0
0.1649719910479196 0.23154866464949483 0
0.12918310345328354 0.25451396014980954 0
0.0 0.1012227289382472 1
0.04496085219764517 0.05063413599636294 0
0.05454974924468611 0.03379266422272569 0
0.0 0.14302419193091392 1
0.022676679556827003 0.17451692773328015 0
0.016000228045068437 0.15289438757892457 0
0.06521343583558663 0.14039110219844336 0
0.09569336696866027 0.1395194244267462 0
0.3123377529096736 0.2305782544551843 0
0.3421764339452676 0.22525944797830794 0
0.2549763933505899 0.06149011582580424 0
0.3032967361283609 0.09255772978041 0
0.29648471922555036 0.024396441342758753 0
0.19826785185971713 0.08029649169217598 0
0.23255631658581688 0.03317795098459255 0
0.11050700697973552 0.11655564025670001 0
0.11826595073443379 0.1373416181518438 0
0.23670724940488777 0.11240982300287398 0
0.21611216531773572 0.10190257080236197 0
0.19003600197075138 0.16294521160734665 0
0.19861488563563715 0.12168783679434463 0
0.1589417800000921 0.11619819774528965 0
0.4842261855540634 0.1183185029773138 0
0.5183311290909681 0.08056008831507988 0
0.4968735644276525 0.2069025731653074 0
0.4794085421315563 0.1723474428146359 0
0.41526225723045107 0.16502139676859004 0
0.4008579691937296 0.195947621606163 0
0.4216646709440312 0.19792794038518338 0
0.4339666580891797 0.1981028439627438 0
0.43785612122608003 0.16671604403940601 0
0.4526049221898837 0.20262882111141076 0
0.4632606213334406 0.18261059372392907 0
0.477995562850833 0.15484032393211206 0
0.3736003845239605 0.11966463543343912 0
0.37470019710146724 0.1417787843570076 0
0.3943871130347994 0.15308331105920195 0
0.4117489755305152 0.1406611389147351 0
0.3735614642410617 0.07423435503596602 0
0.3932357884360666 0.02668016407100668 0
0.46433621555148863 0.047190144278102426 0
0.24301904774760957 0.1339915426114193 0
0.3533126295326173 0.05765949356788554 0
0.3507556507125432 0.08624515501187612 0
0.33529532439811405 0.12496489480510058 0
0.3294207073917877 0.18061322563665996 0
0.3475576040395506 0.1648186548580816 0
0.3419693358776809 0.1447808605988982 0
0.5948887448956722 0.17797353522239054 0
0.6635092684307811 0.09946717279519762 0
0.5567588602027357 0.26025116677108967 0
0.5612796906977975 0.23159671924701375 0
0.5217728792925691 0.15855367655872216 0
0.5937968252728664 0.15472884881246132 0
0.540025199936801 0.13604419506345528 0
0.24531164431545707 0.5570608442949254 0
0.2865356603284438 0.5521408051507948 0
0.8360700007828475 0.14191956579731776 0
0.9139225427209371 0.20261843171036645 0
0.8717884630828798 0.18061217261825488 0
0.8670443065597909 0.2499019874654377 0
0.9372207095599304 0.2173313632544062 0
0.8713893564120505 0.2154975373058602 0
0.7608837384813865 0.30532107986310664 0
0.8941156876356303 0.3844421595900782 0
0.7663728716192448 0.17480872070866907 0
0.684319543899049 0.15848121891839764 0
0.6750697043258862 0.21062793489760054 0
0.7936037543692319 0.1804840185123383 0
0.8165723742089227 0.22080572683147934 0
0.8668180606600456 0.5141249931646272 0
0.9298181575968497 0.5258640295389637 0
0.9667593492269193 0.5114125516782588 0
0.935767717919792 0.5621859093204105 0
0.9684477008209361 0.45692634763503587 0
0.3378907546212625 0.6639365569643352 0
0.43090136454877126 0.7453478917221172 0
0.34695300590598055 0.6197278271416105 0
0.39674314161527885 0.6091261338686805 0
0.5132559969368695 0.5891854703379727 0
0.4946514289666806 0.7246584191463303 0
0.5027748204301576 0.6990419848717571 0
0.9620498396616701 0.1602269984958394 0
0.957360052868001 0.042560940614189156 0
0.8409675533022829 0.04198740161228353 0
0.8645269137786308 0.1202528918910988 0
0.9047758471579841 0.12038231750388473 0
0.14430622746872218 0.720055724811041 0
0.12160728651263641 0.7338176801115535 0
0.12222877633467359 0.6813271687164819 0
0.17076022113417552 0.7545125257236354 0
0.14661374524321852 0.8057625516152941 0
0.10109526603130405 0.7922234464313964 0
0.07529730137201227 0.7822060490928319 0
0.8603077515959195 0.7238463918125129 0
0.7904910190188227 0.7061817176131396 0
0.949394775568814 0.6947670744244333 0
0.8842824278109779 0.5607701612055646 0
0.7906419430260908 0.5832448752486802 0
0.8779174614187386 0.5880891594041334 0
0.8923148566405588 0.6329285543404501 0
0.824060594310712 0.6312105884988907 0
0.8387973936280646 0.8986737613480201 0
0.8261282914893614 0.8750817445956084 0
0.7612071103812489 0.7497547863474134 0
0.7565123548369397 0.8039887966559228 0
0.7381790273769491 0.7613747923700575 0
0.784223704239877 0.8184459451020425 0
0.7892111026399575 0.7348475433688554 0
0.9500479069942381 0.9585606472762088 0
0.7466833684292811 0.8938136941283406 0
0.7513228346824053 0.8572189922106491 0
0.8052418196752184 0.8638151627511019 0
0.7352748106600632 0.7863947294651177 0
0.7143334638594083 0.7498841329370542 0
0.6816220562358601 0.7992588930820268 0
0.7073961912871279 0.797056524676505 0
0.5772052332890147 0.8352143905680062 0
0.6425932755191758 0.7980841543814244 0
0.6098247891550012 0.8415086039511643 0
0.6191917084178851 0.8653632760174295 0
0.7805690095862726 0.9483378582500599 0
0.8790427431975664 0.8669745752500586 0
0.9307781011666783 0.835138180140959 0
0.96991805836988 0.8416744363061526 0
0.07378385998595324 0.9257573272944294 0
0.053520366553875494 0.8012097872264168 0
0.11741092436667186 0.8428063256712894 0
0.04436971656653109 0.8533024135824117 0
0.6774765675299956 0.6534905900955157 0
0.7126055824679194 0.6925150730343383 0
0.6825903219924544 0.4944140358115819 0
0.5993995660418764 0.5024614656505033 0
0.9725575964978888 0.3009921503815872 0
0.9123959490534674 0.32281156984123316 0
0.9698560739268262 0.3324450987258506 0
0.8033030881933271 0.43630097061590645 0
0.9608636845170987 0.4158339372275175 0
0.8865964931101565 0.4116714655689945 0
0.8371376610330142 0.49210263002913546 0
0.9000672615436133 0.5030041309373813 0
0.7608287504468647 0.6275404350788396 0
0.7305433549552297 0.5658968059891301 0
0.7253496425374912 0.609551868047385 0
0.5342873388258342 0.310909526681476 0
0.7173954658190095 0.27536121387011797 0
0.7748342785974209 0.19997509662900148 0
0.744322328843612 0.23685249855250146 0
0.7495236404465991 0.1935751203743975 0
0.7887942802266859 0.2707955379047811 0
0.7718376254478513 0.28117337892380434 0
0.6872904222193684 0.23540249264191068 0
0.676924703545204 0.25292562288959897 0
0.7180273327961443 0.24217509166129375 0
0.7036983564734586 0.2112201347836668 0
0.7123766729563883 0.29904770048122553 0
0.6218504533891814 0.3183060105987163 0
0.5529978786121724 0.28717564939931917 0
0.5779254854757283 0.2974880194409897 0
0.6638275923606378 0.23407000427486868 0
0.5566027189617182 0.18912628156189432 0
0.5714339492350659 0.08098925823242029 0
0.6196195806247657 0.06226742981192906 0
0.6322229989882213 0.09492545335066054 0
0.6183693186857115 0.11808080616645608 0
0.5937923291233219 0.1286108734899084 0
0.4678375658051887 0.29046928609244377 0
0.5152480006162091 0.22023901384580216 0
0.38561036438460145 0.21142955909820024 0
0.4521156063216696 0.2261349008893255 0
0.27103165313795063 0.37688111758494364 0
0.278773820417157 0.41435049899546333 0
0.31690226979104086 0.4546798231918285 0
0.5986306249317569 0.691990623195542 0
0.5833675268868768 0.6138995709622488 0
0.5167581606613025 0.9121358580709272 0
0.43913764513595505 0.9173660819060049 0
0.6466412588444835 0.9307775770420847 0
0.4892800403738001 0.7784861002207023 0
0.5423804324147402 0.7143745895019038 0
0.50974040207289 0.7419819583123562 0
0.3840263813379064 0.9476768087989181 0
0.4227783970893276 0.7841924828862914 0
0.47388232227373367 0.8568563366624787 0
0.437433203235404 0.8723712688931027 0
0.420076094400887 0.7630957688341029 0
0.41863493460749535 0.8259841694611568 0
0.46354957413578335 0.7705536606476202 0
0.24857802007298935 0.925981571462046 0
0.26857931737345503 0.9192855418493615 0
0.36401005492619803 0.7855165571325368 0
0.3372965944163952 0.8229386730341912 0
0.40237145921145967 0.852742152771556 0
0.3713848281709046 0.845020014812191 0
0.3242388350968671 0.8450751029748725 0
0.34440312819815083 0.8624063171581259 0
0.28753381045719806 0.9249573998786991 0
0.32373319932869354 0.9016049376606523 0
0.3660177764267193 0.8973932619790174 0
0.3052937293246499 0.79519049443529 0
0.37538399681036255 0.7102726528649805 0
0.29803093111271056 0.6667294774112005 0
0.2974621757992248 0.7650829699606118 0
0.3229785314875885 0.7416752455808621 0
0.19206197855497875 0.9259485785684672 0
0.2122023095563065 0.9051704150112233 0
0.26160951764580026 0.8635313231095397 0
0.27760335420724824 0.8085020377639058 0
0.26770346762288755 0.8257779943266372 0
0.17440444976781297 0.9451354208416031 0
0.1601843711341217 0.9170910411450716 0
0.1343253684162244 0.9682246096466194 0
0.4321004300252648 0.26119472588356646 0
0.3994886131987134 0.2969253926211196 0
0.38585768047224067 0.27517266445976607 0
0.2437354402559535 0.23031786123944975 0
0.23124072058501519 0.2849778998125195 0
0.30296466760190643 0.18765979590623555 0
0.2586588547993186 0.30167809312182103 0
0.25679453445742284 0.3273840642164659 0
0.030998051820141866 0.4136943720286207 0
0.14739794678064294 0.4918343600841006 0
0.2036089821939625 0.48107848349091825 0
0.2152801974269258 0.625749521381826 0
0.21462534836479188 0.6546552339884745 0
0.2839547032127646 0.6178502443786194 0
0.07106222690105468 0.7365516896974131 0
0.0976534607842093 0.6890133398368221 0
0.046386107478586854 0.7226077515488971 0
0.07045687002229362 0.7591826079183887 0
0.02391631565328097 0.7630025335057755 0
0.038423594464508215 0.6099417446562857 0
0.071861505487664 0.5390677344974802 0
0.1594622454011605 0.595063743771115 0
0.16905672330230329 0.6745213646603276 0
0.18029571499082084 0.6155462919791069 0
0.17998217160251767 0.29426899838881304 0
0.13395954129906515 0.32640856872893237 0
0.15979842407005493 0.31370515514626046 0
0.12620535410226422 0.3575803563152374 0
0.06827230767440269 0.33740869610331936 0
0.07157003945680769 0.15526924328359684 0
0.09570901422969812 0.10905218196986786 0
0.06969743531242521 0.12407363485272282 0
0.10995355686459621 0.07204047426227916 0
0.1634010040981775 0.20844381819089305 0
0.15524100514975453 0.18687648880649 0
0.18503475503135217 0.21686165763815934 0
0.0954343711478531 0.15686403741166624 0
0.12369942384200039 0.17625156430383532 0
0.1422474872073269 0.2350189039452957 0
0.01627768889095723 0.11355281587408275 0
0.06907522561434117 0.08362276753673106 0
0.04695949514061805 0.174626890186842 0
0.3616139500520828 0.20696153976001805 0
0.2923281750743228 0.05842244164475154 0
0.2673846672365835 0.029390063002347925 0
0.2049733718695736 0.02279433626778533 0
0.15806286954232465 0.09351975902346912 0
0.13422221606642307 0.13615514315222174 0
0.17921516215297967 0.12992968264351698 0
0.19394949367232944 0.1811221148446658 0
0.19986776523079927 0.1452559933748991 0
0.20807543486464863 0.16876030437866754 0
0.17511625093105498 0.07601762584662561 0
0.5096033297245686 0.03146790495905491 0
0.4273426663829067 0.18222770409513608 0
0.45000926439502625 0.15493027956682254 0
0.3532633761546486 0.11027875639231931 0
0.3717360221158686 0.16526072217791027 0
0.3960558800713896 0.17547407892008793 0
0.37199533908920834 0.09837535972733713 0
0.39010261026550724 0.10846100959452544 0
0.42443015929103234 0.024884927125288735 0
0.4313174651384372 0.07034719722526721 0
0.3421855763650847 0.20192547670460045 0
0.32225890227803006 0.14309302409606078 0
0.563992738833989 0.21018134409884018 0
0.6102946482557172 0.19477001436884928 0
0.5892262987413028 0.22023806674707763 0
0.6162415379606773 0.22189529393498342 0
0.532143515135961 0.18367395768257283 0
0.528785810620599 0.10560917505959565 0
0.814836859904528 0.16336136011771538 0
0.8252981278408325 0.10468123367254507 0
0.7151567372683831 0.0637334965434266 0
0.8930961921069719 0.20177916007064237 0
0.7082060326206551 0.14809193980742374 0
0.8411538833673544 0.1721609913757896 0
0.8936778617623833 0.5324068851841582 0
0.34252549381269903 0.6806950027924819 0
0.4009831179458282 0.7007814945653766 0
0.4179701557299408 0.7219383243396037 0
0.3538900390658122 0.645942399173111 0
0.511669349686332 0.6238642614219081 0
0.53607081421208 0.630713137227033 0
0.4474779487695369 0.6694839412808278 0
0.8848317244464692 0.08946080679460756 0
0.12885221763518565 0.7562158596653843 0
0.23654579545845017 0.7323301138081785 0
0.17224904822417123 0.7736272590459121 0
0.1960429705742593 0.8113685422523678 0
0.9093909884463535 0.6580343684622598 0
0.9748625620347122 0.6789816847919614 0
0.9771061474800588 0.6463664696316563 0
0.9252874260965714 0.6824407691145812 0
0.9072407483325269 0.5776899347962746 0
0.96490833192485 0.5826521736243717 0
0.8618231454827776 0.6344029406899839 0
0.8125861536089817 0.8197183179068955 0
0.8648082165331559 0.8246782702795583 0
0.7782260025819938 0.7925053760495103 0
0.7120528376029626 0.722268413343375 0
0.6615148547642367 0.8045018724934188 0
0.6994187673441928 0.818252216603306 0
0.6884807428513432 0.769950887312659 0
0.5245994666312431 0.7611943894438012 0
0.6253727290207083 0.8169209123012214 0
0.6492775148803765 0.8184193141452178 0
0.6576774172243126 0.8686885056973179 0
0.8658283291097273 0.9694815480679486 0
0.812619966137682 0.9251619147149177 0
0.928070340092128 0.7978996587537894 0
0.9502710759281183 0.874436724604939 0
0.05022587951355273 0.7742885948015379 0
0.09647470547686411 0.8232974672743575 0
0.42454783127811313 0.6184396296028406 0
0.4559977871117331 0.6004504747393731 0
0.9724140179401916 0.2689599074665326 0
0.9493039657763543 0.286507200131916 0
0.9356928769813401 0.25736317744832066 0
0.9216879502201034 0.2914899597382073 0
0.8620382542607722 0.30363537598581514 0
0.9035396504013797 0.3533730488294946 0
0.8351942398019465 0.411649771146094 0
0.8743627455980031 0.4809322083769958 0
0.8191381525227138 0.4653134768306889 0
0.6439586099743828 0.5512270059990597 0
0.7905306332351221 0.6125656290043723 0
0.7289314282597861 0.32347128932610064 0
0.7440781547756684 0.16708277858114326 0
0.800536758615333 0.24943893827035502 0
0.7678487893927894 0.2510365215875823 0
0.6781739975013361 0.2707534954053558 0
0.6347971937918186 0.2386588660013845 0
0.6430341927137205 0.1208115044222931 0
0.5988461609468789 0.09253516641872524 0
0.7605633930820793 0.15158513230437543 0
0.45322206705720003 0.46285222442832985 0
0.42632328480154597 0.48964565898527784 0
0.5671479214760056 0.7038375823044297 0
0.5786486576302973 0.646579378037034 0
0.6285245740868936 0.6804964371704415 0
0.6100181321072793 0.6578447249370402 0
0.6021777761550664 0.6333133380247142 0
0.7450106167813441 0.9324297293664421 0
0.7080938226439827 0.9569205572898583 0
0.39100735830383393 0.9310693214964603 0
0.4607612674349444 0.9339056971688882 0
0.4328753480043252 0.9431658726463571 0
0.4592512302883187 0.9655724823781533 0
0.45250866820946817 0.8608258137898784 0
0.41876112322288606 0.8450180252547298 0
0.4362645452381608 0.8161640296589057 0
0.4468402291090506 0.7874122637334419 0
0.3608431748096245 0.9787052268725602 0
0.3333666264869291 0.9701798974556827 0
0.3675237886742464 0.8004950611805194 0
0.36419512713665614 0.8609016500669571 0
0.3374197701185826 0.8372051014971171 0
0.3420548516948156 0.9362766650730365 0
0.3445230426765938 0.8988633385534546 0
0.2567028827242179 0.7177016658446718 0
0.2813334770140676 0.7538792393477528 0
0.23045716952212678 0.8907348773175405 0
0.4493043883611625 0.27450012922886247 0
0.45235065745553166 0.2517455769823288 0
0.4334156449557214 0.23968937047836728 0
0.4390840336638894 0.3265534360671028 0
0.42387010689310817 0.29615969883151866 0
0.41930568935301715 0.3195001260411779 0
0.4179940959915374 0.23136673801211413 0
0.3943690161786263 0.23492914106704613 0
0.3709930203646013 0.3012561781144004 0
0.3539336622899753 0.2709116134156018 0
0.28150731261931583 0.25935278798725303 0
0.2885063853639504 0.23639447996196764 0
0.2680409706465653 0.21656814456323284 0
0.2646286330045778 0.24400309973629888 0
0.19343961753211697 0.2531001469392966 0
0.21517701125862138 0.2569804365799931 0
0.2619200770052431 0.2726076595787383 0
0.28709155833482025 0.321947922833244 0
0.16296608167072787 0.444128224069043 0
0.03312822123701414 0.6529381334199366 0
0.08743722654168433 0.7443476117060964 0
0.10677954343861241 0.752687847538845 0
0.09694316030535152 0.726242838332443 0
0.09100332417883866 0.7693615344521059 0
0.03643854705852282 0.5695012266633945 0
0.16049986214667025 0.6443019991817641 0
0.15045220442914406 0.37978190579427323 0
0.18630546288944003 0.32506508845608073 0
0.13801847747416876 0.3023641713711046 0
0.10762296035816804 0.2650798693068529 0
0.11218674502143684 0.09735884078020036 0
0.0903398243783807 0.18462591054951466 0
0.09787669345343578 0.17006306184894662 0
0.14232915158592552 0.20071508413609573 0
0.02433406622707041 0.06335315590801024 0
0.08628494141848425 0.07063921017438304 0
0.07198346482098039 0.10721887469138422 0
0.06784496447534588 0.055511803161635974 0
0.05056431634966531 0.09858996673118559 0
0.04702724759509818 0.07404931693425423 0
0.03473107882473674 0.15481569895676683 0
0.03681378112748937 0.1952969411630603 0
0.2595346983122879 0.11254659968203792 0
0.32584601484541215 0.07082543575463758 0
0.09568586846291287 0.12436997567707668 0
0.15515302831800382 0.13871101146526685 0
0.17671791821460966 0.1523147317196809 0
0.15712836696933744 0.16177673242326018 0
0.19568146820176652 0.19883203165430058 0
0.46111955640912017 0.09324970338795126 0
0.41063008458769074 0.12501990547839142 0
0.4406836710048137 0.12989692155993307 0
0.46464850370092264 0.1631722990485066 0
0.38256695441403704 0.05185511067993439 0
0.4384869958303251 0.04610580493159204 0
0.41078386681727674 0.05324739569026399 0
0.44946323201060956 0.06414324743087318 0
0.393500835272687 0.07046339027071137 0
0.4274031732058817 0.09399570558885625 0
0.7945858177946888 0.08443938845073296 0
0.8979887230735782 0.26849572099824626 0
0.8479031940975418 0.3321419911468819 0
0.8174543508529863 0.18996025563879756 0
0.47071707407185065 0.6516237503170678 0
0.510897083014956 0.673949670924792 0
0.5377994510855852 0.6094560833852082 0
0.4596420043119952 0.6982297958068859 0
0.15887300314254912 0.7905550474526455 0
0.14186508428946887 0.8619213496604667 0
0.21980794337627663 0.8230811691754742 0
0.18231578144361954 0.7906084539239755 0
0.16969321188477235 0.810658155084413 0
0.22187673481309966 0.7751355901681408 0
0.20562112853104636 0.8602863768863914 0
0.8150416311096329 0.7554730001428077 0
0.9464035060747931 0.656660996785508 0
0.9097221261542348 0.5505399981284732 0
0.8184288303620015 0.5946727788452616 0
0.8766703576262782 0.6121725868174202 0
0.900515168647607 0.7747921329372855 0
0.8378904407475464 0.8088248439365174 0
0.7339491368371215 0.8427624576494934 0
0.6881507957463749 0.7352295317898417 0
0.6617888409245964 0.7812903699050614 0
0.6617326135399187 0.751555749446719 0
0.5672082669332068 0.8081449010351114 0
0.5367361067488204 0.7768877380042776 0
0.6368798312987424 0.8424011439668664 0
0.8207411895424563 0.9621832641575744 0
0.852145329989927 0.9340662481472706 0
0.02700939113685933 0.7935564701341101 0
0.07820665741193904 0.8049802479204305 0
0.06504173877316166 0.8268876400096636 0
0.48866549729465897 0.6037222995826106 0
0.6738100417916232 0.5379794246495581 0
0.8745859810095853 0.27979841471267913 0
0.8804979849363116 0.32916649437134526 0
0.9397240527022251 0.3455056092593594 0
0.9308317422782324 0.44685710805496165 0
0.7476635856402701 0.27808723125002416 0
0.7384309811471687 0.25813507875140196 0
0.7863546308946283 0.224480713806661 0
0.6968243293344588 0.26193855735567945 0
0.7338982017936415 0.21602527652572093 0
0.6764274401928091 0.36267437535626096 0
0.311073790659882 0.4226760802506183 0
0.28949609188055514 0.4423245556041861 0
0.6340805134107906 0.7383357032022325 0
0.6363294469337809 0.7689729251492344 0
0.48280922972131274 0.9481747263616114 0
0.4363363780589556 0.8535134050723184 0
0.43463182277200774 0.7994213361128779 0
0.3373069627307307 0.8499034694564841 0
0.3527315195106697 0.8448888600883232 0
0.36329623986189247 0.9571935934026032 0
0.3208181420431663 0.9218612448771178 0
0.3154562689766775 0.9445113729777393 0
0.35641599285945985 0.914979036522562 0
0.3139219456176807 0.7038273861935771 0
0.27542261627862585 0.6788865212660852 0
0.3011316025503609 0.7453153249327688 0
0.30480062720139384 0.3905433328637258 0
0.2978853088325045 0.3555733863726575 0
0.43087000113969637 0.2805963955065662 0
0.44398119764627547 0.2914752179881561 0
0.39629748237681994 0.2553072609885041 0
0.29505278231232246 0.21094858358402482 0
0.22347249781029113 0.21945856467428618 0
0.2037885368522175 0.23411060645446916 0
0.1841197001875077 0.23693464760200547 0
0.14695863742046186 0.6184574304233176 0
0.13271314383751032 0.6424963389032038 0
0.09063507755900146 0.2487692632737762 0
0.20682539986361864 0.21073274328855895 0
0.1075651725335885 0.18303342986345122 0
0.14882705723244277 0.21900307853653445 0
0.09023022426551308 0.09234208254923355 0
0.055381940129196096 0.11883957638036459 0
0.03610746506279553 0.11502071932266054 0
0.055617929307636454 0.15551300650535282 0
0.2737766458320194 0.08841614145539634 0
0.32728771961335495 0.03399796874163702 0
0.1255408005809265 0.15237703493195667 0
0.17742859659534096 0.19375793024347768 0
0.17410262841346846 0.172446759554578 0
0.47095470737566014 0.12866752014078525 0
0.4042839920193451 0.11447256705850022 0
0.4518511466625294 0.17033599694478316 0
0.46988162475892103 0.07414819298185346 0
0.3905625746257589 0.08753264093178874 0
0.4170333059900448 0.1124192320260942 0
0.5813696684516813 0.19220068175052538 0
0.6078773930247363 0.2421549977553122 0
0.7688715912966595 0.06954633066587745 0
0.741155455102944 0.11314073262959463 0
0.3802269225091093 0.681998768854536 0
0.4016450821738037 0.6381464589319428 0
0.37331761983110845 0.6293355270860536 0
0.4972613109594697 0.6526839933291241 0
0.42895935959799536 0.6966574131772372 0
0.4554410540099902 0.7462663547575942 0
0.9228818195891693 0.07796969705548484 0
0.21656046888830577 0.7484901472046657 0
0.1300329177545514 0.7842894782123183 0
0.15158234402870963 0.7668076679935442 0
0.24473020391119352 0.8304073514140973 0
0.2564369160862243 0.8063286944175349 0
0.1935570161455228 0.7671152370098795 0
0.20280057051444 0.7889927641324361 0
0.2195953342384502 0.8004882315635424 0
0.2433432218833513 0.7757389715263653 0
0.2085144033107237 0.8819547719339568 0
0.22360837145211487 0.8468200652737949 0
0.20207412676327394 0.837687511562826 0
0.22671128744287308 0.8687144304410979 0
0.8415214014667368 0.7470029040985682 0
0.8508865253712615 0.6033450343382736 0
0.8673333205491265 0.7910935170940164 0
0.5612638674791046 0.733259529807943 0
0.5611738226612066 0.7809460869106905 0
0.6415431555581331 0.5165175649034339 0
0.8910975637759513 0.29854344540344746 0
0.7604630899240227 0.21913186379821956 0
0.7210794530196075 0.18749370287976921 0
0.6747294232774927 0.3249214587838684 0
0.612305719742264 0.7869519279615781 0
0.48900627491301957 0.8328752016471339 0
0.452112982890212 0.8068849740088918 0
0.4361028620341326 0.8349366977171363 0
0.36942995293188774 0.9329884236466355 0
0.3788144177262846 0.9125096254030862 0
0.30774446214165113 0.7250191216373434 0
0.4136404151483712 0.24896952922666649 0
0.22464218359007682 0.23868751134860242 0
0.11123713490227796 0.6210451595294126 0
0.11044363395009539 0.24521410407066616 0
0.02486635790754881 0.0927280890070941 0
0.1397943079926078 0.1719725179838158 0
0.44687891949310277 0.08212065272543524 0
0.41061921269775126 0.0784352186869335 0
0.7426107718298182 0.07896379471711719 0
0.7856067326013187 0.14971970431225293 0
0.8100140940272275 0.1335123676600477 0
0.4089819468540085 0.6725303331915231 0
0.35816964625182063 0.6693929121903895 0
0.47909826787381393 0.6261201182646203 0
0.18721388201071476 0.8716054848269436 0
0.2386341040908704 0.7918215462563015 0
0.1492512841273766 0.8321046451338683 0
0.2548266568369277 0.7862876534656991 0
0.17944418796774647 0.8336360029399925 0
0.24445825259402781 0.8553400846925897 0
0.8070076589575206 0.7906957941052958 0
0.8664488028159483 0.758232461507051 0
0.547542336449325 0.7575526957129386 0
0.5846492299695877 0.7191784096757654 0
0.5864153026053992 0.743515025904831 0
0.5972110048620252 0.8135890097310811 0
0.44844967000741814 0.6376390607758194 0
0.639970712603894 0.34598105965928566 0
0.6471343079994109 0.31499300585896206 0
0.47114014108560137 0.8170568739624073 0
0.46989936598609805 0.7945633477972243 0
0.4531468622612058 0.8450060876042045 0
0.295985230121635 0.6904133502171771 0
0.37421400606773597 0.25326602386432107 0
0.08129599765612619 0.2004919402975866 0
0.12178625320880114 0.19736627359054268 0
0.4064088863880721 0.0997877889317351 0
0.7679262781522582 0.09779552026398557 0
0.7641172742319601 0.12931434302522282 0
0.3794731721629589 0.6564258598199733 0
0.4706098359143652 0.7245917376524316 0
0.1870698432639166 0.8964300348423964 0
0.16893426157697375 0.8555349510411414 0
0.18921672863737773 0.8514137489190896 0
0.6109550241846323 0.756177947997864 0
0.6077702771294949 0.7263817634796313 0
0.4684200127895254 0.8359468351190292 0
0.27658909139078813 0.7038750083194817 0
0.2956713633918861 0.7108251604803885 0
0.2826997338351987 0.7277177450809753 0
0.07821695253013262 0.227712676698659 0
0.13168288011047732 0.21679667703243236 0
0.12050540310070271 0.23328096803319937 0
0.4440707018731487 0.7215052871203462 0
0.8396647505679183 0.7742496720990758 0
0.5678565707929651 0.7569128598474044 0
0.5853619681464265 0.7908364925885516 0
0.45230545583183024 0.8264984756382442 0
0.10090750537253233 0.23203389090376356 0
0.094186161138308 0.21697147499896305 0
0.7921780645279815 0.11538181127775861 0
0.5884844643264867 0.7688481912739299 0
0.10160368670571507 0.199310164678769 0
0.11151066292554139 0.21537627248098096 0
0.46958572319673453 0.0 1
0.9085181174166697 1.0 1
0.656300410536989 1.0 1
0.8442114010722885 1.0 1
0.5294341796487588 0.0 1
0.0 0.844984945809107 1
1.0 0.34611171296505566 1
0.6714815400415486 0.03272658878236258 0
1.0 0.7843545492701365 1
0.02259722145923808 0.8832884173063815 0
0.4941960610795114 0.07790319444744913 0
0.1141416043576013 0.8698819389141079 0
0.9626608954909582 0.8014531241022805 0
0.31349927512121134 0.8234854280379884 0
0.2961505950524492 0.8469516655047215 0
0.2975361601975502 0.8626483781648325 0
0.3106852471390566 0.854134453784143 0
0.30592745014612405 0.892663175139037 0
0.2951727489301045 0.8099220688944878 0
0.32375773160984705 0.8164279069694952 0
0.4871227238395955 0.05288158674060932 0
0.06632300123181047 0.16747498969211036 0
0.058843830212615876 0.13075460111752257 0
0.3489395135991904 0.8310080115940705 0
0.0856988207852976 0.10535563477920401 0
0.4788996760549743 0.09642455666670101 0
0.446722341477457 0.10165610229862904 0
0.4342740660008105 0.11430320498594235 0
0.4548188848299856 0.1277270356970585 0
0.42455971353240674 0.1276433890689689 0
0.3628019112821484 0.8305013219502816 0
0.4642175486889288 0.11210007822232687 0
0.10950994817909142 0.13125322402683726 0
0.0 0.9106490009387247 1
0.3103869873754954 0.8117249188954654 0
0.3784198279014026 0.8307642007918509 0
0.35390469941380936 0.8147427434715561 0
0.4471627060223038 0.11838882139904705 0
1.0 0.4050927869856621 1
0.7817114010722885 1.0 1
0.5164295141936809 0.8055247243125123 0
0.253852069520121 0.9005486875916963 0
0.3327522115424621 0.4018140562510808 0
0.02000616756645088 0.192359816267665 0
0.3546513112673888 0.18517962044378944 0
0.6930398761104597 0.13255264972988487 0
0.6909559911034027 0.28099212840190557 0
0.3374005181375813 0.9147773093580722 0
0.1402766351118857 0.15439612744673328 0
0.31747120853329575 0.6592043525603879 0
0.057180465473738055 0.22860869868427772 0
0.4811627740363194 0.7048696194942151 0
0.04104555742326868 0.6913107041003168 0
0.0 0.8150852467291828 1
0.0 0.7179113266720043 1
0.718800410536989 1.0 1
0.5970346532147643 1.0 1
0.6859419081887632 0.8790505697859469 0
0.04283334046868413 0.2391994304592774 0
0.30437671348994205 0.9295566696343089 0
0.2952525973613668 0.9427177780091475 0
0.23580375862108457 0.8106811896432777 0
0.7348561978057572 0.29562461751834246 0
0.6601137550597019 0.8403902884030021 0
0.8332557267107471 0.43758972280179226 0
0.0 0.02249413627526136 1
0.8413623598085102 0.3515985572127158 0
0.07475913229834939 0.17829732202382198 0
0.46630351681374727 0.19644610014320876 0
0.6911020762229062 0.30325764133397926 0
0.7023949258345484 0.31772212978918873 0
0.31895379399160534 0.8867618720262007 0
0.14420546357921227 0.10615682968937087 0
0.7077677063553424 0.16709917764496743 0
0.933711583496511 0.7727842710106867 0
0.5890450484976274 0.6674690483152608 0
0.45570997202287766 0.3129456501123496 0
0.0784415359632003 0.1896300260002726 0
0.44912176046592667 0.13962290124412952 0
0.3544098398209285 0.24476832594612807 0
0.9443248626465638 0.7847487846525764 0
0.06330812059244816 0.1813497719129226 0
0.054951756427184126 0.19100045016926853 0
0.12774279807200833 0.16456594627213858 0
0.8764573834408879 0.4564006464214947 0
0.20225026670020133 0.603761950922882 0
0.11231610071869137 0.7701618737801046 0
0.8532524366794817 0.45988620099683686 0
0.7219937433926485 0.1607727653472444 0
0.4260486168474597 0.6459011509174438 0
0.3847915185328198 0.7706532735694195 0
0.09624740268347806 0.7078175013441299 0
0.8059389706092895 0.3187104509447279 0
1.0 0.3766506570101134 1
0.11003084118218409 0.1458558053278946 0
0.1417012847815094 0.2703319264731874 0
0.467367371771335 0.33234767708454915 0
0.4359918887132744 0.3102701874683063 0
0.0 0.6546041668839674 1
1.0 0.7185540303002041 1
0.9563962621019573 1.0 1
0.02549963884307567 0.0 1
0.5042313400368474 1.0 1
0.0 0.8795736436369553 1
0.4513756812371975 0.33270626074981957 0
0.0 0.4079694269772416 1

Edges
110
1 1346 1
1 1382 1
2 146 1
2 147 1
3 161 1
3 1381 1
4 104 1
4 171 1
5 1281 1
5 1285 1
6 184 1
6 432 1
8 112 1
8 117 1
9 464 1
9 1335 1
10 255 1
10 290 1
19 185 1
19 412 1
24 213 1
24 214 1
29 331 1
29 368 1
33 256 1
33 257 1
38 104 1
38 289 1
39 308 1
39 344 1
40 309 1
40 1386 1
42 325 1
42 1379 1
44 332 1
44 333 1
45 650 1
45 653 1
48 365 1
48 367 1
54 145 1
54 146 1
55 147 1
55 148 1
56 1289 1
56 1380 1
58 430 1
58 431 1
62 161 1
62 162 1
70 184 1
70 1319 1
71 185 1
71 1287 1
78 212 1
78 213 1
79 214 1
79 1285 1
91 248 1
91 1337 1
92 1283 1
92 1336 1
94 255 1
94 256 1
95 257 1
95 258 1
105 289 1
105 290 1
111 308 1
111 309 1
112 1386 1
117 325 1
118 1335 1
118 1379 1
120 331 1
120 332 1
121 333 1
121 1382 1
124 341 1
124 1346 1
125 343 1
125 344 1
133 365 1
133 1281 1
134 367 1
134 368 1
145 412 1
148 418 1
152 430 1
152 1380 1
153 431 1
153 432 1
162 1289 1
171 1314 1
212 418 1
248 1383 1
258 1383 1
341 650 1
343 653 1
464 1334 1
1282 1284 1
1282 1381 1
1283 1337 1
1284 1320 1
1286 1334 1
1286 1384 1
1287 1374 1
1314 1384 1
1319 1374 1
1320 1336 1

Triangles
2660
2 146 733 0
3 759 161 0
7 383 613 0
7 606 301 0
8 110 113 0
8 113 326 0
9 618 880 0
10 290 584 0
11 280 577 0
11 542 1371 0
12 242 428 0
12 428 754 0
12 754 756 0
12 756 764 0
12 962 242 0
13 173 219 0
14 235 517 0
14 408 385 0
15 180 478 0
15 713 187 0
16 178 202 0
16 194 781 0
16 781 178 0
17 183 401 0
17 401 747 0
17 747 749 0
17 749 1201 0
17 1201 1102 0
18 182 480 0
18 481 182 0
18 786 986 0
19 185 978 0
19 389 412 0
20 192 195 0
20 195 481 0
21 224 512 0
21 512 817 0
21 701 700 0
22 198 220 0
22 204 206 0
22 220 82 0
22 510 204 0
23 208 211 0
23 211 1177 0
24 80 138 0
24 138 214 0
25 396 1326 0
25 506 507 0
25 699 506 0
26 221 237 0
26 237 591 0
26 295 296 0
27 222 227 0
27 508 998 0
27 509 508 0
28 204 510 0
29 368 906 0
29 906 664 0
30 240 1090 0
32 837 1185 0
33 256 1015 0
33 1015 262 0
34 259 533 0
34 271 834 0
34 533 826 0
34 834 259 0
35 292 589 0
35 562 1298 0
35 589 1296 0
36 275 572 0
36 1023 852 0
37 466 1292 0
37 860 294 0
37 1093 107 0
38 104 106 0
38 861 289 0
40 309 609 0
40 609 870 0
41 319 1366 0
41 885 883 0
42 325 881 0
42 1044 1379 0
43 329 627 0
43 635 1054 0
44 332 628 0
45 650 901 0
46 349 596 0
46 352 691 0
46 596 644 0
47 359 683 0
47 363 1170 0
47 672 380 0
48 136 367 0
48 365 689 0
49 369 661 0
49 661 1068 0
49 693 918 0
50 377 379 0
50 379 703 0
50 1176 810 0
52 735 736 0
53 392 991 0
53 395 710 0
53 719 395 0
54 145 732 0
54 414 415 0
55 147 421 0
55 149 734 0
56 427 1380 0
57 155 438 0
57 159 744 0
57 438 448 0
58 433 431 0
59 434 435 0
59 723 957 0
61 449 463 0
61 463 753 0
61 762 444 0
61 959 1105 0
62 161 169 0
62 169 973 0
62 774 162 0
63 168 1338 0
63 452 760 0
63 1005 1006 0
63 1006 537 0
64 166 535 0
64 167 460 0
64 460 827 0
65 170 461 0
65 759 462 0
65 973 169 0
66 173 471 0
66 174 236 0
66 236 518 0
66 518 219 0
67 175 780 0
67 473 474 0
67 779 473 0
68 30 470 0
68 177 526 0
68 477 177 0
69 179 75 0
69 489 200 0
72 187 1373 0
72 394 1086 0
72 1086 1347 0
73 785 1287 0
73 1287 1374 0
73 1319 787 0
74 20 197 0
74 197 437 0
74 748 488 0
74 792 20 0
75 179 199 0
75 198 489 0
75 199 509 0
75 489 69 0
76 200 489 0
76 201 207 0
76 207 495 0
77 206 209 0
77 208 806 0
77 209 808 0
78 81 1288 0
78 1288 213 0
79 378 215 0
80 24 213 0
80 217 812 0
81 78 212 0
81 935 218 0
82 510 22 0
83 221 226 0
83 226 229 0
84 225 1030 0
84 1028 1385 0
84 1030 1028 0
85 227 229 0
85 228 510 0
85 229 511 0
85 510 82 0
86 360 674 0
86 516 819 0
86 681 1349 0
87 88 239 0
87 237 238 0
87 239 521 0
87 521 520 0
88 222 998 0
88 238 222 0
88 998 999 0
89 472 780 0
89 522 472 0
89 962 1107 0
90 247 825 0
90 536 540 0
90 540 1134 0
91 248 536 0
92 1006 1336 0
93 261 1321 0
93 1204 1110 0
94 255 268 0
94 1016 256 0
95 257 263 0
95 263 1010 0
96 262 831 0
96 264 1009 0
96 1007 264 0
97 278 549 0
97 1300 568 0
97 1317 841 0
98 555 565 0
98 561 1018 0
98 565 848 0
99 277 567 0
100 278 570 0
100 279 583 0
101 281 284 0
101 284 285 0
101 949 1187 0
102 283 574 0
102 284 317 0
102 874 318 0
103 408 727 0
104 4 288 0
105 289 586 0
106 104 288 0
106 294 861 0
106 861 38 0
107 1259 1231 0
108 297 658 0
108 593 297 0
108 658 659 0
108 1034 593 0
109 302 303 0
109 603 604 0
109 604 1052 0
110 8 112 0
110 112 870 0
113 110 313 0
113 313 612 0
114 319 616 0
114 616 875 0
115 314 315 0
116 118 1333 0
117 8 326 0
117 326 1049 0
118 116 1335 0
119 310 608 0
119 336 635 0
119 627 310 0
119 635 627 0
120 331 907 0
120 907 629 0
121 333 337 0
121 337 652 0
121 342 1382 0
122 1066 1363 0
122 1331 634 0
123 630 642 0
123 640 894 0
124 1059 341 0
125 343 654 0
125 654 1324 0
126 346 1163 0
126 656 1164 0
126 1162 1303 0
127 349 371 0
127 374 695 0
128 351 641 0
128 641 1353 0
128 671 1070 0
129 352 912 0
129 691 352 0
130 356 673 0
130 673 1291 0
130 1291 1301 0
131 358 674 0
131 360 675 0
131 702 931 0
132 676 687 0
132 687 1310 0
132 1076 1359 0
134 367 1166 0
134 1166 662 0
135 370 1067 0
136 48 689 0
136 689 1078 0
137 373 685 0
137 685 919 0
137 696 697 0
138 812 505 0
139 811 996 0
139 932 381 0
140 233 382 0
140 382 706 0
141 420 934 0
141 734 420 0
141 934 1084 0
142 392 394 0
142 394 1373 0
143 396 1179 0
143 990 1369 0
143 1255 997 0
144 788 484 0
145 412 413 0
145 413 732 0
146 54 415 0
146 415 733 0
147 2 733 0
148 55 734 0
149 55 421 0
149 420 734 0
149 421 1186 0
149 1186 947 0
150 422 740 0
150 740 1189 0
151 429 744 0
151 745 440 0
153 402 432 0
154 436 745 0
155 429 440 0
155 958 438 0
156 163 442 0
156 971 771 0
157 164 755 0
157 453 761 0
157 761 1106 0
158 746 427 0
159 57 448 0
159 426 447 0
160 449 960 0
160 450 773 0
160 461 772 0
163 453 762 0
164 454 964 0
164 763 755 0
165 452 1338 0
165 969 1344 0
166 64 827 0
166 827 249 0
167 459 770 0
168 63 537 0
168 460 969 0
169 759 65 0
170 65 462 0
170 462 1114 0
170 463 772 0
172 465 1290 0
172 466 775 0
173 13 176 0
173 66 219 0
174 469 517 0
175 67 474 0
175 242 780 0
175 475 154 0
176 13 179 0
176 179 782 0
176 470 173 0
176 477 68 0
177 241 526 0
177 477 987 0
178 69 200 0
178 200 202 0
178 781 1205 0
178 782 69 0
178 1205 782 0
179 13 199 0
179 69 782 0
180 15 187 0
180 187 188 0
180 188 483 0
180 483 479 0
181 182 194 0
181 493 479 0
182 181 480 0
182 195 194 0
183 17 437 0
183 196 789 0
183 789 720 0
184 6 404 0
184 724 70 0
185 71 783 0
185 783 978 0
186 190 191 0
186 191 1347 0
186 983 714 0
187 72 188 0
187 142 1373 0
187 713 142 0
188 72 191 0
189 484 714 0
189 983 1122 0
189 1122 73 0
190 485 984 0
190 788 485 0
191 72 1347 0
192 20 792 0
192 486 1119 0
193 476 486 0
193 486 792 0
193 487 476 0
194 16 181 0
194 195 781 0
195 182 481 0
196 183 197 0
196 481 18 0
197 183 437 0
197 481 196 0
198 22 201 0
198 75 220 0
198 201 489 0
199 219 508 0
200 76 202 0
201 22 206 0
201 76 489 0
201 206 207 0
202 76 495 0
202 495 490 0
203 28 223 0
203 492 794 0
204 28 794 0
204 794 209 0
205 504 993 0
205 993 1327 0
205 1209 1245 0
205 1245 496 0
205 1327 1350 0
206 77 497 0
206 204 209 0
207 206 497 0
208 23 496 0
208 77 808 0
208 496 806 0
210 700 701 0
210 701 929 0
211 208 498 0
212 388 81 0
212 418 388 0
213 1288 80 0
215 51 356 0
215 356 915 0
215 378 51 0
215 1285 79 0
216 397 717 0
216 499 716 0
216 502 500 0
217 699 813 0
218 217 1288 0
218 1288 81 0
219 199 13 0
219 518 508 0
220 227 82 0
221 26 225 0
221 83 238 0
221 225 226 0
222 27 998 0
222 83 229 0
223 28 228 0
223 228 1377 0
224 21 491 0
224 491 492 0
225 26 296 0
225 84 226 0
225 296 1030 0
226 84 511 0
227 85 82 0
227 220 509 0
227 222 229 0
228 28 510 0
228 85 511 0
228 511 1377 0
229 226 511 0
230 86 674 0
230 674 817 0
231 513 678 0
231 678 679 0
231 679 681 0
231 1027 1031 0
232 514 515 0
232 515 816 0
232 816 1025 0
232 1025 1026 0
233 140 301 0
234 235 384 0
234 521 239 0
235 14 385 0
235 234 519 0
236 174 517 0
236 517 519 0
237 87 520 0
237 221 238 0
237 520 1323 0
238 83 222 0
238 88 87 0
239 88 999 0
239 519 234 0
239 999 519 0
240 30 824 0
240 824 1001 0
240 945 1090 0
241 177 476 0
241 244 245 0
241 487 244 0
242 175 154 0
243 1089 410 0
244 527 245 0
244 779 527 0
245 527 1003 0
245 1003 1004 0
246 528 825 0
246 529 534 0
247 90 1134 0
247 532 825 0
249 92 1283 0
249 537 1006 0
250 243 525 0
250 409 243 0
250 525 1000 0
251 731 409 0
251 830 730 0
252 11 407 0
253 32 830 0
253 539 828 0
253 830 966 0
254 261 1211 0
254 539 1321 0
255 10 267 0
255 267 268 0
256 1016 1015 0
257 33 262 0
257 262 263 0
258 95 1010 0
258 540 1383 0
258 1010 540 0
259 532 533 0
259 1011 833 0
260 31 530 0
260 261 456 0
260 456 31 0
260 530 531 0
260 541 261 0
261 93 456 0
261 254 1321 0
262 96 263 0
262 1139 831 0
263 1009 1010 0
264 274 556 0
264 556 826 0
265 266 543 0
265 542 832 0
265 543 554 0
266 265 832 0
266 1136 1013 0
267 291 548 0
267 584 291 0
268 267 548 0
268 548 1341 0
268 1141 1016 0
269 277 1294 0
269 552 844 0
269 844 1297 0
269 1297 1295 0
270 1311 1317 0
271 34 556 0
271 556 564 0
272 558 843 0
272 843 1316 0
273 560 845 0
273 561 1021 0
273 847 1352 0
274 1007 1215 0
275 36 569 0
275 566 857 0
275 857 1191 0
276 99 567 0
276 293 858 0
276 567 1295 0
277 99 1299 0
277 269 567 0
277 1299 1315 0
278 97 568 0
278 100 571 0
278 568 570 0
279 100 570 0
279 849 569 0
280 11 551 0
281 101 424 0
281 316 284 0
281 621 316 0
282 572 1195 0
282 1097 1187 0
283 102 318 0
283 318 320 0
283 1144 574 0
284 102 285 0
284 316 317 0
285 102 574 0
285 949 101 0
286 287 578 0
286 406 850 0
286 577 579 0
287 286 579 0
288 4 171 0
290 105 585 0
290 585 584 0
291 585 587 0
291 838 548 0
292 35 546 0
292 546 1322 0
292 588 856 0
293 276 589 0
294 590 861 0
294 775 466 0
295 305 594 0
296 863 1030 0
297 593 598 0
297 598 1035 0
298 659 904 0
298 818 1032 0
298 1032 1250 0
298 1250 1360 0
299 886 645 0
299 1039 1040 0
300 644 596 0
300 865 1152 0
301 140 7 0
301 822 233 0
302 866 303 0
302 886 299 0
302 1052 886 0
303 603 109 0
303 869 603 0
304 603 869 0
305 295 591 0
305 599 594 0
305 1147 1042 0
306 307 607 0
306 601 307 0
306 602 604 0
307 601 606 0
307 606 872 0
307 872 1043 0
308 327 608 0
309 111 610 0
310 627 890 0
310 890 610 0
311 330 605 0
312 311 611 0
312 611 1043 0
312 871 612 0
313 110 600 0
314 115 322 0
314 619 882 0
315 41 115 0
315 615 41 0
316 884 317 0
317 614 874 0
317 884 614 0
318 114 320 0
318 873 114 0
319 114 873 0
319 615 705 0
319 873 1366 0
320 114 875 0
320 575 851 0
320 1144 283 0
321 878 876 0
322 115 883 0
322 1155 1219 0
322 1219 619 0
323 620 884 0
323 621 737 0
323 739 620 0
324 739 877 0
325 117 1049 0
325 1049 881 0
326 113 882 0
326 882 1049 0
327 39 335 0
327 119 608 0
327 308 39 0
327 335 1339 0
328 626 1376 0
328 888 1053 0
329 43 626 0
329 626 1053 0
330 311 600 0
330 625 889 0
330 889 605 0
331 664 907 0
332 120 629 0
333 44 637 0
334 1056 1348 0
335 39 344 0
335 345 634 0
335 634 1339 0
336 119 327 0
336 327 1339 0
336 1267 1157 0
337 333 637 0
338 643 1158 0
338 911 913 0
338 1158 1073 0
339 645 647 0
340 1252 899 0
341 1221 650 0
342 121 652 0
342 124 1346 0
342 651 1059 0
342 1059 124 0
342 1346 1382 0
343 653 655 0
344 125 345 0
345 125 1324 0
345 335 344 0
346 45 901 0
346 126 1065 0
346 653 45 0
346 901 1163 0
347 633 656 0
347 639 1069 0
347 656 893 0
348 658 1151 0
348 867 695 0
349 46 370 0
349 127 867 0
349 370 371 0
350 353 668 0
350 631 664 0
352 46 644 0
352 644 913 0
353 350 660 0
353 660 1165 0
353 667 668 0
353 1067 667 0
354 663 668 0
354 670 910 0
354 908 914 0
354 910 671 0
354 914 663 0
355 380 672 0
355 672 1306 0
355 673 932 0
355 932 380 0
356 51 381 0
356 130 915 0
357 5 915 0
357 915 1301 0
357 1281 5 0
358 131 931 0
358 376 817 0
359 47 380 0
359 675 683 0
360 86 1349 0
360 131 674 0
361 676 916 0
361 677 920 0
362 679 916 0
362 680 1172 0
363 47 683 0
363 683 1077 0
363 917 1359 0
364 922 1171 0
365 133 923 0
366 357 690 0
366 690 1079 0
366 923 133 0
367 136 1166 0
368 134 662 0
368 662 906 0
369 49 694 0
369 371 135 0
369 694 926 0
369 926 371 0
370 46 691 0
370 135 371 0
372 919 920 0
373 137 697 0
373 684 685 0
373 694 918 0
375 699 25 0
375 1326 716 0
376 21 817 0
376 927 701 0
377 50 810 0
377 702 704 0
377 931 702 0
378 79 214 0
378 138 505 0
378 214 138 0
378 505 51 0
379 139 815 0
379 704 139 0
380 932 704 0
381 51 811 0
381 673 356 0
382 233 234 0
383 7 140 0
383 140 706 0
384 235 385 0
384 382 234 0
384 385 387 0
387 103 386 0
387 382 384 0
387 385 103 0
387 386 706 0
388 418 419 0
388 935 81 0
388 1225 935 0
389 19 978 0
390 52 416 0
390 416 417 0
390 417 708 0
390 708 936 0
391 708 711 0
391 710 712 0
391 711 980 0
391 712 936 0
392 53 393 0
392 393 394 0
393 710 1120 0
394 72 1373 0
394 393 982 0
395 719 399 0
396 25 507 0
396 143 937 0
396 937 1326 0
397 216 716 0
397 716 1354 0
398 735 52 0
399 712 395 0
399 938 709 0
399 1087 938 0
400 718 1087 0
400 719 1126 0
401 183 720 0
401 939 747 0
402 721 722 0
402 722 432 0
403 724 404 0
404 724 184 0
405 144 1123 0
405 1365 144 0
406 286 578 0
406 578 940 0
406 1229 1180 0
407 11 577 0
407 577 850 0
408 103 385 0
409 829 251 0
410 1183 944 0
411 731 1332 0
411 946 1088 0
411 1089 731 0
412 389 413 0
413 417 732 0
414 54 732 0
416 52 736 0
416 414 732 0
416 732 417 0
416 736 414 0
417 711 708 0
418 148 419 0
419 734 141 0
419 1178 388 0
421 147 733 0
422 150 737 0
422 424 740 0
423 323 737 0
423 737 738 0
423 738 1047 0
423 1047 1372 0
424 422 281 0
425 741 1233 0
425 742 1188 0
425 777 975 0
425 1188 741 0
426 158 446 0
426 746 158 0
427 152 1380 0
427 451 158 0
427 953 152 0
428 154 745 0
428 242 154 0
428 745 758 0
429 57 744 0
429 151 440 0
429 155 57 0
430 152 953 0
430 953 954 0
430 954 58 0
431 957 153 0
432 722 6 0
433 59 957 0
433 957 431 0
433 1100 434 0
434 59 433 0
434 952 750 0
435 434 750 0
435 750 1103 0
436 154 475 0
436 439 440 0
438 750 952 0
439 60 751 0
439 155 440 0
439 436 60 0
441 771 1320 0
442 752 971 0
443 445 961 0
443 755 763 0
443 961 755 0
444 453 757 0
444 757 959 0
445 754 758 0
445 758 1099 0
445 1099 1237 0
445 1237 961 0
446 447 426 0
446 451 1355 0
447 744 159 0
448 426 159 0
448 438 952 0
448 952 955 0
448 955 426 0
449 160 772 0
450 160 960 0
450 1104 972 0
450 1202 1104 0
451 56 1289 0
451 427 56 0
451 446 158 0
451 1289 1293 0
451 1293 1361 0
452 63 1338 0
452 165 454 0
452 454 1106 0
453 157 757 0
453 163 761 0
453 444 762 0
454 164 1106 0
456 93 1110 0
457 89 1107 0
457 522 89 0
457 523 522 0
457 1107 1109 0
457 1132 523 0
458 165 1344 0
458 765 964 0
459 167 529 0
459 529 530 0
459 767 769 0
460 167 770 0
460 168 827 0
460 770 969 0
461 160 773 0
461 170 772 0
462 759 1282 0
462 970 1114 0
462 1282 970 0
463 170 752 0
463 449 772 0
463 752 753 0
464 880 1115 0
465 171 1314 0
465 172 775 0
465 288 171 0
466 37 294 0
466 172 468 0
466 468 1292 0
467 1286 1334 0
468 172 778 0
468 777 1292 0
468 778 1117 0
468 975 777 0
469 14 517 0
469 174 977 0
469 976 728 0
469 977 976 0
470 30 1090 0
470 176 68 0
470 1090 729 0
471 173 729 0
471 174 66 0
471 729 1118 0
471 1118 977 0
472 67 780 0
472 779 67 0
474 793 791 0
475 60 436 0
475 175 474 0
475 474 791 0
476 177 987 0
477 176 782 0
477 782 1205 0
478 180 479 0
478 479 493 0
480 181 479 0
481 197 20 0
482 783 785 0
482 784 981 0
482 785 1122 0
483 188 191 0
483 480 479 0
483 786 480 0
483 984 786 0
484 189 787 0
484 787 1123 0
484 1123 144 0
485 144 1365 0
485 788 144 0
485 1365 1368 0
486 192 792 0
487 193 793 0
487 241 476 0
487 473 779 0
487 779 244 0
488 988 791 0
490 16 202 0
490 181 16 0
490 1129 493 0
491 21 700 0
491 807 492 0
492 203 515 0
493 181 490 0
493 494 478 0
494 493 1129 0
494 1129 1209 0
494 1209 1351 0
496 504 205 0
497 77 806 0
497 806 1244 0
498 208 808 0
498 210 211 0
498 807 700 0
499 216 500 0
499 375 716 0
499 500 501 0
499 995 375 0
500 502 928 0
501 814 995 0
501 815 814 0
502 809 994 0
502 994 930 0
503 500 928 0
503 501 500 0
503 703 501 0
504 23 994 0
504 496 23 0
504 809 802 0
505 812 996 0
505 996 811 0
506 217 218 0
506 935 507 0
509 27 227 0
509 199 508 0
509 220 75 0
511 84 1385 0
512 224 514 0
512 230 817 0
513 231 1031 0
513 677 678 0
513 1031 1032 0
514 224 515 0
514 230 512 0
514 516 230 0
515 203 223 0
515 223 816 0
515 224 492 0
516 86 230 0
516 232 1026 0
516 514 232 0
517 235 519 0
518 998 508 0
519 999 236 0
520 822 1130 0
520 1130 1323 0
521 233 822 0
521 234 233 0
523 1002 522 0
523 1132 1262 0
524 240 1001 0
524 243 410 0
524 945 240 0
525 243 524 0
525 823 1000 0
525 1001 1356 0
526 241 245 0
526 245 1004 0
527 522 1002 0
527 779 522 0
528 246 534 0
528 536 90 0
529 167 64 0
529 246 530 0
530 31 459 0
530 246 531 0
531 246 825 0
532 247 533 0
532 531 825 0
532 833 541 0
533 247 1008 0
534 529 64 0
535 91 536 0
535 534 64 0
536 248 540 0
536 528 534 0
536 534 535 0
538 251 829 0
538 966 830 0
538 1203 1239 0
539 93 1321 0
539 253 966 0
539 254 828 0
539 966 1111 0
540 248 1383 0
541 260 531 0
541 531 532 0
542 11 252 0
542 252 835 0
542 265 550 0
542 550 1371 0
543 266 836 0
543 544 559 0
543 553 554 0
543 559 553 0
544 543 836 0
544 836 1012 0
544 842 272 0
545 726 1185 0
545 835 726 0
545 837 1014 0
546 563 846 0
546 1298 563 0
547 838 587 0
547 1024 1322 0
548 839 846 0
548 846 1341 0
549 278 571 0
549 840 1017 0
549 1317 97 0
550 551 1371 0
550 554 1017 0
551 11 1371 0
551 550 840 0
551 840 571 0
552 269 1294 0
552 1019 844 0
552 1294 1300 0
553 270 554 0
553 1316 270 0
554 270 1017 0
554 550 265 0
555 98 558 0
555 271 564 0
555 557 271 0
555 558 842 0
555 564 565 0
556 34 826 0
556 274 564 0
557 555 842 0
557 842 1012 0
558 98 1018 0
558 272 842 0
559 272 1316 0
559 544 272 0
560 273 562 0
560 562 1297 0
560 844 1137 0
561 98 848 0
561 273 845 0
561 845 1018 0
561 848 1021 0
562 35 1296 0
562 273 1352 0
562 1296 1297 0
563 847 1140 0
563 1140 1340 0
564 274 565 0
566 275 569 0
566 569 849 0
566 849 1299 0
568 1300 1315 0
569 852 279 0
570 568 849 0
571 280 551 0
571 581 280 0
571 840 549 0
572 275 1234 0
572 282 573 0
572 1023 36 0
573 1022 1266 0
574 1022 285 0
574 1144 1264 0
575 320 875 0
575 1330 851 0
576 103 727 0
576 386 103 0
576 580 575 0
576 875 386 0
577 280 579 0
577 286 850 0
578 1143 582 0
579 280 581 0
579 853 287 0
580 576 727 0
580 725 1330 0
581 100 583 0
581 571 100 0
581 583 853 0
582 940 578 0
583 279 852 0
583 1145 853 0
584 267 10 0
584 585 291 0
585 105 586 0
585 859 854 0
586 289 861 0
586 859 585 0
587 585 854 0
587 855 547 0
588 292 1322 0
588 1024 1199 0
588 1236 856 0
588 1322 1024 0
589 276 1295 0
589 292 856 0
589 1295 1296 0
590 294 860 0
590 586 861 0
591 237 1323 0
591 295 26 0
592 862 1148 0
592 863 864 0
592 864 1150 0
592 1150 1217 0
592 1217 862 0
593 599 598 0
593 1034 594 0
594 599 593 0
594 1034 1033 0
595 865 1038 0
595 1040 1218 0
596 349 597 0
597 349 867 0
598 1041 1035 0
598 1042 868 0
600 110 870 0
600 311 312 0
600 312 313 0
602 1051 624 0
603 304 820 0
603 306 604 0
603 601 306 0
603 820 601 0
604 624 1052 0
605 611 311 0
606 7 872 0
607 602 306 0
608 111 308 0
609 309 610 0
609 330 600 0
609 600 870 0
609 610 890 0
609 890 330 0
610 111 608 0
610 608 310 0
611 605 1051 0
611 1051 607 0
612 313 312 0
612 882 113 0
613 383 705 0
613 615 315 0
613 705 615 0
613 872 7 0
614 873 874 0
614 885 873 0
614 1050 885 0
615 319 41 0
617 876 878 0
617 877 1372 0
617 878 1333 0
617 1047 876 0
618 116 878 0
618 321 880 0
618 1335 116 0
619 314 322 0
619 622 881 0
619 881 1049 0
620 324 1156 0
620 1156 1050 0
621 281 422 0
621 422 737 0
622 324 623 0
622 623 1044 0
623 324 877 0
623 617 1333 0
624 604 602 0
624 887 888 0
624 888 1052 0
625 329 887 0
625 330 890 0
625 627 329 0
625 887 889 0
626 649 1376 0
627 625 890 0
627 635 43 0
628 123 636 0
628 332 629 0
628 629 630 0
628 636 637 0
629 631 630 0
630 123 628 0
630 914 642 0
631 350 663 0
631 629 907 0
632 122 1363 0
632 1251 122 0
632 1348 1358 0
633 334 891 0
633 898 334 0
634 345 1066 0
634 1066 122 0
634 1331 1339 0
635 336 1157 0
635 1157 1054 0
636 123 894 0
636 638 637 0
637 44 628 0
637 638 337 0
638 636 894 0
639 347 893 0
639 892 1069 0
639 893 1061 0
639 1061 1305 0
640 908 1353 0
641 351 665 0
641 640 1353 0
641 665 1055 0
642 640 123 0
643 300 1152 0
643 338 644 0
644 300 643 0
644 338 913 0
645 328 647 0
645 886 328 0
645 1039 299 0
646 898 1375 0
646 1159 1057 0
646 1167 1364 0
647 328 1376 0
647 648 339 0
647 649 900 0
648 647 900 0
648 895 897 0
648 1154 339 0
648 1160 895 0
649 647 1376 0
649 1054 1220 0
651 342 652 0
651 1062 1064 0
652 337 1062 0
652 1062 651 0
653 346 655 0
654 903 1066 0
654 1066 1324 0
655 346 1065 0
655 654 343 0
656 126 1303 0
656 891 1164 0
657 347 1069 0
657 633 347 0
657 1069 1313 0
657 1375 898 0
658 348 659 0
658 1036 1151 0
659 348 925 0
659 1360 108 0
660 350 664 0
660 664 906 0
661 135 1165 0
661 369 135 0
661 905 1068 0
662 905 906 0
663 350 668 0
664 331 29 0
665 1313 1069 0
666 351 909 0
666 1313 351 0
666 1375 1313 0
667 129 668 0
668 670 354 0
669 911 1169 0
669 912 913 0
670 129 912 0
670 668 129 0
671 128 1353 0
672 47 1170 0
672 1170 1312 0
673 355 1291 0
674 358 817 0
675 359 131 0
675 360 682 0
675 682 1077 0
676 132 680 0
676 361 920 0
676 680 916 0
676 686 687 0
677 361 678 0
677 372 920 0
678 361 916 0
679 362 681 0
679 678 916 0
680 132 917 0
680 362 916 0
680 917 1172 0
681 362 682 0
681 682 1349 0
682 360 1349 0
682 362 1172 0
683 675 1077 0
684 364 685 0
684 373 918 0
684 918 921 0
684 921 922 0
685 364 686 0
685 686 919 0
686 364 687 0
686 676 920 0
687 364 1075 0
687 1075 1310 0
688 693 692 0
688 1082 1174 0
689 365 923 0
689 923 1080 0
690 357 1301 0
691 129 667 0
691 667 1067 0
692 136 1078 0
692 1166 136 0
693 49 1068 0
693 688 921 0
693 1068 692 0
694 49 918 0
694 373 697 0
694 697 926 0
695 374 696 0
695 696 1325 0
695 925 348 0
696 137 919 0
696 374 697 0
696 919 1325 0
697 374 926 0
698 50 703 0
698 928 1176 0
699 217 506 0
699 375 995 0
700 210 498 0
700 807 491 0
701 21 376 0
701 927 929 0
702 131 359 0
702 359 380 0
702 380 704 0
703 379 815 0
703 503 698 0
704 379 377 0
705 616 319 0
706 382 387 0
706 386 616 0
706 616 705 0
706 705 383 0
707 938 933 0
708 391 936 0
709 52 390 0
709 390 936 0
709 398 52 0
710 393 53 0
710 395 712 0
710 1085 1120 0
711 413 389 0
711 417 413 0
712 399 709 0
712 709 936 0
713 800 142 0
713 989 1343 0
714 190 186 0
714 788 190 0
715 796 798 0
716 937 1354 0
717 397 804 0
717 502 216 0
717 801 809 0
717 809 502 0
718 796 715 0
718 1226 933 0
719 991 1126 0
719 1087 399 0
720 939 401 0
721 403 722 0
721 723 1101 0
721 939 790 0
722 403 404 0
722 404 6 0
723 59 956 0
723 721 402 0
723 956 1101 0
724 787 70 0
725 582 1330 0
728 14 469 0
728 408 14 0
728 976 1181 0
729 173 470 0
730 830 32 0
730 1332 731 0
731 251 730 0
733 415 1186 0
733 1186 421 0
734 419 148 0
735 398 707 0
735 420 947 0
735 934 420 0
736 735 947 0
736 947 1186 0
737 150 738 0
738 150 948 0
738 1046 1047 0
739 323 423 0
739 324 620 0
740 424 1192 0
740 950 1189 0
740 1192 950 0
741 1092 1096 0
741 1096 1233 0
741 1188 1092 0
742 425 975 0
742 1048 1367 0
742 1116 743 0
743 776 974 0
743 1048 742 0
744 447 1238 0
744 1200 151 0
744 1238 1200 0
745 436 440 0
746 426 955 0
746 955 1100 0
747 939 1101 0
748 74 437 0
749 435 1103 0
749 747 956 0
750 438 958 0
750 958 1103 0
751 60 988 0
751 155 439 0
751 988 1102 0
751 1201 958 0
752 170 1114 0
752 442 753 0
754 428 758 0
754 443 756 0
754 445 443 0
755 757 157 0
756 455 764 0
756 763 455 0
757 755 961 0
757 961 1237 0
758 745 151 0
759 3 1381 0
759 169 161 0
760 156 1005 0
760 163 156 0
760 452 761 0
760 761 163 0
761 452 1106 0
762 61 753 0
762 442 163 0
762 753 442 0
763 756 443 0
763 766 455 0
764 1107 962 0
765 766 964 0
765 963 1108 0
765 965 766 0
765 1108 965 0
766 164 964 0
766 763 164 0
767 31 456 0
767 456 1110 0
767 459 31 0
767 1110 1242 0
768 1108 963 0
769 767 1242 0
769 770 459 0
769 967 1112 0
769 1112 770 0
769 1242 967 0
771 971 1113 0
771 1005 156 0
771 1113 1320 0
773 450 972 0
773 973 461 0
773 1293 774 0
774 1293 162 0
775 106 288 0
775 288 465 0
775 294 106 0
776 467 1115 0
776 743 1116 0
776 1116 1117 0
776 1117 467 0
778 172 1290 0
778 467 1117 0
778 1286 467 0
779 472 522 0
780 962 89 0
781 192 1119 0
781 195 192 0
781 1119 1205 0
783 71 785 0
784 482 1122 0
786 18 480 0
786 984 1345 0
787 189 73 0
787 724 1123 0
787 1319 70 0
788 714 484 0
789 986 1368 0
790 403 721 0
790 405 403 0
790 939 720 0
790 985 405 0
791 60 475 0
791 988 60 0
792 74 488 0
792 793 193 0
793 473 487 0
793 474 473 0
793 488 791 0
793 792 488 0
794 28 203 0
794 492 807 0
795 805 1327 0
795 1124 1343 0
796 718 400 0
796 1126 1207 0
797 992 1125 0
797 1125 803 0
798 796 1207 0
798 990 715 0
798 1128 1208 0
799 142 800 0
799 392 142 0
799 991 392 0
800 713 1124 0
800 992 799 0
800 1124 992 0
801 717 804 0
801 802 809 0
801 803 1127 0
802 993 504 0
803 795 1127 0
803 801 804 0
803 1125 795 0
804 397 1208 0
804 1208 1128 0
805 795 1343 0
805 989 1351 0
806 496 1245 0
807 209 794 0
807 498 808 0
807 808 209 0
809 504 994 0
810 927 376 0
811 51 505 0
811 139 381 0
812 138 80 0
812 217 813 0
813 814 996 0
813 995 814 0
813 996 812 0
815 139 996 0
815 501 703 0
816 223 1357 0
818 298 904 0
818 372 677 0
818 513 1032 0
818 677 513 0
819 231 681 0
819 516 1026 0
819 681 86 0
819 1026 1027 0
820 304 1147 0
820 821 601 0
821 606 601 0
821 820 1146 0
821 1131 606 0
822 520 521 0
823 525 1356 0
823 1003 1002 0
823 1240 1000 0
824 30 68 0
824 68 526 0
824 526 1004 0
825 528 90 0
826 533 1008 0
826 1008 1009 0
826 1009 264 0
827 168 537 0
827 537 249 0
828 32 253 0
828 254 1247 0
829 250 1000 0
829 409 250 0
830 251 538 0
831 1007 96 0
831 1139 1214 0
832 542 835 0
832 545 1014 0
832 835 545 0
832 1136 266 0
833 532 259 0
833 1211 541 0
834 271 557 0
834 1011 259 0
835 252 726 0
836 266 1013 0
836 1013 1213 0
837 32 828 0
837 828 1247 0
838 291 587 0
838 547 1322 0
838 839 548 0
838 1322 839 0
840 550 1017 0
841 552 1300 0
841 1304 1019 0
843 558 1018 0
843 1018 1138 0
843 1311 1316 0
844 560 1297 0
844 1019 1137 0
845 560 1137 0
845 1138 1018 0
846 563 1340 0
846 839 546 0
846 1340 1341 0
847 273 1021 0
847 563 1298 0
847 1021 1328 0
847 1298 1352 0
848 565 1215 0
848 1142 1021 0
849 279 570 0
849 568 1315 0
851 1144 320 0
851 1330 582 0
852 569 36 0
852 1023 1145 0
853 579 581 0
854 859 860 0
855 587 854 0
856 293 589 0
857 99 858 0
857 1299 99 0
858 99 276 0
858 293 1190 0
859 586 590 0
860 37 107 0
860 107 1258 0
860 859 590 0
860 1258 854 0
862 1025 1148 0
862 1217 1027 0
863 296 1033 0
863 592 1029 0
863 1029 1030 0
864 863 1033 0
864 1250 1150 0
865 300 1037 0
865 595 1218 0
865 1037 1038 0
866 299 1040 0
866 302 299 0
866 868 303 0
867 127 695 0
868 866 1041 0
869 303 868 0
869 868 1042 0
870 1386 40 0
871 314 612 0
871 315 314 0
872 315 871 0
872 613 315 0
872 871 1043 0
873 318 874 0
873 885 1366 0
874 102 317 0
875 576 575 0
875 616 386 0
876 879 321 0
877 423 1372 0
877 617 623 0
877 739 423 0
878 116 1333 0
878 321 618 0
879 876 1045 0
879 1045 1048 0
880 464 9 0
882 612 314 0
882 619 1049 0
883 115 41 0
883 885 1155 0
884 316 621 0
884 620 1050 0
884 621 323 0
885 41 1366 0
885 1050 1155 0
887 329 1053 0
888 328 886 0
888 886 1052 0
888 887 1053 0
889 887 624 0
891 334 1302 0
891 656 633 0
892 639 1305 0
892 665 1069 0
893 656 1303 0
894 1055 1161 0
895 896 1168 0
896 340 1222 0
896 895 1058 0
896 1058 340 0
896 1169 1168 0
897 1073 1158 0
897 1153 1154 0
897 1168 1073 0
898 633 657 0
899 646 1364 0
899 1222 340 0
899 1252 1159 0
900 649 1269 0
900 1160 648 0
900 1269 1268 0
901 650 1221 0
902 1061 1063 0
902 1063 1064 0
902 1161 1061 0
903 1065 1164 0
903 1302 1362 0
903 1362 1363 0
904 372 818 0
904 659 925 0
904 925 1325 0
904 1325 372 0
905 1166 1068 0
906 905 660 0
907 664 631 0
908 354 671 0
908 640 642 0
908 642 914 0
908 671 1353 0
909 128 1070 0
909 351 128 0
909 1070 1329 0
909 1167 666 0
909 1329 1167 0
910 670 912 0
911 338 1073 0
911 669 913 0
911 1168 1169 0
912 352 913 0
912 1071 910 0
914 630 631 0
914 631 663 0
915 130 1301 0
915 1285 215 0
917 132 1359 0
917 363 1077 0
917 1077 1172 0
918 693 921 0
919 372 1325 0
919 686 920 0
921 688 1174 0
922 364 684 0
922 921 1174 0
922 1174 1253 0
923 366 1079 0
923 1079 1080 0
924 1079 1081 0
924 1081 1223 0
924 1083 1224 0
926 127 371 0
926 374 127 0
927 810 1176 0
928 698 503 0
929 927 1176 0
929 928 930 0
930 928 502 0
931 376 358 0
931 377 810 0
931 810 376 0
932 139 704 0
932 673 381 0
934 707 1227 0
934 735 707 0
934 1277 1084 0
935 506 218 0
937 143 1369 0
937 716 1326 0
938 398 709 0
938 707 398 0
938 1087 933 0
939 721 1101 0
940 582 725 0
940 725 1229 0
941 407 850 0
941 1180 1228 0
941 1228 1184 0
942 252 407 0
942 407 941 0
942 726 252 0
942 1184 1270 0
943 580 727 0
943 725 580 0
943 727 1182 0
943 1182 1256 0
943 1229 725 0
943 1256 1229 0
944 1090 945 0
944 1230 1118 0
945 410 944 0
945 524 410 0
946 411 1091 0
946 1228 1370 0
946 1243 1088 0
947 420 149 0
948 1367 1046 0
949 285 1022 0
949 573 282 0
949 1022 573 0
951 1095 1193 0
951 1193 1194 0
951 1198 1235 0
953 427 746 0
953 746 1100 0
954 433 58 0
954 953 1100 0
955 952 1100 0
956 59 435 0
956 435 749 0
956 747 1101 0
957 402 153 0
957 723 402 0
958 155 751 0
959 61 444 0
959 757 1237 0
960 61 1105 0
960 449 61 0
960 1105 1202 0
962 12 764 0
962 780 242 0
963 765 458 0
963 968 768 0
964 165 458 0
964 454 165 0
965 455 766 0
965 764 455 0
965 1108 1109 0
966 538 1239 0
967 768 968 0
967 968 1112 0
967 1210 768 0
968 458 1344 0
968 963 458 0
969 770 1112 0
969 1338 168 0
970 1113 1114 0
971 156 442 0
971 752 1114 0
972 1104 1355 0
972 1355 1361 0
973 65 461 0
973 773 774 0
973 774 62 0
974 321 879 0
974 776 1115 0
974 879 743 0
974 880 321 0
975 468 1117 0
976 1370 1181 0
977 174 471 0
977 1118 1230 0
977 1243 976 0
978 979 980 0
978 980 389 0
979 482 981 0
979 783 482 0
979 978 783 0
980 711 389 0
980 979 981 0
981 784 1206 0
981 1085 980 0
982 393 1120 0
982 1086 394 0
982 1120 1206 0
982 1121 1086 0
983 186 1121 0
983 189 714 0
983 784 1122 0
983 1121 784 0
984 191 190 0
984 483 191 0
984 485 1345 0
985 720 789 0
985 789 1368 0
985 790 720 0
986 196 18 0
986 786 1345 0
986 789 196 0
987 477 1205 0
988 488 748 0
988 748 1102 0
989 15 478 0
989 478 494 0
989 494 1351 0
989 713 15 0
989 805 1343 0
990 798 1208 0
990 1208 1369 0
991 719 53 0
991 992 1126 0
992 991 799 0
993 802 1127 0
994 23 1177 0
994 1177 930 0
995 499 501 0
995 813 699 0
996 814 815 0
997 715 990 0
997 990 143 0
997 1255 1226 0
998 518 999 0
999 518 236 0
1000 1203 829 0
1000 1240 1203 0
1001 525 524 0
1001 824 1004 0
1001 1003 1356 0
1002 523 823 0
1002 1003 527 0
1003 823 1356 0
1003 1001 1004 0
1005 63 760 0
1005 441 1006 0
1005 771 441 0
1006 92 249 0
1007 274 264 0
1007 831 1214 0
1007 1214 1215 0
1008 247 1134 0
1009 263 96 0
1010 1008 1134 0
1010 1009 1008 0
1011 1135 1248 0
1012 836 1213 0
1012 842 544 0
1013 1136 1212 0
1014 837 1247 0
1014 1136 832 0
1015 1016 1139 0
1016 94 268 0
1017 270 1317 0
1017 1317 549 0
1019 552 841 0
1020 1016 1141 0
1020 1139 1016 0
1020 1141 1140 0
1021 1142 1328 0
1022 574 1264 0
1023 572 573 0
1023 573 1266 0
1023 1266 1145 0
1024 547 855 0
1024 855 1196 0
1024 1196 1199 0
1025 816 1149 0
1025 862 1026 0
1026 862 1027 0
1027 231 819 0
1028 1030 1378 0
1029 592 1148 0
1029 1148 1149 0
1029 1149 1378 0
1030 1029 1378 0
1031 1217 1032 0
1032 1150 1250 0
1033 295 594 0
1033 296 295 0
1034 108 1360 0
1034 864 1033 0
1035 1036 297 0
1036 658 297 0
1036 1035 1038 0
1036 1037 1151 0
1037 300 596 0
1037 596 597 0
1037 1036 1038 0
1038 1035 1041 0
1038 1041 595 0
1039 339 1154 0
1039 645 339 0
1039 1153 1040 0
1040 595 866 0
1041 598 868 0
1041 866 595 0
1042 304 869 0
1042 598 599 0
1042 599 305 0
1042 1147 304 0
1043 607 307 0
1043 611 607 0
1043 871 312 0
1044 42 881 0
1044 118 1379 0
1044 881 622 0
1044 1333 118 0
1045 876 1047 0
1045 1046 1048 0
1045 1047 1046 0
1046 738 948 0
1047 617 1372 0
1048 743 879 0
1048 1046 1367 0
1050 614 884 0
1051 602 607 0
1051 605 889 0
1051 889 624 0
1052 302 109 0
1053 626 328 0
1054 626 43 0
1054 649 626 0
1054 1157 1220 0
1055 640 641 0
1055 665 892 0
1055 892 1161 0
1055 894 640 0
1056 334 1057 0
1056 1159 1279 0
1056 1251 1358 0
1057 334 898 0
1057 898 646 0
1059 1064 1221 0
1060 638 894 0
1060 894 1161 0
1060 902 1062 0
1060 1062 638 0
1061 893 1162 0
1061 1161 1305 0
1062 337 638 0
1062 902 1064 0
1063 1061 1162 0
1063 1163 1221 0
1064 1059 651 0
1064 1063 1221 0
1065 126 1164 0
1065 654 655 0
1065 903 654 0
1066 345 1324 0
1066 903 1363 0
1067 353 1165 0
1067 370 691 0
1070 671 910 0
1071 669 1169 0
1071 912 669 0
1071 1070 910 0
1072 896 1222 0
1072 1070 1071 0
1072 1222 1329 0
1074 1173 1306 0
1074 1306 1312 0
1075 364 1171 0
1075 1171 1175 0
1076 132 1310 0
1076 1309 1359 0
1077 682 1172 0
1078 688 692 0
1078 689 1080 0
1078 1080 1082 0
1078 1082 688 0
1079 690 1081 0
1079 924 1080 0
1080 1224 1082 0
1081 690 1173 0
1081 1173 1223 0
1083 924 1223 0
1083 1175 1253 0
1083 1307 1308 0
1084 419 141 0
1084 1178 419 0
1084 1254 1178 0
1085 391 980 0
1085 710 391 0
1085 981 1206 0
1086 186 1347 0
1086 1121 186 0
1087 718 933 0
1087 719 400 0
1089 243 409 0
1089 409 731 0
1089 411 1183 0
1090 944 729 0
1091 411 1332 0
1091 1184 946 0
1092 950 1095 0
1092 1095 1096 0
1092 1188 1189 0
1092 1189 950 0
1093 37 1292 0
1093 777 1233 0
1093 1233 1259 0
1094 951 1194 0
1094 1190 1197 0
1094 1198 951 0
1095 950 1192 0
1095 951 1096 0
1095 1192 1193 0
1096 951 1235 0
1097 282 1195 0
1097 1192 1187 0
1097 1193 1192 0
1097 1195 1232 0
1098 1196 1231 0
1098 1197 1199 0
1098 1231 1260 0
1099 151 1200 0
1099 758 151 0
1099 1200 1271 0
1100 433 954 0
1100 952 434 0
1102 437 17 0
1102 748 437 0
1102 1201 751 0
1103 958 1201 0
1104 446 1355 0
1104 447 446 0
1104 1202 1238 0
1105 959 1237 0
1105 1237 1271 0
1106 164 157 0
1107 764 965 0
1107 965 1109 0
1108 1133 1109 0
1110 1204 1273 0
1110 1273 1242 0
1111 93 539 0
1111 1204 93 0
1112 1344 969 0
1113 970 1284 0
1113 971 1114 0
1115 880 974 0
1115 1334 464 0
1116 742 975 0
1116 975 1117 0
1118 729 944 0
1119 476 987 0
1119 486 476 0
1119 987 1205 0
1120 1085 1206 0
1121 1206 784 0
1122 785 73 0
1123 403 405 0
1123 724 403 0
1124 713 1343 0
1124 795 1125 0
1124 1125 992 0
1126 796 400 0
1127 802 801 0
1127 1327 993 0
1128 797 803 0
1128 798 1207 0
1128 803 804 0
1129 490 495 0
1130 822 1131 0
1130 1146 1323 0
1131 301 606 0
1131 821 1130 0
1131 822 301 0
1132 457 1109 0
1132 1133 1261 0
1133 768 1210 0
1133 1108 768 0
1133 1132 1109 0
1134 540 1010 0
1135 557 1012 0
1135 834 557 0
1135 1011 834 0
1135 1012 1213 0
1135 1213 1248 0
1136 1014 1212 0
1137 1019 1138 0
1138 845 1137 0
1138 1019 1304 0
1138 1304 1311 0
1139 262 1015 0
1139 1020 1214 0
1140 847 1328 0
1140 1141 1340 0
1141 268 1341 0
1142 848 1215 0
1142 1214 1020 0
1143 287 1216 0
1143 578 287 0
1143 1216 1265 0
1143 1249 582 0
1143 1265 1249 0
1144 1249 1264 0
1145 583 852 0
1145 1216 853 0
1146 591 1323 0
1146 820 1147 0
1146 1130 821 0
1146 1147 591 0
1147 305 591 0
1148 1025 1149 0
1149 816 1357 0
1149 1357 1378 0
1150 1032 1217 0
1151 597 867 0
1151 867 348 0
1151 1037 597 0
1152 865 1218 0
1152 1153 1158 0
1152 1158 643 0
1152 1218 1153 0
1153 897 1158 0
1153 1039 1154 0
1153 1218 1040 0
1154 648 897 0
1155 322 883 0
1155 1050 1156 0
1155 1156 1219 0
1157 1267 1275 0
1159 646 899 0
1159 1056 1057 0
1159 1252 1279 0
1160 900 1268 0
1160 1058 895 0
1161 892 1305 0
1161 902 1060 0
1162 126 1163 0
1162 893 1303 0
1163 901 1221 0
1163 1063 1162 0
1164 1302 903 0
1165 135 1067 0
1165 660 905 0
1165 905 661 0
1166 692 1068 0
1166 905 662 0
1167 646 1375 0
1167 1329 1364 0
1168 897 895 0
1168 911 1073 0
1169 896 1072 0
1169 1072 1071 0
1170 363 1309 0
1171 1253 1175 0
1173 690 1301 0
1173 1074 1223 0
1173 1291 1306 0
1174 1082 1224 0
1174 1224 1253 0
1175 1308 1310 0
1175 1310 1075 0
1176 50 698 0
1176 928 929 0
1177 210 929 0
1177 211 210 0
1177 929 930 0
1178 1254 1225 0
1179 396 507 0
1179 1254 1255 0
1180 850 406 0
1180 941 850 0
1182 408 728 0
1182 727 408 0
1182 728 1181 0
1183 410 1089 0
1183 411 1088 0
1183 1088 1230 0
1184 942 941 0
1184 1091 1270 0
1185 837 545 0
1186 414 736 0
1186 415 414 0
1187 424 101 0
1187 949 282 0
1188 742 1367 0
1188 948 1189 0
1189 948 150 0
1190 293 1236 0
1190 1094 1342 0
1191 857 858 0
1191 858 1190 0
1191 1190 1342 0
1191 1232 1234 0
1191 1234 275 0
1192 424 1187 0
1193 1097 1194 0
1194 1097 1232 0
1194 1342 1094 0
1195 572 1234 0
1196 855 1258 0
1196 1098 1199 0
1197 1098 1198 0
1197 1190 1236 0
1198 1094 1197 0
1198 1098 1260 0
1199 1197 1236 0
1201 749 1103 0
1202 450 960 0
1202 1105 1271 0
1203 538 829 0
1203 1240 1241 0
1206 1121 982 0
1207 797 1128 0
1207 992 797 0
1207 1126 992 0
1208 397 1354 0
1208 1354 1369 0
1209 205 1350 0
1209 1244 1245 0
1209 1350 1351 0
1210 967 1242 0
1210 1273 1278 0
1211 261 541 0
1211 833 1263 0
1211 1246 254 0
1212 1014 1247 0
1212 1246 1274 0
1213 1013 1274 0
1214 1142 1215 0
1215 565 274 0
1216 287 853 0
1216 1145 1266 0
1217 1031 1027 0
1219 324 622 0
1219 622 619 0
1219 1156 324 0
1220 1157 1275 0
1220 1269 649 0
1220 1275 1269 0
1221 341 1059 0
1222 1364 1329 0
1223 1074 1307 0
1224 1080 924 0
1224 1083 1253 0
1225 388 1178 0
1225 507 935 0
1225 1179 507 0
1226 715 997 0
1226 718 715 0
1226 1255 1277 0
1227 707 933 0
1227 933 1226 0
1227 1226 1277 0
1228 946 1184 0
1228 1180 1256 0
1228 1181 1370 0
1229 406 940 0
1230 944 1183 0
1230 1088 1243 0
1231 1196 1258 0
1231 1259 1260 0
1232 1191 1342 0
1232 1195 1234 0
1233 777 425 0
1233 1096 1235 0
1233 1235 1259 0
1235 1198 1260 0
1236 293 856 0
1236 588 1199 0
1237 1099 1271 0
1238 447 1104 0
1238 1202 1271 0
1239 1111 966 0
1239 1203 1272 0
1239 1204 1111 0
1239 1272 1204 0
1240 823 1262 0
1241 1240 1262 0
1241 1272 1203 0
1242 1273 1210 0
1243 946 1370 0
1243 977 1230 0
1244 207 497 0
1244 495 207 0
1244 806 1245 0
1244 1129 495 0
1244 1209 1129 0
1246 1212 1247 0
1246 1263 1274 0
1247 254 1246 0
1248 833 1011 0
1248 1213 1274 0
1248 1263 833 0
1249 851 582 0
1249 1144 851 0
1250 864 1034 0
1250 1034 1360 0
1251 632 1358 0
1251 1267 122 0
1251 1276 1267 0
1252 340 1058 0
1252 1268 1280 0
1253 1171 922 0
1254 1084 1277 0
1254 1179 1225 0
1255 143 1179 0
1255 1254 1277 0
1256 1180 1229 0
1256 1181 1228 0
1256 1182 1181 0
1257 32 1185 0
1257 730 32 0
1257 1091 1332 0
1257 1185 1270 0
1258 107 1231 0
1258 855 854 0
1259 107 1093 0
1259 1235 1260 0
1261 1133 1210 0
1261 1210 1278 0
1261 1262 1132 0
1262 823 523 0
1262 1261 1241 0
1263 1246 1211 0
1264 1249 1265 0
1264 1265 1266 0
1264 1266 1022 0
1266 1265 1216 0
1267 336 1331 0
1267 1331 122 0
1268 1058 1160 0
1268 1252 1058 0
1270 726 942 0
1270 1091 1257 0
1270 1185 726 0
1271 1200 1238 0
1272 1241 1278 0
1274 1013 1212 0
1274 1263 1248 0
1275 1276 1280 0
1276 1251 1279 0
1276 1275 1267 0
1276 1279 1280 0
1277 934 1227 0
1278 1204 1272 0
1278 1241 1261 0
1278 1273 1204 0
1279 1251 1056 0
1279 1252 1280 0
1280 1268 1269 0
1280 1269 1275 0
1281 357 366 0
1281 366 133 0
1282 759 1381 0
1282 1284 970 0
1283 166 249 0
1283 1337 166 0
1284 1320 1113 0
1285 915 5 0
1286 778 1290 0
1286 1290 1384 0
1287 785 71 0
1288 217 80 0
1289 162 1293 0
1290 465 1314 0
1290 1314 1384 0
1291 355 1306 0
1291 1173 1301 0
1292 777 1093 0
1293 773 972 0
1293 972 1361 0
1294 277 1315 0
1295 567 269 0
1295 1297 1296 0
1298 546 35 0
1298 562 1352 0
1299 849 1315 0
1299 857 566 0
1300 97 841 0
1300 1294 1315 0
1302 334 1348 0
1302 1164 891 0
1302 1348 1362 0
1304 841 1317 0
1306 672 1312 0
1307 1074 1312 0
1307 1083 1223 0
1307 1312 1318 0
1308 1175 1083 0
1308 1307 1318 0
1308 1318 1076 0
1309 363 1359 0
1309 1076 1318 0
1309 1312 1170 0
1310 1308 1076 0
1311 843 1138 0
1312 1309 1318 0
1313 665 351 0
1316 553 559 0
1316 1311 270 0
1317 1311 1304 0
1319 73 1374 0
1320 1336 441 0
1322 546 839 0
1325 925 695 0
1326 375 25 0
1327 805 1350 0
1327 1127 795 0
1328 1020 1140 0
1328 1142 1020 0
1329 1070 1072 0
1330 575 580 0
1331 336 1339 0
1332 730 1257 0
1333 1044 623 0
1334 1115 467 0
1335 618 9 0
1336 1006 441 0
1337 91 535 0
1337 535 166 0
1338 969 165 0
1340 1141 1341 0
1342 1194 1232 0
1344 1112 968 0
1345 1368 986 0
1346 1 1382 0
1348 632 1362 0
1348 1056 1358 0
1350 805 1351 0
1354 937 1369 0
1355 451 1361 0
1357 223 1377 0
1357 1028 1378 0
1357 1385 1028 0
1360 659 298 0
1362 632 1363 0
1364 1222 899 0
1365 405 985 0
1365 985 1368 0
1367 948 1188 0
1368 1345 485 0
1370 976 1243 0
1375 657 1313 0
1375 666 1167 0
1377 511 1385 0
1385 1357 1377 0
1386 870 112 0

End
