MeshVersionFormatted 1

Dimension
2

Vertices
1099
0.0 0.0 1
1.0 0.0 1
1.0 1.0 1
0.0 1.0 1
0.5 0.0 1
1.0 0.5 1
0.5 1.0 1
0.0 0.5 1
0.0 0.75 1
0.25 1.0 1
0.7842147098002851 0.36161395179627787 0
0.8145099887307797 0.4920442201584804 0
1.0 0.25 1
1.0 0.375 1
0.9048088937732595 0.378560169503694 0
0.7284977431068391 0.5154073401846916 0
0.5256202722983887 0.247734710501043 0
0.5891475608388078 0.375294243996005 0
0.75 0.0 1
0.47081131834750634 0.3488712876107355 0
0.25 0.0 1
0.39589095585561707 0.19206182480808726 0
0.75 1.0 1
0.625 1.0 1
0.375 1.0 1
0.30368529242256587 0.859264342671436 0
0.125 1.0 1
0.22329375150082262 0.9137823181811991 0
0.0 0.25 1
0.1966525289138583 0.2796745998794786 0
0.30196636063725635 0.2874938879427199 0
0.08564843838701895 0.37825431701299483 0
0.0 0.375 1
0.125 0.0 1
0.09159502747930004 0.1360387963894827 0
0.375 0.0 1
0.34230701733730867 0.0823014801277554 0
0.5938435237396964 0.1773634519609989 0
0.9085584900468112 0.45712334657286746 0
1.0 0.125 1
0.875 0.0 1
0.1105982407754642 0.7589464942385608 0
1.0 0.75 1
1.0 0.625 1
0.8345768194589941 0.8566705647439763 0
1.0 0.875 1
0.7284924256503753 0.8750172499601061 0
0.875 1.0 1
0.9109682858715638 0.9076839251929663 0
0.0 0.875 1
0.7754037634414205 0.4545497865620977 0
1.0 0.4369920579899993 1
0.9468550153408892 0.39733031362897414 0
0.7566631979915414 0.5388846528157423 0
0.5937194977261617 0.2746016720335516 0
0.5588683592975177 0.0 1
0.667892329849188 0.20841839964168424 0
0.4211962559475456 0.35039142008872587 0
0.30270389230560346 0.4956374188719767 0
0.3740860641050404 0.44347521090986475 0
0.5576064032551004 0.6542667739967397 0
0.5582238571394892 1.0 1
0.6863450230966724 1.0 1
0.5213632715404406 0.8282440766094287 0
0.4368284777583191 1.0 1
0.40731433309460824 0.9583003565049473 0
0.2753905299352239 0.9554518530132311 0
0.3414214930935534 0.8125342590939063 0
0.3851634997972218 0.8698656036018254 0
0.27774750560308764 0.8154302985782673 0
0.33892073358938873 0.7495004313356443 0
0.2219185300547806 0.683650227801331 0
0.05984735884153214 1.0 1
0.18866739663167986 1.0 1
0.23101227138587263 0.9539974019190804 0
0.2536021415822773 0.8971627619841472 0
0.3551510318392455 0.23575994103207026 0
0.2590776076381755 0.2790155161994599 0
0.22837296040750013 0.32479876420300413 0
0.2743076753974065 0.3171981225803436 0
0.03851336047589164 0.4385756402363868 0
0.17571087954341424 0.3666036649211194 0
0.0 0.3192279714896925 1
0.1101064399309272 0.4381970889150519 0
0.04238827933393453 0.484432794262267 0
0.23600554114904845 0.6289738942854032 0
0.16088160980750782 0.5535923036753906 0
0.12385203772562157 0.6806049887051556 0
0.0 0.5599149532181532 1
0.0 0.6778786835577965 1
0.0376184896901338 0.6281624750782924 0
0.034069709916251974 0.2979950964437688 0
0.1885417289813916 0.0 1
0.054739605910755725 0.0 1
0.06266754802660723 0.2129502816171042 0
0.13530368996860262 0.21334657962849818 0
0.0 0.05859006545080982 1
0.0 0.17945139869490423 1
0.06631399702454392 0.13402490360213806 0
0.32715109730878 0.1532170096390334 0
0.5098383246954088 0.18530161631005068 0
0.4386227267279893 0.17774074485903696 0
0.43917144639346906 0.0 1
0.31297509111319927 0.0 1
0.3915130037509563 0.03140677396512453 0
0.6376566030906758 0.14451831480143779 0
0.5327908272121386 0.09865979762605603 0
0.9676168154023738 0.1996394947241873 0
0.8015615118610574 0.32943597389362195 0
0.8729396522509163 0.30629994117174275 0
0.8532372687339382 0.19988251633445137 0
0.8161207192956466 0.1757990628167958 0
0.8004176485339115 0.2442880357996787 0
0.8800240331502965 0.4798024888971213 0
0.9093020027424691 0.4321401880973065 0
1.0 0.19169238811729392 1
1.0 0.052380665157305446 1
0.9389351389395435 0.0 1
0.8170669385516074 0.0 1
0.8775334179871703 0.053012081298658476 0
0.04680058094244125 0.7680609561887833 0
0.14362590662586858 0.7538969706019693 0
0.11610691189982833 0.8174188014102435 0
0.9482305934484725 0.7032679223496826 0
1.0 0.6808157972581917 1
1.0 0.5616897489693324 1
0.9534250672248248 0.7529432118725199 0
0.8952989532740354 0.8242211331400423 0
1.0 0.9395727577404045 1
1.0 0.8166277209169843 1
0.814186083984128 1.0 1
0.9395727577404045 1.0 1
0.9683928360762252 0.8878276590535253 0
0.0 0.8170960616343206 1
0.5629077895648952 0.5806157817093477 0
0.6019658007532002 0.5126129293249269 0
0.7535406129395851 0.38620804861395097 0
0.7839397595775317 0.4086649159638672 0
0.7435536029090357 0.4187423611105447 0
0.6981067655195953 0.4262193058320606 0
0.7237316710832553 0.46797148323876225 0
1.0 0.28506438485847513 1
0.8223731282258097 0.3482227006046827 0
0.8191423047996027 0.3877695450251228 0
0.8647116554086923 0.40331077374872104 0
0.8278430128396034 0.4363554673674671 0
0.5577697756677306 0.4947132489088015 0
0.5965768201856215 0.46940698738672826 0
0.6318008446532302 0.4429582016495854 0
0.5805035418255116 0.33203438779434385 0
0.7511419813262644 0.2620223346950646 0
0.5776295708112065 0.2582424616502626 0
0.6419484323524819 0.28352987411136277 0
0.6555976486421304 0.0 1
0.590916868391765 0.0 1
0.6503658222794684 0.25366563972310247 0
0.6883123672033271 0.03942166511497436 0
0.7252105284741478 0.026243848120105273 0
0.5191936650531356 0.5210696343961836 0
0.5128410273254043 0.4769136792117493 0
0.5527708921924047 0.4042723614771054 0
0.423246336796572 0.40712129821521326 0
0.489471686208876 0.3062363105710837 0
0.5070550832940431 0.26866983968785313 0
0.4444446373971611 0.33650356243910295 0
0.39640053927326285 0.36790346575023386 0
0.4228374995643285 0.37921117605336796 0
0.44896414629439496 0.4257423821495341 0
0.48099729252649687 0.41088074708334865 0
0.4593495461524418 0.2564810579817193 0
0.26931723745681946 0.514055620762746 0
0.36825154175180264 0.37605725660679196 0
0.3916351575785803 0.4039876938418897 0
0.37392804251934664 0.48305739069986087 0
0.6621032498395926 0.7014874239828897 0
0.5504805737231656 0.685144683417782 0
0.6278772524568588 0.6257085482693266 0
0.5543924294179643 0.8921679850336915 0
0.591344174915901 0.9126922811179297 0
0.5280999347954105 0.9592739551742893 0
0.3875288426633676 0.7704123554834844 0
0.5131605222784639 0.7782508103745048 0
0.5440644292589586 0.8390215898768262 0
0.45799190057707473 0.8731942122356621 0
0.40051249066088657 0.8049217380502152 0
0.28103119221529915 0.9123013113261581 0
0.25229271392535 0.9243949184420253 0
0.3323567669469187 0.8379083217400746 0
0.38342092592679883 0.815027580656916 0
0.4101901672416396 0.883246136967132 0
0.33244783956295165 0.8719081170569518 0
0.3031318066261539 0.8287075994664393 0
0.32056851967438 0.817007782930787 0
0.34683688593804757 0.7934061322810131 0
0.32288301277628534 0.7618085515498131 0
0.22604869103210962 0.7144943189481211 0
0.2475365873004725 0.7574862059168126 0
0.1960733320222419 0.7045358605634225 0
0.36263978792948953 0.5896245429964532 0
0.3025708345292528 0.6778066703274777 0
0.041879493855337055 0.9387423594845211 0
0.18916322829940818 0.9379406323907714 0
0.14561328067960064 0.9540902963568336 0
0.0949085772289983 0.953577582238364 0
0.2807969080270147 0.8760236111830695 0
0.27946573869561725 0.8449037086866428 0
0.21826779466319554 0.8765265745486259 0
0.3151257082648542 0.30778403807898624 0
0.3751085338246551 0.3506965811566671 0
0.22609822831808218 0.2754915540285937 0
0.2803317142283311 0.29485602918420317 0
0.2704471802111254 0.47208846123093084 0
0.212633333933746 0.30389365860648854 0
0.24608128952838773 0.34709865709516685 0
0.2399046686722135 0.30167570754517004 0
0.25224709499637055 0.3231155830448047 0
0.2947860028143033 0.3111714377527204 0
0.2707067833474733 0.3406827726347001 0
0.3092481797922203 0.3293758932977215 0
0.04320098383940332 0.39666052370794275 0
0.18124191433483205 0.3373634132054941 0
0.14609780093192495 0.36748582796969975 0
0.0 0.2866831512727637 1
0.14760684531662185 0.4356444418072368 0
0.08005412937651338 0.4177350526601197 0
0.08038509179726201 0.4593315093125727 0
0.09339555457166811 0.5131904894757826 0
0.1494901084870206 0.5173336919252178 0
0.17177342485867753 0.6953525287742336 0
0.1882175702063703 0.6760168957997107 0
0.23578704822127786 0.6582591088009462 0
0.19807899662172707 0.6172449970876929 0
0.26109257932490193 0.6483836860451099 0
0.23527444472311193 0.5292595115941715 0
0.19454461072139972 0.5292518264271148 0
0.029057802778932433 0.71823056214791 0
0.12171487640956398 0.5534246303232864 0
0.15285662277648868 0.708992029321524 0
0.09840996401192827 0.6557663583955469 0
0.10868472470129222 0.7209007172928419 0
0.0 0.5917563580735313 1
0.0 0.6497062604939873 1
0.0 0.7107193861849173 1
0.024480110748865455 0.25909901647686584 0
0.17751946241444963 0.27918259512811655 0
0.08416479849582771 0.33812040679148714 0
0.08951175464416425 0.30895023436428837 0
0.04966113873498561 0.3604052704906786 0
0.1570400691699542 0.0 1
0.02022857270587677 0.22898355241301044 0
0.0444044399596711 0.23220034880056922 0
0.13033809080638406 0.035448275673724605 0
0.09047416429094411 0.030168935845943497 0
0.11346997392015795 0.10832396141122179 0
0.1658763569928066 0.24830106359130164 0
0.10104997414089631 0.17095794336272677 0
0.0 0.21215220600454704 1
0.031028380838137876 0.20642375909703847 0
0.03886343933098207 0.16377670881791717 0
0.07341853967032799 0.16225140406222974 0
0.3357769162228715 0.2001483223036743 0
0.295216062112368 0.1553884252615677 0
0.2582464017249979 0.034741973828560264 0
0.1871663210396713 0.203936431249844 0
0.17136756160336208 0.04319638165028362 0
0.2431950150115409 0.13641204007194851 0
0.23543767323688497 0.07045747833925378 0
0.49923894198301455 0.04325953904560889 0
0.4922676798043215 0.14496004581696043 0
0.46949141467995037 0.19709186065093356 0
0.45001051519215257 0.19723875626222537 0
0.46320256915019015 0.03549008772376645 0
0.38145929925971467 0.06420717011452444 0
0.3761492910870521 0.17751202718778436 0
0.5466016244225594 0.22479499841020567 0
0.5215136906329375 0.1341195223608133 0
0.5140921758815129 0.1607861265817632 0
0.574047246730974 0.1444940579391851 0
0.5764145653683648 0.03552226198457957 0
0.5859123014242967 0.12461342822344983 0
0.5532930899846104 0.12328069435028073 0
0.4938973781602511 0.10460415875681105 0
0.5546803183846405 0.06610674132634656 0
0.34677664527224605 0.5206289124440392 0
0.37634763836466856 0.5578272897511484 0
0.3316006529029965 0.6047808089116771 0
0.2953261843964017 0.5857681668735282 0
0.8441985159316318 0.10280668334257947 0
0.7575022013699675 0.037933772607979685 0
0.9083910820247089 0.21864335676409008 0
0.8599976646823541 0.3538353423402928 0
0.8927440959214068 0.3392421180548748 0
0.8550707957686021 0.1466624032125202 0
0.8583694464482409 0.22930181306249112 0
0.6891359299491181 0.16516387120629372 0
0.8285779969046122 0.15436723668077215 0
0.7913444498425625 0.17295248614882713 0
0.8424372734742557 0.17381603555123604 0
0.8383877553970235 0.2169487390550261 0
0.3886817645128505 0.7393549978239006 0
0.4134222591777398 0.7548264859281395 0
0.5226036342198117 0.6956992317145273 0
1.0 0.22175947097877216 1
1.0 0.08525495635476182 1
0.9425682034373439 0.16764683067301317 0
0.7848498260996822 0.0 1
0.7991825188026522 0.040967314880008876 0
0.8212935813519414 0.06423813588090128 0
0.8729527243195291 0.0870321883883094 0
0.9185606134031764 0.03875286290368567 0
0.04833860445198322 0.7334225243672495 0
0.17448015718657706 0.7264230681765456 0
0.12840860782007937 0.7614742115665555 0
0.20485512826988905 0.7258421717144102 0
0.10873925510070857 0.7971418066883748 0
0.9688616587511367 0.7304443252036599 0
1.0 0.7133548614618472 1
0.972477400030802 0.5872213089655498 0
0.7740012151925654 0.62878242953761 0
0.767501961271956 0.7091817312643367 0
0.8036172061903679 0.6499984923575763 0
0.7977951687189788 0.8193308635968627 0
0.9295399303282731 0.757865512401641 0
0.9720052876041634 0.7659217926709867 0
0.9385186442914684 0.7309674321555872 0
0.8806025053622805 0.7485018295734454 0
0.8668097481272575 0.830623458991277 0
1.0 0.9078396575914398 1
0.9646529584493777 0.9192059304133954 0
1.0 0.8467150126834767 1
1.0 0.7844878195753299 1
0.9709825137706308 0.7976126847459051 0
0.7532800208405829 0.8657341337835452 0
0.6932450765207357 0.7860722561442066 0
0.6268275260800782 0.8003924097945495 0
0.6429530994533676 0.7291906635223648 0
0.6419322281646536 0.7749214743526174 0
0.6671843854099495 0.7380394204879687 0
0.6947703304318316 0.8529700352017656 0
0.5927886659674244 0.846423671894301 0
0.8449922006544615 1.0 1
0.8126166439533435 0.952990610623826 0
0.8474317035889883 0.8769264104976939 0
0.0 0.7848739537206885 1
0.0 0.8470356696582015 1
0.017135601534998924 0.7968292088375264 0
0.0 0.9143829009083526 1
0.07649454138190244 0.9063188818549944 0
0.027292789189665823 0.8620408415128863 0
0.0968214670889123 0.8584507709491077 0
0.5624674421140105 0.5374105237695276 0
0.3941960733334777 0.5942744659703116 0
0.5317586945852099 0.6003840258519285 0
0.5246684107921116 0.5622717172809365 0
0.6520441826842404 0.64226626094102 0
0.6389707557410159 0.6768570075789487 0
0.6997976394493665 0.6919340343384746 0
0.7265757257496971 0.7164320163797108 0
0.5980032605065959 0.6036558202336213 0
0.6012346173839093 0.5610854409388304 0
0.6458131923155747 0.5842529900764781 0
0.7658948579085131 0.5006421401879296 0
0.9654813062276842 0.3516806095650298 0
0.8718466212143287 0.44702899701069776 0
0.6721727133333513 0.4605385265785845 0
0.6810048706766887 0.5992657091704594 0
0.7201207786087863 0.5465782110817273 0
0.552652442986695 0.44787875511632735 0
0.6643837819444016 0.42424799279352465 0
0.5703049127890998 0.2775414286268025 0
0.5370126255321604 0.2783882523153063 0
0.5121315614574511 0.2942831899370258 0
0.5133120167270577 0.317543155889264 0
0.5424977452273543 0.3271843584926006 0
0.4926915642412567 0.3346331786041736 0
0.7404488152615165 0.2934399153036878 0
0.7647882701808306 0.23190598199032036 0
0.7011780689798307 0.23687597155951487 0
0.7258160330546065 0.32803070782540356 0
0.7165907471989618 0.38839500209934025 0
0.6242501274033594 0.3468779439009529 0
0.633956972606389 0.3924001421374654 0
0.6636710496339062 0.30081355368683843 0
0.6143401078466005 0.29218349752948025 0
0.5551872605171047 0.25154354604125323 0
0.5355258458601034 0.03585633854624855 0
0.6649040179783048 0.15631895589820677 0
0.6503837184965123 0.17331242024102222 0
0.6216969965622003 0.17521367731294368 0
0.6656144357934495 0.27638360543501295 0
0.6136934127153681 0.03971070649303458 0
0.589785965281099 0.06458780573658017 0
0.661955832738463 0.1295478701468508 0
0.6663693792601388 0.07323314479269837 0
0.6801750366963901 0.10236353447430459 0
0.7024743291433057 0.07605929594634618 0
0.47754240190611497 0.44680603997382107 0
0.5134656301502782 0.4281184320428241 0
0.46849208929349384 0.3228725315967398 0
0.44707039020332845 0.3641616644095394 0
0.5067698545031248 0.2456507532699489 0
0.420991244817953 0.22763700447719765 0
0.41208705126789397 0.2025501192886219 0
0.48335033864585286 0.256247535269925 0
0.468824064295311 0.2334449608765341 0
0.48025545256708047 0.5476339046946881 0
0.4277295361749606 0.5601298795086779 0
0.40817129459881873 0.4754253468747175 0
0.4454468041694666 0.4647476885004444 0
0.5947098631339158 0.6446791195590759 0
0.5693171082413272 0.7076302269351419 0
0.6293812672666812 0.7029304081790759 0
0.5267494436356448 0.8675012407978883 0
0.49152188800607943 0.8746274719525213 0
0.4723057681405381 0.9078138536001418 0
0.624798631688993 0.9418795390178913 0
0.513671355855554 0.7185246058570327 0
0.5414948696114875 0.7103503404843207 0
0.5764120805367022 0.8030727443614927 0
0.5122751423473894 0.8015841344432204 0
0.5016781758859014 0.7664446592616356 0
0.562441780571899 0.8581469528156297 0
0.5003380588043063 0.8236413407711328 0
0.5000377079821472 0.8495184142182931 0
0.43733562212307225 0.8961669294800683 0
0.4117767607074177 0.7868844690122808 0
0.43852991471111574 0.7733800772225365 0
0.3158741526209384 0.9688536993960274 0
0.3588871711175361 0.8276898349184916 0
0.4113808612463499 0.9148593320849634 0
0.4070487012281384 0.8524668561824925 0
0.30894622732004806 0.8914823097670492 0
0.3851312732651937 0.8999420089317665 0
0.3576805710701979 0.9588495682737848 0
0.3016310326369819 0.8054891436509435 0
0.36522607376948124 0.8028682952415499 0
0.3024610625726346 0.7796451375917296 0
0.3426793960338691 0.7738554980382483 0
0.26517556849978 0.7738626412911053 0
0.4038629189862363 0.6282767576394978 0
0.30373374638423783 0.6208182415269324 0
0.32659710166882433 0.6457641608691751 0
0.35436163640097323 0.7314170968623097 0
0.29041022672505523 0.6471859614151437 0
0.27574907326961134 0.668335861048396 0
0.3311631668765114 0.7283691484249926 0
0.3196960372909551 0.7458506642464614 0
0.19104296343784619 0.8953570504222509 0
0.11554317845047724 0.9185610445899974 0
0.14986053660952486 0.9098783071821419 0
0.38169255209313996 0.2635329252066916 0
0.3991400885909833 0.3415999863223637 0
0.3521298463372647 0.3319340741310897 0
0.33079422249332247 0.2505558811334873 0
0.33291457167667027 0.28129579392442816 0
0.30558757644706186 0.25958257363233095 0
0.2535131684124083 0.4014146894988845 0
0.3277975009904159 0.3235264419958436 0
0.2899523208997237 0.3294008830397308 0
0.21872819331981083 0.40196578901070035 0
0.23639155070110582 0.3746154111283533 0
0.2066442377588878 0.3713006910649589 0
0.21648589250300115 0.3480698814624393 0
0.20533398354818724 0.3275394572579405 0
0.11450360734798691 0.35732365923863424 0
0.18901719033270398 0.39313277530423035 0
0.025156952334953415 0.33006111033401514 0
0.16107740454644662 0.39521528707601566 0
0.12176456542892637 0.39803599440709 0
0.17812273871128534 0.6410542527627944 0
0.21991561416758987 0.596614119621707 0
0.026579523688750484 0.6605798455856241 0
0.07266090302636076 0.6033100844741219 0
0.07949914501772161 0.5614370295687579 0
0.10531920946622804 0.5884290211075629 0
0.13229769364932242 0.6964476589434297 0
0.14873308545846228 0.690665930780487 0
0.15210202658202224 0.6652945500751761 0
0.130064490002179 0.6449693521779122 0
0.1045319309071919 0.6271392916546223 0
0.07045462212581083 0.6392847606993225 0
0.12559699450956183 0.7408945398463568 0
0.13091968707301635 0.7158382540991547 0
0.11666922745300416 0.7020089141365036 0
0.0 0.7294027340826515 1
0.028334424722044012 0.6920491219271295 0
0.15528508240710254 0.3181599891470659 0
0.11997145407757523 0.32339999108559486 0
0.11528915270342828 0.29133855000887815 0
0.05857158735758924 0.3218407132386077 0
0.05353700413436224 0.2635467170401932 0
0.0827807134101916 0.11263604151536948 0
0.13852904718139136 0.07869037159903547 0
0.15810984684739687 0.2698017132503194 0
0.18319128111809768 0.26218050578208174 0
0.15220299116831965 0.2293129276269351 0
0.12394185054515512 0.1413403691395115 0
0.12187515601917706 0.19370340228841557 0
0.09783896204027757 0.19769949497823422 0
0.07873413455022603 0.1907170418180373 0
0.10888749132026984 0.2168051478826452 0
0.33453809424563996 0.2272281863220446 0
0.3553953629863013 0.21358692121841835 0
0.29802189110302324 0.09646224093198554 0
0.2153927240006537 0.03839795618523237 0
0.18617493869299725 0.2444360620604244 0
0.20403436999391406 0.25778997592639713 0
0.23553586841312052 0.22783466162362914 0
0.22284800039592045 0.2475497489137196 0
0.24692000582519688 0.2516421574579927 0
0.26253450681217544 0.15904121190160148 0
0.1612835073634416 0.21061624215687882 0
0.17687949544062453 0.22528570566367703 0
0.21718436637218916 0.19868197798071208 0
0.23071715167165333 0.16629802132429533 0
0.21447758551832968 0.10562050214793718 0
0.25676729937784704 0.10061365245727238 0
0.14917451956320046 0.11590120224483795 0
0.1795361955913408 0.12475622733708361 0
0.17266540964948926 0.0883248654435345 0
0.4937787345511298 0.2311360107789149 0
0.5152579604885358 0.22634262595514923 0
0.4758135493280827 0.214309944608594 0
0.49679272073478614 0.20771212004877437 0
0.48847893720849245 0.17464617126345724 0
0.4167780076410753 0.18392971571141187 0
0.43142399590560004 0.20151526449114512 0
0.450629002570211 0.21592501445617238 0
0.4612070366961716 0.17519821669517485 0
0.3581582916579022 0.11418753678297308 0
0.3807384341880423 0.1271346810189934 0
0.40237405668474335 0.1425472301141144 0
0.4224338621775718 0.16235875293015292 0
0.30420226662217054 0.12909924905896375 0
0.3513777247390935 0.03835517109981618 0
0.37989774383418834 0.0966886868473969 0
0.32976402841855756 0.11848926547430345 0
0.3383331742035854 0.17788995521377662 0
0.35475069311108504 0.16369720135454568 0
0.3556260948744815 0.13905344569806852 0
0.5765154426353251 0.2370920123888476 0
0.5260249113175827 0.20314514184625887 0
0.5481424150078131 0.19846430902782403 0
0.5610465286670352 0.17743715614423716 0
0.5443275999358241 0.15273648043656354 0
0.6031673678450445 0.15026506326804476 0
0.5720059564696319 0.09584513390248177 0
0.33730989367622977 0.5656926648694073 0
0.30214728025830734 0.5377037781723712 0
0.22640603708669196 0.5619596419824774 0
0.27227412174432963 0.620589853559262 0
0.2512456589518734 0.5910826453297756 0
0.817239309520212 0.13545838967852983 0
0.8240365570111723 0.08773919468114316 0
0.9294348365377813 0.19485732772124253 0
0.8750425766901593 0.17458179064119292 0
0.9717426621622574 0.23220663368744418 0
0.8851368665657539 0.24088227570731696 0
0.8817137653118585 0.2112051399149139 0
0.8317810414305529 0.2416719069871152 0
0.7668514518060663 0.3197934364151718 0
0.8579198190221284 0.26623492897558176 0
0.8146367924524909 0.2192292821824795 0
0.8238503529819828 0.2767275881552636 0
0.7751873520044985 0.25921669195514946 0
0.9643679798456152 0.4938650407642982 0
0.8706527603990458 0.5816294382068681 0
0.8408707092879962 0.5448665289755843 0
0.34538235032317194 0.7080567108257091 0
0.5276673118353958 0.6652253955161659 0
0.4403217364946733 0.6820590895667047 0
0.4425918041053856 0.7246000708351065 0
0.5021241282271516 0.7387364271881373 0
0.49003680062508004 0.7060630430146732 0
0.9758507410152345 0.07291194622302379 0
0.9117392004372319 0.13500033483588147 0
0.9645196893326982 0.1090381602369487 0
0.8402186039813692 0.03817955007420381 0
0.8493383745984157 0.07310206739982124 0
0.8641415811730162 0.12072933128595395 0
0.8944191879389782 0.11393141099366116 0
0.05644601925229392 0.7477522686313514 0
0.08556483662995217 0.7253979561192168 0
0.05170001337771261 0.7115771090086215 0
0.028284022588197854 0.7470457334526086 0
0.2226729591105765 0.7424564769646483 0
0.1593515375703113 0.8687479486761419 0
0.15691836911389753 0.8085354228172933 0
0.13025035112636993 0.8432613000706983 0
0.12319675945314325 0.7795171224330497 0
0.10409506725469539 0.7777987191080072 0
0.8935143198394482 0.6879842883788954 0
0.9174555372607968 0.7086602944809131 0
0.9082828921433943 0.7390495357236058 0
0.9028786201869605 0.7639748357059744 0
0.8039829543855339 0.7257585517476538 0
0.9258541688230187 0.6368689106103501 0
0.8079633144420969 0.6149881220958597 0
0.8692000354385533 0.6606973402455072 0
0.8824842829259716 0.6220396551703877 0
0.8339764818351686 0.6757874915377419 0
0.8007425379568902 0.6891322264655988 0
0.8235113945861181 0.8759032599073338 0
0.732882030238688 0.9085083780894272 0
0.7624925846580589 0.8874199715993021 0
0.7462318420279984 0.7463303947501851 0
0.8191029149442213 0.8332196389607833 0
0.8403493331494907 0.8110498880004403 0
0.7740197798387335 0.7708057366410537 0
0.9355937250830342 0.8385798525750984 0
0.8972912892594256 0.7975763165584628 0
0.92775224306324 0.9279672801202642 0
0.9587143575474029 0.9573705946665438 0
0.9477983254987443 0.778787643890485 0
0.7760777949861347 0.861499901128072 0
0.8093018066988261 0.858408892421153 0
0.7890316009796235 0.8363751675052364 0
0.7609409368344261 0.8395460747009683 0
0.7772303930527286 0.8149698243555803 0
0.7672385297611579 0.7940642067520366 0
0.745870079810264 0.7794521066166804 0
0.7238522755208299 0.7927505326681411 0
0.7195545940276994 0.7663838553438677 0
0.7137991452095087 0.7430805849297173 0
0.6767671882287344 0.8204657371247305 0
0.5696256022882872 0.8285965204149115 0
0.6143050083959326 0.7282973662393603 0
0.586338053741205 0.7305994660453379 0
0.6497945006038642 0.7523205000913232 0
0.6498334455967048 0.8211027405236417 0
0.6702109805019703 0.8806936373420059 0
0.915484915142109 0.9657473809906618 0
0.8593297932561785 0.8537677969955836 0
0.9357209822615566 0.8984437739949043 0
0.020394721689735256 0.7740209708996338 0
0.03582179090186112 0.8943099356896512 0
0.10101950757839673 0.8339316683058355 0
0.4620206814520825 0.5848909968177913 0
0.5626479459835233 0.6219862053813395 0
0.6805743711204919 0.6356430246740016 0
0.7369634106545855 0.680458970111898 0
0.929695356142888 0.3512108470918777 0
0.8506045436677945 0.47483725729216314 0
0.7137666144575868 0.5830291418240142 0
0.8076458753938567 0.5748431995468815 0
0.7413188062853047 0.6378211967367056 0
0.59276491467047 0.42234777978388266 0
0.5313566710941703 0.30491068254320824 0
0.7134996726064786 0.2972608058882376 0
0.7726625520165844 0.19679592072773197 0
0.6911193105987482 0.21435100278249916 0
0.6748874876390588 0.23114786178741115 0
0.732452266826085 0.23675797337745283 0
0.695593911339114 0.3536841207936811 0
0.6749846544166352 0.394136636885665 0
0.5869225895269092 0.2992422077077435 0
0.6098616059859364 0.3177195922837297 0
0.6692047323059598 0.18176197374137146 0
0.6494783192452795 0.22261124303666616 0
0.6220901090023951 0.2642818339070554 0
0.7225872691382648 0.0518257829859498 0
0.7288548323920826 0.1411058997443077 0
0.693149522362792 0.1386301275616769 0
0.4863937376176926 0.2820558986067477 0
0.4508523110702094 0.3940713927702428 0
0.5188121585916794 0.3473948024297012 0
0.4768521588378572 0.37835863581143575 0
0.5112799587597282 0.38334545740587367 0
0.48726020622384913 0.5068110307789641 0
0.44802828765225633 0.5070431182795578 0
0.39634585142796924 0.5171687771789384 0
0.3532184200263983 0.4064678616107716 0
0.33057096592198937 0.43597609371162327 0
0.3049326612111657 0.4611517519711913 0
0.4177742363010792 0.4370588712609652 0
0.4748198055215768 0.47903900072919825 0
0.5816599546365459 0.6807825361461265 0
0.5149593523909489 0.9107552966659505 0
0.44380327883088805 0.9352287721880436 0
0.48025166668517316 0.9561911833856944 0
0.44790991500180344 0.9709597548291194 0
0.6231153182373909 0.8974942502003922 0
0.5756285585611336 0.9494769040888827 0
0.544531433212217 0.8086666137941877 0
0.5333585713064775 0.7815921315819813 0
0.3631005589309361 0.7583823119889901 0
0.4018550960028437 0.8269445871258169 0
0.4326453622784462 0.8325549655813925 0
0.38584983784546734 0.7937726884328693 0
0.35958224209348777 0.8558712949889792 0
0.31811848264237447 0.928627546429322 0
0.3603559329594313 0.8861146614296134 0
0.3830630881577416 0.9297004391235554 0
0.325660892955461 0.7932433767735007 0
0.25025280504817127 0.7025886871383351 0
0.36875229575315716 0.6251653064912603 0
0.2538150944551038 0.6755584748711783 0
0.2998797370237667 0.7518547347035933 0
0.3081580469719775 0.728509641268672 0
0.12525031261259267 0.8815713852402861 0
0.258754446765812 0.7964734519890472 0
0.2506685317570981 0.8611265408535903 0
0.31832231058572447 0.40172225668782885 0
0.3391479838913258 0.37682672519160854 0
0.4312390107076058 0.25250469644285617 0
0.4252061290453264 0.2966130617574091 0
0.3871303466019594 0.3054931978594542 0
0.35718371563919366 0.26327035298486584 0
0.3393529674750899 0.3054898630397135 0
0.27609254104272357 0.25273094982918537 0
0.23639538739008842 0.4407464532237877 0
0.26598417036281985 0.3666795367324104 0
0.2611386514947024 0.30396411612881985 0
0.18867237515384133 0.42806380726892157 0
0.22625618276835807 0.4888011351981679 0
0.17674223128595304 0.47626869927452364 0
0.20998779154369368 0.6489203431285155 0
0.041153924398871354 0.5331089644824304 0
0.18554748571675667 0.5789139197977907 0
0.16683010318102107 0.6113435736239529 0
0.15336694997367165 0.63733275008437 0
0.05396727083624891 0.6633771043341391 0
0.09057106064669952 0.7612478040254114 0
0.1467050778833832 0.7356401369986354 0
0.09836173323556255 0.6837910889080097 0
0.18483934480874795 0.30558682681698995 0
0.13291200723527147 0.27053533053919443 0
0.12479834235649262 0.24210124686935822 0
0.09859013139960096 0.2414104271066951 0
0.13863780867450134 0.3424495964273194 0
0.15881212045122586 0.3455241116636929 0
0.20216485462751715 0.06902351058959823 0
0.055975972687116925 0.1868562280807508 0
0.045300701248976095 0.03997247953381527 0
0.03622599419594205 0.08159142380338788 0
0.1344033109879666 0.17290083311861215 0
0.3754849986022605 0.200790888316441 0
0.31220071832777285 0.18310827691529008 0
0.27691846936644954 0.131194466105336 0
0.2687915006931176 0.07020177750510452 0
0.3006414095438418 0.04702851371338186 0
0.2038721539901693 0.23035203486626046 0
0.20732724789908527 0.1433581107847009 0
0.46893576332124587 0.15509267628480378 0
0.4368430511488258 0.12266995971076608 0
0.37873810792714957 0.15289469670244302 0
0.399592922343733 0.16750750561362202 0
0.4775250412133946 0.07027897245356572 0
0.4077666437490172 0.0544922472720879 0
0.575643439511966 0.2037721559079982 0
0.6059353809233724 0.19929308437130233 0
0.5327236217953639 0.17954924133778855 0
0.2640211306977857 0.5528941720484123 0
0.8049488775506279 0.153353895706615 0
0.7710525360308245 0.06773633987257564 0
0.8178006815635156 0.11042492408028934 0
0.8379923607543933 0.1286521132580443 0
0.9119735794138084 0.16516710897723225 0
0.9697077107291951 0.26592889758231436 0
0.8339674054886489 0.3139186348997529 0
0.8865975441288173 0.14267389112508477 0
0.8032717160754774 0.19687566654927313 0
0.8279283516252711 0.19755977847141862 0
0.7703791050713656 0.28554545745398485 0
0.7948991910952902 0.27162105587401597 0
0.9553782087631308 0.5370519860714676 0
0.8907035852348647 0.5356368898236239 0
0.9219747186859235 0.5917744728473918 0
0.9513335357116426 0.450399737162434 0
0.38286292108166553 0.6826248768843851 0
0.37222355611784896 0.7117898836293256 0
0.45593112224121696 0.761217935905296 0
0.42972101533582147 0.7045974031009489 0
0.9636331975356615 0.03966174372260181 0
0.9375623508717107 0.14342027664844106 0
0.9737815186445605 0.15779737290766035 0
0.924017060472459 0.10865393276516616 0
0.07123577482548842 0.7658992767571267 0
0.09837120013126333 0.7419181734352815 0
0.13876889352221794 0.8176185708516739 0
0.1416743169133549 0.7958005393888992 0
0.9773410312170474 0.6991417308220287 0
0.8613768380179094 0.696717079762925 0
0.8354968478889823 0.7430872464815214 0
0.8880426571355138 0.7151209667275602 0
0.9004473031931243 0.6560597610970832 0
0.7757316842897539 0.5905932106128757 0
0.7703897806377874 0.666076883813711 0
0.873908279968288 0.9612145854165851 0
0.7458358072425242 0.9472732594968781 0
0.7881658499959456 0.9185312510967232 0
0.7985392041014573 0.8852572060280117 0
0.6975605312461379 0.8944514748271235 0
0.8426569893426848 0.8362787867997284 0
0.817314846450887 0.8083832299073941 0
0.8724927920684712 0.8025748310603326 0
0.7788303226182891 0.7415356742500531 0
0.7963944964873166 0.7955401024856898 0
0.9222742015601841 0.8563143852166439 0
0.9073940388602535 0.8338044362499114 0
0.9432764642851424 0.8083509246900986 0
0.8903160881062645 0.9282250232590161 0
0.9679160003488051 0.8567976212968582 0
0.7332575617589068 0.8454545934784096 0
0.6936843344607072 0.7233150804361934 0
0.6597098756914962 0.7949074388154377 0
0.6285507019563844 0.7522266541639075 0
0.668292229700115 0.9617224396849382 0
0.6630711363288303 0.9131299194494974 0
0.6232648786863122 0.8320185953186723 0
0.06672668109390877 0.7831762138295126 0
0.023818913653083428 0.835813535735831 0
0.02410122805065498 0.8148479314764833 0
0.06552945671244335 0.868440958729783 0
0.09444009330352285 0.8139696293901015 0
0.4320498056500973 0.6477404660492246 0
0.6785701365656558 0.5633536873355319 0
0.6371671545494708 0.48969408995822944 0
0.6863333049811399 0.5135892074201029 0
0.6430202162525355 0.5378272362200014 0
0.9141361587743563 0.31160584751720977 0
0.7111850401370885 0.6188722915556336 0
0.7491032085451949 0.5715234814913281 0
0.6883856759782085 0.2854454127599523 0
0.7983539090613558 0.2983907666450012 0
0.7907232944716066 0.21760302009508745 0
0.7164982788256902 0.2676325586468167 0
0.6338804777765372 0.3106571862582804 0
0.5575417140711804 0.3032220561964837 0
0.6954476776102441 0.19152152537032602 0
0.7132881807824909 0.2124179425158321 0
0.6472013867172676 0.1945616142925129 0
0.6240997747697046 0.20700771823299274 0
0.6005518307028476 0.24867319713934755 0
0.7158270989833172 0.10823340173001329 0
0.7399203269546836 0.17150061253250234 0
0.466858592931153 0.29698363692333535 0
0.46391521217146203 0.27357985050833755 0
0.5478736443092367 0.361321721395277 0
0.3393118820691924 0.4713398417578113 0
0.6253743925485289 0.6549139831411696 0
0.5930020183431051 0.8796319940378471 0
0.5226599109260845 0.7613702059883455 0
0.5952539368487404 0.8131141033106106 0
0.36455356372762954 0.7820209764531926 0
0.4716531577888798 0.852267421644494 0
0.49143032231642847 0.7828237923607951 0
0.3828993084777011 0.8396478691053121 0
0.33459531585830166 0.8975363347734211 0
0.3567291849490635 0.9157267516026296 0
0.24904327000458162 0.7299609781482638 0
0.27248203785762515 0.748369525519463 0
0.31898216239068505 0.705679788915417 0
0.3270680076606217 0.3497303862210798 0
0.29527775520195354 0.3537695836458311 0
0.3540879339837351 0.3566019707970408 0
0.31324127283080666 0.37312417556156185 0
0.28704759487281173 0.3872124066238718 0
0.4108246637798655 0.25756096516967325 0
0.4442670565779316 0.26484739272533486 0
0.4448912064461279 0.24370145224403433 0
0.4478706701918427 0.31088993049326097 0
0.4004769097874693 0.28467622915311186 0
0.41996531408929066 0.32411030896929227 0
0.3972975134898161 0.32039371828303714 0
0.4070444393560899 0.30674055285782487 0
0.3796270645305734 0.3246016399359539 0
0.3955816212926392 0.21281391656092355 0
0.35237037305490077 0.2906140863845915 0
0.3745851507236025 0.28461405040843285 0
0.28471920569603876 0.27577913533612547 0
0.12682743057761317 0.4723010546140267 0
0.03832167471096207 0.57744436951498 0
0.14692458874006079 0.58489175486592 0
0.08089324953948311 0.671939693638075 0
0.09542152508369779 0.7049847597679015 0
0.09381237644665211 0.284163078474398 0
0.10740407638757644 0.26772024597186506 0
0.08725742634399807 0.07586054818029556 0
0.08585946308861836 0.2175766815287756 0
0.3564984910725314 0.1889387693891708 0
0.2658573380024988 0.22800741378824643 0
0.2849640600606677 0.2063970589747815 0
0.28113257534966235 0.1791754250817916 0
0.25563385659231586 0.19579975593116403 0
0.4647576968536644 0.1311496174093897 0
0.42200456640999545 0.13807016828159374 0
0.4450830307625517 0.1512262646074558 0
0.40908410692030733 0.08438964595504236 0
0.6125647869180842 0.12460087263616991 0
0.774442825742826 0.12209483804110613 0
0.7405799190801511 0.0784072623982267 0
0.7980698178848475 0.0819939121954355 0
0.8994723283444718 0.19185136156949348 0
0.4140016848802144 0.6806551660439161 0
0.361294294625689 0.6901492477635865 0
0.36375591854583744 0.6637858385762562 0
0.3947639019819725 0.6545879323996574 0
0.4391233447361374 0.7455292867415845 0
0.47045366040358266 0.668643506701236 0
0.5029864672282444 0.6797879370772495 0
0.532705905364329 0.6349411201663377 0
0.418396757612047 0.729030788674754 0
0.47637963188427535 0.7607500340717057 0
0.45692660232779136 0.7040471842065195 0
0.9046724290199405 0.08006239018968117 0
0.94096957424113 0.0734068798993386 0
0.0804975029006281 0.7469108609342692 0
0.24657331707174043 0.7804226045534269 0
0.19574610392153666 0.7495330383810328 0
0.16591780871481634 0.7571541097667681 0
0.1245340609484814 0.8024748698320134 0
0.22148851354759339 0.844139017547684 0
0.19130596659115862 0.859763019835639 0
0.14381631560994762 0.7725324552209601 0
0.16237358824434256 0.7870663192358055 0
0.8399857968390934 0.5969957501388634 0
0.8415335333948402 0.635549376288622 0
0.8527033621087536 0.9411867430837255 0
0.8418571311044116 0.9751608062654096 0
0.8272207143030571 0.9088205947912222 0
0.8656130966778794 0.908406360621495 0
0.8925418382864833 0.8994560285560206 0
0.8765407736983603 0.8758431656980669 0
0.9405675277424994 0.8680376878072167 0
0.920525498976734 0.815028044755646 0
0.9702455966136453 0.8282261177995153 0
0.7105659203192026 0.8191752941767881 0
0.7467364393761342 0.8131593902601011 0
0.6663894824408195 0.7681684273384678 0
0.615209926431465 0.7725139720281561 0
0.5476528046151884 0.7578705515932405 0
0.5598422761543103 0.7360750308107791 0
0.705714729266673 0.9348959749507398 0
0.647845371859078 0.8805428563378639 0
0.6565158764003718 0.849753142902386 0
0.04646713557383156 0.8456239770914403 0
0.04270117359716961 0.7951677470672487 0
0.08665068069592159 0.7907491373738413 0
0.43107047555374695 0.6069210253193866 0
0.895646890990159 0.2758375835247548 0
0.9413071150562391 0.23234314235435174 0
0.956369680560758 0.31251790412800357 0
0.7050046986136056 0.6571761955920274 0
0.7443577789414277 0.604713179793408 0
0.684641179727991 0.25838289027570827 0
0.6922259773592756 0.31552040867910747 0
0.6251994387862714 0.235121578591672 0
0.6074212538021376 0.09614247088019087 0
0.45239203020018537 0.8517430017439781 0
0.41643092683737704 0.8111084282821476 0
0.482162167867563 0.8056114682667234 0
0.27485028593524874 0.6932193137935765 0
0.09521003257286846 0.8877351637907043 0
0.425974939746433 0.2733912086792946 0
0.3659425066595345 0.30750087961100614 0
0.37440077933511934 0.22541927335197803 0
0.3721022426073416 0.24537016933164485 0
0.28623362662861535 0.42814747727773217 0
0.1331415356304397 0.6138509844462098 0
0.06331305193788807 0.7300075305174787 0
0.07057441004312755 0.29042986816352223 0
0.16481761760520403 0.2949174140442105 0
0.14427045864954408 0.1937621898840962 0
0.18151866313783044 0.15813727022802124 0
0.1655622119815753 0.18069544680214825 0
0.07282939648665637 0.24134041262771208 0
0.3124626102786722 0.23630145386780996 0
0.4585079155125727 0.09876099588847781 0
0.42944128826380906 0.09779236208581973 0
0.437340118321444 0.06751473971252966 0
0.4072021917093469 0.11634130295755807 0
0.6405174615355884 0.11073447550755336 0
0.7667844043264906 0.17145030092660699 0
0.7556504009414337 0.143619707474709 0
0.7815562389001423 0.1489471273708728 0
0.7473815041096222 0.11530173642998467 0
0.7913136707099174 0.10868260822752228 0
0.7688412148467471 0.09578582222473372 0
0.4002119823777827 0.7086065672001927 0
0.3350261293545057 0.6812410198713136 0
0.24886693054890796 0.8244087384888847 0
0.17787301344774897 0.8060284190013056 0
0.16571522253294393 0.8310487727251253 0
0.9634726876914795 0.667765020754855 0
0.8315010773452903 0.7100820362897133 0
0.808536506365523 0.7620880062875596 0
0.8562207852478452 0.7279319671862311 0
0.9202666059524461 0.7855966711304425 0
0.910812067615435 0.8802559002195102 0
0.6924514159935575 0.7550371608840148 0
0.5312053086824181 0.7387116500715873 0
0.6012088979947952 0.7541332486609418 0
0.7105985572950992 0.9680322047672707 0
0.04622207737853603 0.8215437344537584 0
0.07440819882521665 0.8323773505949911 0
0.9325722841115287 0.274339828995295 0
0.743215040301439 0.20247646570143324 0
0.6609521791855292 0.334931997842708 0
0.6568731800440879 0.3635224355275195 0
0.6020558626516 0.22102722436960062 0
0.5971665885087618 0.7029777785541693 0
0.4800844658988961 0.8297655635321439 0
0.2955899762407682 0.7101763362095873 0
0.44641760200992386 0.2859450516149215 0
0.3936330888358801 0.2391751277602667 0
0.08346112164094631 0.6920962568501017 0
0.15406055168047447 0.14640011377390227 0
0.19809667831670125 0.17613838359309553 0
0.2921825623438202 0.2335787087287116 0
0.3109580843421265 0.21383872080616625 0
0.7977090584484768 0.13043690019029783 0
0.4964096492199521 0.590481322873233 0
0.5012584460607097 0.6501585083541758 0
0.46544366138840365 0.7352404223445778 0
0.1888210785943742 0.7795855972366916 0
0.9653063560923832 0.6282498909410076 0
0.9241858492800692 0.6768761646942627 0
0.8815450503761125 0.7769095522024525 0
0.5631321875156294 0.7821784952950231 0
0.6236394871335671 0.8639489845737335 0
0.6079605865988191 0.6764337989363798 0
0.4636448217431148 0.786273736460633 0
0.4580479493512234 0.8365287593976451 0
0.27187577924768597 0.7182860419793803 0
0.08365670819381085 0.2631276983357177 0
0.5053423961113168 0.6209094669628415 0
0.22203347679349084 0.8165299630720406 0
0.23423540504590215 0.7982948778718398 0
0.20710583940743674 0.7986293413437144 0
0.22075807967389197 0.7707263254364891 0
0.833340771756524 0.7660877740053809 0
0.5954019175914398 0.7829871465420184 0
0.5769072784670207 0.7573938534380988 0
0.06807194946035644 0.8052613890843403 0
0.9120961899260973 0.24865288711144087 0
0.43757895847749734 0.8003556527940326 0
0.45971531799737464 0.8150886816925077 0
0.4722954404725521 0.6253378539377189 0
0.19612639685795538 0.825369344599981 0
0.8566342160577404 0.7572376423386591 0
0.8239364105021456 0.7887730462305793 0
0.8534152493257776 0.784678326546076 0
0.9694675694697718 0.0 1
1.0 0.46849602899499965 1
0.46841423887915956 1.0 1
1.0 0.3461626327160363 1
0.2814482120134544 1.0 1
0.3439482120134544 1.0 1
0.0 0.0917950327254049 1
0.0 0.4064759373227358 1
0.7023536818457861 0.0 1
0.0 0.4689759373227358 1
1.0 0.6529078986290959 1
0.2814875455565996 0.0 1
0.40708572319673453 0.0 1
1.0 0.026190332578652723 1
0.7210720873334644 0.18799320652609633 0
0.4248143068479869 0.030006202633036487 0
0.7115775518053736 0.1649598846058329 0
0.0 0.15174766897303574 1
0.03506789159410115 0.11976379035596127 0
0.7959274695119335 0.5316548984606047 0
0.8505770656100821 0.5101003391155787 0
0.5158552482244013 0.07069612813930642 0
0.19902367490016842 0.35040266365737444 0
0.4327897462440554 0.8656849079752872 0
0.20766615373399955 0.4579416732666261 0
0.14580878188761767 0.25500403455157267 0
0.14253198441869824 0.2944498836946316 0
0.06294459134398321 0.10636212917828392 0
0.7794245637835036 0.5621198531591171 0
0.8918883238909011 0.8509910861928683 0
0.7285034936771992 0.362978173365298 0
0.28223953421462883 0.7901349505928836 0
0.6751140680721176 0.6664085824882393 0
0.7512377974260598 0.3536094004341233 0
0.28419308932530635 0.7675583528270691 0
0.4954599177460307 0.3574850550261354 0
0.6302407375958251 0.07086433815251279 0
0.2901692024720747 0.7313863611355982 0
0.8266441648391888 0.5203244984079798 0
0.0 0.9595893824688297 1
0.9255540340825269 0.49017160385936376 0
0.760854996366392 0.9247357266406842 0
0.0837131728006383 0.7746908318168247 0
0.05814892056779773 0.6909387344849697 0
0.0721714227938701 0.7106370694867623 0
0.654855716489952 0.6178217085040159 0
0.9010836731178428 0.7826178477678197 0
0.5547244666705803 0.9311940548487924 0
0.6496014922517687 0.0417537450536791 0
0.780364972695772 0.9672634804747156 0
0.8461856575269725 0.2916164302112504 0
0.7813833479140752 0.9392775797466216 0
0.7555199976373576 0.18487167884731973 0
1.0 0.1580709896127199 1
0.08986980295537786 0.0 1
1.0 0.5933448744846662 1

Edges
96
1 94 1
1 97 1
2 1044 1
2 1057 1
3 129 1
3 132 1
4 73 1
4 1083 1
5 56 1
5 103 1
6 126 1
6 1045 1
7 62 1
7 1046 1
8 89 1
8 1053 1
9 344 1
9 485 1
10 74 1
10 1048 1
13 142 1
13 303 1
14 52 1
14 1047 1
19 306 1
19 1052 1
21 93 1
21 1055 1
23 63 1
23 131 1
24 62 1
24 63 1
25 65 1
25 1049 1
27 73 1
27 74 1
29 223 1
29 257 1
33 83 1
33 1051 1
34 249 1
34 1098 1
36 104 1
36 1056 1
40 304 1
40 1097 1
41 118 1
41 119 1
43 317 1
43 331 1
44 1054 1
44 1099 1
46 328 1
46 330 1
48 132 1
48 341 1
50 345 1
50 347 1
52 1045 1
56 155 1
65 1046 1
83 223 1
89 241 1
90 242 1
90 243 1
93 249 1
94 1098 1
97 1050 1
98 257 1
98 1061 1
103 1056 1
104 1055 1
116 303 1
116 1097 1
117 304 1
117 1057 1
118 1044 1
119 306 1
125 317 1
125 1054 1
126 1099 1
129 328 1
130 330 1
130 331 1
131 341 1
134 344 1
134 345 1
142 1047 1
154 155 1
154 1052 1
241 242 1
243 485 1
347 1083 1
1048 1049 1
1050 1061 1
1051 1053 1

Triangles
2100
1 734 97 0
3 132 613 0
5 56 386 0
5 268 272 0
5 386 268 0
6 126 766 0
6 766 566 0
9 485 585 0
10 74 75 0
11 137 1077 0
11 144 138 0
11 561 109 0
12 362 51 0
12 1063 362 0
12 1064 1082 0
13 557 303 0
14 363 1047 0
15 291 292 0
16 141 362 0
17 164 401 0
17 275 385 0
17 401 522 0
18 150 381 0
18 161 839 0
18 381 382 0
20 165 399 0
20 1079 667 0
21 263 505 0
22 403 868 0
22 747 526 0
22 868 737 0
23 63 994 0
23 790 1093 0
24 62 683 0
24 683 416 0
26 188 191 0
26 191 432 0
26 205 206 0
27 73 204 0
27 204 203 0
28 75 202 0
28 76 187 0
28 202 448 0
28 448 207 0
30 210 213 0
30 245 495 0
30 495 507 0
31 208 217 0
31 871 456 0
32 246 465 0
32 248 246 0
33 83 467 0
33 467 248 0
35 99 492 0
37 273 536 0
37 535 273 0
37 741 535 0
39 114 364 0
39 115 769 0
39 1084 114 0
40 776 577 0
41 118 310 0
41 120 578 0
42 313 590 0
42 590 591 0
42 779 482 0
43 316 317 0
45 603 616 0
45 607 794 0
46 803 330 0
47 339 804 0
47 605 604 0
48 920 789 0
49 612 802 0
49 990 634 0
50 349 636 0
51 139 138 0
51 362 141 0
53 14 52 0
54 16 362 0
54 823 367 0
54 1063 1072 0
55 152 834 0
55 384 656 0
56 155 279 0
57 651 652 0
57 652 659 0
57 658 830 0
57 659 832 0
58 165 400 0
58 166 452 0
58 452 864 0
59 171 212 0
59 212 674 0
59 549 171 0
59 674 840 0
60 174 840 0
60 675 408 0
61 570 902 0
61 902 639 0
62 7 180 0
62 180 683 0
64 420 684 0
65 25 66 0
65 66 681 0
66 25 434 0
66 434 693 0
66 693 430 0
67 10 75 0
67 75 187 0
67 186 691 0
67 691 428 0
68 188 193 0
68 193 694 0
68 194 436 0
69 190 433 0
69 433 692 0
69 690 848 0
70 192 206 0
70 982 701 0
70 1075 435 0
71 195 447 0
71 443 686 0
72 198 230 0
72 231 697 0
72 695 196 0
72 717 231 0
73 4 1083 0
73 201 204 0
74 27 203 0
75 28 187 0
75 74 202 0
76 28 207 0
76 186 187 0
76 207 702 0
76 702 205 0
77 502 503 0
77 957 958 0
78 210 510 0
78 211 713 0
78 510 710 0
78 871 211 0
79 213 215 0
79 214 463 0
79 215 216 0
79 463 464 0
80 216 713 0
81 85 1053 0
81 225 226 0
81 1051 220 0
82 221 1066 0
82 222 731 0
82 466 468 0
84 224 872 0
84 469 224 0
85 81 226 0
85 226 227 0
86 231 717 0
86 232 471 0
86 552 551 0
87 228 235 0
87 874 237 0
88 239 479 0
88 476 484 0
88 478 477 0
88 484 725 0
89 8 718 0
90 242 472 0
90 472 486 0
91 241 873 0
91 481 722 0
91 722 472 0
91 873 473 0
92 83 223 0
92 223 244 0
92 244 491 0
92 467 83 0
92 491 962 0
93 21 505 0
94 253 734 0
95 258 733 0
95 733 500 0
95 967 251 0
96 496 728 0
96 498 964 0
97 735 1050 0
99 35 260 0
99 259 1062 0
99 1062 1071 0
100 537 540 0
100 738 262 0
101 277 752 0
101 752 542 0
102 271 527 0
102 533 888 0
103 5 272 0
104 36 535 0
105 36 1056 0
105 273 535 0
105 1059 749 0
106 387 388 0
106 388 389 0
106 973 393 0
107 282 1065 0
107 283 547 0
107 547 281 0
108 116 303 0
108 776 116 0
108 942 555 0
109 143 11 0
109 561 825 0
109 825 760 0
110 291 760 0
110 760 1094 0
111 294 299 0
111 299 763 0
111 556 559 0
112 298 763 0
113 377 826 0
114 767 1064 0
115 15 53 0
115 39 364 0
116 776 1097 0
117 575 774 0
117 774 1057 0
118 774 310 0
119 41 578 0
120 41 310 0
120 309 579 0
120 310 906 0
121 582 778 0
122 313 482 0
122 482 724 0
122 911 915 0
122 915 313 0
123 315 912 0
124 316 325 0
124 593 1018 0
125 985 1054 0
126 318 766 0
127 323 325 0
127 324 614 0
128 327 796 0
128 926 800 0
128 1073 327 0
129 3 613 0
131 23 1093 0
131 342 920 0
132 48 632 0
132 632 613 0
133 46 328 0
133 328 329 0
133 803 46 0
134 344 346 0
134 346 813 0
135 351 360 0
135 354 351 0
135 359 639 0
135 639 353 0
136 148 818 0
136 820 360 0
137 11 138 0
137 138 139 0
137 380 1074 0
137 1074 1077 0
138 144 146 0
139 141 140 0
139 380 137 0
140 380 139 0
141 16 819 0
141 139 51 0
141 365 140 0
142 759 13 0
142 1047 943 0
143 109 760 0
143 760 291 0
144 11 143 0
144 291 145 0
145 15 115 0
146 12 51 0
146 51 138 0
146 144 145 0
146 145 364 0
146 643 12 0
147 148 136 0
147 159 160 0
147 368 148 0
148 149 818 0
149 365 818 0
149 382 369 0
150 656 657 0
150 657 381 0
150 839 374 0
151 376 827 0
151 565 764 0
151 653 377 0
152 55 370 0
152 385 541 0
153 384 660 0
153 390 383 0
154 157 1092 0
154 1052 157 0
155 154 391 0
155 391 279 0
156 153 660 0
156 390 153 0
156 652 946 0
157 394 1092 0
157 396 394 0
158 19 289 0
159 147 351 0
159 351 354 0
159 406 669 0
160 669 676 0
162 167 665 0
162 675 173 0
163 372 373 0
163 373 375 0
163 399 837 0
164 17 371 0
164 371 372 0
165 58 864 0
166 58 167 0
166 173 172 0
166 209 452 0
167 58 400 0
167 173 166 0
167 400 665 0
168 162 665 0
168 665 169 0
169 397 168 0
169 398 397 0
169 665 667 0
169 668 398 0
170 404 838 0
170 838 860 0
170 860 861 0
171 234 715 0
171 549 753 0
171 715 212 0
171 753 234 0
172 672 704 0
172 704 856 0
173 167 162 0
173 672 172 0
174 284 840 0
176 61 677 0
177 355 841 0
177 361 1089 0
178 179 1091 0
178 413 422 0
178 422 842 0
179 416 683 0
180 7 680 0
180 678 1091 0
181 300 301 0
181 845 686 0
182 847 421 0
183 64 684 0
183 413 64 0
183 422 413 0
184 414 415 0
184 425 1067 0
184 950 846 0
186 67 187 0
186 76 205 0
186 205 432 0
186 432 691 0
188 26 192 0
188 68 429 0
188 192 193 0
188 429 690 0
189 185 687 0
189 429 436 0
190 69 431 0
190 430 433 0
191 188 690 0
191 692 849 0
192 26 206 0
192 435 193 0
193 435 694 0
194 68 694 0
195 71 438 0
195 694 437 0
195 698 447 0
196 198 72 0
196 695 851 0
197 439 909 0
197 586 851 0
198 229 230 0
198 312 229 0
198 314 312 0
199 548 285 0
200 442 981 0
200 444 442 0
200 953 445 0
200 1004 953 0
201 73 1083 0
201 347 636 0
201 636 348 0
202 74 203 0
202 203 450 0
203 449 450 0
204 449 203 0
205 26 432 0
205 702 206 0
206 702 982 0
209 166 172 0
209 172 856 0
210 30 507 0
210 78 215 0
210 507 509 0
210 509 510 0
211 31 217 0
211 80 713 0
211 217 80 0
213 79 464 0
213 210 215 0
213 464 726 0
214 79 216 0
214 216 218 0
214 712 461 0
215 78 713 0
216 80 218 0
217 208 219 0
217 459 80 0
218 80 459 0
218 459 855 0
218 712 214 0
219 208 458 0
219 458 854 0
220 32 225 0
220 33 248 0
221 82 731 0
221 487 726 0
221 726 464 0
222 82 468 0
222 465 730 0
222 468 469 0
222 730 731 0
223 29 244 0
224 716 872 0
225 32 469 0
225 81 220 0
225 84 226 0
226 872 227 0
227 228 237 0
227 237 474 0
227 474 718 0
228 87 237 0
228 227 872 0
229 238 477 0
229 477 478 0
229 478 230 0
230 470 717 0
230 478 470 0
231 86 233 0
232 470 720 0
233 86 551 0
233 444 445 0
235 234 550 0
235 715 234 0
236 243 486 0
236 311 585 0
236 486 584 0
238 476 477 0
239 88 725 0
239 725 875 0
241 89 873 0
242 91 472 0
242 241 91 0
243 90 486 0
243 236 485 0
244 29 250 0
244 250 251 0
244 251 491 0
245 30 726 0
246 247 488 0
247 962 877 0
248 32 220 0
248 467 490 0
248 490 246 0
250 29 257 0
250 257 258 0
251 258 95 0
252 34 249 0
253 34 252 0
253 879 734 0
253 1098 34 0
254 35 492 0
254 492 879 0
254 493 518 0
255 496 513 0
256 35 497 0
256 497 736 0
256 499 500 0
256 500 260 0
257 98 258 0
258 98 259 0
258 251 250 0
258 259 733 0
259 98 1061 0
259 99 260 0
259 1061 1062 0
260 35 256 0
260 500 733 0
260 733 259 0
261 502 1011 0
261 538 881 0
262 534 100 0
262 738 884 0
262 739 534 0
264 512 966 0
264 1009 514 0
265 93 505 0
265 249 93 0
265 252 249 0
265 520 493 0
266 511 515 0
266 515 743 0
267 263 740 0
267 732 505 0
267 740 517 0
268 386 1065 0
269 276 277 0
269 282 276 0
269 525 744 0
269 886 282 0
271 102 529 0
272 268 748 0
272 971 1059 0
273 749 889 0
274 22 737 0
274 539 746 0
274 737 881 0
274 746 747 0
275 17 522 0
275 522 542 0
275 543 750 0
276 107 281 0
276 282 107 0
277 525 269 0
277 545 752 0
278 38 544 0
278 544 545 0
278 546 38 0
280 278 281 0
280 281 547 0
280 949 890 0
281 278 545 0
281 545 276 0
282 748 1065 0
282 969 748 0
283 107 1065 0
283 279 392 0
283 386 279 0
283 392 547 0
284 59 840 0
284 285 548 0
284 671 285 0
285 352 199 0
285 671 407 0
286 199 696 0
286 287 548 0
286 442 441 0
286 548 199 0
287 286 441 0
287 549 548 0
287 552 753 0
288 554 579 0
289 19 306 0
289 306 307 0
289 661 158 0
289 892 661 0
290 558 559 0
290 559 894 0
290 894 555 0
291 15 145 0
291 110 292 0
291 144 143 0
293 296 757 0
294 111 559 0
294 562 560 0
295 658 387 0
296 112 754 0
296 293 298 0
296 553 757 0
297 650 974 0
297 762 650 0
297 976 754 0
298 111 763 0
298 112 296 0
298 556 111 0
299 563 763 0
300 443 771 0
300 686 443 0
300 771 980 0
300 903 301 0
300 980 903 0
302 176 418 0
302 570 176 0
302 901 570 0
304 577 575 0
305 108 555 0
305 776 108 0
306 119 307 0
307 119 578 0
307 755 289 0
308 307 578 0
309 120 906 0
309 288 579 0
310 907 906 0
311 236 584 0
311 582 585 0
311 584 961 0
312 238 229 0
312 910 911 0
312 911 724 0
313 42 482 0
314 196 586 0
314 198 196 0
315 123 815 0
315 590 912 0
315 939 591 0
316 124 782 0
316 127 325 0
316 324 127 0
316 782 317 0
317 782 125 0
318 1099 44 0
319 321 788 0
319 787 598 0
319 945 787 0
320 602 596 0
320 606 358 0
320 797 606 0
321 319 598 0
321 598 918 0
321 602 788 0
322 607 617 0
322 617 619 0
323 127 614 0
323 594 325 0
324 43 331 0
324 316 43 0
324 331 332 0
324 332 614 0
325 593 124 0
326 594 595 0
326 988 785 0
326 1019 1041 0
327 608 796 0
327 633 794 0
328 129 329 0
329 129 613 0
329 634 133 0
330 927 130 0
331 130 332 0
332 927 801 0
333 47 804 0
333 804 618 0
334 622 928 0
334 928 625 0
335 337 806 0
335 630 810 0
335 844 1033 0
335 931 337 0
336 175 338 0
336 412 175 0
336 807 627 0
337 629 930 0
337 807 629 0
338 175 805 0
338 805 991 0
338 930 629 0
339 631 936 0
340 810 1021 0
340 844 810 0
340 1021 842 0
341 131 920 0
342 131 1093 0
342 919 920 0
342 921 919 0
342 1093 1095 0
343 45 633 0
343 603 45 0
343 633 924 0
343 921 603 0
343 922 921 0
344 9 635 0
345 349 50 0
346 344 635 0
346 635 938 0
347 50 636 0
347 201 1083 0
348 204 201 0
348 636 814 0
348 814 954 0
349 345 812 0
349 812 937 0
350 637 589 0
350 700 954 0
350 954 814 0
351 136 360 0
351 147 136 0
352 696 199 0
352 940 440 0
353 639 902 0
354 135 353 0
354 1013 406 0
355 177 1089 0
355 640 1076 0
355 1076 356 0
356 175 412 0
356 412 1022 0
356 1076 175 0
357 944 641 0
357 1076 944 0
358 606 624 0
358 624 805 0
359 135 360 0
359 177 410 0
359 361 177 0
360 361 359 0
361 366 1089 0
362 1063 54 0
363 14 53 0
364 114 643 0
364 145 115 0
364 643 146 0
365 149 369 0
365 369 140 0
366 361 817 0
366 644 822 0
366 817 644 0
367 16 54 0
367 817 819 0
367 823 644 0
368 147 160 0
368 160 398 0
368 161 647 0
369 382 655 0
370 55 656 0
370 385 152 0
370 656 829 0
371 17 385 0
371 648 372 0
371 829 648 0
372 163 664 0
372 664 164 0
373 372 648 0
373 374 666 0
373 648 374 0
373 666 375 0
374 648 829 0
374 829 150 0
375 399 163 0
375 666 1079 0
376 151 764 0
376 649 827 0
377 113 565 0
377 565 151 0
377 650 826 0
377 998 650 0
378 827 946 0
379 376 561 0
379 561 1077 0
379 947 649 0
380 654 1074 0
382 149 647 0
382 381 1000 0
383 824 947 0
383 828 153 0
383 947 999 0
384 55 660 0
384 153 828 0
385 275 541 0
385 370 371 0
386 56 279 0
386 283 1065 0
387 106 393 0
387 658 388 0
388 658 832 0
389 388 832 0
389 832 833 0
389 833 751 0
390 156 946 0
391 154 1092 0
391 392 279 0
392 391 1080 0
393 663 387 0
394 396 395 0
394 973 1080 0
394 1080 1092 0
395 396 835 0
395 973 394 0
396 157 661 0
396 892 835 0
397 398 160 0
397 676 409 0
398 161 368 0
399 165 862 0
399 375 20 0
400 165 20 0
400 667 665 0
401 164 404 0
401 521 522 0
402 403 527 0
402 859 1006 0
402 861 705 0
403 22 526 0
404 170 405 0
404 664 838 0
405 170 861 0
405 523 521 0
405 528 523 0
406 159 354 0
407 352 285 0
407 406 638 0
407 671 670 0
407 940 352 0
408 174 60 0
408 409 670 0
408 671 174 0
408 675 409 0
409 168 397 0
410 677 61 0
410 841 1022 0
411 176 677 0
411 418 176 0
411 628 933 0
411 677 1002 0
411 933 418 0
412 627 1002 0
413 178 678 0
413 424 64 0
414 413 678 0
414 424 413 0
415 425 184 0
416 179 682 0
417 302 418 0
419 1020 1033 0
420 182 685 0
420 952 847 0
421 843 182 0
423 420 64 0
423 952 420 0
424 414 846 0
424 423 64 0
425 190 1067 0
425 415 679 0
426 181 301 0
426 185 689 0
426 301 427 0
426 427 1037 0
426 951 185 0
427 899 772 0
427 1023 1037 0
428 434 1049 0
429 68 436 0
429 848 690 0
430 190 425 0
431 848 687 0
431 1067 190 0
432 191 849 0
433 693 850 0
434 691 850 0
435 192 70 0
435 437 694 0
436 194 845 0
436 845 689 0
437 435 1075 0
437 698 195 0
437 1075 1078 0
438 71 686 0
438 194 694 0
438 845 194 0
439 852 1078 0
440 816 898 0
440 940 816 0
441 442 444 0
441 444 551 0
442 286 696 0
442 897 981 0
443 71 446 0
443 569 771 0
444 200 445 0
444 233 551 0
446 71 447 0
447 699 446 0
448 202 450 0
449 204 348 0
449 348 954 0
449 954 700 0
450 449 700 0
451 708 958 0
451 859 863 0
451 958 1006 0
452 867 865 0
453 209 856 0
453 709 956 0
453 856 854 0
453 867 209 0
454 77 708 0
454 455 456 0
454 456 968 0
454 502 77 0
455 31 456 0
455 208 31 0
455 454 708 0
455 709 208 0
457 461 712 0
457 711 460 0
458 208 709 0
458 709 453 0
459 217 219 0
459 219 855 0
460 462 461 0
460 466 462 0
460 714 466 0
461 457 460 0
461 463 214 0
462 82 1066 0
462 466 82 0
463 461 462 0
463 462 1066 0
464 1066 221 0
465 469 32 0
465 488 730 0
467 92 490 0
468 224 469 0
468 466 714 0
468 714 224 0
469 84 225 0
469 465 222 0
470 721 720 0
473 481 91 0
474 473 873 0
474 475 473 0
475 237 874 0
475 474 237 0
475 480 473 0
475 874 960 0
475 960 480 0
476 88 477 0
476 238 483 0
476 483 484 0
478 479 721 0
479 478 88 0
480 479 239 0
481 239 875 0
481 473 480 0
481 480 239 0
482 240 483 0
482 483 724 0
483 240 484 0
485 236 585 0
486 472 722 0
486 1087 584 0
488 465 246 0
488 489 1070 0
489 488 247 0
490 247 246 0
491 967 1026 0
492 99 1071 0
493 252 265 0
493 879 252 0
494 245 963 0
494 495 245 0
494 1069 255 0
495 255 506 0
495 494 255 0
495 506 507 0
496 96 512 0
496 255 1069 0
496 512 513 0
497 35 254 0
497 254 518 0
497 518 1008 0
498 96 501 0
498 256 736 0
498 499 256 0
498 736 964 0
499 498 501 0
499 501 880 0
499 880 500 0
501 96 728 0
501 728 729 0
502 261 503 0
502 968 1011 0
503 261 881 0
503 957 77 0
504 37 537 0
504 534 739 0
504 739 517 0
504 740 741 0
505 263 267 0
506 255 513 0
506 513 742 0
507 506 742 0
507 742 509 0
508 510 509 0
508 882 510 0
508 885 882 0
511 262 884 0
511 266 739 0
511 739 262 0
512 96 964 0
512 264 513 0
512 964 966 0
513 264 742 0
514 508 742 0
514 742 264 0
515 511 885 0
515 514 1009 0
515 885 514 0
516 267 517 0
516 520 732 0
517 266 516 0
517 739 266 0
519 518 520 0
519 965 1008 0
520 265 732 0
520 516 519 0
520 518 493 0
521 401 404 0
521 404 405 0
521 523 524 0
523 270 524 0
523 528 270 0
524 101 542 0
524 522 521 0
524 525 101 0
525 270 529 0
525 277 101 0
525 524 270 0
526 102 527 0
526 527 403 0
527 528 402 0
528 271 270 0
528 405 861 0
528 527 271 0
528 861 402 0
529 270 271 0
529 744 525 0
529 888 744 0
530 37 536 0
530 531 540 0
530 540 537 0
531 532 746 0
531 536 972 0
532 747 746 0
533 102 526 0
533 526 747 0
533 887 888 0
534 504 537 0
535 36 105 0
535 741 104 0
536 273 889 0
536 531 530 0
536 889 972 0
537 37 530 0
537 100 534 0
538 100 539 0
538 261 738 0
538 539 881 0
539 100 540 0
539 274 881 0
539 540 746 0
541 750 1001 0
541 834 152 0
542 522 524 0
542 752 543 0
543 275 542 0
544 38 750 0
544 543 752 0
544 750 543 0
545 277 276 0
545 544 752 0
546 106 389 0
546 278 280 0
546 389 38 0
547 949 280 0
548 549 284 0
549 59 284 0
549 287 753 0
550 552 471 0
550 719 235 0
551 287 441 0
552 86 471 0
552 287 551 0
552 550 753 0
553 296 754 0
553 754 1012 0
554 288 756 0
554 308 579 0
554 756 893 0
555 758 305 0
555 942 290 0
556 298 293 0
556 758 894 0
557 108 303 0
557 759 942 0
558 294 559 0
558 1036 941 0
559 556 894 0
560 299 294 0
560 563 299 0
561 11 1077 0
562 110 1094 0
562 294 558 0
562 564 560 0
562 941 110 0
563 560 113 0
563 762 763 0
564 113 560 0
564 562 1094 0
564 760 825 0
564 765 113 0
564 825 765 0
565 113 765 0
566 766 1084 0
566 769 1045 0
566 1045 6 0
567 568 767 0
567 767 768 0
568 1063 1082 0
569 443 446 0
569 446 853 0
570 61 176 0
570 1014 902 0
571 895 816 0
572 899 903 0
572 903 773 0
573 417 992 0
573 421 904 0
573 574 417 0
573 843 421 0
574 302 417 0
574 573 1015 0
574 901 302 0
574 905 900 0
575 117 304 0
575 907 774 0
576 775 758 0
577 304 40 0
577 907 575 0
578 579 308 0
579 578 120 0
580 288 309 0
580 293 757 0
580 309 581 0
580 761 293 0
581 309 906 0
581 761 580 0
581 906 777 0
582 121 585 0
582 311 961 0
582 961 908 0
583 779 908 0
583 961 1088 0
585 121 635 0
586 196 851 0
586 197 1031 0
586 1031 910 0
587 448 450 0
587 450 700 0
587 984 914 0
588 780 781 0
588 916 983 0
589 123 780 0
589 587 700 0
589 637 123 0
589 700 350 0
589 780 984 0
590 313 915 0
590 315 591 0
590 781 912 0
591 723 42 0
591 939 1086 0
593 785 592 0
594 323 595 0
594 326 785 0
594 593 325 0
595 323 989 0
595 989 1090 0
595 1019 326 0
596 797 320 0
596 986 784 0
596 987 797 0
597 600 768 0
597 768 1017 0
597 985 1018 0
597 1018 786 0
598 645 917 0
599 592 783 0
599 600 786 0
599 601 918 0
599 783 601 0
600 567 768 0
600 917 567 0
601 321 918 0
602 320 788 0
602 321 601 0
602 601 986 0
604 605 1085 0
605 47 333 0
605 615 792 0
605 791 1085 0
606 609 621 0
607 45 616 0
607 322 795 0
607 608 794 0
607 616 617 0
608 327 794 0
608 607 795 0
608 1043 796 0
609 606 797 0
610 799 800 0
610 800 926 0
610 801 927 0
611 128 796 0
611 1019 1090 0
612 613 632 0
612 632 802 0
612 634 329 0
613 612 329 0
614 989 323 0
615 333 618 0
615 605 333 0
616 603 792 0
617 616 615 0
617 618 619 0
618 617 615 0
618 929 619 0
620 619 929 0
620 621 609 0
621 622 623 0
621 623 606 0
621 929 622 0
622 334 623 0
622 929 928 0
624 606 623 0
624 991 805 0
625 630 806 0
625 806 334 0
625 928 339 0
625 936 630 0
626 340 422 0
626 419 844 0
626 422 183 0
626 684 419 0
626 844 340 0
627 412 336 0
627 628 1002 0
627 807 993 0
628 627 993 0
629 336 338 0
629 807 336 0
630 335 806 0
631 809 935 0
633 45 794 0
633 1073 924 0
634 612 49 0
634 925 133 0
635 9 585 0
635 121 938 0
636 349 814 0
637 996 815 0
638 406 1013 0
638 1039 940 0
639 359 410 0
639 410 61 0
640 366 822 0
640 822 944 0
640 1089 366 0
641 320 358 0
641 358 357 0
642 15 292 0
642 53 15 0
642 363 53 0
642 821 943 0
642 943 363 0
643 114 1064 0
644 817 367 0
645 568 917 0
645 598 787 0
645 787 1072 0
646 788 641 0
646 822 945 0
646 945 319 0
647 18 382 0
647 148 368 0
647 149 148 0
647 161 18 0
649 376 379 0
649 824 827 0
650 762 826 0
650 998 1096 0
651 57 830 0
651 378 652 0
651 831 378 0
652 156 659 0
652 378 946 0
653 378 831 0
654 379 1074 0
654 380 655 0
655 140 369 0
655 380 140 0
655 382 1000 0
655 1000 654 0
656 150 829 0
656 384 657 0
657 384 828 0
658 295 830 0
659 156 948 0
660 55 834 0
660 834 948 0
660 948 156 0
661 157 158 0
662 663 835 0
662 835 977 0
663 295 387 0
663 393 395 0
663 1060 295 0
664 163 837 0
664 404 164 0
666 374 839 0
666 668 1079 0
667 400 20 0
668 161 398 0
668 169 667 0
668 666 839 0
668 667 1079 0
669 160 159 0
669 406 670 0
670 406 407 0
670 409 676 0
670 671 408 0
671 284 174 0
672 173 60 0
672 703 704 0
673 672 60 0
673 703 672 0
673 840 674 0
674 959 673 0
675 60 173 0
675 162 168 0
675 168 409 0
676 397 160 0
676 669 670 0
678 178 1091 0
678 180 680 0
678 415 414 0
679 66 430 0
679 415 680 0
679 430 425 0
679 680 681 0
679 681 66 0
680 7 1046 0
680 415 678 0
681 680 1046 0
681 1046 65 0
682 809 416 0
682 935 809 0
683 1091 179 0
684 420 685 0
684 626 183 0
684 1020 419 0
685 182 843 0
685 843 932 0
685 932 1020 0
686 300 181 0
687 185 951 0
688 431 687 0
688 950 1067 0
688 1038 1024 0
689 181 426 0
689 185 189 0
689 189 436 0
690 692 191 0
691 432 849 0
691 434 428 0
691 849 850 0
692 433 850 0
692 690 69 0
693 433 430 0
693 434 850 0
694 195 438 0
695 72 697 0
695 697 953 0
695 953 1025 0
696 352 440 0
696 898 897 0
697 231 233 0
697 233 445 0
697 445 953 0
698 437 1078 0
698 852 1081 0
699 447 698 0
699 698 1081 0
699 1004 853 0
701 439 1075 0
701 982 1029 0
702 913 982 0
703 857 704 0
703 959 858 0
704 854 856 0
704 857 854 0
705 860 955 0
706 862 864 0
706 863 955 0
706 864 866 0
707 865 867 0
707 867 956 0
708 77 958 0
708 451 870 0
709 869 956 0
710 882 1010 0
711 212 715 0
711 457 959 0
711 715 1068 0
712 855 858 0
713 216 215 0
714 460 711 0
714 711 1068 0
714 716 224 0
715 235 716 0
715 716 1068 0
716 228 872 0
716 235 228 0
716 714 1068 0
717 72 230 0
717 232 86 0
717 470 232 0
718 8 85 0
718 85 227 0
718 474 873 0
719 87 235 0
719 471 232 0
719 550 471 0
719 874 87 0
720 719 232 0
720 874 719 0
721 470 478 0
721 479 960 0
721 960 720 0
722 481 875 0
722 875 1087 0
723 591 1086 0
724 238 312 0
724 483 238 0
725 484 876 0
725 1007 875 0
726 30 213 0
726 487 963 0
727 494 1070 0
727 728 1069 0
727 1070 489 0
728 496 1069 0
729 728 878 0
729 878 1026 0
729 880 501 0
729 967 880 0
730 487 731 0
730 488 487 0
731 487 221 0
732 265 505 0
732 267 516 0
734 1 94 0
735 97 734 0
735 734 879 0
735 879 1071 0
737 503 881 0
737 957 503 0
738 100 538 0
738 261 1011 0
740 263 741 0
740 504 517 0
741 37 504 0
741 1055 104 0
742 508 509 0
743 515 1009 0
743 516 266 0
743 519 516 0
743 965 519 0
745 886 888 0
745 972 970 0
746 540 531 0
747 22 274 0
747 532 533 0
748 268 1065 0
749 273 105 0
750 38 751 0
750 541 275 0
750 751 1001 0
751 38 389 0
753 550 234 0
754 112 297 0
754 976 1012 0
755 893 979 0
756 288 757 0
756 553 1012 0
756 757 553 0
757 288 580 0
758 555 894 0
758 556 761 0
759 557 13 0
759 997 942 0
760 564 1094 0
761 556 293 0
761 576 758 0
761 581 576 0
762 112 763 0
762 297 112 0
764 561 376 0
764 825 561 0
765 764 565 0
766 318 768 0
766 767 1084 0
766 768 767 0
767 114 1084 0
769 52 1045 0
769 53 52 0
769 115 53 0
769 1084 39 0
770 771 896 0
770 895 980 0
770 896 897 0
770 897 898 0
770 980 771 0
771 569 896 0
772 899 1015 0
772 904 1023 0
772 1015 904 0
773 895 571 0
773 905 572 0
774 118 1044 0
775 305 758 0
775 576 777 0
775 776 305 0
775 777 577 0
776 40 1097 0
776 775 577 0
777 576 581 0
778 582 908 0
778 723 1086 0
778 811 121 0
778 908 723 0
779 42 723 0
779 240 482 0
779 583 240 0
779 723 908 0
780 123 912 0
780 588 984 0
781 590 915 0
781 780 912 0
781 916 588 0
782 124 985 0
782 985 125 0
783 785 988 0
783 988 986 0
784 986 988 0
784 1041 1032 0
785 593 594 0
785 783 592 0
786 592 599 0
786 600 597 0
786 1018 592 0
787 823 1072 0
788 320 641 0
788 646 319 0
789 632 48 0
789 802 632 0
790 23 994 0
790 604 1085 0
790 1095 1093 0
791 342 1095 0
791 605 792 0
791 792 921 0
792 603 921 0
792 615 616 0
793 47 604 0
793 339 47 0
793 631 339 0
795 798 1042 0
796 1043 1019 0
797 987 609 0
798 322 619 0
798 609 987 0
798 619 620 0
798 620 609 0
798 795 322 0
799 610 925 0
799 925 990 0
799 990 1073 0
800 799 1073 0
801 610 926 0
801 614 332 0
801 926 989 0
802 919 922 0
802 923 49 0
803 610 927 0
803 925 610 0
803 927 330 0
804 339 928 0
804 928 929 0
804 929 618 0
805 175 357 0
805 357 358 0
806 337 930 0
807 337 931 0
808 24 416 0
808 63 24 0
808 809 934 0
808 934 994 0
809 631 793 0
809 808 416 0
810 630 936 0
811 778 1086 0
811 1035 938 0
812 345 134 0
813 346 938 0
813 812 134 0
813 995 812 0
814 349 937 0
814 996 350 0
815 123 637 0
815 996 1035 0
816 895 898 0
816 900 571 0
816 940 1039 0
816 1039 900 0
818 365 819 0
819 16 367 0
819 365 141 0
820 136 818 0
820 361 360 0
820 817 361 0
820 818 819 0
820 819 817 0
821 292 110 0
821 642 292 0
822 644 945 0
822 646 944 0
823 54 1072 0
823 787 945 0
823 945 644 0
824 383 390 0
824 390 946 0
825 764 765 0
826 563 113 0
826 762 563 0
827 378 653 0
827 653 151 0
827 824 946 0
828 381 657 0
828 383 999 0
828 999 381 0
829 371 370 0
830 831 651 0
831 830 1058 0
831 1058 998 0
832 658 57 0
832 659 833 0
833 659 948 0
833 948 1001 0
834 541 1001 0
835 663 395 0
836 662 975 0
836 974 1096 0
836 998 1058 0
836 1060 662 0
837 399 862 0
837 838 664 0
837 862 1005 0
838 837 1005 0
839 150 18 0
839 161 668 0
840 673 60 0
841 355 356 0
841 410 177 0
842 179 178 0
842 422 340 0
842 682 179 0
843 992 932 0
844 335 810 0
844 419 1033 0
845 181 689 0
845 438 686 0
846 414 184 0
846 1003 424 0
847 182 420 0
847 952 1023 0
848 189 687 0
848 429 189 0
848 431 69 0
849 692 850 0
851 695 1025 0
852 197 851 0
852 439 197 0
852 698 1078 0
852 1025 1081 0
853 446 699 0
854 458 453 0
854 857 855 0
855 219 854 0
855 712 218 0
855 857 858 0
857 703 858 0
858 457 712 0
859 402 705 0
859 451 1006 0
859 705 955 0
860 705 861 0
860 838 1005 0
862 165 864 0
863 706 866 0
863 707 870 0
863 859 955 0
863 866 707 0
864 452 865 0
864 865 866 0
865 707 866 0
867 452 209 0
867 453 956 0
868 403 402 0
868 957 737 0
869 455 708 0
869 708 870 0
869 709 455 0
869 870 956 0
870 451 863 0
870 707 956 0
871 31 211 0
871 78 710 0
871 710 456 0
872 226 84 0
873 89 718 0
874 720 960 0
875 1007 1087 0
876 240 583 0
876 484 240 0
876 583 1088 0
877 489 247 0
877 1026 878 0
878 489 877 0
878 727 489 0
878 728 727 0
879 253 252 0
879 492 1071 0
879 493 254 0
880 95 500 0
880 967 95 0
882 710 510 0
882 883 1010 0
883 738 1011 0
883 885 884 0
884 738 883 0
885 508 514 0
885 511 884 0
885 883 882 0
886 269 744 0
886 744 888 0
886 745 969 0
887 533 532 0
887 745 888 0
888 529 102 0
889 749 971 0
889 970 972 0
890 106 546 0
890 546 280 0
891 975 977 0
891 977 979 0
891 978 1012 0
892 289 755 0
892 396 661 0
892 755 979 0
893 307 308 0
893 308 554 0
893 755 307 0
893 756 978 0
893 978 979 0
895 770 898 0
895 773 980 0
896 569 981 0
897 442 696 0
897 896 981 0
898 696 440 0
899 301 903 0
899 427 301 0
899 572 1015 0
900 901 574 0
900 905 571 0
900 1039 1014 0
901 900 1014 0
901 1014 570 0
902 1014 1027 0
904 421 847 0
905 574 1015 0
905 773 571 0
906 907 777 0
907 310 774 0
907 577 777 0
909 439 701 0
909 1031 197 0
910 312 314 0
910 314 586 0
910 1031 1016 0
911 122 724 0
911 910 1016 0
913 207 914 0
913 702 207 0
914 207 448 0
914 448 587 0
914 984 1040 0
914 1040 913 0
916 781 915 0
916 915 911 0
916 1016 983 0
917 568 567 0
918 598 917 0
918 600 599 0
918 917 600 0
919 802 789 0
919 921 922 0
920 48 341 0
920 919 789 0
921 342 791 0
922 923 802 0
924 922 343 0
924 923 922 0
924 990 923 0
925 634 990 0
925 803 133 0
926 128 611 0
927 332 130 0
929 621 620 0
930 334 806 0
931 335 1033 0
932 1034 1020 0
933 628 1034 0
933 1034 932 0
934 604 790 0
934 793 604 0
934 809 793 0
935 936 631 0
935 1021 936 0
936 625 339 0
936 1021 810 0
937 812 995 0
937 995 996 0
938 121 811 0
938 995 813 0
939 315 815 0
939 811 1086 0
939 815 1035 0
940 407 638 0
941 562 558 0
941 821 110 0
941 1036 997 0
942 108 557 0
942 997 1036 0
943 759 142 0
943 997 759 0
943 1047 363 0
944 646 641 0
947 379 654 0
947 824 649 0
948 834 1001 0
949 392 1080 0
949 547 392 0
950 184 1067 0
950 688 1024 0
950 1024 846 0
951 688 687 0
952 423 1003 0
952 1003 1038 0
953 1004 1025 0
957 1006 958 0
959 212 711 0
959 457 858 0
959 674 212 0
959 703 673 0
960 479 480 0
961 583 908 0
961 584 1088 0
962 247 490 0
962 490 92 0
962 491 1026 0
962 1026 877 0
963 245 726 0
963 487 1070 0
964 736 966 0
965 743 1009 0
965 1009 966 0
966 1008 965 0
967 491 251 0
967 729 1026 0
968 502 454 0
968 1010 1011 0
969 282 886 0
969 745 970 0
969 970 971 0
969 971 748 0
971 272 748 0
971 970 889 0
972 532 531 0
972 745 887 0
972 887 532 0
973 106 890 0
973 395 393 0
973 890 949 0
973 949 1080 0
974 650 1096 0
974 836 975 0
974 975 976 0
975 662 977 0
975 891 976 0
976 297 974 0
976 891 1012 0
977 835 892 0
977 892 979 0
978 756 1012 0
978 891 979 0
980 773 903 0
981 569 853 0
981 853 200 0
982 70 206 0
982 913 1028 0
982 1028 1029 0
983 984 588 0
983 1016 1030 0
984 587 589 0
985 597 1017 0
985 1017 1054 0
986 596 602 0
986 601 783 0
987 596 784 0
987 784 1032 0
988 326 1041 0
989 611 1090 0
989 614 801 0
989 926 611 0
990 49 923 0
990 924 1073 0
991 334 930 0
991 623 334 0
991 624 623 0
991 930 338 0
992 417 418 0
992 418 933 0
992 843 573 0
992 933 932 0
993 807 931 0
994 63 808 0
994 934 790 0
995 938 1035 0
995 1035 996 0
996 637 350 0
996 814 937 0
997 821 941 0
997 943 821 0
998 377 653 0
998 653 831 0
998 836 1096 0
999 947 654 0
1000 381 999 0
1000 999 654 0
1001 751 833 0
1002 628 411 0
1002 677 1022 0
1003 423 424 0
1003 846 1024 0
1003 1024 1038 0
1004 200 853 0
1004 1081 1025 0
1005 706 955 0
1005 862 706 0
1005 955 860 0
1006 868 402 0
1006 957 868 0
1007 725 876 0
1007 876 1088 0
1008 518 519 0
1008 736 497 0
1008 966 736 0
1009 264 966 0
1010 456 710 0
1010 883 1011 0
1010 968 456 0
1013 354 353 0
1014 1039 1027 0
1015 572 905 0
1015 573 904 0
1016 916 911 0
1017 44 1054 0
1017 318 44 0
1017 768 318 0
1018 593 592 0
1018 985 124 0
1019 595 1090 0
1019 611 796 0
1020 684 685 0
1020 1034 1033 0
1021 682 842 0
1021 935 682 0
1022 412 1002 0
1022 677 410 0
1022 841 356 0
1023 427 772 0
1023 904 847 0
1023 1038 1037 0
1025 852 851 0
1027 353 902 0
1027 1013 353 0
1028 1030 1029 0
1029 909 701 0
1029 1031 909 0
1030 1016 1031 0
1030 1028 1040 0
1031 1029 1030 0
1032 1042 987 0
1033 993 931 0
1034 628 993 0
1034 993 1033 0
1035 811 939 0
1036 290 942 0
1036 558 290 0
1037 688 951 0
1037 951 426 0
1038 688 1037 0
1038 1023 952 0
1039 638 1013 0
1039 1013 1027 0
1040 983 1030 0
1040 984 983 0
1040 1028 913 0
1041 784 988 0
1041 1019 1043 0
1041 1043 1032 0
1042 608 795 0
1042 798 987 0
1042 1032 1043 0
1042 1043 608 0
1048 10 67 0
1048 67 428 0
1049 434 25 0
1049 1048 428 0
1050 735 1062 0
1051 33 220 0
1052 19 158 0
1052 158 157 0
1053 85 8 0
1053 1051 81 0
1055 263 21 0
1055 741 263 0
1056 103 1059 0
1057 774 1044 0
1057 1044 2 0
1059 103 272 0
1059 105 1056 0
1059 971 749 0
1060 663 662 0
1060 830 295 0
1060 836 1058 0
1060 1058 830 0
1061 1050 1062 0
1062 735 1071 0
1063 12 1082 0
1063 568 645 0
1063 645 1072 0
1064 12 643 0
1064 568 1082 0
1064 767 568 0
1066 464 463 0
1067 431 688 0
1069 494 727 0
1070 487 488 0
1070 494 963 0
1073 128 800 0
1073 633 327 0
1074 379 1077 0
1075 70 701 0
1075 439 1078 0
1076 357 175 0
1076 640 944 0
1079 20 375 0
1080 391 1092 0
1081 1004 699 0
1084 769 566 0
1085 791 1095 0
1087 486 722 0
1087 1088 584 0
1088 1087 1007 0
1089 640 355 0
1091 683 180 0
1095 790 1085 0
1098 253 94 0
1099 318 126 0

End
