MeshVersionFormatted 1

Dimension
2

Vertices
1209
0.0 0.0 1
1.0 0.0 1
1.0 1.0 1
0.0 1.0 1
0.5 0.0 1
1.0 0.5 1
0.5 1.0 1
0.26036645794927404 0.4935293768707628 0
0.0 0.5 1
0.0 0.75 1
0.25 1.0 1
0.37699414091529315 0.7374578159162317 0
0.731182036688881 0.7334613018740584 0
0.3950527111517773 0.5768010071794238 0
0.7643231908096955 0.35157842440450027 0
0.6793956281264156 0.4478176080121167 0
0.7511016133785484 0.4472953625866904 0
1.0 0.25 1
0.7072614605630141 0.5496781351815304 0
0.6489268227729232 0.2751497562028551 0
0.75 0.0 1
0.625 0.0 1
0.378511744652409 0.37397490183277576 0
0.4550866899145601 0.4148543543817994 0
0.25 0.0 1
0.3635639915684762 0.2119030530373295 0
0.5438164118659412 0.5853061944363759 0
0.5929374372688371 0.8384382041468463 0
0.75 1.0 1
0.625 1.0 1
0.375 1.0 1
0.30137652212933375 0.8720017716083854 0
0.2827435759717733 0.6496039003283394 0
0.1030771735266885 0.9028412182699401 0
0.125 1.0 1
0.0 0.25 1
0.1829412854451474 0.2691218169172193 0
0.30739440327130807 0.2903226770307625 0
0.26673358467630714 0.38531788887507523 0
0.0 0.375 1
0.10471004449885327 0.49220299908008547 0
0.21093678741682856 0.6084054036971747 0
0.0 0.625 1
0.07583104700798163 0.28951222867027115 0
0.125 0.0 1
0.0 0.125 1
0.19262515772780253 0.09454699997356342 0
0.494288754543601 0.09927137489267077 0
0.33338830268495373 0.11260319496154195 0
0.3207110896571901 0.5391291221835798 0
0.8354730625787362 0.1346319633410481 0
0.8602845060827766 0.2613533243821906 0
0.7898728082297126 0.17958509311385115 0
0.9079387735542932 0.47460814440998916 0
1.0 0.125 1
0.875 0.0 1
1.0 0.75 1
1.0 0.625 1
0.7713526098776832 0.6515891059999519 0
0.8305278266661114 0.8476881466738977 0
0.8943637482079743 0.7856714716524381 0
1.0 0.875 1
0.5944286288139791 0.9479272459535092 0
0.9209657999324982 0.9398924215996323 0
0.0 0.875 1
0.4800722894383555 0.5395078288803149 0
0.7129473004260316 0.4003863156929297 0
0.7599628794035176 0.4025158474598569 0
0.7266323186831709 0.43921620345259954 0
1.0 0.4422938552695573 1
0.8089797082915035 0.4237891448738112 0
0.6205575848525806 0.43281941921043565 0
0.7274365725967064 0.3163728228041577 0
0.5939445524154026 0.3323101887202938 0
0.6875 0.0 1
0.5612945127432222 0.0 1
0.4243310628154081 0.39000816897364343 0
0.3686642463830817 0.42383921373758704 0
0.6683620882510691 0.7321191295921685 0
0.649675120782534 0.6522381605385948 0
0.5646282792023025 1.0 1
0.6855867696105783 1.0 1
0.44142272474054894 0.7455452312080268 0
0.31235285244762756 1.0 1
0.43756199513837296 1.0 1
0.4130462409328438 0.958795949556706 0
0.33424021761065625 0.8278874609717118 0
0.3336048171151868 0.8901633200246553 0
0.2848199825548043 0.8236889654364693 0
0.3261854841811642 0.7490315317799304 0
0.23143935672940094 0.723294968004676 0
0.22454592328890313 0.674483243157205 0
0.328972737806145 0.6953005431009894 0
0.058606803548209796 1.0 1
0.18364192976501836 1.0 1
0.1623084517292055 0.960325039140676 0
0.23732743876568085 0.9515304564122379 0
0.14669710343443157 0.9020259929430989 0
0.35274323392444096 0.3193995120614337 0
0.24131148763183058 0.2782333751233287 0
0.22576141994458515 0.3316958396876773 0
0.2766763953757608 0.3212246686694467 0
0.17545049841881832 0.3929006064274831 0
0.0 0.3090906908028794 1
0.0 0.4398741020199109 1
0.05650358796837457 0.37215663491906553 0
0.23977079141521365 0.6234216893069655 0
0.2358515586382668 0.5557866962417961 0
0.0 0.5634286169393764 1
0.0 0.6884898910491719 1
0.03798677892854795 0.27452468691288273 0
0.11307840136262316 0.28490336284740947 0
0.11459440810044241 0.34033782128359397 0
0.1853056528394518 0.0 1
0.05754174151698665 0.0 1
0.03485580292921697 0.2269938855237674 0
0.14218656754747186 0.10811499399080887 0
0.0 0.059469498087273406 1
0.0 0.18462173195727946 1
0.0379981338644053 0.15609582552070533 0
0.2307631064082702 0.204055551824156 0
0.159930302589101 0.05490182927053669 0
0.4708050799643557 0.051269646113946646 0
0.43641729886956365 0.0 1
0.3155876903920863 0.0 1
0.36935839883471483 0.04102296131037095 0
0.3555051691303479 0.14875010244559927 0
0.5967314945122535 0.05026102678851575 0
0.2942251057464248 0.5188380847059579 0
0.3576742956918332 0.5632682766393218 0
0.9230915889385697 0.18189299998430472 0
0.8152014615269036 0.30379511423305305 0
0.845964391785347 0.17527922777677324 0
0.8124503680111556 0.1647065312002898 0
0.8145144785472848 0.21598225466685825 0
0.8853512007625272 0.5186319976467885 0
1.0 0.18213749358208117 1
1.0 0.058052059613537564 1
0.9225599074495456 0.12216158761790218 0
0.9419479403864625 0.0 1
0.8158632460580781 0.0 1
0.06988649407845313 0.7254163457143324 0
0.1326008716109623 0.8562627358099283 0
1.0 0.6870981473287238 1
1.0 0.5606224261397816 1
0.7553035816401051 0.6912454167632157 0
0.7960905633436616 0.7925303731691457 0
0.9555300526096878 0.7481160922851162 0
0.869947140964183 0.8354754520174342 0
1.0 0.9405193571424332 1
1.0 0.8141969732549693 1
0.7814054642871063 0.8520141119380276 0
0.743047469335355 0.9547433175876493 0
0.8141979961182363 1.0 1
0.940528565205844 1.0 1
0.9534969216720358 0.8984685849423967 0
0.0 0.814127520399915 1
0.0 0.9410259353446558 1
0.057783566895559114 0.9216526755610301 0
0.6787042148084598 0.6394398548555048 0
0.7050689754588494 0.6943338781388502 0
0.7376719108991702 0.6560033068627641 0
0.5842439635898532 0.5218413219262488 0
0.5898049413743037 0.5708740511581878 0
0.6430553764340141 0.4736939476827202 0
0.7355897496008627 0.3732023817985252 0
0.6822489471575763 0.4271761026445461 0
0.7622340432124274 0.4285597221441258 0
0.7534969154198627 0.38210828667835967 0
0.7364257323110535 0.3986575282056278 0
0.7194275568652329 0.4205315254360086 0
0.7021502977239046 0.44121991941904776 0
0.7880955733227588 0.5230705950204717 0
1.0 0.4100382310684883 1
1.0 0.34249288049351084 1
0.8108801939678904 0.35601002751627686 0
0.7772352432191458 0.3872090365748338 0
0.7832888919838671 0.41772830470905137 0
0.6891737137949924 0.47178783026732185 0
0.6838558208045473 0.522120768896068 0
0.6854898504218573 0.5762793567788257 0
0.5872993835125897 0.4769798441493032 0
0.6184766041494267 0.4633683753351429 0
0.6007612332899867 0.417027287667157 0
0.6644543384558016 0.4122313663595575 0
0.4871369428916482 0.324541700685953 0
0.574845829832564 0.3369474346901451 0
0.7404013618848972 0.32515362060406916 0
0.7439419327667404 0.23494305048524305 0
0.6961424566742007 0.30732191415376764 0
0.7060489579129023 0.350444600979824 0
0.6094709710673606 0.35840552449577245 0
0.6209856710000371 0.31110367798328814 0
0.562406161660854 0.31847715038543994 0
0.546197563419902 0.2753704577880389 0
0.5480875649800232 0.2993163872153217 0
0.6250376238791985 0.2761568632243699 0
0.6886343835742561 0.16192547192537537 0
0.649744865865886 0.24601872240231407 0
0.6534001198991054 0.04707849972262121 0
0.6861694095256421 0.08822083581791225 0
0.5174592945984298 0.4925535475693681 0
0.5126992931018939 0.4492149727768498 0
0.4024709297267692 0.3747159251824092 0
0.4880551232873184 0.2618673265330919 0
0.40298051887516695 0.3567632292628022 0
0.4259579796822671 0.35360567826904815 0
0.391835106268392 0.2061393563501097 0
0.34112144168336456 0.4780121193035837 0
0.3016778920358016 0.48402100939871356 0
0.3972110265996537 0.5331900980781252 0
0.44027038517010125 0.5333968904152333 0
0.3762869743629791 0.40287129078248957 0
0.40084018963668594 0.3916107432912207 0
0.5842800341674701 0.6227520241445327 0
0.6986742356476784 0.7234160524744581 0
0.6515335690582822 0.6197374447231209 0
0.6211858047818327 0.6007558452569087 0
0.6519778154197391 0.6781779911748703 0
0.5550533620965055 0.8528536085282042 0
0.5423971339595163 0.8999753352017941 0
0.41608567605310104 0.7448409551027463 0
0.4889452349977751 0.7731887979160594 0
0.5253871241769079 0.826073712881217 0
0.3886657573752549 0.7777881551604944 0
0.43900616640660334 0.8538432809719485 0
0.41148076447178356 0.7873109738566179 0
0.26527334472136294 0.9230253597082037 0
0.2321685616279623 0.9066212014548363 0
0.28249763179912035 0.9577588029405176 0
0.34361670120451027 0.7750008380836099 0
0.3620880018651531 0.8123666638230524 0
0.4132441584352825 0.8885666529207763 0
0.3994892080846101 0.8563688421257549 0
0.39223122494503426 0.9183129762945965 0
0.2944552343805674 0.7943941378376065 0
0.30944657684136506 0.8505167338490646 0
0.3170379531008135 0.8294096735494996 0
0.3280798860847525 0.7722472555461237 0
0.345396228900145 0.7469251914179997 0
0.2507258529438557 0.6527008402117225 0
0.20445131410994588 0.704653172921441 0
0.23498025567528885 0.6998598741010391 0
0.3306853096665576 0.6402076596188341 0
0.33780917279458667 0.6582425324753619 0
0.3523524285395106 0.7160573729168804 0
0.32232388632211156 0.6781613360100466 0
0.33511954818099404 0.7217737576180763 0
0.20616751580113868 0.9684361332696202 0
0.264579051071921 0.8770831368476028 0
0.19663661034828725 0.9186222786519839 0
0.3347094356209975 0.30815037204064727 0
0.3681691699350542 0.3301663591227731 0
0.38985019303376645 0.3274875528080023 0
0.3250243173438418 0.27327858897292295 0
0.3433474714664174 0.26661589908189703 0
0.20817138252692832 0.28630350610029526 0
0.28402866152967 0.2744761838636122 0
0.2670964890783507 0.43412019581559835 0
0.2812284701692114 0.4587045527793766 0
0.2249281552781034 0.30532486745965814 0
0.24379221412384164 0.3574002723239665 0
0.2387406914381079 0.30581963560682507 0
0.23925354096688406 0.33122067451108483 0
0.29278759941046095 0.31696427511837244 0
0.2587463991494265 0.35600296250497704 0
0.3058892878268992 0.3279820470659985 0
0.2249057829032369 0.39340553969518954 0
0.20286732108190997 0.3550265742262693 0
0.21345899089871742 0.44105674002795175 0
0.044707197441799955 0.31038125337883493 0
0.03736777521221919 0.4109682894632642 0
0.09880370102979302 0.3688150507049942 0
0.054053269930813067 0.46338903058624337 0
0.1533853583709173 0.5324065238266841 0
0.1871222462943759 0.6727591595752282 0
0.21838382220563202 0.64353356983007 0
0.2646128830909297 0.6206053769791054 0
0.22652776383634474 0.521353499841613 0
0.1933902397825042 0.5041793707068741 0
0.19625410559477582 0.5453595590468796 0
0.21236348550736237 0.575615801120516 0
0.051931366793316724 0.6613003820347254 0
0.05234785421529151 0.5253606535901347 0
0.12022905510799264 0.5917523618256743 0
0.12644771779412056 0.3161148277876188 0
0.041444798965357015 0.19271625125025382 0
0.07199020448805503 0.25076058296364584 0
0.08509283797108846 0.06779756487936538 0
0.09080678430492585 0.13672394716087374 0
0.17328415606431136 0.23371712863063168 0
0.107018759366772 0.19218607686744835 0
0.26960278529876 0.09950363279449892 0
0.29645813342729666 0.08917952211767693 0
0.22339804204029198 0.23826084422070862 0
0.24294468825372417 0.2358134480241574 0
0.19102173009900972 0.20830647116181067 0
0.17957535408193376 0.13481688941771547 0
0.5383798685655843 0.05816716772480233 0
0.4946205411991654 0.16632899834066683 0
0.4168335282271569 0.16963334914863618 0
0.46878419326540915 0.13253778660682403 0
0.37206132889045407 0.11707771554129873 0
0.27359793852382697 0.057395256429499594 0
0.27783174909916564 0.14575323085041464 0
0.36639859421993753 0.18328263064220415 0
0.3359818699750465 0.17117204133209776 0
0.5589507597126021 0.17821938404377546 0
0.550465263354401 0.1430533856079339 0
0.35190976834302135 0.5181888767780013 0
0.32179987969753265 0.5081544915401506 0
0.2599923536130494 0.5325809300141601 0
0.36859798468540905 0.5992288725606286 0
0.30991996129771465 0.5994802257689817 0
0.3495118669468212 0.6213033430375139 0
0.33819205842902983 0.5995334915718317 0
0.3160496920770311 0.5724117008823738 0
0.9595804176767085 0.21071156593687926 0
0.8771810570978199 0.15011071966697095 0
0.8309441201598103 0.27647549858241666 0
0.7983633938935838 0.32900894475090414 0
0.8240817524482785 0.3338083593215277 0
0.8643819183059115 0.2891054441600889 0
0.848365905200765 0.3136233400809153 0
0.8520524183154132 0.21174040741714814 0
0.7074872748404614 0.1308577679586675 0
0.8315737121321867 0.22779609319357225 0
0.8295999383956595 0.2028385145452021 0
0.7974512364132208 0.2069577638078204 0
0.8120546303369699 0.2595953858654787 0
0.8329086274264941 0.518582195774159 0
0.8447409897675806 0.42811970758108103 0
0.3790853720652255 0.6967598693974356 0
0.42830497351705366 0.7155239546229379 0
0.39807589096158474 0.6098324182052841 0
0.3782001568217614 0.6316612792621357 0
0.5381185989864821 0.6375568215985744 0
0.5227017397632182 0.7040428890056419 0
0.9706221837296173 0.061333874138473354 0
0.8670088503097999 0.10678622981361185 0
0.9056171475354258 0.05291744492236954 0
0.10883383096961047 0.7179487600939923 0
0.9298137939221908 0.7270775169922948 0
0.7746700468146943 0.7281691419698656 0
0.8526770137401473 0.7059262783790169 0
0.7976842735059199 0.692279167455049 0
0.9321077869403744 0.6201925488729076 0
0.87685594622603 0.6127945068567731 0
0.7657880261750373 0.6734715296652943 0
0.7433044989470349 0.7069064351021243 0
0.8123322057643462 0.6742333709321167 0
0.784675524934784 0.9657228394127105 0
0.8143148493979094 0.9086436881051774 0
0.7626094535722024 0.7766516626655646 0
0.8195296997183035 0.8282947057551022 0
0.9203739323044899 0.7635639012630413 0
0.8824175999681624 0.7177581853355627 0
0.844707839537965 0.8310462507653191 0
0.8826960088673197 0.8093740578191934 0
0.8298387946078244 0.8068256341518788 0
0.7409959529056691 0.8588004395405315 0
0.7834993046669951 0.9016097119781201 0
0.8096158971308959 0.8519573907054931 0
0.797786025125387 0.830166686705947 0
0.700322143546007 0.8457595541361278 0
0.7288261820240256 0.7665892960983103 0
0.7800560391559753 0.932726530757386 0
0.7170547575445678 0.9121576625901429 0
0.5615843131242969 0.8179025824440799 0
0.64822504718236 0.9608943015662011 0
0.5985279970816657 0.8823975363780487 0
0.6676059187423701 0.8563917701166452 0
0.6420817518137648 0.922338340859207 0
0.9172447143950212 0.8851258654025691 0
0.8742202631490825 0.9097752839788906 0
0.8467191521476682 0.8608869493886339 0
0.10863827995187796 0.9462821675758983 0
0.5214920371162589 0.541941141389987 0
0.42743554164062314 0.5918634958213637 0
0.6967696774602997 0.6604056542781819 0
0.6624094508471214 0.6904176800929199 0
0.6673630472020541 0.7096110855733275 0
0.6914778406810871 0.706712278865989 0
0.7139201879504612 0.6777143964075569 0
0.7363640472817987 0.6890849389631514 0
0.7529055418496619 0.6598109483404205 0
0.717567395724118 0.6548365124792143 0
0.7461195857593023 0.6730780036128835 0
0.6534724573894447 0.5814442700272922 0
0.6626460098450789 0.46301561632003135 0
0.622888959353902 0.49800954098617184 0
0.7169177114947729 0.3858992095016 0
0.7518866037078199 0.3657942759855554 0
0.700687950872583 0.4142841773378131 0
0.7426478197486345 0.42198759523426066 0
0.803550626479513 0.4001500088329584 0
0.7967242556848567 0.37568470343096877 0
0.8803968513031508 0.423706084877408 0
0.8535609897201066 0.38241049644900965 0
0.7268674453571558 0.4688072820862596 0
0.7113632850684247 0.508018668378779 0
0.6693970048767182 0.5479739883999108 0
0.6833096408162065 0.6064513398316578 0
0.8155068775935373 0.5602848482665356 0
0.7117593685172845 0.5893141517746743 0
0.7418092709403397 0.6111975382128637 0
0.563640438377195 0.3981211425300298 0
0.5460564093176513 0.4183005156204201 0
0.5871287876697983 0.3971004189315418 0
0.5734750906374385 0.41906980518218967 0
0.6419554869079789 0.4486875979784079 0
0.6843728145714343 0.4046685231626566 0
0.6438153106472638 0.4243991506219823 0
0.6620570735144914 0.4382936000782177 0
0.5078624410405508 0.26533855817574814 0
0.512967384305419 0.3117969578948996 0
0.553736905190373 0.341381216302128 0
0.5151039808647363 0.3414556617187733 0
0.7503293178925705 0.33517181528441703 0
0.7823409729561622 0.28457391919837804 0
0.752528214198872 0.2901559659030625 0
0.7750763214518693 0.20364302132922374 0
0.70742543626698 0.21471014868949215 0
0.7208145590877744 0.37203452789252944 0
0.726731225511177 0.3279215431215592 0
0.7134718033243787 0.33620629792066753 0
0.7011718727226827 0.3930437992688635 0
0.587220856631605 0.3543517682657329 0
0.609688649112418 0.3437383588286271 0
0.6244365867465238 0.3886766351647541 0
0.6440613649618208 0.40105941353418656 0
0.674714127160799 0.3070153489161348 0
0.5845535585328144 0.3159826540019285 0
0.6008551748512384 0.3174036128614336 0
0.5701880042637131 0.30045993453301206 0
0.6405349854339126 0.29685249616240983 0
0.6668889071946382 0.19061577762793372 0
0.6550371297278996 0.16064947235004018 0
0.6420754100113722 0.2590845929682066 0
0.665224294310346 0.22105729955199868 0
0.6660978524592106 0.27128939824886633 0
0.6826807789924014 0.28224874825386687 0
0.5823042417193225 0.1072193680237308 0
0.6317207393338947 0.09392796147640789 0
0.6218864737483956 0.1421000897070651 0
0.6653384681718614 0.12429333075391323 0
0.4954020088057055 0.42812505644516763 0
0.45876390747457074 0.37098631107039537 0
0.48958425054703214 0.3571713424693461 0
0.46180788439662385 0.30615352390430606 0
0.4765929351053021 0.2359969735801562 0
0.42636769447932643 0.20088406635800274 0
0.4228303060461027 0.5638068563407305 0
0.4721962448511589 0.5006355742652032 0
0.4050223548958804 0.42378730615760524 0
0.37663389621895915 0.45565055162509394 0
0.7087239669759756 0.7118286372771573 0
0.6287322245710391 0.6702926585450489 0
0.6724968801631978 0.6697158954449325 0
0.5072245293574186 0.863088316856098 0
0.5627262284856829 0.6946192851800951 0
0.3920806756326211 0.742134114443278 0
0.5101293002974718 0.7465328141973634 0
0.4002462223399606 0.7660886571041161 0
0.3966872121067111 0.8035144670338932 0
0.37790423222147396 0.7574429321465802 0
0.40745210301047835 0.8270166965103622 0
0.45535667220695986 0.8840098834589627 0
0.41979560216951045 0.8051110899134626 0
0.4552429878631976 0.772180661237185 0
0.34235408668955075 0.8099846582027723 0
0.33642815656803055 0.7602847684975574 0
0.3297630568512987 0.8461205823502507 0
0.3817893790738 0.8185722118452232 0
0.3765719253689954 0.7962812551767942 0
0.35039144416232254 0.8248412645042523 0
0.38634311359049933 0.837785261328801 0
0.3216671777303595 0.867396501248212 0
0.372608173497085 0.8831772950586645 0
0.36687121988404325 0.9591867004609875 0
0.29245470399835133 0.778851015757413 0
0.30342568945469345 0.8129684131456293 0
0.32439913048533564 0.8132381084675332 0
0.32351864061990177 0.7598367516610138 0
0.30678484733980443 0.7808762836553932 0
0.35433432176361274 0.7584327504516075 0
0.27628682080775857 0.7758037932116093 0
0.26090354244765873 0.7744862402486836 0
0.24619440331144787 0.6788311606702798 0
0.31030600455244023 0.6409606808994582 0
0.36584162328219133 0.7254579898228732 0
0.3388412055713241 0.7052118160988395 0
0.34966643985187323 0.731890870763622 0
0.32238090337528896 0.6589337503074041 0
0.30399134771739744 0.6644282064714305 0
0.2880862905794726 0.6762702681039643 0
0.33582093565292137 0.7367468705561349 0
0.3252109276560974 0.7097387345205897 0
0.3142267097316668 0.7560719030063422 0
0.28145878046833794 0.844924223196998 0
0.22958384199028392 0.8673751046184855 0
0.3212347839223138 0.29031953243509667 0
0.3530586477918041 0.3696262638322934 0
0.40511862010281646 0.333688180526066 0
0.37635073265840896 0.31189561766732493 0
0.3106037269707073 0.2784345542955841 0
0.3434632949430377 0.2490016507591743 0
0.3403018576249204 0.28678177245635555 0
0.35700638783897776 0.29817296662929416 0
0.3800854403856708 0.28826340291936986 0
0.25892224925132884 0.4083236971042362 0
0.19892901178942685 0.2794892723683674 0
0.21419230216667326 0.317540627900935 0
0.20633276299189857 0.3017324718705338 0
0.22103624826630788 0.2934524851372274 0
0.24269336324653107 0.29331127732386775 0
0.23013473652357536 0.319164758664142 0
0.24742072767171008 0.31815521893478743 0
0.2954220174611902 0.2977744328594291 0
0.28167594459418865 0.2894497190197194 0
0.31175055341466956 0.3074043701461332 0
0.3259202044294601 0.3269539427614179 0
0.2897460057222922 0.3312915313079545 0
0.0763524235114367 0.40995549006922793 0
0.20146621607717116 0.3948546759935383 0
0.24674374263718904 0.3897084150728813 0
0.22644748719054086 0.35848282194749537 0
0.18976802555559466 0.37113781644426946 0
0.2195545817430041 0.3467442610404446 0
0.2086881649272224 0.3357629631118419 0
0.1498965284872086 0.3860667197669748 0
0.2411256232198171 0.4332071184458155 0
0.19054752370101236 0.4179586236122809 0
0.193377919200408 0.47204624168340537 0
0.03505085032514807 0.34027888063365247 0
0.07682001936931453 0.3309188930719314 0
0.11956743603718459 0.4008064892509176 0
0.13504890614547604 0.44985827111014376 0
0.24300324784714825 0.5916851794962171 0
0.06397866957324422 0.5924003663410154 0
0.17582478794960169 0.5869849510026989 0
0.16882142039790032 0.7117317519136297 0
0.14342953540087722 0.6663066650931769 0
0.10541655915682975 0.6374042394070757 0
0.17685750366585806 0.6336293609856727 0
0.17915958028077114 0.287635657651302 0
0.14242179033987537 0.3400166418795051 0
0.14558536002722913 0.29756302890800107 0
0.21527825478321885 0.05084838835822023 0
0.06841444852430315 0.17881244286420334 0
0.09842890041894108 0.2624664246002536 0
0.04592036981140527 0.10830502765613588 0
0.1445847485699563 0.27050272831644373 0
0.1513074554386918 0.20185302204730865 0
0.3398668191135077 0.22565436393612773 0
0.34091593951869226 0.19759196468573526 0
0.2921918565877394 0.17028183213763198 0
0.24808145001321147 0.13417387257881488 0
0.29128954962285486 0.12185555772274467 0
0.32713867305885563 0.06519151714898715 0
0.21376259970169822 0.218675297639416 0
0.18945173864585094 0.2542452909369116 0
0.21603722414273088 0.2525486085943203 0
0.23306252795282134 0.22141910278813862 0
0.23276279200580002 0.26346209961680833 0
0.25231176698850627 0.2563204590696361 0
0.27202341565197014 0.2509848312242282 0
0.2148993723432011 0.18554477454265417 0
0.23834974516167853 0.16432628395955554 0
0.5111797220938666 0.13837806066154199 0
0.47419897225739327 0.20198586460804965 0
0.507324053083145 0.23165233162429438 0
0.5067301562110662 0.1951941024306859 0
0.3953731464150106 0.1441187937590192 0
0.3683737853934204 0.07898043291672063 0
0.3151074941553217 0.15184216414249732 0
0.31608263802004405 0.18366030525863272 0
0.5502224714950301 0.23090570549134035 0
0.5589789094322197 0.25815897935006055 0
0.5371312826636293 0.202921395211434 0
0.5277349166364895 0.17137010564300148 0
0.5774950213474597 0.15118984513929254 0
0.5328915776535756 0.11145808422513072 0
0.26402777282684026 0.5656877778446916 0
0.2979065892727901 0.6229286060375313 0
0.29086744625495076 0.5541228045556442 0
0.8775784797959882 0.23490986097657104 0
0.9135275748488834 0.22708840700232755 0
0.8806011233314669 0.198526299119541 0
0.8987411458335653 0.38776265169849117 0
0.8509940204212663 0.23811657909694847 0
0.893385710121222 0.2719253096160998 0
0.7200926330308367 0.16453328804705802 0
0.7841267262263558 0.11020433474413605 0
0.7379066603898878 0.08681632611158835 0
0.8323343231800775 0.25073667945877404 0
0.8124989998451886 0.18826466585953086 0
0.8022994746343476 0.2821172047136131 0
0.8124834493278396 0.23763028461713975 0
0.8205307034227644 0.448039570828903 0
0.8076568966161619 0.48689980181112424 0
0.9441385855781997 0.5287224452412478 0
0.8493896162154475 0.5692182515473871 0
0.9600275536840615 0.4641272341302086 0
0.3516846343056617 0.6840561957376516 0
0.40312865204877574 0.7051687145975997 0
0.40537456868038213 0.726322030361438 0
0.4770402201987682 0.7437575866265419 0
0.3556290081622775 0.6470724569853439 0
0.43652208481841365 0.6681676939844415 0
0.4013780239024603 0.6268140717171667 0
0.4642247953233907 0.667328439820428 0
0.19590227251679465 0.7330499494124187 0
0.2160812527725301 0.7442316011673366 0
0.17137454732360935 0.7489918065065625 0
0.1756859203119421 0.8771069203341513 0
0.05578415905571896 0.7845844836252289 0
0.0667251404539792 0.854781253669358 0
0.7576618576976025 0.7317471691157518 0
0.7942417706571137 0.7283273479818972 0
0.7623424614038992 0.7106531349691674 0
0.8306304225346929 0.7085537145567153 0
0.7880662453693775 0.6739868488516676 0
0.7770030017134738 0.6918545194351272 0
0.8070374637491863 0.7096878616164597 0
0.9612596168105358 0.7152276651245666 0
0.9530929939678882 0.5815136049254109 0
0.8073400213362553 0.5929110808190242 0
0.8755718018746474 0.684088484553612 0
0.796732856478147 0.6488513188070092 0
0.8198315068276463 0.6955038629403707 0
0.8455591386409762 0.8909317234437029 0
0.8236950032832833 0.8743163610251107 0
0.7642147262546927 0.7618789346181809 0
0.7749387592459269 0.7867680850152282 0
0.7315012571012539 0.7864336364914791 0
0.8077656986585529 0.8090004085030134 0
0.7780775899030262 0.7710693495852233 0
0.8000924049387002 0.7474743927042558 0
0.7972765322144565 0.7722702177145262 0
0.9557207754919905 0.7881347314639859 0
0.8161310488335974 0.7874581867418898 0
0.8563388747197106 0.8083332203962523 0
0.7285626047231876 0.8369120242646728 0
0.7181474417035731 0.8615063453678948 0
0.7645406401631067 0.8760764232315198 0
0.7964598913788246 0.8786359280432356 0
0.7088709198744132 0.827876554662133 0
0.7084274550657843 0.7848730438568056 0
0.7482457294836704 0.7715999829525012 0
0.7302578586222672 0.7485611872897392 0
0.717581041717397 0.7513537066912994 0
0.6803718172675456 0.8279551068016745 0
0.69793990604757 0.8062981228315318 0
0.7298075670203618 0.8845890985453575 0
0.7530277934062384 0.9094656587911368 0
0.7016138286730131 0.8748190614533382 0
0.6766130105827248 0.8971342715387242 0
0.5352136882832669 0.7819028126232941 0
0.6413263581728591 0.702894873309248 0
0.6491135370906523 0.7296847280763205 0
0.6498449017232375 0.8228189433954886 0
0.6404412117632821 0.8828111063945111 0
0.8182486543624734 0.9587696451666209 0
0.8723022751762414 0.8675577577985903 0
0.9011879011919742 0.8404963236101388 0
0.9482153397084554 0.8446235543579129 0
0.42502795773155255 0.622818631134745 0
0.45447108758429183 0.5691232554215175 0
0.6794906584725044 0.6914928848173828 0
0.7228254884041125 0.6880393866498987 0
0.662518779992044 0.48729988108029815 0
0.6269138239173124 0.5423601341844783 0
0.7449313151070325 0.5260900623462356 0
0.8261820243007968 0.4015113896575774 0
0.9668044076881798 0.42308346539326036 0
0.7614170770015193 0.4864014900826388 0
0.7775693519253337 0.6264021513552287 0
0.7415728694372707 0.5748631427375596 0
0.7521014584049448 0.6398599146920939 0
0.7263512002900238 0.6355980213598618 0
0.5627093067341942 0.4397010769478156 0
0.5684333102445003 0.3791016197221523 0
0.4923476400786742 0.2893318023682438 0
0.5513891679788638 0.36496352416928196 0
0.5468064695583453 0.39090619385389697 0
0.771725643371735 0.3364696995490266 0
0.790357148057576 0.3022626812923477 0
0.7624149978627439 0.26148395802018576 0
0.7894513147496494 0.2660851347965751 0
0.766088395680958 0.2771832273571364 0
0.7400329203631455 0.2970692424400903 0
0.7471103712806517 0.2733582754850407 0
0.7250423147133395 0.2961207698613274 0
0.7548565961455257 0.17880925507929138 0
0.6821279026336605 0.21156767907314813 0
0.6861168619282599 0.23351548432997746 0
0.7278496461852295 0.21723201387286353 0
0.6989674361521284 0.18703322117285076 0
0.695603883326498 0.3190131606220632 0
0.6933140357544811 0.37755589152081265 0
0.5947551380900925 0.37920508869309566 0
0.6197817973159176 0.33105076791965404 0
0.665794011856027 0.39250799522368973 0
0.6235856279125463 0.36388542950155467 0
0.6053173727434265 0.2955850228560421 0
0.6329784622199691 0.18123164431914426 0
0.6052448044469816 0.26666047015544847 0
0.6486271170524318 0.23244123714724965 0
0.4923741898745942 0.3926230824955441 0
0.5217438499206938 0.3687298070550475 0
0.4583931513393703 0.33914044545141664 0
0.4461397160780069 0.23314862624758811 0
0.4754226209803131 0.46021979524142254 0
0.4053590794466865 0.45963643339295157 0
0.35023062568490226 0.40923083777140434 0
0.2847201321273011 0.3868451812233694 0
0.27843834907581744 0.3985363466130287 0
0.2827343269701055 0.41502211289215274 0
0.3454728574962992 0.4389940998425074 0
0.31922157909267485 0.41616366978948066 0
0.3143440878508037 0.4511514927704904 0
0.38129277607477013 0.4912613717398421 0
0.7260472889814705 0.7050687903679054 0
0.7183647951526221 0.7254379643612399 0
0.6058811096272031 0.6970089082134845 0
0.5628696673855126 0.6549465312214057 0
0.6199319498445844 0.6393314528274534 0
0.5932434862210557 0.6656093708403007 0
0.43405172733880854 0.9177463340169023 0
0.46459863907917437 0.9579188982484573 0
0.4838176196614957 0.9070846861329976 0
0.5501710904001904 0.7403560868363024 0
0.4272029506856925 0.7668456625255187 0
0.4713901664311249 0.8656649223792503 0
0.4333662795194171 0.7888621663729756 0
0.3210852049955278 0.8873444415291217 0
0.35426097826117364 0.7938838876242553 0
0.3640461635175207 0.8304887309912854 0
0.37098871009974094 0.8513275917337865 0
0.31655508388606896 0.768673843409308 0
0.3151556147985554 0.7959772777759212 0
0.361264562070123 0.7427985800319782 0
0.30311268579555317 0.7667754738234012 0
0.2603966091956148 0.7441785308135634 0
0.2531296736945717 0.7124199590750324 0
0.3857225545086787 0.7213973068069207 0
0.3559339006597376 0.6977973084388708 0
0.26859221841262265 0.6733416276443337 0
0.3204377390496692 0.7022017481861981 0
0.32438627814261306 0.7332067585513021 0
0.2819664333200193 0.8034742176339107 0
0.32818341893730574 0.36926473042361646 0
0.3649474513542519 0.3539018413960853 0
0.33736806545530745 0.3914104206119916 0
0.35767223074136634 0.3895824073580773 0
0.42865006610127443 0.316902942680304 0
0.2969543767887532 0.2821207761945793 0
0.363389161612752 0.2372484736971626 0
0.35924870961324173 0.25742355826205976 0
0.38226140561437444 0.2290644893893462 0
0.3782336057784239 0.26891871940308126 0
0.35958174469565274 0.2780922952793256 0
0.262651192084069 0.3127916439093827 0
0.2702458727149968 0.28012410777091373 0
0.2763431965522723 0.33780086316382246 0
0.09900823957045592 0.44547207790691334 0
0.19686006332931485 0.31669176026119744 0
0.21311863143739135 0.41341005513420465 0
0.246768880571001 0.45591933665355905 0
0.15585013202507872 0.4816558814878448 0
0.17407606407563767 0.44670318315363616 0
0.14471003448436495 0.6217246700395446 0
0.13186226487216826 0.7043095893385659 0
0.10401503602334268 0.6830422653669211 0
0.13385129696864087 0.3668736435293302 0
0.16842208390486493 0.336618752840804 0
0.07296538961889446 0.21221338501830356 0
0.12305700099113824 0.24897185262825633 0
0.16381034946957151 0.2802707045378034 0
0.14734743962319882 0.23714447699994626 0
0.32771145694853976 0.259232150174146 0
0.2949834195642044 0.20047735624926147 0
0.20176345603549115 0.23631102612779895 0
0.2686843636430215 0.18986105742960754 0
0.14339381124924003 0.1561555171427446 0
0.21429085296854872 0.15235342864393844 0
0.4530378704023118 0.16512848147666567 0
0.4315862855350384 0.1353180746345115 0
0.5668831337224193 0.21003375426821005 0
0.5956240945035247 0.18309227334039666 0
0.5766321327211532 0.23703544217405975 0
0.9433400155846634 0.2662341356727174 0
0.834425138310502 0.3594287800129315 0
0.8812690903081516 0.3184657826505992 0
0.8225555382808127 0.093878023996143 0
0.8460582141236412 0.04931396095463408 0
0.7852348152605789 0.057162938245432296 0
0.7131398775100168 0.0461252305328698 0
0.7874177125910766 0.14717607477599007 0
0.7522456876709441 0.1382447060367137 0
0.7915345463616347 0.22621254481854167 0
0.8539368754320431 0.4716562193642674 0
0.7866348405673282 0.4509084734457598 0
0.345114330573149 0.6927642777808765 0
0.4217568257740209 0.68921040978253 0
0.3668632542611834 0.6780015084029499 0
0.36738868066061264 0.7116771139821393 0
0.46504998743187154 0.7214944822512078 0
0.49281993249716716 0.7232934895637506 0
0.4180895631399972 0.652282984575365 0
0.4523914993070658 0.6943576948065333 0
0.24008875569311197 0.7463600646046824 0
0.9512876104449626 0.6679141941173106 0
0.9042726518453772 0.6566770140952675 0
0.9159263794567919 0.7034187900533614 0
0.7854589090180542 0.7117135541572104 0
0.9095680393512056 0.5745176396499764 0
0.838051803694653 0.6800801070982321 0
0.8102932951490571 0.6285889595329383 0
0.7820429159031613 0.7575792358988281 0
0.7849215315149767 0.8103904006254166 0
0.7547393068790704 0.7902838593395152 0
0.8152575662736399 0.7308411991778361 0
0.839887627773311 0.7831212384857156 0
0.8689104317147022 0.786714411079299 0
0.7566349131528749 0.8458121923976907 0
0.7237139060053206 0.8080695869673017 0
0.6761787945058899 0.7392819857197687 0
0.637109982676457 0.7886517090639739 0
0.7127791775791221 0.7671686393296292 0
0.6924925019449102 0.9518316961915037 0
0.6159329007153754 0.813162779525039 0
0.870531729758812 0.9556431874774121 0
0.9194287383058415 0.8044162497983401 0
0.44410699665870224 0.643899303297268 0
0.7288223886062412 0.6712002252305904 0
0.6589693682791342 0.5172387537125434 0
0.6786390194228616 0.5005325135712215 0
0.8210015639920949 0.3779631868996077 0
0.701690879771158 0.6331231555422004 0
0.5900606458926333 0.4428911674104673 0
0.7848552851740316 0.3562303485827121 0
0.7736855791083403 0.3171010970048845 0
0.7684758281554368 0.2250055436048317 0
0.7745816259348519 0.25522010697932124 0
0.7521896244770322 0.3108549587566986 0
0.7159119225288183 0.3081637056434682 0
0.7325420166156903 0.266962369646005 0
0.6744272806452951 0.25236481770891395 0
0.7134939982727451 0.23812147398576675 0
0.7492273035671868 0.210490496993221 0
0.6843202555569551 0.31514856407338654 0
0.7001519852043598 0.3375605415081335 0
0.6428603707658243 0.3212851440694625 0
0.6322345919353896 0.3786010893161942 0
0.5858868332667617 0.29779089652268803 0
0.5918013277943451 0.28279817987054245 0
0.582694234038102 0.2629316722986841 0
0.6009957837265627 0.24618477413491602 0
0.6418465715824363 0.20930513383645247 0
0.4572585690203761 0.25867109330724014 0
0.4350730264559982 0.4483953936035282 0
0.42934393878731064 0.4853938893810593 0
0.7194950594283879 0.7383667402696339 0
0.4997577462542334 0.8016868644470638 0
0.28995585479691827 0.8999578689514623 0
0.30666563509094924 0.9310618120917367 0
0.34827366502615004 0.9224957031955313 0
0.3512945793360809 0.840720116232194 0
0.34851474893059664 0.8610971129122746 0
0.31968458105538783 0.7824567982857752 0
0.3657820579941263 0.7762120223145288 0
0.3015670063475808 0.7524445931620943 0
0.2691380251321157 0.7606990116096117 0
0.2542517967230418 0.7287413571754711 0
0.25793224168486656 0.6932024815042762 0
0.3182463989597549 0.6931287799174175 0
0.3233369363117764 0.7205645114543717 0
0.24786127103678024 0.8469954637595823 0
0.28299123318879066 0.7890423035488426 0
0.34367277842858934 0.3445938743790467 0
0.3072584184257712 0.3676082400226594 0
0.28578426668979223 0.25868799804722326 0
0.2527154235384973 0.30093550767196836 0
0.28004764345556593 0.3056028928417418 0
0.2840319956859929 0.3707584830398955 0
0.25830608175729863 0.3302670780541725 0
0.18664220039941495 0.30147242090703547 0
0.22326502587604535 0.4818133612703252 0
0.15679463738183097 0.41774685495696545 0
0.28248780100629356 0.5879655685880779 0
0.1554800816909986 0.3169191515532361 0
0.17778138365641963 0.3191633896170119 0
0.18446213641662568 0.35264128652571475 0
0.16208324587913817 0.3618082294412949 0
0.16737479246505055 0.2569416258724524 0
0.31300620337757357 0.26179596230013513 0
0.3197519818673044 0.21142263974654876 0
0.27825286077622124 0.21564431224983743 0
0.250443238319032 0.2123834775281118 0
0.2454367953742888 0.1855401288397323 0
0.2596837601779469 0.16613467055046655 0
0.41661143341954215 0.05264851030332699 0
0.4010595663594652 0.10737962502183739 0
0.8498994982797056 0.3439438640437372 0
0.9595066947024543 0.3176619858147978 0
0.9532906942386412 0.3772293592469588 0
0.7921766907243382 0.24907671172348533 0
0.40173573798162987 0.6833038385081597 0
0.34974446289415434 0.6682335426390631 0
0.4810109167588943 0.6943481596231349 0
0.24928355073045613 0.7612565815952772 0
0.19926191535109247 0.7615791316991406 0
0.140672204384657 0.7724587543878744 0
0.8220614040335946 0.6471608158149893 0
0.8573240740485595 0.6500366003638394 0
0.7851868747269612 0.738884568192866 0
0.8476348812931122 0.7337278270348356 0
0.8235743533911023 0.7585699581695704 0
0.8830086929602123 0.7546446226496081 0
0.7723893323427359 0.8281737027976431 0
0.7432567347092585 0.8031126734895166 0
0.7400880039392456 0.7432943228769158 0
0.7013277125224591 0.754709136332547 0
0.6656290185052991 0.7457518662179932 0
0.6927327296426484 0.7681320216876042 0
0.6705530795540651 0.8017348483942163 0
0.5871456182846567 0.8034011111724937 0
0.6092303101070241 0.7594037302779354 0
0.8432317171149741 0.9226572456054272 0
0.49103592059703977 0.5761530129257498 0
0.5045919488899228 0.6624263247899839 0
0.924758814080548 0.42464539170104976 0
0.6264662506075828 0.5752914303927757 0
0.7156727257172105 0.6179664853010299 0
0.7721366302307362 0.36964102403558713 0
0.7679788880688905 0.2966200080465983 0
0.7034215935982338 0.27272423391997136 0
0.7188255604863953 0.27918057133778446 0
0.7315647632496839 0.2498143687296201 0
0.7271540463519907 0.195467763527313 0
0.6909664121189489 0.32679986140474526 0
0.6975374794221005 0.36426484885596455 0
0.654325093532127 0.3152413373198759 0
0.6359622674643499 0.34995739854478125 0
0.6388116428642089 0.36504320644685 0
0.5704798030015252 0.2810905123991776 0
0.5972962096115225 0.21879567449746282 0
0.6241517920150426 0.23014989062689442 0
0.3820334140056214 0.24784689320299014 0
0.2957079669238281 0.39919945051432904 0
0.46801105031395984 0.7928532277966902 0
0.3259504236366337 0.9586232944165801 0
0.3101327885414081 0.7416187310802149 0
0.2869517673268413 0.7611467011237768 0
0.27493931249704867 0.6916273456116949 0
0.3052775085750969 0.6843709908059236 0
0.21800220510864327 0.8365662360993431 0
0.31284781722183524 0.3873695716780165 0
0.29330839801857556 0.34809205327896264 0
0.27000694650632207 0.2653296949221535 0
0.40303771259720705 0.2698169433342809 0
0.3996773210200516 0.30456021261145544 0
0.1694639323465133 0.3009484445351857 0
0.12628297157298726 0.22440953646443546 0
0.298228369946082 0.26863120594281115 0
0.31811635083453854 0.2472821812894959 0
0.2651354260996798 0.2345041133532528 0
0.18302423885678437 0.17264682637486017 0
0.44871130046371566 0.09681302279564537 0
0.41415225088254765 0.6746273894518457 0
0.3758661582248048 0.6575280391658833 0
0.26191241396945775 0.7924613712816225 0
0.16993896744237394 0.8401149243543422 0
0.8527980770563992 0.7649407349799323 0
0.747246880672917 0.8196812788915254 0
0.7623878529281535 0.803887716534555 0
0.6364910735162804 0.7562848747201889 0
0.690378727983646 0.7860881982833626 0
0.6825041185865806 0.7542033986777941 0
0.6105157346524479 0.7871279402877934 0
0.6290393320441627 0.8485957110105786 0
0.5055526971428326 0.6204305443123943 0
0.6965782047013759 0.2570465130339303 0
0.6834436330212686 0.38557734285841316 0
0.6834301339133979 0.34556419780543346 0
0.6731370948013107 0.3261576982904675 0
0.6520026771614359 0.3304266960493517 0
0.6202974377922734 0.20320996616720927 0
0.29338408762136464 0.43191167602142655 0
0.47742023399464706 0.8321972508978548 0
0.31148567762061297 0.7247992618374196 0
0.2777506837542475 0.7451011341027279 0
0.2676721730590795 0.720776806413206 0
0.26686067145832093 0.7062600048524833 0
0.3078457749662185 0.6993878689412985 0
0.20203001164026124 0.8557308242832163 0
0.26303905424250196 0.8240948930844805 0
0.2974136336318887 0.3830287412620582 0
0.09912561640627295 0.23292648284889708 0
0.28633888616363395 0.24050626916159673 0
0.3991666518794118 0.6659619217383658 0
0.3944125299490047 0.6435338381829738 0
0.839875548591611 0.6177399623566519 0
0.7167965793674377 0.26154703464296003 0
0.6622424795001515 0.36424985165920015 0
0.4098506783101708 0.2365025806076839 0
0.42798797714055514 0.26096644421872883 0
0.6232521706931289 0.7314941680603254 0
0.4416323140684894 0.8158083036974383 0
0.2989505102892626 0.728858037451648 0
0.31551069028261486 0.7102499447586845 0
0.2921306622381049 0.6955310495238973 0
0.44435050975387086 0.28543149856440597 0
0.29889047519138384 0.2532510523880756 0
0.22602830035946692 0.7654786769578873 0
0.18030901199915847 0.7878754725932019 0
0.6668553086367326 0.7718092135464715 0
0.45926023715383774 0.6072955368234598 0
0.6840257906623272 0.3733550494073136 0
0.6526269125592599 0.35558878300442265 0
0.6481797394599532 0.34164015811190523 0
0.41782791707581407 0.28833399266950926 0
0.2932161771618436 0.7419031538742225 0
0.29729959731518196 0.7130070128148865 0
0.2810959623949626 0.7091421296909236 0
0.2365909030551209 0.8262724257760148 0
0.24026913692614854 0.7822620690317686 0
0.2991211420150156 0.22161991260945213 0
0.21924585845119005 0.8154240980775077 0
0.1987209159979682 0.8190241555958577 0
0.5859771853424142 0.7285495971958585 0
0.6603575760242133 0.3413251346145041 0
0.28471688044619897 0.7294334642549565 0
0.21756576842029784 0.7900914993463204 0
0.5770317360508882 0.7691692299019549 0
0.23895142219083165 0.8044484750508069 0
0.8445989980591182 1.0 1
0.4057086494347818 0.0 1
0.3436764262238138 1.0 1
0.7177933848052891 1.0 1
1.0 0.28042662308836896 1
0.6389551976947859 0.2851614307761579 0
0.384066777139989 0.3464660341488574 0
0.22360036896955823 0.2773719217690754 0
0.23493023257869122 0.34402852230304515 0
0.2509034610979751 0.37152220306044764 0
0.25127652538729717 0.34398941625642143 0
0.7191418701135321 0.35140196716343153 0
0.6150770897431751 0.3765241693724154 0
0.6077480860342199 0.3962270611801802 0
0.6252336057039163 0.40763564823272325 0
0.685008564061671 0.3032116228857832 0
0.6651653598678797 0.29934214551229776 0
0.631985934849557 0.3046473209819002 0
0.6530415777392585 0.30293815101476074 0
0.6382942812849982 0.27043669006250803 0
0.6902586523870002 0.29372917268414284 0
0.6651032949987556 0.28532752106272813 0
0.3345518492812465 0.7936121909180527 0
0.34012703000128713 0.6825721443080796 0
0.2326587797693068 0.2876034289326553 0
0.23250023986856208 0.2962768058842393 0
0.235007964117418 0.3739031919151364 0
0.19735623671119792 0.26424588310018826 0
0.2173613125265817 0.26590389716267404 0
0.2328035045370797 0.24896414555369387 0
0.747586678037718 0.719882121881268 0
0.7442817207552953 0.733433970019604 0
0.754052814269773 0.7437592806834668 0
0.7450615348844688 0.7560431486623527 0
0.7474153990964092 0.25508086487484544 0
0.7358285782750441 0.3572046559183457 0
0.725339630436095 0.36392937702738737 0
0.706611092599916 0.3769349307494403 0
0.6121371288827104 0.3161959599991138 0
0.6166032558125167 0.29055123819206286 0
0.6245929242042837 0.25590412498825954 0
0.7350851420755224 0.7207155253499961 0
0.31726425226964017 0.3464325280432621 0
0.2560437624814728 0.2876985284837409 0
0.7634840803827643 0.24584801732735534 0
0.7590917082719495 0.32648770004358924 0
0.7351621552871 0.28477564718984805 0
0.6303595335220895 0.31880156311829094 0
0.6229135814877385 0.34222239495067575 0
0.6088478293886462 0.280498424659031 0
0.19107614279328433 0.3362628988147462 0
0.7787768309511943 0.24118574224789202 0
0.6964497026404889 0.2841580511011168 0
0.7055796982468118 0.29216353851527194 0
0.6683293860815334 0.3165801328091465 0
0.6628220197172732 0.3098430423825934 0
0.6468896860044674 0.38265158657349113 0
0.6674850100406535 0.3560807303056697 0
0.6778292030324691 0.29514675820938463 0
0.643105012479205 0.3092824798811318 0
0.6093806331103859 0.3288621918706207 0
0.7696332461945807 0.7426229592217941 0
0.3324679383086813 0.6679896672394551 0
0.9593898775602189 0.1635429131236301 0
0.5999925241621324 0.30766880757228476 0
0.6081201927975194 0.30809821424231165 0
0.6282329335575035 0.2929531816162445 0
0.6180178814867218 0.3001014446572519 0
0.6530146199248676 0.28883210696443246 0
0.7109218893274849 0.3622757845368686 0
0.6368440606557934 0.24458142410775482 0
0.2656888651835216 0.29638808500765274 0
0.6353382289716906 0.33403669980128314 0
0.6183324519613094 0.35259170167825626 0
0.6919098403693176 0.2727033240714884 0
0.4693175579967275 0.28245032599554776 0
0.1015354422790885 0.31284927357263687 0
0.6819619309312644 0.7256002823246739 0
0.26903823396109827 0.36937349161755495 0
0.21577994235628117 0.3758386966971837 0
0.4010436315815058 0.180203100851647 0
0.3241584767521818 0.6206782861290705 0
0.7502472894516409 0.34787292469283665 0
0.7311322482024529 0.338936704747598 0
0.7157900955242884 0.3227135449416646 0
0.6587674800064721 0.25533645066824673 0
0.6521201455793677 0.2688281330190139 0
0.6571445316260511 0.2774121594152435 0
0.2121233182548659 0.8878162630452625 0
0.19425642569322843 0.2911948480215582 0
0.3393898924630422 0.32452199162033113 0
0.8045170366653144 0.12831024850246786 0
0.11148368073374956 0.7616977303003923 0
0.7235600222044589 0.7846781701686656 0
0.6930026082039442 0.6823513414397417 0
0.7354502476499937 0.49894494257564415 0
0.7752886222937091 0.5611096032540426 0
0.7710025074728911 0.5922382319075009 0
0.5708869969410638 0.35502750080110973 0
0.5357847123887358 0.3502739354181525 0
0.7579039147804107 0.3406778105057442 0
0.7372102775316987 0.31213490051004583 0
0.6635568193097404 0.23903400767142408 0
0.7040445529841073 0.31775636797468093 0
0.6179460787501531 0.32151401986353756 0
0.2642738149979279 0.3420145840169235 0
0.23478987033373708 0.4093744379270613 0
0.7495043562044451 0.04962638140613844 0
0.6920179967412683 0.7383335589151756 0
0.7768097607105154 0.26974634989484014 0
0.27324894690958007 0.3538158844906059 0
0.703852785404134 0.3257066861368393 0
0.25956157397833435 0.2721118168537579 0
0.3298415864894414 0.2413480494980051 0
0.31611547984227945 0.2322759562709408 0
0.6892480737798146 0.336574392263678 0
0.6920775854684105 0.34757886769615204 0
0.6835978868602449 0.3274151766547922 0
0.29602024043645325 0.41439092199158084 0
0.38538379356081115 0.6761934044380872 0
0.6601898688215895 0.3740421192538352 0
0.6722274776699808 0.3790088456569983 0
0.6805041956165141 0.35739067502708005 0
0.6711493740535958 0.3675062320569719 0
0.30510115620353373 0.24014275404457155 0
0.6746516232306471 0.3483421713245802 0
0.7281822875892834 0.30412729851441794 0
0.1096650000327647 0.8096330657213081 0
0.6524102117362245 0.3689542936385751 0
0.6647832778188226 0.32892144510417853 0
0.2978797613492788 0.8320646135690284 0
0.5605812386225161 0.49229366408529196 0
0.5376596788123515 0.3276911874330618 0
0.10111697372843277 0.5470636828087854 0
0.23520697177873212 0.09196709218066369 0
0.21412341707839067 0.12598649573273338 0
0.5369686864323684 0.671752434801464 0
0.14358833332355522 0.7338950575800717 0
0.5513637836690656 0.5192684485013697 0
0.5600377063281377 0.5436911667657024 0
0.537805959080737 0.46713745768678155 0
0.5600018714862028 0.46163208908309805 0
0.5415027822744508 0.4496549121984322 0
0.522966529549901 0.424854142443725 0
0.520111086928059 0.40352576481234237 0
0.5284698687410146 0.9537660268570655 0
0.14394831631823288 0.818367941112576 0
0.9056414302610574 0.7334411334360597 0
0.5212953568378127 0.2845425374632824 0
0.9190323746653466 0.30154604675996793 0
0.1510717273563498 0.8046984697218965 0
0.5668130188914691 0.7935963062023463 0
0.6245994546407773 0.772610523454196 0
0.8807001118835962 0.3541223316273238 0
0.2698372471991828 0.7332106723129406 0
0.9180068486902926 0.3424672622619754 0
0.16854320177009444 0.8145805095303932 0
0.47780414286686923 0.6409394812493253 0
0.20613442207734362 0.2614786698513984 0
0.20842505864091693 0.2719107744998186 0
0.744236241864406 0.2878339101900942 0
0.6818708306550778 0.2684560969476286 0
0.2026147251989174 0.25455171391601106 0
0.6330931270953509 0.39285123718097653 0
0.3196600698517414 0.9056269476218161 0
0.8945543762126444 1.0 1
0.22545324742236608 0.4249556388207513 0
0.7077399549654123 0.7384534232736801 0
0.6767487281799373 0.3357167614665452 0
0.5316633649369408 0.25787790988600046 0
0.36064816991343407 0.0 1

Edges
69
1 115 1
1 118 1
2 138 1
2 140 1
3 150 1
3 155 1
4 94 1
4 158 1
5 76 1
5 124 1
6 70 1
6 145 1
7 81 1
7 85 1
9 105 1
9 109 1
10 110 1
10 157 1
11 84 1
11 95 1
18 137 1
18 1043 1
21 75 1
21 141 1
22 75 1
22 76 1
25 114 1
25 125 1
29 154 1
29 1042 1
30 81 1
30 82 1
31 85 1
31 1041 1
35 94 1
35 95 1
36 104 1
36 119 1
40 104 1
40 105 1
43 109 1
43 110 1
45 114 1
45 115 1
46 118 1
46 119 1
55 137 1
55 138 1
56 140 1
56 141 1
57 144 1
57 151 1
58 144 1
58 145 1
62 150 1
62 151 1
65 157 1
65 158 1
70 174 1
82 1042 1
84 1041 1
124 1040 1
125 1209 1
154 1039 1
155 1204 1
174 175 1
175 1043 1
1039 1204 1
1040 1209 1

Triangles
2347
1 115 118 0
2 339 140 0
3 155 150 0
4 158 94 0
5 76 299 0
5 299 123 0
7 85 731 0
7 731 1184 0
8 129 312 0
8 890 770 0
9 274 284 0
10 142 617 0
11 97 230 0
11 249 97 0
12 462 466 0
12 466 743 0
12 491 747 0
13 651 865 0
13 725 1080 0
14 130 211 0
14 211 453 0
14 313 130 0
15 393 1121 0
15 687 843 0
15 843 937 0
16 167 172 0
16 172 179 0
17 395 168 0
18 793 318 0
19 180 401 0
19 181 402 0
19 401 674 0
19 402 180 0
20 1125 1126 0
21 798 1146 0
22 75 200 0
23 213 756 0
23 214 213 0
23 503 754 0
23 754 1045 0
24 77 448 0
24 448 710 0
24 714 863 0
24 863 455 0
25 125 304 0
26 208 761 0
26 555 556 0
27 215 337 0
27 337 984 0
27 378 1178 0
28 369 929 0
29 153 352 0
30 63 370 0
30 81 63 0
32 478 737 0
32 500 237 0
32 737 867 0
32 867 250 0
33 241 278 0
33 278 585 0
33 490 495 0
33 495 496 0
33 749 241 0
34 159 618 0
35 377 96 0
37 562 1066 0
37 897 562 0
38 519 758 0
38 521 519 0
39 511 526 0
39 526 1048 0
39 717 718 0
39 887 717 0
39 1048 1117 0
40 104 535 0
40 106 272 0
41 274 767 0
41 275 1172 0
41 284 274 0
41 538 771 0
42 107 277 0
42 277 545 0
42 282 539 0
42 539 107 0
43 109 540 0
44 112 1115 0
44 288 551 0
45 114 122 0
45 122 289 0
46 118 552 0
47 117 122 0
47 549 1173 0
47 1173 1174 0
48 971 123 0
49 127 576 0
49 294 560 0
49 560 575 0
50 129 311 0
50 311 310 0
50 317 586 0
51 133 134 0
51 1130 796 0
52 320 596 0
52 587 592 0
53 329 422 0
53 422 695 0
54 803 398 0
55 137 1102 0
55 139 339 0
57 151 641 0
57 626 144 0
58 144 814 0
59 349 386 0
60 355 358 0
60 358 376 0
60 376 633 0
61 356 835 0
61 359 826 0
61 921 356 0
62 150 156 0
62 156 667 0
63 373 370 0
63 1184 221 0
64 156 150 0
64 834 375 0
64 1204 834 0
66 202 378 0
66 212 454 0
66 378 932 0
67 170 171 0
67 171 394 0
67 427 392 0
68 168 395 0
68 169 177 0
68 177 178 0
69 171 395 0
70 6 604 0
70 676 174 0
71 178 396 0
71 332 600 0
71 396 675 0
71 600 804 0
72 183 842 0
72 184 1053 0
73 425 1123 0
74 187 433 0
74 433 434 0
74 434 1099 0
75 21 799 0
76 22 128 0
76 128 299 0
77 204 207 0
77 207 448 0
77 455 214 0
78 720 716 0
79 926 661 0
80 219 458 0
80 458 728 0
81 7 1184 0
82 30 370 0
82 370 832 0
83 222 334 0
83 334 809 0
83 470 734 0
84 11 230 0
84 230 954 0
85 31 86 0
85 86 731 0
86 31 480 0
86 235 730 0
87 238 483 0
87 471 476 0
87 476 870 0
88 479 869 0
88 737 478 0
88 869 1203 0
89 999 752 0
90 240 472 0
90 472 484 0
90 751 497 0
90 955 751 0
91 243 746 0
91 746 876 0
92 241 489 0
92 242 276 0
92 276 277 0
93 247 1062 0
93 492 498 0
93 498 750 0
94 377 35 0
95 35 96 0
95 96 249 0
96 98 251 0
97 228 230 0
97 251 229 0
98 377 34 0
99 252 509 0
99 253 882 0
99 882 1129 0
100 516 1063 0
100 565 566 0
100 566 1151 0
101 264 1047 0
101 513 517 0
101 529 530 0
102 523 766 0
102 766 888 0
102 886 265 0
103 531 896 0
103 891 531 0
104 36 111 0
104 111 271 0
104 271 535 0
105 40 272 0
105 274 9 0
106 40 535 0
106 273 524 0
106 535 536 0
106 536 273 0
107 241 277 0
108 279 312 0
108 312 584 0
108 539 282 0
108 584 539 0
109 9 284 0
109 284 540 0
110 43 283 0
111 36 116 0
111 44 271 0
111 116 288 0
112 286 1115 0
112 779 553 0
113 286 547 0
113 536 1115 0
113 547 776 0
114 25 549 0
115 45 289 0
116 36 119 0
116 287 778 0
117 47 298 0
117 786 290 0
118 115 289 0
118 289 552 0
119 46 120 0
119 287 116 0
120 46 552 0
120 550 287 0
121 568 902 0
122 114 549 0
122 117 289 0
123 124 5 0
125 126 560 0
126 1209 1040 0
127 49 303 0
127 303 574 0
127 306 307 0
127 307 576 0
128 22 200 0
128 443 299 0
128 444 443 0
129 8 210 0
129 50 586 0
130 50 310 0
130 310 211 0
130 313 316 0
130 317 50 0
131 139 1102 0
131 318 588 0
131 588 589 0
132 320 324 0
132 321 688 0
133 51 319 0
133 319 589 0
133 325 328 0
133 328 597 0
134 53 800 0
134 133 597 0
134 597 53 0
134 800 1130 0
135 327 599 0
135 329 597 0
135 599 802 0
136 54 602 0
136 602 818 0
136 818 603 0
137 18 318 0
138 55 339 0
139 55 1102 0
139 131 319 0
139 319 340 0
140 339 341 0
140 341 56 0
141 56 797 0
142 10 110 0
142 342 1131 0
143 34 618 0
143 98 34 0
143 618 1166 0
143 975 616 0
143 1166 1185 0
144 626 814 0
145 58 627 0
145 602 6 0
146 349 624 0
146 350 385 0
146 385 388 0
147 635 640 0
147 637 822 0
147 640 642 0
148 57 641 0
148 626 57 0
149 358 643 0
149 359 666 0
149 376 358 0
151 62 667 0
152 363 647 0
152 827 922 0
153 29 1042 0
154 29 352 0
155 64 150 0
156 64 374 0
156 374 667 0
157 10 617 0
157 618 65 0
158 65 159 0
159 34 377 0
159 65 618 0
159 94 158 0
159 377 94 0
160 80 217 0
160 217 403 0
160 459 80 0
160 841 380 0
161 383 1133 0
161 384 671 0
161 671 724 0
162 386 388 0
162 387 681 0
162 388 837 0
163 164 1178 0
163 182 391 0
164 27 1178 0
164 163 673 0
164 215 27 0
164 218 215 0
165 183 411 0
166 169 170 0
166 170 392 0
166 424 1075 0
166 1074 393 0
167 16 414 0
167 185 412 0
168 68 178 0
168 804 17 0
169 68 170 0
169 166 393 0
169 393 937 0
170 67 392 0
170 395 171 0
171 69 172 0
172 69 400 0
172 394 171 0
173 1135 674 0
175 174 908 0
176 321 322 0
177 169 937 0
178 71 804 0
178 177 396 0
178 804 168 0
179 172 400 0
179 401 839 0
180 838 839 0
180 839 401 0
181 19 405 0
182 163 1170 0
182 183 391 0
183 72 411 0
184 72 842 0
184 1052 1053 0
185 167 414 0
185 413 431 0
185 431 704 0
186 416 418 0
186 450 684 0
187 194 433 0
188 73 1140 0
188 419 1122 0
188 847 1084 0
189 698 852 0
189 845 1083 0
189 851 698 0
190 700 853 0
190 853 1054 0
190 1054 1059 0
190 1059 1092 0
190 1142 700 0
191 426 1050 0
191 1155 854 0
192 428 429 0
192 429 1112 0
192 705 1051 0
193 1056 1086 0
193 1086 1143 0
193 1104 1106 0
194 187 417 0
194 196 435 0
194 417 1171 0
195 196 1187 0
195 948 196 0
195 1187 1208 0
196 194 1171 0
196 416 1187 0
196 948 435 0
197 708 1079 0
197 1078 1088 0
197 1105 1078 0
198 326 593 0
198 437 438 0
198 446 326 0
198 593 699 0
199 439 1109 0
200 799 201 0
201 326 446 0
201 799 595 0
202 66 454 0
202 454 714 0
202 1170 1177 0
202 1179 1170 0
203 714 447 0
203 1182 1181 0
204 23 206 0
204 77 214 0
204 206 207 0
205 451 572 0
205 684 1114 0
208 306 1119 0
208 1008 761 0
209 722 720 0
209 723 310 0
210 260 722 0
210 311 129 0
210 722 209 0
211 212 453 0
211 310 723 0
211 723 864 0
212 66 669 0
212 211 864 0
212 669 453 0
213 455 78 0
213 716 756 0
214 23 204 0
215 218 728 0
215 727 337 0
215 729 727 0
216 383 457 0
216 457 725 0
217 80 728 0
217 728 218 0
218 935 389 0
219 80 459 0
219 660 458 0
220 28 371 0
220 221 460 0
220 224 369 0
221 220 371 0
221 371 63 0
222 83 734 0
222 462 607 0
223 470 608 0
224 220 460 0
225 227 465 0
225 465 475 0
225 475 873 0
226 233 234 0
226 234 467 0
226 467 1011 0
226 735 468 0
226 992 735 0
227 225 464 0
227 464 734 0
228 97 229 0
228 250 867 0
229 251 1127 0
231 239 472 0
231 472 486 0
231 486 873 0
231 738 1061 0
232 471 738 0
233 226 468 0
233 235 479 0
235 86 480 0
235 233 730 0
235 480 869 0
236 481 485 0
236 482 752 0
236 485 742 0
236 752 881 0
237 478 32 0
238 87 473 0
238 237 1169 0
238 482 483 0
239 231 1061 0
239 741 484 0
240 90 497 0
241 92 277 0
241 107 278 0
242 91 613 0
242 92 243 0
243 91 242 0
243 92 489 0
243 877 746 0
244 490 1120 0
245 244 609 0
245 494 244 0
246 248 492 0
246 491 493 0
246 492 748 0
246 748 808 0
247 93 878 0
247 494 1101 0
247 1101 1062 0
248 246 493 0
248 493 497 0
248 497 751 0
248 879 498 0
249 11 95 0
249 96 251 0
250 228 229 0
250 229 501 0
250 500 32 0
251 97 249 0
251 616 1127 0
252 99 1129 0
252 502 508 0
252 508 509 0
253 99 505 0
253 254 1045 0
253 754 882 0
254 253 505 0
254 505 964 0
255 502 506 0
255 898 782 0
256 782 507 0
257 512 1198 0
257 514 1128 0
258 520 765 0
258 765 962 0
258 967 758 0
259 260 770 0
259 511 719 0
259 719 991 0
260 8 770 0
260 210 8 0
261 514 515 0
261 515 1064 0
261 517 513 0
262 266 1048 0
262 527 1047 0
262 1047 1049 0
262 1048 1065 0
263 261 1064 0
263 516 885 0
264 517 518 0
264 888 1049 0
265 267 523 0
265 519 521 0
265 521 267 0
266 262 1049 0
266 1049 1144 0
266 1149 1117 0
267 521 522 0
267 522 1081 0
268 526 1145 0
268 1065 526 0
269 527 1118 0
269 528 895 0
269 530 529 0
269 1089 530 0
270 532 770 0
270 533 769 0
270 534 772 0
270 769 1205 0
270 890 534 0
271 44 536 0
272 106 524 0
273 113 776 0
274 105 272 0
275 41 771 0
275 280 281 0
275 285 1172 0
275 541 285 0
276 242 542 0
276 542 543 0
277 276 545 0
278 107 539 0
279 8 312 0
279 280 890 0
279 281 280 0
279 890 8 0
281 108 282 0
281 279 108 0
281 282 541 0
282 42 541 0
283 142 110 0
283 775 142 0
284 41 1172 0
285 540 1172 0
285 541 773 0
286 112 548 0
286 113 1115 0
286 548 893 0
287 119 120 0
287 550 778 0
288 44 111 0
288 116 778 0
288 778 1001 0
289 290 552 0
290 120 552 0
290 289 117 0
290 550 120 0
291 562 897 0
291 784 562 0
292 290 786 0
292 550 290 0
292 966 1001 0
292 1001 778 0
293 559 558 0
294 293 304 0
294 304 560 0
295 296 1068 0
295 561 564 0
296 295 564 0
296 564 901 0
296 901 969 0
297 291 554 0
297 784 291 0
298 47 1174 0
298 786 117 0
298 787 970 0
298 970 786 0
299 48 123 0
299 443 583 0
299 583 48 0
300 571 788 0
300 788 302 0
301 452 1119 0
301 574 789 0
301 789 788 0
302 570 300 0
302 971 48 0
303 49 575 0
303 575 905 0
304 125 560 0
304 293 1173 0
305 559 576 0
305 903 558 0
306 26 556 0
306 127 574 0
306 208 26 0
306 574 1119 0
307 556 577 0
309 582 308 0
310 311 209 0
311 210 209 0
312 129 586 0
313 14 335 0
313 315 316 0
313 336 315 0
314 316 1120 0
314 585 892 0
315 244 1120 0
315 336 609 0
315 609 244 0
316 315 1120 0
317 130 316 0
317 314 892 0
317 316 314 0
318 1102 137 0
319 131 589 0
320 52 323 0
320 132 598 0
320 323 324 0
320 330 596 0
321 132 322 0
321 176 843 0
321 687 844 0
322 132 324 0
322 324 906 0
322 794 176 0
322 906 794 0
323 52 592 0
324 795 906 0
325 133 589 0
325 327 328 0
325 587 591 0
327 135 328 0
327 325 591 0
327 596 599 0
328 135 597 0
329 53 597 0
329 135 802 0
330 320 598 0
330 598 690 0
330 690 909 0
331 404 173 0
331 601 803 0
331 803 136 0
332 399 398 0
333 606 747 0
333 747 808 0
333 748 807 0
333 1158 910 0
334 222 607 0
335 14 379 0
335 336 313 0
335 379 668 0
336 335 611 0
336 611 1004 0
338 912 933 0
338 933 1175 0
339 2 138 0
339 139 341 0
340 51 796 0
340 319 51 0
340 341 139 0
340 797 341 0
341 797 56 0
342 774 1176 0
343 148 356 0
343 816 626 0
344 619 621 0
344 620 918 0
344 621 817 0
344 918 1100 0
346 351 631 0
346 625 817 0
347 627 58 0
347 814 815 0
347 818 627 0
348 347 815 0
348 603 818 0
348 815 917 0
349 59 623 0
349 146 388 0
349 623 624 0
350 146 621 0
350 621 1069 0
350 1069 1080 0
351 346 623 0
351 623 630 0
351 630 916 0
352 153 367 0
352 367 664 0
353 362 647 0
353 367 362 0
353 632 931 0
353 664 367 0
354 634 638 0
354 635 823 0
355 60 363 0
355 363 364 0
355 364 637 0
356 148 641 0
356 641 835 0
356 1186 343 0
357 629 816 0
357 816 1186 0
358 355 360 0
358 360 643 0
359 61 835 0
359 149 643 0
359 643 826 0
360 355 637 0
360 637 642 0
360 642 825 0
361 644 827 0
361 646 655 0
362 367 656 0
362 646 647 0
363 60 633 0
363 152 364 0
363 633 647 0
364 152 922 0
365 644 645 0
365 645 657 0
365 653 648 0
366 636 1132 0
366 651 1072 0
367 153 656 0
368 153 832 0
368 655 656 0
368 656 153 0
368 657 655 0
369 28 220 0
369 659 1190 0
370 373 832 0
371 28 983 0
371 373 63 0
372 657 658 0
372 658 663 0
372 663 983 0
373 371 663 0
373 663 658 0
374 665 666 0
374 666 667 0
375 374 64 0
375 834 931 0
376 149 665 0
376 632 633 0
377 98 96 0
378 202 1177 0
378 1177 1178 0
379 14 453 0
379 453 669 0
379 669 1020 0
382 381 670 0
382 1116 79 0
383 161 457 0
383 216 1116 0
383 382 670 0
383 670 1133 0
384 161 1133 0
384 387 837 0
385 350 724 0
385 671 837 0
386 162 680 0
386 349 388 0
386 680 59 0
387 162 837 0
387 380 841 0
387 384 380 0
388 385 837 0
389 217 218 0
389 403 217 0
390 16 179 0
390 165 411 0
390 672 165 0
391 165 672 0
391 183 165 0
393 15 937 0
393 1074 1121 0
394 167 412 0
394 172 167 0
394 427 67 0
395 17 69 0
395 170 68 0
396 177 397 0
396 397 840 0
397 843 176 0
398 399 590 0
398 803 332 0
399 906 1192 0
400 17 677 0
400 69 17 0
400 401 179 0
400 677 1134 0
401 400 1134 0
402 181 389 0
402 673 838 0
403 389 181 0
403 405 936 0
403 841 160 0
403 936 841 0
404 331 603 0
404 628 1135 0
405 403 181 0
405 406 936 0
406 405 679 0
406 679 1136 0
406 680 681 0
406 681 936 0
407 409 410 0
407 683 409 0
407 686 683 0
408 407 410 0
408 682 1181 0
408 686 407 0
408 1181 1182 0
408 1182 1183 0
409 184 410 0
409 683 702 0
409 1052 184 0
410 184 842 0
410 682 408 0
411 413 414 0
412 185 704 0
412 986 427 0
413 72 1053 0
413 185 414 0
413 411 72 0
413 1053 431 0
414 16 390 0
414 390 411 0
415 572 1208 0
416 186 684 0
416 196 1171 0
416 684 1187 0
417 187 1137 0
417 685 1138 0
418 416 1171 0
418 449 186 0
419 188 1084 0
419 1084 1139 0
419 1121 1122 0
420 688 938 0
420 690 598 0
420 691 1148 0
421 691 938 0
421 692 1199 0
421 847 692 0
422 329 802 0
422 802 845 0
422 845 852 0
423 696 699 0
423 698 851 0
424 166 392 0
424 1076 1108 0
425 73 188 0
425 188 1122 0
425 426 1123 0
426 854 1150 0
426 1122 1050 0
427 394 412 0
427 701 1076 0
427 1076 392 0
428 74 429 0
428 187 74 0
428 192 702 0
428 1137 187 0
429 74 1099 0
429 703 1087 0
429 1087 1112 0
430 856 1202 0
432 1054 853 0
432 1055 1097 0
432 1093 1094 0
433 435 857 0
433 857 1103 0
434 433 1103 0
434 1077 1099 0
434 1104 1077 0
435 433 194 0
436 1056 1105 0
436 1057 1098 0
437 198 699 0
438 437 707 0
439 1058 1079 0
439 1079 1109 0
439 1124 1125 0
440 437 696 0
440 696 697 0
440 697 1141 0
440 709 861 0
440 861 437 0
441 442 1060 0
441 850 1200 0
441 1060 1126 0
442 441 1200 0
442 1059 1097 0
443 444 445 0
444 128 200 0
444 200 201 0
444 201 446 0
445 438 707 0
445 444 446 0
445 582 443 0
445 791 582 0
446 198 438 0
446 438 445 0
447 24 710 0
447 1183 1182 0
448 449 710 0
449 418 711 0
449 448 712 0
449 711 710 0
449 712 186 0
450 186 712 0
450 712 757 0
451 571 572 0
451 862 713 0
452 208 1119 0
452 571 713 0
454 212 864 0
455 77 24 0
455 213 214 0
455 456 78 0
456 209 720 0
456 715 723 0
457 161 724 0
457 724 725 0
458 729 728 0
459 160 380 0
459 381 219 0
459 670 381 0
459 1133 670 0
460 992 224 0
461 338 1175 0
461 726 1033 0
461 727 729 0
461 733 338 0
462 12 747 0
462 222 464 0
462 464 466 0
463 223 608 0
463 338 733 0
463 659 223 0
463 810 338 0
464 222 734 0
464 225 466 0
465 227 469 0
465 467 474 0
465 469 467 0
465 474 475 0
466 486 743 0
467 469 1011 0
468 732 730 0
468 735 732 0
470 223 953 0
471 87 483 0
471 232 476 0
471 483 1061 0
472 239 484 0
472 240 486 0
473 87 870 0
473 237 238 0
473 478 237 0
473 871 478 0
474 232 475 0
474 739 232 0
475 232 738 0
476 232 739 0
476 739 870 0
477 234 740 0
477 467 234 0
477 474 467 0
478 871 88 0
479 234 233 0
479 235 869 0
479 740 234 0
479 871 740 0
481 236 881 0
481 744 485 0
481 956 744 0
482 89 752 0
482 236 742 0
482 1169 89 0
483 482 742 0
484 499 90 0
485 741 872 0
485 744 741 0
486 240 743 0
486 466 873 0
487 481 881 0
487 488 875 0
488 487 974 0
488 913 875 0
489 241 749 0
489 749 877 0
490 33 585 0
490 244 494 0
490 494 495 0
490 585 1120 0
491 12 743 0
491 246 808 0
491 808 747 0
492 93 805 0
492 248 498 0
493 240 497 0
493 743 240 0
494 245 1101 0
494 247 495 0
495 247 958 0
495 958 496 0
496 957 749 0
496 1014 957 0
498 1013 750 0
499 484 741 0
499 874 955 0
500 250 880 0
500 880 999 0
500 999 89 0
500 1169 237 0
501 229 1127 0
502 38 506 0
502 252 521 0
502 255 508 0
503 23 756 0
503 882 754 0
504 207 206 0
504 254 964 0
504 757 207 0
504 964 757 0
504 1045 254 0
505 509 510 0
505 510 964 0
506 38 758 0
506 967 898 0
507 759 760 0
508 255 256 0
508 256 763 0
509 505 99 0
509 508 763 0
510 509 763 0
511 39 718 0
511 259 532 0
511 718 719 0
512 257 1128 0
512 546 37 0
512 1066 1198 0
513 101 530 0
513 514 261 0
513 530 768 0
514 257 515 0
514 513 768 0
514 889 1128 0
515 257 1046 0
515 1046 1063 0
515 1063 1064 0
516 100 1082 0
516 263 1064 0
517 261 263 0
517 263 518 0
517 264 101 0
518 263 885 0
518 888 264 0
519 520 758 0
519 886 520 0
520 258 758 0
520 886 1110 0
521 38 502 0
521 252 522 0
522 252 1129 0
522 882 1081 0
523 102 265 0
523 267 961 0
524 274 272 0
524 767 274 0
525 103 528 0
525 769 533 0
525 1118 268 0
526 511 1145 0
527 262 1065 0
527 269 529 0
527 529 1047 0
527 1065 1118 0
528 103 896 0
528 269 1118 0
529 101 1047 0
531 776 896 0
532 270 1205 0
532 1145 511 0
533 103 525 0
533 270 772 0
533 772 891 0
533 891 103 0
534 280 771 0
534 890 280 0
535 271 536 0
536 44 1115 0
536 113 273 0
537 524 273 0
537 538 767 0
537 767 524 0
537 891 538 0
539 584 892 0
540 283 43 0
540 284 1172 0
540 544 283 0
541 42 545 0
541 275 281 0
541 545 773 0
542 613 615 0
542 615 1176 0
543 542 774 0
544 285 773 0
544 540 285 0
544 773 543 0
544 775 283 0
545 276 543 0
546 780 37 0
546 1128 889 0
547 286 893 0
547 777 896 0
549 25 304 0
549 47 122 0
549 304 1173 0
551 112 44 0
551 288 1001 0
553 548 112 0
553 779 781 0
553 780 548 0
553 781 897 0
554 291 781 0
554 781 966 0
554 786 970 0
555 26 759 0
555 507 1152 0
555 759 507 0
555 1153 899 0
556 307 306 0
556 555 899 0
557 576 577 0
557 577 783 0
557 783 785 0
557 903 305 0
558 559 305 0
558 787 1174 0
558 1173 293 0
559 293 294 0
559 294 49 0
560 126 575 0
561 121 564 0
561 295 784 0
561 297 568 0
561 568 121 0
561 784 297 0
562 784 1201 0
563 295 1068 0
563 784 295 0
563 1067 1197 0
563 1197 1201 0
564 121 901 0
565 100 1046 0
565 563 1068 0
565 1046 1067 0
566 296 969 0
566 962 1151 0
566 1068 296 0
567 566 969 0
567 884 962 0
568 787 569 0
568 970 787 0
569 558 903 0
569 787 558 0
569 902 568 0
570 48 583 0
570 302 48 0
570 581 300 0
571 300 573 0
571 452 788 0
572 415 205 0
572 571 573 0
572 573 580 0
572 578 1208 0
573 300 581 0
573 581 580 0
574 301 1119 0
575 126 904 0
575 904 905 0
576 307 577 0
576 557 305 0
576 559 49 0
577 556 899 0
577 899 783 0
578 579 1208 0
579 195 1208 0
579 578 792 0
580 578 572 0
580 581 308 0
580 790 578 0
581 309 308 0
581 570 309 0
582 309 443 0
582 791 308 0
583 309 570 0
583 443 309 0
584 312 586 0
584 586 892 0
585 314 1120 0
587 52 591 0
587 325 589 0
587 588 592 0
588 587 589 0
588 793 592 0
590 399 1192 0
590 934 398 0
590 1192 1194 0
592 793 1188 0
592 795 323 0
593 695 942 0
594 796 1130 0
595 326 201 0
595 594 801 0
595 798 594 0
595 799 1146 0
595 801 326 0
596 327 591 0
596 330 599 0
596 591 52 0
598 132 688 0
598 688 420 0
599 330 909 0
600 332 803 0
600 601 804 0
601 331 173 0
601 600 803 0
601 677 804 0
602 54 604 0
602 145 627 0
602 604 6 0
603 331 136 0
604 54 934 0
604 934 676 0
605 748 805 0
606 333 910 0
606 334 607 0
606 607 747 0
606 806 334 0
607 462 747 0
608 83 809 0
608 470 83 0
608 809 810 0
608 810 463 0
609 911 245 0
610 806 972 0
611 811 1004 0
612 836 1196 0
613 542 242 0
614 613 91 0
614 1017 914 0
615 915 1176 0
616 98 143 0
616 251 98 0
616 975 998 0
616 998 1127 0
617 142 1131 0
617 1131 1166 0
618 157 617 0
618 617 1166 0
619 344 1100 0
620 344 817 0
620 639 918 0
620 824 639 0
621 146 624 0
621 619 1069 0
621 624 817 0
622 345 919 0
622 819 345 0
622 824 625 0
623 59 630 0
623 346 624 0
624 346 817 0
625 346 631 0
625 620 817 0
625 824 620 0
626 148 343 0
626 816 814 0
627 818 602 0
628 404 603 0
628 678 1136 0
629 357 345 0
629 917 815 0
630 59 678 0
631 351 819 0
631 622 625 0
632 353 633 0
632 376 665 0
633 353 647 0
634 354 650 0
634 650 1072 0
634 1071 1100 0
634 1100 821 0
635 147 822 0
635 354 638 0
635 638 640 0
635 822 978 0
636 366 650 0
636 650 823 0
636 823 923 0
637 147 642 0
637 364 822 0
638 634 821 0
639 821 918 0
640 639 920 0
640 821 639 0
641 151 667 0
641 667 835 0
642 640 920 0
643 360 825 0
644 361 645 0
644 365 648 0
644 648 828 0
644 828 977 0
645 361 655 0
645 655 657 0
646 152 647 0
646 362 656 0
646 827 152 0
648 653 654 0
649 831 1132 0
649 980 927 0
650 354 823 0
650 366 1072 0
651 13 924 0
651 366 652 0
651 652 865 0
652 366 831 0
652 831 925 0
652 925 1206 0
653 365 372 0
654 828 648 0
655 646 656 0
657 368 658 0
657 372 365 0
658 368 832 0
658 832 373 0
659 369 224 0
659 733 1037 0
659 1037 1190 0
660 219 381 0
660 381 382 0
661 382 79 0
661 660 382 0
661 926 979 0
661 1010 660 0
662 653 372 0
662 928 653 0
664 154 352 0
664 834 1039 0
664 931 834 0
664 1039 154 0
665 149 666 0
665 374 375 0
665 375 632 0
666 359 835 0
667 666 835 0
668 379 1020 0
668 611 335 0
668 811 611 0
669 66 932 0
671 384 837 0
671 385 724 0
672 390 179 0
673 163 391 0
673 389 935 0
673 391 838 0
673 402 389 0
673 935 164 0
674 401 1134 0
674 677 173 0
674 679 19 0
675 332 71 0
675 396 840 0
675 399 332 0
675 840 399 0
676 70 604 0
677 17 804 0
677 601 173 0
677 674 1134 0
678 59 680 0
678 406 1136 0
678 680 406 0
678 820 630 0
679 405 19 0
679 674 1135 0
679 1135 1136 0
680 162 681 0
681 387 841 0
681 841 936 0
682 410 842 0
682 842 1180 0
683 428 702 0
683 685 1137 0
684 205 415 0
684 415 1187 0
685 417 1137 0
685 686 711 0
685 711 1138 0
686 408 1183 0
686 685 683 0
687 15 1139 0
687 321 843 0
688 321 844 0
688 844 938 0
689 691 693 0
689 1073 1083 0
689 1148 691 0
690 420 1148 0
690 846 909 0
691 420 938 0
691 421 693 0
692 847 1140 0
692 1085 1199 0
692 1140 1165 0
693 421 1199 0
693 1073 689 0
694 692 1165 0
694 1085 692 0
694 1092 940 0
695 422 852 0
695 593 801 0
695 852 942 0
696 423 697 0
696 437 699 0
697 423 851 0
697 850 1141 0
697 851 985 0
698 942 852 0
699 593 942 0
700 1142 1150 0
701 944 1076 0
701 1021 944 0
702 192 1051 0
702 1051 1052 0
703 429 1099 0
703 1086 1111 0
704 431 1095 0
704 1095 1159 0
704 1159 1160 0
705 192 1112 0
705 856 1051 0
706 857 858 0
706 858 1088 0
706 1078 1106 0
707 437 861 0
707 861 990 0
707 990 791 0
708 197 1088 0
708 858 859 0
708 859 860 0
709 199 1109 0
709 1141 199 0
710 711 1183 0
711 418 1138 0
711 686 1183 0
712 448 207 0
713 571 451 0
713 1009 1008 0
714 24 447 0
714 203 202 0
714 454 864 0
715 455 863 0
715 456 455 0
715 863 864 0
716 213 78 0
717 887 1000 0
717 952 718 0
718 952 719 0
719 952 1157 0
720 78 456 0
720 721 716 0
721 991 1157 0
722 260 991 0
722 721 720 0
723 209 456 0
723 715 864 0
724 350 1080 0
725 13 865 0
725 724 1080 0
725 1206 216 0
726 458 660 0
726 461 729 0
726 660 1010 0
726 729 458 0
727 1175 337 0
729 215 728 0
730 233 468 0
731 86 730 0
731 730 732 0
731 732 1184 0
732 221 1184 0
732 460 221 0
732 735 460 0
733 461 1033 0
733 659 463 0
733 1033 1037 0
734 736 227 0
736 469 227 0
736 470 953 0
736 734 470 0
737 88 1203 0
738 471 1061 0
739 474 477 0
739 477 740 0
739 740 870 0
741 239 872 0
741 744 499 0
742 485 872 0
742 1061 483 0
743 493 491 0
744 874 499 0
745 994 875 0
746 995 876 0
748 333 808 0
748 492 805 0
748 605 807 0
749 33 496 0
751 955 993 0
753 882 503 0
753 883 1081 0
753 960 883 0
754 253 1045 0
755 503 756 0
755 716 721 0
755 753 503 0
755 960 753 0
756 716 755 0
757 712 207 0
759 26 761 0
760 256 507 0
760 759 951 0
760 763 256 0
760 951 762 0
761 1008 951 0
762 510 763 0
763 760 762 0
764 102 888 0
764 518 885 0
764 885 1110 0
765 520 1110 0
765 1082 1151 0
766 523 961 0
766 961 1149 0
767 538 41 0
768 530 1089 0
769 268 1145 0
769 525 268 0
769 1145 1205 0
770 532 259 0
771 280 275 0
771 538 772 0
772 534 771 0
772 538 891 0
773 545 543 0
774 342 775 0
774 542 1176 0
774 775 543 0
775 342 142 0
775 544 543 0
776 531 537 0
776 537 273 0
776 547 896 0
777 547 893 0
777 893 894 0
777 895 896 0
777 1089 895 0
778 550 292 0
779 112 551 0
779 551 1001 0
779 966 781 0
780 553 897 0
780 965 548 0
781 291 897 0
782 256 255 0
782 898 968 0
782 1152 507 0
783 900 785 0
784 563 1201 0
785 900 901 0
785 901 902 0
786 554 292 0
787 298 1174 0
788 452 301 0
789 302 788 0
789 905 971 0
790 308 791 0
790 580 308 0
790 792 578 0
791 445 707 0
792 790 949 0
792 859 579 0
793 18 1043 0
793 588 318 0
793 907 1188 0
795 324 323 0
795 592 1188 0
795 1188 1194 0
797 340 796 0
797 796 798 0
798 21 141 0
798 141 797 0
798 595 1146 0
798 796 594 0
799 21 1146 0
799 200 75 0
800 53 695 0
800 594 1130 0
800 695 801 0
801 593 326 0
801 594 800 0
802 599 909 0
802 909 1090 0
803 54 136 0
806 606 910 0
806 910 972 0
807 605 911 0
807 973 1158 0
809 812 912 0
810 809 912 0
810 912 338 0
811 610 972 0
811 668 836 0
811 1003 1004 0
812 334 806 0
812 610 612 0
812 612 912 0
812 806 610 0
812 809 334 0
813 614 91 0
814 347 58 0
815 816 629 0
816 343 1186 0
816 815 814 0
818 347 348 0
819 351 916 0
819 622 631 0
819 629 345 0
820 628 1005 0
820 678 628 0
820 916 630 0
821 640 638 0
822 364 922 0
822 922 978 0
823 635 978 0
824 622 919 0
824 920 639 0
825 826 643 0
826 825 976 0
827 644 977 0
827 646 361 0
828 636 923 0
828 654 649 0
828 923 977 0
828 1132 636 0
829 79 1116 0
829 1116 1147 0
830 833 982 0
830 982 1191 0
830 1019 928 0
831 366 1132 0
833 830 662 0
833 929 982 0
836 610 811 0
836 612 610 0
836 1020 1196 0
838 180 402 0
838 391 672 0
838 672 839 0
839 672 179 0
840 176 794 0
840 397 176 0
840 794 399 0
842 182 1180 0
842 183 182 0
843 397 937 0
844 847 938 0
844 1084 847 0
845 189 852 0
845 802 1090 0
846 689 1083 0
846 690 1148 0
846 1083 1090 0
847 188 1140 0
847 421 938 0
848 190 1092 0
848 1123 1142 0
848 1165 73 0
849 693 1085 0
849 940 1006 0
849 1073 693 0
850 441 1124 0
850 697 985 0
850 1124 1141 0
851 189 941 0
851 941 1006 0
851 1006 985 0
853 700 943 0
853 943 1156 0
853 988 1093 0
853 1093 432 0
854 426 191 0
854 943 1150 0
855 945 989 0
855 1086 1098 0
856 430 1051 0
856 947 1095 0
856 1095 1202 0
857 435 948 0
857 706 1103 0
858 708 1088 0
858 857 948 0
859 792 860 0
859 858 948 0
859 948 579 0
860 792 949 0
860 949 950 0
860 1079 708 0
861 709 950 0
861 950 990 0
862 205 1114 0
862 451 205 0
863 714 864 0
865 652 1206 0
866 223 659 0
866 659 224 0
866 953 223 0
867 737 1203 0
868 228 867 0
868 230 228 0
868 867 1203 0
868 954 230 0
869 480 954 0
869 868 1203 0
870 740 871 0
871 473 870 0
871 479 88 0
873 466 225 0
873 475 738 0
873 738 231 0
874 744 956 0
874 1025 955 0
876 745 813 0
876 813 91 0
876 1193 745 0
877 243 489 0
877 749 957 0
877 957 996 0
878 93 750 0
878 750 997 0
878 958 247 0
879 248 751 0
879 751 993 0
879 993 1013 0
880 250 501 0
880 501 959 0
880 959 1028 0
881 974 487 0
882 522 1129 0
882 753 1081 0
883 887 961 0
883 960 1000 0
883 961 1081 0
884 258 962 0
884 567 1002 0
884 1016 967 0
885 516 1082 0
885 1082 1110 0
886 102 764 0
886 519 265 0
886 764 1110 0
887 39 1117 0
887 883 1000 0
887 1117 1149 0
888 518 764 0
888 766 1144 0
889 514 768 0
889 768 894 0
889 894 965 0
890 270 770 0
891 537 531 0
892 278 539 0
892 585 278 0
892 586 317 0
893 548 965 0
894 768 1089 0
894 893 965 0
895 528 896 0
897 37 780 0
898 255 506 0
898 967 1016 0
900 783 1030 0
901 121 902 0
901 900 969 0
902 569 903 0
903 557 785 0
903 785 902 0
904 124 123 0
905 574 303 0
905 789 574 0
905 904 971 0
906 399 794 0
906 795 1192 0
907 175 908 0
907 908 1194 0
908 174 676 0
908 590 1194 0
908 934 590 0
909 846 1090 0
911 605 1062 0
911 609 973 0
911 1062 1101 0
913 745 875 0
913 813 745 0
913 1017 813 0
914 613 614 0
914 615 613 0
914 1036 1018 0
915 1018 1189 0
915 1131 1176 0
916 820 1005 0
916 1005 917 0
917 629 819 0
917 819 916 0
917 1005 348 0
919 345 357 0
919 357 921 0
919 976 920 0
920 824 919 0
920 825 642 0
920 976 825 0
921 61 826 0
921 357 1186 0
921 826 976 0
921 976 919 0
922 827 977 0
922 977 978 0
923 823 978 0
924 13 1070 0
924 1070 1071 0
924 1072 651 0
925 831 927 0
925 927 981 0
925 1147 1206 0
926 79 829 0
926 829 981 0
926 981 1019 0
927 831 649 0
927 980 1019 0
928 654 653 0
928 662 830 0
928 980 654 0
929 369 1190 0
929 833 28 0
930 979 1191 0
930 1010 979 0
930 1033 1010 0
931 632 375 0
931 664 353 0
932 378 27 0
933 337 1175 0
933 612 1196 0
933 912 612 0
933 984 337 0
934 54 398 0
934 908 676 0
935 218 164 0
937 397 177 0
939 940 1092 0
939 985 1006 0
939 1113 985 0
940 849 1085 0
940 939 1006 0
941 189 1073 0
941 849 1006 0
942 423 699 0
942 698 423 0
943 700 1150 0
943 854 1154 0
943 1154 1156 0
944 191 1108 0
944 1021 1161 0
945 855 1098 0
945 1057 1094 0
945 1093 1168 0
946 705 1112 0
946 947 705 0
946 1023 1022 0
946 1087 1111 0
947 856 705 0
947 1022 1167 0
948 195 579 0
949 790 791 0
949 791 990 0
950 709 1109 0
950 949 990 0
951 759 761 0
951 963 762 0
951 1008 963 0
952 721 1157 0
952 960 721 0
952 1000 960 0
953 866 992 0
953 992 1011 0
953 1011 736 0
954 480 1041 0
954 868 869 0
954 1041 84 0
955 90 499 0
956 481 487 0
956 487 875 0
956 875 994 0
956 994 1025 0
957 1027 996 0
958 878 997 0
958 997 1014 0
959 1031 1028 0
960 755 721 0
961 267 1081 0
961 887 1149 0
962 566 567 0
962 765 1151 0
963 510 762 0
963 964 510 0
963 1024 964 0
965 546 889 0
965 780 546 0
966 292 554 0
966 779 1001 0
967 258 884 0
967 506 758 0
968 898 1016 0
968 1016 1163 0
969 1002 567 0
970 297 554 0
970 568 297 0
971 302 789 0
971 904 123 0
972 910 1003 0
973 336 1004 0
973 609 336 0
973 807 911 0
973 1003 1158 0
974 881 752 0
974 1038 1029 0
975 143 1185 0
977 923 978 0
979 830 1191 0
979 926 1019 0
980 649 654 0
980 928 1019 0
981 927 1019 0
981 1147 925 0
982 930 1191 0
982 1037 930 0
983 28 833 0
983 662 372 0
983 663 371 0
983 833 662 0
984 932 27 0
984 933 1196 0
984 1020 932 0
985 1200 850 0
986 412 704 0
986 701 427 0
986 704 1160 0
987 1154 1155 0
987 1155 1161 0
987 1161 1164 0
987 1164 1207 0
988 853 1156 0
988 1156 1207 0
989 945 1168 0
989 1034 1023 0
989 1111 855 0
991 260 259 0
991 719 1157 0
991 721 722 0
992 226 1011 0
992 460 735 0
992 866 224 0
993 955 1012 0
993 1012 1026 0
994 745 1193 0
995 746 996 0
995 1035 1193 0
996 746 877 0
996 1027 995 0
997 750 1013 0
997 1013 1026 0
998 501 1127 0
998 959 501 0
999 880 1028 0
999 974 752 0
999 1028 1038 0
999 1038 974 0
1000 952 717 0
1002 900 1030 0
1002 969 900 0
1002 1030 1163 0
1003 811 972 0
1003 910 1158 0
1003 973 1004 0
1005 603 348 0
1005 628 603 0
1007 1022 1096 0
1007 1096 1162 0
1007 1159 1167 0
1008 208 452 0
1008 452 713 0
1008 1009 963 0
1009 713 862 0
1009 1015 1024 0
1009 1024 963 0
1010 661 979 0
1011 469 736 0
1012 1035 1026 0
1013 498 879 0
1013 993 1026 0
1014 496 958 0
1014 997 1026 0
1014 1026 1027 0
1015 450 757 0
1015 757 1024 0
1015 862 1114 0
1015 1009 862 0
1016 884 1002 0
1016 1002 1163 0
1017 614 813 0
1017 913 1029 0
1018 615 914 0
1018 915 615 0
1018 1032 1195 0
1019 830 979 0
1020 669 932 0
1020 836 668 0
1020 984 1196 0
1021 701 986 0
1021 986 1160 0
1021 1160 1162 0
1022 947 946 0
1022 1007 1167 0
1022 1023 1034 0
1022 1034 1096 0
1023 1111 989 0
1024 757 964 0
1025 874 956 0
1025 994 1035 0
1025 1012 955 0
1027 957 1014 0
1027 1026 1035 0
1028 1031 1038 0
1029 488 974 0
1029 913 488 0
1030 783 899 0
1030 899 1153 0
1030 1153 1163 0
1031 1036 1038 0
1032 959 998 0
1032 975 1195 0
1032 998 975 0
1032 1031 959 0
1033 726 1010 0
1033 930 1037 0
1034 989 1168 0
1034 1168 1207 0
1035 994 1193 0
1035 995 1027 0
1035 1012 1025 0
1036 914 1017 0
1036 1017 1029 0
1036 1029 1038 0
1036 1031 1032 0
1036 1032 1018 0
1037 929 1190 0
1037 982 929 0
1039 834 1204 0
1040 124 904 0
1040 904 126 0
1041 480 31 0
1042 82 832 0
1042 832 153 0
1043 175 907 0
1043 907 793 0
1044 20 1107 0
1044 197 1058 0
1044 436 1105 0
1045 206 23 0
1045 504 206 0
1046 100 1063 0
1046 1198 1067 0
1047 264 1049 0
1048 266 1117 0
1048 526 1065 0
1049 888 1144 0
1050 1074 1075 0
1050 1108 191 0
1050 1122 1074 0
1051 430 1052 0
1052 409 702 0
1052 430 1053 0
1053 1202 431 0
1054 432 1097 0
1055 1057 1107 0
1055 1060 1097 0
1055 1094 1057 0
1056 193 1106 0
1056 436 1098 0
1057 436 1107 0
1057 945 1098 0
1058 20 1044 0
1058 197 1079 0
1058 1125 20 0
1059 442 1091 0
1059 1054 1097 0
1059 1091 1092 0
1060 442 1097 0
1061 742 872 0
1061 872 239 0
1062 605 805 0
1062 805 93 0
1063 516 1064 0
1065 268 1118 0
1066 512 37 0
1066 562 1201 0
1066 1197 1198 0
1067 563 565 0
1068 566 565 0
1069 619 1070 0
1070 619 1071 0
1070 1080 1069 0
1071 619 1100 0
1071 1072 924 0
1072 1071 634 0
1073 189 1083 0
1073 849 941 0
1074 166 1075 0
1075 424 1108 0
1076 424 392 0
1076 944 1108 0
1077 193 1143 0
1077 1104 193 0
1078 706 1088 0
1078 1105 1106 0
1079 860 950 0
1079 950 1109 0
1080 1070 13 0
1082 100 1151 0
1082 765 1110 0
1083 845 1090 0
1084 687 1139 0
1084 844 687 0
1085 693 1199 0
1085 694 940 0
1086 703 1143 0
1086 855 1111 0
1086 1056 1098 0
1087 703 1111 0
1089 269 895 0
1089 777 894 0
1091 442 1113 0
1091 939 1092 0
1092 694 848 0
1093 945 1094 0
1093 988 1168 0
1094 1055 432 0
1095 431 1202 0
1095 947 1167 0
1096 1034 1164 0
1096 1161 1162 0
1099 1143 703 0
1100 918 821 0
1101 245 911 0
1102 318 131 0
1103 706 1104 0
1104 434 1103 0
1104 706 1106 0
1105 197 1044 0
1105 1056 1106 0
1107 436 1044 0
1107 1060 1055 0
1107 1126 1060 0
1108 1050 1075 0
1111 1023 946 0
1112 1087 946 0
1113 442 1200 0
1113 939 1091 0
1114 450 1015 0
1114 684 450 0
1116 216 1147 0
1116 382 383 0
1118 525 528 0
1121 1074 1122 0
1121 1139 15 0
1122 426 425 0
1123 426 1150 0
1123 848 73 0
1124 199 1141 0
1124 439 199 0
1124 441 1125 0
1125 441 1126 0
1125 1058 439 0
1126 1107 20 0
1128 546 512 0
1130 51 134 0
1131 342 1176 0
1131 915 1166 0
1132 828 649 0
1133 380 384 0
1133 459 380 0
1135 173 404 0
1135 628 1136 0
1137 428 683 0
1138 1171 417 0
1139 1121 419 0
1140 73 1165 0
1141 709 440 0
1142 190 848 0
1142 1123 1150 0
1143 1099 1077 0
1144 766 1149 0
1145 532 1205 0
1147 216 1206 0
1147 981 829 0
1148 689 846 0
1149 266 1144 0
1152 782 968 0
1152 968 1153 0
1153 555 1152 0
1153 968 1163 0
1154 854 1155 0
1154 987 1207 0
1155 191 944 0
1155 944 1161 0
1156 1154 1207 0
1158 333 807 0
1159 1095 1167 0
1159 1162 1160 0
1161 1021 1162 0
1161 1096 1164 0
1162 1159 1007 0
1164 1034 1207 0
1165 848 694 0
1166 1189 1185 0
1168 988 1207 0
1169 482 238 0
1169 500 89 0
1170 163 1177 0
1170 1180 182 0
1171 1138 418 0
1173 558 1174 0
1175 727 461 0
1177 163 1178 0
1179 202 203 0
1179 203 1181 0
1180 1170 1179 0
1180 1181 682 0
1181 1180 1179 0
1182 203 447 0
1183 447 710 0
1184 63 81 0
1185 1195 975 0
1186 356 921 0
1187 415 1208 0
1188 907 1194 0
1189 1018 1195 0
1189 1166 915 0
1192 795 1194 0
1193 876 995 0
1195 1185 1189 0
1197 1066 1201 0
1197 1067 1198 0
1198 1046 257 0
1200 985 1113 0
1202 1053 430 0
1204 64 155 0
1206 725 865 0
1209 126 125 0

End
