MeshVersionFormatted 1

Dimension
2

Vertices
1196
0.0 0.0 1
1.0 0.0 1
1.0 1.0 1
0.0 1.0 1
0.5 0.0 1
1.0 0.5 1
0.5 1.0 1
0.0 0.5 1
0.0 0.75 1
0.25 1.0 1
0.5321361382977655 0.5150890607122449 0
0.36966768189530025 0.5962032772066199 0
0.6524940683351091 0.6041817764706753 0
0.7606956112662445 0.33534885996190583 0
0.7907218804577004 0.4617933928111006 0
1.0 0.25 1
1.0 0.375 1
0.9091743384662588 0.3556909733588477 0
0.7209075718947715 0.5403820056020545 0
0.5245069371051916 0.2446845830016602 0
0.555253650407095 0.37705738376294223 0
0.75 0.0 1
0.625 0.0 1
0.25 0.0 1
0.544688171627496 0.8499081190186188 0
0.75 1.0 1
0.625 1.0 1
0.4642567158273908 0.7564564306791562 0
0.375 1.0 1
0.18289295452731735 0.7090772408254327 0
0.125 1.0 1
0.20223258462510812 0.9299445912902942 0
0.0 0.25 1
0.3112311951077485 0.28288704756325067 0
0.07867419561853324 0.3999325118385115 0
0.0 0.375 1
0.1178146645690913 0.5024367679840888 0
0.19358969007802715 0.606034159260772 0
0.0 0.625 1
0.125 0.0 1
0.08099762739835314 0.13674339204168479 0
0.0 0.125 1
0.24254662466977206 0.1458828869748663 0
0.1832010397892644 0.06603137984652374 0
0.375 0.0 1
0.3487657376640778 0.13509797155608758 0
0.5718911484999986 0.06813454994158732 0
0.8361287124664081 0.1499422758132572 0
0.898521530747093 0.48268005093926125 0
1.0 0.125 1
0.875 0.0 1
0.11167887761359753 0.7663976722627781 0
1.0 0.75 1
0.870146944039765 0.710842688427373 0
1.0 0.625 1
0.9175430293027629 0.6155844515403556 0
0.8042377642470028 0.8474288282765827 0
0.9187639342511802 0.7967921613724666 0
1.0 0.875 1
0.6986764819991563 0.8829080839849944 0
0.875 1.0 1
0.8968361349601018 0.9297514680100536 0
0.0 0.875 1
0.5904842877105109 0.4806237474601447 0
0.7444088668907081 0.44331475300417794 0
1.0 0.43798039805271205 1
0.8245672645571447 0.34030787788137246 0
0.8465204948511829 0.41559987571952184 0
0.7019759317367712 0.4953352238155038 0
0.7772506838653772 0.5367819712162072 0
0.5461053068729311 0.44558751820402187 0
0.605602440933647 0.42473296238908165 0
0.5497666232746251 0.2906507626311682 0
0.7251179940591542 0.3014858112828463 0
0.5973528915517528 0.34391616452415014 0
0.5736957947491964 0.25412931953813156 0
0.6829109617828492 0.0 1
0.5622325528379376 0.0 1
0.4809423440478861 0.46151378459066206 0
0.4996922914075529 0.40550607905426517 0
0.40931253095711484 0.39670162240701157 0
0.4952401978871922 0.29152409225883436 0
0.4670334741038506 0.36540227780834006 0
0.4460786943148768 0.22388537822276294 0
0.34348617999371095 0.4318937794864717 0
0.5429909871529767 0.641565699237301 0
0.5464635744343307 0.5786662698590009 0
0.6104602277293981 0.6171436438978111 0
0.664401836378829 0.6616998044121685 0
0.5079944550487374 0.95910892551901 0
0.5647809198700446 1.0 1
0.687917685315937 1.0 1
0.3110435014006983 1.0 1
0.4388713895284889 1.0 1
0.41444649749531715 0.8239795467094057 0
0.36893304559044554 0.8680101330714027 0
0.27622941656360267 0.813534301984151 0
0.06983175988777375 0.9631347972655068 0
0.055287714603355465 1.0 1
0.1909148526775955 1.0 1
0.2648272361107701 0.9635168455583383 0
0.2589762702978659 0.9110649113800057 0
0.16357666541968502 0.889967998459646 0
0.3466524357355246 0.3260501964334002 0
0.3491688729535232 0.2410042169323133 0
0.029480624376984708 0.4463603650766287 0
0.1823843103274095 0.4046122102390819 0
0.0 0.3135253136303019 1
0.0 0.43543789119308257 1
0.10882169536773034 0.4657081538804419 0
0.050396185435559925 0.5180560025578327 0
0.1785254392590864 0.5188295602795165 0
0.18795635766205132 0.6522918351023931 0
0.23919854586909287 0.5589710416777155 0
0.028489802348541322 0.7017801916772812 0
0.13301490617914424 0.6665717225636956 0
0.0 0.5571852541059544 1
0.0 0.6877933549965732 1
0.09254582292593122 0.36347450826981553 0
0.18390514211221454 0.0 1
0.04150837326819566 0.19656874872599758 0
0.0 0.06119291942377182 1
0.0 0.18564518456305484 1
0.31756822539305607 0.16059199569014662 0
0.21217930604803314 0.2173026102823884 0
0.15605731506276727 0.04077618698114769 0
0.15630265727764187 0.11596886202056791 0
0.20457672672683527 0.09746480637691667 0
0.5172977461092273 0.045331237924304914 0
0.5057756408192944 0.19517849820868458 0
0.43533218184770195 0.16540204279451065 0
0.43662111595513864 0.0 1
0.31693472364128417 0.0 1
0.29407507616762135 0.12262019181366401 0
0.5552203801913174 0.20442228421426822 0
0.5527800295544193 0.13123809849514842 0
0.5866800448625736 0.11961664757778778 0
0.5471353553049321 0.07852756179412237 0
0.3002953483449845 0.5309080718096801 0
0.3605405901681833 0.5684465619020473 0
0.3018020175195646 0.5868167981394068 0
0.8578962822051305 0.521002465751026 0
0.8741138294724242 0.4294575873150203 0
1.0 0.18382622314956024 1
1.0 0.05761579082760253 1
0.9604052806039068 0.13603447852879558 0
0.9423842091723975 0.0 1
0.8215310976637543 0.0 1
0.8713123686540442 0.0436328516320989 0
0.03880319637604375 0.7583626972298795 0
0.12001236156893165 0.8341534623341536 0
0.9702624676669259 0.7418793695441065 0
0.7987990837269855 0.7185328081947524 0
1.0 0.6889399775315889 1
1.0 0.5595003385247096 1
0.9050039886952762 0.6444537232915658 0
0.754073051585813 0.6777321988544639 0
0.7506942922257811 0.5897227029227319 0
0.811179841624637 0.5960358349486992 0
0.8093487824315917 0.6687952817060979 0
0.7732554808666935 0.7947360399059074 0
0.9553448566796641 0.7678481786574956 0
1.0 0.9405193571424332 1
1.0 0.8164282892748687 1
0.7701035030660652 0.8522053843865401 0
0.7135716438913723 0.7783394716709839 0
0.6465481990346849 0.8303340612518593 0
0.6450115114779337 0.9248735663800054 0
0.8121856995623536 1.0 1
0.9400578758404352 1.0 1
0.9445177938650176 0.9265553536729004 0
0.8622805891874002 0.919828647638529 0
0.0 0.814969891618214 1
0.0 0.9431885952846392 1
0.06327359762284009 0.8807453121128972 0
0.42655788103707115 0.5775553482479775 0
0.6977845232222464 0.6545067741468769 0
0.707673513310089 0.7087229295321336 0
0.7313613131535448 0.6490362980388817 0
0.5668486241847915 0.5384083099291918 0
0.5868137738813328 0.5770688842694486 0
0.6277775165687791 0.5763683074601202 0
0.6186515985881934 0.4765107973873926 0
0.5671010864571842 0.49727085287768175 0
0.5983464709606132 0.5075564865535811 0
0.7416211247265638 0.3552289670481159 0
0.6904265108421059 0.43222739857694975 0
0.7859217092529536 0.43167644296230623 0
0.7673596897862871 0.36516593060816266 0
0.7409543757027871 0.38770889202802317 0
0.7250948776440849 0.42231479058149973 0
0.7657990319668199 0.45201553807900907 0
0.72015487618353 0.4527228458657203 0
0.8174064488685557 0.5313076044182945 0
0.7961386287492594 0.48582276539553315 0
1.0 0.34354042972407867 1
1.0 0.2810416715871948 1
0.8640079883589667 0.35358207717703816 0
0.7899902523897108 0.3414377729379598 0
0.8012764492471128 0.3758614029808553 0
0.9584777688652205 0.35583342755913655 0
0.8714390118946349 0.4604520545629448 0
0.8201529854048237 0.4427666052367092 0
0.8808655187324125 0.3924861889645311 0
0.8386172059932717 0.37943999930422645 0
0.7278440100391484 0.5123297180342992 0
0.721940772172411 0.4768187475568186 0
0.6897261858099586 0.4727156913987819 0
0.6986715727546683 0.5609348404321068 0
0.6971714357993146 0.5223708615441804 0
0.7483789281101918 0.5380033925981377 0
0.5521949904273852 0.4159523955915859 0
0.5390562817694416 0.47719589939346996 0
0.5676411729856181 0.46375962561599854 0
0.5997302466284072 0.4549237168664226 0
0.5823519415640483 0.40198524256492135 0
0.5321209103588406 0.26963482860691373 0
0.49287953810345964 0.3142663737968899 0
0.5509168926797061 0.34476640957098653 0
0.7098114450825366 0.3590658631138388 0
0.590695587812965 0.3727204019945301 0
0.6121213418583786 0.3926522269681896 0
0.5702716838009303 0.33013039044448206 0
0.547821804763204 0.24831155931822996 0
0.5551052252662284 0.26772560081765034 0
0.5959601612238699 0.2739719607488256 0
0.6529691164356979 0.0 1
0.5935488408724353 0.0 1
0.5644852530156793 0.029553895419829383 0
0.6421076990452668 0.03214904450346008 0
0.5058412966800346 0.48804420730095505 0
0.5132427744716226 0.45373641034489365 0
0.5204298022527387 0.4237024843388768 0
0.46232378377924166 0.4387436236839196 0
0.5244585401476007 0.3947263896477822 0
0.43923175453165736 0.41629887505280594 0
0.5021139531353828 0.26862548509140294 0
0.4364223935848008 0.3233773179999173 0
0.4085460653510083 0.3633142488786252 0
0.47095165903118014 0.40185964585333683 0
0.46367228496656504 0.32867368222339216 0
0.4389822411464888 0.3812889263432941 0
0.49511260678530405 0.2389895432802812 0
0.4258299948236537 0.21701790293752748 0
0.47539276928384994 0.255842409523606 0
0.2740901465964207 0.5036502050396912 0
0.33852916989163084 0.5500752469680043 0
0.39537081949844527 0.569908045507713 0
0.41999220500661566 0.5375386338526988 0
0.3767931323412529 0.37578205323652175 0
0.3722143487386537 0.4569285025119341 0
0.3748933584516448 0.41370033118680216 0
0.43166790756040835 0.4440880039851998 0
0.4117542952825734 0.46643170616486496 0
0.5529899368358069 0.6717295193920535 0
0.5290318720971346 0.5461544628905725 0
0.5647011383686791 0.6123920933884024 0
0.5836898410046665 0.6871628786405879 0
0.6149343014269109 0.7097292749908901 0
0.6746140301752453 0.6296497364232967 0
0.6471235860571779 0.6360500314257256 0
0.6521032488293892 0.6986789702892038 0
0.6875717783039716 0.6878061491509243 0
0.5770415790894898 0.926088899134007 0
0.5330032691909058 1.0 1
0.5508488133364604 0.9626308207867097 0
0.6778122438355098 0.9568737759807645 0
0.5477809712156754 0.7056742858950039 0
0.3932606903580745 0.7528358019197926 0
0.28017435151201103 1.0 1
0.3426404062301831 1.0 1
0.31286980951835053 0.9428651094614139 0
0.5079588672748059 0.8460513663566168 0
0.39974465727815783 0.9687418629622143 0
0.3806437217865157 0.796770621094275 0
0.417474556361647 0.7837524132087499 0
0.37424573206444345 0.8330354880842605 0
0.33478978057261166 0.7953243837079341 0
0.29953613580413496 0.7567558429857835 0
0.3246075832380818 0.638601073902817 0
0.3401979704403531 0.6509203282496069 0
0.31554925639570214 0.6850052879926558 0
0.03341598418849712 0.9680908408231501 0
0.10860506278362565 0.9645501874931682 0
0.08789373508803199 1.0 1
0.15890766097078382 1.0 1
0.22239754466334058 0.9648741276507272 0
0.13026998226994904 0.9338727846790019 0
0.24136842533256975 0.935614286640405 0
0.2786020391791357 0.8832928075365141 0
0.2626148708782073 0.8644941409296726 0
0.1487275924773926 0.9118063956317667 0
0.17308658527221263 0.9136236144625539 0
0.3794696244039389 0.3387047534515025 0
0.3329492350991258 0.2608929074126087 0
0.34627067399515005 0.29126619402326565 0
0.36217019545385726 0.22368718811143642 0
0.22139191223990332 0.25354429910605203 0
0.24009414701045356 0.42466441733522914 0
0.27063904928519367 0.4730505657975193 0
0.22216537243001228 0.35492850533468057 0
0.20659297520416925 0.28912022087739453 0
0.23564678874458592 0.32029000320978157 0
0.2801593719464115 0.3103497143178527 0
0.2623439724075916 0.35829496449858883 0
0.319378638300505 0.3137105495992371 0
0.22387546059340463 0.3902765987300527 0
0.18959838363756198 0.36741657526121835 0
0.11752884901773279 0.3888383078466401 0
0.20869665877892674 0.430462326305049 0
0.034191902373848324 0.3044031475751507 0
0.0 0.4671686924156932 1
0.03717049246501915 0.41247925589016365 0
0.14321132044568363 0.4136750249243576 0
0.10862255186703303 0.4266520025990454 0
0.0662489608048066 0.4452297290175848 0
0.03912393350593003 0.4748275483134679 0
0.0877127084291501 0.5158971087837664 0
0.15454903100940448 0.5033987097308477 0
0.21449042852634284 0.659641099332597 0
0.22492476161136582 0.6168875432888746 0
0.1466413170595405 0.5357184898107079 0
0.18118269952021726 0.5775220576202988 0
0.18337045338677674 0.5536174496338708 0
0.21501617689229313 0.5319815783636588 0
0.20913570058484987 0.5746240486857171 0
0.24385967573237136 0.5898592795631556 0
0.06079955835066664 0.6513371384268387 0
0.027028091519673225 0.7358255901044096 0
0.11035701855240965 0.5376199681486625 0
0.0788860381952427 0.544084603806654 0
0.15698989591608836 0.6862288301123283 0
0.0 0.5895256904725505 1
0.02740683408486394 0.5396332558425525 0
0.0 0.6564707067268121 1
0.0 0.7189693298072922 1
0.05345933310503733 0.618810712799507 0
0.14952862701081251 0.28959401481357794 0
0.1194832584640461 0.2907485097633376 0
0.07495012080242762 0.2936711480220195 0
0.05037075241309932 0.36949779896722984 0
0.21594669958395757 0.0 1
0.08884361293454922 0.0 1
0.02513682432871894 0.22853113041747547 0
0.11266701908122438 0.04413425429737338 0
0.06281497601271531 0.05142534575676642 0
0.14500023545724236 0.08038157748481847 0
0.1901473175461302 0.16361519556363138 0
0.11605068905797229 0.16466362848203742 0
0.140854255592009 0.25432809455583133 0
0.04220435188213878 0.15399121249918268 0
0.339315186078999 0.21481117936772073 0
0.22142327928123684 0.06539817516947717 0
0.23630871803283882 0.11418484030732125 0
0.17359186338226618 0.09935915228452408 0
0.49558371012477415 0.05692264035299898 0
0.5423524488464554 0.050677881449837085 0
0.49633262004800255 0.026293557786168 0
0.5141585907715219 0.21931892562043295 0
0.5016953940483487 0.1681893613478923 0
0.4294627365219248 0.18944736109428223 0
0.3767306247191485 0.13420505538070204 0
0.4680846029551483 0.0 1
0.2847404846495806 0.0 1
0.3227272557785978 0.12147799746877021 0
0.3069963893353782 0.14061442003123256 0
0.3468846275986418 0.07179403880234898 0
0.36424622733918943 0.15538590331252006 0
0.3416597999562592 0.16114845162716418 0
0.5394583757769145 0.22520666640844147 0
0.5641642305388606 0.2282562105367777 0
0.5672072935916364 0.18590921951367687 0
0.529966794413602 0.2028432854205743 0
0.5140277436989221 0.1314409518200413 0
0.5245132738692411 0.18099992858265038 0
0.5600573554650066 0.16407960078538936 0
0.5829984460520291 0.1474976156409985 0
0.5306849165295967 0.10100111306854 0
0.563311673089899 0.09815662811700243 0
0.2544542336865257 0.5320724120187199 0
0.30922511718831724 0.6153304708769465 0
0.3331309455416975 0.5855649477450653 0
0.31002074383054806 0.5669623745161413 0
0.8315219327334673 0.09697574488341078 0
0.8954369601338973 0.1767984385037129 0
0.7761941011030133 0.31858447669260276 0
0.8005538125879234 0.31509572360781196 0
0.8508550283897824 0.31254900754097115 0
0.9595053061616364 0.22714839507289442 0
0.8377346487558395 0.18758269395144453 0
0.9247344051086149 0.39180575393429173 0
0.38451751933549 0.6248961369401371 0
0.5237224787067475 0.6762767773417544 0
0.509188212911077 0.7075522104924751 0
0.9634976719088815 0.09730427693873367 0
0.9177119283553162 0.13672842067228605 0
0.9371615144521167 0.1803895696429663 0
0.7887369303858865 0.0 1
0.8078194913921741 0.02873092968906043 0
0.8315113156824546 0.06039242067047515 0
0.8631849983832108 0.07997439679806545 0
0.9047336106935591 0.03521715898468651 0
0.8919944712162955 0.10792141214060805 0
0.023182563351336297 0.7616281545344576 0
0.163756920408613 0.7324038824313264 0
0.1320920086085542 0.7543210728099788 0
0.1909581288800284 0.744786864200347 0
0.13668151183850596 0.8858406643829816 0
0.11554600936593569 0.8097752097623694 0
0.9197422536214771 0.7143804503762626 0
0.9344870537261972 0.7732019455680441 0
1.0 0.7198136322625892 1
1.0 0.6573468117613984 1
0.977205082135142 0.7130192901407811 0
1.0 0.5914260834462851 1
1.0 0.5290701061379351 1
0.8722932995043863 0.5792761196861299 0
0.8835794174396344 0.547488728410633 0
0.8506038864583113 0.555767471570356 0
0.9732839075643869 0.608084569018168 0
0.944600798549822 0.5924272439677952 0
0.9478447118851927 0.6296263732033025 0
0.888868564993592 0.672641627765786 0
0.7629774938512588 0.6386699749655175 0
0.7365553628954883 0.7062835395251112 0
0.7689154622115448 0.7078466713163969 0
0.7343990896491462 0.564872426094113 0
0.7650403226731299 0.6117736646211638 0
0.763482721645999 0.5637619186136088 0
0.7792646617797759 0.5911243955294484 0
0.8262814005536238 0.567111031654063 0
0.7864477678500049 0.6177361512052756 0
0.8423083095043569 0.587021486407283 0
0.8368423816360996 0.677737247889738 0
0.7965374688970323 0.6459900387303074 0
0.79006085420518 0.6905601129334865 0
0.7743720739732083 0.9572849647345238 0
0.9546963410121003 0.7949291183061311 0
0.8777433498699821 0.7335886806626755 0
0.9599637746868717 0.9663378945741999 0
1.0 0.7843245985701988 1
0.9806485041881783 0.7991055645575061 0
0.7353887248191749 0.8589549021532522 0
0.7950872207717968 0.8795281599457602 0
0.7843230885299177 0.8245588167073072 0
0.7452164696448709 0.7910139964437045 0
0.6862218321709386 0.8415966277724635 0
0.743188165377477 0.7591692903115459 0
0.6441515452319421 0.7424805469422429 0
0.6102752477835068 0.7405960952358093 0
0.6096304903543796 0.8161666040737885 0
0.5974747166183862 0.9611528666263397 0
0.5645860817148883 0.8896990444169399 0
0.5842971221180594 0.8519925536595444 0
0.6560939312954084 0.8795083888240904 0
0.8500749674884809 0.8538121661783586 0
0.0 0.7831524396361138 1
0.0 0.9107904053730337 1
0.024888209013756435 0.8876190900013963 0
0.10624287377372701 0.8843068767915939 0
0.09533699747006422 0.8539111162970127 0
0.4043127950462148 0.6023748896272461 0
0.49337962315790507 0.5254709697121512 0
0.6816150125227615 0.721198522170868 0
0.7189117436480864 0.6815097535218806 0
0.7384440386544313 0.6160776348519196 0
0.6102329565829071 0.5431596647567732 0
0.7552091574196675 0.4230938587136812 0
0.7768528111828339 0.3988708107846436 0
0.8441648330117122 0.467554542961316 0
0.8510393980929316 0.4443935458904435 0
0.6551102978159943 0.47904506746215053 0
0.7892734158363941 0.5072945237698662 0
0.6329222506443457 0.44694081796918383 0
0.5199006621803159 0.2959655990150392 0
0.521746551842181 0.3293210939971136 0
0.6922018575986495 0.23909309620436675 0
0.7294393510163282 0.32806625585251026 0
0.7007169114572491 0.3966547438729886 0
0.6419737963095693 0.3828026323106823 0
0.6465417221306415 0.2966828259862324 0
0.6181234141628755 0.3616099206957506 0
0.595513265020885 0.3156110954429838 0
0.6138762208941418 0.29711666609720805 0
0.6273598646481016 0.26705051036522626 0
0.6643338661025 0.17961878099933584 0
0.6352994615208966 0.1971678417067539 0
0.655787936266891 0.2713961438762563 0
0.6047423611125096 0.04027214256159393 0
0.5865903628796367 0.09083162846086996 0
0.6616556742904522 0.08603080461635043 0
0.6662154797889587 0.056486982714924965 0
0.676780342293677 0.1145086712877215 0
0.6928923790967632 0.08169261860364417 0
0.46876810157972404 0.4930152733569856 0
0.4922304982466306 0.43005647314412115 0
0.49166775674639174 0.3463276774394394 0
0.4390178536109291 0.348349829558824 0
0.4681074060989295 0.23154379461830024 0
0.4449393663736003 0.2047714583502812 0
0.40580453853943044 0.1975151363351197 0
0.4525462022663511 0.2468360933341278 0
0.4791942489668208 0.2782725044570386 0
0.3423780769117115 0.5014795258291628 0
0.3735744365456466 0.5352289028517538 0
0.2656672990438736 0.40370255881967626 0
0.32597247522682077 0.4595341928951091 0
0.40580586213781533 0.4315402995543755 0
0.5797462582404849 0.6488699461539376 0
0.48499925250817155 0.8731920468773214 0
0.7218490278157299 0.9602134440276474 0
0.48197515036448324 0.742981233304977 0
0.48344820360563245 0.7691416969756769 0
0.32782114052715994 0.9704462239684286 0
0.29813994290689605 0.9718644856932876 0
0.28583981558010596 0.9450791574372288 0
0.5092924983585444 0.8113052621182922 0
0.38443176472058255 0.7744937215979257 0
0.3979703367398196 0.8091078931187821 0
0.4064316265823357 0.8491179630163429 0
0.459278464425734 0.8983354000954233 0
0.4023659958843025 0.7903203401460297 0
0.425450987275815 0.7692497433898698 0
0.4178012241789953 0.8029354463476638 0
0.33712523295782204 0.8155508110033831 0
0.3644688305546422 0.7810794676579871 0
0.3343201613172886 0.7533709214857802 0
0.31604370523129954 0.829122585550602 0
0.30259547926069275 0.8685190474807036 0
0.3921970200550765 0.8307165840761196 0
0.3578891495291417 0.8258419713691162 0
0.39778306056097856 0.908409663676993 0
0.4272334559959882 0.8884367047361131 0
0.3960861208084665 0.8735769403390808 0
0.3823022133521432 0.8498430998511498 0
0.37405882327304557 0.8894579620614107 0
0.37982975245824935 0.9382898017688848 0
0.3004339192720277 0.8102527346143638 0
0.2907581991108584 0.8330392055164928 0
0.3205248276366716 0.8092738535864794 0
0.3279347308992496 0.7740792584276183 0
0.34639326556447964 0.7839175395803136 0
0.2852195393104212 0.7660574202734023 0
0.3163848071793217 0.7568595386421327 0
0.1941890945339835 0.7190678766401539 0
0.20408180310170929 0.7008085054903602 0
0.22867857274148934 0.7042087847611771 0
0.29994245300397787 0.6436302778690535 0
0.3468008870973048 0.6236025985282441 0
0.36092283811059084 0.7382694154199075 0
0.33774587923874255 0.6724788895942595 0
0.29407063096776187 0.6662437411451622 0
0.33235415990021555 0.722347266993911 0
0.34064204580175445 0.7383267384679457 0
0.3225818447618843 0.7374056195603409 0
0.1811266655297646 0.9667352940928277 0
0.12204828659101861 0.9084372142052074 0
0.28230307183939407 0.8534734494683616 0
0.24792064596022248 0.8809990080220209 0
0.40782417884802585 0.28093378294817634 0
0.4139357299884491 0.3314216775154038 0
0.3709026800041172 0.3106289301293073 0
0.2833683433752598 0.27020208990680766 0
0.3015192884711854 0.4886471240788981 0
0.2685933406297444 0.4399257420431915 0
0.24912839351651136 0.28312711076676883 0
0.19763052075493284 0.3313423560894656 0
0.12517012555063672 0.3607420853100862 0
0.23908894601095426 0.45521299679083355 0
0.031313065950803604 0.3376340627683764 0
0.16996558397302933 0.4472851813166893 0
0.07761813009072202 0.4867701560241791 0
0.18612243069480547 0.6922410939555664 0
0.19979177549397112 0.6767873257231999 0
0.22969081426296134 0.643691110680661 0
0.25020137443211604 0.6546356050440106 0
0.27618154010447893 0.6494031215230938 0
0.16536427007036492 0.6202476767639832 0
0.07824754588096672 0.6254228401729505 0
0.029426938713551367 0.6703031166864806 0
0.028474266202773813 0.6387186769697869 0
0.09921745285651755 0.5604866955381115 0
0.15821345541833445 0.5692426768575765 0
0.1391150032179577 0.6846317205335463 0
0.16910110247705262 0.6963408236757123 0
0.17380581884433075 0.6745661367255371 0
0.15217159779999537 0.668679877486425 0
0.1655296948110179 0.646302346150173 0
0.09432677800238834 0.6428041057828634 0
0.11113397547804485 0.7382412191491254 0
0.1271996402002316 0.7011248856242479 0
0.027283354110676807 0.6061072745729384 0
0.17472881059726947 0.27571024831717733 0
0.15546774942790972 0.3396109505965005 0
0.18262346898130297 0.2404791066617526 0
0.18408896596596 0.2020052366178369 0
0.14980024615195606 0.18423847031042304 0
0.15445852810566885 0.14715931348910552 0
0.12343364589921184 0.1213172083285869 0
0.0462399383610504 0.10467500195988368 0
0.3215664967256665 0.23337014212438215 0
0.3352351834145354 0.18674116284035402 0
0.26902337248936675 0.16135232325369253 0
0.2955557566388857 0.16147331811379095 0
0.35749148150490284 0.2011526096087722 0
0.36468657677172606 0.17941364128419213 0
0.26563479124026873 0.13165392717005367 0
0.24903155515659264 0.06224554950758295 0
0.31412714886105564 0.09584430626433903 0
0.23475165122100058 0.03487981625335883 0
0.25615600329553523 0.24702394610940487 0
0.21514310926215663 0.18516636140245787 0
0.49732348704008145 0.08846822730629614 0
0.5217961895570407 0.06939450751689628 0
0.5306329175662716 0.02215694064439615 0
0.48336197284693283 0.1472911645364404 0
0.48864168013409387 0.2141403189688876 0
0.48110453137911247 0.1923113912641075 0
0.46345666259712476 0.20899519732849392 0
0.4778246532213301 0.16891453856379968 0
0.4569073671111139 0.18455493825476302 0
0.3849680314220309 0.163825827448081 0
0.47134612519163877 0.041415950734478485 0
0.2857845410471987 0.14399629675042283 0
0.3400684391609725 0.03302616760091027 0
0.3882980783058285 0.18435785801280677 0
0.6591018546110012 0.15882764915782185 0
0.679810459484613 0.1690395453879163 0
0.5826599710014289 0.20622271930955402 0
0.5447459789097107 0.18138123171089646 0
0.5332631973220027 0.16049250891145211 0
0.6088270247706442 0.15425337730315586 0
0.27642399634674714 0.5665561649281541 0
0.28448677528409877 0.6251225135476698 0
0.8071008456693056 0.08192026928187601 0
0.8276303222420849 0.12436907402798676 0
0.7956554029031802 0.0607145256368913 0
0.7727889366871744 0.029433787594425918 0
0.7328805542780981 0.034441997543874475 0
0.8655481290060032 0.17406651752661867 0
0.8288901758671049 0.27797127169946756 0
0.7535041536695346 0.305051179079622 0
0.919242274640046 0.2121078334179003 0
0.8702806708780706 0.27955756810284044 0
0.6776687012783984 0.21179334783064716 0
0.7793424670925501 0.16141190448633505 0
0.854062064079317 0.24466152767512103 0
0.8126605500049455 0.20305224685407 0
0.8667542942727358 0.4905518380308786 0
0.9302369250607351 0.5029929825761594 0
0.9453394539891113 0.5312771330179823 0
0.9433111924198888 0.5547478526731505 0
0.9627636977118383 0.47517771001734926 0
0.9640231503575137 0.3987208806394552 0
0.9027606884617199 0.45025968597454613 0
0.3920407925337296 0.7092171567060567 0
0.37315291240980547 0.7191715935538128 0
0.4133955416279072 0.7512329547000819 0
0.4149978526076791 0.7083043947624574 0
0.3671190450554328 0.6465599797735551 0
0.4913291019335241 0.6816301239738949 0
0.4416398700606613 0.6737241286544875 0
0.49797197089840123 0.7285381092211468 0
0.8424436439089783 0.027638908952602233 0
0.856713698139237 0.1207573574283654 0
0.9504430018767257 0.047380593312240156 0
0.9328189878517384 0.09906305305294341 0
0.9024380029413896 0.06742292985437522 0
0.1525712957093783 0.7458792992221952 0
0.19832320903173878 0.7314440336004913 0
0.17267915803715908 0.7454726698908455 0
0.196646618446003 0.857882541226072 0
0.12667262843808907 0.8597102397758138 0
0.11405635709450519 0.7875295295686369 0
0.09236646298788052 0.7772331325021571 0
0.9067440578827853 0.6943767260935876 0
0.8941256906530771 0.7131586680849827 0
0.903420327031211 0.7366261570621374 0
0.9092458888078118 0.7643087179295565 0
0.8540082191093905 0.7299913830205516 0
0.8265884037933161 0.7261287025029913 0
0.9500562041592179 0.7156186898057189 0
0.970466398361116 0.5757896303747201 0
0.9315159910249707 0.6456782627234013 0
0.8572092152266236 0.6364100324008962 0
0.7962712919710608 0.5641708443023157 0
0.864667387296601 0.6097231255086697 0
0.8632413114618488 0.6870346848548378 0
0.8169629969583951 0.6969912196403013 0
0.7825477840740966 0.6686345545846901 0
0.8256070833332716 0.9015340843630741 0
0.8276645462502109 0.8680675075757212 0
0.7650567807837404 0.7742440263880546 0
0.7478059589591007 0.7343103287908597 0
0.8301414497489082 0.8374842301833639 0
0.7729096988373365 0.7475891419580218 0
0.7904682285066196 0.7718099861663295 0
0.8808905386461667 0.7877091578210127 0
0.9138974842839991 0.9657229318270728 0
0.9763816352216806 0.7724767389334023 0
0.7615225107833556 0.8889179440449855 0
0.7160489090601206 0.7372734965441057 0
0.6785504202638549 0.7978930907427297 0
0.5589164151666807 0.7782152381630016 0
0.5304318809452732 0.8240986940568159 0
0.5821467178847555 0.7241563922427259 0
0.6390977113539966 0.7973391364180339 0
0.608720783487642 0.8928658721448125 0
0.7887148438337186 0.9165754307772764 0
0.8785820156362805 0.8537716677135608 0
0.8972848856196456 0.8912857036174199 0
0.9118123086363591 0.8605808224990736 0
0.9730112343273372 0.8263905056671377 0
0.03872383169338146 0.7782829641947187 0
0.04117557462290682 0.9255823966402309 0
0.4097758113094887 0.6331310310188046 0
0.45860055284379747 0.5538219748385039 0
0.7084058971627166 0.6227590810961906 0
0.8130848184929611 0.40790639290463715 0
0.9333761210441162 0.3104641816471552 0
0.8111498155441954 0.49942210424591577 0
0.8357875045639525 0.4977529066438003 0
0.817068726436035 0.47552796844248735 0
0.5741406513300797 0.433791993111508 0
0.5240028334541875 0.3625347723726115 0
0.7351722634133855 0.27737894417361153 0
0.7629507152031226 0.2727898409857831 0
0.781685448115689 0.2953410014297946 0
0.8043617464601616 0.2945832320422461 0
0.7423401050299139 0.2440654639712284 0
0.667557126986242 0.23469239375573792 0
0.7151157328749148 0.254054055276459 0
0.7145492344285427 0.27935680120797934 0
0.7007467453816035 0.324949160777634 0
0.6708744785097187 0.4018870900330188 0
0.625405059620681 0.3256973160026444 0
0.57197092967194 0.3043768874708436 0
0.7021821475470991 0.1576072255544702 0
0.6566299957523414 0.1982861232078705 0
0.6197886960185962 0.1764937091272406 0
0.6489573760288188 0.22055944674102274 0
0.6022830272994031 0.07097230074653116 0
0.6167691962439562 0.1299250386305652 0
0.6764910762550567 0.14501473434269913 0
0.7009986070992738 0.021270950434617367 0
0.6720124458997258 0.027482935433045187 0
0.4480279314716382 0.4659587015054801 0
0.4975042283065974 0.3796063499097534 0
0.3823269239744274 0.20769114569201172 0
0.4720427469875996 0.29765559353890636 0
0.4552792218501639 0.5215929577454553 0
0.392447551558195 0.49844596957355963 0
0.6219615441465668 0.6648480404668308 0
0.521383005266798 0.8833096671215234 0
0.4978739422630578 0.9110382767739253 0
0.43303981460522095 0.922187117781654 0
0.4697640239472722 0.9704137878106119 0
0.730926819304529 0.8942208199315852 0
0.6356766827607054 0.9594676283732219 0
0.6111360855507427 0.9323598063109049 0
0.438181019823828 0.7508432059849349 0
0.36283522596791695 0.9690307192071177 0
0.30551596672158177 0.8902206008186158 0
0.2690092305057848 0.9322850319634656 0
0.29135786913209744 0.9173993676111536 0
0.4749590791595182 0.8474285004152918 0
0.44942895661776866 0.8619550038732405 0
0.40600030849162894 0.770071513385225 0
0.3569284823647978 0.8010139351249379 0
0.3700465645949978 0.7576435515436462 0
0.3467332169434285 0.7659973806325443 0
0.35167816051136547 0.8859280604686466 0
0.3437638311830803 0.9407112315000441 0
0.32846858631820863 0.9101711173966416 0
0.3631741174684176 0.9117828108054848 0
0.304089652210257 0.7708525878520636 0
0.2881744238337685 0.7898831305511448 0
0.275771686363305 0.7777439823752943 0
0.2701358784568989 0.7601656713330034 0
0.21430299167077033 0.7220890295556438 0
0.2369802202557435 0.7230235115208605 0
0.24737205961802095 0.7391920571946641 0
0.3518220981350189 0.7510982772817169 0
0.31911972797746535 0.6590808403046957 0
0.2702694555602944 0.6728937885101108 0
0.3385077401261762 0.6933746811511983 0
0.30218715623925996 0.7388937346072791 0
0.14506985442178086 0.9667410416405611 0
0.2761939836411405 0.8350364495102245 0
0.16379148724346082 0.9368514193134697 0
0.3502298483355216 0.3566107263044109 0
0.42832702218607827 0.26001485886424947 0
0.420937347267626 0.30552848555362966 0
0.3957934416350356 0.3085102769193939 0
0.41050810951786404 0.24077239589415228 0
0.379104620871934 0.2854508886905304 0
0.3054518930318992 0.4240610866524862 0
0.29676103054895114 0.38602372983821415 0
0.1084313486792815 0.32672708142182555 0
0.23781569039490685 0.4953177036997583 0
0.06355291563742195 0.32999357539700774 0
0.14410048026602498 0.4733207871349077 0
0.1761761696203358 0.48633947272677575 0
0.20425415168833794 0.4690663799141292 0
0.2204936017092775 0.679167216349641 0
0.20584329794321465 0.634266582545303 0
0.2326601584582771 0.6647851063228473 0
0.1832396580665329 0.6312149276294148 0
0.2547717507634757 0.6267189749447694 0
0.2797199113533203 0.6022021606766464 0
0.10560023370665175 0.5877921510857734 0
0.12671032665282086 0.5644496162631795 0
0.16623141436357422 0.7164995234716471 0
0.09206277367416034 0.7532088154787502 0
0.14909042957715785 0.7040719875291341 0
0.14938637384169876 0.7261147280781421 0
0.13104443725963186 0.7193946728547362 0
0.027399916103521355 0.5724181637289334 0
0.05323260173698205 0.5572227151453372 0
0.15159066583723496 0.37972986847516127 0
0.13872945722956945 0.3107994153996932 0
0.16898506339072314 0.30771323078896107 0
0.07868226722416376 0.17729254898957095 0
0.11387250708534463 0.21051748487490005 0
0.1549692648548207 0.21746496076199373 0
0.09605113805772962 0.08929191902091035 0
0.30836112870300186 0.2569499362714181 0
0.3045862314489818 0.18208116609214559 0
0.23741839817735264 0.0851033864969582 0
0.26853161091731764 0.09486913501471446 0
0.26694070769750133 0.030355087207397238 0
0.2001773327551421 0.0348055366136529 0
0.24082651866924193 0.20387836374188817 0
0.2397026027142409 0.22705553049112034 0
0.21348983909028377 0.1371186483622812 0
0.45942945635832516 0.1548418077798675 0
0.4883817396522899 0.11778710628095215 0
0.4085438515100063 0.1741873668205122 0
0.37067170495314083 0.10686314268160871 0
0.4379785095384324 0.14208639285912758 0
0.4094828071820844 0.14538815949222605 0
0.37889741529785737 0.04130591495293537 0
0.28444032969489813 0.06064397712456377 0
0.3072602965200914 0.03079750447146513 0
0.32826666727840464 0.14595086969169985 0
0.6460780061304062 0.17887228236850541 0
0.5913774242943952 0.17674310682574046 0
0.6106887026556657 0.19844698341604655 0
0.5849729835666219 0.23150531996141066 0
0.7235095841687542 0.073555178734318 0
0.8222301193453841 0.30720369818864607 0
0.8713474044435996 0.2052424050987049 0
0.9666726151709578 0.3146065177345854 0
0.676891051636833 0.19092772885817932 0
0.7307434762629725 0.16140205437397115 0
0.8398387052812304 0.2172772248187306 0
0.809906251369883 0.17013650605483255 0
0.7837289982157566 0.19018194832360402 0
0.8927189677091981 0.515117629810166 0
0.9688092964586374 0.5147385192064737 0
0.9105920776367498 0.575894362810322 0
0.9715139761478846 0.5449429750279533 0
0.9432726285357225 0.4334652606724217 0
0.35117407995796773 0.7218800235103937 0
0.3981059119815276 0.7326976157632029 0
0.4624912694277757 0.6860947344310051 0
0.501458697722996 0.6417550369987566 0
0.5004555007905841 0.57386824318193 0
0.5220382028430894 0.6075016860846362 0
0.42322357484189055 0.687275238638862 0
0.4775686986093229 0.7135083217888368 0
0.44238325363529296 0.7054875004274632 0
0.051606627183630606 0.7435319982831428 0
0.09212232965797645 0.7263432460869966 0
0.05449342662432712 0.718090516917116 0
0.1814289987454362 0.7279805502736802 0
0.22859004657073315 0.7386695467390461 0
0.22633121635240933 0.9024131647978606 0
0.2211482275034088 0.8724666395929848 0
0.19432158063723154 0.8916534675709816 0
0.17451602038834368 0.869680764553264 0
0.19159878843282319 0.8114572735565746 0
0.14863502299834555 0.7647828559234191 0
0.09284753044767798 0.8201015790876797 0
0.9379901644054588 0.692504721490943 0
0.8855614763238323 0.6959604409236013 0
0.9348962404555246 0.7448819385785772 0
0.8444681278273565 0.7041824858404159 0
0.971484993450652 0.6393809556358163 0
0.9692510095800594 0.6907055479428721 0
0.8194572204612953 0.6482946328790187 0
0.877399825008268 0.6474631416379548 0
0.8856691937283746 0.6241543751874072 0
0.8129811761520045 0.6254670984486392 0
0.6859032745055654 0.5973849820814572 0
0.8605959119311828 0.6631189693962478 0
0.8712687970939841 0.9585530166217475 0
0.8077388307402471 0.8247251929649778 0
0.8583129167131711 0.8219012886788641 0
0.8851814002759427 0.7575525875096655 0
0.7178269252590368 0.8145473264719741 0
0.7544425475449423 0.8223718361349697 0
0.6790229025833195 0.7615439827910896 0
0.6191202038431987 0.7746863744968945 0
0.5547266414984036 0.742652594796286 0
0.621848212274619 0.8547900780916863 0
0.8998313480137142 0.8275792180571954 0
0.06331029424787879 0.7646317114986984 0
0.026942478885875733 0.8502809482246299 0
0.09129208309470098 0.9226681370600844 0
0.43441549025116827 0.615938304132155 0
0.6375692279533759 0.5143448012254678 0
0.6761201673011116 0.5055324898404147 0
0.8889031528244675 0.31476094036359564 0
0.916393870058069 0.2731429355577098 0
0.9221124736390128 0.2519570530285789 0
0.7440552708556039 0.46770271071259145 0
0.7605823690514346 0.5121447967213837 0
0.7320133338110916 0.21802895084102056 0
0.6722331119288175 0.25895026013655753 0
0.6966949265426416 0.2949810763288994 0
0.6925769234579506 0.2685184873648341 0
0.6742113609962626 0.310549704133299 0
0.6484220468087222 0.34910928296368426 0
0.5904576873674077 0.294244844722589 0
0.5727970829012986 0.28133194898845787 0
0.6979317427894777 0.18563530486546787 0
0.6499508281650338 0.24806960173869205 0
0.6323877542402039 0.07114316882264589 0
0.6115802503408033 0.0984105611599556 0
0.6515075149036365 0.13429460152126413 0
0.6976056732979151 0.05028843551581734 0
0.6997422377715377 0.13451673327481342 0
0.759131418380846 0.06306877389865509 0
0.29391026478644144 0.4572950482431245 0
0.535460845378693 0.922936347112858 0
0.4087815834781037 0.938208248279419 0
0.746654394570038 0.9247492443790006 0
0.7071917229295653 0.9221266033072655 0
0.32475157818295847 0.8788234429756442 0
0.48060276918850287 0.8243842581279384 0
0.4218985307963133 0.8613576863547362 0
0.46170630722462624 0.7778366950095658 0
0.37659868394242374 0.816039154933518 0
0.34490304876695377 0.8638109005678124 0
0.3396929830303394 0.8390304974666938 0
0.36082462515835295 0.8461826791159353 0
0.31311231262243516 0.7924997257093126 0
0.2539241448374845 0.7547445617028743 0
0.3406407183464533 0.7099065568838774 0
0.304247104343047 0.7071956733780808 0
0.28594116019156907 0.7501067424621214 0
0.33821502595400355 0.39208346107655034 0
0.4549055836721924 0.2745451387538981 0
0.43350364615866893 0.2376137632356652 0
0.44665419452315996 0.30189221323267 0
0.42977274835929963 0.28554096415404195 0
0.38265155137098006 0.23181895999203098 0
0.40047740915167035 0.21816810700601744 0
0.35950316366643564 0.2637988552615384 0
0.3132283275921867 0.3491454991936432 0
0.1363767114527765 0.4464531340051104 0
0.20362084577625053 0.4998231063687972 0
0.16210977924400946 0.5954066048313638 0
0.09898159675042778 0.617946259458433 0
0.12352112783285468 0.6129481543357181 0
0.09150845496743647 0.6993872652031357 0
0.13549300682592905 0.7366861113058796 0
0.07765312943618777 0.5749998090913664 0
0.1817270585803225 0.12551594112301875 0
0.04216174386832205 0.265291251367274 0
0.28596212413620664 0.1801357711920099 0
0.2425751027734863 0.17358044118884572 0
0.21817660390845803 0.15976230215678797 0
0.4736968255443661 0.0678735786513996 0
0.43102855352323505 0.11758453537132224 0
0.4589557171626453 0.12962139608113024 0
0.4091422232653785 0.026626737954858933 0
0.6246888410242496 0.2149766081563018 0
0.6031006645701817 0.24682283956314321 0
0.8052720095943088 0.13981547264459004 0
0.8061075040250238 0.10836227716820518 0
0.8916947348429338 0.24573251525543768 0
0.7586982555707574 0.21062032066906725 0
0.9175313121462524 0.535141158456578 0
0.9278738763727743 0.46958285136868416 0
0.35584939313324615 0.7044230826205681 0
0.3576529165632694 0.6638476612517764 0
0.3940208789985448 0.6478947098736825 0
0.426040952032287 0.7312720684684577 0
0.0664331503834516 0.7376833055402099 0
0.06002940680597702 0.6885895912932593 0
0.23940537998322528 0.7503933497940684 0
0.24273969470890197 0.8578497332610782 0
0.1526598985413671 0.8653078850832432 0
0.1790372854111562 0.8250120070602138 0
0.17910444799207684 0.7796198955098805 0
0.19510879598169018 0.8329564358007092 0
0.21908209317573357 0.7775108736821442 0
0.1314001024339175 0.7751351414384829 0
0.16441953235890924 0.758653067590379 0
0.09506055827415097 0.7980428245898827 0
0.0670881480609929 0.7978071557662534 0
0.838792894590137 0.7563017787933592 0
0.8065871416398718 0.7485536539277259 0
0.9495071405835004 0.6613752837602216 0
0.9206608580217533 0.6678033147338763 0
0.9759916479069226 0.666527024184011 0
0.8366410742167585 0.6120902656178443 0
0.7200225049674348 0.5912399998008598 0
0.6510447984196399 0.7735155361918025 0
0.5844521622806844 0.7577209842934765 0
0.5653098101085094 0.8131296976151668 0
0.5335148189007518 0.7954591397880022 0
0.508478521461063 0.7806785389376547 0
0.8270705109173849 0.9517364678116009 0
0.9369505404111196 0.8351069625186098 0
0.9700702986721506 0.8585763057026561 0
0.06511050902398295 0.8364106424864425 0
0.668509689391333 0.53611292165641 0
0.6408861968722623 0.5471379834382827 0
0.9572854048098351 0.27209731394337255 0
0.7697990560186165 0.48238489467822054 0
0.7452162647598565 0.48884968271373974 0
0.7070682923827866 0.21218314925493303 0
0.7277738779373227 0.1914327668566735 0
0.6738576214010784 0.2821413040965268 0
0.6507840088557687 0.3257451388915681 0
0.6417782242232863 0.10611054694012109 0
0.7486837193183429 0.0999574348114585 0
0.7140906631688704 0.11082634220381853 0
0.432123794309571 0.49770823373867945 0
0.43617237841047596 0.9542496771972946 0
0.48576957278295796 0.7971439444068414 0
0.43297903941546484 0.8414287931869897 0
0.35733246764252674 0.6843745146665428 0
0.3247320633535358 0.7070696081611199 0
0.25937619769005876 0.7239991790289805 0
0.26779256658117134 0.7409289084262088 0
0.2644134316979526 0.792150508788669 0
0.3874661544221505 0.25896807700532387 0
0.3697028550455566 0.24386787960256537 0
0.14519836257477317 0.6535910222385918 0
0.13846314169515642 0.5894704247743683 0
0.07014372746016162 0.7161318006452951 0
0.08865779276608625 0.6716416007840317 0
0.11295608266256914 0.7131327598085058 0
0.05080420729424141 0.5874295867917408 0
0.06612933336513427 0.21993524527261327 0
0.09301505902928359 0.2562416708051801 0
0.4146901801508737 0.05413486522121843 0
0.40132653674549396 0.10892645069968375 0
0.6043454184215882 0.2225186371032879 0
0.41076395192205617 0.6639953586159669 0
0.3774638901983099 0.6943953726296129 0
0.4375536806096045 0.6448704666118303 0
0.4670847777474534 0.6604167874798876 0
0.25990299764128505 0.8454120802288553 0
0.13846021312044413 0.8172512702710683 0
0.14435772247953463 0.8396926056772376 0
0.17083585308727087 0.8453062478661599 0
0.18173247549860352 0.7637475275874641 0
0.16446558954790735 0.773149101362295 0
0.18515733278266658 0.7929182422830576 0
0.22024683274814846 0.8436693253314049 0
0.23816773939754016 0.7669424478044359 0
0.2044086356428059 0.7977671806984428 0
0.2227617754341644 0.757072385904653 0
0.032903771826496904 0.8096431566504161 0
0.8633389972916636 0.7506839786450182 0
0.8291408981373607 0.809066001718546 0
0.8115719746961965 0.7707022098279285 0
0.8037578535372881 0.7976350227391453 0
0.8492222986259594 0.7881597969203722 0
0.587527270296518 0.7879688578248822 0
0.525204182232172 0.7318977947875323 0
0.5316145910737198 0.7647506568489834 0
0.5058704673852443 0.7532718655736343 0
0.6631560584526407 0.5709554949407116 0
0.7947364560928875 0.27001309913591387 0
0.8154656054523983 0.23853832395194527 0
0.7552959758942481 0.177831561591412 0
0.6783948063842821 0.34067593878959695 0
0.7545854156830325 0.14957072227724216 0
0.7193226502286183 0.13942932851926348 0
0.7399612752724039 0.12958624505241617 0
0.7828301786060132 0.09085923566179344 0
0.4670458815359201 0.9383963745567214 0
0.4380855791772168 0.7895418178522373 0
0.3218708464314321 0.8542940187485888 0
0.24606809797102086 0.6832347573864911 0
0.2885036091914268 0.6893235456094013 0
0.2826873962835795 0.7080919731237575 0
0.2511241571282464 0.7061244298759215 0
0.3137493953142985 0.7223584582023787 0
0.294064440753259 0.7210425010897471 0
0.12819850534481414 0.6495781748482898 0
0.11205971566665811 0.6595172821103864 0
0.07725591758158937 0.6035849382159224 0
0.3117645332115506 0.2089832921928142 0
0.29067655313798935 0.23326349087543186 0
0.26413448755101276 0.2177195254221956 0
0.42362361254311387 0.08460643000139609 0
0.38946866033758465 0.07729409480135123 0
0.44703068012859704 0.06477881439139854 0
0.4416800991316964 0.030251178038288615 0
0.6273785514334586 0.23766764898182455 0
0.39963041827883494 0.6914969875011547 0
0.49140079468187786 0.6120644990503797 0
0.1329683925359182 0.7952811070266069 0
0.16061152811062038 0.8236329108590977 0
0.20969153187962727 0.7424149680662007 0
0.24258882551456587 0.8353478274078714 0
0.2580547427202084 0.7741436669112944 0
0.21148725172154959 0.8187086790327507 0
0.19558533158822752 0.7788037252788397 0
0.24358271918561972 0.786511408104222 0
0.8623722992458958 0.768685621201982 0
0.7895033751666062 0.21690656839798142 0
0.7777259043052257 0.24330267159750993 0
0.6730647845602667 0.3706587675060907 0
0.2863655466565247 0.7348220505629833 0
0.2751276344963378 0.7227122495506257 0
0.11579303018358923 0.6370656306655311 0
0.1415984722934101 0.6336264349701612 0
0.11529851930168582 0.6859692005465348 0
0.28856301977537463 0.20364514275460838 0
0.45854229079253844 0.09438007761736741 0
0.3813864550034219 0.6712982283245701 0
0.4556459790146344 0.7324178125095601 0
0.1500940321618319 0.7836278126428637 0
0.15287842784048702 0.8024246967672164 0
0.17280463220639636 0.8081763842691483 0
0.2496314644579938 0.8106818063373956 0
0.22938752502137025 0.8226149731845517 0
0.20343840509242614 0.7601438610033395 0
0.22602821285632965 0.8017566137821953 0
0.8253155524991375 0.7852941160694088 0
0.7722211351565029 0.12427487984909769 0
0.4605784696728222 0.8080356431083108 0
0.4350389112619061 0.8165034164472833 0
0.4540933092113143 0.8330097781142467 0
0.2683030299768301 0.6962047155457207 0
0.26776841220169156 0.7106692047326602 0
0.1455241679237074 0.6093125157212863 0
0.2624723880615318 0.19005833800552138 0
0.4629679820366035 0.5923078000989485 0
0.4641064544103042 0.6283248701039398 0
0.16729930565239168 0.7899517453921461 0
0.26129461171645935 0.8282176924196837 0
1.0 0.8457141446374343 1
0.0 0.21782259228152742 1
0.6564588426579685 1.0 1
0.0 0.28158937099675163 1
0.5473776721799237 0.3165697457624423 0
0.8587463523973196 0.8808661471784903 0
0.8435928497811769 1.0 1
0.9091408212043223 0.418464989401379 0
0.7163694680159285 0.2345169471923297 0
0.8915201976631276 0.5999016352517702 0
0.6498041595837868 0.40601690298181103 0
0.6362376263630097 0.41490567316802623 0
0.6336882616332955 0.1559344288106393 0
0.3033128726573406 0.8470419772608307 0
0.042069234016209225 0.0 1
0.7172713132074282 0.0 1
0.9711921045861988 0.0 1
1.0 0.028807895413801264 1
0.965478582269046 0.895930110089826 0
0.5735894290908468 0.3538466044024756 0
0.6586407312316916 0.42621537328367903 0
0.33641501634362486 0.10865232421136824 0
0.3176035926350918 0.053866372134098624 0
0.8852065411626012 0.1500994987883774 0
0.8837338054720785 0.1318074096556113 0
0.8663545759920761 0.1440059425519887 0
0.773583312328918 0.6879773067615284 0
0.4081231944557766 0.26101830766964595 0
0.8250511879061168 0.6633285996147418 0
0.831823103000622 0.636164600039035 0
0.8388711433459007 0.6549500932014258 0
0.7147674350876081 0.1744788904950188 0
0.9397971551857546 0.8768147564586656 0
0.19436318409145895 0.2644581558411262 0
0.21761923195337685 0.5959667072348238 0
0.6613440013036396 0.4510849223272808 0
0.5985797708383142 0.13771334786780448 0
0.3792526812572064 0.741099720587961 0
0.5095916957307586 0.10983442107598856 0
0.690151135360416 0.19914449698042344 0
0.6787708296984825 0.914894631584522 0
0.44549936795973155 0.769044020862023 0
0.0 0.8462519140398042 1
0.5300095537300569 0.0 1
0.46943569476424446 1.0 1
0.4058105579775693 0.0 1

Edges
100
1 122 1
1 1165 1
2 1167 1
2 1168 1
3 163 1
3 170 1
4 99 1
4 174 1
5 363 1
5 1194 1
6 66 1
6 416 1
7 265 1
7 1195 1
8 117 1
8 312 1
9 336 1
9 457 1
10 100 1
10 270 1
16 144 1
16 197 1
17 66 1
17 196 1
22 398 1
22 1166 1
23 227 1
23 228 1
24 342 1
24 364 1
26 92 1
26 169 1
27 91 1
27 1153 1
29 94 1
29 271 1
31 285 1
31 286 1
33 1152 1
33 1154 1
36 108 1
36 109 1
39 333 1
39 335 1
40 120 1
40 343 1
42 122 1
42 123 1
45 133 1
45 1196 1
50 144 1
50 145 1
51 147 1
51 148 1
53 412 1
53 441 1
55 413 1
55 415 1
59 163 1
59 1151 1
61 170 1
61 1157 1
63 458 1
63 1193 1
77 227 1
77 1166 1
78 228 1
78 1194 1
91 265 1
92 1153 1
93 270 1
93 271 1
94 1195 1
99 285 1
100 286 1
108 1154 1
109 312 1
117 333 1
118 335 1
118 336 1
120 342 1
123 1152 1
132 363 1
132 1196 1
133 364 1
145 1168 1
147 1167 1
148 398 1
154 412 1
154 413 1
155 415 1
155 416 1
164 441 1
164 1151 1
169 1157 1
173 457 1
173 1193 1
174 458 1
196 197 1
343 1165 1

Triangles
2290
4 174 283 0
5 358 363 0
6 416 860 0
7 90 265 0
9 329 404 0
9 404 457 0
10 100 287 0
10 287 101 0
11 180 256 0
11 256 463 0
12 140 248 0
12 392 549 0
13 88 182 0
13 260 261 0
14 478 642 0
15 188 203 0
15 195 1023 0
15 203 723 0
15 1023 192 0
16 197 1022 0
17 66 654 0
17 201 196 0
18 201 391 0
19 209 210 0
19 211 427 0
20 217 237 0
20 237 243 0
20 243 359 0
20 359 370 0
21 212 235 0
21 219 1170 0
21 235 725 0
22 398 638 0
23 227 230 0
23 489 228 0
25 453 754 0
26 92 511 0
27 91 452 0
28 512 513 0
28 761 1130 0
28 943 1192 0
29 271 762 0
30 545 876 0
30 813 585 0
32 287 556 0
32 293 880 0
32 790 293 0
33 971 1154 0
33 1152 344 0
34 295 296 0
34 827 295 0
35 309 315 0
36 108 570 0
36 570 341 0
37 110 802 0
37 319 322 0
37 322 330 0
38 321 806 0
38 323 326 0
38 326 1185 0
38 808 578 0
38 964 323 0
39 333 592 0
39 581 335 0
40 120 126 0
40 126 345 0
42 122 600 0
43 354 607 0
43 603 973 0
43 835 354 0
43 973 974 0
44 128 355 0
46 365 1172 0
46 369 845 0
46 839 362 0
46 845 365 0
47 229 489 0
47 379 138 0
47 742 490 0
48 636 665 0
48 640 390 0
48 665 1176 0
48 981 636 0
49 202 655 0
49 649 202 0
49 650 859 0
49 859 649 0
50 146 395 0
51 147 402 0
51 149 664 0
52 406 1000 0
52 674 675 0
52 675 814 0
53 152 412 0
54 439 680 0
54 688 886 0
56 156 893 0
56 421 422 0
56 684 156 0
56 893 1160 0
57 444 165 0
57 445 898 0
57 898 695 0
58 411 438 0
58 1017 907 0
59 163 1169 0
59 1018 1151 0
60 443 758 0
60 939 1191 0
62 172 711 0
62 897 172 0
63 909 459 0
64 184 214 0
64 214 215 0
65 191 468 0
66 6 653 0
66 863 654 0
67 198 205 0
67 199 387 0
67 851 388 0
68 143 471 0
68 203 719 0
69 206 210 0
69 210 913 0
70 918 473 0
71 212 724 0
71 213 232 0
71 232 233 0
72 215 724 0
72 216 222 0
73 217 225 0
73 737 1155 0
73 926 737 0
74 478 734 0
74 733 726 0
74 921 733 0
75 221 1170 0
75 223 483 0
75 483 736 0
76 224 371 0
76 226 926 0
76 371 849 0
76 849 980 0
78 228 229 0
78 229 615 0
78 615 1194 0
79 231 495 0
80 233 496 0
80 240 748 0
81 236 508 0
81 250 239 0
82 237 475 0
83 240 242 0
83 241 497 0
83 242 498 0
83 497 748 0
84 244 500 0
84 499 502 0
84 500 619 0
84 502 955 0
85 251 507 0
85 507 797 0
86 255 393 0
86 257 509 0
86 393 867 0
87 180 181 0
87 181 257 0
87 257 869 0
88 13 261 0
88 181 182 0
88 509 257 0
88 753 509 0
89 177 263 0
89 262 753 0
90 7 757 0
90 266 265 0
90 755 936 0
91 265 266 0
92 267 511 0
93 270 515 0
94 29 274 0
94 274 1033 0
95 519 524 0
95 1141 1035 0
96 535 534 0
96 945 947 0
97 539 789 0
97 777 538 0
97 1134 1040 0
98 99 283 0
98 285 99 0
98 715 910 0
99 4 283 0
100 286 556 0
100 556 287 0
101 270 10 0
101 289 764 0
101 516 515 0
102 764 289 0
102 765 764 0
104 296 562 0
104 562 294 0
104 791 961 0
104 961 306 0
105 295 601 0
105 297 1042 0
106 109 313 0
106 312 109 0
106 313 316 0
106 316 317 0
107 307 310 0
107 310 571 0
108 311 570 0
109 36 313 0
110 37 572 0
110 315 962 0
111 318 331 0
111 331 819 0
111 572 318 0
112 319 803 0
112 322 319 0
112 803 963 0
113 320 574 0
113 574 586 0
113 586 588 0
113 588 808 0
114 380 633 0
115 118 580 0
115 329 336 0
115 580 992 0
116 1097 1043 0
117 8 334 0
118 115 336 0
118 335 580 0
119 309 35 0
119 341 801 0
121 123 351 0
121 351 823 0
121 823 1049 0
121 1152 123 0
122 1 1165 0
122 346 600 0
123 42 351 0
124 366 845 0
124 602 828 0
125 595 596 0
126 44 347 0
126 832 44 0
127 347 355 0
128 44 353 0
128 353 829 0
128 354 835 0
128 835 970 0
128 970 355 0
129 358 615 0
130 359 617 0
130 360 375 0
131 836 621 0
131 841 840 0
133 45 625 0
134 366 624 0
134 609 365 0
134 830 609 0
135 370 373 0
135 372 629 0
135 373 630 0
136 374 378 0
136 376 631 0
137 379 490 0
137 743 1187 0
138 357 47 0
139 564 504 0
139 633 380 0
140 505 248 0
141 381 810 0
142 418 419 0
142 419 194 0
143 68 204 0
143 202 471 0
143 204 1158 0
144 16 389 0
145 50 395 0
145 395 666 0
146 50 144 0
148 51 664 0
149 51 402 0
149 400 664 0
149 402 668 0
150 329 873 0
151 409 1059 0
151 1059 1060 0
152 414 412 0
152 700 162 0
153 426 436 0
153 689 681 0
153 1005 696 0
154 412 414 0
156 423 892 0
156 892 893 0
157 424 690 0
157 425 465 0
157 690 1177 0
158 427 429 0
158 428 466 0
158 429 430 0
158 1010 427 0
159 430 686 0
159 431 433 0
159 433 1009 0
160 434 689 0
160 436 690 0
160 891 1179 0
161 446 693 0
161 693 697 0
161 697 1073 0
161 902 446 0
162 887 152 0
163 171 1169 0
165 444 701 0
165 445 57 0
166 903 702 0
167 451 707 0
167 455 906 0
167 707 703 0
168 267 759 0
168 455 1191 0
168 708 455 0
168 759 760 0
168 760 708 0
169 26 437 0
170 61 699 0
170 440 3 0
170 699 440 0
171 62 711 0
171 163 440 0
171 699 62 0
171 711 1183 0
172 691 1156 0
172 1016 691 0
173 457 1069 0
173 909 1193 0
174 458 715 0
175 459 909 0
175 909 1019 0
176 248 249 0
176 249 717 0
176 1147 911 0
177 89 260 0
177 260 718 0
177 465 263 0
177 718 179 0
178 465 425 0
179 157 465 0
179 424 157 0
179 466 424 0
180 11 184 0
180 87 256 0
180 184 185 0
181 180 467 0
182 181 467 0
182 467 1021 0
183 64 215 0
183 185 64 0
183 215 474 0
184 11 213 0
184 64 185 0
184 213 214 0
185 183 912 0
186 14 189 0
186 189 190 0
186 478 14 0
187 191 193 0
187 208 1186 0
187 735 479 0
188 15 192 0
188 192 468 0
188 468 469 0
188 469 719 0
189 14 199 0
189 199 200 0
190 189 469 0
190 479 220 0
191 65 193 0
191 187 479 0
191 190 468 0
191 479 190 0
192 65 468 0
193 65 917 0
193 207 208 0
194 431 686 0
194 721 722 0
194 722 142 0
195 473 1023 0
195 723 721 0
197 196 853 0
198 18 204 0
198 67 388 0
198 204 205 0
199 14 386 0
199 67 200 0
199 386 387 0
200 67 205 0
200 205 719 0
201 18 720 0
201 853 196 0
202 143 655 0
202 470 471 0
203 68 471 0
203 188 719 0
203 470 723 0
204 68 205 0
204 391 1158 0
205 68 719 0
206 19 210 0
206 211 19 0
207 69 208 0
207 193 917 0
207 206 69 0
207 917 1024 0
208 69 913 0
208 187 193 0
208 472 1186 0
209 19 427 0
209 1010 895 0
211 70 429 0
211 206 918 0
211 918 70 0
212 21 216 0
212 71 233 0
212 216 724 0
212 233 235 0
213 11 231 0
213 71 214 0
213 231 232 0
214 71 724 0
215 72 474 0
215 214 724 0
216 21 221 0
216 72 724 0
216 221 222 0
217 20 224 0
217 73 475 0
217 224 225 0
218 82 475 0
218 475 476 0
218 476 497 0
218 750 82 0
219 21 725 0
219 223 1170 0
219 476 1155 0
220 186 190 0
220 734 478 0
221 21 1170 0
221 75 482 0
222 221 482 0
222 1162 72 0
223 75 1170 0
223 219 1155 0
224 20 370 0
224 76 225 0
224 370 371 0
225 76 926 0
226 76 980 0
226 484 925 0
226 925 926 0
227 77 746 0
227 746 230 0
229 47 357 0
229 228 489 0
229 357 615 0
231 11 463 0
231 79 232 0
232 79 496 0
233 80 235 0
233 232 496 0
234 496 79 0
235 80 748 0
236 81 242 0
236 240 234 0
236 253 508 0
237 82 503 0
237 217 475 0
238 241 498 0
238 793 956 0
239 242 81 0
239 294 561 0
239 561 498 0
240 83 748 0
240 236 242 0
240 496 234 0
241 83 498 0
241 750 218 0
241 956 750 0
242 239 498 0
243 237 245 0
243 499 617 0
244 84 955 0
244 501 361 0
244 795 959 0
245 237 503 0
245 499 243 0
245 503 954 0
246 300 564 0
247 139 504 0
247 504 505 0
248 176 462 0
248 462 12 0
249 248 505 0
249 752 1032 0
251 85 252 0
251 254 752 0
251 504 507 0
252 81 508 0
252 250 81 0
252 953 250 0
253 236 234 0
254 508 253 0
254 747 1032 0
254 1032 752 0
256 87 868 0
257 86 869 0
257 181 88 0
259 258 753 0
259 450 706 0
260 89 261 0
261 89 753 0
262 89 263 0
262 259 753 0
262 263 464 0
262 449 259 0
263 465 178 0
264 266 936 0
266 264 452 0
266 452 91 0
267 168 1191 0
268 255 258 0
268 258 706 0
268 706 905 0
268 905 1076 0
268 1076 394 0
269 770 1188 0
271 93 514 0
271 514 762 0
272 514 515 0
272 515 516 0
272 516 765 0
272 765 774 0
273 25 754 0
273 754 510 0
273 766 941 0
274 29 762 0
275 518 522 0
275 526 518 0
275 769 526 0
276 522 768 0
277 531 944 0
277 535 947 0
278 525 540 0
278 540 948 0
278 541 542 0
278 769 525 0
279 544 776 0
280 281 784 0
280 381 549 0
281 280 549 0
281 549 660 0
281 551 784 0
282 552 784 0
282 1037 951 0
283 715 98 0
284 31 285 0
284 788 31 0
285 98 284 0
286 31 788 0
287 32 289 0
287 289 101 0
288 284 910 0
288 910 557 0
290 102 559 0
290 765 102 0
291 290 559 0
291 559 994 0
292 103 293 0
292 288 557 0
292 408 103 0
292 790 288 0
293 103 880 0
294 239 250 0
294 250 791 0
294 562 794 0
294 791 104 0
295 105 960 0
296 295 960 0
296 306 34 0
297 105 352 0
297 352 605 0
297 605 749 0
297 749 958 0
297 958 1042 0
298 302 1184 0
298 595 125 0
299 307 506 0
299 506 565 0
300 935 564 0
301 303 305 0
301 307 308 0
301 567 303 0
302 298 566 0
302 303 567 0
302 593 1184 0
302 822 593 0
303 302 566 0
303 304 305 0
304 303 566 0
304 563 34 0
304 566 563 0
305 961 798 0
306 296 104 0
306 304 34 0
307 107 308 0
307 299 310 0
307 301 305 0
308 107 820 0
308 594 567 0
309 119 568 0
309 314 315 0
309 568 820 0
310 299 569 0
310 569 804 0
311 108 1154 0
311 1154 971 0
312 106 317 0
314 107 571 0
314 571 962 0
314 820 107 0
315 110 316 0
315 314 962 0
316 35 315 0
316 110 572 0
316 313 35 0
317 8 312 0
317 111 8 0
317 316 572 0
318 37 330 0
318 330 331 0
319 37 802 0
319 802 803 0
320 113 806 0
320 575 807 0
321 38 1185 0
321 575 806 0
322 112 324 0
322 583 812 0
323 583 324 0
324 112 325 0
324 325 326 0
324 326 323 0
324 583 322 0
325 380 114 0
326 114 327 0
326 325 114 0
326 327 1185 0
327 114 633 0
327 321 1185 0
328 337 579 0
328 579 589 0
328 580 581 0
328 589 1046 0
329 9 336 0
329 115 875 0
329 150 404 0
331 330 582 0
331 582 969 0
332 584 587 0
332 587 586 0
333 117 818 0
334 8 111 0
334 111 819 0
337 328 581 0
337 592 1048 0
338 350 593 0
338 593 822 0
339 1050 350 0
340 339 799 0
341 35 313 0
341 119 35 0
341 313 36 0
341 570 801 0
342 832 120 0
343 40 345 0
343 345 346 0
343 346 1165 0
344 121 1049 0
346 122 1165 0
346 345 826 0
346 826 600 0
347 44 355 0
347 345 126 0
348 597 598 0
348 598 970 0
349 41 599 0
349 597 824 0
349 824 823 0
350 338 339 0
350 824 825 0
350 825 595 0
351 42 600 0
351 600 41 0
352 105 601 0
353 44 832 0
353 610 608 0
353 832 610 0
356 129 614 0
356 358 129 0
357 129 615 0
357 138 614 0
358 5 615 0
358 356 623 0
359 130 373 0
359 243 617 0
360 130 618 0
360 631 375 0
361 131 621 0
361 501 838 0
362 622 368 0
362 839 1052 0
363 358 623 0
363 623 1106 0
364 133 844 0
364 831 24 0
364 844 831 0
365 366 134 0
365 609 1172 0
366 124 604 0
366 365 845 0
367 609 1173 0
367 625 842 0
367 1104 839 0
368 46 362 0
369 46 368 0
369 124 845 0
369 368 606 0
369 602 124 0
370 135 371 0
370 359 373 0
371 135 629 0
371 629 849 0
372 135 630 0
372 376 847 0
373 130 375 0
373 375 630 0
374 360 616 0
374 837 1189 0
376 136 377 0
376 630 631 0
377 136 137 0
377 137 1187 0
377 632 847 0
377 847 376 0
378 138 379 0
378 374 1189 0
378 614 138 0
379 47 490 0
379 136 378 0
379 137 136 0
380 246 139 0
380 325 800 0
380 800 246 0
381 280 548 0
381 634 810 0
382 12 549 0
382 140 12 0
382 141 383 0
382 247 140 0
382 381 141 0
382 383 247 0
382 549 381 0
383 139 247 0
384 400 401 0
384 636 982 0
384 665 636 0
384 982 635 0
385 396 397 0
385 640 1174 0
386 14 642 0
386 642 728 0
387 729 851 0
388 644 914 0
389 16 1022 0
389 397 144 0
389 1022 916 0
390 640 852 0
390 648 857 0
390 857 48 0
391 201 654 0
391 204 18 0
392 462 716 0
393 255 268 0
394 393 268 0
394 661 393 0
394 663 871 0
395 146 667 0
396 146 397 0
396 385 1174 0
396 667 146 0
396 1174 1175 0
397 146 144 0
397 389 643 0
397 643 385 0
398 148 399 0
399 148 664 0
399 637 638 0
400 149 401 0
400 384 635 0
400 399 664 0
400 635 637 0
401 403 665 0
401 668 403 0
402 147 666 0
402 666 668 0
403 396 1175 0
404 150 714 0
405 669 816 0
405 813 876 0
406 52 590 0
406 590 968 0
406 883 1000 0
406 968 669 0
407 670 1112 0
408 292 557 0
408 460 673 0
408 557 460 0
408 673 995 0
409 151 884 0
409 674 1110 0
409 884 1002 0
410 676 885 0
410 677 676 0
410 682 887 0
411 162 438 0
411 679 887 0
413 889 55 0
414 152 682 0
414 682 890 0
414 890 154 0
415 420 683 0
415 683 155 0
416 862 860 0
417 433 419 0
417 861 1160 0
418 142 859 0
418 417 419 0
418 859 985 0
418 861 417 0
419 431 194 0
420 415 55 0
420 889 422 0
421 683 420 0
421 861 652 0
422 421 420 0
422 889 1006 0
423 676 886 0
423 688 896 0
423 1007 676 0
424 435 690 0
425 157 426 0
425 694 702 0
425 702 178 0
426 157 1177 0
426 694 425 0
427 211 429 0
428 158 430 0
428 424 466 0
428 430 432 0
428 432 424 0
429 70 686 0
430 159 432 0
430 429 686 0
431 159 686 0
431 419 433 0
432 159 894 0
432 435 424 0
433 687 1009 0
434 160 1179 0
434 688 888 0
434 888 689 0
434 1179 1181 0
435 160 690 0
435 432 894 0
435 891 160 0
436 160 689 0
436 426 1177 0
437 26 511 0
437 511 938 0
437 709 1016 0
437 938 709 0
438 162 700 0
438 1017 58 0
439 54 677 0
439 677 678 0
439 678 900 0
439 900 1070 0
440 163 3 0
441 442 700 0
442 164 713 0
442 438 700 0
442 441 164 0
443 447 901 0
443 701 758 0
443 901 902 0
443 902 165 0
444 57 692 0
445 1073 898 0
446 166 448 0
446 448 693 0
446 901 166 0
447 167 703 0
447 443 60 0
447 455 167 0
448 696 693 0
449 262 464 0
449 450 259 0
449 904 450 0
450 904 1012 0
451 167 906 0
451 1013 1075 0
452 760 759 0
453 25 454 0
453 708 264 0
453 936 754 0
454 906 708 0
455 60 1191 0
455 447 60 0
457 404 714 0
458 63 459 0
458 459 715 0
460 175 461 0
460 461 673 0
460 557 910 0
460 910 175 0
461 175 1019 0
461 884 151 0
462 392 12 0
462 911 716 0
463 256 868 0
463 868 717 0
464 178 702 0
464 263 178 0
464 903 449 0
465 177 179 0
466 179 718 0
466 1010 158 0
467 180 185 0
468 190 469 0
469 189 200 0
469 200 719 0
470 203 471 0
472 208 913 0
472 474 1186 0
472 912 183 0
472 913 912 0
473 194 70 0
473 195 721 0
473 721 194 0
474 72 1162 0
474 472 183 0
474 1171 1186 0
475 1155 476 0
476 219 725 0
477 645 1025 0
477 922 920 0
477 1025 1159 0
478 74 642 0
478 186 220 0
480 482 924 0
480 735 1161 0
480 924 1121 0
480 1161 1162 0
481 488 1027 0
481 923 1028 0
482 480 222 0
482 736 924 0
483 223 737 0
483 737 925 0
484 226 485 0
484 483 925 0
484 485 481 0
485 488 481 0
485 1107 928 0
486 627 628 0
487 739 741 0
487 848 740 0
488 928 920 0
489 23 230 0
490 742 930 0
491 494 493 0
491 1029 929 0
492 230 746 0
492 929 230 0
493 494 1031 0
493 744 931 0
493 931 1029 0
493 933 744 0
493 1029 491 0
494 491 492 0
495 231 463 0
495 463 751 0
495 747 79 0
495 751 1032 0
496 240 80 0
497 241 218 0
497 476 725 0
497 725 748 0
498 561 238 0
499 245 502 0
499 619 617 0
500 244 361 0
501 244 959 0
502 245 954 0
502 792 955 0
503 750 954 0
505 140 247 0
505 504 752 0
506 305 798 0
506 307 305 0
506 797 565 0
507 504 564 0
507 935 797 0
508 251 252 0
508 254 251 0
509 255 86 0
509 258 255 0
509 753 258 0
510 766 273 0
511 267 939 0
512 28 1130 0
512 663 1078 0
512 871 663 0
513 512 1078 0
513 1015 1034 0
513 1034 943 0
514 93 515 0
514 272 773 0
515 270 101 0
516 101 764 0
516 764 765 0
517 1015 1014 0
518 269 768 0
518 770 269 0
519 95 530 0
519 275 522 0
519 522 524 0
519 530 944 0
520 530 95 0
520 534 535 0
520 942 534 0
520 1035 942 0
521 510 755 0
521 767 510 0
521 1088 756 0
522 276 524 0
522 518 768 0
523 276 768 0
524 276 1089 0
526 770 518 0
526 771 770 0
527 544 555 0
527 554 783 0
528 525 946 0
528 1090 1164 0
529 290 558 0
530 520 535 0
531 277 947 0
531 525 769 0
531 769 944 0
532 533 756 0
532 537 775 0
533 532 534 0
534 532 536 0
534 536 96 0
534 942 533 0
535 96 947 0
535 277 530 0
536 772 96 0
537 274 762 0
537 532 937 0
537 773 775 0
537 937 274 0
539 97 538 0
539 528 1164 0
539 538 528 0
539 558 789 0
540 525 528 0
540 528 538 0
541 278 948 0
541 544 527 0
541 771 542 0
541 776 544 0
543 279 776 0
543 776 777 0
543 952 279 0
544 279 787 0
545 30 546 0
545 670 876 0
546 30 573 0
546 573 574 0
547 546 805 0
547 781 780 0
548 280 784 0
550 657 1188 0
550 770 783 0
551 282 784 0
551 786 282 0
551 1036 786 0
552 548 784 0
552 577 548 0
554 527 555 0
555 544 787 0
555 553 554 0
556 286 788 0
558 290 291 0
558 291 1058 0
558 1164 529 0
559 878 879 0
559 879 994 0
560 792 957 0
560 793 794 0
560 794 796 0
560 796 1041 0
560 1041 1178 0
561 294 794 0
561 793 238 0
562 296 796 0
564 139 246 0
564 935 507 0
565 300 569 0
565 797 935 0
566 298 611 0
567 301 308 0
567 594 822 0
568 119 799 0
568 594 820 0
569 299 565 0
569 300 800 0
569 800 804 0
570 311 801 0
571 310 804 0
571 802 962 0
572 37 318 0
572 111 317 0
573 30 585 0
573 585 586 0
573 586 574 0
574 320 805 0
575 320 806 0
575 576 807 0
575 809 576 0
576 809 577 0
576 1091 807 0
577 634 548 0
578 588 1125 0
579 1099 965 0
580 328 992 0
580 335 581 0
581 592 337 0
582 330 812 0
582 811 969 0
583 323 964 0
583 964 1044 0
584 116 587 0
584 332 815 0
585 332 586 0
586 587 588 0
587 116 1043 0
587 1043 588 0
588 578 808 0
588 1043 1125 0
589 579 965 0
589 965 1124 0
590 52 814 0
591 1047 1126 0
591 1126 584 0
592 333 818 0
592 581 39 0
593 350 595 0
593 595 1184 0
594 308 820 0
594 568 799 0
594 799 821 0
594 821 822 0
595 298 1184 0
596 348 612 0
596 595 825 0
596 597 348 0
597 349 598 0
597 596 825 0
597 825 824 0
598 127 970 0
598 349 599 0
598 599 127 0
599 41 826 0
599 347 127 0
600 826 41 0
601 295 827 0
602 352 1100 0
602 605 352 0
602 606 605 0
603 43 607 0
603 604 972 0
603 607 624 0
604 124 828 0
604 828 972 0
606 602 369 0
606 622 626 0
606 749 605 0
607 830 134 0
608 830 829 0
608 831 843 0
609 367 1172 0
609 843 1173 0
610 342 24 0
610 831 608 0
611 563 566 0
611 1101 563 0
612 125 596 0
612 348 974 0
612 833 125 0
612 974 973 0
613 356 614 0
613 378 1189 0
613 614 378 0
614 129 357 0
615 5 1194 0
616 360 620 0
616 837 374 0
618 130 617 0
618 617 619 0
618 619 621 0
618 620 360 0
619 499 84 0
620 621 836 0
620 836 616 0
621 500 361 0
621 619 500 0
621 620 618 0
622 362 841 0
622 606 368 0
623 356 975 0
624 366 604 0
624 604 603 0
624 607 134 0
625 367 1173 0
625 844 133 0
626 501 749 0
627 744 628 0
628 854 486 0
628 927 854 0
629 372 847 0
629 847 848 0
629 848 1053 0
630 375 631 0
630 376 372 0
631 360 374 0
631 374 136 0
632 377 1187 0
632 743 1163 0
633 139 383 0
633 141 810 0
633 383 141 0
633 810 327 0
634 381 548 0
636 981 982 0
637 399 400 0
638 398 399 0
638 934 639 0
639 22 638 0
639 850 932 0
639 934 850 0
639 1166 22 0
640 48 1176 0
640 385 852 0
641 388 851 0
641 644 388 0
641 647 644 0
641 1080 1081 0
642 74 726 0
644 647 983 0
645 477 731 0
645 739 854 0
645 854 1190 0
646 981 857 0
646 1082 1084 0
646 1084 1139 0
646 1139 981 0
647 641 1081 0
647 856 852 0
648 390 856 0
649 142 722 0
649 470 202 0
649 859 142 0
650 49 986 0
650 653 860 0
651 650 860 0
651 985 650 0
652 651 862 0
652 683 421 0
652 861 985 0
653 6 860 0
653 650 986 0
654 201 17 0
655 143 1158 0
655 863 986 0
655 986 49 0
656 865 657 0
656 1055 1108 0
656 1108 659 0
657 864 987 0
657 865 1188 0
657 1055 656 0
658 523 768 0
658 761 523 0
659 872 990 0
660 392 989 0
660 549 392 0
661 866 1057 0
662 1057 866 0
663 1076 1078 0
665 384 401 0
665 403 1175 0
665 1175 1176 0
666 395 667 0
666 667 668 0
666 1168 145 0
667 396 403 0
667 403 668 0
668 401 149 0
669 405 671 0
669 671 1001 0
669 883 406 0
670 407 876 0
670 545 780 0
671 407 1062 0
672 880 881 0
672 998 1065 0
672 1061 998 0
673 151 1060 0
673 461 151 0
674 52 1000 0
674 1000 1110 0
674 1002 675 0
675 1002 1003 0
676 677 886 0
676 1007 885 0
677 54 886 0
677 410 678 0
678 410 887 0
678 679 900 0
679 411 58 0
679 678 887 0
680 439 1070 0
680 681 888 0
681 680 1004 0
681 689 888 0
681 1004 1005 0
682 152 887 0
683 652 862 0
683 862 155 0
684 56 422 0
684 1007 156 0
685 687 893 0
685 892 896 0
685 896 1181 0
686 70 194 0
687 417 1160 0
687 433 417 0
687 685 1009 0
688 54 888 0
688 423 886 0
688 434 896 0
689 153 436 0
690 436 1177 0
691 692 1156 0
691 1016 709 0
692 456 1156 0
692 691 444 0
692 695 456 0
694 448 702 0
695 692 57 0
695 898 1071 0
696 426 153 0
696 448 694 0
696 694 426 0
696 697 693 0
697 1005 1072 0
698 679 58 0
698 899 1074 0
698 900 679 0
698 907 899 0
698 1074 1118 0
699 171 440 0
699 897 62 0
700 53 441 0
700 152 53 0
701 443 165 0
701 709 938 0
702 448 166 0
703 901 447 0
703 903 166 0
703 1011 903 0
704 905 1012 0
704 1013 1014 0
704 1075 1013 0
705 25 273 0
705 273 517 0
705 1014 1013 0
706 258 259 0
706 450 1012 0
708 453 454 0
708 760 264 0
708 906 455 0
709 444 691 0
709 701 444 0
710 456 899 0
710 711 1156 0
710 899 907 0
711 172 1156 0
711 712 1183 0
712 711 710 0
712 907 1017 0
713 438 442 0
713 1017 438 0
714 150 908 0
714 908 1003 0
714 1003 1069 0
715 175 910 0
715 283 174 0
715 459 175 0
716 1054 989 0
716 1056 1054 0
717 249 751 0
717 751 463 0
718 1010 466 0
722 470 649 0
722 723 470 0
723 195 15 0
723 722 721 0
725 235 748 0
726 730 727 0
726 732 730 0
727 642 726 0
727 728 642 0
727 730 1120 0
728 387 386 0
728 729 387 0
728 1080 729 0
729 641 851 0
730 732 1159 0
731 741 645 0
732 477 1159 0
732 726 733 0
733 921 922 0
734 220 1083 0
734 923 921 0
735 480 1121 0
735 1121 479 0
735 1171 1161 0
736 482 75 0
736 483 484 0
736 484 481 0
737 223 1155 0
738 744 933 0
738 855 1182 0
739 486 854 0
739 645 741 0
739 846 486 0
740 632 1163 0
741 1107 979 0
742 47 489 0
742 489 929 0
742 929 930 0
743 137 930 0
743 632 1187 0
743 930 1029 0
743 931 1163 0
744 627 931 0
744 738 628 0
745 77 1166 0
745 746 77 0
745 932 746 0
747 234 79 0
747 253 234 0
747 254 253 0
747 495 1032 0
749 501 959 0
749 606 626 0
750 503 82 0
752 249 505 0
752 504 251 0
753 88 261 0
754 755 510 0
754 936 755 0
755 90 1088 0
755 1088 521 0
756 533 521 0
757 94 1033 0
757 1088 90 0
757 1195 94 0
758 701 938 0
758 938 939 0
759 27 452 0
760 452 264 0
761 1192 523 0
762 514 773 0
762 773 537 0
763 290 529 0
763 774 765 0
765 290 763 0
767 521 533 0
767 533 942 0
767 766 510 0
767 1035 1142 0
768 269 658 0
769 275 944 0
769 278 542 0
769 542 526 0
770 550 1188 0
771 526 542 0
771 527 783 0
771 541 527 0
771 783 770 0
772 536 775 0
772 774 940 0
772 775 774 0
773 272 774 0
774 763 940 0
775 536 532 0
775 773 774 0
776 541 948 0
777 776 948 0
778 543 777 0
779 543 778 0
779 778 1114 0
779 1114 949 0
780 545 546 0
780 546 547 0
780 1112 670 0
781 877 780 0
782 877 781 0
783 554 550 0
785 552 1092 0
785 576 577 0
785 577 552 0
786 987 950 0
787 279 952 0
787 1095 555 0
788 284 288 0
788 288 790 0
788 790 556 0
789 1058 1150 0
789 1150 97 0
790 32 556 0
790 292 293 0
791 250 953 0
792 502 954 0
792 560 1178 0
792 795 955 0
792 954 957 0
793 560 957 0
793 561 794 0
794 562 796 0
795 244 955 0
795 792 1178 0
795 958 959 0
796 296 960 0
796 960 1041 0
797 506 798 0
797 798 953 0
797 953 85 0
799 339 821 0
799 801 340 0
800 300 246 0
800 325 963 0
801 311 340 0
801 799 119 0
802 110 962 0
803 571 804 0
803 802 571 0
803 804 963 0
804 800 963 0
805 320 807 0
805 546 574 0
805 807 1091 0
808 38 806 0
808 806 113 0
809 321 327 0
809 575 321 0
809 634 577 0
810 634 809 0
810 809 327 0
811 582 812 0
811 965 1099 0
811 1044 966 0
812 330 322 0
813 30 876 0
813 405 816 0
813 815 585 0
814 874 590 0
815 332 585 0
815 591 584 0
815 816 817 0
816 669 968 0
816 815 813 0
817 590 1047 0
817 591 815 0
817 816 968 0
817 968 590 0
818 117 334 0
818 819 1048 0
819 331 969 0
819 818 334 0
819 969 1048 0
820 314 309 0
821 338 822 0
821 339 338 0
822 302 567 0
823 41 349 0
823 351 41 0
824 1050 1049 0
826 345 347 0
826 347 599 0
827 34 563 0
827 1101 601 0
828 602 1100 0
828 1100 1127 0
829 353 608 0
829 354 128 0
829 830 354 0
830 607 354 0
830 843 609 0
831 610 24 0
832 126 120 0
832 342 610 0
833 612 973 0
833 834 125 0
833 973 1146 0
834 298 125 0
834 611 298 0
834 1102 611 0
835 43 974 0
835 348 970 0
836 131 840 0
836 977 616 0
837 613 1189 0
837 1128 613 0
838 131 361 0
838 501 626 0
838 622 841 0
838 626 622 0
839 1172 367 0
840 841 976 0
840 976 977 0
841 131 838 0
841 362 1052 0
841 1052 976 0
842 45 978 0
842 625 45 0
842 978 1051 0
843 830 608 0
843 831 844 0
843 844 1173 0
844 625 1173 0
846 487 740 0
846 627 486 0
846 739 487 0
846 1163 627 0
847 632 740 0
848 487 979 0
848 847 740 0
848 979 1053 0
849 629 1053 0
850 494 932 0
850 934 1030 0
851 67 387 0
852 385 643 0
852 643 983 0
852 983 647 0
853 201 720 0
853 1022 197 0
854 927 1190 0
855 1026 1182 0
855 1086 1084 0
856 390 852 0
856 1081 648 0
857 648 858 0
857 858 646 0
858 1082 646 0
859 650 985 0
860 862 651 0
861 56 1160 0
861 418 985 0
861 421 56 0
862 416 155 0
863 66 653 0
863 391 654 0
863 653 986 0
863 1158 391 0
864 550 554 0
864 554 553 0
864 657 550 0
865 269 1188 0
865 656 659 0
865 658 269 0
865 990 658 0
866 661 871 0
866 871 872 0
867 393 661 0
867 661 1057 0
868 87 869 0
868 869 1109 0
868 1109 1147 0
869 86 867 0
869 867 1109 0
870 659 1108 0
870 662 872 0
870 1054 662 0
870 1108 1054 0
871 512 1130 0
871 661 394 0
872 659 870 0
872 662 866 0
872 871 1130 0
872 1130 990 0
873 329 875 0
873 908 150 0
873 991 908 0
874 814 991 0
874 967 1047 0
874 991 1045 0
875 115 992 0
875 992 1045 0
876 407 671 0
876 671 405 0
877 782 993 0
878 32 880 0
878 102 289 0
878 289 32 0
878 559 102 0
879 672 1065 0
879 880 672 0
880 103 881 0
880 879 878 0
881 1061 672 0
882 1064 1067 0
882 1067 1115 0
883 669 1001 0
883 1001 1063 0
883 1063 1131 0
884 461 1019 0
885 682 410 0
887 162 411 0
888 54 680 0
889 413 1008 0
889 420 55 0
890 682 885 0
890 1008 154 0
891 435 894 0
891 894 1180 0
891 1180 1181 0
892 423 896 0
892 685 893 0
893 687 1160 0
894 159 1009 0
894 1009 1180 0
895 260 13 0
895 718 260 0
895 1010 718 0
895 1079 209 0
896 434 1181 0
897 699 61 0
899 456 695 0
899 695 1071 0
899 1071 1074 0
901 446 902 0
901 703 166 0
902 161 445 0
902 445 165 0
903 464 702 0
903 1011 449 0
904 449 1011 0
904 451 1075 0
904 707 451 0
905 704 1077 0
905 706 1012 0
906 454 451 0
907 698 58 0
907 712 710 0
908 675 1003 0
908 814 675 0
908 991 814 0
909 63 1193 0
909 173 1069 0
910 284 98 0
911 462 176 0
911 1147 1148 0
912 467 185 0
912 913 1020 0
914 18 198 0
914 198 388 0
914 644 915 0
914 720 18 0
915 720 914 0
915 983 916 0
915 1022 720 0
916 643 389 0
917 65 192 0
917 1023 1024 0
918 206 1024 0
919 730 1159 0
919 1025 1026 0
919 1026 984 0
920 731 477 0
920 922 1027 0
920 928 731 0
921 74 734 0
921 923 1027 0
921 1027 922 0
922 477 732 0
922 732 733 0
923 734 1083 0
924 1028 1083 0
924 1083 1121 0
925 737 926 0
926 73 225 0
927 628 738 0
927 738 1182 0
927 1025 1190 0
928 488 485 0
928 741 731 0
929 489 230 0
929 492 491 0
930 137 490 0
930 929 1029 0
931 627 1163 0
931 743 1029 0
932 492 746 0
932 494 492 0
932 745 639 0
934 637 1087 0
934 638 637 0
935 300 565 0
936 266 90 0
936 453 264 0
937 532 756 0
937 1033 274 0
938 511 939 0
939 60 758 0
939 267 1191 0
940 763 529 0
941 517 273 0
941 766 1142 0
942 1035 767 0
943 28 513 0
943 1034 1140 0
943 1089 1192 0
944 275 519 0
944 530 277 0
945 96 772 0
945 772 940 0
946 525 531 0
946 531 947 0
946 945 1090 0
946 1090 528 0
947 945 946 0
948 538 777 0
948 540 538 0
949 782 1039 0
949 993 782 0
949 1066 993 0
950 864 553 0
951 1037 1095 0
951 1092 282 0
951 1096 1093 0
952 543 779 0
952 1039 1122 0
953 252 85 0
953 798 961 0
953 961 791 0
954 750 956 0
954 956 957 0
956 241 238 0
956 793 957 0
958 749 959 0
958 795 1041 0
958 1041 1042 0
960 105 1042 0
961 304 306 0
961 305 304 0
963 325 112 0
964 38 578 0
965 811 966 0
966 1124 965 0
967 874 1045 0
967 992 1046 0
969 811 1099 0
970 127 355 0
971 33 344 0
971 340 311 0
971 344 1049 0
971 1049 1050 0
972 828 1127 0
974 348 835 0
975 356 613 0
975 613 1128 0
975 1105 623 0
976 1052 1103 0
976 1103 1128 0
977 836 840 0
977 837 616 0
977 976 1128 0
977 1128 837 0
978 1196 132 0
979 487 741 0
980 485 226 0
980 849 1053 0
980 1053 1107 0
981 48 857 0
981 1139 982 0
983 643 916 0
983 915 644 0
984 730 919 0
984 858 1119 0
984 1026 1082 0
985 651 652 0
987 786 1036 0
987 864 950 0
987 1036 1055 0
988 281 660 0
988 551 281 0
989 392 716 0
990 761 658 0
990 865 659 0
990 1130 761 0
991 873 875 0
992 328 1046 0
992 967 1045 0
993 1066 1068 0
994 879 1065 0
994 1058 291 0
994 1065 1113 0
995 103 408 0
995 673 1060 0
995 881 103 0
995 1060 1061 0
995 1061 881 0
996 882 998 0
997 1064 1149 0
998 882 1115 0
999 1066 1117 0
999 1117 1137 0
999 1136 1068 0
1000 883 1131 0
1001 671 1062 0
1001 1062 1063 0
1002 674 409 0
1002 884 1003 0
1003 884 1019 0
1003 1019 1069 0
1004 680 1070 0
1004 1074 1138 0
1004 1138 1072 0
1005 153 681 0
1005 697 696 0
1006 684 422 0
1006 889 1008 0
1006 890 885 0
1006 1007 684 0
1007 423 156 0
1007 1006 885 0
1008 413 154 0
1008 890 1006 0
1009 685 1180 0
1010 209 427 0
1011 703 707 0
1011 707 904 0
1012 904 1075 0
1012 1075 704 0
1013 25 705 0
1013 451 454 0
1013 454 25 0
1014 705 517 0
1014 1077 704 0
1015 513 1078 0
1015 517 1034 0
1016 169 437 0
1016 172 897 0
1017 713 1018 0
1017 1183 712 0
1018 59 1169 0
1018 713 1151 0
1018 1169 1183 0
1020 210 209 0
1020 913 210 0
1021 467 912 0
1021 912 1020 0
1021 1020 1079 0
1021 1079 182 0
1022 853 720 0
1022 915 916 0
1023 473 918 0
1023 917 192 0
1023 918 1024 0
1024 206 207 0
1025 645 1190 0
1025 919 1159 0
1025 927 1026 0
1026 855 1082 0
1026 927 1182 0
1027 488 920 0
1027 923 481 0
1028 736 481 0
1028 923 1083 0
1028 924 736 0
1030 934 1087 0
1030 1086 1031 0
1031 494 850 0
1031 850 1030 0
1031 933 493 0
1031 1086 1085 0
1032 751 249 0
1033 756 1088 0
1033 937 756 0
1033 1088 757 0
1034 517 941 0
1034 941 1140 0
1035 520 95 0
1035 1141 1142 0
1036 551 988 0
1036 1129 1055 0
1037 282 786 0
1037 553 1095 0
1037 786 950 0
1037 950 553 0
1038 781 1094 0
1038 782 781 0
1038 1123 1039 0
1039 779 949 0
1039 782 1038 0
1039 952 779 0
1040 777 97 0
1040 778 777 0
1041 795 1178 0
1041 960 1042 0
1043 1097 1125 0
1044 811 812 0
1044 812 583 0
1044 964 1145 0
1045 991 875 0
1046 589 1098 0
1046 1126 967 0
1047 590 874 0
1047 591 817 0
1047 967 1126 0
1048 592 818 0
1048 969 1099 0
1049 823 824 0
1050 339 340 0
1050 340 971 0
1050 824 350 0
1051 978 1106 0
1051 1104 842 0
1052 839 1104 0
1053 979 1107 0
1054 1056 662 0
1054 1108 1129 0
1055 657 987 0
1056 716 911 0
1056 911 1148 0
1057 662 1056 0
1057 1056 1148 0
1057 1148 867 0
1058 789 558 0
1058 994 1113 0
1059 409 1110 0
1059 1110 1132 0
1060 1059 1111 0
1061 996 998 0
1061 1111 996 0
1062 407 1136 0
1062 997 1063 0
1062 1116 997 0
1063 997 1149 0
1064 882 1133 0
1064 997 1116 0
1064 1133 1149 0
1065 998 1115 0
1065 1115 1135 0
1066 949 1114 0
1066 999 1068 0
1067 999 1137 0
1067 1064 1116 0
1068 877 993 0
1068 1112 877 0
1069 457 714 0
1069 1019 909 0
1070 900 1118 0
1071 898 1073 0
1071 1073 1138 0
1072 1005 1004 0
1072 1138 1073 0
1073 445 161 0
1073 697 1072 0
1074 1004 1118 0
1074 1071 1138 0
1076 663 394 0
1076 905 1077 0
1076 1077 1078 0
1077 1014 1015 0
1077 1015 1078 0
1079 13 182 0
1079 895 13 0
1079 1020 209 0
1080 641 729 0
1080 728 727 0
1080 1120 1081 0
1081 856 647 0
1082 855 1084 0
1082 858 984 0
1085 738 933 0
1085 855 738 0
1085 933 1031 0
1086 855 1085 0
1086 1139 1084 0
1087 635 982 0
1087 637 635 0
1087 1139 1030 0
1089 276 523 0
1089 523 1192 0
1089 943 1140 0
1090 529 1164 0
1090 940 529 0
1090 945 940 0
1091 547 805 0
1091 576 785 0
1092 552 282 0
1093 1092 951 0
1093 1096 1123 0
1093 1143 1092 0
1094 547 1091 0
1094 781 547 0
1094 1091 1143 0
1094 1144 1038 0
1095 553 555 0
1096 787 1122 0
1096 951 1095 0
1096 1095 787 0
1096 1122 1123 0
1097 116 1098 0
1098 589 1124 0
1099 337 1048 0
1099 579 337 0
1100 352 601 0
1101 827 563 0
1101 1100 601 0
1102 833 1146 0
1102 834 833 0
1102 1101 611 0
1103 1051 1105 0
1103 1052 1104 0
1103 1105 1128 0
1104 367 842 0
1104 1051 1103 0
1105 975 1128 0
1105 1051 1106 0
1105 1106 623 0
1106 132 363 0
1106 978 132 0
1107 485 980 0
1107 741 928 0
1109 867 1148 0
1110 1000 1131 0
1110 1131 1132 0
1111 1059 1132 0
1111 1061 1060 0
1111 1132 1133 0
1112 780 877 0
1112 1068 1136 0
1113 1065 1135 0
1113 1150 1058 0
1114 778 1040 0
1114 1040 1117 0
1114 1117 1066 0
1115 1067 1137 0
1116 999 1067 0
1118 900 698 0
1118 1004 1070 0
1119 648 1081 0
1119 858 648 0
1120 730 984 0
1120 984 1119 0
1120 1080 727 0
1120 1119 1081 0
1121 220 479 0
1121 1083 220 0
1122 787 952 0
1123 1038 1144 0
1123 1122 1039 0
1123 1144 1093 0
1124 1097 1098 0
1124 1125 1097 0
1125 966 1145 0
1125 1124 966 0
1125 1145 578 0
1126 116 584 0
1126 1046 1098 0
1126 1098 116 0
1127 1100 1101 0
1127 1101 1102 0
1127 1102 1146 0
1129 660 989 0
1129 988 660 0
1129 989 1054 0
1129 1036 988 0
1129 1108 1055 0
1131 1063 1149 0
1132 1131 1149 0
1133 882 996 0
1133 996 1111 0
1133 1132 1149 0
1134 97 1150 0
1134 1113 1135 0
1134 1117 1040 0
1135 1115 1137 0
1135 1137 1134 0
1136 407 1112 0
1136 999 1116 0
1136 1116 1062 0
1137 1117 1134 0
1139 1086 1030 0
1139 1087 982 0
1140 941 1142 0
1141 95 524 0
1141 524 1089 0
1141 1089 1140 0
1141 1140 1142 0
1142 766 767 0
1143 785 1092 0
1143 1091 785 0
1143 1093 1144 0
1144 1094 1143 0
1145 964 578 0
1145 966 1044 0
1146 603 972 0
1146 972 1127 0
1146 973 603 0
1147 176 717 0
1147 717 868 0
1147 1109 1148 0
1150 1113 1134 0
1151 713 164 0
1152 121 344 0
1153 27 759 0
1153 267 92 0
1153 759 267 0
1155 475 73 0
1156 456 710 0
1157 169 1016 0
1157 897 61 0
1157 1016 897 0
1158 863 655 0
1162 222 480 0
1162 1171 474 0
1163 846 740 0
1164 558 539 0
1166 639 745 0
1167 2 1168 0
1167 666 147 0
1167 1168 666 0
1169 171 1183 0
1171 187 1186 0
1171 735 187 0
1171 1162 1161 0
1172 839 46 0
1174 640 1176 0
1175 1174 1176 0
1179 891 1181 0
1180 685 1181 0
1183 1017 1018 0
1192 761 28 0
1195 757 7 0
1196 978 45 0

End
