MeshVersionFormatted 1

Dimension
2

Vertices
96
0.0 0.0 1
1.0 0.0 1
1.0 1.0 1
0.0 1.0 1
0.5 0.0 1
1.0 0.5 1
0.5 1.0 1
0.25 0.5 0
0.0 0.5 1
0.0 0.75 1
0.25 1.0 1
0.375 0.75 0
0.7291666666666666 0.7291666666666666 0
0.538690476190476 0.5119047619047622 0
0.3910557644110273 0.5857221177944861 0
0.5316602518200254 0.6823877028881726 0
0.654972415227055 0.6020863169829342 0
0.7650644656186915 0.3400724474862056 0
0.6749052114385818 0.45632563128933656 0
0.8276068351983819 0.5514508511724192 0
0.7854616148589596 0.44897904494922575 0
1.0 0.25 1
1.0 0.375 1
0.8799479163643718 0.37491928443052425 0
0.7299464919215065 0.5380957841924395 0
0.5294184425458666 0.2504067504239376 0
0.5643494391164554 0.38008157563847056 0
0.6502215641235465 0.28740771783941554 0
0.75 0.0 1
0.625 0.0 1
0.6874999999999999 0.13932581326817936 0
0.3770223041588905 0.36100043251726255 0
0.464721247865186 0.429098076644338 0
0.4711082088723966 0.33035271252122 0
0.25 0.0 1
0.3766944580988303 0.20025223339637974 0
0.36020856778235477 0.47317382631562516 0
0.5647471486092525 0.5983656874316845 0
0.6315550887165114 0.7009570877484247 0
0.5531222099998897 0.8449112036496378 0
0.75 1.0 1
0.625 1.0 1
0.47750909198009456 0.7722174311047793 0
0.375 1.0 1
0.4363830240275924 0.890666839081353 0
0.29754819746011263 0.8675240987300565 0
0.1875 0.710715587044504 0
0.2734918195335347 0.767386699595258 0
0.2897983944149434 0.6490665227922872 0
0.125 0.8803641093959127 0
0.125 1.0 1
0.21413244571349377 0.9123554911359928 0
0.0 0.25 1
0.195725595220942 0.28099575339532296 0
0.3041241985275752 0.2807746743710821 0
0.2501346677819088 0.38373926564918087 0
0.10355431196007481 0.39558442205490996 0
0.0 0.375 1
0.125 0.5204110805627519 0
0.19267378648270728 0.6036009967194691 0
0.06630662736015677 0.6372780637341013 0
0.0 0.625 1
0.09348794495379383 0.2931232945834956 0
0.125 0.0 1
0.1046315917981616 0.14606579589908078 0
0.0 0.125 1
0.24543002032469496 0.14922456747623297 0
0.1765116983940374 0.08163619428365504 0
0.48478325975277886 0.12871915574951429 0
0.375 0.0 1
0.3399488949534008 0.10042987472331566 0
0.5847253796789401 0.16109016562291897 0
0.5625 0.06995386364878747 0
0.3192956736671626 0.5448886583285543 0
0.8648142887195216 0.13518571128047838 0
0.8532126247947807 0.25626254366148754 0
0.7773395892219577 0.1878980822735392 0
0.8991535308902023 0.4766389619768071 0
0.43464778065542864 0.6729061502832895 0
1.0 0.125 1
0.875 0.0 1
0.1033212865444282 0.7760404470752873 0
1.0 0.75 1
0.8683850860818445 0.6901605476026925 0
1.0 0.625 1
0.9073475939460661 0.6033573460598555 0
0.7795199527862843 0.6409364609682002 0
0.8400166130298325 0.8568576964336024 0
0.9059006440244673 0.7823073782358684 0
1.0 0.875 1
0.6985071583570254 0.8677430391007418 0
0.6352401874483682 0.7963088933588464 0
0.6174994582699256 0.9092755009252617 0
0.875 1.0 1
0.9145002523639664 0.9145002523639659 0
0.0 0.875 1

Edges
32
1 64 1
1 66 1
2 80 1
2 81 1
3 90 1
3 94 1
4 51 1
4 96 1
5 30 1
5 70 1
6 23 1
6 85 1
7 42 1
7 44 1
9 58 1
9 62 1
10 62 1
10 96 1
11 44 1
11 51 1
22 23 1
22 80 1
29 30 1
29 81 1
35 64 1
35 70 1
41 42 1
41 94 1
53 58 1
53 66 1
83 85 1
83 90 1

Triangles
158
3 94 95 0
5 30 73 0
6 85 86 0
7 40 93 0
7 44 45 0
8 37 74 0
9 57 59 0
9 59 61 0
10 61 82 0
11 51 52 0
12 43 45 0
12 45 46 0
12 46 48 0
12 48 49 0
12 49 79 0
13 17 87 0
13 84 89 0
13 88 91 0
13 91 92 0
14 15 33 0
14 17 38 0
15 14 38 0
15 38 79 0
15 49 74 0
16 38 39 0
16 39 92 0
16 43 79 0
17 13 39 0
17 14 19 0
17 19 25 0
17 25 87 0
18 19 28 0
18 28 77 0
19 14 27 0
19 18 21 0
19 21 25 0
19 27 28 0
20 21 78 0
20 78 86 0
20 86 87 0
21 18 24 0
21 20 25 0
21 24 78 0
22 23 24 0
22 24 76 0
23 6 78 0
24 18 76 0
24 23 78 0
25 20 87 0
26 27 34 0
26 34 36 0
26 36 69 0
26 69 72 0
27 14 33 0
27 26 28 0
27 33 34 0
28 26 72 0
28 31 77 0
29 75 77 0
30 29 31 0
30 31 73 0
31 28 72 0
31 29 77 0
31 72 73 0
32 33 37 0
32 37 56 0
33 15 37 0
33 32 34 0
34 32 36 0
35 67 68 0
35 70 71 0
36 32 55 0
36 55 67 0
36 67 71 0
37 8 56 0
37 15 74 0
38 16 79 0
38 17 39 0
39 13 92 0
40 7 45 0
40 43 92 0
40 92 93 0
41 42 93 0
42 7 93 0
43 12 79 0
43 16 92 0
43 40 45 0
44 11 46 0
45 44 46 0
46 11 52 0
47 48 82 0
48 46 52 0
48 47 49 0
48 50 82 0
49 15 79 0
49 47 60 0
49 60 74 0
50 48 52 0
50 51 4 0
51 50 52 0
54 55 56 0
54 56 57 0
54 57 63 0
54 63 65 0
54 65 67 0
55 32 56 0
55 54 67 0
56 8 57 0
57 8 59 0
57 58 63 0
58 53 63 0
58 57 9 0
59 8 60 0
59 60 61 0
60 8 74 0
60 47 61 0
61 47 82 0
61 62 9 0
62 61 10 0
63 53 65 0
64 35 68 0
64 66 1 0
65 64 68 0
66 64 65 0
66 65 53 0
67 35 71 0
67 65 68 0
69 5 73 0
69 36 71 0
69 70 5 0
70 69 71 0
72 69 73 0
75 22 76 0
75 76 77 0
75 80 22 0
76 18 77 0
78 6 86 0
80 81 2 0
81 75 29 0
81 80 75 0
82 96 10 0
84 13 87 0
84 83 89 0
84 85 83 0
85 84 86 0
86 84 87 0
88 13 89 0
88 41 91 0
88 89 95 0
88 94 41 0
89 90 95 0
90 3 95 0
90 89 83 0
91 41 93 0
92 91 93 0
94 88 95 0
96 50 4 0
96 82 50 0

End
