MeshVersionFormatted 1

Dimension
2

Vertices
1341
0.0 0.0 1
1.0 0.0 1
1.0 1.0 1
0.0 1.0 1
0.5 0.0 1
1.0 0.5 1
0.5 1.0 1
0.25 0.5 0
0.0 0.5 1
0.0 0.75 1
0.25 1.0 1
0.375 0.75 0
0.7291666666666666 0.7291666666666666 0
0.538690476190476 0.5119047619047622 0
0.3910557644110273 0.5857221177944861 0
0.5316602518200254 0.6823877028881726 0
0.654972415227055 0.6020863169829342 0
0.7650644656186915 0.3400724474862056 0
0.6749052114385818 0.45632563128933656 0
0.8276068351983819 0.5514508511724192 0
0.7854616148589596 0.44897904494922575 0
0.7352910988334793 0.5295162491877469 0
0.7601325780042659 0.6301974255277039 0
0.7736121155384761 0.5734663558598555 0
0.7140392862560221 0.5867276498891941 0
0.6987346194295964 0.6491284537217925 0
0.6895479488246486 0.6137980513830927 0
0.7244735266878868 0.623576211854637 0
0.7477968640191492 0.5972994768463565 0
0.7405807748016819 0.5635855712243611 0
0.7066090418391069 0.5514147910707189 0
0.6795990259585076 0.575536154030614 0
0.6515480633650842 0.5169429683171464 0
0.6364305463887948 0.560191510440027 0
0.6547138585473644 0.57715020151169 0
0.6740762187746789 0.54216898213674 0
0.6965122923208599 0.49945996996276004 0
0.677301872047036 0.5166158843496824 0
0.664046122540895 0.48695006484135755 0
0.5902433071700931 0.4435429206149008 0
0.6158420377082224 0.4844638222613515 0
0.6394997377605429 0.49432199872819915 0
0.6401534105062112 0.45943729135716943 0
0.613880947770313 0.522486075798375 0
0.6132460859381 0.4576204614283432 0
0.6303976646947506 0.40376258419603567 0
0.615206622917951 0.4285848296349194 0
0.5722797537692521 0.3852543551748362 0
0.5884209951969492 0.4121922115404194 0
0.604629443784896 0.3841751948266925 0
0.5817611762478534 0.18406790696447872 0
0.75 0.0 1
0.5851296362339108 0.2850432963647001 0
0.586835899467014 0.3361914753826708 0
0.6618252375994399 0.3356745847335518 0
0.6385871028503532 0.3662455494729751 0
0.587735181440678 0.36314900132840044 0
0.6141307221979879 0.3487747040965373 0
0.6156297084225612 0.309628387132314 0
0.5468502810187597 0.35101912697326815 0
0.525521938860036 0.4315766405247391 0
0.5593524166113801 0.4296101878835234 0
0.5406648154769288 0.4001020305286566 0
0.4158772298814514 0.3594450019322227 0
0.4755417397512614 0.38815043502506735 0
0.5064692154736061 0.40303007766380694 0
0.521095722302918 0.37270471788406945 0
0.4774734861725748 0.29476114131348363 0
0.506763661805884 0.32954716818488744 0
0.522528733527643 0.348270313290204 0
0.4637979030579235 0.4521414533004566 0
0.49184823092370755 0.43341993014094043 0
0.4617453952873667 0.4186916280928306 0
0.37172872413777397 0.4410030066924558 0
0.41878639993865846 0.43811551043063285 0
0.44395875760794323 0.4365709146248626 0
0.5027527457343036 0.48013265589504817 0
0.5098536481333064 0.4538459113115982 0
0.4865057377261672 0.4616413476831723 0
0.45457291599768235 0.5060816693321792 0
0.4756681028393647 0.48754681686944634 0
0.4951118306428214 0.5309484519448027 0
0.4949884839721171 0.5049475439604668 0
0.5583274043201226 0.47309394908302627 0
0.5369515084340067 0.45626490724287044 0
0.588108788512696 0.4735986285296138 0
0.5680358848391147 0.4515688387557334 0
0.6548686634008072 0.4281666811919416 0
0.7232409295781782 0.4007242755229499 0
0.6923654068830662 0.42269380533611045 0
0.635138897958947 0.43797993313295847 0
0.7084534749266177 0.5240978521953885 0
0.6502652609467522 0.5407609982377488 0
0.7222809415477357 0.45957286610284404 0
0.7209022726088797 0.43011825072925575 0
0.7520509821083603 0.4434198601436974 0
0.777213317393256 0.395372872240582 0
0.7725280196772445 0.42353145426166783 0
0.8177074636680345 0.41657976428752014 0
1.0 0.25 1
0.7939753258376347 0.412630981245475 0
0.8118485583972741 0.3785023926681828 0
0.7509633836835682 0.4054742375506155 0
0.7530350456694689 0.3716998614960055 0
0.7134168950470592 0.3385297925882382 0
0.7389733829045863 0.34825014863031456 0
0.7402199230471355 0.3065164011359517 0
0.7160808683594644 0.3699821276327292 0
0.6865395052646064 0.35664525889818627 0
0.689409768417725 0.3896732974397524 0
0.6653029299970116 0.37512953639944707 0
0.665144332499063 0.40264330020978284 0
0.7576140533854465 0.4891822598901476 0
0.7656299993074972 0.4649884723932956 0
0.8027821158495533 0.49072262949481704 0
0.6901279653651237 0.2918042337635407 0
0.7119647545238856 0.31008695998223645 0
0.6852992458943191 0.3197538645928975 0
0.6402390228348052 0.24788664185193515 0
0.6184138491590354 0.27496278238494914 0
0.6515271716689182 0.2950668582050387 0
0.6427321710549531 0.272230627959223 0
0.6770007621843447 0.2564214092427472 0
0.5931903126930722 0.23229658855467647 0
0.5956092556739344 0.25965551239172613 0
0.6153794481593997 0.24412113062264015 0
0.6357994234783609 0.1932533664020823 0
0.6166090181506305 0.21508221672160804 0
0.6087523122079297 0.18882528863566211 0
0.591597856539203 0.2072053978909369 0
0.5190023969897096 0.22440892461274478 0
0.5567705145666244 0.22201190519419853 0
0.5584245098945549 0.2591631107932966 0
0.625 0.0 1
0.6115590307428524 0.09395512618854422 0
0.6032343483291889 0.14118544117728773 0
0.6269351924209393 0.16257973919448246 0
0.5988909178700933 0.16582801353273 0
0.5597397584856265 0.14622327375823777 0
0.6407510246102256 0.12344922492389333 0
0.6256887253691296 0.14013540951801248 0
0.6870886230024148 0.1618139051359043 0
0.6571173023366665 0.17047517984199667 0
0.6776002089125629 0.21100961789338085 0
0.677701089140736 0.18551619958205942 0
0.7451758811471345 0.19853011342328197 0
0.7126668006158083 0.18565456270421055 0
0.6649488733341404 0.14138865922481153 0
0.7352474216696876 0.08740092884248123 0
0.6828565429987166 0.09194414165454323 0
0.6665126102290533 0.11398987654674383 0
0.7052795048571538 0.12564901325000738 0
0.6469095398264297 0.08237557333545552 0
0.7177375077236465 0.1545728063993556 0
0.7448180882273996 0.1257638680964369 0
0.7362652465494312 0.173549937355365 0
0.8085790151041052 0.16183435678783883 0
0.7735003210149425 0.1743472159583813 0
0.7153669543250581 0.2263153902445356 0
0.7236729866771434 0.20534374557306992 0
0.7687647084770518 0.25371957583964866 0
0.8082170215976779 0.21624597790956665 0
0.7984889693401568 0.18897424372204302 0
0.7752189231483005 0.2126457661896021 0
0.7893756871456223 0.23591432016906505 0
0.8717771326729234 0.29599225624202374 0
0.8346241654842029 0.2604014844599823 0
0.8004282489255051 0.269540565797931 0
0.8153605972105283 0.24194790419400586 0
0.8586073845538826 0.21608421866020514 0
0.8354321999208222 0.1872633907606595 0
0.8334344032617618 0.22308077966777234 0
1.0 0.125 1
0.8953718362327623 0.09707377577259266 0
0.875 0.0 1
0.8575869960171515 0.13697475268993808 0
0.8786186259363373 0.17626479121103214 0
0.8595333278391066 0.19161151576460975 0
0.851976782509844 0.16452765472476943 0
0.8280715885301793 0.3044289275751329 0
0.8218088577124383 0.28099551971346476 0
0.8483699322756078 0.2832396231178535 0
0.8796669339023476 0.2536526472973698 0
0.7709207843016067 0.28900009658370873 0
0.7986821400194012 0.29972986731046497 0
0.7766227751855501 0.31552586638705293 0
0.8021954221623677 0.3425618576467583 0
0.810459763272137 0.3203238941909847 0
0.8516873222414156 0.3483000075613472 0
0.7826541315965563 0.3656322692208188 0
0.8257744785168403 0.3554954632494729 0
0.8531713296655508 0.39163355893713936 0
1.0 0.375 1
0.9247925639996059 0.36748862073808375 0
0.8853672456798772 0.3688387862155905 0
0.9073345630144937 0.43400053438584046 0
0.9061061683400427 0.39813096738145604 0
0.8796387490027983 0.3948822631592951 0
0.8609799876246919 0.43745618479130627 0
1.0 0.4375 1
0.9570847842795491 0.40820001320011695 0
0.9334481008681134 0.3937858293438209 0
0.9325749712980735 0.4218046641747338 0
0.9623501745512353 0.44656648523025744 0
0.9631376187335186 0.37168738879869806 0
1.0 0.40625 1
0.9778910792499385 0.39289113790258773 0
0.9792080693368211 0.42187499999999906 0
1.0 0.3125 1
1.0 0.34375 1
0.9381782824930632 0.2864609010621864 0
0.903362361416032 0.27997310621088795 0
0.9066256885981561 0.32555560311796383 0
0.9172918208330976 0.30188393489538445 0
0.9495468616618022 0.33065645954235084 0
0.9771294025842535 0.3281249999999999 0
0.9710888469015796 0.2947327732632062 0
0.9628949818415796 0.25772786936139747 0
0.9220838697907752 0.23929243003438191 0
0.9039664807332982 0.2556029085317088 0
0.950551425344443 0.3068380830176266 0
0.9370690795449301 0.26050934077254345 0
1.0 0.1875 1
0.9741343049032406 0.21875 0
1.0 0.21875 1
0.9408814991257383 0.16489703114329962 0
0.9666173610974739 0.1861986618253199 0
1.0 0.15625 1
0.9675229584676995 0.14062499999999908 0
0.9282032238952843 0.12422399582560217 0
0.9440351977139222 0.14160148204840473 0
0.976467353865007 0.16359856320292798 0
0.9317256925723234 0.2021561319190543 0
0.9546291212815642 0.20611065291209726 0
0.9109773754999932 0.17730308258952268 0
0.8937701524867391 0.2088172217750019 0
0.8796086506712208 0.2289984805001265 0
0.917166247938853 0.14997685747196896 0
0.914873892390278 0.2176006605967399 0
0.9558631444533072 0.057350474970267434 0
1.0 0.0625 1
0.9375 0.0 1
0.9671223436533973 0.09822754657229095 0
0.9772759957911817 0.11933222383202541 0
1.0 0.09375 1
0.9763239930658532 0.07370388479543598 0
0.9314333333256782 0.08606858853837872 0
0.9172199310258342 0.10407975812472761 0
0.9444280747381453 0.10638310875933275 0
0.953411507331726 0.08001491029064083 0
0.9077235603152896 0.041149268444998485 0
0.9069098053721704 0.07029581984412091 0
0.9294074287021734 0.056339305057140326 0
0.943675172582074 0.029637861613118908 0
1.0 0.03125 1
0.9717406370326998 0.03383114017308116 0
0.849204160730094 0.054100075967122845 0
0.8751674216279078 0.07249349258244614 0
0.8772319801139216 0.04205830873731022 0
0.8382606786170101 0.09706832071348329 0
0.8668159822370647 0.0999520976926899 0
0.8519908220614324 0.0776875115975214 0
0.7864953704075509 0.09499104992826217 0
0.7593046560301877 0.10177450463304971 0
0.96875 0.0 1
0.9788116562505063 0.24120809272353427 0
0.9852631371728663 0.27218458903551535 0
1.0 0.28125 1
0.9264507129858514 0.34186847434048284 0
0.8801950429987899 0.33943635895479185 0
0.9027989828886697 0.3506162198310092 0
0.884755044664856 0.3160151979925337 0
0.8443119108637561 0.4167199488888046 0
0.8617720135352329 0.3696468321422492 0
0.8292541672737468 0.3953136550897777 0
0.8550118720316776 0.24278657578022358 0
0.747011062557994 0.2303815740811575 0
0.7262354073723858 0.2668987038628248 0
0.7465769221703671 0.28199544386963055 0
0.7454381037020589 0.25365517368250884 0
0.7038556915168446 0.25114515000159854 0
0.7801796441566009 0.1376456697854856 0
0.8149615066785781 0.12557496121736703 0
0.8322902694460913 0.14617154857188583 0
0.8122358597201115 0.09957241279553927 0
0.8065079727937297 0.057152235371514926 0
0.8125 0.0 1
0.7927471665159717 0.11771161648499462 0
0.8389200009863315 0.12138201169605986 0
0.8260463620009505 0.030310474426691 0
0.84375 0.0 1
0.8539162204398062 0.02626322849536628 0
0.7655369254619683 0.05969467207823269 0
0.786799161381818 0.07094007387767129 0
0.78125 0.0 1
0.7948608414671594 0.028142194699340255 0
0.7634634957581536 0.02836507136513289 0
0.6875 0.0 1
0.71875 0.03221059190969763 0
0.7424143213233833 0.04549154176661959 0
0.675592129153812 0.04692817411571283 0
0.6691688959852643 0.0710588460601781 0
0.7556334328632546 0.1521370578299761 0
0.7250935231250201 0.11030939147864348 0
0.633560492694631 0.10137256391651507 0
0.662944653962903 0.2335260130877015 0
0.6421959683285171 0.21822662252181943 0
0.535348403933785 0.18322015043865647 0
0.5369004078271323 0.207673963816317 0
0.558765289691485 0.1721196467117782 0
0.5778569695929778 0.1123636957706195 0
0.4924052248948525 0.08841788290254622 0
0.5324777335800966 0.10985944073050337 0
0.5545837093303337 0.12168766344336449 0
0.5805459498997958 0.13557925398205253 0
0.6020662498528314 0.11663075538423091 0
0.5713599853536757 0.23997479392756094 0
0.5390417540582665 0.241413622162274 0
0.5036677980342222 0.26279027701887725 0
0.5114466032447014 0.2958797646433161 0
0.5318834215331322 0.27361631838436656 0
0.5495531493966349 0.3103480668558513 0
0.5552768479326589 0.28497882774927813 0
0.5259647385362783 0.3150585402637529 0
0.570227664578159 0.27370200005044204 0
0.5624013370974427 0.33162725830112705 0
0.5789254323351924 0.3108528130647323 0
0.3870126018310716 0.19392871917936227 0
0.25 0.0 1
0.4400253940638486 0.23736306613995986 0
0.479513895526779 0.23088599537635143 0
0.4495295353850867 0.1716940602284443 0
0.4551616994339113 0.20603145229941783 0
0.49177573988926954 0.18239526106766538 0
0.4683228748458306 0.18624209902980726 0
0.4221828770594344 0.19381017630860245 0
0.40470738738328815 0.2264007010719612 0
0.4032359880623121 0.2935152706352263 0
0.4135864149447229 0.2601687761961045 0
0.3502182967786051 0.25877951293109475 0
0.38170333220078956 0.2685521610762362 0
0.3742044944670748 0.23710675575546525 0
0.31544902929069396 0.19618915795098443 0
0.3400857851545254 0.22345574391250314 0
0.3649146904175201 0.21086239343789207 0
0.35040921719037316 0.16904783163976134 0
0.26893547960828446 0.2629801084279306 0
0.3090901801131193 0.2514618593585136 0
0.31226960470190634 0.22382550865474896 0
0.33144620853863105 0.24504910318375406 0
0.3489065845928024 0.31861031309930543 0
0.37247621018410876 0.2982796473445742 0
0.3435415420248032 0.2885629126722204 0
0.29347065559356106 0.3130058729207903 0
0.3219866673924316 0.30791426382995507 0
0.3160126998190153 0.2795797137689744 0
0.31666786177247713 0.36052485852216043 0
0.32681877875134296 0.3349769353874036 0
0.36633221974543523 0.3654673357607407 0
0.38188479269065223 0.33301478026230896 0
0.3509867746963847 0.34450542900450337 0
0.390450352811187 0.357072729733393 0
0.3924162317684718 0.40156441946035065 0
0.4404779685299522 0.28679523538126933 0
0.4383049913409142 0.26209697361122064 0
0.42688818517786775 0.21731378942605906 0
0.40442929048263276 0.1438926221505892 0
0.4045239427605798 0.1719748395380933 0
0.4269395434046266 0.15785801861834328 0
0.4622492849100622 0.12556736082233805 0
0.430756601330845 0.12658108116064298 0
0.37814208820511375 0.15802249246415484 0
0.375 0.0 1
0.33103273052900756 0.07991672111561444 0
0.3481112742643839 0.12287567620886986 0
0.3785524713468261 0.12726868616389295 0
0.36840264824383034 0.08993443370658735 0
0.35713347877795854 0.14556991083134327 0
0.3193500942947236 0.147450352848462 0
0.404501786753055 0.11532787783274127 0
0.4390182144179972 0.07105182088380503 0
0.4275836365286912 0.0977297999010921 0
0.4582262190196816 0.09507416126714317 0
0.40105716050987394 0.07057065401252342 0
0.3927181059483784 0.09372361357436915 0
0.4375 0.0 1
0.4204801234674749 0.03590580653911679 0
0.4201934944355876 0.05851904277896758 0
0.46486349763979923 0.03495743564939685 0
0.47002224691497896 0.06595175745192855 0
0.5128747189916213 0.04564101486872643 0
0.4873464800105669 0.04714180517483704 0
0.47389918266807624 0.08447230214170301 0
0.5689611349482795 0.05602253691769471 0
0.5625 0.0 1
0.583479794225341 0.08260302382560585 0
0.6133968573988089 0.04900647890104115 0
0.5924330866335834 0.06045720386169529 0
0.586962793514212 0.02552689457925093 0
0.59375 0.0 1
0.5509652389524314 0.08310756213096236 0
0.5399159108728463 0.056245191320386446 0
0.5173304062026172 0.07405908361984898 0
0.5542331061114658 0.029337282122526644 0
0.53125 0.0 1
0.515625 0.020228797104789926 0
0.6128515139906698 0.023000496178722622 0
0.6440730253433149 0.03535449281154942 0
0.6676210468795847 0.01993065931652248 0
0.65625 0.0 1
0.6929302327931699 0.027133558443090594 0
0.6364041167545872 0.059413210129429274 0
0.4424345038890149 0.024325765143088783 0
0.40625 0.0 1
0.3824220751438737 0.037355445324174556 0
0.37478212262079924 0.06347689538052712 0
0.3125 0.0 1
0.3407506728750202 0.03934545655190278 0
0.2872132416629872 0.047971248470413105 0
0.31577925778814936 0.054813601075017176 0
0.3160097064021633 0.02729492198706545 0
0.3496080386400149 0.06291653169572958 0
0.36081669305887915 0.022233112471356526 0
0.34375 0.0 1
0.40092741773558666 0.02288216755290918 0
0.32501899197054673 0.17242961631762813 0
0.2822386605202648 0.16900546889484144 0
0.2715910209433283 0.10794850494871991 0
0.29649455374890443 0.08371742814587907 0
0.3044663013103102 0.11682326979097603 0
0.3255008825855607 0.12553119673887636 0
0.28118639338185913 0.13773207675736562 0
0.1699581759785436 0.15712901190043516 0
0.0 0.25 1
0.2269292966303302 0.1552120839945499 0
0.24926015878682942 0.13158029447163486 0
0.125 0.0 1
0.2030296770765736 0.0655281254921911 0
0.23294388182572462 0.09379555662036866 0
0.21673342108745414 0.1232108201489388 0
0.2024119233509183 0.0961440403834215 0
0.18186543873570313 0.12433780305736472 0
0.15033922345980053 0.0797791517858087 0
0.1787668055310287 0.08035275034715386 0
0.1875 0.0 1
0.17000774968446222 0.038749804453920914 0
0.1640803942394964 0.10348904174183891 0
0.0 0.125 1
0.08459334144439482 0.13371928914068795 0
0.12186926006377372 0.11211586691186991 0
0.1517976542110215 0.13197698867619098 0
0.11927766404737726 0.17458964020174045 0
0.14197869237919045 0.15819881090385549 0
0.11424692806803363 0.14370646418944646 0
0.15773783088766366 0.20394064753317465 0
0.156772280829544 0.17868768699653723 0
0.19902225242359925 0.189717193357091 0
0.19819659619440663 0.14882554087487332 0
0.24922488671255152 0.10918029401168947 0
0.25521590510015113 0.15957484772687303 0
0.2518560666155501 0.2126333947475627 0
0.28421780313800366 0.20659722467383093 0
0.26095061220875654 0.18657363931416382 0
0.2301021317287309 0.1904247074658773 0
0.27252761304324136 0.23369119588605236 0
0.19979045481808053 0.25897391780754364 0
0.21658480211101147 0.22542384250734224 0
0.2422965104159422 0.24484824226869967 0
0.1858080445177062 0.21838914045439564 0
0.15002377612854204 0.25341868578987226 0
0.1620981672334901 0.22996082484779565 0
0.12075010496330674 0.2235143037694747 0
0.1754144313033788 0.25165150082032045 0
0.16755688027553342 0.32204355934200085 0
0.17791401116425998 0.28756509867403085 0
0.13561261064874 0.29365284328783836 0
0.15817683483874728 0.300431006199142 0
0.2308538496961547 0.3222627626319157 0
0.23554428383629686 0.28340312540754387 0
0.20684104840044643 0.2870335884492154 0
0.19921965491540583 0.31802681217683665 0
0.19569951571176894 0.417080944084117 0
0.20863529657215565 0.36795103530678375 0
0.18671207432275225 0.34623572540631714 0
0.1707743382707166 0.38425027423568453 0
0.21286186255075498 0.3417597846710563 0
0.25421375894975556 0.36186952516086646 0
0.10007825528024256 0.4638000093329102 0
0.14327776624875224 0.43100276574245694 0
0.1666290793549604 0.4132743543106812 0
0.19608186318358628 0.39091368160888723 0
0.23925690641725156 0.4046309658102502 0
0.10853822108707559 0.35628268878997904 0
0.0 0.375 1
0.1324020693316975 0.3294318971014289 0
0.07975848240011348 0.3066744885675003 0
0.102327945490833 0.3267332729939274 0
0.10728196828071224 0.29843258582998033 0
0.07919455015480525 0.25471355033427967 0
0.08695010815916576 0.28061290853192516 0
0.11437022730646644 0.2582910796423429 0
0.0 0.3125 1
0.03805532217798496 0.28114356381606304 0
0.06257903983010699 0.2879108204188469 0
0.03992575178566686 0.3221844720333236 0
0.06933097105829238 0.34909540895165964 0
0.0987204529784293 0.23744650400560124 0
0.04305998106954584 0.1941782422316186 0
0.0 0.1875 1
0.06682074294063048 0.2210473615053363 0
0.081176077241934 0.18441216860953596 0
0.09608641525159332 0.20889876476172559 0
0.06461849269007428 0.19905428693463928 0
0.09585780607162167 0.16255330332199813 0
0.09715858079815781 0.1454278071505996 0
0.0306312675329199 0.22910969572535492 0
0.026681051181007914 0.25621985842793116 0
0.0530461789121197 0.2592450289086359 0
0.05139699783265506 0.23706783819057548 0
0.019273025073733456 0.2053915866683236 0
0.0 0.21875 1
0.13419096694583432 0.27044564421248113 0
0.1429822878733092 0.36286513340063636 0
0.16172518304525088 0.3463406177138317 0
0.13584197485253963 0.39696555415997603 0
0.12254773865768095 0.37638409577400045 0
0.08216959924825191 0.38959270754364494 0
0.10512831543032594 0.42150609989337295 0
0.1265500160466124 0.41682630123393144 0
0.10667371416028676 0.3961793031689703 0
0.08650658797315654 0.3659340487555513 0
0.041454116871451924 0.38021677737261905 0
0.0 0.4375 1
0.05333249448108645 0.43455334720665645 0
0.08230341726521576 0.44022917003372847 0
0.07221698811944224 0.41493741757985353 0
0.04523264963572334 0.40785739774276897 0
0.026233743653823357 0.4281986406556052 0
0.016406782825723023 0.39997697282562766 0
0.0 0.40625 1
0.025845711703733485 0.46875 0
0.0 0.46875 1
0.06340812791807571 0.4729656103217676 0
0.04618720896448712 0.4569551371891869 0
0.0 0.625 1
0.11005675485813939 0.5816609213276963 0
0.09552908984354468 0.5235380195116854 0
0.08787441812629733 0.4929128824226643 0
0.04579908199272969 0.5195421313422893 0
0.07132469152530727 0.5133186436355627 0
0.06797308484369403 0.5550303781795948 0
0.13776474801475538 0.49671212788924096 0
0.11345106836419534 0.4865200665920321 0
0.13735541128394488 0.46359183221672995 0
0.11988888497516201 0.44358500752556057 0
0.19443624516468905 0.47944904237745023 0
0.1768799584595274 0.44789659549577143 0
0.1632728859886133 0.43309669863346945 0
0.16486127115178975 0.4752445085428215 0
0.14660840913462897 0.48004015093021996 0
0.09826254650139782 0.5537318258368252 0
0.15085812023634462 0.5479760256722747 0
0.17432694865724027 0.514780741717554 0
0.12296487464041712 0.5362748811743895 0
0.12842470971245112 0.5623562995942042 0
0.19921628996084867 0.6481037266001262 0
0.16899496091913693 0.6009580682732366 0
0.13952585788863778 0.5913094948004655 0
0.09109280595732784 0.6894086696034363 0
0.13637518983990993 0.6507596160751189 0
0.1459684414111031 0.6214594796615018 0
0.10342153790730278 0.6237496084495703 0
0.1251393644423239 0.6308603116418314 0
0.11885525806657277 0.6046153513066321 0
0.1675983809706616 0.6447619543260777 0
0.16153461816511241 0.5739165690074685 0
0.2324561569934766 0.5689002313889348 0
0.19750010007129187 0.5785440815100268 0
0.1453175314822044 0.5220871082756005 0
0.11767725058418574 0.5117472652830408 0
0.20171799300897203 0.6132410104270405 0
0.22039741261508147 0.5933654317486219 0
0.24346231338315277 0.6337576459790103 0
0.2184311650440446 0.6319614434173095 0
0.1793088267074323 0.6232111069971684 0
0.20554448674571552 0.5395280415329659 0
0.17938325113582457 0.5514031395981142 0
0.21149365045083524 0.561091971136219 0
0.16862958866542113 0.7344014543289918 0
0.17885989477462913 0.6894580839923696 0
0.1565126322329346 0.6713218639077785 0
0.1814405856419132 0.6650410853814095 0
0.24071417416696073 0.5343192618976041 0
0.3125577075314975 0.5697521690615931 0
0.2881289812763839 0.5287325010533375 0
0.2633009030812823 0.5220147222567925 0
0.2676624414783331 0.5590310735131263 0
0.2926309347030997 0.553835359684364 0
0.2046184388021227 0.508632839430852 0
0.22890559302019828 0.5127083199322453 0
0.10315204689181616 0.6576860134163766 0
0.051903426596994116 0.6403097725611192 0
0.07239164278913984 0.664146032975094 0
0.07939085039257335 0.6374065854227997 0
0.07249786475924576 0.5973071793748571 0
0.08548603418104432 0.5755820755675558 0
0.0 0.6875 1
0.045224651140205234 0.7038102024355685 0
0.0656680051886209 0.6886766078947856 0
0.07732219785498959 0.725794623020015 0
0.1248297934925319 0.6840801863373568 0
0.04079226975763477 0.7447051712978205 0
0.11271907435188756 0.8389096720054386 0
0.0 0.875 1
0.028852256625127803 0.8124999999999999 0
0.0 0.8125 1
0.0 0.84375 1
0.0 0.78125 1
0.022767890717339374 0.7656249999999998 0
0.06519015417335676 0.7839509731892663 0
0.0482731342049726 0.8593749999999999 0
0.021607824883642792 0.8593749999999999 0
0.03494047954430735 0.9005659777755426 0
0.0 0.9375 1
0.0349404795443096 0.8374382277011941 0
0.07400875377675806 0.8287134720111936 0
0.08532255044728994 0.8643409617468707 0
0.09095929047792191 0.8429408309424923 0
0.06837201374612753 0.8501136028155728 0
0.06342359645531387 0.8870321256099805 0
0.125 1.0 1
0.12644892437952152 0.925944285874897 0
0.099175087959842 0.8996226528135691 0
0.06792713950760415 0.9592920772337364 0
0.0625 1.0 1
0.06320708786026082 0.9233159349844491 0
0.03217202461482285 0.9329412334173917 0
0.020837116221880198 0.96875 0
0.0 0.96875 1
0.0942916598246087 0.937535360199506 0
0.08486768832157603 0.9170506212564499 0
0.10129421656991834 0.9728734299183782 0
0.09375 1.0 1
0.0781250000000012 0.9813673775707406 0
0.1875 1.0 1
0.13968510002566392 0.9632452874037886 0
0.11705222603653943 0.9502775971254126 0
0.12295007886417937 0.9778699445631075 0
0.15625 1.0 1
0.042769969201250015 0.9559942666839342 0
0.03125 1.0 1
0.04687500000000122 0.9805796303260398 0
0.14615375755795562 0.8782355569411308 0
0.11604129779926714 0.8699610811988132 0
0.12688543145191963 0.8982009281273569 0
0.19016084453389281 0.9243351699514846 0
0.1590589705188535 0.9099707080011686 0
0.15243530979886646 0.9377219902413023 0
0.1760230158728437 0.9654516158323384 0
0.17526269984964318 0.9422013236987316 0
0.15705386270922522 0.9775275535673354 0
0.21875 0.9704382191756669 0
0.21875 1.0 1
0.19622209788355355 0.9779219953706355 0
0.375 1.0 1
0.3125 0.9026325338836249 0
0.27203926178319154 0.9454039107769455 0
0.2503068387972733 0.9683774326478225 0
0.2324301294157846 0.9297005300438553 0
0.2334376371175073 0.9527046690619314 0
0.26705636594947224 0.9001670539435659 0
0.21761126916220036 0.8772609665949826 0
0.18194286583098682 0.882173338834914 0
0.20257511959738392 0.9000336201970929 0
0.18975993239342556 0.8069834107198568 0
0.1681704066666612 0.8427401831697902 0
0.19637449016209468 0.8550112683061817 0
0.1898587563483338 0.8314392186961722 0
0.24643869740054022 0.8284860737099781 0
0.21758171214313532 0.8190990888014709 0
0.2243574715306757 0.8473182194101982 0
0.2514005893137381 0.8691424701674995 0
0.25986379295823847 0.738166515858263 0
0.22237423743664286 0.7700917512780985 0
0.21204149474432907 0.7938192958248824 0
0.1850675897304167 0.7679592499365064 0
0.21292522699247748 0.8604738407054857 0
0.29157215670976433 0.868333337121022 0
0.2716804064110268 0.8783712090814848 0
0.16563914541949284 0.8657459222599192 0
0.2710307188016281 0.8461157355213571 0
0.3332830758340497 0.809164551711247 0
0.28562580298153323 0.7997898968678115 0
0.27073551622813946 0.8205607008926201 0
0.3053031001561732 0.8329406109408364 0
0.2512249737784153 0.7908511604833394 0
0.29138566192328613 0.8479010968103539 0
0.27557795660919426 0.7677937880453846 0
0.24872188556821923 0.7630571250814945 0
0.315691036273817 0.7727726758577118 0
0.2944994945474322 0.779427527447367 0
0.35496341494452033 0.8630298859259677 0
0.33514725970146686 0.8397099767528078 0
0.32359602815536004 0.8696050367472545 0
0.380041319508042 0.8216404993265204 0
0.3545832367053478 0.8231942032671786 0
0.3651319662484501 0.7866920381465327 0
0.3086562358690797 0.8085349954258024 0
0.34547881471076125 0.7617334943944747 0
0.33711203376018434 0.7848656278282394 0
0.3268724406634931 0.671916274035981 0
0.31362757222030896 0.7214958988867979 0
0.3230045577302123 0.7467984602864457 0
0.3506168924435631 0.7221766764290853 0
0.29316902129290323 0.7434665311139974 0
0.3325243968460277 0.6999851085720268 0
0.3863981675126857 0.6745335982597979 0
0.3563113818389844 0.6805918902092791 0
0.36151590858994503 0.6287008112562519 0
0.34827415644367443 0.6535792404502007 0
0.37426515020139434 0.6514499330995287 0
0.3988537615162593 0.6227227143436076 0
0.3132557762258987 0.6189771832130883 0
0.32226475967912904 0.6448806907697536 0
0.28215897479426005 0.6443107142574795 0
0.38862497369332166 0.7134638963692751 0
0.3719684457139143 0.7280609272453135 0
0.27521313082809 0.7490062951332634 0
0.45840835104104727 0.6899434639868147 0
0.42028782235972745 0.6921239514990845 0
0.43810938553637996 0.7527260796721007 0
0.4409460596534495 0.7189703840350152 0
0.4146123357427105 0.717862656347929 0
0.5026242757596879 0.74115057730551 0
0.4754227481820344 0.7199451732005085 0
0.47146681398388607 0.7530689742191241 0
0.5344020755382323 0.8709107621507549 0
0.5103488667099118 0.8080300794477209 0
0.4542371797511883 0.8064920647945916 0
0.4545393171018443 0.7770995733033796 0
0.41094699288332087 0.7887603547436404 0
0.4350615950559677 0.7915971525341671 0
0.4186740766749644 0.8269883802295052 0
0.48270894441180084 0.7920869389785874 0
0.5115571661203815 0.7740046740264659 0
0.48850906768154784 0.7692872034453511 0
0.6293530881299652 0.7952219625482373 0
0.75 1.0 1
0.5689307892733527 0.7930762650265237 0
0.5530259715839706 0.7450880247136804 0
0.5271210822430344 0.7521314548908635 0
0.5417487386346795 0.7790136533326552 0
0.5423470830283679 0.8111589080349856 0
0.5315884420463431 0.7174026178456674 0
0.502652814024948 0.6998357445658573 0
0.5826590720066093 0.6999998241098391 0
0.5541387436762231 0.6999413336544097 0
0.5683519270529731 0.7228787183701465 0
0.6213311060483278 0.7400959706236852 0
0.5969904880738242 0.7248747477070494 0
0.5906237999907404 0.7621283101000443 0
0.639648361895835 0.6837319723527499 0
0.6131841890413302 0.6989790170550356 0
0.595876990521153 0.6383487034546598 0
0.5652554850889209 0.6625363167288517 0
0.5969630165442631 0.6708240584222463 0
0.6254612510061489 0.6536151967733786 0
0.6246315046701951 0.6189248654345781 0
0.6268787134520181 0.5888244688678657 0
0.5918798825274015 0.561239303389548 0
0.614343785184069 0.5687331656051927 0
0.5927019253799342 0.5961913946585748 0
0.6021747831833824 0.6166761681380076 0
0.5328468778044834 0.580113420928989 0
0.5651377963755935 0.5793539665487419 0
0.559725001322018 0.5425666676434617 0
0.5499621015154716 0.6209666958905665 0
0.5688382418960304 0.6042770448315209 0
0.6622993901421691 0.6546618021236686 0
0.6780495032923148 0.6356474644546792 0
0.6503587477616894 0.629527572570375 0
0.5864601939090996 0.8474286210937114 0
0.5697234430529979 0.8228235416235297 0
0.5453930309127506 0.8419680555190854 0
0.5631893465583202 0.8652844371997996 0
0.625 1.0 1
0.6231351764534914 0.9193177560050102 0
0.5981550212427932 0.8867620119688303 0
0.5576652248560007 0.9134787498976763 0
0.5527843396025502 0.888505544859947 0
0.5158562443584666 0.9086865268408498 0
0.5088435228978544 0.8446466810201472 0
0.6035920517295523 0.817780433230561 0
0.6011566544078252 0.7890109228249912 0
0.6204866619469442 0.7683655337124555 0
0.6801612092471373 0.7635562819725122 0
0.6494472887101527 0.7550832268754677 0
0.6578837533770391 0.7844058124691449 0
0.7580356197345584 0.8690904437314981 0
0.7129186028275761 0.8208834899443086 0
0.6619156197867013 0.8380779423487204 0
0.6519677920499714 0.811837723692654 0
0.630268832370848 0.8350696828787917 0
0.682611550209486 0.8152262377019086 0
0.7033096236839832 0.7883515952597235 0
0.6801173229686072 0.7918974054758411 0
0.7755872946961594 0.7846879197042873 0
1.0 0.75 1
0.7398900654134034 0.7952318469789732 0
0.6421296743662331 0.8782597219991297 0
0.6443964236274868 0.8544135967851839 0
0.6147385034963234 0.8612429826999484 0
0.6770460590755201 0.7149444991898518 0
0.6477664105355668 0.7243698725968132 0
0.6565561850401822 0.7014841763291223 0
0.6701920857337796 0.7397894211418368 0
0.7008377777937965 0.7409091676483535 0
0.726735864019373 0.7633454331489615 0
0.7522760462667315 0.7714657410984563 0
0.7971698611504433 0.7194765238158982 0
0.7798932916741297 0.7499358312474991 0
0.8651008240558171 0.7781363812430965 0
0.8253016081527561 0.7555622002576605 0
0.8004444514244561 0.7701250599809748 0
0.8239695278180854 0.8387753176861461 0
0.8052553731606847 0.8068323693782713 0
0.7847374216803991 0.8403064830549299 0
0.8039441869746704 0.8290539720869033 0
0.7776160029487925 0.812916116798932 0
0.8420176240716456 0.8067481979515873 0
0.8252164811495458 0.7839125074467431 0
1.0 0.875 1
0.9100692611784142 0.8661958660819065 0
0.8893101961810236 0.8212851571237197 0
0.8685724241239928 0.8045545124220663 0
0.8587567788967185 0.8379387276921332 0
0.8853478303526762 0.8503697634330218 0
0.8429972304570372 0.906305540784713 0
0.875 1.0 1
0.8781129921297091 0.8888923801348597 0
0.8421266538261352 0.8701050506293075 0
0.8055567916901106 0.8703727483889687 0
0.8239765117060511 0.8886522521250878 0
0.7806033501316579 0.9139378576823639 0
0.8129592982841131 0.9195965424271982 0
0.7989075856824336 0.8954932161418518 0
0.7740527266297039 0.8891323294801791 0
0.7185700104337186 0.9170518653129782 0
0.7492580247491308 0.9089477997125945 0
0.7448766820111469 0.9545126261199399 0
0.8125 1.0 1
0.7895929749045397 0.957869658991576 0
0.7937439657265548 0.9341345951251747 0
0.7664681148095829 0.9375078865462932 0
0.7386464912580883 0.9309204944115569 0
0.7819377404149971 0.8644864346207635 0
0.8557398424213126 0.8878883836437034 0
0.803762633184247 0.743345258085628 0
0.7625479262597185 0.7199682082552452 0
0.7513521398219621 0.7445082562784374 0
0.7792181126434751 0.6746018000407168 0
0.7346729489153946 0.6839793745298497 0
0.7412107705778418 0.7077051677362564 0
0.7375603271322796 0.6524291271151029 0
0.7168162485981369 0.6664379406166459 0
0.6853570116835636 0.6812016613664919 0
0.6622546801442009 0.6779867158105084 0
0.7078588713251048 0.7046388545281038 0
0.7549749776873649 0.6699301060411466 0
0.7795856631175059 0.7004828480516939 0
0.6818889087628716 0.6609286519901845 0
0.4816730933614208 0.8253793943953551 0
0.45055729853529314 0.8412079936491773 0
0.4108241582106206 0.8874435619290891 0
0.4237822621676375 0.8583888969985171 0
0.389355467313499 0.8604518022053317 0
0.4641966922728097 0.8938302760445807 0
0.4498007901757549 0.8694828437823552 0
0.48315992321673745 0.8661882423245605 0
0.472649933395667 0.8461396538189954 0
0.49243652247120945 0.892877934534446 0
0.508429619300556 0.8723621853151935 0
0.4797842325170218 0.9368736667588478 0
0.49324758180824224 0.9169283174222296 0
0.517253091146531 0.9476489588079764 0
0.4910713007463282 0.6477449228161828 0
0.5055727602727648 0.671853656215702 0
0.5301707663933095 0.6485066361071982 0
0.47847644920679727 0.6717364530853148 0
0.4441058239622945 0.6383911508774187 0
0.4529019277915644 0.6637109676217877 0
0.5524623418797967 0.6436448758920557 0
0.41636529588114213 0.6582399504348871 0
0.42019140772235075 0.6342779215627057 0
0.4402519677047287 0.5892214495066246 0
0.41475927924214623 0.600048549293541 0
0.39676985962200506 0.6458257583195955 0
0.5348777034296534 0.9275108414904615 0
0.5625 1.0 1
0.568307135839429 0.9562797916520895 0
0.5893362628988068 0.928327672462777 0
0.6075956184525105 0.9639511211624487 0
0.610535609917072 0.9399528991505665 0
0.6644345127034748 0.9587351830501705 0
0.6875 1.0 1
0.6395252216892782 0.9434894599150088 0
0.6383881478813759 0.9733192111656248 0
0.65625 1.0 1
0.6739904081968634 0.9151503033939475 0
0.6487556899169621 0.9195879501032741 0
0.671875000000001 0.9816550095696114 0
0.7078983156651241 0.9667994740022222 0
0.5898144351134351 0.9505738612426932 0
0.6023850858623679 0.9093778256477716 0
0.71875 1.0 1
0.7343749999999998 0.9787276587161281 0
0.5839509636706882 0.9806034533126987 0
0.59375 1.0 1
0.53125 1.0 1
0.5468749999999989 0.9756788391457192 0
0.5438914016658217 0.9508438759808275 0
0.515625 0.9761309277450324 0
0.4375 1.0 1
0.4817906944789102 0.9710312571415683 0
0.46875 1.0 1
0.4954034267913994 0.9530939009669506 0
0.397465690356479 0.8379821853226685 0
0.7582174462764404 0.6925067561549454 0
0.8838875108049558 0.9446515890420144 0
0.8431132779303369 0.9471564779585615 0
0.8158980457578789 0.9502396022911574 0
0.8087477019376822 0.9747475404954993 0
0.78125 1.0 1
0.7656249999999999 0.975207919643614 0
0.8340868137140868 0.9267564865070254 0
0.8649808962341762 0.9700034366627778 0
0.8377890862309325 0.9833372501765789 0
0.84375 1.0 1
0.8623191735344361 0.9266762853109398 0
0.9191464153128514 0.9128215028683356 0
0.9040487958518012 0.8915643358705089 0
0.8908544661558355 0.9169254576009132 0
0.878933523220932 0.928668377427256 0
0.7468222063331021 0.8295260740997864 0
0.7624992734476457 0.8464540970656518 0
0.760688197586912 0.7999456885236126 0
0.5263054799813677 0.5429470062337707 0
0.5432016031083022 0.5591320990192853 0
0.586901038683496 0.5327908438147092 0
0.5910827843640816 0.5032677385557639 0
0.5660730334627633 0.5147829890603439 0
0.5654892857213025 0.7675870884599112 0
0.40125415732935277 0.8106145368553618 0
0.38868829601799104 0.7733543429890368 0
0.412980923045216 0.7620389661299594 0
0.3992540445475867 0.7394137596452316 0
0.398119718487917 0.693391963127866 0
0.3662547328229254 0.7031357871284186 0
0.27348654668563294 0.6019129845383192 0
0.2881352026776285 0.5798956063701834 0
0.2478958333076389 0.5917147914196362 0
0.26652250016549367 0.6254233103673869 0
0.24993895214439468 0.6862329181358287 0
0.22884134057731098 0.6621995237748811 0
0.21673935293409266 0.6494549047730218 0
0.21476198470491445 0.695835946426703 0
0.2389600852231613 0.715246198389405 0
0.20572093940365188 0.7318957100664738 0
0.19377492387253517 0.7097372732415312 0
0.23141565615063844 0.7416886044743523 0
0.1880236175625733 0.7457063594334674 0
0.2574563114344166 0.6586677873628978 0
0.37733864079162505 0.6079350716074636 0
0.3519713105277075 0.5769282001365615 0
0.3410677198434553 0.5249894664257118 0
0.31530210605025866 0.5368143856245134 0
0.3381921773654762 0.5527070061107903 0
0.37965273496915797 0.5451506004010438 0
0.38257591530711876 0.49255294807832034 0
0.36918099766251744 0.5181885646342583 0
0.37439547324978184 0.568516432470025 0
0.4178713241714049 0.5562971111352567 0
0.40762781698087736 0.5203252947224941 0
0.4014431795246601 0.54153086514181 0
0.43665303417954754 0.5315043378406527 0
0.3284767831015551 0.594143874609183 0
0.35181799415322046 0.6049003153360591 0
0.30704979692616957 0.8824237875786133 0
0.12519895716447457 0.7764804855593409 0
0.15006969965209138 0.8074150463693781 0
0.16972340566048139 0.7895984538257201 0
0.11822910012029555 0.8075491652739426 0
0.09594371819714118 0.7862335890899805 0
0.07912980598385404 0.8044546607871733 0
0.10067969613720089 0.7516862421538426 0
0.07114422386968518 0.7548494436763928 0
0.13456623681373506 0.7426963085298756 0
0.1557601368989063 0.7634373929170405 0
0.14673975615490878 0.7846271917329501 0
0.11261757939362503 0.716225396812549 0
0.1454886646098794 0.7103210138044439 0
0.16903071069081027 0.7108567303548234 0
0.09214954684129362 0.7106073883100387 0
0.09758396317508065 0.8198435090299278 0
0.14088717146852545 0.8344201985331539 0
0.13572305049585293 0.8572651233443825 0
0.25756583799504457 0.9241053118494835 0
0.0 0.90625 1
0.06013061720244485 0.737323375817789 0
0.0 0.71875 1
0.018711646778813585 0.7343749999999997 0
0.019918317805765678 0.7031250000000003 0
0.03346488654436897 0.670471906155261 0
0.022826115210525442 0.6432513370301111 0
0.0 0.65625 1
0.0247451503311628 0.5810374940228402 0
0.0 0.5625 1
0.0 0.59375 1
0.02985309319074554 0.5484345225544167 0
0.028863616553782438 0.6123010499465737 0
0.03615143026534035 0.6297867046070248 0
0.046972444486521964 0.5940124571812899 0
0.04615202337496493 0.5676897128083206 0
0.017380955933867532 0.5227044620000401 0
0.0 0.53125 1
0.02889103449188696 0.49686900790743926 0
0.05370179221756499 0.49582288737649455 0
0.040380137238573297 0.3512087836594913 0
0.05387154243187951 0.15710991855767123 0
0.0 0.15625 1
0.024471166805068525 0.17187500000000003 0
0.027192046733649018 0.140625 0
0.06407974138469233 0.32531254456882547 0
0.023595630359445306 0.3023656371237999 0
0.0 0.28125 1
0.13047748718021587 0.24327240326929797 0
0.26046055695395015 0.30612345915113337 0
0.2814928024139167 0.28785089000487657 0
0.2584356927484081 0.2833216353741602 0
0.256394929759556 0.3338909078589825 0
0.2852042760700366 0.3502111700938325 0
0.2868839650560713 0.3982362449448163 0
0.2948562469092617 0.3739155011997469 0
0.3031101710369745 0.33466858061024196 0
0.13129807066203839 0.19871236214082902 0
0.1041854359348918 0.12456390354706713 0
0.0625 0.0 1
0.0658771802715091 0.06812681157609514 0
0.08050076340459816 0.09942059157076268 0
0.10906629651943525 0.06700822804608855 0
0.0877156578292967 0.07698538132968008 0
0.03839532725718758 0.1000327713987472 0
0.0 0.0625 1
0.05446902668955201 0.12631118623827223 0
0.0593103950424214 0.09025916039542076 0
0.022415248820157233 0.11746448139637693 0
0.0 0.09375 1
0.03276111586903609 0.06739122625600781 0
0.05005204063522853 0.03476418239825283 0
0.03125 0.0 1
0.08670114999893579 0.037814684243131544 0
0.06955460045719154 0.022136732746733376 0
0.09375 0.0 1
0.12125373127487259 0.03450771492758294 0
0.10254590407231275 0.021203914295482792 0
0.13446664919140566 0.05799780665921462 0
0.06659582021288112 0.14195160329150613 0
0.12558871703008342 0.08668940743482197 0
0.15625 0.0 1
0.14662206974149655 0.02523548645097015 0
0.20388743302613382 0.030720572154037253 0
0.24352853928702936 0.049111785861363506 0
0.21971401682840563 0.04852492909132946 0
0.2314633167732042 0.022144351446819806 0
0.21875 0.0 1
0.26414919382109653 0.07538728998896171 0
0.26480673592107973 0.026933348965572482 0
0.2904817307458466 0.01670431824046285 0
0.28125 0.0 1
0.34598597914643203 0.09884629068146698 0
0.47641623678081657 0.15429112188538682 0
0.4990537811436657 0.12527042758673507 0
0.5271497376003546 0.1422549567754474 0
0.5039679280799225 0.15748275848824453 0
0.5096635885240804 0.1043303111655279 0
0.4805238069538893 0.10958741019377082 0
0.4709833835097325 0.26272751117599447 0
0.42778100798700075 0.3229858245304915 0
0.45601526620640975 0.35237705593458385 0
0.45942605971298056 0.32084349675226437 0
0.4805422039905152 0.33907874377863517 0
0.43406177496378145 0.34520932734008314 0
0.4408679624501494 0.38386086778104933 0
0.42975357544826415 0.4109582316716893 0
0.4142346240030231 0.3861237827705001 0
0.42386611823692155 0.3012897705522664 0
0.40282551650870074 0.318813770626441 0
0.4962524890469788 0.20932298840609428 0
0.5012112366510368 0.2395547890400094 0
0.6696312848220691 0.2792820628178966 0
0.6405228597790333 0.319467188435993 0
0.6992995627720199 0.4476419240967273 0
0.6947186682190692 0.47337950571822857 0
0.5310861092548168 0.48429532657728364 0
0.5487272802895715 0.37618686823405184 0
0.4081270754069802 0.41801772920880376 0
0.4931396936654339 0.36515306537466263 0
0.26131366055716615 0.38834936976354323 0
0.2695256053172455 0.44951087827303204 0
0.26550616575001207 0.4195746092798698 0
0.22732969029205669 0.44532225844603296 0
0.24946499679566908 0.4369663743375489 0
0.20186980646857824 0.442003740083094 0
0.24623321521827043 0.46952315591530935 0
0.21963188295334657 0.4708183806524521 0
0.22043721609660819 0.42120830540494447 0
0.29007883053354133 0.4864795249360934 0
0.2698957168718762 0.47350285648612095 0
0.3162333962602252 0.5048604657822466 0
0.3479319800610949 0.49076838666739403 0
0.320630432442909 0.445296196801766 0
0.29517502129955486 0.4279204594560818 0
0.3313086084845533 0.4023187709270402 0
0.3083648795429488 0.40823642979413727 0
0.3176672224512419 0.4750218817122186 0
0.2959391712485204 0.4578453807035259 0
0.3449507231857318 0.42852355561654754 0
0.36804964873407287 0.4139280391835787 0
0.35536881912372625 0.390116658757618 0
0.3409102051300345 0.36892304559380396 0
0.34759839777590895 0.4600366368165995 0
0.3731517465261954 0.46761978207187394 0
0.40655537164709526 0.46924161626307315 0
0.4367980008180826 0.46611902394133364 0
0.42443752171627713 0.4944192969305235 0
0.3957150997062816 0.4470157735829402 0
0.0 0.34375 1
0.017347386601632157 0.32812500000000006 0
0.01799278119265436 0.3593749999999999 0
0.4659001821035635 0.533093011156698 0
0.4497905928003205 0.55965591028999 0
0.48687138827799054 0.5879406318748962 0
0.48242841456498975 0.5582063981139627 0
0.5074152020683473 0.5696718590729827 0
0.46333546552915256 0.5803473205628646 0
0.46568616149663916 0.6133333538190922 0
0.496286004058428 0.6173290862817963 0
0.511917796962678 0.5961192112443936 0
0.5229034783269866 0.6224026593221506 0
0.4686552743205614 0.6377120546383277 0
0.29019251230960497 0.6886764259564555 0
0.280356299654597 0.7166866877613494 0
0.3009991087849597 0.6638094238114856 0
0.9375 1.0 1
0.9267911201956998 0.9567332999740441 0
0.8984312633261852 0.9752237690694019 0
0.90625 1.0 1
0.9222801905594182 0.9808084136655257 0
0.8803107200497059 0.9815546609394464 0
0.9091432198007815 0.937184322588495 0
1.0 0.9375 1
0.9585274608013898 0.9285869074700873 0
0.9339697228360463 0.9328622200673663 0
0.96875 1.0 1
1.0 0.96875 1
0.9749478943447928 0.9531249999999992 0
0.9506230255974707 0.9516395780741486 0
0.977280695209407 0.9772806952094051 0
0.9511699996594324 0.9777487394332297 0
1.0 0.90625 1
0.9648329068136089 0.8906249999999986 0
0.9343521886505763 0.8853573353391201 0
1.0 0.8125 1
0.95780289216469 0.8404829812563157 0
0.9363620184008842 0.8578429637459114 0
0.9258005137358186 0.8228781866477456 0
0.9086637156263535 0.8411701067265219 0
0.9601835313633069 0.7982656965779564 0
0.9488850412246889 0.8188043376203807 0
0.909318564012936 0.7816931810608606 0
0.9082570500856953 0.8060084744750156 0
0.9331432678243682 0.7949140952505356 0
0.95228969465098 0.7511977128260527 0
0.9322387620030048 0.7684669862571163 0
0.8875866394482946 0.6963475332094513 0
0.8997758185658451 0.7386834208159628 0
0.9437269516335896 0.9084892413316894 0
0.9816640044972442 0.9218750000000024 0
1.0 0.625 1
0.9354329325804069 0.7054944938211338 0
0.9091910501110507 0.7130499514691118 0
0.9284779161924943 0.7346799138569057 0
0.8581472316582454 0.7277462831427945 0
0.8276178669896994 0.7239113546194943 0
0.8177043802614489 0.6852337820740467 0
0.852327652518121 0.6927893157474215 0
0.8779386131736144 0.6154786975707499 0
0.8441443365905705 0.6471809742325172 0
0.8387984597033808 0.6716784828026916 0
0.8728843156075832 0.6655625987722666 0
0.8690622639193804 0.6398799083785173 0
0.9216209789528651 0.6451839557688896 0
0.8960140223350624 0.6358689962749408 0
0.9271871171455167 0.5900281380370244 0
0.9057892652743265 0.6089967138955203 0
0.8815282876609949 0.5600752619350016 0
0.8862694908706076 0.5882004599467388 0
0.8507344241303513 0.5797285582394152 0
0.8550765666374504 0.5525806594173484 0
0.8852774444493042 0.4964157210431828 0
0.8430729080161284 0.5099238390190552 0
0.8763763201169861 0.5278316709991314 0
0.9301222329637581 0.5357773977919978 0
0.9051404361623624 0.5190124886994897 0
0.9049831895854823 0.5462422502010634 0
0.9266204669733861 0.5627927116039463 0
0.9035079969196175 0.5708322570440703 0
1.0 0.5625 1
0.963362112663411 0.5756518865359251 0
0.9427783469883518 0.4899227713953429 0
0.9138227205130396 0.4913522354381481 0
0.9292996793922824 0.5108764790928682 0
0.9672112541767827 0.5220881888033937 0
0.926829407093778 0.4608379472894231 0
0.8938082239508791 0.46432542868355214 0
0.859748274508661 0.4724500855070998 0
0.8264426882844713 0.45375917034005403 0
0.8618228797682421 0.49582030455171694 0
0.9499603383097168 0.4670691696680788 0
0.9728247275563575 0.48680986114183233 0
1.0 0.46875 1
0.9773520873454937 0.46414663192375216 0
0.8112102318867159 0.5884577747599609 0
0.8287652579441576 0.5740999831121246 0
0.9033362516844399 0.6699225571085372 0
0.9346463360137772 0.6739378014462488 0
0.9630397188033086 0.6437485967519634 0
1.0 0.6875 1
0.9656142128477923 0.6889540316860367 0
0.9635913950935006 0.7210690384615208 0
1.0 0.65625 1
0.9572542870849908 0.6667541102394948 0
0.9166644715108246 0.69007428147981 0
0.8321510676340221 0.7021401914474941 0
0.969017583360103 0.609727779801414 0
0.9502409535405073 0.5953368218953965 0
1.0 0.59375 1
0.933070552694641 0.6186180684656928 0
0.8372369130020749 0.6124579872174017 0
0.7999415075011206 0.626790212930397 0
0.8130106563331221 0.6547392175449269 0
0.8236307003308536 0.6327430964252085 0
0.8150477439172538 0.610408474695659 0
0.7782188512001392 0.6043538956699992 0
0.8584710318106493 0.6020669898904302 0
0.7816428671967239 0.6472558278361079 0
0.8001946666288139 0.5614412531566534 0
0.8028527020072163 0.5261318586551567 0
0.7795664565816205 0.5084735934428507 0
0.7734785099352832 0.5406849795031731 0
0.7584604115752231 0.5211655579074687 0
0.7516590836512127 0.5444202250126112 0
0.8267795913379447 0.5274992053495775 0
0.8042884418215973 0.46563245972304873 0
0.8312386890806797 0.4828835041867895 0
0.940238536692727 0.4428722196237883 0
1.0 0.53125 1
0.9557730610674563 0.5481863791417692 0
0.9806271781525514 0.5468750000000004 0
0.8523651288285518 0.7542190159506968 0
0.8789984308586487 0.7553865998310106 0
0.8822192041364673 0.7208155772845183 0
0.9739608075005822 0.8637814287977343 0
1.0 0.84375 1
0.9799847066297901 0.8281250000000008 0
1.0 0.71875 1
0.9759513120756405 0.7428894742762742 0
0.9798484116144608 0.7739320949533598 0
1.0 0.78125 1
0.9831333034714317 0.7968750000000014 0
0.8074406602625227 0.4386077930419897 0
0.8846286745016544 0.44205177381155136 0
0.6953423659924138 0.9380875797054442 0
0.7187254976147218 0.9449632998256801 0
0.6981664512913226 0.871880637902299 0
0.6694370926445257 0.8688246943903017 0
0.6624703508459692 0.8928960269383883 0
0.6931467309484257 0.84279628177735 0
0.7240102858425659 0.852444845637595 0
0.7279460810415602 0.8845784954563944 0
0.6969837045170996 0.8996085705108886 0
0.43285713828640643 0.9295235376818994 0
0.452812651255755 0.9555957393601757 0
0.41181667088888696 0.9663008083925151 0
0.4300651389861185 0.9523335360355929 0
0.45312499999999944 0.9805458386783944 0
0.38611498621875767 0.9271894255959131 0
0.3758310537221667 0.8932426003943316 0
0.3436905007381496 0.8947337207064928 0
0.3395854382413104 0.9440550971433882 0
0.3125 1.0 1
0.28125 1.0 1
0.29687500000000067 0.9692889520664657 0
0.3278071474365201 0.9728817875057238 0
0.34375 1.0 1
0.3610540378822918 0.9696465370983249 0
0.365828971642958 0.9438401570298813 0
0.3859699087554367 0.9609117595463583 0
0.36052048703420375 0.9166898411251929 0
0.304962249301973 0.9360251472433866 0
0.28364585272347614 0.9205945280777356 0
0.27343704040316225 0.9766946396509341 0
0.3331615994241153 0.9186889130247958 0
0.3958729115736745 0.9057022041619244 0
0.37299508577728074 0.8728884783628373 0
0.45834181754974224 0.9202946303621882 0
0.43627951574696316 0.9009233914589434 0
0.37085713359580164 0.8443678516666383 0
0.2370703976357839 0.9000756323315054 0
0.03852556740987226 0.7874120313791131 0
0.23324187739296673 0.37853058174482346 0
0.22424876277684777 0.26155619869500146 0
0.46875 0.0 1
0.3426640689185187 0.19515787942945398 0
0.7058887717793136 0.06513320703283945 0
0.7292585167930009 0.06480927255237173 0
0.7085143029188123 0.09068721074393786 0
0.71875 0.0 1
0.8836436065964799 0.12380850394553262 0
0.8805118358567684 0.14997732443049844 0
0.949299452358136 0.23343457968608675 0
0.8535522189307324 0.3190044403458566 0
0.8323745661791846 0.3317015759685729 0
0.7264231692637129 0.49051624534692906 0
0.0 0.03125 1
0.024390419216969696 0.04205987460987787 0
0.90625 0.0 1
0.891866973535288 0.021116076339345844 0
0.9207961288102084 0.020080119765173637 0
0.40625 1.0 1
0.39062500000000144 0.9833016301564508 0

Edges
128
1 1060 1
1 1335 1
2 255 1
2 265 1
3 1164 1
3 1165 1
4 639 1
4 651 1
5 405 1
5 1323 1
6 1231 1
6 1267 1
7 919 1
7 925 1
9 542 1
9 1025 1
10 618 1
10 1010 1
11 663 1
11 1302 1
52 295 1
52 1328 1
100 225 1
100 268 1
134 400 1
134 410 1
173 228 1
173 245 1
175 291 1
175 1337 1
193 206 1
193 210 1
200 206 1
200 1231 1
209 210 1
209 268 1
223 225 1
223 228 1
241 245 1
241 255 1
242 265 1
242 1337 1
287 291 1
287 295 1
298 410 1
298 1328 1
329 1075 1
329 1079 1
373 414 1
373 424 1
386 414 1
386 1323 1
395 400 1
395 405 1
417 424 1
417 1079 1
434 521 1
434 1035 1
437 1063 1
437 1069 1
445 1069 1
445 1075 1
448 1030 1
448 1057 1
494 540 1
494 1137 1
502 1035 1
502 1137 1
509 521 1
509 1030 1
533 540 1
533 542 1
545 1015 1
545 1018 1
607 1010 1
607 1015 1
614 617 1
614 1008 1
616 617 1
616 618 1
624 639 1
624 1008 1
631 643 1
631 649 1
635 643 1
635 651 1
645 649 1
645 663 1
665 1305 1
665 1340 1
748 915 1
748 933 1
786 908 1
786 918 1
808 1276 1
808 1279 1
832 1170 1
832 1274 1
839 938 1
839 1157 1
851 933 1
851 938 1
899 918 1
899 919 1
905 908 1
905 915 1
923 925 1
923 1340 1
1017 1018 1
1017 1025 1
1047 1060 1
1047 1063 1
1053 1057 1
1053 1335 1
1154 1157 1
1154 1164 1
1161 1165 1
1161 1170 1
1173 1274 1
1173 1279 1
1189 1241 1
1189 1247 1
1218 1247 1
1218 1267 1
1238 1241 1
1238 1276 1
1301 1302 1
1301 1305 1

Triangles
2552
3 1164 1168 0
5 405 406 0
6 1223 1230 0
8 593 600 0
8 600 1115 0
8 1114 1118 0
9 542 1026 0
10 1010 1011 0
11 662 668 0
11 668 1312 0
12 707 709 0
12 709 714 0
12 714 727 0
12 727 956 0
13 817 868 0
13 859 860 0
14 82 83 0
14 83 1104 0
14 84 951 0
14 776 947 0
15 722 973 0
15 973 981 0
15 981 982 0
16 754 755 0
16 755 887 0
16 887 888 0
17 27 780 0
17 768 769 0
17 780 781 0
18 104 106 0
18 106 107 0
18 107 186 0
18 186 187 0
18 187 190 0
19 39 43 0
19 43 88 0
19 88 90 0
19 90 1102 0
19 1102 1103 0
20 1209 1234 0
20 1234 1257 0
20 1257 1258 0
20 1258 1263 0
21 96 98 0
21 98 101 0
21 101 1281 0
22 30 31 0
22 31 92 0
22 92 1334 0
22 1261 1262 0
23 28 29 0
23 29 1254 0
23 1250 1256 0
24 29 30 0
24 30 1262 0
24 1233 1254 0
25 27 32 0
26 27 28 0
26 28 864 0
26 864 865 0
26 865 871 0
27 17 32 0
27 25 28 0
27 26 780 0
28 23 864 0
28 25 29 0
29 24 1254 0
29 25 30 0
30 22 1262 0
30 25 31 0
31 25 32 0
31 32 36 0
31 36 92 0
32 17 35 0
32 35 36 0
33 36 93 0
34 35 769 0
34 44 93 0
34 769 771 0
35 17 769 0
35 34 93 0
36 33 38 0
36 35 93 0
36 38 92 0
37 38 39 0
37 39 1103 0
37 1103 1334 0
38 33 39 0
38 37 92 0
39 19 1103 0
39 33 42 0
39 42 43 0
40 45 86 0
40 86 87 0
41 42 44 0
41 44 950 0
42 33 44 0
42 41 43 0
43 41 45 0
43 45 91 0
44 33 93 0
44 34 771 0
44 770 949 0
44 949 950 0
45 40 47 0
45 41 86 0
45 47 91 0
46 47 49 0
46 49 50 0
46 50 56 0
46 56 111 0
46 88 91 0
46 111 112 0
47 40 49 0
47 46 91 0
48 49 62 0
48 62 63 0
48 63 1105 0
49 40 62 0
49 48 50 0
50 48 57 0
50 57 58 0
51 129 130 0
51 130 132 0
51 132 310 0
52 295 297 0
52 297 300 0
53 59 327 0
53 323 325 0
54 57 326 0
54 326 327 0
55 56 1101 0
55 109 111 0
56 50 58 0
56 55 111 0
56 58 1101 0
57 48 1105 0
57 54 58 0
57 60 326 0
58 54 59 0
58 59 1101 0
59 53 120 0
59 54 327 0
59 120 121 0
59 121 1101 0
60 57 1105 0
60 67 70 0
60 70 324 0
60 324 326 0
61 62 85 0
62 40 87 0
62 61 63 0
63 61 66 0
63 66 67 0
63 67 1105 0
64 362 1097 0
64 1088 1092 0
64 1092 1093 0
64 1093 1095 0
65 66 73 0
65 73 1093 0
65 1089 1107 0
66 61 72 0
66 65 1107 0
66 72 73 0
67 60 1105 0
67 66 1107 0
68 69 1091 0
68 319 320 0
68 364 1087 0
69 68 320 0
69 70 1107 0
69 320 324 0
70 67 1107 0
70 69 324 0
71 72 79 0
71 79 81 0
71 81 1134 0
72 61 78 0
72 71 73 0
72 78 79 0
73 71 76 0
73 76 1094 0
74 1106 1136 0
74 1127 1128 0
75 76 1134 0
75 1133 1136 0
76 71 1134 0
76 75 1094 0
77 78 1104 0
78 61 85 0
78 77 79 0
78 85 1104 0
79 77 81 0
80 81 83 0
80 83 1140 0
80 985 1135 0
81 77 83 0
81 80 1134 0
82 14 947 0
82 947 1144 0
83 77 1104 0
83 82 1140 0
84 14 1104 0
84 85 87 0
84 86 950 0
84 950 951 0
85 62 87 0
85 84 1104 0
86 41 950 0
86 84 87 0
88 43 91 0
88 46 112 0
89 90 110 0
90 88 112 0
90 89 95 0
90 95 1102 0
92 37 1334 0
94 95 96 0
94 96 114 0
94 113 1334 0
95 89 103 0
95 94 1102 0
96 21 114 0
96 95 103 0
97 98 103 0
97 103 104 0
97 104 190 0
98 96 103 0
98 97 101 0
99 101 102 0
99 102 275 0
99 273 1227 0
99 1227 1281 0
101 97 102 0
101 99 1281 0
102 97 190 0
102 187 191 0
102 191 275 0
103 89 104 0
104 18 190 0
104 89 108 0
105 106 108 0
105 108 109 0
105 109 118 0
106 104 108 0
106 105 107 0
107 105 117 0
107 117 278 0
107 184 186 0
107 278 279 0
108 89 110 0
109 55 118 0
109 108 110 0
109 110 111 0
110 90 112 0
111 110 112 0
113 94 114 0
113 114 115 0
113 115 1259 0
113 1259 1261 0
113 1261 1334 0
114 21 1264 0
115 114 1264 0
115 1211 1263 0
115 1258 1259 0
115 1264 1265 0
116 117 118 0
116 118 121 0
116 121 1100 0
116 123 281 0
117 105 118 0
117 116 278 0
118 55 121 0
119 120 126 0
119 126 307 0
120 53 125 0
120 119 122 0
120 125 126 0
121 55 1101 0
121 120 122 0
121 122 1100 0
122 119 123 0
122 123 1100 0
123 116 1100 0
123 119 306 0
124 125 317 0
125 53 325 0
125 124 126 0
126 124 128 0
126 128 307 0
127 128 129 0
127 129 137 0
127 137 143 0
127 143 145 0
127 144 307 0
128 124 130 0
128 127 307 0
129 51 138 0
129 128 130 0
130 124 317 0
131 309 318 0
131 318 1099 0
132 130 317 0
132 309 310 0
132 317 318 0
133 317 325 0
135 153 305 0
135 305 316 0
135 316 396 0
135 396 398 0
135 397 412 0
136 137 138 0
136 138 315 0
136 315 316 0
137 129 138 0
137 136 141 0
137 141 148 0
138 51 310 0
138 139 315 0
139 138 310 0
139 310 1083 0
139 314 315 0
140 141 316 0
141 136 316 0
141 140 148 0
142 143 148 0
142 148 152 0
142 152 154 0
143 137 148 0
143 142 145 0
144 127 145 0
144 145 147 0
144 147 160 0
144 159 281 0
144 281 306 0
144 306 307 0
145 142 147 0
146 156 158 0
146 158 164 0
146 164 277 0
147 142 154 0
147 154 156 0
147 156 160 0
148 140 151 0
148 151 152 0
149 264 304 0
149 304 1327 0
150 151 153 0
150 153 302 0
150 302 1325 0
150 1325 1327 0
151 140 305 0
151 150 152 0
152 150 1327 0
153 135 412 0
153 151 305 0
154 152 155 0
154 155 303 0
155 152 304 0
155 264 282 0
155 282 303 0
156 146 160 0
156 154 303 0
157 158 282 0
157 282 283 0
157 283 284 0
158 156 303 0
158 157 163 0
158 163 164 0
159 144 160 0
159 160 277 0
159 277 280 0
159 278 281 0
160 146 277 0
161 164 165 0
161 165 168 0
161 168 184 0
161 184 279 0
161 279 280 0
162 163 171 0
162 171 172 0
163 157 171 0
163 162 164 0
164 161 277 0
164 162 165 0
165 162 169 0
166 182 183 0
166 183 212 0
166 212 272 0
166 272 1332 0
167 168 169 0
167 169 172 0
167 172 276 0
168 165 169 0
168 167 181 0
168 181 185 0
169 162 172 0
170 171 178 0
170 178 236 0
170 236 237 0
170 237 276 0
171 157 284 0
171 170 172 0
172 170 276 0
173 228 229 0
173 229 244 0
174 248 1329 0
175 1337 1338 0
176 179 284 0
176 261 1329 0
176 284 289 0
176 1329 1330 0
177 178 179 0
177 179 1330 0
177 235 236 0
178 171 179 0
178 177 236 0
179 171 284 0
179 176 1330 0
180 181 182 0
180 182 1332 0
180 1332 1333 0
181 167 182 0
181 180 185 0
182 166 1332 0
182 167 276 0
183 182 276 0
184 107 279 0
184 168 185 0
184 185 186 0
185 180 188 0
186 185 188 0
187 102 190 0
187 186 188 0
187 188 1333 0
188 180 1333 0
189 191 1333 0
189 270 274 0
191 187 1333 0
191 189 274 0
191 192 275 0
192 191 274 0
192 198 273 0
192 273 275 0
193 206 207 0
194 195 271 0
195 194 197 0
195 197 198 0
195 198 274 0
195 270 271 0
196 197 203 0
196 203 1266 0
196 1224 1225 0
196 1225 1282 0
197 194 202 0
197 196 198 0
197 202 203 0
198 192 274 0
198 196 1282 0
198 199 273 0
199 198 1282 0
199 1226 1227 0
200 204 208 0
200 1231 1232 0
201 202 205 0
201 204 1266 0
201 205 207 0
201 207 208 0
202 194 205 0
202 201 203 0
203 201 1266 0
204 200 1232 0
204 201 208 0
204 1229 1266 0
205 193 207 0
205 194 269 0
205 210 193 0
205 215 216 0
206 200 208 0
207 206 208 0
209 210 216 0
209 216 217 0
210 205 216 0
211 212 222 0
211 217 221 0
212 183 220 0
212 211 214 0
212 214 272 0
212 220 222 0
213 214 269 0
213 269 271 0
213 270 272 0
214 211 221 0
214 213 272 0
214 215 269 0
215 205 269 0
215 214 221 0
216 215 221 0
217 211 218 0
217 216 221 0
217 218 267 0
217 268 209 0
218 211 222 0
218 222 1331 0
218 266 267 0
219 220 239 0
219 239 1331 0
220 183 237 0
220 219 222 0
220 237 239 0
222 219 1331 0
223 224 227 0
223 227 232 0
224 225 266 0
224 266 1331 0
225 100 266 0
225 224 223 0
226 227 233 0
226 229 232 0
226 233 235 0
226 235 238 0
227 224 234 0
227 226 232 0
228 223 232 0
229 226 231 0
229 228 232 0
229 231 249 0
230 231 238 0
230 238 1329 0
230 248 249 0
231 226 238 0
231 230 249 0
233 227 234 0
233 234 1331 0
234 224 1331 0
235 177 1330 0
235 233 239 0
236 235 239 0
237 183 276 0
237 236 239 0
238 235 1330 0
239 233 1331 0
240 246 250 0
240 250 253 0
240 253 254 0
240 254 256 0
241 245 246 0
241 246 256 0
242 254 1339 0
243 244 249 0
243 249 250 0
244 229 249 0
244 245 173 0
245 243 246 0
245 244 243 0
246 240 256 0
246 243 250 0
247 248 252 0
247 252 253 0
248 174 252 0
248 230 1329 0
248 247 249 0
249 247 250 0
250 247 253 0
251 252 259 0
251 259 1338 0
251 1338 1339 0
252 174 258 0
252 251 253 0
252 258 259 0
253 251 1339 0
254 253 1339 0
254 265 256 0
255 241 256 0
255 265 2 0
257 258 262 0
257 262 286 0
257 286 290 0
257 290 292 0
258 174 261 0
258 257 259 0
258 261 262 0
259 257 292 0
259 292 1338 0
260 261 289 0
260 285 286 0
261 174 1329 0
261 176 289 0
261 260 262 0
262 260 286 0
263 264 294 0
263 285 288 0
264 149 293 0
264 155 304 0
264 263 288 0
264 293 294 0
265 254 242 0
265 255 256 0
266 100 267 0
266 218 1331 0
268 217 267 0
268 267 100 0
269 194 271 0
270 189 1332 0
270 195 274 0
270 213 271 0
272 270 1332 0
273 99 275 0
273 199 1227 0
277 161 280 0
278 116 281 0
278 159 280 0
279 278 280 0
281 123 306 0
282 158 303 0
282 264 288 0
283 282 288 0
283 285 289 0
284 283 289 0
285 260 289 0
285 263 294 0
285 283 288 0
286 285 294 0
286 294 296 0
287 290 296 0
290 286 296 0
290 291 292 0
291 175 292 0
291 290 287 0
292 175 1338 0
293 149 1326 0
294 293 296 0
295 287 296 0
295 296 297 0
296 293 297 0
297 293 300 0
299 52 300 0
299 300 1326 0
299 1328 52 0
300 293 1326 0
301 302 412 0
301 408 409 0
301 409 411 0
301 411 1325 0
302 153 412 0
302 301 1325 0
304 152 1327 0
305 140 316 0
306 119 307 0
308 309 1098 0
308 334 1084 0
309 131 1098 0
309 132 318 0
309 308 310 0
310 308 1083 0
311 314 401 0
312 390 392 0
312 392 403 0
312 403 1085 0
312 1085 1086 0
313 314 1083 0
313 1082 1085 0
314 139 1083 0
314 311 315 0
314 313 401 0
315 311 316 0
316 311 396 0
317 125 325 0
317 133 318 0
318 133 321 0
318 319 1099 0
319 68 1087 0
319 318 321 0
319 1087 1099 0
320 319 321 0
320 321 324 0
321 133 323 0
321 322 324 0
322 321 323 0
322 323 327 0
323 53 327 0
323 133 325 0
324 322 326 0
326 322 327 0
328 336 337 0
328 337 345 0
328 345 1324 0
328 346 372 0
330 331 1087 0
330 337 366 0
331 330 333 0
331 333 1098 0
331 1098 1099 0
332 333 336 0
332 336 369 0
332 369 370 0
332 370 1081 0
333 330 366 0
333 332 335 0
333 335 1098 0
334 308 1098 0
334 335 1081 0
334 1081 1084 0
335 332 1081 0
335 334 1098 0
336 328 368 0
336 333 366 0
336 368 369 0
337 330 339 0
337 336 366 0
337 339 342 0
337 342 345 0
338 339 1096 0
338 1096 1097 0
339 330 365 0
339 338 341 0
339 341 342 0
339 364 1096 0
340 341 353 0
340 353 356 0
341 338 352 0
341 340 342 0
341 352 353 0
342 340 344 0
342 344 345 0
343 344 349 0
343 349 462 0
343 426 1324 0
344 340 350 0
344 343 1324 0
345 344 1324 0
346 328 1324 0
347 348 1038 0
347 1038 1039 0
348 347 465 0
348 349 350 0
348 350 356 0
348 356 1038 0
349 344 350 0
349 348 465 0
350 340 356 0
351 352 360 0
351 360 361 0
352 338 1097 0
352 351 353 0
353 351 355 0
353 355 356 0
354 355 1044 0
354 1037 1038 0
355 351 358 0
355 354 356 0
355 358 1044 0
356 354 1038 0
357 358 1130 0
357 1041 1044 0
358 351 361 0
358 357 1044 0
358 361 1130 0
359 360 362 0
359 362 363 0
359 363 1129 0
359 1129 1130 0
360 352 1097 0
360 359 361 0
361 359 1130 0
362 64 1095 0
362 360 1097 0
363 362 1095 0
363 1095 1106 0
363 1106 1128 0
363 1128 1129 0
364 68 1090 0
364 339 365 0
364 365 1087 0
364 1090 1096 0
365 330 1087 0
367 368 372 0
367 372 376 0
367 376 380 0
368 328 372 0
368 367 369 0
369 367 371 0
370 369 371 0
370 371 383 0
370 383 1086 0
371 367 380 0
371 380 382 0
371 382 383 0
372 346 378 0
373 414 425 0
373 415 423 0
374 420 422 0
374 422 1080 0
375 376 378 0
375 378 431 0
375 431 1080 0
376 372 378 0
376 375 377 0
376 377 385 0
377 375 1080 0
378 346 379 0
378 379 431 0
379 346 426 0
379 426 427 0
379 427 432 0
379 430 431 0
380 376 385 0
381 382 388 0
381 388 413 0
381 389 390 0
382 380 385 0
382 381 383 0
382 384 388 0
383 381 390 0
383 390 393 0
383 393 1086 0
384 382 385 0
384 385 416 0
385 377 416 0
387 386 413 0
387 388 415 0
387 414 386 0
387 415 425 0
388 384 415 0
388 387 413 0
389 5 392 0
389 381 413 0
389 1323 5 0
390 312 393 0
390 389 392 0
391 392 406 0
391 402 403 0
392 5 406 0
392 391 403 0
393 312 1086 0
394 396 401 0
394 401 402 0
394 402 404 0
395 399 404 0
396 311 401 0
396 394 398 0
397 135 398 0
397 398 399 0
397 399 407 0
397 407 408 0
397 408 412 0
398 394 399 0
399 394 404 0
399 400 407 0
400 134 407 0
400 399 395 0
401 313 403 0
402 391 404 0
402 401 403 0
403 313 1085 0
404 391 406 0
404 405 395 0
405 404 406 0
407 134 408 0
408 301 412 0
408 410 409 0
409 298 411 0
409 410 298 0
410 408 134 0
411 299 1325 0
411 1328 299 0
413 1323 389 0
414 387 425 0
415 373 425 0
415 384 416 0
415 416 422 0
415 418 423 0
416 377 422 0
417 421 1078 0
418 415 422 0
418 420 421 0
418 424 423 0
419 420 429 0
419 429 1076 0
419 1072 1077 0
419 1077 1078 0
420 374 429 0
420 418 422 0
420 419 421 0
421 419 1078 0
422 377 1080 0
423 424 373 0
424 418 421 0
424 421 417 0
426 343 427 0
426 346 1324 0
427 343 462 0
427 462 463 0
428 429 430 0
428 430 432 0
428 432 436 0
428 436 459 0
428 459 1076 0
429 374 430 0
429 428 1076 0
430 374 1080 0
430 379 432 0
431 430 1080 0
432 427 460 0
433 442 458 0
434 516 517 0
435 436 460 0
435 457 458 0
435 460 464 0
436 432 460 0
436 435 440 0
436 440 459 0
437 1064 1065 0
437 1069 1070 0
438 439 441 0
438 441 444 0
438 444 446 0
438 446 1071 0
438 1071 1073 0
439 438 1073 0
439 440 441 0
439 1072 1076 0
440 435 458 0
440 439 459 0
441 440 442 0
441 442 447 0
442 433 451 0
442 440 458 0
443 444 447 0
443 447 1068 0
444 441 447 0
444 443 446 0
446 443 1066 0
446 445 1071 0
446 1066 1070 0
446 1069 445 0
447 442 451 0
447 450 1068 0
449 515 1067 0
450 447 451 0
450 451 454 0
450 454 1046 0
450 1046 1049 0
450 1049 1068 0
451 433 453 0
451 453 454 0
452 453 456 0
452 456 1045 0
452 511 514 0
453 433 456 0
453 452 454 0
454 452 514 0
454 514 515 0
454 515 1046 0
455 456 457 0
455 457 469 0
455 469 471 0
455 471 472 0
455 472 1045 0
456 433 457 0
456 455 1045 0
457 433 458 0
457 435 464 0
457 464 467 0
457 467 469 0
459 439 1076 0
460 427 463 0
460 463 464 0
461 462 465 0
461 465 468 0
462 349 465 0
462 461 463 0
463 461 464 0
464 461 467 0
465 347 468 0
466 467 1322 0
467 461 468 0
467 466 469 0
467 468 1322 0
468 347 1039 0
468 479 1322 0
469 466 473 0
470 471 473 0
470 473 475 0
470 475 522 0
470 522 1036 0
471 469 473 0
471 470 1036 0
472 471 1036 0
472 507 512 0
472 512 1045 0
473 466 475 0
474 475 481 0
474 481 484 0
474 484 524 0
475 466 480 0
475 474 477 0
475 477 522 0
475 480 481 0
476 477 495 0
476 495 498 0
476 498 522 0
477 474 495 0
477 476 522 0
478 479 1037 0
478 1037 1040 0
479 468 1039 0
479 478 480 0
479 480 1322 0
480 466 1322 0
480 478 481 0
481 478 486 0
482 490 491 0
482 491 1116 0
482 557 558 0
483 484 486 0
483 486 1321 0
484 481 486 0
484 483 485 0
484 485 524 0
485 483 491 0
485 490 525 0
485 523 524 0
486 478 1040 0
486 487 1321 0
487 486 1040 0
487 1040 1041 0
487 1041 1043 0
487 1043 1108 0
487 1108 1321 0
488 535 555 0
489 490 558 0
489 554 555 0
490 482 558 0
490 485 491 0
490 489 525 0
491 483 1321 0
491 492 1116 0
492 491 1321 0
492 1108 1110 0
492 1110 1112 0
492 1112 1116 0
493 495 523 0
493 523 526 0
493 526 531 0
494 1137 1139 0
495 474 524 0
495 493 497 0
495 497 498 0
496 497 1033 0
497 493 506 0
497 496 498 0
497 506 1033 0
498 496 500 0
498 500 501 0
498 501 522 0
499 500 504 0
499 504 518 0
499 518 519 0
500 496 504 0
500 499 501 0
501 499 507 0
501 507 1036 0
502 1034 1138 0
503 504 505 0
503 505 1034 0
503 517 518 0
503 1035 517 0
504 496 1033 0
504 503 518 0
505 504 1033 0
505 1028 1138 0
506 493 531 0
506 531 532 0
506 532 1028 0
506 1028 1033 0
507 472 1036 0
507 499 510 0
507 510 512 0
508 510 516 0
508 516 520 0
508 520 1031 0
509 1030 1031 0
510 499 519 0
510 508 513 0
511 452 512 0
511 512 513 0
511 513 1029 0
512 452 1045 0
512 510 513 0
513 508 1029 0
514 511 1029 0
514 1029 1067 0
515 449 1046 0
515 514 1067 0
516 510 519 0
516 521 520 0
517 516 519 0
517 1035 434 0
518 517 519 0
520 509 1031 0
520 521 509 0
521 516 434 0
522 501 1036 0
523 485 525 0
523 495 524 0
523 525 526 0
525 489 529 0
525 529 530 0
526 525 530 0
526 530 531 0
527 530 536 0
527 536 537 0
528 529 555 0
528 535 536 0
529 489 555 0
529 528 530 0
530 527 531 0
530 528 536 0
531 527 532 0
532 527 537 0
532 537 539 0
532 539 1139 0
533 538 541 0
534 535 544 0
535 488 543 0
535 528 555 0
535 534 536 0
535 543 544 0
536 534 537 0
537 534 538 0
537 538 539 0
538 534 544 0
538 540 539 0
539 494 1139 0
539 540 494 0
540 538 533 0
541 538 544 0
541 542 533 0
541 543 1027 0
542 541 1026 0
543 488 548 0
543 541 544 0
543 548 1027 0
545 1018 1020 0
546 561 565 0
546 565 568 0
546 568 574 0
546 574 605 0
546 605 606 0
547 548 580 0
548 488 553 0
548 547 550 0
548 550 1027 0
548 553 580 0
549 550 551 0
549 551 1019 0
549 1019 1024 0
549 1024 1026 0
549 1026 1027 0
550 547 551 0
550 549 1027 0
551 547 561 0
551 561 606 0
551 606 1023 0
552 553 560 0
552 560 563 0
552 563 579 0
552 579 580 0
553 488 554 0
553 552 580 0
553 554 560 0
554 488 555 0
554 489 558 0
554 557 559 0
554 559 560 0
556 557 1113 0
556 1113 1115 0
557 482 1113 0
557 554 558 0
557 556 559 0
559 556 563 0
560 559 563 0
561 546 606 0
561 547 564 0
561 564 565 0
562 563 587 0
562 564 579 0
563 556 599 0
563 562 579 0
563 586 587 0
564 547 580 0
564 562 565 0
565 562 576 0
566 575 585 0
566 581 584 0
566 584 965 0
566 964 966 0
567 568 576 0
567 576 578 0
567 578 581 0
567 581 585 0
568 565 576 0
568 567 571 0
568 571 574 0
569 601 611 0
569 611 1000 0
569 1000 1003 0
570 571 575 0
570 575 591 0
570 591 611 0
571 567 585 0
571 570 573 0
571 573 574 0
572 573 601 0
572 601 604 0
572 604 605 0
573 570 601 0
573 572 574 0
574 572 605 0
575 566 592 0
575 571 585 0
576 562 587 0
577 582 588 0
577 588 593 0
577 593 597 0
577 597 961 0
578 576 587 0
578 587 588 0
579 564 580 0
581 566 585 0
581 578 582 0
581 582 584 0
582 577 961 0
582 578 588 0
582 583 584 0
583 582 961 0
583 961 962 0
583 962 972 0
583 964 965 0
584 583 965 0
586 563 599 0
586 599 600 0
587 586 588 0
588 586 593 0
589 969 971 0
589 971 998 0
589 997 1001 0
589 1001 1002 0
590 591 592 0
590 592 966 0
590 966 969 0
590 969 1002 0
591 575 592 0
591 590 1002 0
592 566 966 0
593 8 596 0
593 586 600 0
593 596 597 0
594 598 976 0
594 974 986 0
594 976 977 0
595 596 1117 0
595 1117 1119 0
596 8 1117 0
596 595 597 0
597 595 598 0
597 598 960 0
597 960 961 0
598 594 960 0
598 595 976 0
599 556 1115 0
600 599 1115 0
601 569 603 0
601 570 611 0
601 603 604 0
602 603 1013 0
602 1013 1014 0
602 1014 1021 0
602 1021 1022 0
603 569 609 0
603 602 604 0
603 609 1013 0
604 602 605 0
605 602 1022 0
605 1022 1023 0
606 605 1023 0
608 609 610 0
608 610 1009 0
608 612 1011 0
608 1011 1012 0
608 1012 1013 0
609 569 1003 0
609 608 1013 0
610 609 1003 0
610 995 996 0
610 996 1009 0
611 591 1001 0
612 608 1009 0
612 619 1011 0
612 620 1320 0
613 628 1004 0
613 992 1005 0
613 1005 1006 0
614 617 622 0
614 622 623 0
615 617 616 0
615 618 1320 0
617 615 625 0
618 10 619 0
618 615 616 0
618 619 1320 0
619 10 1011 0
619 612 1320 0
620 612 996 0
620 993 994 0
620 994 1320 0
621 622 625 0
621 625 629 0
621 629 630 0
622 617 625 0
622 621 623 0
623 621 630 0
623 630 636 0
623 636 637 0
623 1008 614 0
624 637 638 0
625 615 626 0
625 626 629 0
626 615 994 0
626 628 629 0
626 994 1004 0
627 628 654 0
628 613 654 0
628 626 1004 0
628 627 629 0
629 627 630 0
630 627 633 0
630 633 641 0
631 643 648 0
631 648 661 0
632 633 655 0
632 655 657 0
632 657 658 0
633 627 654 0
633 632 640 0
633 640 641 0
633 654 655 0
634 636 640 0
634 640 642 0
634 642 644 0
634 644 652 0
635 651 652 0
636 630 641 0
636 634 650 0
637 636 650 0
637 1008 623 0
638 637 650 0
638 639 624 0
638 650 652 0
638 651 4 0
639 638 4 0
640 632 647 0
640 636 641 0
642 640 647 0
642 643 644 0
642 647 648 0
643 635 644 0
643 642 648 0
644 635 652 0
645 649 661 0
645 659 664 0
646 647 658 0
646 658 659 0
646 659 661 0
647 632 658 0
647 646 648 0
648 646 661 0
649 631 661 0
650 634 652 0
651 638 652 0
653 654 1006 0
654 613 1006 0
654 653 655 0
655 653 657 0
656 657 673 0
656 669 670 0
656 673 674 0
657 653 673 0
657 656 660 0
658 657 660 0
659 645 661 0
659 658 660 0
659 660 664 0
660 656 662 0
660 662 664 0
662 656 670 0
662 663 664 0
663 645 664 0
663 662 11 0
665 1305 1306 0
665 1306 1341 0
666 671 988 0
666 704 1299 0
666 1299 1313 0
666 1310 1311 0
667 668 670 0
667 670 1007 0
667 1007 1311 0
667 1303 1312 0
668 662 670 0
668 667 1312 0
669 656 674 0
669 674 1319 0
670 669 1007 0
671 666 1311 0
671 682 689 0
671 689 988 0
671 1007 1319 0
672 673 677 0
672 677 687 0
672 681 682 0
672 682 1319 0
673 653 690 0
673 672 674 0
674 672 1319 0
675 678 990 0
675 990 991 0
676 677 690 0
676 690 1006 0
677 673 690 0
677 676 678 0
677 678 681 0
677 681 687 0
678 675 680 0
678 676 990 0
678 680 681 0
679 680 696 0
680 675 685 0
680 679 681 0
680 685 696 0
681 672 687 0
681 679 682 0
682 671 1319 0
682 679 691 0
683 699 970 0
683 967 1152 0
684 685 686 0
684 686 971 0
684 968 970 0
685 675 686 0
685 684 696 0
686 675 991 0
686 991 998 0
688 689 691 0
688 691 697 0
688 697 704 0
688 704 988 0
689 682 691 0
689 688 988 0
690 653 1006 0
691 679 694 0
691 694 697 0
692 695 708 0
692 708 710 0
693 694 696 0
693 696 698 0
693 698 701 0
693 701 708 0
694 679 696 0
694 693 695 0
694 695 697 0
695 692 703 0
695 693 708 0
695 703 704 0
696 684 699 0
697 695 704 0
698 696 699 0
698 699 728 0
699 683 728 0
699 684 970 0
700 701 715 0
700 709 710 0
701 698 715 0
701 700 708 0
702 703 1318 0
703 692 706 0
703 702 704 0
703 706 1318 0
704 666 988 0
704 702 1299 0
705 706 707 0
705 707 953 0
705 927 1318 0
706 692 707 0
706 705 1318 0
707 12 954 0
707 692 710 0
708 700 710 0
709 700 713 0
709 707 710 0
709 713 714 0
711 716 1151 0
711 1151 1153 0
712 713 715 0
712 715 1152 0
713 700 715 0
713 712 714 0
714 712 716 0
714 716 958 0
715 698 728 0
715 728 1152 0
716 711 718 0
716 712 1151 0
716 718 958 0
717 718 721 0
717 721 897 0
717 893 957 0
717 957 958 0
718 711 720 0
718 717 958 0
718 720 721 0
719 720 724 0
719 723 987 0
720 711 724 0
720 719 721 0
721 719 722 0
721 722 897 0
722 15 896 0
722 719 973 0
722 894 897 0
723 719 724 0
723 724 725 0
723 725 962 0
723 959 960 0
723 960 986 0
723 986 987 0
724 711 1153 0
725 724 1153 0
726 727 958 0
726 733 956 0
727 714 958 0
727 726 956 0
728 683 1152 0
729 730 891 0
730 729 732 0
730 732 733 0
730 733 957 0
731 732 736 0
731 736 740 0
731 740 742 0
731 742 955 0
731 955 956 0
732 729 735 0
732 731 733 0
732 735 736 0
733 726 957 0
733 731 956 0
734 735 755 0
734 745 746 0
735 729 755 0
735 734 736 0
736 734 746 0
737 784 785 0
737 785 790 0
737 790 791 0
737 791 882 0
738 744 745 0
738 745 752 0
738 752 753 0
738 753 792 0
738 792 872 0
739 740 744 0
739 744 872 0
739 872 873 0
740 736 746 0
740 739 742 0
741 742 953 0
741 953 954 0
741 954 955 0
742 739 743 0
742 741 955 0
742 743 953 0
743 739 873 0
743 873 875 0
743 875 927 0
743 927 953 0
744 738 872 0
744 740 746 0
745 734 751 0
745 744 746 0
745 751 752 0
747 793 794 0
747 794 795 0
747 795 798 0
747 798 802 0
747 802 803 0
748 915 916 0
748 916 934 0
749 752 952 0
749 761 794 0
750 751 754 0
750 754 758 0
750 758 761 0
750 761 952 0
751 734 754 0
751 750 752 0
752 749 753 0
752 750 952 0
753 749 783 0
753 783 784 0
753 784 792 0
754 16 757 0
754 734 755 0
754 757 758 0
755 729 889 0
756 757 765 0
756 765 766 0
757 16 765 0
757 756 758 0
758 756 760 0
758 760 761 0
759 760 763 0
759 763 814 0
760 756 763 0
760 759 761 0
761 749 952 0
761 759 795 0
762 763 766 0
762 766 767 0
762 767 779 0
762 779 867 0
763 756 766 0
763 762 815 0
764 765 892 0
764 777 778 0
765 16 888 0
765 764 766 0
765 888 892 0
766 764 767 0
767 764 768 0
767 768 781 0
768 17 781 0
768 764 773 0
769 768 773 0
770 44 771 0
770 771 772 0
770 772 775 0
770 775 776 0
770 776 949 0
771 769 772 0
772 769 773 0
772 773 778 0
773 764 778 0
774 775 778 0
774 777 1149 0
775 772 778 0
775 774 948 0
776 14 951 0
776 775 948 0
777 764 892 0
777 774 778 0
777 888 1149 0
779 767 781 0
779 780 871 0
780 26 871 0
780 779 781 0
782 783 793 0
782 793 812 0
783 749 793 0
783 782 784 0
784 737 792 0
784 782 785 0
785 782 788 0
785 788 790 0
786 902 907 0
787 810 910 0
787 903 914 0
788 782 812 0
788 789 790 0
788 810 914 0
789 788 914 0
789 900 921 0
790 789 791 0
791 789 898 0
791 881 882 0
792 737 882 0
792 879 880 0
793 747 803 0
793 749 794 0
793 803 812 0
794 761 795 0
795 759 797 0
795 797 798 0
796 797 816 0
796 805 806 0
796 816 817 0
796 817 818 0
797 759 814 0
797 796 798 0
797 814 816 0
798 796 806 0
799 847 849 0
799 849 1290 0
800 804 805 0
800 805 809 0
800 809 944 0
800 944 1289 0
801 802 804 0
801 804 1288 0
802 798 806 0
802 801 803 0
803 801 811 0
803 811 812 0
804 800 1288 0
804 802 806 0
805 796 818 0
805 804 806 0
807 819 821 0
807 821 824 0
807 824 826 0
807 826 829 0
807 829 946 0
809 805 818 0
809 818 819 0
809 819 946 0
810 787 914 0
810 788 812 0
810 811 1286 0
810 1286 1287 0
811 801 1286 0
811 810 812 0
813 814 815 0
813 815 866 0
813 866 868 0
814 763 815 0
814 813 816 0
815 762 867 0
816 813 817 0
817 13 818 0
817 813 868 0
818 13 860 0
819 807 946 0
819 818 860 0
820 821 859 0
820 859 870 0
820 870 1195 0
820 1195 1244 0
821 819 860 0
821 820 858 0
822 830 831 0
822 831 1270 0
822 1270 1271 0
823 824 858 0
823 858 1194 0
823 1194 1270 0
824 821 858 0
824 823 831 0
825 826 830 0
825 830 836 0
825 836 841 0
825 841 842 0
826 824 831 0
826 825 828 0
826 828 829 0
827 828 842 0
827 842 856 0
827 856 945 0
828 825 842 0
828 827 829 0
829 827 945 0
829 944 946 0
830 822 835 0
830 826 831 0
830 835 836 0
831 823 1270 0
832 1170 1171 0
832 1171 1273 0
833 837 1177 0
834 835 1181 0
835 822 1180 0
835 834 836 0
835 1180 1181 0
836 834 837 0
836 837 841 0
837 833 840 0
837 834 1177 0
837 840 857 0
838 843 857 0
838 857 939 0
839 936 1159 0
840 833 941 0
840 941 942 0
841 837 857 0
842 841 843 0
842 843 846 0
842 846 856 0
843 838 845 0
843 841 857 0
843 845 846 0
844 845 853 0
844 853 854 0
845 838 935 0
845 844 846 0
846 844 847 0
846 847 856 0
847 799 856 0
847 844 849 0
848 849 855 0
848 855 1284 0
848 1283 1291 0
849 844 854 0
849 848 1290 0
849 854 855 0
850 854 934 0
850 916 1284 0
851 932 937 0
852 853 931 0
852 931 932 0
852 933 934 0
853 845 931 0
853 852 854 0
854 850 855 0
854 852 934 0
855 850 1284 0
856 799 945 0
857 840 939 0
858 820 1194 0
859 13 863 0
859 821 860 0
859 863 928 0
861 869 1256 0
861 870 928 0
862 863 868 0
862 864 869 0
862 869 928 0
863 13 868 0
863 862 928 0
864 23 869 0
864 862 865 0
865 862 868 0
865 866 871 0
866 815 867 0
866 865 868 0
866 867 871 0
867 779 871 0
869 23 1256 0
869 861 928 0
870 859 928 0
870 861 1195 0
872 792 880 0
873 872 880 0
874 875 878 0
874 878 1317 0
874 1298 1315 0
875 873 878 0
875 874 876 0
875 876 927 0
876 874 1315 0
876 1315 1318 0
877 878 879 0
877 879 881 0
877 881 884 0
877 884 1316 0
877 1316 1317 0
878 873 880 0
878 877 1317 0
879 792 882 0
879 878 880 0
881 791 884 0
881 879 882 0
883 884 926 0
883 924 1293 0
883 1293 1316 0
884 791 885 0
884 883 1316 0
884 885 926 0
885 791 898 0
885 898 921 0
885 921 922 0
885 922 926 0
886 887 889 0
886 889 1150 0
886 1147 1149 0
887 755 889 0
887 886 888 0
888 777 892 0
888 886 1149 0
889 729 891 0
889 891 1150 0
890 891 893 0
890 893 894 0
890 894 895 0
890 895 1146 0
890 1146 1150 0
891 730 893 0
891 890 1150 0
893 717 897 0
893 730 957 0
894 722 896 0
894 893 897 0
895 894 896 0
895 896 982 0
895 982 1141 0
895 1141 1145 0
895 1145 1146 0
896 15 982 0
898 789 921 0
899 919 920 0
900 789 901 0
900 901 913 0
900 913 917 0
900 917 920 0
900 920 921 0
901 789 914 0
901 903 913 0
902 903 906 0
902 906 907 0
902 918 917 0
903 787 906 0
903 901 914 0
903 902 913 0
904 906 910 0
904 909 1283 0
905 908 911 0
905 911 912 0
906 787 910 0
906 904 907 0
907 904 911 0
907 908 786 0
908 907 911 0
909 904 910 0
909 910 1287 0
909 1287 1291 0
910 810 1287 0
911 904 912 0
912 904 1283 0
912 915 905 0
912 1283 1284 0
913 902 917 0
915 912 916 0
916 850 934 0
916 912 1284 0
917 899 920 0
917 918 899 0
918 902 786 0
919 7 922 0
920 919 922 0
921 920 922 0
922 7 924 0
922 924 926 0
923 1294 1296 0
924 883 926 0
924 925 1296 0
925 923 1296 0
925 924 7 0
927 705 953 0
927 876 1318 0
929 930 939 0
929 939 943 0
929 943 1160 0
929 1156 1159 0
930 929 936 0
930 931 935 0
930 935 939 0
930 936 937 0
931 845 935 0
931 930 937 0
932 931 937 0
933 748 934 0
933 852 932 0
933 932 851 0
935 838 939 0
936 929 1159 0
936 938 937 0
937 938 851 0
938 936 839 0
939 840 942 0
939 942 943 0
940 941 1172 0
940 1172 1187 0
941 833 1172 0
941 940 942 0
942 940 1160 0
943 942 1160 0
944 809 946 0
944 829 945 0
944 945 1289 0
945 799 1289 0
947 776 948 0
947 948 1144 0
948 774 1144 0
949 776 951 0
950 949 951 0
953 707 954 0
954 12 956 0
955 954 956 0
957 726 958 0
959 723 962 0
960 594 986 0
960 959 961 0
961 959 962 0
962 725 972 0
963 964 972 0
963 972 1151 0
963 1151 1152 0
964 566 965 0
964 583 972 0
964 963 966 0
966 963 967 0
966 967 968 0
966 968 969 0
967 683 970 0
967 963 1152 0
968 684 971 0
968 967 970 0
969 589 1002 0
969 968 971 0
971 686 998 0
972 725 1153 0
973 719 987 0
973 974 981 0
974 594 977 0
974 973 987 0
974 977 981 0
975 976 1119 0
975 1119 1120 0
976 595 1119 0
976 975 977 0
977 975 978 0
977 978 981 0
978 975 980 0
978 980 984 0
979 980 1120 0
979 1120 1132 0
979 1132 1133 0
979 1133 1135 0
980 975 1120 0
980 979 983 0
980 983 984 0
981 978 984 0
982 981 984 0
982 984 985 0
982 985 1141 0
983 979 1135 0
984 983 985 0
985 80 1140 0
985 983 1135 0
985 1140 1141 0
986 974 987 0
989 992 993 0
989 993 995 0
989 995 997 0
989 997 998 0
989 998 999 0
990 676 1005 0
990 992 999 0
991 990 999 0
992 613 1004 0
992 989 999 0
992 990 1005 0
993 620 996 0
993 992 1004 0
994 615 1320 0
994 993 1004 0
995 610 1000 0
995 993 996 0
996 612 1009 0
997 589 998 0
997 995 1000 0
997 1000 1001 0
998 991 999 0
1000 610 1003 0
1000 611 1001 0
1001 591 1002 0
1005 676 1006 0
1007 669 1319 0
1007 671 1311 0
1008 637 624 0
1010 607 1012 0
1011 1010 1012 0
1012 607 1013 0
1013 1015 1014 0
1014 545 1020 0
1014 1015 545 0
1014 1020 1021 0
1015 1013 607 0
1016 1017 1019 0
1016 1018 1017 0
1016 1019 1023 0
1018 1016 1020 0
1019 551 1023 0
1019 1025 1024 0
1020 1016 1022 0
1021 1020 1022 0
1022 1016 1023 0
1024 9 1026 0
1024 1025 9 0
1025 1019 1017 0
1026 541 1027 0
1028 505 1033 0
1028 532 1139 0
1029 508 1031 0
1029 1031 1032 0
1029 1032 1054 0
1029 1054 1067 0
1030 448 1032 0
1031 1030 1032 0
1032 448 1056 0
1034 505 1138 0
1035 503 1034 0
1035 1034 502 0
1037 354 1040 0
1037 479 1039 0
1038 1037 1039 0
1040 354 1041 0
1041 354 1044 0
1041 357 1043 0
1042 1043 1124 0
1043 357 1123 0
1043 1042 1108 0
1043 1123 1124 0
1046 449 1049 0
1048 1051 1055 0
1048 1055 1058 0
1048 1058 1059 0
1048 1059 1061 0
1049 449 1054 0
1049 1051 1068 0
1049 1054 1055 0
1050 1051 1061 0
1050 1061 1064 0
1050 1064 1066 0
1050 1066 1068 0
1051 1048 1061 0
1051 1049 1055 0
1051 1050 1068 0
1052 1054 1056 0
1052 1057 1058 0
1053 1335 1336 0
1054 449 1067 0
1054 1032 1056 0
1054 1052 1055 0
1055 1052 1058 0
1057 1052 1056 0
1057 1053 1058 0
1057 1056 448 0
1058 1053 1336 0
1059 1047 1062 0
1059 1058 1336 0
1059 1060 1047 0
1060 1059 1336 0
1060 1335 1 0
1061 1059 1062 0
1061 1062 1065 0
1062 1063 1065 0
1063 437 1065 0
1063 1062 1047 0
1064 437 1070 0
1064 1061 1065 0
1066 443 1068 0
1066 1064 1070 0
1069 446 1070 0
1071 1075 1074 0
1072 419 1076 0
1072 439 1073 0
1072 1073 1074 0
1072 1074 1077 0
1073 1071 1074 0
1074 329 1077 0
1074 1075 329 0
1075 1071 445 0
1077 1079 1078 0
1078 1079 417 0
1079 1077 329 0
1081 370 1082 0
1081 1082 1084 0
1082 313 1083 0
1082 370 1086 0
1082 1083 1084 0
1083 308 1084 0
1085 1082 1086 0
1087 331 1099 0
1088 64 1097 0
1088 1090 1092 0
1089 65 1093 0
1089 1090 1091 0
1089 1091 1107 0
1090 68 1091 0
1090 1088 1096 0
1090 1089 1092 0
1091 69 1107 0
1092 1089 1093 0
1093 73 1094 0
1093 1094 1095 0
1094 75 1106 0
1095 1094 1106 0
1096 1088 1097 0
1098 131 1099 0
1102 94 1103 0
1103 94 1334 0
1106 74 1128 0
1106 75 1136 0
1108 492 1321 0
1108 1042 1110 0
1109 1110 1122 0
1109 1122 1126 0
1110 1042 1122 0
1110 1109 1112 0
1111 1112 1114 0
1111 1113 1116 0
1111 1114 1115 0
1112 1109 1114 0
1112 1111 1116 0
1113 482 1116 0
1113 1111 1115 0
1114 8 1115 0
1114 1109 1118 0
1117 8 1118 0
1117 1118 1126 0
1118 1109 1126 0
1119 1117 1125 0
1120 1119 1125 0
1120 1125 1131 0
1120 1131 1132 0
1121 1122 1124 0
1121 1124 1127 0
1121 1125 1126 0
1121 1127 1131 0
1122 1042 1124 0
1122 1121 1126 0
1123 357 1130 0
1124 1123 1127 0
1125 1117 1126 0
1125 1121 1131 0
1127 74 1131 0
1127 1123 1128 0
1128 1123 1129 0
1129 1123 1130 0
1131 74 1132 0
1132 74 1136 0
1133 75 1134 0
1133 1132 1136 0
1133 1134 1135 0
1134 80 1135 0
1137 502 1138 0
1137 1138 1139 0
1138 1028 1139 0
1140 82 1143 0
1141 1140 1143 0
1141 1143 1145 0
1142 1143 1144 0
1142 1144 1148 0
1143 82 1144 0
1143 1142 1145 0
1144 774 1148 0
1145 1142 1146 0
1146 1142 1147 0
1146 1147 1150 0
1147 886 1150 0
1147 1142 1148 0
1147 1148 1149 0
1148 774 1149 0
1151 712 1152 0
1151 972 1153 0
1154 1157 1158 0
1154 1158 1169 0
1155 1156 1160 0
1155 1160 1163 0
1155 1163 1167 0
1155 1167 1169 0
1156 929 1160 0
1156 1155 1158 0
1156 1157 1159 0
1157 839 1159 0
1157 1156 1158 0
1158 1155 1169 0
1160 940 1163 0
1161 1165 1166 0
1161 1166 1188 0
1162 1163 1187 0
1162 1166 1167 0
1162 1171 1188 0
1163 940 1187 0
1163 1162 1167 0
1164 1154 1169 0
1165 3 1168 0
1166 1162 1188 0
1166 1165 1168 0
1166 1168 1169 0
1167 1166 1169 0
1168 1164 1169 0
1170 1161 1188 0
1171 1162 1187 0
1171 1170 1188 0
1171 1172 1175 0
1171 1175 1273 0
1172 833 1175 0
1172 1171 1187 0
1173 1274 1275 0
1173 1275 1280 0
1174 1175 1176 0
1174 1176 1179 0
1174 1179 1275 0
1175 833 1177 0
1175 1174 1273 0
1176 1175 1177 0
1176 1177 1181 0
1176 1181 1182 0
1177 834 1181 0
1178 1179 1182 0
1178 1182 1184 0
1178 1183 1278 0
1178 1278 1280 0
1179 1176 1182 0
1179 1178 1275 0
1180 822 1271 0
1181 1180 1182 0
1182 1180 1184 0
1183 1178 1184 0
1183 1184 1192 0
1183 1192 1240 0
1183 1240 1277 0
1183 1277 1278 0
1184 1180 1186 0
1184 1186 1192 0
1185 1191 1272 0
1185 1196 1200 0
1185 1200 1235 0
1185 1235 1243 0
1186 1180 1271 0
1186 1191 1192 0
1186 1271 1272 0
1189 1237 1245 0
1190 1191 1243 0
1190 1236 1239 0
1190 1239 1240 0
1191 1185 1243 0
1191 1186 1272 0
1191 1190 1192 0
1192 1190 1240 0
1193 1194 1244 0
1193 1196 1272 0
1194 820 1244 0
1194 1193 1270 0
1195 861 1251 0
1195 1199 1244 0
1196 1185 1272 0
1196 1193 1244 0
1196 1199 1200 0
1197 1201 1255 0
1198 1199 1251 0
1198 1251 1252 0
1199 1195 1251 0
1199 1196 1244 0
1199 1198 1200 0
1200 1198 1201 0
1200 1201 1203 0
1200 1203 1235 0
1201 1197 1203 0
1201 1198 1249 0
1201 1249 1255 0
1202 1203 1205 0
1202 1205 1248 0
1202 1237 1242 0
1203 1197 1205 0
1203 1202 1235 0
1204 1205 1217 0
1204 1216 1246 0
1204 1246 1248 0
1205 1197 1207 0
1205 1204 1248 0
1205 1207 1217 0
1206 1207 1208 0
1206 1208 1209 0
1206 1209 1212 0
1206 1212 1215 0
1206 1215 1217 0
1207 1197 1255 0
1207 1206 1217 0
1208 1207 1255 0
1209 20 1263 0
1209 1208 1234 0
1209 1211 1212 0
1210 1212 1228 0
1211 115 1265 0
1211 1209 1263 0
1212 1210 1214 0
1212 1211 1228 0
1212 1214 1215 0
1213 1214 1222 0
1213 1222 1223 0
1213 1223 1268 0
1214 1210 1221 0
1214 1213 1215 0
1214 1221 1222 0
1215 1213 1216 0
1215 1216 1217 0
1216 1204 1217 0
1216 1213 1268 0
1216 1219 1246 0
1218 1219 1269 0
1219 1216 1268 0
1219 1245 1246 0
1219 1247 1245 0
1219 1268 1269 0
1220 1221 1224 0
1220 1224 1229 0
1220 1229 1230 0
1221 1210 1225 0
1221 1220 1222 0
1222 1220 1223 0
1223 1220 1230 0
1223 1267 1269 0
1224 196 1266 0
1224 1221 1225 0
1225 1210 1226 0
1225 1226 1282 0
1226 199 1282 0
1226 1210 1228 0
1226 1228 1265 0
1227 1226 1265 0
1227 1264 1281 0
1228 1211 1265 0
1229 204 1232 0
1229 1224 1266 0
1230 1229 1232 0
1230 1231 6 0
1231 1230 1232 0
1233 24 1257 0
1233 1234 1249 0
1233 1249 1253 0
1233 1253 1254 0
1234 1208 1249 0
1234 1233 1257 0
1235 1202 1236 0
1235 1236 1243 0
1236 1190 1243 0
1236 1202 1242 0
1237 1202 1248 0
1237 1241 1242 0
1239 1236 1242 0
1239 1241 1238 0
1239 1276 1240 0
1240 1276 1277 0
1241 1237 1189 0
1241 1239 1242 0
1245 1237 1248 0
1245 1247 1189 0
1246 1245 1248 0
1247 1219 1218 0
1249 1198 1252 0
1249 1208 1255 0
1249 1252 1253 0
1250 23 1254 0
1250 1251 1256 0
1251 861 1256 0
1251 1250 1252 0
1252 1250 1253 0
1253 1250 1254 0
1257 24 1260 0
1258 115 1263 0
1258 1257 1260 0
1259 1258 1260 0
1259 1260 1261 0
1260 24 1262 0
1261 22 1334 0
1261 1260 1262 0
1264 21 1281 0
1264 1227 1265 0
1267 1218 1269 0
1267 1223 6 0
1268 1223 1269 0
1270 1193 1271 0
1271 1193 1272 0
1273 1174 1275 0
1273 1274 832 0
1274 1273 1275 0
1275 1178 1280 0
1276 808 1277 0
1276 1239 1238 0
1277 808 1278 0
1278 1279 1280 0
1279 1173 1280 0
1279 1278 808 0
1283 848 1284 0
1283 909 1291 0
1285 1286 1288 0
1285 1288 1289 0
1285 1289 1290 0
1285 1290 1291 0
1286 801 1288 0
1286 1285 1291 0
1287 1286 1291 0
1288 800 1289 0
1289 799 1290 0
1290 848 1291 0
1292 1293 1295 0
1292 1295 1297 0
1292 1297 1314 0
1292 1314 1317 0
1293 924 1296 0
1293 1292 1316 0
1294 1295 1296 0
1294 1340 1341 0
1295 1293 1296 0
1295 1294 1297 0
1297 1294 1308 0
1297 1298 1314 0
1297 1307 1309 0
1298 874 1314 0
1298 1297 1309 0
1298 1299 1315 0
1299 702 1315 0
1299 1298 1309 0
1299 1309 1313 0
1300 1304 1310 0
1300 1310 1313 0
1301 1302 1303 0
1301 1303 1304 0
1302 11 1312 0
1303 667 1310 0
1303 1302 1312 0
1304 1300 1306 0
1304 1303 1310 0
1304 1305 1301 0
1305 1304 1306 0
1306 1300 1307 0
1306 1307 1308 0
1306 1308 1341 0
1307 1297 1308 0
1307 1300 1309 0
1308 1294 1341 0
1309 1300 1313 0
1310 666 1313 0
1310 667 1311 0
1314 874 1317 0
1315 702 1318 0
1316 1292 1317 0
1323 413 386 0
1325 299 1326 0
1325 1326 1327 0
1326 149 1327 0
1328 411 298 0
1329 238 1330 0
1332 189 1333 0
1335 1060 1336 0
1337 242 1339 0
1338 1337 1339 0
1340 665 1341 0
1340 1294 923 0

End
