MeshVersionFormatted 1

Dimension
2

Vertices
1082
0.0 0.0 1
1.0 0.0 1
1.0 1.0 1
0.0 1.0 1
0.5 0.0 1
1.0 0.5 1
0.5 1.0 1
0.25 0.5 0
0.0 0.5 1
0.0 0.75 1
0.25 1.0 1
0.375 0.75 0
0.7291666666666666 0.7291666666666666 0
0.538690476190476 0.5119047619047622 0
0.3910557644110273 0.5857221177944861 0
0.5316602518200254 0.6823877028881726 0
0.654972415227055 0.6020863169829342 0
0.7650644656186915 0.3400724474862056 0
0.6749052114385818 0.45632563128933656 0
0.8276068351983819 0.5514508511724192 0
0.7854616148589596 0.44897904494922575 0
0.7352910988334793 0.5295162491877469 0
0.7601325780042659 0.6301974255277039 0
0.7736121155384761 0.5734663558598555 0
0.7140392862560221 0.5867276498891941 0
0.6987346194295964 0.6491284537217925 0
0.6895479488246486 0.6137980513830927 0
0.7244735266878868 0.623576211854637 0
0.7477968640191492 0.5972994768463565 0
0.7405807748016819 0.5635855712243611 0
0.7066090418391069 0.5514147910707189 0
0.6795990259585076 0.575536154030614 0
0.6515480633650842 0.5169429683171464 0
0.6364305463887948 0.560191510440027 0
0.6740762187746789 0.54216898213674 0
0.6965122923208599 0.49945996996276004 0
0.6961105559076968 0.5264965393431925 0
0.6660704966673838 0.48773009921018534 0
0.5929676722980208 0.45021986339019526 0
0.6218327929741571 0.48395461568311726 0
0.6346441120033937 0.4437760304074188 0
0.5824642849726557 0.24429148238974163 0
0.5983006950319959 0.34671579890318166 0
0.6791761506639414 0.3717670047775159 0
0.6661686291825457 0.41349718573667904 0
0.7282225607698397 0.4231441044149658 0
0.6998711510807284 0.40111009515768586 0
0.6975737043341016 0.43332329082805476 0
0.7257241300892852 0.4668519271354869 0
0.740041028057796 0.3786801035972593 0
0.7099728865375321 0.37201617880180826 0
0.7521588201342171 0.4464376702532995 0
0.771843854958009 0.40795483136644944 0
0.7742440179156729 0.3734354084210045 0
1.0 0.25 1
1.0 0.375 1
0.8874676945365092 0.3243384971680251 0
0.8273799833659702 0.340871151094451 0
0.8235188695655478 0.39420468217631793 0
0.7953304566437028 0.3922447193855927 0
0.8073157703396837 0.42355504192181637 0
0.8036171545986339 0.36173052413613854 0
0.9050195096297151 0.4583454625657833 0
0.859016653399654 0.43294922038571443 0
0.8347472137774365 0.4195510834713882 0
0.8269792869442785 0.46230188689319623 0
0.8667845802328118 0.3901984169639014 0
0.8973709146700517 0.4178371571436462 0
0.9138891600846041 0.36881377632855894 0
0.8949817796222787 0.3897375759804896 0
0.8803653807750742 0.35828573193524654 0
0.8583477329663435 0.3359627046614182 0
0.847153119907055 0.36547819570979184 0
0.8209052663614936 0.1998785569573084 0
0.75 0.0 1
0.8320217115776387 0.27001302752684697 0
0.8597447030570726 0.2971757623474352 0
0.924799954297758 0.25850745545476594 0
0.8768846565510724 0.2519535119909561 0
0.8584090139014647 0.27081023194699955 0
0.8974015527195288 0.2864709745378145 0
0.9462280136227357 0.31951645666998457 0
1.0 0.3125 1
0.9299564964386452 0.2909639003646701 0
0.9164887546762773 0.31755157100682907 0
1.0 0.28125 1
0.9636864204139048 0.2656250000000012 0
1.0 0.125 1
0.9560105530088875 0.19777561980274308 0
1.0 0.1875 1
0.9495887352904183 0.2328610057144655 0
1.0 0.21875 1
0.9771931216508531 0.234375 0
0.9037661515129761 0.2063435175944596 0
0.9207704661852286 0.22980959943653612 0
0.8247920960418094 0.30512052999113104 0
0.7670333833770782 0.2749282563445915 0
0.6951723225423895 0.2980058400642381 0
0.6948604381181924 0.33655328602050577 0
0.800230462214101 0.2817644622851417 0
0.8024015527933384 0.2387596542863095 0
0.7775566774082526 0.30784816219083994 0
0.7978997797974385 0.3312524395605391 0
0.7363710969821077 0.30287178142011595 0
0.7137647511385427 0.3174312546704181 0
0.7314920533163703 0.34608688888226513 0
0.8399855557974931 0.23280251927115506 0
0.8711629867610526 0.21785462120330118 0
0.8941107444057902 0.231533554055025 0
0.8663093847072789 0.1521807516808297 0
0.8776699144730679 0.1843574426575861 0
0.9225850277867581 0.15752614575644605 0
0.8939079700591038 0.1605304601451827 0
0.875 0.0 1
0.9008011323587329 0.0879601059719793 0
0.8900337511731401 0.12354991008728028 0
0.8453393889149383 0.17767842642204418 0
0.776873448348346 0.09999814474646396 0
0.7981353278133955 0.1502707612896682 0
0.8173896453089459 0.17146263458166738 0
0.7743644817171526 0.19121115027002286 0
0.7947090934679466 0.21125521870923322 0
0.7545627474128199 0.23165665924021084 0
0.7204448519544574 0.2608724212153126 0
0.7174749440074453 0.2860179292818787 0
0.8353997383653986 0.10242332140163579 0
0.8323762333684595 0.13850336604647828 0
0.8591812868517357 0.1221294194418213 0
0.8666989015945686 0.08885410068720076 0
0.8125 0.0 1
0.831096054008118 0.0496139214303721 0
0.842226155748595 0.0752869411611081 0
0.8744127637074741 0.046083840686344794 0
0.8051841008363595 0.07609675187459156 0
0.7910371150268959 0.036336619407234996 0
0.8164202864808336 0.02682261983521614 0
0.8494838637043092 0.021652990448230068 0
0.84375 0.0 1
0.6439738413347418 0.3168665817802082 0
0.6629454685098967 0.3434380423583814 0
0.6728430921177123 0.31631282655203685 0
0.657609980348492 0.2749617387530843 0
0.6306906266874577 0.3464090591736373 0
0.6149620598541499 0.39581145059812306 0
0.6147036434121113 0.3685241770886222 0
0.5733424423395844 0.3825607370844825 0
0.6463502179391367 0.38186933749833374 0
0.5857287434699945 0.4156437759276729 0
0.49479184780312174 0.4308303438418046 0
0.5434829530288228 0.4425342744171783 0
0.56967378164812 0.43705090257738766 0
0.6131360104912523 0.4245812730549874 0
0.5054014620425449 0.3086430439819848 0
0.547608621011703 0.3380312084601303 0
0.5709180537652497 0.3542611907755482 0
0.6886939631907294 0.2664299622498674 0
0.6499783811764953 0.18626706921333125 0
0.6619578174516293 0.22991197616741493 0
0.61056874876298 0.2828252523969314 0
0.6361374339258351 0.29114548748417024 0
0.884443275807026 0.44125433468484043 0
0.8671493443849638 0.48300628967043846 0
0.8538561218995638 0.4594768307912749 0
0.7460383533825176 0.4040768502074413 0
0.6982375285778062 0.4716168195910516 0
0.7282741650902131 0.49852506911578764 0
0.7819205619521474 0.5026685734309408 0
0.7667499604075121 0.47470646969691555 0
0.7469561600084649 0.46702311970186805 0
0.7544570693946344 0.5088867783262466 0
0.7674399431873861 0.5401665008664704 0
0.796356826857463 0.5520286557397087 0
0.7994110000105048 0.4768606042646091 0
0.8219486316319685 0.5109654341396909 0
0.7982300167571058 0.5246896899709677 0
0.6587438398955937 0.437317081092714 0
0.6158006623021982 0.45989941690383634 0
0.6453613156541409 0.4693251086798344 0
0.8390801979395642 0.4881446325433162 0
1.0 0.75 1
1.0 0.625 1
0.9280043598842678 0.5350498234460404 0
0.9052309470977637 0.5000780480975547 0
0.869059695258757 0.5297546946970172 0
0.898824095760054 0.5291509950820484 0
0.885612702290759 0.611829180682131 0
0.905233292578525 0.5725697764776128 0
0.8626613243462056 0.5758262457752849 0
0.8849228923717405 0.5869518630443837 0
0.882486397489468 0.5550994568815325 0
0.853838355787334 0.5511208455164183 0
0.8173703233816147 0.6035658732600278 0
0.8124217253056653 0.5755310154620547 0
0.8514171941147298 0.6083112868242067 0
0.8374849830443719 0.5853003947379687 0
0.8226991692980082 0.6898436327633908 0
0.8635423678608426 0.6584059478493491 0
0.8663397534878935 0.631214103255814 0
0.9033770218905481 0.6487641598555423 0
0.9052684403359005 0.7436869966443062 0
0.8938312304700772 0.6964346303443119 0
0.88752503943768 0.6703808591784174 0
0.9621958076651566 0.5814707224301318 0
1.0 0.5625 1
0.9663545181191496 0.5426052576776272 0
1.0 0.53125 1
0.9550137527307554 0.4990618352480961 0
0.9763670211139341 0.5167489817390019 0
0.9297042377084149 0.4790872261792878 0
1.0 0.4375 1
0.9656231434017555 0.4595968920840562 0
0.9556228089690981 0.40624999999999917 0
0.925272184654313 0.39810436410215755 0
0.9076716650821703 0.4028099901803101 0
0.9319412551131966 0.43387142291332753 0
0.940956145806943 0.4569806667581328 0
0.9714620177504153 0.43089157433695113 0
1.0 0.40625 1
0.9778299938246502 0.4840370058241197 0
1.0 0.46875 1
0.9303076815249443 0.5086490706736174 0
1.0 0.59375 1
0.935546412739598 0.5652970570474313 0
0.9287407457377838 0.6088506199309083 0
0.9641340505619204 0.6179680838235374 0
0.9387554040130967 0.6432302717449951 0
0.9081029845369476 0.623751681163686 0
0.8797515789327272 0.5059045407681236 0
0.8916872763028824 0.4792798384979356 0
0.9260881937378732 0.6781029526188814 0
1.0 0.6875 1
0.9643822924062697 0.6722759947102983 0
0.9774443517983091 0.6450617651435415 0
1.0 0.65625 1
0.9250832277358605 0.713880577676204 0
0.9521976073079107 0.7533952162400089 0
0.9306870581315105 0.7390953783680759 0
0.9675160738249853 0.7142214350369681 0
0.9481851437168564 0.6945758821689494 0
0.9752558905665797 0.7398299509342211 0
1.0 0.71875 1
0.8991350865311801 0.8916164177750766 0
1.0 0.875 1
0.75 1.0 1
0.875 1.0 1
1.0 0.8125 1
1.0 0.78125 1
0.9143320961227419 0.8181546472035272 0
0.9223506455297901 0.779393282126539 0
0.9607795059855636 0.7968749999999991 0
0.9735033217642295 0.7717767889740645 0
0.9351436809888899 0.8022498524188288 0
0.9550145988973255 0.8498196315674189 0
0.9723298182205238 0.8249188359034935 0
1.0 0.84375 1
0.8608437410609048 0.786879451039264 0
0.8928588719394851 0.7935024094467695 0
0.8821885438176924 0.764390926568514 0
0.8350351662237454 0.741009562622462 0
0.8670269773077169 0.8376813666218771 0
0.8873886084490622 0.8199454566185317 0
0.8997688073622118 0.8547144821041815 0
0.9292887269768532 0.8736778401081198 0
0.9644305932713917 0.8857717008197198 0
0.9266817828521438 0.8442545327822815 0
0.7660003434733488 0.824200340038504 0
0.8182619165415206 0.8178394449973502 0
0.8481619181783687 0.8142002362828685 0
0.8707355699330842 0.7270351690052407 0
0.858315693463079 0.6936453482189591 0
0.83822029949986 0.7131715775125873 0
0.8424773832448057 0.6732889172118282 0
0.8298624219323497 0.638449516492682 0
0.7953765404253711 0.6311205940635398 0
0.7765777796803555 0.6755851225048495 0
0.7772566961903421 0.6496660112741462 0
0.7865474533440168 0.601518421919302 0
0.8072781349118823 0.6614980057018689 0
0.7863568940766624 0.7256757343142142 0
0.7949110965847558 0.6980058235317933 0
0.7564248806046577 0.7055194292785676 0
0.7352289283440402 0.6694985210122878 0
0.739054551379072 0.6443818684514322 0
0.6966596349070177 0.695721929575632 0
0.7268198198273512 0.6989275366964648 0
0.7447587455793172 0.688137516901746 0
0.7093729679765051 0.6729451612049916 0
0.6297781517203136 0.6694005015979845 0
0.6133880657436962 0.8091789530108916 0
0.6645554682041008 0.7594461543253521 0
0.691625655759775 0.7331349459514683 0
0.6528633158130083 0.7088742402102082 0
0.6649074978386412 0.7327272042879892 0
0.610229814141461 0.7453686045862722 0
0.7161338887824857 0.7854312835132748 0
0.7129219614702604 0.755045569805523 0
0.7584625715411291 0.765594306987574 0
0.7582704678481219 0.7357547771747914 0
0.7472836140929785 0.7968198804354187 0
0.7139525661908666 0.839691730797018 0
0.7374924583731383 0.8236003357654601 0
0.7508109224710798 0.8683475417407088 0
0.625 1.0 1
0.6776699137407772 0.9243923836532894 0
0.7069019212173627 0.8867928982129692 0
0.6544386258574453 0.8548612936375503 0
0.6700379933019331 0.8882958221530746 0
0.5719783184492532 0.9136906746109991 0
0.6250653043199292 0.9166595200384603 0
0.6358336980627549 0.8838980149228081 0
0.5999161326300846 0.8902427409366221 0
0.6114153031355918 0.8505024404416331 0
0.5446006097891569 0.8527029183122158 0
0.5669361020524772 0.8793152774716856 0
0.5778714612877607 0.8474581781497232 0
0.5513255510949941 0.7872117985918935 0
0.5566277402738741 0.8208470871519554 0
0.5858843329251727 0.8192764650079414 0
0.49041925414580767 0.8140484832334258 0
0.522624022738542 0.8262073546232915 0
0.5171082915115506 0.7920874288747319 0
0.45435366421482554 0.743020373023601 0
0.4802788329934573 0.7745269567670231 0
0.4835461807405573 0.8809821935454392 0
0.5256963629093687 0.9029218593231217 0
0.5396748022879885 0.8795162597524016 0
0.510331967400558 0.8587648827848949 0
0.4775946009188467 0.8465513216972737 0
0.34214585842502343 0.8876942566844757 0
0.375 1.0 1
0.41242864019605474 0.8755454622058827 0
0.44867418252172564 0.8692802058602508 0
0.4243002843060935 0.8085029273876763 0
0.425517500449468 0.8432908283455717 0
0.4528082541345894 0.824920689232496 0
0.4526875397245396 0.7921706526446551 0
0.3638804611852858 0.8280322407257454 0
0.3915706767562091 0.8482983135779015 0
0.39353835191362835 0.8165597410591195 0
0.36562554844961587 0.7884725308701116 0
0.36114166232949846 0.8608244254364598 0
0.3794077441099656 0.8938872719441965 0
0.30233860558624953 0.8394027376361735 0
0.32882158954461255 0.8581250573052088 0
0.28122532768213987 0.8973592016742185 0
0.31036881673477346 0.8842267634478767 0
0.3125 1.0 1
0.31886111234345665 0.9419766690630431 0
0.3234372698610357 0.9118043699837086 0
0.361057210715226 0.9329432695469476 0
0.47354710580203124 0.8261727679488965 0
0.4429509096185522 0.9441459785676914 0
0.4375 1.0 1
0.45526964763391264 0.9074360604164625 0
0.6527979098872849 0.9107959964657055 0
0.41646971755468426 0.9148378346100449 0
0.38808084283930044 0.9218013585658241 0
0.3889004688776923 0.9621318467600287 0
0.4130623386362858 0.9445340813090201 0
0.41732477388891964 0.9757725391978312 0
0.40625 1.0 1
0.49274269675464566 0.9404327390863957 0
0.4852602019809732 0.9111536342925344 0
0.4670657742906445 0.9318163406631765 0
0.40242377566777443 0.8964284173190067 0
0.35797383724272885 0.9076555257737677 0
0.34710154415796596 0.9708228997797593 0
0.34375 1.0 1
0.3178382134881869 0.9712248790450305 0
0.27090939111591955 0.9549416434697132 0
0.32810590671841877 0.8066357818238202 0
0.17532640051817158 0.7130078610541098 0
0.24623367894319387 0.7687679751795524 0
0.2826733500963016 0.797423428714401 0
0.3030711114136981 0.8134638342161333 0
0.33706556337089216 0.8322608573569794 0
0.4022889231457097 0.7770277689324167 0
0.5208813512226365 0.7367728941715267 0
0.5307375241592613 0.7652311430199837 0
0.5691342353679214 0.7498992759941675 0
0.5881339040714787 0.7818736858501738 0
0.5842297600061545 0.6981790239444325 0
0.5874264991913768 0.7271751340520588 0
0.6183907534035458 0.7117525202593308 0
0.5519100685317029 0.7164164493654223 0
0.6363828846394687 0.7339191030927832 0
0.6086740364504447 0.68643303555168 0
0.5734852304248351 0.6212416747890356 0
0.5806675248018044 0.6594575733529173 0
0.6114041327311911 0.6338980672105525 0
0.6047997993043488 0.5905535960262115 0
0.5519083022034315 0.5679032948018229 0
0.5736870108308141 0.5901266107900895 0
0.5925335063458296 0.5461175111750415 0
0.610677800839849 0.5650199541095675 0
0.6268879200728972 0.6093634433845133 0
0.6493885925305543 0.6383683412783213 0
0.6675495114212558 0.6715573231537374 0
0.6756945245504291 0.6362598099857582 0
0.5447055578926048 0.6464333945747475 0
0.5346550000117126 0.6059161960002644 0
0.4762003481023337 0.6419214101011722 0
0.5097986347127618 0.6541118805317675 0
0.5031088393264521 0.6201541628341365 0
0.45254445002162336 0.5851625334495595 0
0.4726954906734208 0.6100730834094944 0
0.5005580808838843 0.5669283050303587 0
0.4795444604985519 0.583926979058324 0
0.4641627385118134 0.5434244524628183 0
0.5099089016732294 0.5931542321701879 0
0.42220841363429695 0.6303081714861598 0
0.4508213305120534 0.6285973150836613 0
0.43958679575910703 0.680828590464143 0
0.4853870182208771 0.6955749939356896 0
0.5058860012238066 0.6797260855697452 0
0.5009124366031835 0.5264488597590011 0
0.45771923933136993 0.4812085288902533 0
0.47157981315595077 0.5112146625383576 0
0.5053344703417966 0.47741821573958004 0
0.42078050282917767 0.5164757805233021 0
0.447079800821988 0.522531823010961 0
0.42553397513507907 0.5559654932486254 0
0.5135241303478651 0.502871566301987 0
0.5266224377194553 0.5469151978995402 0
0.5558653592865987 0.5374100495456741 0
0.5814998221903142 0.501612881916629 0
0.5632364161134106 0.47159415503303387 0
0.5338640144085275 0.4703164027143397 0
0.6125073048202191 0.5175455016857545 0
0.6322936764230346 0.5344790354063486 0
0.5607904712914189 0.6808107730632557 0
0.48780685883533137 0.7419129816506022 0
0.5042181963676472 0.762876885731215 0
0.6351311537362024 0.8309257902146908 0
0.6765477588123736 0.8172721586122175 0
0.6841328001775578 0.8470301486070223 0
0.6836974743529228 0.7856328919535458 0
0.6468841282369703 0.79245315672808 0
0.6341969503213484 0.7645202778544036 0
0.6147154178167772 0.7826201096996965 0
0.345744965265392 0.4009056011727471 0
0.3941601371324823 0.4516154011570156 0
0.4201530701317538 0.47884026440889144 0
0.4798852098510528 0.4586904575013334 0
0.4399720438472819 0.41941681983464757 0
0.44885170940669467 0.45031093162474967 0
0.46668698759322685 0.4284615056915876 0
0.48589286162489703 0.3685033679623035 0
0.46335138615109395 0.3943379462008415 0
0.4948038550592574 0.3990298471374506 0
0.5265867205620595 0.373188256670908 0
0.400007780462165 0.3163173147007646 0
0.41280367595856254 0.3706526542180811 0
0.43425592515756156 0.3906511391793038 0
0.39659233636276353 0.4095475453354341 0
0.421280508328985 0.4415123534659539 0
0.37578750049356185 0.3780502389392107 0
0.3889486054350445 0.3475961121469492 0
0.25377453805492006 0.2822084342867822 0
0.32499553550521637 0.30738988436535625 0
0.3449317513080196 0.3466446425619758 0
0.3623524414685473 0.3131073831376412 0
0.3959812932447536 0.1410813772686039 0
0.25 0.0 1
0.35706216102226185 0.22277319696620168 0
0.3500628632691662 0.26850510149046447 0
0.3838676715438184 0.2831848840316205 0
0.37842947553372186 0.24944505416009993 0
0.45326981909356234 0.2546904448669959 0
0.4152361713929931 0.260820719736853 0
0.4406816868233735 0.29764067651445913 0
0.424604865176408 0.19789634471097672 0
0.39290346841677365 0.21595487012541537 0
0.42168238844244554 0.22962085381212682 0
0.3925271530402737 0.17843939442420706 0
0.31451825311447845 0.15238795977063535 0
0.3565741174590348 0.1562764651819801 0
0.375 0.0 1
0.3482819436057771 0.07607428012853502 0
0.3389452958771029 0.11756936434893292 0
0.36816178264748584 0.12763096187822076 0
0.40685287694212463 0.08310089582872525 0
0.3935496575098603 0.11061596084584505 0
0.4508956237864517 0.12136857028612782 0
0.4236816726190037 0.10821093595837901 0
0.46153056097626016 0.06465017529304645 0
0.4366953150673031 0.0812948033712501 0
0.4375 0.0 1
0.41924873123019074 0.04047072665271277 0
0.3768499164088339 0.08556831712849264 0
0.375201672871138 0.04279979539632627 0
0.3980602137724052 0.05742689883635707 0
0.3961499757003554 0.021300714038260067 0
0.40625 0.0 1
0.3125 0.0 1
0.3334890155597546 0.03657995865145486 0
0.28125 0.04224233344604253 0
0.2805210669562484 0.10255946434407255 0
0.30690578673145974 0.12106970780516413 0
0.31264659322892363 0.08482702696565496 0
0.2848575156391219 0.07244890033350865 0
0.3093753750154965 0.05478845162946372 0
0.30488827864509715 0.02704922365621952 0
0.28125 0.0 1
0.125 0.0 1
0.20387619310646107 0.06680165020975619 0
0.2435135109047934 0.08186218369586597 0
0.23668888725441148 0.040133347219951515 0
0.25817175269676956 0.05804238165125995 0
0.2597121356030016 0.02549538086633369 0
0.1875 0.0 1
0.20259695301277778 0.031707142880395535 0
0.21875 0.0 1
0.15625 0.03432697281205324 0
0.18038839387253566 0.05008724216987601 0
0.0 0.25 1
0.1125763577250817 0.17023984107566917 0
0.0 0.125 1
0.15279328002571158 0.11372530615766537 0
0.14773699654180883 0.07373076032995049 0
0.07775704076845635 0.10289482057263875 0
0.11676864997586972 0.09796280418806404 0
0.0625 0.0 1
0.09068505292865538 0.04839932824153835 0
0.11691245670038487 0.06624192388171056 0
0.12031512163859048 0.03304268857580305 0
0.09375 0.0 1
0.09034316470780118 0.07709942965235582 0
0.0 0.0625 1
0.04639584434612019 0.06222382279187866 0
0.10142270898788729 0.13333279344584945 0
0.13469838562066094 0.14341546972841832 0
0.22264666439164688 0.17665709559285678 0
0.18179970785598415 0.15176260946046652 0
0.20883576820178562 0.11343904602417701 0
0.2464945962489509 0.11996601221337519 0
0.2762509874728813 0.14510520968971094 0
0.2445117544130469 0.1524934328833061 0
0.2721855535603273 0.19950917308120317 0
0.26570542729014296 0.17167105388025236 0
0.21817339939003572 0.08886364467908876 0
0.0 0.1875 1
0.054565252909508144 0.16763243835283462 0
0.0840296250801554 0.158728034490743 0
0.06021727501841596 0.13313427995853658 0
0.08194803120694936 0.205040619541178 0
0.027882267443897827 0.14554873874387103 0
0.0 0.15625 1
0.026238042731868177 0.17469732282986647 0
0.031490739784645685 0.21875 0
0.03880188396501104 0.10050621365649191 0
0.023288238526264764 0.07753442868546101 0
0.0 0.09375 1
0.17826550150335368 0.09018810620724682 0
0.35705991459166664 0.0214849066210458 0
0.34375 0.0 1
0.33227560428632735 0.18970495761397246 0
0.30018835839510283 0.1820902927873699 0
0.3085461418192844 0.23331515943729333 0
0.31132685713115643 0.20656720557264502 0
0.3638568699173296 0.19185657177240095 0
0.43270710753398695 0.2481645362610815 0
0.3462288415747418 0.2935557737519556 0
0.2655249543963559 0.3622829166677548 0
0.3030182136726301 0.34324130891314014 0
0.28490333701857024 0.30747480454469955 0
0.2453983910626471 0.32433697037691095 0
0.12350795636571892 0.41329831090045066 0
0.19084882959734362 0.3775806524276517 0
0.1527954291286991 0.28402836071593535 0
0.20348301545475864 0.29410624884483433 0
0.23134678115442128 0.2996462229080041 0
0.22594087157978915 0.35896780245270454 0
0.21103373944450965 0.3278105779038394 0
0.17222635293455835 0.31880657873767776 0
0.186198955595761 0.34671666932049955 0
0.1305495681162122 0.35712377953730506 0
0.16106086546830317 0.366286157172109 0
0.13832138481427023 0.38662660244519476 0
0.17154701752674503 0.4225296036200837 0
0.2402363990012952 0.42625642103836453 0
0.2432345867299932 0.39045659525450566 0
0.21167839269833208 0.4058392660395612 0
0.29276216187217746 0.4126299237148621 0
0.27275856420543587 0.3909106355373911 0
0.30715280916168136 0.3793046870909274 0
0.3186497453645402 0.40403907760203167 0
0.3274337022781416 0.4738087159038075 0
0.3362209743943896 0.43726463676526556 0
0.301311343069953 0.4481988979413083 0
0.2887843931154088 0.48710404366673205 0
0.2709708125858216 0.43667949010055884 0
0.24485472252138205 0.4631630946966807 0
0.27264332598059365 0.46444743400379807 0
0.20453130912638298 0.4494666783651424 0
0.1964179155874743 0.42573840750519376 0
0.13051744108617236 0.5064331558428611 0
0.16085511086134138 0.4692848553763727 0
0.17778367970818063 0.4485559211289336 0
0.3306611546548078 0.546015000801189 0
0.3184053382835011 0.5103875349407976 0
0.2782934828451958 0.5441077051755306 0
0.30484470876491127 0.534974107221069 0
0.27628104793537517 0.5142701378877749 0
0.369637293563241 0.5126855160363267 0
0.3446526086950877 0.49746227435049206 0
0.37323258429641604 0.4786705539568136 0
0.36386263629896815 0.4498013042456469 0
0.3964141163591205 0.4983182674014723 0
0.39333913696560574 0.5398099140006383 0
0.36203334195743314 0.5432477738268595 0
0.13296385572866976 0.3179256815995914 0
0.0 0.375 1
0.06076847401467727 0.3331524259815464 0
0.09896813075766972 0.3355052176456031 0
0.08701149489462165 0.27072255197420725 0
0.0816621212099166 0.30520458426508307 0
0.11209747464506448 0.2922702220340277 0
0.03862106880045902 0.2808714521310181 0
0.0 0.3125 1
0.05304347349289081 0.30559335297107704 0
0.1339911222177915 0.29577680661617833 0
0.07672966186997925 0.3852874307673067 0
0.10750371476345515 0.3869600455363027 0
0.09338070076135283 0.3628674650695257 0
0.17732988031474878 0.2931379583539081 0
0.1926858444302766 0.23205652338209745 0
0.17559026457427734 0.2602296426949915 0
0.1390314810319697 0.21877220442805217 0
0.1227514041790806 0.2544903372104609 0
0.1637843491993648 0.2337923599784905 0
0.1758643785292851 0.19345223365932224 0
0.14648542408281412 0.17567041768822153 0
0.20582825597905857 0.20336279308144065 0
0.24019970607490715 0.23646236928427802 0
0.1956462838208962 0.17500125593535104 0
0.1071456635327424 0.2258081096369056 0
0.11790753518595844 0.198810363259166 0
0.27289998431761375 0.33406064769713484 0
0.30487649129478916 0.272993838526862 0
0.27507931136225006 0.25022903858074075 0
0.28299997503223945 0.2243346525327909 0
0.28005388970526085 0.28164053083221813 0
0.3258980960987811 0.25492897276054693 0
0.3250204922906304 0.33206706673631187 0
0.3487808161477501 0.37372352943604553 0
0.5137532939562367 0.3416511327749276 0
0.4785440353504665 0.3329992625273347 0
0.4474733655385264 0.35496778494376036 0
0.47349912016086354 0.30045041617949064 0
0.450011489441307 0.3256012200056309 0
0.41995233854760894 0.3402947769122604 0
0.5294814419895477 0.40921435621412905 0
0.5582160322069141 0.4070843073697727 0
0.24006264532960578 0.20402402289605806 0
0.2140274325676474 0.26030717035822176 0
0.0 0.28125 1
0.05684174573647753 0.24731013710545224 0
0.08033199057913586 0.23267154917057192 0
0.028345991750167433 0.24707269292960335 0
0.3497154691511144 0.5828170714685883 0
0.3715353945440364 0.5679076689091986 0
0.3030724990887052 0.5836327909892661 0
0.3261917780710015 0.5716627576550609 0
0.3667592513051508 0.6358746303786176 0
0.3688633346091057 0.605932448644188 0
0.39344111564474776 0.6227045866922211 0
0.32702614326859836 0.6193718904465046 0
0.3181848134779464 0.6967422948015906 0
0.3337245813173677 0.6593277032266974 0
0.26086891454529426 0.651002284968659 0
0.29610028032287805 0.6656352723087302 0
0.29081413123336747 0.6286333627318522 0
0.24076225781814298 0.5928573050244267 0
0.26008488338758823 0.6187244524682782 0
0.27211600513701667 0.5895867421633381 0
0.20985833852720867 0.6360928976387309 0
0.23774043606393627 0.6354156392382245 0
0.22486147364472925 0.6794793741846191 0
0.2676121807717044 0.709253497289874 0
0.2904371851302145 0.69304881020882 0
0.3049045293561424 0.6083017491329253 0
0.37139745537741503 0.6969091836374053 0
0.39781420518786276 0.6643801918488801 0
0.3672283891125885 0.6665324914992706 0
0.4080407181652585 0.6996761281903517 0
0.3878943992979732 0.7224573983988523 0
0.42141409587152634 0.731801402286681 0
0.42954428213052565 0.7618964453628 0
0.4465286484182207 0.7120293312379657 0
0.47259449165225614 0.7194752169924031 0
0.40184690560597974 0.7501838726011367 0
0.35295199777136166 0.6514184340432632 0
0.3448254857627903 0.6858727879033809 0
0.2554442013412723 0.6811461721688031 0
0.22350447810986165 0.7270063222311807 0
0.2534622721146455 0.737767615560455 0
0.3032121596273152 0.7446876589668437 0
0.2758200843499032 0.7593239124853657 0
0.3329114169215497 0.7687288795286288 0
0.3398329942524066 0.729813268376881 0
0.30321067414248154 0.7750545532301701 0
0.26634132781562037 0.7806950665629836 0
0.2135950111713147 0.8467059541351596 0
0.24508238304413157 0.8177870472409607 0
0.25570626857970996 0.8609559374367949 0
0.23855784404087904 0.8422844564412462 0
0.2743420567429265 0.8269219928803987 0
0.2860790411671277 0.8654469517570037 0
0.125 1.0 1
0.18750000000000017 0.9436160968706938 0
0.1875 1.0 1
0.22797390453379046 0.9075427994935497 0
0.22728859372136956 0.8755871130801509 0
0.16748090325936693 0.8862571756813785 0
0.19939153831590284 0.892170575546861 0
0.17875103349545743 0.914496674892574 0
0.0 0.875 1
0.10478691522030928 0.9276464360608777 0
0.14521365991839497 0.9404470503589089 0
0.2524161632301723 0.8910334274252978 0
0.25709537912385505 0.9243092110973152 0
0.22550137975262302 0.9455109707883816 0
0.2051421886728627 0.9718080484353473 0
0.21875 1.0 1
0.23507994231967735 0.9739562707837134 0
0.13440755460916512 0.9043368266331758 0
0.07408240855457368 0.8581537571156999 0
0.09833202201070461 0.888968904736731 0
0.13097389539919588 0.8383327251154843 0
0.10593910419345308 0.8580335559263632 0
0.1365186940612313 0.8711356376252511 0
0.08983613419602299 0.811813868386478 0
0.14721976712658544 0.8884837930799602 0
0.0 0.9375 1
0.050906579129988895 0.9167611311341027 0
0.07992469735012683 0.9119182973791542 0
0.06081865885605436 0.886794748236627 0
0.02813835058593579 0.892607491595648 0
0.03379143359361166 0.8522858083678831 0
0.0 0.8125 1
0.0 0.90625 1
0.023312220827436683 0.9218749999999991 0
0.0625 1.0 1
0.03519415621692354 0.9648058437830773 0
0.0725705007397081 0.951057941475227 0
0.04819340714032829 0.9424654542496612 0
0.05976701217725145 0.9739305490360559 0
0.09375 0.9835459282186463 0
0.09375 1.0 1
0.12290254207104628 0.9660811052589631 0
0.1562499999999998 0.9810432816193584 0
0.15625 1.0 1
0.16525017652083582 0.9567982624194669 0
0.09916529478148703 0.9537827100397092 0
0.0 0.84375 1
0.058067016648586045 0.8268613930336061 0
0.02828109218719986 0.82272291952797 0
0.05047698100270714 0.7722306455435329 0
0.0 0.78125 1
0.046532365322041844 0.8006213129075899 0
0.02325237655426102 0.7656249999999999 0
0.055348986398333605 0.6927463261811085 0
0.0 0.625 1
0.0 0.6875 1
0.0327896087216239 0.7263181114335011 0
0.08077300993300535 0.734196171091505 0
0.05858276556937117 0.7192848966515478 0
0.026926662830003178 0.6980128084351716 0
0.03349262899706548 0.6541197257118148 0
0.0 0.71875 1
0.0 0.65625 1
0.12018873965969128 0.6305607311963012 0
0.06195513729058162 0.5875620403436634 0
0.037006165770110566 0.6162575938410804 0
0.07592297414402804 0.6389630935068817 0
0.06406242956696646 0.6145877521942762 0
0.0 0.5625 1
0.0277480279256416 0.5830146733751513 0
0.0 0.59375 1
0.05238279052270996 0.5286356049331516 0
0.029822833787183093 0.5511850557267942 0
0.02241927899708929 0.5212180923874487 0
0.0 0.53125 1
0.051478342030198875 0.4680606747179731 0
0.0 0.4375 1
0.02994648036467479 0.4908114859215137 0
0.02099371759451233 0.4607738805816986 0
0.0 0.46875 1
0.046538729002898634 0.42131548149313175 0
0.08745224532321336 0.44062569143692987 0
0.09074947127180742 0.4112788488424574 0
0.06112547943243769 0.4434076680807161 0
0.09238301345998857 0.48439386059143646 0
0.125393867640911 0.47128693164623 0
0.14151271301604 0.44173773580630965 0
0.11438113070565888 0.4461086261737735 0
0.07681882418376713 0.4639854413800477 0
0.06316481835685389 0.49818040042705974 0
0.09391318616916283 0.5262023945101453 0
0.07477788568780547 0.5552383287985329 0
0.1074362214941714 0.5868990563713513 0
0.13037103102939263 0.5499344722662964 0
0.118602402880837 0.5281439586292633 0
0.10315236745659637 0.5586438389800676 0
0.19161408617550105 0.5283896901513327 0
0.15716213241105814 0.5282737370510238 0
0.17422506057775242 0.5767767038060768 0
0.1743168925308777 0.5494916187609749 0
0.21263819621295843 0.5632632917850953 0
0.1744843114784249 0.49974814640153253 0
0.2122530657071727 0.4966028324986753 0
0.19150539125722263 0.47580111878442394 0
0.21963972471236012 0.47119220491572156 0
0.20376460483536224 0.5993924482832271 0
0.16408264256539856 0.6206236217511614 0
0.18959166561500976 0.6206018453753741 0
0.1768692832647206 0.6582491089324678 0
0.14707058576833493 0.6473904456854166 0
0.15027950768361945 0.684901027539448 0
0.20367214383397853 0.6625193929740653 0
0.24696003299169297 0.5588068086271449 0
0.25097907113319073 0.5295325907772979 0
0.22137059454354965 0.5251165786105746 0
0.14086135178241274 0.5820405143172313 0
0.13854152630868566 0.6097161391010257 0
0.10553718989677181 0.6741754629527532 0
0.13075121366005582 0.6676790687520113 0
0.08720313020370804 0.7017300704367032 0
0.1276231736406716 0.7266053339752873 0
0.11565111043922996 0.7007817679997429 0
0.14902960652447816 0.7112283121638082 0
0.15970401772517423 0.7486767308694253 0
0.11885529590382117 0.7736999733689667 0
0.13371400014209944 0.7521028005098025 0
0.1939275572527579 0.793690280941134 0
0.2145852461298872 0.8161827055022296 0
0.22312117296127262 0.7876105453420149 0
0.20155204688449763 0.7571708028086539 0
0.17694111640979548 0.7710882190578948 0
0.1548877349360067 0.8053463611130037 0
0.18117650081791978 0.830376546199548 0
0.15863815628944206 0.8505266171600819 0
0.1870781570723515 0.8624476668158646 0
0.14854587782714268 0.7770364382262872 0
0.12218491003703238 0.8067995633728867 0
0.2266458335499353 0.75236273272513 0
0.19640818842926766 0.730357055444411 0
0.20312133238549487 0.7007162992632618 0
0.10332467596762603 0.79197952202553 0
0.08263440918994899 0.766762108480627 0
0.07197060509103415 0.7915682590907985 0
0.10061692591905562 0.6482542703806989 0
0.09445665441763797 0.6143832619996502 0
0.03792387945290032 0.38343258885333464 0
0.0 0.40625 1
0.025749235546716973 0.4061221793107788 0
0.058376633972904296 0.36239546020343494 0
0.0 0.34375 1
0.028845628692515064 0.354145644842555 0
0.02842027389595329 0.32362755843063695 0
0.06096902377194632 0.664069434005212 0
0.0 0.96875 1
0.03125 1.0 1
0.3686178700110549 0.4202348278363598 0
0.40173255855329953 0.5632402297623905 0
0.18672319662060527 0.4024277703077448 0
0.05284096354462094 0.19762080136103874 0
0.0 0.21875 1
0.21323598319348322 0.1452415822579162 0
0.18085957014187265 0.1224010481698186 0
0.06156139668775017 0.032952950658468025 0
0.03125 0.0 1
0.0 0.03125 1
0.03068612476547927 0.035520295215091695 0
0.15625 0.0 1
0.45262186105252644 0.031170367286648012 0
0.49154379226213535 0.03873873307868566 0
0.46875 0.0 1
0.523020438823313 0.10553603073388615 0
0.625 0.0 1
0.5624999999999999 0.03393532322985659 0
0.5625 0.0 1
0.53125 0.0 1
0.59375 0.0 1
0.6093749999999991 0.04574482968211897 0
0.4979733114904831 0.07652393563443377 0
0.47151167771535124 0.09587792176985727 0
0.5381234436437246 0.06717902804677067 0
0.528092117351369 0.03426424307943906 0
0.589752415479797 0.10965974085629392 0
0.5570546085165258 0.09678503476386359 0
0.5535393109669535 0.15367136941284565 0
0.5645144817318095 0.1257977999129425 0
0.6020326305407786 0.15666801963684765 0
0.5851896217305554 0.07328928191150262 0
0.583933154908825 0.04779584298430184 0
0.5752210140931059 0.1966771290752533 0
0.6158556234970406 0.21485375574456853 0
0.618597331724967 0.18346760776364535 0
0.589692609631468 0.21883376982146013 0
0.6163615516012836 0.24908446411368637 0
0.6358709981763316 0.23167702251930664 0
0.5769411173891626 0.16884154180266028 0
0.5045635421374133 0.2053312843840689 0
0.5429470218207315 0.22594488089127968 0
0.5383549737082928 0.18845277459716825 0
0.5026815408468449 0.15217383326786368 0
0.48303128181739646 0.1262767639021948 0
0.5122462561447817 0.1784472424166017 0
0.46697590930746374 0.18005000645782848 0
0.4630282461946017 0.14958783931557634 0
0.4292432863648444 0.14739558994249544 0
0.4184528650592909 0.17186789889121842 0
0.5027405563409694 0.2547684835019043 0
0.49520345391590287 0.2821437390717154 0
0.5405513868174735 0.2799039700204756 0
0.5541825058757504 0.253476429815029 0
0.5755654843973109 0.28123478584781925 0
0.5570388758183219 0.30739425122575664 0
0.5314199216509505 0.31627839593339435 0
0.5157754346762804 0.2304969311028378 0
0.4780456085281864 0.2291056520984121 0
0.4787163059692805 0.20317751054899857 0
0.44974375898474594 0.21620901597737355 0
0.5286166603378765 0.13573039238847348 0
0.6874999999999998 0.04688896097609776 0
0.6875 0.0 1
0.65625 0.0 1
0.7187500000000002 0.023444480488048976 0
0.71875 0.0 1
0.732033994533121 0.07370057007971043 0
0.7152028854445697 0.05126577314379952 0
0.7675508776300975 0.06451766570745822 0
0.7578092764504085 0.03252166005379385 0
0.7402413634538771 0.019541729271606145 0
0.6748855884129532 0.11823267090281103 0
0.7295044182550651 0.1293899012500134 0
0.7454439082654641 0.10221180459218265 0
0.7149051234521637 0.18717054156532206 0
0.743810400590461 0.2013222887545493 0
0.7481048982017571 0.16307940743582658 0
0.714669576549935 0.22424738013138718 0
0.6859974673902293 0.2055260604737056 0
0.7186255168312796 0.15737585994055095 0
0.6827019539806504 0.16801978655197278 0
0.6941504501255954 0.14071529539959904 0
0.7750574744529356 0.1642423966546466 0
0.689467601504466 0.23781730812933286 0
0.6624145642963792 0.20632012914952272 0
0.6949023871201717 0.08498483408880309 0
0.7047592374704932 0.11298812990406748 0
0.6480273101553027 0.07432598990205885 0
0.6165649028055395 0.07644811604106062 0
0.5993555118503318 0.08998356260114516 0
0.6319056095995557 0.11805138368457686 0
0.6509325660581718 0.14951236744218382 0
0.6251012719721435 0.1436505552651223 0
0.6534672010459436 0.10116645571821403 0
0.6738161426588203 0.06931497674051439 0
0.6514117601320286 0.03708257850860551 0
0.6744941688418956 0.023444480488049015 0
0.6272832838434581 0.0263208181611778 0
0.4125067202676675 0.2899094020920859 0
0.4680477578275893 0.6709305839402117 0
0.631835960094898 0.5048216030054226 0
0.45346450249458425 0.7675936111418061 0
0.28125 1.0 1
0.29053251021160603 0.9741539918476643 0
0.2895043769584444 0.9285576740962133 0
0.46875 1.0 1
0.46926988261271213 0.965874527259267 0
0.4991353113059426 0.9698796255528869 0
0.5371456345538214 0.9462106489372138 0
0.5625 1.0 1
0.53125 0.9840302834143115 0
0.53125 1.0 1
0.5810911872885106 0.9583665394764788 0
0.5568443313776343 0.972506867788863 0
0.59375 1.0 1
0.5975958457835535 0.931732619088707 0
0.618360730072683 0.963031130362099 0
0.6496146458654429 0.9461666657842847 0
0.6875 1.0 1
0.6843543280800128 0.9619661479176381 0
0.71875 0.9782683903871923 0
0.71875 1.0 1
0.7725004689960807 0.9343098666070268 0
0.7518893507377886 0.9639486028556276 0
0.8125 1.0 1
0.7901626455710002 0.9685783199817243 0
0.7286529664481571 0.9258037812903047 0
0.7273782128223679 0.952730087575874 0
0.7020222156350822 0.9394415466296643 0
0.78125 1.0 1
0.8437500000000004 0.9541341515126857 0
0.8102649881780433 0.9365316208874852 0
0.8491806488367286 0.9031532493816105 0
0.8363473134578909 0.9275658975414413 0
0.7940144003584124 0.8906886057408406 0
0.7924641036189669 0.9170399495727385 0
0.8196312060537184 0.9712799581170644 0
0.84375 1.0 1
0.65625 1.0 1
0.6445212162172045 0.9741200636191911 0
0.7848913082133054 0.8553866831757421 0
0.8293218943942829 0.8627342700181211 0
0.8096344635905331 0.8437745867402885 0
0.8229454697394761 0.890955167225307 0
0.7610272510705938 0.9015353475840856 0
0.7346972447291706 0.8914742450773377 0
0.8822575441160038 0.932456402226437 0
0.876153634903529 0.9060264981725016 0
0.8660758364761195 0.8725903224660848 0
0.8757390213749366 0.9659176980639597 0
0.9375 1.0 1
0.9207660421143323 0.9573237370987266 0
0.915980034325755 0.9224851661794113 0
0.9627002831090387 0.9338149211650314 0
1.0 0.9375 1
0.9371140307821202 0.9373298759891235 0
1.0 0.90625 1
0.9740626868120444 0.9101713767389396 0
0.9780807168304885 0.968750000000003 0
1.0 0.96875 1
0.939005981654246 0.9025456814442981 0
0.9477648634518424 0.9713560632897507 0
0.90625 1.0 1
0.9006717047447266 0.9742956823953579 0
0.5628436371578565 0.9388212858673826 0
0.5168844155016095 0.9284109744761514 0
0.7236702923575565 0.865224686483117 0
0.800615321571665 0.7653445377393726 0
0.7813493951165921 0.793620619267685 0
0.8085712235225292 0.7400879904144455 0
0.813149787484607 0.715343597223708 0
0.7794505737168017 0.7505550233978239 0
0.831841537282998 0.7730019581005647 0
0.8553903350243072 0.7591971089002275 0
0.6108141443930222 0.31599548148824497 0
0.5846302878034993 0.30729481734510633 0
0.9409988194212217 0.03337703447035726 0
0.9375 0.0 1
0.906249999999999 0.020147751328815716 0
0.90625 0.0 1
0.96875 0.0 1
0.9076591332811431 0.0543860696023293 0
0.9470367350706768 0.07991697888468713 0
1.0 0.0625 1
1.0 0.03125 1
0.9710243615077854 0.04687500000000059 0
0.9332531819888933 0.05804356438682965 0
0.9304989016087976 0.11736302089278466 0
0.9626799694831489 0.14456533428765628 0
0.9678715914543207 0.10909228837987452 0
1.0 0.09375 1
0.975792863235314 0.07812499999999993 0
0.9487068466583235 0.16983705030590884 0
1.0 0.15625 1
0.9766927938923803 0.171875 0
0.9254534753673908 0.09275979533511763 0
0.9124388299558572 0.13466565540947564 0
0.8822025521898212 0.02313744240059436 0
0.7469415306527358 0.25728583478931294 0
0.7764675387946725 0.24877660185927775 0
0.7510197684093959 0.358382680129307 0
0.7637880726912866 0.13177605593653174 0
0.4245486524985847 0.6577523398500595 0
0.4494883671806991 0.6538112886283916 0
0.7050336878781505 0.8121591139576563 0
0.42190839656385015 0.5973414605877179 0
0.5250783499345991 0.7093439599822176 0
0.49982317214869443 0.7180532936376676 0
0.9577549752716296 0.3621434643014565 0
0.9328606060718282 0.34600323041164405 0
0.9738695331251398 0.3850272662932567 0
1.0 0.34375 1
0.9746950680496709 0.3281249999999993 0
0.9685773575066354 0.29698304093314726 0
0.8054599310283931 0.11754048604100009 0
0.96875 1.0 1
0.78125 0.0 1

Edges
128
1 873 1
1 874 1
2 1046 1
2 1050 1
3 1025 1
3 1081 1
4 863 1
4 864 1
5 879 1
5 884 1
6 206 1
6 220 1
7 971 1
7 977 1
9 784 1
9 789 1
10 760 1
10 771 1
11 725 1
11 968 1
55 86 1
55 92 1
56 218 1
56 1077 1
75 931 1
75 1082 1
83 86 1
83 1077 1
88 1056 1
88 1059 1
90 92 1
90 1059 1
114 138 1
114 1045 1
130 138 1
130 1082 1
180 241 1
180 247 1
181 222 1
181 234 1
204 206 1
204 222 1
210 218 1
210 220 1
231 234 1
231 241 1
243 255 1
243 1022 1
244 987 1
244 995 1
245 1003 1
245 1028 1
246 247 1
246 255 1
303 980 1
303 1004 1
330 361 1
330 368 1
347 368 1
347 968 1
353 361 1
353 971 1
464 504 1
464 513 1
478 494 1
478 556 1
488 494 1
488 879 1
495 504 1
495 556 1
505 527 1
505 876 1
511 513 1
511 876 1
516 657 1
516 869 1
518 548 1
518 553 1
523 527 1
523 873 1
529 553 1
529 874 1
542 548 1
542 869 1
613 856 1
613 859 1
620 657 1
620 859 1
710 750 1
710 753 1
712 725 1
712 753 1
718 742 1
718 756 1
735 742 1
735 863 1
741 756 1
741 760 1
744 750 1
744 864 1
764 772 1
764 780 1
765 771 1
765 772 1
778 780 1
778 784 1
786 789 1
786 856 1
881 885 1
881 929 1
883 884 1
883 885 1
928 929 1
928 931 1
975 977 1
975 980 1
984 987 1
984 1004 1
990 995 1
990 1003 1
1016 1028 1
1016 1081 1
1020 1022 1
1020 1025 1
1043 1045 1
1043 1046 1
1049 1050 1
1049 1056 1

Triangles
2034
5 884 890 0
6 206 208 0
6 208 219 0
7 971 973 0
7 973 976 0
8 591 604 0
8 593 594 0
8 604 823 0
8 812 814 0
8 823 824 0
11 725 726 0
12 340 700 0
12 687 692 0
12 700 701 0
13 281 298 0
13 284 285 0
14 416 423 0
14 423 428 0
15 662 866 0
15 866 1071 0
16 385 1072 0
16 400 431 0
17 27 399 0
18 54 1066 0
18 102 103 0
19 38 178 0
19 48 165 0
20 172 175 0
20 174 191 0
20 191 195 0
21 52 53 0
21 53 61 0
21 61 66 0
21 66 173 0
22 30 31 0
22 31 37 0
22 37 166 0
22 166 170 0
22 170 171 0
23 28 29 0
23 29 277 0
23 274 276 0
23 276 283 0
24 29 30 0
24 30 171 0
24 171 172 0
24 172 193 0
24 193 277 0
25 27 32 0
26 27 28 0
26 28 283 0
26 283 287 0
26 287 398 0
26 398 399 0
27 17 32 0
27 25 28 0
27 26 399 0
28 23 283 0
28 25 29 0
29 24 277 0
29 25 30 0
30 22 171 0
30 25 31 0
31 25 32 0
31 32 35 0
31 35 37 0
32 17 34 0
32 34 35 0
33 35 430 0
33 36 37 0
33 430 966 0
34 17 396 0
34 391 395 0
34 395 430 0
35 33 37 0
35 34 430 0
36 33 38 0
36 38 165 0
36 165 166 0
37 36 166 0
38 19 165 0
38 33 966 0
39 148 152 0
39 152 177 0
39 177 426 0
39 426 427 0
40 177 178 0
40 178 966 0
41 45 176 0
41 176 178 0
42 159 919 0
42 901 902 0
43 143 145 0
43 145 146 0
43 146 155 0
43 155 1041 0
44 45 147 0
45 41 152 0
45 44 47 0
45 47 48 0
45 48 176 0
45 144 147 0
46 47 164 0
47 44 51 0
47 46 48 0
47 50 164 0
48 19 176 0
48 46 49 0
48 49 165 0
49 46 52 0
49 52 169 0
50 47 51 0
50 51 106 0
50 54 164 0
50 106 1066 0
51 44 99 0
51 99 106 0
52 21 168 0
52 46 164 0
52 168 169 0
53 52 164 0
53 54 60 0
53 60 61 0
54 18 62 0
54 50 1066 0
54 53 164 0
55 86 87 0
55 87 93 0
56 218 1076 0
57 69 71 0
57 71 72 0
57 72 77 0
57 77 81 0
57 81 85 0
57 85 1075 0
58 62 103 0
58 72 73 0
59 60 62 0
59 62 73 0
60 54 62 0
60 59 61 0
61 59 65 0
61 65 66 0
62 18 103 0
62 58 73 0
63 68 215 0
63 209 229 0
63 215 216 0
64 65 67 0
64 67 68 0
64 68 161 0
64 161 163 0
65 59 67 0
65 64 66 0
66 64 163 0
66 163 179 0
67 59 73 0
68 63 161 0
68 67 70 0
68 70 214 0
68 214 215 0
69 57 1075 0
69 70 71 0
69 213 214 0
70 67 71 0
70 69 214 0
71 67 73 0
72 58 96 0
72 71 73 0
74 101 122 0
75 935 936 0
76 77 96 0
76 96 100 0
76 100 101 0
76 101 107 0
77 72 96 0
77 76 80 0
77 80 81 0
78 79 109 0
79 78 81 0
79 80 107 0
79 107 108 0
79 108 109 0
80 76 107 0
80 79 81 0
81 78 84 0
81 84 85 0
82 84 1079 0
82 1074 1075 0
83 1077 1078 0
83 1078 1079 0
84 78 87 0
84 82 85 0
84 87 1079 0
85 82 1075 0
86 83 1079 0
87 78 91 0
87 86 1079 0
87 91 93 0
88 1054 1055 0
89 91 95 0
89 92 93 0
89 94 1058 0
89 1058 1060 0
90 89 1060 0
91 78 95 0
91 89 93 0
92 55 93 0
92 89 90 0
94 89 95 0
94 95 109 0
94 108 111 0
94 111 113 0
94 112 1058 0
95 78 109 0
96 58 103 0
97 100 102 0
97 102 104 0
97 104 1064 0
97 1064 1065 0
98 99 141 0
98 141 142 0
98 142 156 0
99 44 140 0
99 98 105 0
99 105 106 0
99 140 141 0
100 96 102 0
100 97 1065 0
101 74 107 0
101 100 1065 0
102 18 104 0
102 96 103 0
104 18 106 0
104 105 125 0
104 125 1064 0
105 98 125 0
105 104 106 0
106 18 1066 0
107 74 108 0
108 74 117 0
108 94 109 0
110 111 117 0
110 117 127 0
110 127 128 0
111 108 117 0
111 110 113 0
112 94 113 0
112 113 1062 0
112 1053 1054 0
112 1054 1058 0
113 110 116 0
113 116 1062 0
114 1045 1063 0
115 116 129 0
115 129 133 0
115 133 1047 0
115 1047 1061 0
116 110 128 0
116 115 1053 0
116 128 129 0
116 1053 1062 0
117 74 120 0
117 120 127 0
118 134 1080 0
119 120 948 0
119 948 1067 0
119 1067 1080 0
120 74 122 0
120 119 127 0
120 121 948 0
121 120 122 0
121 122 123 0
121 123 941 0
121 941 942 0
121 942 948 0
122 101 1065 0
123 122 1065 0
124 125 156 0
124 156 949 0
124 943 1064 0
125 98 156 0
125 124 1064 0
126 127 1080 0
127 119 1080 0
127 126 128 0
128 126 129 0
129 126 132 0
129 132 133 0
131 132 134 0
131 134 135 0
131 135 136 0
131 136 137 0
132 126 134 0
132 131 133 0
133 131 137 0
133 137 1063 0
134 118 934 0
134 126 1080 0
135 130 136 0
135 134 934 0
135 934 935 0
135 1082 130 0
136 138 137 0
137 114 1063 0
137 138 114 0
138 136 130 0
139 140 143 0
139 143 1040 0
140 44 147 0
140 139 141 0
141 139 160 0
142 141 160 0
142 160 902 0
142 902 903 0
143 43 1040 0
143 140 147 0
144 45 152 0
144 145 147 0
145 143 147 0
145 144 146 0
146 144 148 0
146 148 654 0
148 39 151 0
148 144 152 0
148 151 654 0
149 150 428 0
149 419 444 0
149 444 447 0
149 447 450 0
149 450 653 0
150 149 653 0
150 151 427 0
150 427 428 0
150 653 654 0
151 39 427 0
151 150 654 0
152 41 177 0
153 647 648 0
153 648 650 0
153 650 916 0
153 916 917 0
153 917 921 0
154 155 451 0
154 451 647 0
154 647 921 0
154 920 1041 0
155 146 451 0
155 154 1041 0
156 142 158 0
156 158 949 0
157 899 900 0
157 900 957 0
157 946 950 0
158 142 903 0
158 903 950 0
158 944 949 0
159 42 902 0
159 160 1040 0
159 1040 1041 0
160 139 1040 0
160 159 902 0
161 63 229 0
161 162 163 0
162 161 229 0
163 162 179 0
165 49 166 0
166 49 169 0
166 169 170 0
167 168 173 0
167 173 174 0
167 174 175 0
168 21 173 0
168 167 170 0
169 168 170 0
170 167 171 0
171 167 175 0
172 20 193 0
172 171 175 0
173 66 179 0
174 20 175 0
174 173 179 0
174 179 184 0
174 184 191 0
176 19 178 0
177 40 426 0
177 41 178 0
178 38 966 0
179 162 228 0
180 247 251 0
182 185 221 0
182 205 223 0
183 185 228 0
183 209 221 0
183 228 229 0
184 179 228 0
184 185 190 0
184 190 191 0
185 182 187 0
185 183 221 0
185 184 228 0
185 187 190 0
186 189 224 0
186 224 227 0
187 182 223 0
187 189 190 0
187 223 224 0
188 189 194 0
188 194 195 0
189 186 194 0
189 187 224 0
189 188 190 0
190 188 191 0
191 188 195 0
192 193 195 0
192 194 273 0
192 273 274 0
192 274 277 0
193 20 195 0
193 192 277 0
194 186 198 0
194 192 195 0
194 198 273 0
196 270 271 0
196 271 1036 0
197 198 199 0
197 199 202 0
197 202 270 0
197 270 272 0
197 272 273 0
198 186 199 0
198 197 273 0
199 186 227 0
199 226 230 0
200 201 235 0
200 235 237 0
200 237 249 0
200 249 258 0
200 258 269 0
201 200 269 0
201 202 230 0
201 230 235 0
201 269 270 0
202 199 230 0
202 201 270 0
203 222 225 0
204 203 205 0
205 182 221 0
205 203 223 0
205 206 204 0
205 207 208 0
206 205 208 0
207 205 221 0
207 209 211 0
207 211 219 0
208 207 219 0
209 63 216 0
209 183 229 0
209 207 221 0
210 211 217 0
211 209 216 0
211 216 217 0
211 220 219 0
212 213 1074 0
212 218 217 0
212 1074 1076 0
213 69 1074 0
213 212 215 0
214 213 215 0
215 212 217 0
216 215 217 0
217 218 210 0
218 212 1076 0
219 220 6 0
220 211 210 0
222 181 225 0
222 203 204 0
223 203 224 0
224 203 225 0
224 225 226 0
224 226 227 0
225 181 233 0
226 199 227 0
226 225 233 0
228 162 229 0
230 226 232 0
230 232 239 0
232 226 233 0
232 231 238 0
232 234 231 0
232 238 239 0
234 232 233 0
234 233 181 0
235 230 239 0
236 237 238 0
236 238 240 0
236 240 251 0
237 235 238 0
237 236 249 0
238 235 239 0
240 180 251 0
240 241 180 0
241 238 231 0
241 240 238 0
242 262 263 0
242 263 1026 0
242 1013 1014 0
244 986 989 0
245 1003 1015 0
245 1015 1029 0
247 246 250 0
247 250 251 0
248 249 252 0
248 252 265 0
249 236 250 0
249 248 257 0
249 250 252 0
249 257 258 0
250 236 251 0
250 246 254 0
252 250 254 0
252 253 265 0
253 243 264 0
253 252 254 0
253 255 243 0
253 263 265 0
255 253 254 0
255 254 246 0
256 257 261 0
256 261 268 0
256 268 1038 0
256 1038 1039 0
257 248 261 0
257 256 258 0
258 256 1039 0
259 269 1039 0
259 1035 1036 0
260 261 262 0
260 262 1014 0
261 248 262 0
261 260 268 0
262 242 1014 0
262 248 265 0
263 253 264 0
263 262 265 0
263 264 1026 0
264 1022 1023 0
264 1023 1026 0
266 267 1008 0
266 299 1034 0
267 266 1034 0
267 268 1007 0
267 1007 1008 0
267 1033 1038 0
268 260 1007 0
268 267 1038 0
269 258 1039 0
269 259 271 0
270 196 272 0
270 269 271 0
271 259 1036 0
272 196 278 0
273 272 278 0
274 23 277 0
274 273 278 0
275 276 278 0
275 278 280 0
275 280 281 0
275 281 286 0
276 274 278 0
276 275 282 0
276 282 283 0
278 196 280 0
279 280 1036 0
279 1035 1037 0
280 196 1036 0
280 279 281 0
281 13 285 0
281 279 298 0
281 285 286 0
282 275 286 0
282 285 287 0
283 282 287 0
284 13 291 0
284 291 293 0
284 292 398 0
285 282 286 0
285 284 287 0
287 284 398 0
288 292 384 0
288 384 387 0
288 387 389 0
288 389 390 0
288 390 397 0
288 397 398 0
289 312 318 0
289 318 381 0
289 381 440 0
290 291 296 0
290 296 437 0
290 437 438 0
290 438 439 0
291 13 296 0
291 290 293 0
292 284 293 0
292 288 398 0
292 293 386 0
293 290 386 0
294 380 383 0
294 383 384 0
294 384 386 0
294 386 439 0
294 439 440 0
295 296 297 0
295 297 299 0
295 299 301 0
295 301 1070 0
296 13 297 0
296 295 437 0
297 13 298 0
297 298 1037 0
298 279 1037 0
299 266 301 0
299 297 1034 0
300 301 1032 0
300 436 1070 0
301 266 302 0
301 300 1070 0
301 302 1032 0
302 266 1006 0
302 1000 1010 0
302 1010 1011 0
302 1011 1032 0
303 980 982 0
303 982 1005 0
304 305 994 0
305 304 307 0
305 307 436 0
305 436 1032 0
305 992 994 0
306 307 310 0
306 310 312 0
306 312 434 0
306 434 435 0
306 435 436 0
307 304 355 0
307 306 436 0
308 311 981 0
308 325 326 0
308 981 1030 0
309 310 355 0
309 355 983 0
310 307 355 0
310 309 311 0
310 311 312 0
311 308 314 0
311 309 981 0
311 314 315 0
312 289 434 0
312 311 315 0
312 315 318 0
313 314 326 0
313 326 327 0
314 308 326 0
314 313 315 0
315 313 317 0
315 317 318 0
316 317 320 0
316 320 321 0
316 321 379 0
316 379 380 0
316 380 381 0
317 313 320 0
317 316 318 0
318 316 381 0
319 320 327 0
319 327 328 0
319 328 351 0
320 313 327 0
320 319 321 0
321 319 323 0
321 323 433 0
322 323 967 0
322 688 690 0
322 690 691 0
323 319 336 0
323 322 432 0
323 336 967 0
323 432 433 0
324 325 363 0
325 308 1030 0
325 324 327 0
325 974 1031 0
326 325 327 0
327 324 328 0
328 324 332 0
328 332 335 0
328 335 351 0
329 341 342 0
329 342 366 0
331 332 354 0
331 354 356 0
331 356 365 0
332 324 354 0
332 331 334 0
332 334 335 0
333 334 339 0
333 339 377 0
333 377 689 0
334 331 338 0
334 333 335 0
334 338 339 0
335 333 336 0
335 336 351 0
336 319 351 0
336 333 689 0
336 689 967 0
337 338 341 0
337 341 376 0
338 331 342 0
338 337 339 0
339 337 340 0
339 340 377 0
340 12 377 0
340 337 371 0
340 371 700 0
341 329 344 0
341 338 342 0
341 344 376 0
342 331 365 0
342 357 366 0
343 344 709 0
343 375 376 0
344 329 346 0
344 343 376 0
344 346 709 0
345 346 349 0
345 349 970 0
346 329 349 0
346 345 709 0
347 968 969 0
348 349 350 0
348 350 367 0
348 367 369 0
348 369 969 0
348 969 970 0
349 329 366 0
349 348 970 0
350 349 366 0
350 357 358 0
350 358 367 0
352 354 364 0
352 364 972 0
353 360 972 0
354 324 363 0
354 352 356 0
354 363 364 0
355 304 983 0
356 352 359 0
356 357 365 0
357 342 365 0
357 350 366 0
357 356 359 0
358 330 367 0
358 357 359 0
358 359 360 0
358 361 330 0
359 352 360 0
360 352 972 0
361 358 360 0
361 360 353 0
362 363 1031 0
363 325 1031 0
363 362 364 0
364 362 972 0
367 368 369 0
368 347 369 0
368 367 330 0
369 347 969 0
370 11 726 0
370 722 970 0
370 968 11 0
371 337 376 0
371 375 702 0
372 818 849 0
373 697 699 0
373 699 703 0
373 703 838 0
373 838 847 0
374 375 708 0
375 343 708 0
375 371 376 0
375 374 702 0
377 12 692 0
378 379 433 0
378 432 1073 0
379 321 433 0
379 378 380 0
380 294 381 0
380 378 385 0
381 294 440 0
382 383 385 0
382 385 431 0
383 380 385 0
383 382 384 0
384 292 386 0
384 382 387 0
385 16 431 0
385 378 1072 0
386 290 439 0
387 382 389 0
388 389 400 0
388 400 401 0
389 382 431 0
389 388 390 0
390 388 391 0
390 391 396 0
390 396 397 0
391 34 396 0
391 388 393 0
391 393 395 0
392 393 401 0
392 401 410 0
392 410 424 0
392 424 425 0
393 388 401 0
393 392 394 0
393 394 395 0
394 392 425 0
394 425 426 0
394 426 429 0
394 429 430 0
395 394 430 0
396 17 397 0
397 17 399 0
398 397 399 0
400 16 403 0
400 389 431 0
400 403 404 0
401 400 404 0
401 404 410 0
402 403 965 0
402 965 1069 0
403 16 415 0
403 402 404 0
403 415 965 0
404 402 406 0
404 406 410 0
405 406 412 0
405 412 1071 0
406 402 412 0
406 405 408 0
406 408 410 0
407 408 409 0
407 409 416 0
407 416 424 0
408 405 409 0
408 407 410 0
409 405 422 0
410 407 424 0
411 412 1069 0
411 667 1071 0
412 402 1069 0
412 411 1071 0
413 686 1068 0
413 1068 1069 0
414 415 1073 0
414 690 965 0
415 16 1072 0
415 414 965 0
415 1072 1073 0
416 14 424 0
416 409 418 0
416 418 423 0
417 418 421 0
417 420 443 0
417 443 446 0
418 409 421 0
418 417 419 0
418 419 423 0
419 149 428 0
419 417 444 0
420 417 421 0
420 421 422 0
420 422 610 0
421 409 422 0
422 405 1071 0
423 419 428 0
424 14 425 0
425 14 426 0
426 14 427 0
426 40 429 0
427 14 428 0
429 40 966 0
430 429 966 0
432 322 691 0
432 378 433 0
432 691 1073 0
434 289 438 0
435 434 438 0
435 437 1070 0
436 300 1032 0
436 435 1070 0
437 295 1070 0
437 435 438 0
438 289 440 0
439 438 440 0
441 457 865 0
441 587 646 0
442 443 609 0
442 455 456 0
442 607 608 0
442 608 865 0
443 420 609 0
443 442 456 0
444 417 446 0
444 446 447 0
445 446 456 0
446 443 456 0
446 445 447 0
447 445 449 0
447 449 450 0
448 449 649 0
449 445 454 0
449 448 450 0
449 454 649 0
450 448 451 0
450 451 653 0
451 146 654 0
451 448 647 0
452 458 462 0
452 462 467 0
452 467 964 0
452 471 652 0
453 454 455 0
453 455 457 0
453 457 458 0
453 458 652 0
454 445 455 0
454 453 649 0
455 442 865 0
455 445 456 0
457 441 646 0
457 455 865 0
458 452 652 0
458 457 461 0
458 461 462 0
459 566 567 0
459 567 572 0
459 572 656 0
459 635 641 0
459 641 643 0
460 462 645 0
460 566 640 0
461 457 646 0
461 565 645 0
462 460 563 0
462 461 645 0
463 475 477 0
463 477 481 0
463 481 483 0
463 483 485 0
463 485 913 0
463 913 914 0
464 504 510 0
465 466 644 0
465 557 561 0
465 559 560 0
466 465 468 0
466 467 563 0
466 563 644 0
467 462 563 0
467 466 468 0
467 468 470 0
467 470 964 0
468 465 473 0
468 473 474 0
469 470 562 0
469 562 925 0
469 915 916 0
470 468 474 0
470 469 471 0
470 471 964 0
470 474 562 0
471 452 964 0
471 469 650 0
471 650 651 0
471 651 652 0
472 473 475 0
472 475 914 0
472 911 925 0
473 465 561 0
473 472 474 0
474 472 925 0
475 463 914 0
475 473 561 0
476 477 557 0
476 557 558 0
477 475 561 0
477 476 480 0
477 480 481 0
478 493 555 0
479 480 500 0
479 500 502 0
480 476 499 0
480 479 490 0
480 499 500 0
481 480 490 0
482 483 490 0
482 490 492 0
483 481 490 0
483 482 485 0
484 485 487 0
484 487 888 0
484 888 909 0
484 909 912 0
484 912 913 0
485 482 487 0
485 484 913 0
486 487 489 0
486 489 877 0
486 877 878 0
486 878 887 0
486 887 888 0
487 482 492 0
487 486 888 0
489 487 492 0
489 488 877 0
489 492 493 0
489 494 488 0
490 479 491 0
490 491 492 0
491 479 496 0
491 496 555 0
492 491 493 0
493 491 555 0
494 489 493 0
494 493 478 0
495 496 503 0
496 479 502 0
496 502 503 0
496 556 555 0
497 501 509 0
497 504 503 0
497 509 510 0
498 499 537 0
499 476 537 0
499 498 500 0
500 498 501 0
500 501 502 0
501 497 502 0
501 498 507 0
501 507 509 0
502 497 503 0
503 504 495 0
504 497 510 0
505 514 526 0
506 507 541 0
506 541 554 0
507 498 536 0
507 506 508 0
507 508 509 0
507 536 541 0
508 464 510 0
508 506 512 0
508 513 464 0
509 508 510 0
511 512 514 0
512 506 515 0
513 508 512 0
513 512 511 0
514 512 515 0
514 515 520 0
514 520 526 0
514 876 511 0
515 506 554 0
517 531 532 0
517 532 633 0
517 633 638 0
519 520 554 0
519 554 871 0
520 515 554 0
520 519 522 0
520 522 525 0
520 525 526 0
521 522 531 0
521 531 545 0
521 545 551 0
522 519 532 0
522 521 528 0
523 527 872 0
524 525 528 0
524 527 526 0
524 528 530 0
524 530 872 0
525 522 528 0
525 524 526 0
526 527 505 0
527 524 872 0
528 521 530 0
529 874 875 0
530 521 551 0
530 551 552 0
530 552 875 0
531 517 544 0
531 522 532 0
531 544 545 0
532 519 534 0
532 534 633 0
533 538 540 0
533 540 655 0
533 634 636 0
533 636 870 0
534 519 871 0
534 632 633 0
535 536 870 0
535 870 871 0
536 498 537 0
536 535 541 0
536 537 538 0
536 538 870 0
537 476 558 0
538 533 870 0
538 537 540 0
539 540 558 0
539 558 560 0
539 560 642 0
539 642 655 0
540 537 558 0
540 539 655 0
541 535 554 0
542 548 549 0
542 549 550 0
543 544 546 0
543 546 868 0
544 517 546 0
544 543 545 0
545 543 547 0
545 547 551 0
546 517 638 0
546 637 659 0
546 659 868 0
547 518 551 0
547 543 549 0
547 548 518 0
548 547 549 0
549 543 868 0
550 549 868 0
550 658 660 0
550 869 542 0
551 553 552 0
552 529 875 0
552 553 529 0
553 551 518 0
554 535 871 0
555 556 478 0
556 496 495 0
557 465 560 0
557 477 561 0
558 557 560 0
559 465 644 0
559 640 641 0
559 641 642 0
560 559 642 0
562 474 925 0
563 460 640 0
563 640 644 0
564 565 586 0
564 567 639 0
565 461 586 0
565 564 639 0
565 566 645 0
566 459 643 0
566 460 645 0
566 565 639 0
567 564 573 0
567 566 639 0
567 573 574 0
568 579 580 0
568 580 796 0
568 796 797 0
569 573 583 0
569 583 867 0
570 575 622 0
570 622 630 0
571 572 574 0
571 574 575 0
571 575 626 0
571 626 628 0
571 628 656 0
572 567 574 0
572 571 656 0
573 564 582 0
573 569 576 0
573 582 583 0
574 573 576 0
575 570 626 0
575 574 576 0
575 576 578 0
575 577 612 0
575 612 622 0
576 569 578 0
577 575 578 0
577 578 579 0
577 579 624 0
577 624 625 0
578 569 867 0
579 568 624 0
579 578 867 0
580 579 867 0
580 596 599 0
580 599 796 0
581 582 585 0
581 585 592 0
581 592 593 0
581 593 595 0
581 595 596 0
582 564 585 0
582 581 583 0
583 581 596 0
583 596 867 0
584 585 586 0
584 586 587 0
584 587 590 0
584 590 592 0
585 564 586 0
585 584 592 0
586 461 646 0
587 441 589 0
587 586 646 0
587 589 590 0
588 589 608 0
589 441 865 0
589 588 590 0
590 588 591 0
590 591 594 0
591 8 594 0
591 588 601 0
591 601 604 0
592 590 594 0
593 8 814 0
593 592 594 0
595 593 814 0
596 580 867 0
596 595 599 0
597 598 811 0
597 794 795 0
598 597 795 0
598 599 813 0
598 795 796 0
599 595 813 0
599 598 796 0
600 601 606 0
600 606 611 0
600 611 661 0
600 661 664 0
601 588 606 0
601 600 603 0
601 603 604 0
602 603 663 0
602 663 676 0
602 676 822 0
602 822 823 0
603 600 664 0
603 602 604 0
604 602 823 0
605 606 607 0
605 607 609 0
605 609 610 0
605 610 611 0
606 588 607 0
606 605 611 0
607 442 609 0
607 588 608 0
608 589 865 0
609 420 610 0
610 422 866 0
611 610 662 0
612 577 615 0
612 615 618 0
612 618 622 0
613 855 857 0
613 859 860 0
614 615 625 0
614 625 858 0
614 858 860 0
614 860 861 0
615 577 625 0
615 614 617 0
615 617 618 0
616 617 621 0
616 619 658 0
616 658 659 0
617 614 621 0
617 616 618 0
618 616 630 0
619 616 621 0
619 621 861 0
619 657 660 0
620 619 861 0
621 614 861 0
622 618 630 0
623 624 792 0
623 790 855 0
623 855 858 0
624 568 792 0
624 623 625 0
625 623 858 0
626 570 628 0
627 628 631 0
627 631 632 0
627 632 634 0
627 634 635 0
627 635 656 0
628 570 630 0
628 627 656 0
628 630 631 0
629 630 637 0
629 637 638 0
630 616 659 0
630 629 631 0
631 629 632 0
632 534 636 0
632 629 633 0
633 629 638 0
634 533 655 0
634 632 636 0
635 459 656 0
635 634 655 0
636 534 870 0
637 546 638 0
637 630 659 0
640 559 644 0
640 566 643 0
641 635 642 0
641 640 643 0
642 635 655 0
647 153 921 0
647 448 648 0
648 448 649 0
648 649 651 0
649 453 652 0
650 469 916 0
650 648 651 0
651 649 652 0
653 451 654 0
657 516 660 0
657 619 620 0
658 550 868 0
658 619 660 0
659 658 868 0
660 869 550 0
661 611 662 0
661 662 666 0
661 666 668 0
662 15 666 0
662 610 866 0
663 603 664 0
663 664 682 0
664 661 668 0
664 668 682 0
665 666 667 0
665 667 684 0
665 684 685 0
665 685 693 0
666 15 667 0
666 665 668 0
667 15 1071 0
667 411 684 0
668 665 693 0
668 670 673 0
668 673 682 0
669 670 694 0
669 694 701 0
670 668 693 0
670 669 672 0
670 672 673 0
670 693 694 0
671 672 695 0
672 669 681 0
672 671 673 0
672 681 695 0
673 671 675 0
673 675 676 0
673 676 682 0
674 675 678 0
674 678 815 0
674 810 822 0
675 671 678 0
675 674 676 0
676 663 682 0
676 674 822 0
677 678 821 0
678 671 679 0
678 677 815 0
678 679 821 0
679 671 695 0
679 695 696 0
679 696 849 0
680 681 698 0
681 669 698 0
681 680 695 0
683 684 686 0
683 686 687 0
683 687 701 0
684 411 1068 0
684 683 685 0
685 683 694 0
686 413 690 0
686 684 1068 0
687 12 701 0
687 686 688 0
687 688 692 0
688 322 689 0
688 686 690 0
688 689 692 0
689 322 967 0
689 377 692 0
690 413 965 0
690 414 691 0
691 414 1073 0
693 685 694 0
694 683 701 0
695 680 696 0
696 680 697 0
696 697 847 0
696 839 848 0
696 848 849 0
697 373 847 0
697 680 698 0
697 698 699 0
698 669 701 0
698 700 702 0
699 698 702 0
699 702 703 0
700 371 702 0
700 698 701 0
702 374 703 0
703 374 705 0
703 705 838 0
704 707 714 0
704 714 844 0
705 374 708 0
705 707 837 0
705 837 838 0
706 707 708 0
706 708 709 0
706 709 721 0
707 704 837 0
707 705 708 0
707 706 714 0
708 343 709 0
709 345 721 0
710 749 751 0
710 751 752 0
711 713 723 0
711 723 724 0
711 724 754 0
712 752 754 0
713 711 717 0
713 714 721 0
713 721 722 0
713 722 723 0
714 706 721 0
714 713 716 0
714 716 844 0
715 716 717 0
715 717 734 0
715 732 843 0
715 843 844 0
716 713 717 0
716 715 844 0
717 711 720 0
717 720 727 0
717 727 734 0
719 720 751 0
719 751 755 0
720 711 754 0
720 719 727 0
721 345 722 0
722 345 970 0
722 370 723 0
723 370 726 0
724 712 754 0
724 723 726 0
724 725 712 0
725 724 726 0
727 719 729 0
727 729 732 0
727 732 734 0
728 729 738 0
728 738 740 0
728 740 757 0
729 719 737 0
729 728 731 0
729 731 732 0
729 737 738 0
730 731 733 0
730 733 846 0
730 841 843 0
731 728 733 0
731 730 732 0
732 715 734 0
732 730 843 0
733 728 757 0
733 757 852 0
735 742 743 0
735 743 745 0
736 737 746 0
736 746 747 0
737 719 746 0
737 736 738 0
738 736 739 0
738 739 740 0
739 718 740 0
739 736 743 0
739 742 718 0
740 756 758 0
741 760 761 0
742 739 743 0
743 736 747 0
744 748 749 0
745 743 747 0
745 747 748 0
745 863 735 0
746 719 755 0
747 746 748 0
748 746 749 0
748 864 745 0
749 746 755 0
749 750 744 0
750 749 710 0
751 720 754 0
751 749 755 0
752 751 754 0
752 753 710 0
753 752 712 0
756 740 718 0
756 741 758 0
757 740 758 0
757 758 761 0
757 761 852 0
758 741 761 0
759 761 762 0
759 762 766 0
759 766 768 0
759 767 851 0
759 851 852 0
760 10 762 0
761 759 852 0
761 760 762 0
762 10 766 0
763 768 769 0
763 769 770 0
763 770 862 0
767 759 768 0
767 768 829 0
767 829 831 0
767 830 835 0
767 834 851 0
768 763 829 0
768 766 769 0
769 765 770 0
769 771 765 0
770 764 775 0
770 772 764 0
770 775 776 0
770 776 862 0
771 766 10 0
771 769 766 0
772 770 765 0
773 819 828 0
773 828 853 0
773 853 854 0
774 775 779 0
774 779 782 0
774 782 801 0
774 801 802 0
774 802 854 0
775 774 777 0
775 780 779 0
776 775 777 0
776 777 854 0
776 853 862 0
777 774 854 0
779 778 782 0
779 780 778 0
780 775 764 0
781 782 783 0
781 783 787 0
781 787 799 0
781 799 800 0
781 800 801 0
782 781 801 0
782 784 783 0
783 9 787 0
783 784 9 0
784 782 778 0
785 787 788 0
785 788 793 0
785 793 798 0
785 798 799 0
786 856 857 0
787 785 799 0
787 789 788 0
788 786 790 0
788 789 786 0
788 790 793 0
789 787 9 0
790 623 792 0
790 786 857 0
790 792 793 0
791 792 797 0
791 797 798 0
792 568 797 0
792 791 793 0
793 791 798 0
794 597 800 0
795 794 797 0
796 795 797 0
797 794 798 0
798 794 799 0
799 794 800 0
800 597 804 0
800 804 805 0
801 800 805 0
802 801 805 0
802 803 825 0
802 825 826 0
802 826 854 0
803 802 805 0
803 804 807 0
803 807 809 0
803 809 825 0
804 597 807 0
804 803 805 0
806 807 811 0
806 811 812 0
806 812 824 0
807 597 811 0
807 806 809 0
808 809 810 0
808 810 815 0
808 815 817 0
808 816 825 0
809 806 810 0
809 808 825 0
810 674 815 0
810 806 824 0
811 598 813 0
812 8 824 0
812 811 813 0
812 813 814 0
813 595 814 0
815 677 817 0
816 808 817 0
816 817 818 0
816 818 819 0
816 819 826 0
817 677 818 0
818 372 820 0
818 677 821 0
818 821 849 0
819 773 826 0
819 818 820 0
819 820 828 0
820 372 832 0
821 679 849 0
822 810 824 0
823 822 824 0
825 816 826 0
826 773 854 0
827 828 831 0
827 829 862 0
828 820 831 0
828 827 853 0
829 763 862 0
829 827 831 0
830 767 831 0
830 831 832 0
830 832 833 0
830 833 835 0
831 820 832 0
832 372 833 0
833 372 848 0
833 839 840 0
833 840 845 0
834 767 835 0
834 835 845 0
834 845 846 0
834 846 850 0
834 850 851 0
835 833 845 0
836 837 842 0
837 704 842 0
837 836 838 0
838 836 839 0
838 839 847 0
839 696 847 0
839 833 848 0
839 836 840 0
840 836 841 0
840 841 845 0
841 730 846 0
841 836 842 0
841 842 843 0
842 704 844 0
843 842 844 0
845 841 846 0
846 733 850 0
848 372 849 0
850 733 852 0
851 850 852 0
853 776 854 0
853 827 862 0
855 613 860 0
855 790 857 0
856 613 857 0
858 855 860 0
859 620 861 0
860 859 861 0
863 864 4 0
864 748 744 0
864 863 745 0
866 422 1071 0
869 660 516 0
870 534 871 0
872 530 875 0
872 873 523 0
873 872 875 0
873 874 1 0
874 873 875 0
876 514 505 0
878 5 890 0
878 879 5 0
879 877 488 0
879 878 877 0
880 887 889 0
880 889 892 0
880 892 894 0
880 894 926 0
881 929 963 0
882 884 883 0
882 885 897 0
882 889 890 0
884 882 890 0
885 881 963 0
885 882 883 0
885 886 897 0
886 885 963 0
886 896 897 0
886 953 954 0
887 878 890 0
887 880 888 0
888 880 909 0
889 882 897 0
889 887 890 0
891 892 896 0
891 896 955 0
891 955 956 0
891 956 958 0
892 889 896 0
892 891 894 0
893 894 904 0
893 904 907 0
893 907 910 0
893 910 926 0
894 891 895 0
894 893 926 0
894 895 904 0
895 891 958 0
895 900 904 0
896 886 954 0
896 889 897 0
896 954 955 0
898 900 901 0
898 901 906 0
898 906 907 0
899 157 950 0
900 895 958 0
900 898 904 0
900 899 901 0
901 42 906 0
901 899 902 0
902 899 903 0
903 899 950 0
904 898 907 0
905 906 922 0
905 922 923 0
905 923 924 0
906 42 918 0
906 905 907 0
906 918 922 0
907 905 910 0
908 909 926 0
908 910 911 0
908 911 912 0
909 880 926 0
909 908 912 0
910 905 924 0
910 908 926 0
911 472 914 0
911 910 924 0
911 924 925 0
912 911 913 0
913 911 914 0
915 469 923 0
916 915 917 0
917 915 918 0
917 918 919 0
917 919 920 0
917 920 921 0
918 42 919 0
918 915 922 0
919 159 1041 0
920 154 921 0
920 919 1041 0
922 915 923 0
923 469 925 0
924 923 925 0
927 930 933 0
927 933 951 0
927 951 960 0
927 960 961 0
927 961 962 0
928 930 962 0
929 928 962 0
929 961 963 0
930 927 962 0
930 931 936 0
931 75 936 0
931 930 928 0
932 933 935 0
932 934 939 0
932 939 952 0
933 930 936 0
933 932 951 0
934 118 939 0
934 932 935 0
935 933 936 0
935 1082 135 0
937 947 957 0
937 951 952 0
937 956 959 0
938 939 1067 0
938 942 945 0
938 945 947 0
938 947 952 0
939 118 1067 0
939 938 952 0
940 941 943 0
940 943 944 0
940 944 946 0
941 123 943 0
941 940 942 0
942 938 1067 0
942 940 945 0
943 123 1064 0
943 124 949 0
944 158 950 0
944 943 949 0
945 940 946 0
945 946 947 0
946 157 957 0
946 944 950 0
947 937 952 0
947 946 957 0
948 942 1067 0
951 932 952 0
951 937 959 0
951 959 960 0
953 886 961 0
954 953 959 0
955 954 956 0
956 937 957 0
956 954 959 0
956 957 958 0
957 900 958 0
959 953 960 0
960 953 961 0
961 886 963 0
961 929 962 0
965 413 1069 0
968 370 969 0
969 370 970 0
971 353 972 0
971 972 973 0
972 362 973 0
973 362 1031 0
973 974 976 0
974 325 1030 0
974 973 1031 0
975 976 979 0
976 974 979 0
976 977 7 0
977 976 975 0
978 979 1030 0
978 981 982 0
979 974 1030 0
979 980 975 0
980 978 982 0
980 979 978 0
981 309 982 0
981 978 1030 0
982 309 983 0
982 983 1005 0
983 304 985 0
983 985 1005 0
984 985 986 0
985 304 994 0
985 1004 1005 0
986 985 994 0
986 987 984 0
987 986 244 0
988 989 992 0
988 992 1010 0
989 986 993 0
989 988 991 0
989 995 244 0
990 991 1002 0
991 988 997 0
991 997 1002 0
992 305 1011 0
992 989 993 0
992 993 994 0
993 986 994 0
995 989 991 0
995 991 990 0
996 997 999 0
996 999 1012 0
996 1003 1002 0
996 1012 1015 0
997 988 1001 0
997 996 1002 0
997 1001 1009 0
998 999 1009 0
998 1007 1014 0
999 997 1009 0
999 998 1012 0
1000 302 1006 0
1000 1001 1010 0
1000 1006 1007 0
1000 1007 1009 0
1001 988 1010 0
1001 1000 1009 0
1002 1003 990 0
1003 996 1015 0
1004 303 1005 0
1004 985 984 0
1006 266 1008 0
1007 260 1014 0
1007 998 1009 0
1007 1006 1008 0
1010 992 1011 0
1011 305 1032 0
1012 998 1013 0
1012 1013 1018 0
1012 1017 1029 0
1013 242 1018 0
1013 998 1014 0
1015 1012 1029 0
1016 1017 1027 0
1016 1028 1029 0
1017 1012 1018 0
1017 1016 1029 0
1017 1018 1021 0
1017 1021 1027 0
1018 242 1026 0
1019 1020 1024 0
1019 1021 1026 0
1019 1024 1027 0
1020 1019 1023 0
1021 1018 1026 0
1021 1019 1027 0
1022 264 243 0
1022 1020 1023 0
1023 1019 1026 0
1024 1025 3 0
1025 1024 1020 0
1027 1081 1016 0
1028 245 1029 0
1033 267 1034 0
1033 1034 1037 0
1033 1035 1038 0
1034 297 1037 0
1035 259 1038 0
1035 279 1036 0
1035 1033 1037 0
1038 259 1039 0
1040 43 1041 0
1042 1046 1051 0
1042 1051 1052 0
1043 1042 1044 0
1044 1042 1047 0
1044 1045 1043 0
1044 1047 1063 0
1045 1044 1063 0
1046 1042 1043 0
1046 1050 1051 0
1047 133 1063 0
1047 1042 1052 0
1047 1052 1061 0
1048 1051 1057 0
1048 1053 1061 0
1049 1056 1057 0
1050 1046 2 0
1050 1049 1051 0
1051 1048 1052 0
1051 1049 1057 0
1052 1048 1061 0
1053 112 1062 0
1053 115 1061 0
1053 1048 1055 0
1054 1053 1055 0
1054 1059 1060 0
1055 1048 1057 0
1055 1056 88 0
1056 1055 1057 0
1058 1054 1060 0
1059 90 1060 0
1059 1054 88 0
1064 123 1065 0
1067 118 1080 0
1068 411 1069 0
1072 378 1073 0
1074 56 1076 0
1074 69 1075 0
1074 82 1078 0
1074 1077 56 0
1077 1074 1078 0
1078 82 1079 0
1081 1024 3 0
1081 1027 1024 0
1082 935 75 0

End
