MeshVersionFormatted 1

Dimension
2

Vertices
1375
0.0 0.0 1
1.0 0.0 1
1.0 1.0 1
0.0 1.0 1
0.5 0.0 1
1.0 0.5 1
0.5 1.0 1
0.25 0.5 0
0.0 0.5 1
0.0 0.75 1
0.25 1.0 1
0.375 0.75 0
0.7291666666666666 0.7291666666666666 0
0.538690476190476 0.5119047619047622 0
0.3910557644110273 0.5857221177944861 0
0.5316602518200254 0.6823877028881726 0
0.654972415227055 0.6020863169829342 0
0.7650644656186915 0.3400724474862056 0
0.6749052114385818 0.45632563128933656 0
0.8276068351983819 0.5514508511724192 0
0.7854616148589596 0.44897904494922575 0
0.7352910988334793 0.5295162491877469 0
0.7601325780042659 0.6301974255277039 0
0.7736121155384761 0.5734663558598555 0
0.7140392862560221 0.5867276498891941 0
0.6987346194295964 0.6491284537217925 0
0.6895479488246486 0.6137980513830927 0
0.7244735266878868 0.623576211854637 0
0.7477968640191492 0.5972994768463565 0
0.7405807748016819 0.5635855712243611 0
0.7066090418391069 0.5514147910707189 0
0.6795990259585076 0.575536154030614 0
0.6760018757715547 0.5968959075687909 0
0.6515480633650842 0.5169429683171464 0
0.6364305463887948 0.560191510440027 0
0.6547138585473644 0.57715020151169 0
0.6740762187746789 0.54216898213674 0
0.6965122923208599 0.49945996996276004 0
0.677301872047036 0.5166158843496824 0
0.6679364058101517 0.4867954181415381 0
0.5944966170136127 0.45396703966548446 0
0.625469278830513 0.4832382619503372 0
0.6482734242075799 0.46626644032982745 0
0.6459205962141266 0.49435568909725713 0
0.7084534749266177 0.5240978521953885 0
0.6502652609467522 0.5407609982377488 0
0.609873269839015 0.5266419879473576 0
0.5862961503641456 0.4936662837217442 0
0.572362278142752 0.528545277607543 0
0.5931265865766068 0.5671843234635304 0
0.6128251691016976 0.5515912340575094 0
0.5270849590842619 0.5777757479917525 0
0.5582676197095761 0.5610184402304378 0
0.5472626893105845 0.5369464523038912 0
0.5001761552366423 0.539076949742666 0
0.5668151598800314 0.6143156584100068 0
0.571791179345665 0.5861836145284123 0
0.5467522282026505 0.5962608070795711 0
0.5279321311535407 0.6373486980684672 0
0.6098273261990801 0.6074175832010668 0
0.6286501078522638 0.5869147131774775 0
0.578130465774818 0.5503443085862447 0
0.5984051285989643 0.6737435465690379 0
0.5927733407477879 0.638627171581629 0
0.5601665966308035 0.6474284891490811 0
0.6406738012912522 0.6489549227149423 0
0.6191039281686013 0.6327508698408391 0
0.6173263037750666 0.6575754315594783 0
0.6531386640891814 0.7186413844484124 0
0.6406845330874512 0.6849110330418948 0
0.642603316784988 0.6239281725817575 0
0.6697353950724643 0.6386077610066454 0
0.6735660286052839 0.6732760668766146 0
0.6630437817065735 0.6958197833442645 0
0.6914561615258763 0.7217117607383677 0
0.7109069863729148 0.687005651342686 0
0.6955844617660395 0.6710352798714626 0
0.7362902593502574 0.65926917403862 0
0.7200375027291829 0.6448473707299054 0
0.6100171164572795 0.7153986198538662 0
0.6323190552319501 0.7071641587376771 0
0.5892113081421175 0.6164165208960082 0
0.75 1.0 1
0.660001121849628 0.8736310852541573 0
0.6255249364675467 0.7975108081394523 0
0.6969438855235295 0.7930586122315428 0
0.7041473384540762 0.7566200774758298 0
0.6699648598671035 0.7492862265495103 0
0.6831003387034531 0.7713906275599195 0
0.6504147808603699 0.7758588680298152 0
0.662452786852282 0.8148290260789864 0
0.6691880662399143 0.7914041085871676 0
0.6478177849687194 0.7980054565639173 0
0.6125329321574248 0.7574439876401302 0
0.6303208311397658 0.7354108503747359 0
0.6465712660198358 0.7525530761889778 0
0.6275551648460013 0.7747126957631939 0
0.7658842170873267 0.7877559884435071 0
1.0 0.75 1
0.7393568062187214 0.7635805588852108 0
0.7181503458711277 0.7783195855583785 0
0.7339759347975158 0.8237147919552998 0
0.7959699178678006 0.728101486617352 0
0.7627168017134849 0.7379479141008001 0
0.764300509400407 0.762851951272153 0
0.8097482491351885 0.7724641945529004 0
0.7673751200050578 0.6926058511448082 0
0.7511013285805808 0.7138442496242559 0
0.7393235535473383 0.6879655571457791 0
0.7083563826915816 0.7353287042669884 0
0.7255399354465499 0.6749140214048115 0
0.7679429174008361 0.660915493981491 0
0.8221604125604804 0.6777371762150052 0
0.8057143215600516 0.6349598238624995 0
0.7820459083691298 0.6409777263317735 0
0.7961182720416485 0.6658885836080127 0
0.7858090178843228 0.6062251465529426 0
0.8301804203593741 0.596749667131441 0
0.8036085338870154 0.5809479510819644 0
0.8099723827389865 0.6107483322701144 0
0.6967603663492878 0.830975375374262 0
0.7286968390635606 0.8956639349481569 0
0.7215381094216881 0.8589704383492816 0
0.6897739441148518 0.8621215037922201 0
0.6884640786654919 0.9029959105526613 0
0.625 1.0 1
0.6804561429902616 0.88228109599937 0
0.6658204036210488 0.8444215727490523 0
0.6129514012706766 0.8490731467486551 0
0.6400658060961815 0.8544750294988852 0
0.6315832283505335 0.8263023343069066 0
0.617269332303558 0.8981500196405922 0
0.6350513836307604 0.8796446022164377 0
0.6519731363784897 0.9137010827153093 0
0.6150796570158715 0.9495346001252074 0
0.6263973753270247 0.924277942303269 0
0.6875 1.0 1
0.7181421314156864 0.9517977024467021 0
0.7126585171222244 0.9217074577589309 0
0.6789257687104834 0.9433996644413928 0
0.6472244593968709 0.9487748425328939 0
0.6678134510361577 0.97403265059893 0
0.65625 1.0 1
0.6396879311073388 0.9759387689773559 0
0.6971099551835253 0.9722683064547744 0
0.71875 1.0 1
0.7343750000000007 0.9756979749326093 0
0.875 1.0 1
0.8125 0.9426415280281129 0
0.8125 1.0 1
0.7644104517639522 0.9378353913333508 0
0.7434629661860088 0.9520627513251257 0
0.7411723650432894 0.9213068916421309 0
0.7851736137457815 0.8840436883004892 0
0.7584180256851591 0.8970605193132615 0
0.7574611843420905 0.861087820320903 0
0.7386361074757783 0.8746797645054506 0
0.806393811151636 0.8302213482906798 0
0.7869776626179587 0.8536606120993778 0
0.8325007745730396 0.8716087247611376 0
0.8126757682594257 0.8551864825607061 0
0.847681347211384 0.833105127152826 0
0.7725522059379183 0.8219497285357964 0
0.7956963416413985 0.8006240704045243 0
0.8316227851803563 0.8009656097331997 0
0.827640076932547 0.8230371783701085 0
0.9167314742592447 0.778522517128554 0
0.8645090560803419 0.7530807974600258 0
0.8402802365608799 0.7716761613238025 0
0.876429492437113 0.7982854726554208 0
0.8639294089474253 0.7774076922608977 0
0.890585756358189 0.7658724910906677 0
0.9372806968965205 0.7027056739894096 0
1.0 0.625 1
0.8962979213861563 0.721252498342785 0
0.8858318442673274 0.7425882779504775 0
0.8597901454320619 0.7165788435927194 0
0.8242801940881292 0.7436297941072858 0
0.8471155718017478 0.7367733942752613 0
0.8273905916538967 0.7103188289507513 0
0.886472087437935 0.6530807891316284 0
0.8819340970173749 0.6885288370545608 0
0.9095269197174144 0.6959314399621627 0
0.9342162196281723 0.6550205221912526 0
0.9282794865337184 0.6793430901469167 0
1.0 0.6875 1
0.9650484139984451 0.6754319592358107 0
1.0 0.65625 1
0.9667888565225955 0.6393106833775424 0
0.9137221487392265 0.5709054781014747 0
0.932951102322065 0.6107746155471734 0
1.0 0.5625 1
1.0 0.59375 1
0.9603467645676577 0.5781250000000016 0
0.9832518274893463 0.5781250000000012 0
0.9434845042923601 0.6326144753770536 0
0.9782007143242255 0.6579631124928821 0
1.0 0.71875 1
0.9625911295681242 0.7343750000000004 0
0.8549491473978322 0.6670597797504991 0
0.8475846491644918 0.6927758958389826 0
0.8561051964909298 0.6271347298868428 0
0.8650803354631446 0.6473738712802615 0
0.8311706910237397 0.6497230125189146 0
0.831051827762511 0.6245354476436181 0
0.8546201663712184 0.8095565329018887 0
0.8934977175356152 0.6141145799847005 0
0.9146295323908388 0.6337985273380201 0
0.8652194793128591 0.5931062081048759 0
0.8917346321360952 0.5869516814344627 0
0.8751817876624614 0.5411824928394555 0
0.8733034109999889 0.5677396627713729 0
0.8528252057781103 0.5529462352102027 0
0.842898807510598 0.5069556386218139 0
0.845845414859259 0.5770929187770594 0
0.9723983659210838 0.7052611137938096 0
0.9277741594648314 0.7362522256667018 0
0.9121066017750792 0.7547367755451129 0
0.9467173846496594 0.763778491766724 0
1.0 0.875 1
0.9588588737469179 0.8263356384310676 0
1.0 0.8125 1
0.9442902201657594 0.7967063933590507 0
0.9108241931848073 0.8174507502791123 0
0.9352778997899572 0.8195340518844773 0
0.9154392139969576 0.9078397706460375 0
0.9347081969350302 0.8657873932460812 0
0.9731981562212245 0.800888720951709 0
1.0 0.78125 1
0.9732487424925097 0.7728495583558235 0
0.9776493304971038 0.7509171963843212 0
0.8829175715359214 0.8692418664835102 0
0.8571771862234956 0.8590933657395184 0
0.900274733944687 0.7959375654748071 0
1.0 0.84375 1
0.9823576358815936 0.8281250000000014 0
0.9647811562562296 0.5312499999999986 0
0.9354081851635284 0.5850179128448929 0
0.9636437668098699 0.6087098444381884 0
0.7539235407225038 0.8372452875250367 0
0.6738962545161089 0.9208845681866282 0
0.5384748305668767 0.8035977451002452 0
0.5812429878431915 0.7897298095679147 0
0.5988041554676379 0.8184894124600552 0
0.5668596950793862 0.818253920339438 0
0.5069853763371548 0.899398721274886 0
0.530414089397587 0.8540239331688867 0
0.542747265101817 0.8301380614690589 0
0.5003136132523274 0.8233549454428978 0
0.5722186079824635 0.860482203981464 0
0.58890330958988 0.8416332305770632 0
0.5461228178640677 0.8908708994521427 0
0.5816481690448118 0.8949786957627467 0
0.5940059424704539 0.9249271827294172 0
0.5625 1.0 1
0.5761228555087495 0.9615696419170439 0
0.5929961201094671 0.9471194314002053 0
0.601394783004104 0.874818321549393 0
0.59375 1.0 1
0.6093749999999986 0.9768637613395992 0
0.5781250000000014 0.983909070307406 0
0.5552660211189632 0.9287055297058376 0
0.57356523656616 0.915837855248743 0
0.5311370597440821 0.9670690324040923 0
0.5523224757402054 0.9536239495103201 0
0.5307948375605446 0.9145971930482464 0
0.49715107892028804 0.9410536538525638 0
0.5016540654711765 0.9703780394573289 0
0.3746133556580005 0.9748781974485483 0
0.375 1.0 1
0.4375 0.9864741990818666 0
0.4375 1.0 1
0.46875 1.0 1
0.40625 1.0 1
0.3125 1.0 1
0.34375 1.0 1
0.4651969145090465 0.9609683903434458 0
0.32812500000000056 0.9492844602810647 0
0.32812499999999956 0.9770491908704498 0
0.35077156758611205 0.9631668255757618 0
0.4064080127457968 0.8800272241402409 0
0.3658866760002118 0.9130961888852952 0
0.35175630466013885 0.936147333468851 0
0.31492153607982143 0.8977110516840463 0
0.3282933553813299 0.9217645254984623 0
0.2757985967952344 0.9352038670088506 0
0.29165522419194095 0.9690146107556671 0
0.3038101704340043 0.9353752300298324 0
0.4091582026308628 0.9638562207160244 0
0.38497086588414453 0.9406513507512129 0
0.42674207509898976 0.9213197328716073 0
0.39702986214753816 0.9119132579450471 0
0.4096353186237418 0.9391507692074413 0
0.4366425125249697 0.9520296696792396 0
0.3955822995363707 0.9809527653187544 0
0.4640784425100551 0.923580372939997 0
0.44765548605446315 0.8853682411228014 0
0.43498863391903236 0.8212485024783123 0
0.4305620504565097 0.855434011308401 0
0.47125552653005126 0.8520442636653957 0
0.4498098905459087 0.8405470116892989 0
0.4680081333569278 0.8112301419996247 0
0.4346370684089166 0.7606661383919096 0
0.4438117927326382 0.7909050986783207 0
0.49011785197170776 0.7603441778631481 0
0.4624252844049904 0.7687463077920289 0
0.48327130059250506 0.7876156504732377 0
0.5150717572255061 0.7811040555779225 0
0.46213043585159763 0.717937505739476 0
0.45473068946666817 0.7433857037509572 0
0.4156001924008274 0.7182075253899268 0
0.5335923043999237 0.733464327247099 0
0.5163556219018989 0.754183261522875 0
0.5519271399322974 0.766246924084135 0
0.49867707532657285 0.7219466505087074 0
0.5225335145798461 0.708307789510669 0
0.5024560493769538 0.8004003549886735 0
0.39897654095222196 0.7879971260857823 0
0.38556194455671366 0.8353954571472156 0
0.4043198482158782 0.8538183901513483 0
0.4206690999149717 0.8006302267704132 0
0.3986482976436552 0.8135016810639102 0
0.3514357560842069 0.8001396665025674 0
0.37324371408776064 0.813174724386315 0
0.3381261172495116 0.8471671468080116 0
0.36025975034295005 0.8348972006953425 0
0.3672985183162312 0.8736926566118403 0
0.38075166068923305 0.8939017469374133 0
0.41371368094330313 0.8319396362521951 0
0.479058579704624 0.8308871594267068 0
0.4516978998252213 0.8632123155778906 0
0.3372959901497328 0.8773845727422988 0
0.34347222658411447 0.9017405297327719 0
0.47918628561121945 0.7377546783941308 0
0.5574864029037256 0.7893470630043319 0
0.5818134493511179 0.7589773712445343 0
0.5961307913440557 0.7373274701349185 0
0.5685623098477564 0.7045087341952222 0
0.5460888251314026 0.7129618831810662 0
0.5625518746412966 0.737055959938417 0
0.5924708779029525 0.6978438557044696 0
0.5691881026626404 0.6752591196721631 0
0.4795536983723639 0.8829397918082625 0
0.5059073493880857 0.8701061375470602 0
0.507734596535235 0.8461772704614514 0
0.46485743263222157 0.900610349089112 0
0.42525777213936994 0.8963977601641687 0
0.4755260724392611 0.9419486525827835 0
0.488673483348567 0.9170638274079828 0
0.2562971662375783 0.9649732929093304 0
0.28125 1.0 1
0.12692165696863444 0.8589494220916376 0
0.125 1.0 1
0.1874999999999996 0.9706842226615767 0
0.1875 1.0 1
0.2187499999999999 0.9853421113307872 0
0.21875 1.0 1
0.15625 1.0 1
0.14062499999999906 0.952030270790914 0
0.14062500000000092 0.97855987172215 0
0.16249543889572085 0.9652950712565295 0
0.19032759049733305 0.896862178352727 0
0.16989731253855184 0.928429251757092 0
0.09990123127371851 0.9652950712565344 0
0.0625 1.0 1
0.2287473473884717 0.925653652040386 0
0.21441882644992596 0.9539352056659391 0
0.23328051567010086 0.9673361802449655 0
0.1993935912138018 0.9285523783618754 0
0.18456772217399064 0.9471117862225061 0
0.2503674737961566 0.939816618944644 0
0.09375 1.0 1
0.10435408230825516 0.9098209416956519 0
0.0 0.875 1
0.11369110700870354 0.9384861926715744 0
0.13841629949607814 0.9145792659386383 0
0.12470866862026653 0.8884091610246997 0
0.1581724687172824 0.8875561781349406 0
0.19692977135312695 0.8138436247611338 0
0.08451059608357941 0.8705765306995877 0
0.1014299316813852 0.8866604838307997 0
0.07041946271645574 0.9023405717237737 0
0.07809412297515239 0.9371269540013418 0
0.0 0.9375 1
0.03900024177085352 0.927512152958848 0
0.06091882774378647 0.9226764186950481 0
0.04215083544784865 0.8707925024128652 0
0.06337928075894206 0.8802098449300689 0
0.1851125932371277 0.854675646308938 0
0.1786847506308986 0.8768858394047053 0
0.15612802081530203 0.8583224695974757 0
0.14032785284278607 0.8028747671311005 0
0.14096739369644443 0.8326675553258573 0
0.16691413924015586 0.8172073163833228 0
0.17654252470332374 0.7675225535981666 0
0.16396151458132344 0.7908598073124592 0
0.13292959217407327 0.7590708250996967 0
0.09072871413866561 0.818842735380942 0
0.11335737064840591 0.8348061593367498 0
0.08928472436201203 0.8449097652190098 0
0.050244597689762194 0.8296736174189674 0
0.0 0.8125 1
0.1701934024988381 0.9062260851465184 0
0.06356097657549646 0.8531876139600925 0
0.05605838120684399 0.7703275776399263 0
0.06428882168842258 0.8010916566606535 0
0.09811520823600994 0.7792742970430246 0
0.07564681579176834 0.781570004531549 0
0.08331515241893563 0.7455226118952616 0
0.0 0.625 1
0.0 0.6875 1
0.0404789972944687 0.7258303319860611 0
0.05771611259361191 0.7447712211975793 0
0.029618598463318255 0.7557805989838945 0
0.0 0.78125 1
0.030383914807254626 0.7968749999999996 0
0.024524601114425032 0.8228354840918568 0
0.0 0.84375 1
0.019725726045891335 0.8593749999999996 0
0.021660930993044673 0.7764831244844025 0
0.10735653980490006 0.7551012469946234 0
0.1376993498664357 0.6439838989662624 0
0.11624687483647805 0.6978274014311731 0
0.12458823350527364 0.728449113265434 0
0.16018077609103956 0.735200649153685 0
0.1558184857024607 0.7577111067984785 0
0.27055054503797227 0.6996323164276406 0
0.2181781879327238 0.7261438526726891 0
0.19064853689261743 0.7400797032187421 0
0.2236987787664539 0.7744147635393677 0
0.21353253803617922 0.751126302560415 0
0.25656338744076795 0.7462050009208676 0
0.1829345592991451 0.6906813606188004 0
0.17877890516534947 0.7166317752758858 0
0.15006992686750512 0.6987264226424988 0
0.1446528737684015 0.7198665623159096 0
0.15990064391884742 0.6677359043904673 0
0.13099079296935268 0.6725063854627348 0
0.06773485691148438 0.642578260787509 0
0.09435488328480422 0.6681270838004641 0
0.10293275742603837 0.6325470762150854 0
0.06256132173889249 0.5576574817466713 0
0.07449990130917278 0.5995481411165539 0
0.14301550295219626 0.5692618386042856 0
0.13094549147155635 0.6059532501114854 0
0.19299680416835674 0.6145485977702727 0
0.1693028164927434 0.6366956619135187 0
0.20897592978660187 0.6553918423052486 0
0.19285948857854363 0.6381497032619597 0
0.18535683299403183 0.665215662698575 0
0.16259209487505408 0.6057681989350251 0
0.14686749755902062 0.6227406958300032 0
0.1901109148690825 0.5675090204104113 0
0.1831702397339038 0.5915431461652921 0
0.22035379267688085 0.5892619263166055 0
0.12409258073737965 0.626785290592398 0
0.08107784669669815 0.6226291507090571 0
0.10257822837412499 0.6040238327991422 0
0.11460125212114536 0.6541842079482413 0
0.0535342072872072 0.6840167938937687 0
0.08302411541542012 0.6993973606624876 0
0.06618527801506105 0.7197501311344826 0
0.07025539942926118 0.6665945206411372 0
0.029021047030841504 0.652463842091478 0
0.0 0.65625 1
0.02638032323132788 0.6798138785537912 0
0.0 0.71875 1
0.01812569537924968 0.7343749999999998 0
0.023090655612422212 0.7059898039044791 0
0.04038830607649597 0.6162320839353153 0
0.02233256496326077 0.6304663683973211 0
0.04591205657277507 0.6378641377281643 0
0.04622842334391451 0.5849587975197941 0
0.0 0.5625 1
0.03106975284071843 0.5573539839695322 0
0.04725899691547242 0.5114914276236935 0
0.04701130338029608 0.5371926307829421 0
0.0846887890562901 0.524703949753197 0
0.01917317272146519 0.5240725476153792 0
0.0 0.53125 1
0.0 0.59375 1
0.02144961894921764 0.5806011596830731 0
0.13779698693301848 0.3146298381901114 0
0.0 0.25 1
0.10158161926016497 0.4172244579766915 0
0.0 0.375 1
0.08316493006219182 0.469397150052105 0
0.07330006735759918 0.497343348129314 0
0.10314299940223405 0.5610012722040597 0
0.09163474476231759 0.5823651868971379 0
0.11827681394756306 0.5827149259316484 0
0.13167175189616237 0.5236568551451305 0
0.10970733206247056 0.49448070171167924 0
0.10805545568727229 0.5185799833981237 0
0.18117985991668611 0.4635303992146941 0
0.14917564272554795 0.48762384472108017 0
0.13119722709151255 0.5011583728360108 0
0.17738919709324125 0.5235972196209256 0
0.17869027445567073 0.4935263075704158 0
0.21313617197568668 0.5100802801796271 0
0.221931391079413 0.4697985141134725 0
0.19948127532566975 0.480150639839925 0
0.216022636279503 0.3726086120900132 0
0.2084496579926664 0.4218435839490698 0
0.30525863694699606 0.42049989337555926 0
0.2689667429664106 0.45422879608438016 0
0.2490112919822653 0.47277496138274977 0
0.20429026360500704 0.4488854765665483 0
0.22806777404094294 0.4922394147783526 0
0.20391173101297352 0.5397120673821729 0
0.21619988515394373 0.5631374089054547 0
0.240428731474127 0.5354921138973133 0
0.23423267023830857 0.5147845890351912 0
0.154515941704141 0.5124859924286442 0
0.1402028972320814 0.44240209706866185 0
0.11480738070808046 0.4624992109658099 0
0.13842943150336914 0.46625502677254527 0
0.11578748293102377 0.43764375542048384 0
0.12638281966960854 0.5491857303773415 0
0.15493132941405205 0.5424618084954798 0
0.16638523153296245 0.5636034629902946 0
0.08378540397159194 0.5480031340888566 0
0.13696131583275012 0.5876012344489242 0
0.22761018525302465 0.6245541685828387 0
0.30503087370906906 0.5902436904183568 0
0.2625854573962358 0.5989708379172412 0
0.24954059163807055 0.5679178675160154 0
0.2794895541301329 0.5736032351026785 0
0.340366162925031 0.5080859749101675 0
0.31559367046549797 0.5461091019624393 0
0.3024435317055075 0.5662931588409703 0
0.33732094048431827 0.5746404210045102 0
0.28071626168669006 0.5377618397989015 0
0.259960111369515 0.5474967861357981 0
0.30525031270571124 0.5122889472684782 0
0.2768761589477261 0.5095119175612988 0
0.29420245166850234 0.47882566103452984 0
0.27029959484527305 0.48556403543265486 0
0.3202463251938007 0.488782671282381 0
0.3188887852604725 0.4532943978434876 0
0.3580007413619228 0.46956834230258576 0
0.3346880217489163 0.4704601283705564 0
0.29375461895876354 0.4445109805173929 0
0.32456596918687475 0.5248733134588958 0
0.3599293274547621 0.5423279851543195 0
0.33836594896619593 0.5513060495773912 0
0.2392505934684432 0.6037686893003757 0
0.366136174035337 0.5707363394363886 0
0.3572814077435767 0.6136728424482969 0
0.36925570803133556 0.593760986615649 0
0.3915895743322735 0.620748192691832 0
0.3615186305887241 0.6798439964567174 0
0.3684615107815032 0.6461781732733514 0
0.3105456296173565 0.6479228071384945 0
0.3398280447760363 0.6578219370951179 0
0.3330483804672379 0.6296173007272334 0
0.30592697556414356 0.619261207179108 0
0.3321697673736068 0.6018945567040305 0
0.3124047641646824 0.6906827626008271 0
0.3364314183979828 0.6828605183006526 0
0.337483702372138 0.7269037186598737 0
0.32290993857680733 0.5860305339205942 0
0.4078385577291031 0.6718476996826168 0
0.39558233971418744 0.6476117818046423 0
0.38348733202108465 0.6689452568349857 0
0.3863015949797706 0.7022086340012724 0
0.46077850005367127 0.6298587485044822 0
0.4256425962622404 0.6294153730011773 0
0.4428076041687658 0.6615689133968542 0
0.4849363696160899 0.6786235874585804 0
0.5005369554600224 0.6975161651323712 0
0.4696465473378634 0.6558318263943591 0
0.500414636876628 0.6517155537741905 0
0.5087871688818434 0.67443745951691 0
0.421140087481077 0.6524775122837093 0
0.4326187491358023 0.6915286065773267 0
0.4584103919911476 0.6835875812928832 0
0.4438435747937445 0.5794719911747532 0
0.44348824363118505 0.6076306996480492 0
0.4838693312783061 0.5940586672836046 0
0.5014743474314586 0.62020908170971 0
0.5215436071951217 0.6033765696425174 0
0.41870938078554526 0.5932364221517699 0
0.47905561079894227 0.6163006096682795 0
0.4089909508812317 0.6954844095889037 0
0.35858209215947073 0.7080117811714797 0
0.3766383686755348 0.7251554668391622 0
0.4732465202474536 0.560999038075965 0
0.4997507595888097 0.5707191129961641 0
0.4367460840095063 0.48865944161529373 0
0.4360301012119574 0.5343990279160652 0
0.4130046704739547 0.5595888944798494 0
0.38630817957167457 0.5514467914783923 0
0.38753264100645324 0.5051909432882272 0
0.3796045816966771 0.5281252064663594 0
0.40848350093472463 0.5252708094908971 0
0.428364442837602 0.5114036368826251 0
0.4649691309179847 0.5119766269136874 0
0.4617652664213559 0.5377276168998005 0
0.5017584147543165 0.43870785904577875 0
0.47497283795761097 0.4711290359901558 0
0.460097028984633 0.48913466784808285 0
0.4361177400516632 0.5575975565640765 0
0.5018175319987648 0.4993521538800142 0
0.5327234330430541 0.46899984997189814 0
0.5528861542952317 0.4174166584913384 0
0.5318457007492335 0.4389245887704746 0
0.5615716945402621 0.4531074883830056 0
0.5589678294946316 0.48251014775418977 0
0.5623068656641619 0.5065048160132551 0
0.50375859238752 0.46763573642067086 0
0.5249091758239917 0.49195401772493413 0
0.48784958135547896 0.5186713240792876 0
0.5154259471895694 0.519810743554729 0
0.41759104277476833 0.3964462320576399 0
0.43772906630293057 0.44035915038214957 0
0.4697437405286235 0.43953350471396363 0
0.45288249951014814 0.40683593114905947 0
0.49302754532973353 0.2053388991254494 0
0.4638986740668492 0.30428308325235404 0
0.4490969502718858 0.35456118951150284 0
0.4411933357061399 0.38140797968759993 0
0.4307145885374716 0.41700191259076214 0
0.38568251595984704 0.4312850075729969 0
0.34587899590403043 0.42284689380413437 0
0.3249996101867862 0.43152484544992437 0
0.36229222717133386 0.44352172840045373 0
0.3739541142840565 0.38851131134577904 0
0.32800077799435906 0.3795825824023066 0
0.32650167128176116 0.4055281476605175 0
0.34907921074224424 0.393816562471731 0
0.3687785044489465 0.41292523790755087 0
0.44891304764378215 0.4647469091151161 0
0.36325149124448214 0.495267947465531 0
0.29833313322314664 0.7272184343933088 0
0.3182416609405766 0.768516451408688 0
0.34551658219206666 0.7558733817729815 0
0.33974938260579424 0.7791734476173504 0
0.3118385858336736 0.8084707104300611 0
0.335133473829254 0.8209229978558873 0
0.27827208048968943 0.7826011292515778 0
0.256021913031079 0.8461828745158207 0
0.2776817712887215 0.8180786024389383 0
0.24778584925943295 0.7998375169257759 0
0.2544342246575922 0.8225605267223163 0
0.22561271710756303 0.8186591142824785 0
0.2145073349995174 0.7969759426774211 0
0.20744966494834738 0.8390141957632476 0
0.25279775355149636 0.7731232417022371 0
0.29697010526684087 0.8553427721524755 0
0.3128537429314311 0.8345870095821626 0
0.3132753573598639 0.8734213888199871 0
0.2789969365574367 0.8879451482507745 0
0.2553005388424211 0.9087028529121345 0
0.2899442677425509 0.9124236202230258 0
0.24878768768594198 0.8773635547761616 0
0.22968384505413425 0.8565017289261085 0
0.20700826476412204 0.8737590792556346 0
0.21833884480987711 0.8995132325594332 0
0.27863285427896417 0.841210320824591 0
0.29118359271059385 0.8005596113975327 0
0.2913722955141114 0.7560217029052807 0
0.31803788706944014 0.7431670259268869 0
0.3178013261635837 0.7137389004194388 0
0.2934449832298213 0.7043581103029709 0
0.2861843403409734 0.6704023909060858 0
0.24848948490293268 0.6582197755180584 0
0.2632568634671905 0.6769353726745827 0
0.22781306733681436 0.689718156462785 0
0.2294547040285052 0.6467176443017312 0
0.24477064269713905 0.7136906650815475 0
0.2056559325329738 0.7033445206129287 0
0.27611973573689885 0.637135699510712 0
0.2512548564626103 0.6331972608444776 0
0.28601767289494157 0.6053534397081738 0
0.11283596831339635 0.8024959769928091 0
0.12685833550693063 0.7826229642628121 0
0.02360218821321556 0.8982095128074024 0
0.0 0.90625 1
0.016777533513196177 0.9218750000000009 0
0.02878208294149938 0.96875 0
0.0 0.96875 1
0.05346559382725 0.9529813454463295 0
0.051857486646306315 0.9776676213495008 0
0.03125 1.0 1
0.07781545140927414 0.9789993705185996 0
0.02279767516927291 0.945382266292169 0
0.47990662000734047 0.9793068767538168 0
0.5242363362472636 0.940877003366934 0
0.5497234586579376 0.8675638782148776 0
0.7173851311486051 0.837683519892811 0
0.7123923861317949 0.8120922094986056 0
0.6847570877497903 0.8119584531671373 0
0.6879988717008341 0.696970541912881 0
0.7131524813135875 0.7110677272029527 0
0.5905077780446362 0.5155715252900503 0
0.6026610787628962 0.4763501160530436 0
0.6364926965993817 0.3940612791691298 0
0.6495332033693255 0.4289972688121248 0
0.7146044423226126 0.3940263148802854 0
0.6755509597727613 0.39938385772326995 0
0.678132137861803 0.4278876779186168 0
0.7298850436078317 0.4481622713305335 0
0.7013076015476195 0.44491951677326913 0
0.6973649707442984 0.47205390587225543 0
0.7183593674237505 0.42219099257070963 0
0.7580917230762912 0.42010145359100026 0
0.7576832165941502 0.44789788223614413 0
0.7441649504422678 0.4880699647672524 0
0.7185855104894888 0.48643043216901255 0
0.7865945445065183 0.5188274574277177 0
0.7647383699790848 0.5423895069814342 0
0.7958280915865369 0.5493104290776747 0
0.7594346807400151 0.5607092709733822 0
0.8109094610220984 0.5623770123492672 0
0.7585796704021043 0.5128293362663792 0
0.6838230605605077 0.3146650693103253 0
0.6616713153362509 0.3552653774133488 0
0.6914340014538691 0.37014455983012967 0
0.6866329847418252 0.34254138835112 0
0.7261189964932236 0.34989269638571796 0
0.7149194902355489 0.3705396165608684 0
0.7509160278135076 0.382767932209936 0
0.7489839871692523 0.35843569385556856 0
0.7377980747820568 0.40464563390583974 0
0.8199849905761754 0.3888488850187747 0
1.0 0.25 1
0.7845837578374047 0.3956531844436087 0
0.7772869480207051 0.3669978972194045 0
0.7846680228492942 0.4223219532115351 0
0.8295662329678375 0.4343256746394039 0
0.8232030256362017 0.32991799993935517 0
0.7954475413083061 0.3425172665112624 0
0.8038529603834581 0.36772910107577844 0
0.7849800611905089 0.2825864609944755 0
0.7824598753883413 0.31390615999644017 0
0.8112610427435178 0.3004624436968432 0
0.8784220545404992 0.1734664779701781 0
0.75 0.0 1
0.837773879875405 0.2332267689887727 0
0.881275060510653 0.2892256561374573 0
0.8475600963935319 0.30289450426238074 0
0.8870278666055755 0.3629565849913475 0
1.0 0.375 1
0.8768246449396437 0.3266627906553662 0
0.8500976023259228 0.3296702525753366 0
0.8369305994714034 0.360220926739619 0
0.8624425837736183 0.3531035565391904 0
0.859858050093987 0.39312150700671494 0
0.8408953694625801 0.3818970191668385 0
0.8687387427929366 0.30671846921443097 0
0.8525056294236711 0.2666786041320243 0
0.8159564012336729 0.2628046527278757 0
0.830611551674306 0.28375354459736235 0
0.7471633540795224 0.1892254323020632 0
0.7747334383645146 0.23239743631307425 0
0.8062536591199598 0.23281210265092364 0
0.8227206966235573 0.17928346298647468 0
0.7909382247683041 0.19880340866019525 0
0.8223368289062417 0.20846257420486772 0
0.858111282287693 0.20335568022397482 0
0.8976047213727498 0.238761413088127 0
0.8924150945758569 0.20482079053301688 0
1.0 0.125 1
0.944593314683873 0.16273468313837458 0
1.0 0.1875 1
0.9129292711236016 0.17686595226864982 0
0.9507520712478627 0.21907522408264246 0
0.9386215882872386 0.1918943575000818 0
0.9205283994444403 0.21626639801127087 0
0.969643685537834 0.1943468562169592 0
0.9822638677378733 0.22356868970828123 0
1.0 0.21875 1
0.9023495084588208 0.22066885405889666 0
0.875 0.0 1
0.9020914631393544 0.11004102477523471 0
0.8986584074136672 0.1448891180587692 0
0.9216258610487689 0.15381190059857186 0
0.9499494830779492 0.11492700266241945 0
0.8424227832756572 0.1217559221208374 0
0.866364434655363 0.14347455457277863 0
0.8717769274769218 0.11345264362342719 0
0.8125 0.0 1
0.8401704321033029 0.05775458228043198 0
0.8491442014960305 0.0894790777149999 0
0.89084412263474 0.06055217005992345 0
0.8842694656876439 0.08806891333371004 0
0.865026880104404 0.06785498063735936 0
0.8693435886020978 0.03382903757782848 0
0.84375 0.0 1
0.8281250000000012 0.028019799089077042 0
0.781250000000001 0.03579276674353988 0
0.790339708250307 0.09407173490417366 0
0.8204103638022101 0.10033373033296358 0
0.8110188489236869 0.07010064422391699 0
0.7963490081489989 0.14054651630309684 0
0.8171602258975994 0.1256939670593538 0
0.8205335865132111 0.15242717207411352 0
0.8465500004302542 0.1638256613587332 0
0.7815601913164115 0.06559272664703443 0
0.6945889468463717 0.1079970272860958 0
0.7413791311735758 0.09357253567698916 0
0.7416406115805707 0.05110665992545078 0
0.7659391619028889 0.08600116227318061 0
0.7638688346547593 0.12290504834331546 0
0.7875309943625629 0.11806080739031127 0
0.726464991578336 0.12829530626796662 0
0.7436558666199558 0.11511478925375467 0
0.803293599251176 0.023500343189585233 0
0.78125 0.0 1
0.8500120292625244 0.021858439750976486 0
0.8680598949611184 0.23198787661141304 0
0.8801785934191416 0.26099668300959783 0
0.7895015686538054 0.2555228563695997 0
0.7329866525898229 0.29416397937487576 0
0.7534231112724381 0.26340474613109854 0
0.6802849706819274 0.23698032438937225 0
0.7136245587053998 0.25913117281063436 0
0.7324128613397688 0.27161413581106836 0
0.7592165661592319 0.2894225383074076 0
0.7504939931896711 0.3160921684332885 0
0.7751638709534849 0.2975578314961352 0
0.7369604375504437 0.22926387355944675 0
0.7040530275107559 0.19955892844962858 0
0.6870279339537056 0.15504862041517958 0
0.7009691379921247 0.1331556094883413 0
0.7283295101670824 0.2057452563481062 0
0.7083257565790043 0.2309410910633797 0
0.754951186664931 0.24162833698794695 0
0.6783956828012069 0.2759893127064899 0
0.7033159899879023 0.2922109311885035 0
0.7141276771412042 0.3212849824549654 0
0.6909799406013244 0.2570485496865781 0
0.5814880513363173 0.2517456257105982 0
0.6199234440367782 0.3039134262120074 0
0.6535722864866218 0.29919147646428296 0
0.6303535272557986 0.2559860892151024 0
0.6339865664262205 0.28187530218662393 0
0.6042737778951209 0.2728453854946603 0
0.5407991797657161 0.31853880795039696 0
0.5679085596553742 0.2892632653060185 0
0.5936041781776099 0.29769546479795833 0
0.5938903504080136 0.3552949789945811 0
0.6007024950017811 0.32646066615543223 0
0.5691983093241928 0.33423960607825143 0
0.6277776879710435 0.34807906186072424 0
0.6496634963829985 0.3283778839389363 0
0.6156276520596288 0.3741988442483773 0
0.5813795800540391 0.3916305951328745 0
0.6409665291719331 0.3693963674303285 0
0.5630034215996677 0.3119105888638706 0
0.5309306547350415 0.3699228411118265 0
0.5170484297636601 0.4046138772149698 0
0.5442449999452913 0.3458402555303101 0
0.5006711159786891 0.3374717033137649 0
0.5605453177655395 0.370573871230075 0
0.5452571365568287 0.3921216938876718 0
0.4930682409034435 0.37489465950174894 0
0.4666491443217899 0.3743152981426134 0
0.4757305777198054 0.3485712237002998 0
0.4796467326102465 0.3238004335869034 0
0.5071533836145472 0.2854939783807894 0
0.5374755707039269 0.2882716006440547 0
0.5265399303442903 0.24075521352446583 0
0.5241989683087394 0.2663105562180765 0
0.5520682174912189 0.25597858882519214 0
0.48649342733895706 0.24997170032144028 0
0.5608008183224643 0.21231871520772735 0
0.5487048516240336 0.2326026079120286 0
0.5272022862562383 0.2060313437428992 0
0.5651407926293136 0.09621089996729117 0
0.625 0.0 1
0.5114634301026786 0.1391308786715289 0
0.5107447277809564 0.17460153586085214 0
0.5625606261408029 0.1579088138280688 0
0.5337759690732914 0.1573255824615343 0
0.5476338854503194 0.18399244396797887 0
0.5488001997736827 0.12643045440893563 0
0.5151375218789688 0.08870037010633472 0
0.5387827818726718 0.10148605055932672 0
0.5446593884121814 0.062361041628085555 0
0.5166503574738289 0.1141596784815517 0
0.42007518641646585 0.10712373829631663 0
0.25 0.0 1
0.375 0.0 1
0.4678954047419875 0.11705678105917854 0
0.49151646331047816 0.1028785755827562 0
0.4534962576063432 0.06630204638997579 0
0.46755981382615214 0.08973209793647093 0
0.4407007216404161 0.08991813630044561 0
0.3985097350729707 0.05178400778326883 0
0.4132091776103968 0.07792755973450621 0
0.42771238504659026 0.052568781963133505 0
0.4375 0.0 1
0.45594688526898425 0.03063012061062425 0
0.40625 0.0 1
0.4137716519572156 0.02759475794993543 0
0.3853113468684699 0.026547356575409613 0
0.30350476625822287 0.08540056986569804 0
0.3600041720810824 0.10584510019394346 0
0.39020445969567485 0.0987429570052854 0
0.36763620868314645 0.07053756022893823 0
0.3125 0.0 1
0.34375000000000006 0.027414126723476998 0
0.34375 0.0 1
0.38888184693096306 0.16087992148466815 0
0.39755085835272563 0.12998188678759345 0
0.36599731816585324 0.1377941038323219 0
0.2786243075618481 0.24729070166861045 0
0.32870612596586 0.19764555454257254 0
0.3544398693789084 0.17213618769933203 0
0.31199738627382445 0.13873683130863165 0
0.3239946682942922 0.16715792539063792 0
0.33909815703862856 0.14403962127428835 0
0.2535179675939141 0.18016524209559678 0
0.29136719483080414 0.18780792868752924 0
0.39542249264043433 0.2392140181808428 0
0.38287514123537497 0.200821571947843 0
0.3557906336006175 0.1992335632452081 0
0.37585569887990744 0.17934344843651498 0
0.43911533011413656 0.1583087057133358 0
0.4249426859884834 0.1344469185195406 0
0.4138740340334685 0.15716090995297613 0
0.4246788411713984 0.19766715419291792 0
0.4503614262349902 0.1354893217963369 0
0.47588657081188973 0.16224980366504446 0
0.49750926602491113 0.15659075075139875 0
0.454706265848862 0.18635422716652045 0
0.4787038576479293 0.18608299219382912 0
0.4528810476896423 0.22701635408233756 0
0.44507378950701093 0.20629387823948447 0
0.3365746755673321 0.08230197154995972 0
0.34413577597660483 0.055377484874040914 0
0.3033436469569385 0.04195590347279209 0
0.31906910828819895 0.06286202941478226 0
0.3675088200746027 0.04494036400310251 0
0.31967149717701965 0.07992138877213868 0
0.32084812748392494 0.10998328484355273 0
0.4353597222834353 0.022158821980610977 0
0.4938895145707418 0.05115688425841984 0
0.4901858043369933 0.07690223856787014 0
0.47024454890092476 0.04953249741395654 0
0.46875 0.0 1
0.484375 0.02407703484346546 0
0.5452868264313926 0.20230676589062124 0
0.5180600405185206 0.062261874929726624 0
0.5625 0.0 1
0.53125 0.0 1
0.5160863294054759 0.02814663687677212 0
0.34177599134743314 0.12068657002019004 0
0.28125 0.0 1
0.26562499999999994 0.03502312304377167 0
0.29687499999999983 0.018567120187056654 0
0.125 0.07676371073503355 0
0.125 0.0 1
0.19256071508022507 0.046622590201345404 0
0.1875 0.0 1
0.22753638837225224 0.031018759140793863 0
0.21875 0.0 1
0.20252426024244538 0.021955126738007643 0
0.2366755540621833 0.09850456453337915 0
0.2434045653581572 0.06323156638491503 0
0.21766625539455398 0.055895604135799214 0
0.1892896428274206 0.09410019676781144 0
0.19788083005073942 0.07084061809063477 0
0.16082961086699352 0.06628651055876308 0
0.2689999778153434 0.08639273379723321 0
0.2856153943087015 0.06374428259921844 0
0.2645880293951918 0.057062271061735385 0
0.26746478692608056 0.13148568947246486 0
0.2926720794849266 0.11704926949445679 0
0.3042024901426699 0.10331763680386255 0
0.25889763391091813 0.10862140987236873 0
0.2771644334495674 0.16060234005383459 0
0.3011122952022935 0.16007444019878433 0
0.2834885374480768 0.043907209968796275 0
0.15226884184572595 0.10351376019517522 0
0.18704466400365757 0.16277414065836773 0
0.1782309442619638 0.1281123500427973 0
0.12274670715888476 0.16067221460970846 0
0.15519980641170006 0.1524201157860778 0
0.1537343241287129 0.12796693799062647 0
0.11105377027858833 0.11825428723414273 0
0.0 0.125 1
0.15323181764170915 0.21262092879021952 0
0.1629260714837366 0.18280526417018886 0
0.133016981941662 0.18956445949611556 0
0.08265035864386718 0.25411350970375524 0
0.11398619940206539 0.22663970769314984 0
0.08732778891330323 0.1895340149133632 0
0.11017780789588019 0.18141155940097958 0
0.08735186663023195 0.15339978816493277 0
0.0 0.1875 1
0.04406169253509922 0.1714380635430651 0
0.06947195528339571 0.17145499544305554 0
0.10816513980138234 0.14187117055881487 0
0.20917911411213236 0.21432778615074127 0
0.19071361840151213 0.19172739547194212 0
0.18105323747666416 0.21846409336602876 0
0.20554228036990438 0.2872908989131031 0
0.2001241054827264 0.2504486358667475 0
0.22195062761114903 0.18504915851659184 0
0.23234308015213737 0.14776090493420668 0
0.20458796288425554 0.13986180988273286 0
0.22459873787641457 0.12226102307999895 0
0.1611907318609467 0.27499387916071355 0
0.16131623378462753 0.24328360292668724 0
0.1383627222522645 0.23293835566596713 0
0.17844173613376688 0.2592067681664954 0
0.23995913507674965 0.2634098734857639 0
0.24664838811031412 0.22502263396959016 0
0.2406018866657989 0.2011419480552334 0
0.2691729061836801 0.20661369034152355 0
0.22297404893088554 0.23698139875957672 0
0.2555388759245319 0.246348310543593 0
0.300277276254336 0.22082304875424144 0
0.33979570687855254 0.2402714694509888 0
0.3244899925481636 0.22149791919346837 0
0.31002561519894245 0.25088896855992254 0
0.34829465724282055 0.311145914249561 0
0.3360000499548664 0.27667342855665267 0
0.28867808539881373 0.298368917306384 0
0.31904541094784844 0.3021489760767835 0
0.3066439982414091 0.2779075763272497 0
0.29844608579427867 0.3437659905016345 0
0.32602269455843197 0.33150911624733387 0
0.3203164712027619 0.3558213400268762 0
0.35933265541305 0.35215291609887445 0
0.3014837206926495 0.31936297100885297 0
0.26500287682281065 0.3272124835933946 0
0.37989674304392224 0.2804463568419887 0
0.35948148168946525 0.2607229859313123 0
0.3570870433871419 0.2885814330919149 0
0.38957416399210126 0.32202363420115365 0
0.4218307186040297 0.29260079630932867 0
0.3974579828147152 0.2982737320779319 0
0.424816042908857 0.32826664991772675 0
0.4118297200580969 0.36136309563789326 0
0.4046603258239958 0.3394539841718053 0
0.45152739355476906 0.3279588600385552 0
0.3844565009885678 0.3631686032528201 0
0.45151913811195854 0.26727726517682426 0
0.4269491639732009 0.24629264411228272 0
0.40581652589733574 0.26666704462563307 0
0.41574448817261966 0.22245004450604725 0
0.4452207353765135 0.28995783509038753 0
0.4785421549070822 0.27881083895305697 0
0.48842739608960184 0.30107649504002765 0
0.5135930152660647 0.31286758401377024 0
0.4635164483107865 0.2475296090347204 0
0.36581600772480416 0.3284187002528022 0
0.26272421941586493 0.3738756486104445 0
0.29533681950101365 0.37702283716702806 0
0.27625128264965776 0.4042489595110934 0
0.23958276292505834 0.40238079497082907 0
0.23940663491775047 0.4367310506194827 0
0.26449998184806794 0.4280569900231753 0
0.2392321343347244 0.37845005501198814 0
0.23545001444442426 0.3444480924648106 0
0.25865950147067196 0.35028994190272006 0
0.23435558999166098 0.30861748596837435 0
0.26078456128460714 0.299611773579942 0
0.27365336738433094 0.2747976924945299 0
0.22949028901067606 0.2850633355305843 0
0.2149734082514972 0.39764712433903954 0
0.1551874569563896 0.38260058005627495 0
0.18214824198997004 0.4017746207688686 0
0.1777694297063398 0.43259143908485226 0
0.18437314124769938 0.37010425336176617 0
0.15677744283524062 0.345983711795522 0
0.19580080232003685 0.32918411755298077 0
0.16780832012126493 0.31788406965438915 0
0.189068655891502 0.30553947600659237 0
0.1803050503700646 0.3469124134252487 0
0.21114262154162985 0.34846044846321045 0
0.0999538273108876 0.3589606276823825 0
0.13081541852364942 0.36319933743639604 0
0.11873633657718949 0.3366765147973527 0
0.06543278850004222 0.31080641541514487 0
0.08880249634617661 0.3305039351878822 0
0.10212288965579207 0.2909882258992359 0
0.11819180303466222 0.260682874441376 0
0.10763401165670618 0.3148489235523127 0
0.04651266623847961 0.3569658052856306 0
0.07342056627107904 0.35294493947087807 0
0.06588404447163088 0.39455519347274065 0
0.11171657438297178 0.3877866506219663 0
0.1336335944581327 0.4110918428903958 0
0.15939423310975917 0.4142609717781075 0
0.0872896079542752 0.38094135388532935 0
0.13063861417619968 0.28669540504191077 0
0.14261125687007833 0.25906495943418384 0
0.0 0.4375 1
0.03190205115394017 0.38828139745831125 0
0.0 0.40625 1
0.06590287068005604 0.4339668889570641 0
0.04467392157949707 0.41427117737886165 0
0.03358300698336808 0.4475141057230908 0
0.04608558248162404 0.4782918884430029 0
0.0 0.46875 1
0.023901117436073514 0.4693753851003532 0
0.021962562758784367 0.4251655423682022 0
0.0 0.421875 1
0.026070362010627457 0.49570755607421857 0
0.060902044301047224 0.4583236276016625 0
0.09023893229517706 0.444030334608893 0
0.07842060416033442 0.414255057238073 0
0.07377518512251244 0.28237906069428315 0
0.028799508047713227 0.28461810484802297 0
0.0 0.3125 1
0.0 0.28125 1
0.05167731665900377 0.29133191115052376 0
0.03291126571441226 0.31918219883575644 0
0.0 0.34375 1
0.020694273952321363 0.359375 0
0.053809133772664025 0.33299928200437207 0
0.36737417080425494 0.22738440350155353 0
0.08185285201019925 0.22159660880296553 0
0.05674700037270539 0.20119636692517187 0
0.0 0.0625 1
0.061487553261034535 0.07850443030412471 0
0.09356312714300824 0.08928599468691228 0
0.06574285355738556 0.11894856908324515 0
0.05678379963609791 0.14597049432529233 0
0.03297320551222087 0.12308001052042664 0
0.0 0.15625 1
0.019262571860724765 0.17187500000000006 0
0.03108501132227377 0.1488731895197628 0
0.046771520918440765 0.10049869535066393 0
0.08830065200851994 0.11222784943042932 0
0.12808715336678925 0.10089055748770215 0
0.16790718352792913 0.08751200836916975 0
0.14612492049352502 0.08250296460635476 0
0.15625 0.0 1
0.171875 0.025281994096445652 0
0.13510191045955733 0.0373663315026016 0
0.09077452205831453 0.04447838053876699 0
0.0625 0.0 1
0.08305323954006627 0.06744949670378768 0
0.11490511268980533 0.05318146469566816 0
0.11022983228027218 0.02404176535666614 0
0.09375 0.0 1
0.07812499999999999 0.02129344746493395 0
0.035899079077737206 0.035899079077737206 0
0.06053730275719817 0.05008833967836205 0
0.07662477717175466 0.052505461662811566 0
0.13938638492615332 0.05945872538878682 0
0.157452504424358 0.043386912379879364 0
0.24773874687309574 0.022005803580515345 0
0.47824118398868337 0.22596890589018606 0
0.503821147614901 0.2286891063970275 0
0.4677260228848972 0.205901290458008 0
0.40257855863973163 0.18336221962048835 0
0.5133939357915758 0.38302834188292 0
0.5102251143930449 0.3588964815171416 0
0.48497362175835335 0.4059604561989751 0
0.5843541009823355 0.42355297379514373 0
0.6166594188685236 0.4296779625862858 0
0.6230169628975657 0.456136936760941 0
0.6082609979198972 0.4020849980434099 0
0.6587465875325377 0.2554874201639985 0
0.6438587347734904 0.21637444656934873 0
0.6083075561177208 0.22636167153471112 0
0.6295174333206707 0.23359297460417203 0
0.6127437424740136 0.17388424849913847 0
0.6203481246827878 0.20095330435885148 0
0.5884149407577793 0.19532148358025067 0
0.5707350305558168 0.17989957532804393 0
0.6735262544171032 0.20642875827831728 0
0.6495678204608041 0.17814209347373855 0
0.6763867498753185 0.17971638414582203 0
0.6375289421628996 0.12089473246340886 0
0.6690224408169918 0.12819764023993044 0
0.6476867846683289 0.1486481242167961 0
0.617671891796181 0.14389808481080718 0
0.6010264942664657 0.1094571555323538 0
0.5761273865365608 0.12167936549868108 0
0.5649116290406649 0.13813430726097406 0
0.6365994625436909 0.059894473660556 0
0.5905380728137086 0.057722633264316224 0
0.5687001500531803 0.07093602159932218 0
0.5917657326728516 0.08440419163034078 0
0.6224625845121633 0.08729527176399662 0
0.660798775124644 0.0897268258391236 0
0.6132672208003026 0.06520389830995116 0
0.6180752912103965 0.03241151536653627 0
0.59375 0.0 1
0.578124999999999 0.028081239189144843 0
0.5471044420430063 0.026954077691470388 0
0.6409538992848401 0.09918125671628278 0
0.697398701465059 0.06241843438296364 0
0.6670502173417976 0.05992466401422486 0
0.6875 0.0 1
0.6845840042034401 0.03245655250164018 0
0.7145582798003796 0.037357918479225545 0
0.65625 0.0 1
0.6518527804127089 0.03172810368556959 0
0.6854287795557094 0.08455643422858586 0
0.7137358899887434 0.08700463025407526 0
0.7214161920098978 0.06418015902982631 0
0.6215652746410106 0.10787532344113601 0
0.7493327713628346 0.15450771944942226 0
0.7182215802282998 0.1595270559762949 0
0.7002289128094681 0.17568216572024783 0
0.7735508091737877 0.1734476770186249 0
0.7732444023403839 0.14888600099103477 0
0.7991660769486817 0.16768449124900264 0
0.7551138707688585 0.02707345512000297 0
0.9364938479916799 0.43482954927267053 0
0.9031644585210974 0.4048094684682955 0
0.8844768385140508 0.3879773610830661 0
1.0 0.3125 1
0.9394535563477255 0.32863712140120427 0
0.9086493848931447 0.311462928034236 0
0.9181720684277056 0.2728265630093595 0
0.9330893607006315 0.2451188609222052 0
0.964197376893723 0.27973625894458004 0
0.9703537058142231 0.2507271042892041 0
0.9424257672891705 0.2680148443465167 0
0.9401682926134662 0.2982881639052835 0
0.9680098753087322 0.31412674496435056 0
0.9694086447064143 0.3522340191588106 0
1.0 0.34375 1
0.9278807661627675 0.31318168022456966 0
0.9035894366264731 0.2897240975950522 0
0.9022985978199327 0.3390824409050893 0
0.9602710430633763 0.39644876556464825 0
1.0 0.4375 1
0.975139239819767 0.3764699079558913 0
0.9329187377977045 0.3677444450728628 0
0.9311580740592522 0.39680632519658543 0
0.9469103470346555 0.34998279287271766 0
0.6545931179603179 0.4072067612915218 0
0.9685837775250629 0.4281540402638757 0
1.0 0.40625 1
0.9613997088639435 0.47408712813622483 0
0.9782336469830122 0.4531916565016756 0
1.0 0.46875 1
0.9824912958103164 0.48437500000000006 0
0.9007190385327858 0.4850550646050449 0
0.9172689349818453 0.5264583253941115 0
0.9435493213481876 0.5038245108810598 0
0.9303558268686847 0.47567868749721814 0
0.9189121627756682 0.5017921573535332 0
0.9411502164883092 0.5276130212325179 0
0.9386289309906385 0.5563504494505637 0
0.9451198464586397 0.5715943485521539 0
0.9689929291887084 0.5060581867176885 0
0.8891783685127654 0.5136774824876021 0
0.8691404650074568 0.488960291573544 0
0.8648349558310658 0.5186035083088015 0
0.8796423739141522 0.44425271103418495 0
0.9077026742936535 0.45560282551184095 0
0.9015078504903975 0.43055689651579504 0
0.8826466101231082 0.468545663729944 0
0.8496771518460962 0.461408438596519 0
0.8155239365917123 0.46576139019174556 0
0.8350118404840129 0.48250392109169404 0
0.8069198206403598 0.4954893660418831 0
0.8160161429251019 0.5239311495189984 0
0.7762282206630571 0.4859787264272578 0
0.7931371222490462 0.47054644640878623 0
0.7591349372975472 0.4707469494572818 0
0.9288441680455838 0.45456582368248255 0
0.8769393432189813 0.4159054006166133 0
0.850468788347572 0.41795566982498417 0
0.8572063588480399 0.4398120125787536 0
0.9010205452764231 0.5475268284614455 0
0.71875 0.0 1
0.7318352672078966 0.020382347452317793 0
0.5825753950612181 0.22603436502952645 0
0.0315212675748218 0.06751516625750864 0
0.0 0.09375 1
0.024287159774198167 0.09087724142357263 0
0.03125 0.0 1
0.0 0.03125 1
0.019741035475900125 0.019741035475900125 0
0.0416962763354603 0.2446005183364643 0
0.05917422303797636 0.26226832196551697 0
0.06474530818075928 0.23828441714781995 0
0.0 0.21875 1
0.02625514152524612 0.20312500000000006 0
0.023205850042894112 0.2278723255254062 0
0.022560076232765323 0.26052031380995017 0
0.1517812107601574 0.29616188818550926 0
0.16224114147330165 0.4499605841730353 0
0.7573152095027853 0.2131316245875196 0
0.929564046810283 0.07777480610834132 0
0.9375 0.0 1
0.9075033820677713 0.025137820274964705 0
0.90625 0.0 1
0.8905418779296078 0.03878447630272414 0
0.9179763358483918 0.05168991589568202 0
1.0 0.0625 1
0.9601091228587749 0.048589489332086525 0
0.9375270264161613 0.029542282315914034 0
0.968959774498522 0.015186174305437302 0
0.96875 0.0 1
1.0 0.03125 1
0.9830778234960036 0.046875000000000173 0
0.9638810423132679 0.08311389649820211 0
0.9773855403394873 0.1079847702627047 0
1.0 0.09375 1
0.9269501446994177 0.10337790588238494 0
0.9202733736881425 0.12817108147782644 0
0.9425900112163811 0.13830636021477946 0
1.0 0.15625 1
0.9709837060287164 0.14827417119837963 0
0.9801770780381247 0.17159738941993863 0
0.8108047694633952 0.41453071597951124 0
0.39614413367069806 0.46799924197246584 0
0.4225286375452042 0.46637383629831813 0
0.4106330402791704 0.44197505479135896 0
0.40614291694931265 0.41799275143060016 0
0.4100888303529713 0.49082086210519105 0
0.43884322901308853 0.7142667714697615 0
0.27238355083988003 0.7255695436553499 0
0.09790429184279256 0.7223670148461797 0
0.3713270695087405 0.7788809269223976 0
0.40433177755610367 0.7580546483157683 0
0.4210438551602883 0.7412638108148034 0
0.53125 1.0 1
1.0 0.53125 1
0.9688239975263975 0.859976193473118 0
0.9491474685887427 0.8475086146593849 0
1.0 0.9375 1
0.9657325245189688 0.9062499999999996 0
0.9550733553729824 0.8822977080921773 0
0.940462676257475 0.9031476037602754 0
0.9375 1.0 1
0.947311441409024 0.9518286164244216 0
0.950412449475741 0.926570075203858 0
0.9729745863587681 0.9421596709310459 0
0.96875 1.0 1
0.9691710929689907 0.9709563122862174 0
1.0 0.96875 1
0.9450610763902708 0.9764551452153667 0
0.9005343200535616 0.9599702199622199 0
0.90625 1.0 1
0.8906250000000021 0.9818080777933021 0
0.856181425717808 0.9530114927297747 0
0.919279077286601 0.9777166854654887 0
0.8287631801459856 0.9713207640140562 0
0.84375 1.0 1
0.8593750000000031 0.9789950966538734 0
0.8830213823604454 0.9267670094327978 0
0.8430121567574909 0.9126967079428305 0
0.860406670957979 0.8886200493181241 0
0.8660746398245136 0.9110367343220754 0
0.8369114195282131 0.9369979168737381 0
0.8141857613701258 0.898182719823006 0
0.7876067406655513 0.9158859133484814 0
0.8065944423063974 0.8769246873144476 0
0.8793916811688538 0.9499016643838402 0
0.9091108335230945 0.9342263831332266 0
0.88990934609984 0.8963506887685097 0
0.9122050267765505 0.8809169747758137 0
0.9076323580851254 0.8498157845056195 0
0.87907796599331 0.8363620817914135 0
0.8887855660825749 0.8165564418728548 0
1.0 0.90625 1
0.9828662622594878 0.9214796682367306 0
0.7525897876981968 0.8080955030292142 0
0.7312822301938382 0.7979356206194413 0
0.78125 1.0 1
0.7706222360062974 0.969515810137493 0
0.799589951572702 0.973728266463062 0
0.7875039800354534 0.9497564958761093 0
0.7980265988499099 0.6971790460540341 0
0.7898443360429888 0.7543250082117099 0
0.5388169444676513 0.659121504236922 0
0.5243072073444927 0.5510024520396426 0
0.5911414176059704 0.15493591543446933 0
1.0 0.28125 1
0.9814757224311611 0.29522736515164405 0

Edges
129
1 1275 1
1 1276 1
2 1298 1
2 1299 1
3 1334 1
3 1336 1
4 682 1
4 685 1
5 943 1
5 948 1
6 1238 1
6 1323 1
7 273 1
7 1322 1
9 480 1
9 1100 1
10 415 1
10 467 1
11 351 1
11 357 1
83 146 1
83 1365 1
99 198 1
99 229 1
126 143 1
126 259 1
137 143 1
137 146 1
148 1339 1
148 1344 1
150 1344 1
150 1365 1
174 188 1
174 193 1
186 188 1
186 198 1
192 193 1
192 1323 1
220 235 1
220 1361 1
222 229 1
222 235 1
255 259 1
255 1322 1
270 274 1
270 276 1
272 273 1
272 274 1
275 276 1
275 351 1
353 358 1
353 372 1
355 357 1
355 358 1
365 372 1
365 685 1
374 418 1
374 679 1
384 679 1
384 682 1
402 415 1
402 418 1
410 465 1
410 481 1
411 465 1
411 467 1
474 480 1
474 481 1
484 1111 1
484 1281 1
486 1095 1
486 1114 1
727 773 1
727 1374 1
739 810 1
739 1269 1
744 1223 1
744 1235 1
764 1303 1
764 1307 1
766 773 1
766 1307 1
775 790 1
775 1291 1
783 790 1
783 810 1
872 1187 1
872 1196 1
884 951 1
884 959 1
885 896 1
885 905 1
894 896 1
894 943 1
903 905 1
903 951 1
947 948 1
947 1187 1
955 1134 1
955 1142 1
957 959 1
957 1134 1
984 1126 1
984 1273 1
993 1126 1
993 1281 1
1093 1100 1
1093 1103 1
1095 1103 1
1110 1111 1
1110 1114 1
1120 1273 1
1120 1276 1
1138 1142 1
1138 1275 1
1193 1196 1
1193 1269 1
1212 1223 1
1212 1374 1
1228 1235 1
1228 1238 1
1289 1291 1
1289 1298 1
1294 1299 1
1294 1303 1
1326 1336 1
1326 1361 1
1330 1334 1
1330 1339 1

Triangles
2619
1 1275 1277 0
3 1334 1335 0
5 948 949 0
7 273 688 0
8 507 538 0
8 512 513 0
9 1100 1104 0
10 414 420 0
10 467 468 0
11 356 368 0
12 561 587 0
12 587 1320 0
13 100 110 0
13 110 695 0
14 54 614 0
14 609 610 0
15 548 593 0
16 316 571 0
16 338 339 0
16 571 574 0
16 574 1371 0
17 27 72 0
18 721 821 0
19 40 43 0
19 43 699 0
19 699 702 0
19 702 704 0
19 704 705 0
20 213 215 0
20 215 715 0
20 713 1260 0
21 708 730 0
21 730 1310 0
21 731 1257 0
21 1257 1262 0
21 1262 1263 0
22 30 31 0
22 31 45 0
22 45 710 0
22 709 716 0
23 28 29 0
23 29 117 0
23 78 79 0
24 29 714 0
24 712 713 0
25 27 33 0
26 27 28 0
26 28 79 0
26 79 111 0
27 17 33 0
27 25 28 0
27 26 72 0
28 23 79 0
28 25 29 0
29 24 117 0
29 25 30 0
29 30 714 0
30 22 712 0
30 25 31 0
30 712 714 0
31 25 32 0
31 32 37 0
31 37 45 0
32 25 33 0
32 33 36 0
32 36 37 0
33 17 36 0
34 37 46 0
34 46 47 0
35 36 61 0
36 17 61 0
36 35 46 0
37 34 39 0
37 36 46 0
37 39 45 0
38 39 40 0
38 40 705 0
38 705 710 0
39 34 40 0
39 38 45 0
40 19 705 0
40 34 44 0
41 48 609 0
41 608 1157 0
41 1157 1158 0
41 1158 1159 0
42 43 44 0
42 44 47 0
42 47 696 0
42 48 697 0
42 697 1159 0
43 40 44 0
43 42 1159 0
44 34 47 0
45 38 710 0
46 35 51 0
47 46 51 0
47 51 62 0
47 62 696 0
48 41 697 0
48 42 696 0
49 54 610 0
49 610 696 0
50 51 61 0
50 57 62 0
51 35 61 0
51 50 62 0
52 53 58 0
52 58 582 0
52 582 589 0
52 589 1372 0
53 52 1372 0
53 54 62 0
53 57 58 0
54 14 610 0
54 49 62 0
54 53 1372 0
55 588 599 0
55 599 613 0
55 613 614 0
55 614 1372 0
56 57 82 0
56 64 65 0
57 50 60 0
57 53 62 0
57 56 58 0
57 60 82 0
58 56 59 0
58 59 582 0
59 56 65 0
59 65 1371 0
59 573 581 0
59 581 582 0
60 50 61 0
60 61 71 0
60 67 82 0
61 17 71 0
62 49 696 0
63 64 68 0
63 68 70 0
63 70 81 0
63 81 341 0
63 341 342 0
64 56 82 0
64 63 342 0
64 67 68 0
65 64 342 0
65 342 1371 0
66 67 71 0
66 71 72 0
66 72 73 0
67 60 71 0
67 64 82 0
67 66 68 0
68 66 70 0
69 74 75 0
69 75 88 0
69 88 96 0
70 66 73 0
70 73 74 0
70 74 81 0
71 17 72 0
72 26 73 0
73 26 77 0
73 77 694 0
74 69 81 0
74 73 694 0
75 74 694 0
75 694 695 0
76 77 111 0
76 109 695 0
77 26 111 0
77 76 694 0
78 23 112 0
78 109 111 0
79 78 111 0
80 81 95 0
80 95 337 0
80 337 341 0
81 69 95 0
81 80 341 0
83 146 147 0
83 147 1366 0
84 124 127 0
84 127 134 0
85 93 131 0
85 131 244 0
86 89 101 0
86 101 692 0
86 692 693 0
87 88 110 0
87 100 101 0
88 75 110 0
88 87 89 0
88 89 90 0
88 90 96 0
89 86 92 0
89 87 101 0
90 89 92 0
90 92 93 0
90 93 97 0
91 92 693 0
91 128 131 0
92 86 693 0
92 91 93 0
93 85 97 0
93 91 131 0
94 95 96 0
94 96 97 0
94 97 243 0
94 243 336 0
94 336 337 0
95 69 96 0
95 94 337 0
96 90 97 0
97 85 243 0
98 100 105 0
98 105 1370 0
98 106 164 0
98 163 1363 0
98 1363 1364 0
99 229 230 0
99 230 231 0
100 13 104 0
100 87 110 0
100 98 1364 0
100 104 105 0
101 100 1364 0
102 240 691 0
102 691 692 0
102 692 1364 0
103 104 108 0
103 107 1369 0
103 178 1370 0
104 13 108 0
104 103 1370 0
105 104 1370 0
106 98 1370 0
107 103 108 0
107 108 109 0
107 109 112 0
107 112 116 0
107 116 1369 0
108 13 695 0
109 76 111 0
109 78 112 0
109 108 695 0
110 75 695 0
112 23 115 0
112 115 116 0
113 116 204 0
113 180 1369 0
113 200 201 0
114 115 117 0
114 117 120 0
114 120 205 0
115 23 117 0
115 114 116 0
116 113 1369 0
116 114 204 0
117 24 119 0
117 119 120 0
118 119 715 0
118 202 205 0
119 24 713 0
119 118 120 0
119 713 715 0
120 118 205 0
121 124 128 0
121 128 693 0
122 123 157 0
122 125 127 0
123 122 124 0
123 124 691 0
123 156 157 0
124 84 128 0
124 121 691 0
124 122 127 0
125 122 139 0
125 139 241 0
126 259 260 0
127 125 134 0
128 84 130 0
128 91 693 0
128 130 131 0
129 130 133 0
129 133 258 0
130 84 133 0
130 129 131 0
131 129 244 0
132 133 134 0
132 134 136 0
132 136 254 0
132 253 258 0
133 84 134 0
133 132 258 0
134 125 241 0
135 136 141 0
135 141 144 0
135 144 260 0
136 134 141 0
136 135 254 0
137 142 145 0
138 139 153 0
139 122 153 0
139 138 140 0
139 140 241 0
140 138 145 0
140 141 241 0
141 134 241 0
141 140 142 0
141 142 144 0
142 140 145 0
142 143 144 0
143 126 144 0
143 142 137 0
144 126 260 0
145 138 147 0
145 146 137 0
146 145 147 0
147 138 152 0
147 152 1366 0
148 1344 1345 0
149 1343 1367 0
149 1367 1368 0
150 1365 1367 0
151 152 153 0
151 153 155 0
151 155 1352 0
151 1352 1368 0
152 138 153 0
152 151 1366 0
153 122 155 0
154 155 156 0
154 156 159 0
154 159 1353 0
154 1351 1352 0
155 122 157 0
155 154 1352 0
156 123 240 0
156 155 157 0
158 159 163 0
158 163 164 0
158 164 166 0
159 156 240 0
159 158 161 0
159 161 1353 0
160 161 162 0
160 162 233 0
160 233 1348 0
160 1347 1351 0
160 1351 1353 0
161 158 166 0
161 160 1353 0
162 161 166 0
162 166 206 0
162 206 1359 0
163 98 164 0
163 159 240 0
163 240 1363 0
164 106 165 0
164 165 166 0
165 106 169 0
165 169 171 0
165 171 206 0
166 165 206 0
167 172 218 0
167 218 219 0
167 219 223 0
167 223 224 0
167 224 234 0
168 169 179 0
169 106 178 0
169 168 171 0
169 178 179 0
170 171 172 0
170 172 234 0
170 234 1360 0
171 168 172 0
171 170 206 0
172 167 234 0
172 168 176 0
172 176 218 0
173 183 185 0
173 185 187 0
173 187 216 0
173 199 217 0
174 188 197 0
174 189 239 0
175 176 177 0
175 177 182 0
175 182 183 0
175 183 217 0
175 217 218 0
176 168 177 0
176 175 218 0
177 168 179 0
177 179 180 0
177 180 201 0
178 103 180 0
178 106 1370 0
179 178 180 0
180 103 1369 0
180 113 201 0
181 182 200 0
181 184 185 0
181 200 203 0
181 203 207 0
181 207 208 0
182 177 201 0
182 181 183 0
183 173 217 0
183 181 185 0
184 181 208 0
185 184 187 0
186 187 197 0
186 198 216 0
187 184 189 0
187 186 216 0
187 189 197 0
188 186 197 0
189 174 197 0
189 184 196 0
189 196 239 0
190 210 1268 0
190 1246 1247 0
191 196 208 0
191 207 210 0
191 210 238 0
191 238 239 0
192 193 195 0
192 195 237 0
193 174 239 0
194 195 239 0
194 238 1247 0
195 193 239 0
195 194 237 0
196 184 208 0
196 191 239 0
198 99 231 0
198 199 216 0
199 173 216 0
199 198 231 0
200 113 204 0
200 182 201 0
202 118 209 0
202 203 204 0
202 204 205 0
203 200 204 0
203 202 207 0
204 114 205 0
206 170 1360 0
207 191 208 0
207 202 209 0
207 209 210 0
209 118 215 0
210 190 238 0
210 209 212 0
210 212 1268 0
211 212 213 0
211 213 1251 0
211 1249 1268 0
212 209 215 0
212 211 1268 0
213 20 214 0
213 212 215 0
213 214 1251 0
214 20 1260 0
214 1250 1251 0
215 118 715 0
217 199 219 0
218 217 219 0
219 199 231 0
220 1327 1328 0
221 223 228 0
221 228 236 0
221 236 1324 0
221 1324 1325 0
222 235 236 0
223 219 230 0
223 221 225 0
224 223 225 0
224 225 1358 0
224 1358 1360 0
225 221 1325 0
225 1325 1358 0
226 1329 1332 0
226 1332 1355 0
226 1346 1356 0
226 1356 1357 0
227 1324 1328 0
227 1328 1329 0
227 1329 1357 0
227 1357 1358 0
228 222 236 0
228 223 230 0
228 229 222 0
229 228 230 0
230 219 231 0
232 233 1359 0
233 162 1359 0
233 232 1348 0
234 224 1360 0
235 220 1324 0
236 235 1324 0
237 194 1246 0
237 1242 1248 0
237 1323 192 0
238 190 1247 0
238 194 239 0
240 102 1363 0
240 123 691 0
242 245 248 0
242 248 249 0
242 249 317 0
242 308 314 0
242 314 335 0
243 85 244 0
243 244 245 0
243 245 335 0
243 314 336 0
244 129 251 0
245 242 335 0
245 244 251 0
246 252 266 0
246 266 349 0
246 343 344 0
247 248 690 0
247 252 344 0
247 344 345 0
248 245 250 0
248 247 345 0
248 250 690 0
249 248 345 0
249 302 317 0
250 245 251 0
250 251 258 0
250 253 690 0
251 129 258 0
252 246 344 0
252 247 690 0
252 253 263 0
252 262 266 0
253 132 254 0
253 250 258 0
253 252 690 0
253 254 263 0
254 135 257 0
254 257 263 0
255 264 265 0
256 257 260 0
256 260 261 0
256 261 265 0
257 135 260 0
257 256 262 0
257 262 263 0
259 255 261 0
260 259 261 0
261 255 265 0
262 252 263 0
262 256 265 0
262 265 689 0
264 268 689 0
265 264 689 0
266 262 689 0
266 267 349 0
267 266 689 0
267 268 348 0
267 348 349 0
268 7 688 0
268 267 689 0
268 277 348 0
268 1322 7 0
269 276 280 0
269 280 290 0
269 289 295 0
270 269 295 0
271 273 272 0
271 274 289 0
271 289 294 0
273 271 277 0
273 277 688 0
274 270 295 0
274 271 272 0
276 269 270 0
276 275 279 0
276 279 280 0
277 268 688 0
277 271 294 0
277 294 348 0
278 279 287 0
278 287 288 0
279 275 287 0
279 278 280 0
280 278 283 0
280 283 290 0
281 292 328 0
281 299 347 0
282 283 333 0
283 278 285 0
283 282 290 0
283 285 333 0
284 285 288 0
284 288 655 0
284 332 333 0
285 278 288 0
285 284 333 0
286 287 350 0
286 350 371 0
286 371 654 0
286 654 655 0
287 286 288 0
288 286 655 0
289 269 290 0
289 274 295 0
289 290 293 0
289 293 294 0
290 282 292 0
290 292 293 0
291 292 347 0
292 281 347 0
292 282 328 0
292 291 293 0
293 291 294 0
294 291 296 0
294 296 348 0
296 291 346 0
296 346 349 0
297 299 331 0
297 331 343 0
297 343 346 0
297 346 347 0
298 299 329 0
299 281 320 0
299 297 347 0
299 298 301 0
299 301 331 0
299 320 329 0
300 301 330 0
300 330 345 0
301 298 302 0
301 300 331 0
301 302 330 0
302 249 330 0
302 298 304 0
302 304 307 0
302 307 317 0
303 304 321 0
303 318 1320 0
303 1320 1321 0
304 298 321 0
304 303 306 0
304 306 307 0
305 306 334 0
306 303 310 0
306 305 307 0
306 310 334 0
307 305 308 0
307 308 317 0
308 242 317 0
308 305 313 0
308 313 314 0
309 310 1316 0
309 315 334 0
309 570 571 0
310 303 1321 0
310 309 334 0
311 566 585 0
311 576 1316 0
311 1316 1321 0
312 313 315 0
312 315 316 0
312 316 339 0
312 339 340 0
313 305 315 0
313 312 314 0
314 243 335 0
314 312 340 0
315 305 334 0
315 309 571 0
316 16 339 0
316 315 571 0
318 303 321 0
318 321 322 0
318 322 324 0
318 324 1319 0
318 1319 1320 0
319 320 327 0
319 322 329 0
320 281 327 0
320 319 329 0
321 298 329 0
322 319 324 0
322 321 329 0
323 324 326 0
323 326 640 0
323 638 1319 0
324 319 326 0
324 323 1319 0
325 326 327 0
325 327 332 0
325 332 652 0
326 319 327 0
326 325 640 0
327 281 328 0
327 328 333 0
328 282 333 0
330 249 345 0
331 300 343 0
332 284 652 0
332 327 333 0
336 314 340 0
337 336 340 0
337 338 341 0
338 16 342 0
338 337 340 0
339 338 340 0
341 338 342 0
342 16 1371 0
343 246 349 0
343 300 344 0
344 300 345 0
346 291 347 0
346 343 349 0
348 296 349 0
350 11 368 0
350 351 11 0
350 368 371 0
351 287 275 0
351 350 287 0
352 377 381 0
352 380 400 0
354 358 361 0
354 361 370 0
355 354 356 0
356 354 367 0
356 357 355 0
356 367 368 0
357 356 11 0
358 353 360 0
358 354 355 0
358 360 361 0
359 360 364 0
359 364 375 0
359 375 376 0
360 353 364 0
360 359 361 0
361 359 363 0
361 363 370 0
362 369 403 0
362 390 658 0
362 658 659 0
363 359 376 0
363 369 370 0
363 376 403 0
364 372 686 0
365 684 686 0
366 367 369 0
366 369 659 0
367 354 370 0
367 366 371 0
368 367 371 0
369 362 659 0
369 363 403 0
369 367 370 0
371 366 654 0
372 364 353 0
372 365 686 0
373 375 383 0
374 418 419 0
374 419 678 0
375 364 383 0
375 373 376 0
376 373 377 0
376 377 378 0
376 378 403 0
377 352 378 0
377 373 381 0
378 352 391 0
378 390 403 0
379 389 394 0
379 394 396 0
379 395 647 0
379 646 648 0
380 352 381 0
380 381 382 0
380 382 388 0
380 388 404 0
381 373 382 0
382 373 383 0
382 383 386 0
382 386 678 0
383 364 686 0
384 679 680 0
384 680 687 0
385 386 683 0
385 683 687 0
386 383 683 0
386 385 678 0
387 388 678 0
387 401 404 0
388 382 678 0
388 387 404 0
389 379 648 0
389 390 391 0
389 391 394 0
389 648 658 0
390 362 403 0
390 378 391 0
390 389 658 0
391 352 393 0
391 393 394 0
392 393 676 0
392 676 677 0
393 352 399 0
393 392 394 0
393 399 676 0
394 392 396 0
395 379 396 0
395 396 426 0
395 425 429 0
395 429 431 0
395 430 647 0
396 392 677 0
397 421 424 0
397 424 425 0
397 425 426 0
397 426 677 0
398 399 400 0
398 400 401 0
398 401 406 0
398 406 408 0
398 407 676 0
399 352 400 0
399 398 676 0
400 380 404 0
401 387 419 0
401 400 404 0
402 415 416 0
402 416 417 0
405 406 416 0
405 416 420 0
406 401 416 0
406 405 408 0
407 398 408 0
407 408 409 0
407 409 421 0
407 421 677 0
408 405 409 0
409 405 413 0
409 413 462 0
409 462 1318 0
411 465 466 0
411 466 469 0
412 413 414 0
412 414 468 0
412 460 462 0
412 468 469 0
413 405 414 0
413 412 462 0
414 10 468 0
414 405 420 0
415 10 420 0
416 401 417 0
416 415 420 0
417 401 419 0
417 418 402 0
418 417 419 0
419 387 678 0
421 397 677 0
421 409 1318 0
422 437 438 0
422 438 459 0
423 424 1318 0
423 435 436 0
424 421 1318 0
424 423 436 0
425 395 426 0
425 424 436 0
426 396 677 0
427 665 1317 0
428 429 672 0
428 669 671 0
429 425 434 0
429 428 431 0
429 434 672 0
430 395 431 0
430 431 432 0
430 432 649 0
430 644 647 0
431 428 432 0
432 428 671 0
432 671 1317 0
433 434 435 0
433 435 437 0
433 437 450 0
433 450 672 0
434 425 436 0
434 433 672 0
435 423 438 0
435 434 436 0
437 422 447 0
437 435 438 0
437 447 450 0
438 423 440 0
438 440 459 0
439 440 463 0
439 463 472 0
440 423 461 0
440 439 441 0
440 441 459 0
440 461 463 0
441 439 457 0
441 456 459 0
441 457 458 0
442 443 473 0
442 473 475 0
442 475 477 0
442 477 522 0
443 442 490 0
443 457 470 0
443 470 473 0
444 451 523 0
444 491 519 0
444 519 520 0
444 520 521 0
445 451 452 0
445 452 456 0
445 456 458 0
445 458 491 0
445 491 523 0
446 447 451 0
446 451 454 0
446 454 455 0
446 455 524 0
447 422 452 0
447 446 449 0
447 449 450 0
448 449 524 0
448 524 670 0
448 669 672 0
449 446 524 0
449 448 450 0
450 448 672 0
451 444 521 0
451 445 523 0
451 447 452 0
452 422 456 0
453 454 521 0
453 498 510 0
453 510 511 0
454 451 521 0
454 453 455 0
455 453 511 0
455 511 527 0
455 527 547 0
456 422 459 0
456 441 458 0
457 439 472 0
457 443 458 0
458 443 490 0
458 490 491 0
460 412 469 0
460 461 462 0
461 423 1318 0
461 460 463 0
462 461 1318 0
463 460 464 0
463 464 472 0
464 460 466 0
464 465 471 0
464 471 472 0
465 410 471 0
465 464 466 0
466 460 469 0
467 411 469 0
468 467 469 0
470 457 472 0
470 481 482 0
471 470 472 0
471 481 470 0
473 470 482 0
474 475 482 0
475 473 482 0
475 480 479 0
476 477 479 0
476 479 1104 0
477 475 479 0
477 476 478 0
477 478 522 0
478 476 488 0
478 488 494 0
478 494 522 0
479 9 1104 0
479 480 9 0
480 475 474 0
481 471 410 0
481 474 482 0
483 1070 1078 0
483 1078 1083 0
483 1083 1091 0
483 1091 1285 0
484 1281 1283 0
484 1283 1284 0
485 518 1106 0
485 1087 1088 0
485 1106 1107 0
486 1114 1115 0
487 488 1099 0
487 1099 1105 0
487 1105 1106 0
488 476 1099 0
488 487 493 0
488 493 494 0
489 490 522 0
489 494 519 0
490 442 522 0
490 489 491 0
491 444 523 0
491 489 519 0
492 494 497 0
492 497 514 0
492 514 520 0
493 487 516 0
493 516 517 0
494 489 522 0
494 492 519 0
494 493 497 0
495 496 1286 0
496 495 499 0
496 497 517 0
496 499 514 0
496 517 1286 0
497 493 517 0
497 496 514 0
498 453 521 0
498 499 500 0
498 500 510 0
499 495 502 0
499 498 514 0
500 499 502 0
500 502 509 0
500 509 513 0
501 502 508 0
501 507 509 0
501 508 1056 0
502 495 508 0
502 501 509 0
503 1058 1065 0
503 1065 1069 0
503 1069 1075 0
504 508 1068 0
504 1055 1056 0
505 543 1057 0
506 507 1056 0
506 537 538 0
506 1056 1057 0
507 8 509 0
507 501 1056 0
507 506 538 0
508 495 1068 0
508 504 1056 0
509 8 513 0
510 500 513 0
511 510 512 0
511 512 527 0
512 8 536 0
512 510 513 0
514 498 520 0
515 516 518 0
515 518 1088 0
515 1088 1089 0
515 1089 1286 0
516 487 1106 0
516 515 517 0
517 515 1286 0
518 485 1088 0
518 516 1106 0
519 492 520 0
520 498 521 0
524 455 547 0
524 547 674 0
525 528 531 0
525 531 562 0
525 557 675 0
526 527 528 0
526 528 675 0
526 673 674 0
527 512 534 0
527 526 547 0
528 525 675 0
528 527 534 0
529 535 539 0
529 539 542 0
529 542 634 0
530 531 533 0
530 533 535 0
530 535 544 0
530 544 546 0
531 528 533 0
531 530 532 0
531 532 562 0
532 530 546 0
532 546 548 0
532 548 550 0
532 550 558 0
532 558 562 0
533 528 534 0
533 534 536 0
534 512 536 0
535 529 544 0
535 533 536 0
535 536 537 0
535 537 539 0
536 8 538 0
537 506 543 0
537 536 538 0
539 537 540 0
539 540 542 0
540 537 543 0
540 543 626 0
540 626 627 0
541 542 627 0
541 627 1311 0
542 540 627 0
542 541 634 0
543 505 626 0
543 506 1057 0
544 529 545 0
544 545 546 0
545 529 595 0
546 545 548 0
547 526 674 0
548 15 550 0
548 545 593 0
549 550 551 0
549 551 553 0
549 553 556 0
549 556 558 0
550 15 551 0
550 549 558 0
551 15 583 0
552 553 565 0
552 565 566 0
552 566 586 0
553 551 564 0
553 552 555 0
553 555 556 0
553 564 565 0
554 555 560 0
554 559 666 0
554 666 673 0
555 552 560 0
555 554 556 0
556 554 557 0
556 557 558 0
557 525 558 0
557 554 673 0
557 673 675 0
558 525 562 0
559 554 560 0
559 560 664 0
559 664 665 0
559 665 666 0
560 552 586 0
560 586 664 0
561 12 637 0
561 586 587 0
561 637 663 0
561 663 664 0
563 564 575 0
563 569 576 0
563 576 585 0
564 551 568 0
564 563 565 0
564 568 575 0
565 563 585 0
566 311 587 0
566 565 585 0
567 568 579 0
567 579 584 0
568 551 583 0
568 567 569 0
568 569 575 0
569 563 575 0
569 567 572 0
569 572 577 0
570 309 577 0
570 572 573 0
570 573 574 0
571 570 574 0
572 567 584 0
572 570 577 0
573 59 1371 0
573 572 584 0
574 573 1371 0
576 311 585 0
576 569 577 0
576 577 1316 0
577 309 1316 0
578 579 583 0
578 583 592 0
578 592 603 0
579 568 583 0
579 578 580 0
579 580 584 0
580 578 588 0
580 581 584 0
580 588 589 0
581 573 584 0
581 580 582 0
582 580 589 0
583 15 592 0
586 561 664 0
586 566 587 0
587 311 1321 0
588 55 589 0
588 578 603 0
589 55 1372 0
590 597 1315 0
591 592 596 0
591 596 597 0
591 597 598 0
591 598 599 0
591 599 603 0
592 15 593 0
592 591 603 0
592 593 596 0
593 545 595 0
593 595 596 0
594 595 634 0
594 634 1311 0
594 1311 1315 0
595 529 634 0
595 594 596 0
596 594 1315 0
597 590 598 0
597 596 1315 0
598 590 602 0
598 602 604 0
598 604 613 0
599 588 603 0
599 598 613 0
600 601 617 0
600 607 611 0
600 617 1156 0
601 600 611 0
601 602 633 0
602 590 633 0
602 601 604 0
604 601 611 0
604 611 612 0
604 612 614 0
605 607 608 0
605 608 609 0
605 609 612 0
606 607 853 0
606 849 1157 0
606 853 857 0
607 600 853 0
607 605 611 0
607 606 608 0
608 41 609 0
608 606 1157 0
609 14 612 0
609 48 610 0
610 48 696 0
611 605 612 0
612 14 614 0
613 604 614 0
614 54 1372 0
615 622 623 0
615 623 1314 0
615 628 1041 0
616 617 633 0
616 633 1312 0
616 1312 1313 0
617 601 633 0
617 616 618 0
617 618 1156 0
618 616 623 0
618 622 859 0
618 859 1156 0
619 870 1151 0
619 1150 1152 0
620 861 1040 0
620 1040 1046 0
620 1046 1047 0
620 1047 1048 0
621 622 1038 0
621 1037 1040 0
622 615 1038 0
622 618 623 0
622 621 859 0
623 616 1313 0
623 1313 1314 0
624 627 632 0
624 632 1314 0
625 626 630 0
625 630 631 0
625 631 632 0
626 505 630 0
626 625 627 0
627 624 1311 0
627 625 632 0
628 615 1314 0
628 631 1028 0
628 1028 1041 0
629 630 1053 0
629 1027 1028 0
630 505 1053 0
630 629 631 0
631 628 632 0
631 629 1028 0
632 628 1314 0
633 590 1312 0
634 541 1311 0
635 662 1317 0
636 637 638 0
636 638 639 0
636 639 661 0
636 641 662 0
636 662 663 0
637 12 1319 0
637 636 663 0
638 323 639 0
638 637 1319 0
639 323 640 0
639 640 651 0
639 643 661 0
640 325 651 0
641 636 661 0
641 643 644 0
641 644 649 0
641 649 662 0
642 645 660 0
642 653 656 0
642 656 657 0
643 639 651 0
643 641 661 0
643 651 660 0
644 430 649 0
644 643 645 0
644 645 646 0
644 646 647 0
645 642 646 0
645 643 660 0
646 379 647 0
646 642 657 0
648 646 657 0
648 657 658 0
649 432 662 0
650 651 652 0
650 652 653 0
650 653 660 0
651 325 652 0
651 650 660 0
652 284 653 0
653 284 655 0
653 642 660 0
653 654 656 0
654 366 659 0
654 653 655 0
656 654 659 0
657 656 658 0
658 656 659 0
662 432 1317 0
662 635 663 0
663 635 664 0
664 635 665 0
665 427 666 0
665 635 1317 0
666 427 668 0
666 668 673 0
667 668 669 0
667 669 670 0
667 670 674 0
668 427 671 0
668 667 673 0
669 428 672 0
669 448 670 0
669 668 671 0
670 524 674 0
671 427 1317 0
673 526 675 0
673 667 674 0
676 407 677 0
678 385 680 0
678 679 374 0
679 678 680 0
680 385 687 0
681 682 687 0
681 683 684 0
681 685 4 0
682 384 687 0
682 681 4 0
683 383 686 0
683 681 687 0
684 683 686 0
685 681 684 0
685 684 365 0
691 121 692 0
692 101 1364 0
692 121 693 0
694 76 695 0
697 41 1159 0
698 699 1158 0
698 848 850 0
698 850 1233 0
698 1158 1160 0
699 43 1159 0
699 698 1233 0
700 701 719 0
700 719 722 0
700 722 723 0
700 723 725 0
701 700 706 0
701 702 1233 0
701 718 719 0
702 699 1233 0
702 701 706 0
703 704 706 0
703 706 707 0
703 707 708 0
703 708 1263 0
703 709 710 0
704 702 706 0
704 703 705 0
705 703 710 0
706 700 725 0
707 706 725 0
707 723 728 0
707 728 730 0
708 21 1263 0
708 707 730 0
709 22 710 0
709 703 1263 0
711 712 716 0
711 716 1261 0
711 1259 1260 0
712 22 716 0
712 24 714 0
712 711 713 0
713 20 715 0
713 711 1260 0
716 709 1261 0
717 720 847 0
717 830 831 0
717 831 832 0
718 701 850 0
718 846 847 0
719 718 720 0
719 720 722 0
720 717 832 0
720 718 847 0
720 721 722 0
721 18 724 0
721 720 832 0
722 721 724 0
723 707 725 0
723 722 724 0
723 724 729 0
724 18 729 0
726 728 734 0
726 734 747 0
726 747 750 0
726 750 1266 0
726 1266 1310 0
728 723 729 0
728 726 1310 0
728 729 734 0
729 18 733 0
729 733 734 0
730 728 1310 0
731 21 1310 0
731 1256 1257 0
731 1266 1267 0
732 733 736 0
732 736 737 0
732 737 742 0
732 742 746 0
732 746 747 0
733 18 736 0
733 732 734 0
734 732 747 0
735 737 822 0
736 18 821 0
736 821 822 0
737 735 753 0
737 736 822 0
737 753 754 0
738 761 799 0
739 810 1208 0
739 1208 1270 0
740 752 753 0
740 753 757 0
740 757 760 0
740 760 761 0
740 761 812 0
741 742 752 0
741 752 813 0
741 813 1225 0
742 737 754 0
742 741 751 0
743 745 1226 0
743 1226 1230 0
745 743 748 0
745 746 751 0
745 751 1214 0
745 1214 1226 0
746 742 751 0
746 745 748 0
747 746 748 0
747 748 750 0
748 743 749 0
748 749 750 0
749 743 1211 0
749 1211 1265 0
749 1265 1266 0
750 749 1266 0
751 741 1214 0
752 740 812 0
752 742 754 0
752 812 813 0
753 735 814 0
753 752 754 0
755 827 1203 0
755 1202 1205 0
755 1205 1287 0
756 757 814 0
756 814 829 0
756 829 1287 0
757 753 814 0
757 756 759 0
757 759 760 0
758 759 1207 0
758 798 799 0
759 756 1287 0
759 758 760 0
759 1205 1207 0
760 758 761 0
761 738 763 0
761 758 799 0
761 763 812 0
762 770 1216 0
763 738 767 0
763 767 770 0
763 770 774 0
763 774 812 0
764 1307 1308 0
765 767 778 0
765 778 1306 0
765 1306 1308 0
765 1308 1309 0
766 771 1309 0
767 738 777 0
767 765 769 0
767 769 770 0
767 777 778 0
768 769 771 0
768 771 772 0
768 772 1218 0
769 765 771 0
769 768 770 0
770 762 774 0
770 768 1216 0
771 765 1309 0
771 773 772 0
772 727 1218 0
772 773 727 0
773 771 766 0
774 762 812 0
775 789 811 0
775 1290 1292 0
776 777 782 0
776 782 787 0
776 787 1288 0
776 1288 1304 0
776 1304 1305 0
777 738 781 0
777 776 1305 0
777 781 782 0
778 777 1305 0
778 1305 1306 0
779 1301 1302 0
779 1302 1308 0
780 781 799 0
781 738 799 0
781 780 782 0
782 780 785 0
782 785 787 0
783 790 791 0
783 791 809 0
784 785 795 0
784 791 811 0
785 780 794 0
785 784 788 0
785 794 795 0
786 787 788 0
786 788 789 0
786 789 1292 0
786 1292 1293 0
787 785 788 0
787 786 1288 0
788 784 789 0
789 775 1292 0
789 784 811 0
790 775 811 0
791 784 795 0
791 790 811 0
791 795 809 0
792 795 800 0
792 800 803 0
792 803 1208 0
792 810 809 0
793 794 806 0
794 780 797 0
794 793 795 0
794 797 806 0
795 792 809 0
795 793 800 0
796 797 798 0
796 798 1207 0
797 780 798 0
797 796 806 0
798 758 1207 0
798 780 799 0
800 793 804 0
801 807 826 0
801 826 1173 0
801 1173 1184 0
801 1184 1198 0
801 1198 1199 0
802 803 804 0
802 804 808 0
802 808 1199 0
802 1199 1200 0
803 800 804 0
803 802 1200 0
803 1195 1270 0
804 793 806 0
804 805 808 0
805 804 806 0
805 806 1206 0
806 796 1206 0
807 801 1199 0
807 808 1202 0
807 1202 1203 0
808 805 1202 0
808 807 1199 0
809 810 783 0
810 792 1208 0
812 762 813 0
813 762 1215 0
813 1215 1225 0
814 735 816 0
814 816 829 0
815 819 820 0
815 820 821 0
815 821 832 0
816 735 820 0
816 819 829 0
817 828 833 0
817 833 1161 0
817 1161 1162 0
817 1162 1169 0
818 819 831 0
818 831 833 0
819 815 831 0
819 816 820 0
819 818 823 0
819 823 829 0
820 735 822 0
821 721 832 0
821 820 822 0
823 818 828 0
823 827 1287 0
824 827 828 0
824 828 1169 0
824 1169 1171 0
824 1171 1204 0
825 826 1203 0
825 1171 1174 0
825 1203 1204 0
826 807 1203 0
826 825 1173 0
827 755 1287 0
827 823 828 0
827 824 1204 0
828 817 1169 0
828 818 833 0
829 823 1287 0
830 717 836 0
830 836 1161 0
831 815 832 0
831 830 833 0
833 830 1161 0
834 839 841 0
834 841 866 0
834 866 869 0
834 869 1271 0
835 836 847 0
836 717 847 0
836 835 838 0
836 838 1161 0
837 838 839 0
837 839 1163 0
837 1163 1164 0
838 835 839 0
838 837 1161 0
839 834 1163 0
839 835 842 0
840 845 854 0
840 854 855 0
840 855 1049 0
841 839 842 0
841 842 851 0
841 851 863 0
841 863 866 0
842 835 844 0
842 844 851 0
843 844 846 0
843 846 848 0
843 848 849 0
843 849 856 0
844 835 846 0
844 843 845 0
844 845 851 0
845 840 851 0
845 843 856 0
846 718 850 0
846 835 847 0
848 698 1160 0
848 846 850 0
849 606 857 0
849 848 1160 0
850 701 1233 0
851 840 863 0
852 854 856 0
852 856 857 0
852 857 1154 0
852 1154 1155 0
853 600 1156 0
854 845 856 0
854 852 1155 0
855 854 1155 0
855 860 861 0
855 861 1049 0
856 849 857 0
857 853 1154 0
858 859 860 0
858 860 1155 0
858 1154 1156 0
859 621 860 0
859 858 1156 0
860 621 1040 0
860 855 1155 0
861 620 1048 0
861 860 1040 0
861 1048 1049 0
862 863 1049 0
863 840 1049 0
863 862 865 0
863 865 866 0
864 865 867 0
864 867 1151 0
865 862 867 0
865 864 866 0
866 864 869 0
867 862 1047 0
867 1047 1050 0
867 1050 1150 0
867 1150 1151 0
868 869 945 0
868 877 1168 0
868 1167 1271 0
869 864 870 0
869 868 1271 0
869 870 945 0
870 619 874 0
870 864 1151 0
870 874 877 0
870 877 945 0
871 878 880 0
871 880 881 0
871 881 1181 0
871 1176 1177 0
871 1181 1182 0
872 1196 1197 0
873 876 927 0
873 886 887 0
874 619 929 0
874 876 877 0
875 876 1178 0
875 1178 1373 0
876 873 878 0
876 874 927 0
876 875 877 0
876 878 1178 0
877 868 945 0
877 875 1168 0
878 871 1177 0
878 873 882 0
878 1177 1178 0
879 880 882 0
879 882 887 0
879 887 941 0
879 941 946 0
880 878 882 0
880 879 881 0
881 879 946 0
881 946 949 0
881 949 1189 0
882 873 887 0
883 890 925 0
884 951 1149 0
885 896 898 0
885 898 904 0
886 873 927 0
887 886 889 0
887 889 941 0
888 889 890 0
888 890 893 0
888 893 895 0
888 895 942 0
889 886 890 0
889 888 941 0
890 883 892 0
890 886 925 0
890 892 893 0
891 892 902 0
891 902 936 0
892 883 901 0
892 891 893 0
892 901 902 0
893 891 897 0
893 897 939 0
894 895 939 0
895 893 939 0
895 943 944 0
896 894 939 0
896 897 898 0
897 891 898 0
897 896 939 0
898 891 936 0
899 935 937 0
899 937 972 0
899 967 968 0
900 901 907 0
900 907 908 0
900 908 950 0
901 883 907 0
901 900 902 0
902 900 932 0
902 932 933 0
902 933 936 0
903 904 953 0
904 898 936 0
904 905 885 0
904 933 935 0
904 934 953 0
905 904 903 0
906 907 923 0
906 923 1153 0
907 883 922 0
907 906 908 0
907 922 923 0
908 906 911 0
908 911 914 0
908 914 950 0
909 1011 1013 0
909 1013 1016 0
909 1016 1019 0
909 1019 1024 0
909 1024 1063 0
910 911 919 0
910 919 1018 0
911 906 920 0
911 910 913 0
911 913 914 0
912 913 975 0
912 938 950 0
912 970 971 0
913 910 916 0
913 912 914 0
913 916 975 0
914 912 950 0
915 916 1013 0
915 1002 1003 0
916 910 1016 0
916 915 974 0
916 974 975 0
917 918 1045 0
917 1031 1032 0
917 1032 1117 0
917 1043 1044 0
918 917 1117 0
918 919 920 0
918 920 1153 0
919 911 920 0
919 918 1117 0
919 1017 1018 0
920 906 1153 0
921 922 925 0
921 925 926 0
921 926 928 0
922 883 925 0
922 921 923 0
923 921 924 0
923 924 1153 0
924 921 928 0
924 928 931 0
924 931 1045 0
924 1045 1153 0
925 886 926 0
926 886 927 0
926 927 929 0
927 874 929 0
928 926 929 0
928 929 1152 0
929 619 1152 0
930 931 1152 0
930 1043 1045 0
931 928 1152 0
931 930 1045 0
932 900 950 0
933 904 936 0
933 932 935 0
934 904 935 0
934 935 968 0
934 968 976 0
935 899 968 0
935 932 937 0
937 932 938 0
937 938 972 0
938 912 971 0
938 932 950 0
938 971 972 0
940 941 942 0
940 942 944 0
940 944 949 0
941 888 942 0
941 940 946 0
942 895 944 0
943 5 944 0
943 895 894 0
944 5 949 0
946 940 949 0
947 1187 1188 0
947 1188 1189 0
948 947 1189 0
949 948 1189 0
951 903 953 0
951 952 1149 0
952 951 953 0
952 953 976 0
952 962 1149 0
953 934 976 0
954 1122 1140 0
954 1140 1147 0
955 1134 1136 0
955 1136 1141 0
956 960 963 0
956 963 965 0
956 965 966 0
956 966 1148 0
957 959 960 0
957 960 1135 0
958 959 1149 0
958 962 963 0
959 884 1149 0
959 958 960 0
960 956 1135 0
960 958 963 0
961 962 967 0
961 964 965 0
961 967 973 0
961 973 1005 0
962 952 969 0
962 958 1149 0
962 961 963 0
963 961 965 0
964 961 1005 0
964 979 1132 0
965 964 1132 0
966 965 1132 0
966 1132 1133 0
966 1133 1147 0
966 1147 1148 0
967 899 972 0
967 962 969 0
967 971 973 0
968 967 969 0
968 969 976 0
969 952 976 0
970 912 975 0
970 974 1003 0
970 1003 1005 0
971 967 972 0
971 970 973 0
973 970 1005 0
974 915 1003 0
974 970 975 0
977 979 982 0
977 982 1131 0
977 1131 1133 0
978 979 1004 0
979 964 1004 0
979 977 1132 0
979 978 981 0
979 981 982 0
980 981 987 0
980 987 991 0
980 991 992 0
980 992 996 0
981 978 986 0
981 980 982 0
981 986 987 0
982 980 996 0
982 983 1131 0
983 982 996 0
983 996 1130 0
983 1122 1131 0
984 1125 1128 0
984 1273 1274 0
985 986 999 0
985 999 1007 0
985 1007 1008 0
986 978 998 0
986 985 987 0
986 998 999 0
987 985 1008 0
987 989 991 0
988 989 1082 0
988 1081 1108 0
988 1108 1279 0
988 1279 1280 0
989 987 1008 0
989 988 1118 0
989 990 991 0
989 1008 1082 0
990 989 1118 0
990 1118 1119 0
991 990 992 0
992 990 995 0
992 995 1124 0
992 1123 1130 0
993 1126 1127 0
993 1127 1282 0
994 995 1119 0
994 1119 1282 0
994 1127 1128 0
995 990 1119 0
995 994 1124 0
996 992 1130 0
997 998 1002 0
997 1002 1012 0
997 1011 1014 0
998 978 1002 0
998 997 999 0
999 997 1001 0
999 1001 1009 0
1000 1001 1064 0
1000 1006 1009 0
1000 1061 1073 0
1001 997 1014 0
1001 1000 1009 0
1001 1010 1064 0
1002 915 1012 0
1002 978 1004 0
1003 1002 1004 0
1003 1004 1005 0
1004 964 1005 0
1006 1000 1073 0
1006 1007 1009 0
1006 1073 1285 0
1006 1091 1092 0
1007 999 1009 0
1007 1006 1092 0
1008 1007 1092 0
1010 1001 1014 0
1010 1014 1015 0
1010 1015 1063 0
1010 1062 1064 0
1011 909 1015 0
1011 997 1012 0
1011 1012 1013 0
1012 915 1013 0
1013 916 1016 0
1014 1011 1015 0
1015 909 1063 0
1016 910 1018 0
1016 1018 1019 0
1017 919 1117 0
1018 1017 1019 0
1019 1017 1021 0
1019 1021 1024 0
1020 1021 1033 0
1020 1033 1051 0
1021 1017 1032 0
1021 1020 1023 0
1021 1023 1024 0
1021 1032 1033 0
1022 1023 1029 0
1022 1029 1030 0
1022 1030 1062 0
1022 1062 1063 0
1023 1020 1026 0
1023 1022 1024 0
1023 1026 1029 0
1024 1022 1063 0
1025 1026 1027 0
1025 1027 1053 0
1025 1052 1060 0
1026 1020 1051 0
1026 1025 1029 0
1027 629 1053 0
1027 1026 1028 0
1028 1026 1051 0
1029 1025 1030 0
1030 1025 1060 0
1030 1059 1061 0
1030 1061 1062 0
1031 917 1044 0
1032 1017 1117 0
1032 1031 1033 0
1033 1031 1036 0
1033 1034 1051 0
1034 1033 1036 0
1034 1036 1037 0
1034 1037 1039 0
1034 1039 1041 0
1034 1041 1051 0
1035 1036 1044 0
1035 1042 1046 0
1036 1031 1044 0
1036 1035 1037 0
1037 621 1038 0
1037 1035 1046 0
1037 1038 1039 0
1038 615 1041 0
1039 1038 1041 0
1040 1037 1046 0
1041 1028 1051 0
1042 1035 1044 0
1042 1043 1050 0
1043 917 1045 0
1043 930 1050 0
1043 1042 1044 0
1045 918 1153 0
1046 1042 1047 0
1047 862 1048 0
1047 1042 1050 0
1048 862 1049 0
1050 930 1150 0
1052 1025 1053 0
1052 1053 1054 0
1052 1054 1055 0
1052 1055 1058 0
1052 1058 1060 0
1053 505 1054 0
1054 505 1057 0
1055 504 1065 0
1055 1054 1057 0
1056 1055 1057 0
1058 503 1059 0
1058 1055 1065 0
1058 1059 1060 0
1059 503 1075 0
1059 1030 1060 0
1061 1000 1064 0
1061 1059 1075 0
1061 1071 1073 0
1062 1010 1063 0
1062 1061 1064 0
1065 504 1067 0
1065 1067 1069 0
1066 1067 1089 0
1067 504 1068 0
1067 1066 1069 0
1067 1068 1089 0
1068 495 1286 0
1069 1066 1070 0
1069 1070 1074 0
1069 1074 1075 0
1070 483 1072 0
1070 1066 1077 0
1070 1072 1074 0
1070 1077 1078 0
1071 1061 1075 0
1071 1072 1073 0
1072 483 1285 0
1072 1071 1074 0
1073 1072 1285 0
1074 1071 1075 0
1076 1077 1087 0
1076 1087 1090 0
1077 1066 1087 0
1077 1076 1078 0
1078 1076 1080 0
1078 1080 1083 0
1079 1080 1116 0
1079 1081 1083 0
1080 1076 1085 0
1080 1079 1083 0
1080 1085 1116 0
1081 988 1082 0
1081 1079 1108 0
1081 1082 1091 0
1082 1008 1092 0
1083 1081 1091 0
1084 1085 1086 0
1084 1086 1094 0
1084 1094 1115 0
1084 1113 1116 0
1085 1076 1090 0
1085 1084 1116 0
1086 1085 1090 0
1086 1090 1107 0
1087 485 1090 0
1087 1066 1088 0
1088 1066 1089 0
1089 1068 1286 0
1090 485 1107 0
1091 1006 1285 0
1091 1082 1092 0
1093 1098 1101 0
1094 486 1115 0
1094 1086 1097 0
1094 1095 486 0
1094 1097 1102 0
1095 1094 1102 0
1096 1097 1107 0
1097 1086 1107 0
1097 1096 1098 0
1097 1098 1102 0
1098 1093 1102 0
1098 1096 1105 0
1098 1099 1101 0
1099 476 1104 0
1099 1098 1105 0
1100 1093 1101 0
1100 1101 1104 0
1101 1099 1104 0
1102 1103 1095 0
1103 1102 1093 0
1105 1096 1106 0
1106 1096 1107 0
1108 1079 1112 0
1108 1112 1279 0
1109 1111 1284 0
1109 1112 1113 0
1110 1109 1113 0
1111 484 1284 0
1111 1109 1110 0
1112 1079 1113 0
1112 1109 1279 0
1113 1079 1116 0
1113 1084 1115 0
1113 1114 1110 0
1114 1113 1115 0
1118 988 1280 0
1119 1118 1280 0
1119 1278 1283 0
1120 1144 1272 0
1120 1272 1274 0
1121 1122 1130 0
1121 1123 1129 0
1121 1129 1272 0
1121 1145 1146 0
1122 954 1131 0
1122 983 1130 0
1122 1121 1139 0
1122 1139 1140 0
1123 992 1124 0
1123 1121 1130 0
1123 1124 1125 0
1123 1125 1129 0
1124 994 1128 0
1125 984 1274 0
1125 1124 1128 0
1126 984 1128 0
1127 994 1282 0
1127 1126 1128 0
1129 1125 1274 0
1131 954 1133 0
1132 977 1133 0
1133 954 1147 0
1134 957 1135 0
1134 1135 1136 0
1135 956 1148 0
1136 1135 1148 0
1136 1140 1141 0
1137 1139 1146 0
1138 1142 1143 0
1138 1143 1144 0
1139 1121 1146 0
1139 1137 1140 0
1140 1136 1147 0
1140 1137 1141 0
1141 1137 1143 0
1141 1142 955 0
1142 1141 1143 0
1143 1137 1146 0
1144 1143 1145 0
1144 1145 1272 0
1144 1275 1138 0
1144 1276 1277 0
1145 1121 1272 0
1145 1143 1146 0
1147 1136 1148 0
1150 619 1151 0
1150 930 1152 0
1154 853 1156 0
1154 858 1155 0
1157 849 1160 0
1158 699 1159 0
1158 1157 1160 0
1161 837 1164 0
1162 1161 1164 0
1162 1164 1166 0
1162 1166 1170 0
1163 834 1271 0
1164 1163 1166 0
1165 1166 1167 0
1165 1167 1373 0
1166 1163 1167 0
1166 1165 1170 0
1167 868 1168 0
1167 1163 1271 0
1167 1168 1373 0
1168 875 1373 0
1169 1162 1170 0
1169 1170 1171 0
1170 1165 1174 0
1171 825 1204 0
1171 1170 1174 0
1172 1173 1174 0
1172 1174 1175 0
1172 1175 1201 0
1173 825 1174 0
1173 1172 1190 0
1174 1165 1175 0
1175 1165 1373 0
1175 1176 1201 0
1176 871 1182 0
1176 1175 1373 0
1176 1182 1183 0
1176 1183 1201 0
1177 1176 1373 0
1178 1177 1373 0
1179 1183 1185 0
1179 1184 1190 0
1179 1185 1186 0
1179 1186 1197 0
1180 1181 1188 0
1181 881 1188 0
1181 1180 1182 0
1182 1180 1185 0
1183 1179 1190 0
1183 1182 1185 0
1183 1190 1201 0
1184 1173 1190 0
1184 1179 1192 0
1184 1192 1198 0
1185 1180 1186 0
1186 872 1197 0
1186 1180 1188 0
1186 1187 872 0
1187 1186 1188 0
1188 881 1189 0
1190 1172 1201 0
1191 1192 1194 0
1191 1194 1195 0
1191 1195 1200 0
1192 1179 1197 0
1192 1191 1198 0
1194 1192 1197 0
1194 1193 1195 0
1194 1196 1193 0
1195 803 1200 0
1195 1269 1270 0
1196 1194 1197 0
1198 1191 1199 0
1199 1191 1200 0
1202 755 1203 0
1202 805 1206 0
1203 827 1204 0
1205 759 1287 0
1205 1202 1206 0
1205 1206 1207 0
1206 796 1207 0
1208 803 1270 0
1209 1210 1231 0
1209 1227 1234 0
1209 1234 1237 0
1209 1236 1264 0
1210 1209 1254 0
1210 1211 1230 0
1210 1230 1231 0
1210 1254 1265 0
1211 743 1230 0
1211 1210 1265 0
1212 1221 1375 0
1213 1220 1221 0
1213 1221 1232 0
1214 741 1225 0
1214 1224 1226 0
1215 762 1216 0
1215 1216 1219 0
1215 1219 1220 0
1215 1220 1225 0
1216 768 1218 0
1216 1218 1219 0
1217 1374 1375 0
1218 1217 1219 0
1218 1374 1217 0
1219 1217 1220 0
1220 1213 1224 0
1220 1217 1221 0
1220 1224 1225 0
1221 1217 1375 0
1221 1222 1232 0
1221 1223 1222 0
1222 744 1229 0
1222 1223 744 0
1222 1229 1232 0
1223 1221 1212 0
1224 1213 1226 0
1224 1214 1225 0
1226 1213 1232 0
1227 1209 1231 0
1227 1235 1234 0
1229 1227 1230 0
1229 1230 1232 0
1229 1235 1227 0
1230 1226 1232 0
1230 1227 1231 0
1234 1228 1237 0
1234 1235 1228 0
1235 1229 744 0
1236 1209 1237 0
1236 1237 1239 0
1236 1239 1248 0
1236 1242 1243 0
1236 1243 1264 0
1237 1238 1239 0
1238 6 1239 0
1238 1237 1228 0
1239 6 1248 0
1240 1243 1244 0
1240 1244 1249 0
1240 1249 1250 0
1240 1250 1255 0
1241 1244 1245 0
1241 1245 1246 0
1241 1246 1268 0
1242 237 1245 0
1242 1236 1248 0
1243 1240 1253 0
1243 1242 1244 0
1243 1253 1264 0
1244 1241 1249 0
1244 1242 1245 0
1245 237 1246 0
1246 190 1268 0
1246 194 1247 0
1248 1323 237 0
1249 211 1251 0
1249 1241 1268 0
1250 214 1258 0
1250 1249 1251 0
1252 1253 1255 0
1252 1255 1256 0
1252 1256 1267 0
1253 1240 1255 0
1253 1252 1254 0
1253 1254 1264 0
1254 1209 1264 0
1254 1252 1265 0
1255 1250 1256 0
1256 731 1267 0
1256 1250 1258 0
1257 1256 1258 0
1257 1258 1259 0
1257 1259 1262 0
1258 214 1259 0
1259 214 1260 0
1259 711 1261 0
1259 1261 1262 0
1261 709 1263 0
1262 1261 1263 0
1265 1252 1267 0
1266 731 1310 0
1266 1265 1267 0
1269 739 1270 0
1269 1195 1193 0
1272 1129 1274 0
1273 1120 1274 0
1275 1144 1277 0
1276 1 1277 0
1276 1144 1120 0
1278 1119 1280 0
1278 1279 1284 0
1279 1109 1284 0
1279 1278 1280 0
1281 993 1282 0
1281 1282 1283 0
1282 1119 1283 0
1283 1278 1284 0
1288 786 1293 0
1288 1293 1295 0
1288 1295 1301 0
1288 1301 1304 0
1290 1289 1296 0
1290 1291 1289 0
1291 1290 775 0
1292 1290 1293 0
1293 1290 1296 0
1295 1293 1296 0
1295 1296 1297 0
1295 1297 1300 0
1295 1300 1301 0
1296 1289 1297 0
1297 1298 2 0
1297 1299 1300 0
1298 1297 1289 0
1299 1294 1300 0
1299 1297 2 0
1300 1294 1301 0
1301 779 1304 0
1301 1303 1302 0
1302 764 1308 0
1302 1303 764 0
1303 1301 1294 0
1304 779 1305 0
1305 779 1306 0
1306 779 1308 0
1307 766 1309 0
1308 1307 1309 0
1311 624 1313 0
1311 1312 1315 0
1312 590 1315 0
1312 1311 1313 0
1313 624 1314 0
1316 310 1321 0
1319 12 1320 0
1320 587 1321 0
1322 264 255 0
1322 268 264 0
1323 1248 6 0
1324 220 1328 0
1324 227 1325 0
1325 227 1358 0
1326 1333 1362 0
1327 1361 1362 0
1328 1327 1329 0
1329 226 1357 0
1329 1327 1332 0
1330 1339 1342 0
1331 1332 1333 0
1331 1333 1335 0
1331 1335 1337 0
1331 1337 1342 0
1331 1338 1355 0
1332 1327 1362 0
1332 1331 1355 0
1333 1332 1362 0
1333 1336 1335 0
1334 1330 1337 0
1335 1334 1337 0
1335 1336 3 0
1336 1333 1326 0
1337 1330 1342 0
1338 1331 1342 0
1338 1340 1354 0
1338 1354 1355 0
1339 148 1340 0
1339 1340 1342 0
1340 148 1345 0
1340 1338 1342 0
1340 1345 1354 0
1341 1343 1350 0
1341 1346 1354 0
1343 149 1350 0
1343 150 1367 0
1343 1341 1345 0
1343 1344 150 0
1344 1343 1345 0
1345 1341 1354 0
1346 226 1355 0
1346 1341 1349 0
1346 1349 1356 0
1347 160 1348 0
1347 1348 1349 0
1347 1349 1350 0
1347 1350 1351 0
1348 232 1356 0
1349 1341 1350 0
1349 1348 1356 0
1350 149 1351 0
1351 149 1352 0
1351 154 1353 0
1352 149 1368 0
1354 1346 1355 0
1356 232 1357 0
1357 232 1358 0
1358 232 1359 0
1358 1359 1360 0
1359 206 1360 0
1361 1326 1362 0
1361 1327 220 0
1363 102 1364 0
1365 83 1366 0
1365 1366 1367 0
1366 151 1368 0
1367 1366 1368 0
1374 1212 1375 0
1374 1218 727 0

End
