MeshVersionFormatted 1

Dimension
2

Vertices
1192
0.0 0.0 1
1.0 0.0 1
1.0 1.0 1
0.0 1.0 1
0.5 0.0 1
1.0 0.5 1
0.5 1.0 1
0.25 0.5 0
0.0 0.5 1
0.0 0.75 1
0.25 1.0 1
0.375 0.75 0
0.7291666666666666 0.7291666666666666 0
0.538690476190476 0.5119047619047622 0
0.3910557644110273 0.5857221177944861 0
0.5316602518200254 0.6823877028881726 0
0.654972415227055 0.6020863169829342 0
0.7650644656186915 0.3400724474862056 0
0.6749052114385818 0.45632563128933656 0
0.8276068351983819 0.5514508511724192 0
0.7854616148589596 0.44897904494922575 0
0.7352910988334793 0.5295162491877469 0
0.7601325780042659 0.6301974255277039 0
0.7736121155384761 0.5734663558598555 0
0.7140392862560221 0.5867276498891941 0
0.6987346194295964 0.6491284537217925 0
0.6895479488246486 0.6137980513830927 0
0.7244735266878868 0.623576211854637 0
0.7477968640191492 0.5972994768463565 0
0.7405807748016819 0.5635855712243611 0
0.7066090418391069 0.5514147910707189 0
0.6795990259585076 0.575536154030614 0
0.6515480633650842 0.5169429683171464 0
0.6364305463887948 0.560191510440027 0
0.6547138585473644 0.57715020151169 0
0.6740762187746789 0.54216898213674 0
0.6965122923208599 0.49945996996276004 0
0.677301872047036 0.5166158843496824 0
0.664046122540895 0.48695006484135755 0
0.5902433071700931 0.4435429206149008 0
0.6158420377082224 0.4844638222613515 0
0.6394997377605429 0.49432199872819915 0
0.613880947770313 0.522486075798375 0
0.7084534749266177 0.5240978521953885 0
0.6350279055455135 0.5354347845055603 0
0.5784806139546896 0.5015985169754797 0
0.588127669526865 0.4733336922562243 0
0.5336647424484515 0.45449541494485635 0
0.5559761560577846 0.47813880118559876 0
0.5621389179715598 0.4499742917392154 0
0.5256136371700435 0.22574056416593993 0
0.530097379210838 0.3401018634225659 0
0.5632145275568986 0.39005234733272853 0
0.5427288483551429 0.4196552516339027 0
0.5729733958310133 0.4186952985080614 0
0.6417235511205234 0.3893370765321639 0
0.6024959894862247 0.39265279405251957 0
0.5205262832402606 0.3824010649199776 0
0.540125164562241 0.3959638015822523 0
0.54552702694173 0.3658255831005716 0
0.6055056762222556 0.31235970263791046 0
0.5704370534700705 0.3333946269119609 0
0.5846661597208349 0.36399771432286887 0
0.5592020222619561 0.2749140150735333 0
0.5454660628725925 0.30787242326119313 0
0.5760211373564637 0.30295420169795056 0
0.6036272552726002 0.2673311212537765 0
0.5088306791628985 0.27326247603132287 0
0.5086843658309669 0.310112001689135 0
0.2955019638778829 0.2908404944102674 0
0.40292567058901857 0.2912670269144659 0
0.4574454231754189 0.29148350098067477 0
0.4864093854902103 0.29159850419324096 0
0.47208754360625593 0.25120936508252495 0
0.47176726505937444 0.3318726400913892 0
0.5005716093142871 0.33854404468475946 0
0.47675690699406037 0.3758477244234155 0
0.4916686032006772 0.4249704399226697 0
0.5181937248271354 0.4318712833390524 0
0.533703546749519 0.28362865321808306 0
0.5376672407139756 0.2535653932310067 0
0.5792955455589194 0.2190089790296588 0
0.5534371996254365 0.2302107100252093 0
0.5471813603989812 0.18032269977928567 0
0.5143088744337371 0.3587618106627773 0
0.43005628868321577 0.3239293945777218 0
0.44534336386465184 0.3571414509801161 0
0.3440235919394021 0.38365336825135166 0
0.3923335881514325 0.3614169088415405 0
0.418055973680781 0.3495772312055392 0
0.39133778748115067 0.3253919490591175 0
0.3552357747095976 0.3444161224601629 0
0.43128754350711435 0.41647506445606075 0
0.42340648915284224 0.38327640258712975 0
0.41094107573367344 0.3679812283939755 0
0.3899562044935193 0.39781086828232676 0
0.37082590295913953 0.3782865792086915 0
0.45209228138368557 0.3940014371517873 0
0.4611252661272384 0.42323033696850143 0
0.47763287190802145 0.4024064721421717 0
0.4269624761474876 0.5048522332566943 0
0.473420929148385 0.4763370330514847 0
0.47503611405835755 0.4479863328684578 0
0.43328331642144363 0.4598289688781797 0
0.5029562691639462 0.4637983488644391 0
0.5017524144909766 0.5020177657701057 0
0.5261565286256895 0.4839295789883942 0
0.46477103954854093 0.5143480500442588 0
0.5035817825146793 0.5691274550401287 0
0.5126359489138491 0.535300865797545 0
0.4800064338602595 0.5446921459348223 0
0.4502100835733702 0.5970303438579881 0
0.4727969087220481 0.5752384248124099 0
0.4344827444587502 0.5500715906955778 0
0.4476493781980422 0.5717749082806192 0
0.418355124185768 0.5747011703087919 0
0.387120779576643 0.5366536750675306 0
0.4561003031429425 0.5376983185212717 0
0.49858899787286576 0.6245726577733984 0
0.49294031116542464 0.5961166002469094 0
0.5441911913598142 0.6007316903701265 0
0.5192437228800633 0.5908952257829849 0
0.5460267049844472 0.5595220134313478 0
0.5372454883129288 0.5365011460314705 0
0.5910633547988855 0.5821736997709757 0
0.6050985607555088 0.5533339207532355 0
0.575603148247556 0.5568147290018716 0
0.5636777321443279 0.5814772870528272 0
0.5857843500749711 0.5296622166222235 0
0.4505098894022026 0.4911130396272066 0
0.3958617898869204 0.43982875871092536 0
0.35676692174942165 0.4238995571637448 0
0.35469693818284503 0.48491955367849376 0
0.3669728635421134 0.4547908820206655 0
0.3940058825030961 0.4833707322186997 0
0.41915979448483703 0.48080148531607836 0
0.3752928576219052 0.5080389871577448 0
0.4015887426712916 0.5139214338021632 0
0.30998600890486827 0.5454838728553573 0
0.34798226293947565 0.5360797484598365 0
0.3204870438222768 0.506450313496964 0
0.28393304473157305 0.5175456486792374 0
0.2163297269809398 0.6067036945097717 0
0.25785470117064746 0.5679808086870504 0
0.25392735058532384 0.5339904043435254 0
0.1538672651081802 0.528329547890706 0
0.20438767951122 0.5224922716679429 0
0.22299643256719318 0.554786343893622 0
0.2312112092086314 0.5193930027097711 0
0.2134614316258231 0.4833980371649831 0
0.28022695465026815 0.548173762232934 0
0.2992025898604258 0.5921452917778353 0
0.3378228721715342 0.5764936806574895 0
0.33215279420056615 0.5535844002269235 0
0.31301801425566206 0.5707612965289853 0
0.35028956492914753 0.6627286855801768 0
0.3334375020531345 0.6211462937872858 0
0.32392338547237964 0.5976702525373272 0
0.36716995819752274 0.5623871331777848 0
0.17563908167395811 0.495219612709962 0
0.17860424810927347 0.5208825128999436 0
0.17886472504641668 0.566555957843229 0
0.1975374213088623 0.547948062845973 0
0.0 0.25 1
0.14849672840576067 0.34196360389310476 0
0.1719028056165669 0.4168498015830146 0
0.18399786323678474 0.45554713936673696 0
0.25208563553289315 0.4130270899632927 0
0.21249306781953392 0.42540195643348394 0
0.2129772497226788 0.45439999679923415 0
0.21331569795969846 0.35850957164594127 0
0.1983815564612432 0.39177716501415394 0
0.22623976618928643 0.39985927410492283 0
0.2593521371593622 0.36681523323084986 0
0.1777663645592638 0.362536971486487 0
0.13949482639684754 0.3858781414492433 0
0.1535515651815192 0.365879683352159 0
0.09026741815417512 0.46279562002969543 0
0.1293500230536746 0.48849483388015186 0
0.15562828354566507 0.4702866304104568 0
0.15900754855039148 0.4421191384014814 0
0.12458281823619317 0.45227564195120734 0
0.13360224334038456 0.41942801556618625 0
0.05999043060545454 0.38920667967940403 0
0.0 0.375 1
0.10010729282927834 0.39625266565820655 0
0.0990110522733286 0.4300895625413774 0
0.052697952460156024 0.4352300129728988 0
0.0 0.4375 1
0.07685664069139085 0.44168859425460977 0
0.11086232936994082 0.3571289520682429 0
0.08390766308616027 0.3707592907624616 0
0.06292888529710226 0.29580546452529544 0
0.04258505777642176 0.3419122665790998 0
0.0 0.3125 1
0.058715706634990816 0.36282582136737107 0
0.029336239299372718 0.3688086669079378 0
0.021916678665221498 0.40625 0
0.0 0.40625 1
0.0 0.34375 1
0.04676006020594679 0.4106997238526966 0
0.11235906126424372 0.30656372443123114 0
0.12267909282423049 0.3321739630690433 0
0.11683681252329926 0.3798114530689613 0
0.15092225590828953 0.5026799023214231 0
0.234164354716296 0.3746878078683366 0
0.30637316083208094 0.35167403994923774 0
0.3324503507269929 0.35912568986347604 0
0.18980274681469625 0.4324939362877206 0
0.3044404008764848 0.4183273531594611 0
0.3248426160241873 0.45519016367120924 0
0.32983295791277545 0.4283508476772375 0
0.2758320438028693 0.4582383753114052 0
0.27760224254396676 0.4882034868841308 0
0.3012737358707343 0.47177024237355114 0
0.2992795278233136 0.4448368168531631 0
0.2771400537520796 0.42676960286954946 0
0.2816003108095135 0.3928303437209064 0
0.31214441278080707 0.3837011497986981 0
0.32811326892981546 0.40320350442686137 0
0.2853837295922567 0.3670738603642668 0
0.272756251327675 0.3278591866353001 0
0.2406743350612954 0.3386044313329725 0
0.239540328757005 0.2819527747262516 0
0.19973305995805815 0.3110867820250029 0
0.2151807393307153 0.33231885813064144 0
0.2341069277479555 0.3103987141888378 0
0.17739162816403992 0.331962534581656 0
0.15713004088368038 0.28788550418611447 0
0.14448859459515434 0.31359554073846924 0
0.17457927039202695 0.30655983795496616 0
0.1939723160223108 0.27094963154157514 0
0.25 0.0 1
0.11027655473579114 0.13741923704058961 0
0.0 0.125 1
0.14346313016325513 0.20961326969953015 0
0.16062448536096072 0.24694605928858604 0
0.2227774735298779 0.19576439906550458 0
0.18494763882894338 0.21315423886905205 0
0.1894599774256271 0.24205193520531365 0
0.1770914557089987 0.14622150211567086 0
0.16676805092851343 0.18136062989851567 0
0.19541213720827613 0.18607628862064793 0
0.22400934058145927 0.14879228652061854 0
0.14194989569054284 0.15498338564945893 0
0.10552483550824365 0.18332825107633832 0
0.11769204787674181 0.16138717813291606 0
0.19987200349596207 0.1598878788888996 0
0.16320098582380954 0.22315086758848088 0
0.10393272150307686 0.25039565018189747 0
0.1332862842076468 0.26523142737787075 0
0.12971627686900203 0.2358380545738144 0
0.10196371698754397 0.21679631079177736 0
0.05201819866352636 0.23658060584918017 0
0.08025396084730163 0.2349259202437927 0
0.06373905830333067 0.19485018910297197 0
0.06780835091180545 0.2642891072726769 0
0.09136831388769678 0.28407264392339876 0
0.03196145095326632 0.26636367014837026 0
0.0 0.28125 1
0.1319461440753035 0.2905169397519076 0
0.030166161515610218 0.29925895222174553 0
0.02321950502203102 0.3244161276375942 0
0.04860231333531586 0.31702569460794144 0
0.08201054811518985 0.3335403928304396 0
0.0 0.1875 1
0.02994438461894748 0.20786948130728064 0
0.0 0.21875 1
0.023952280383657987 0.23531736350162027 0
0.07579778270416251 0.1570509973299585 0
0.034907645656645815 0.16482928462328086 0
0.05746119408622536 0.1720243333006783 0
0.047324318514368496 0.11873519447924413 0
0.05228051266480459 0.14478970370512678 0
0.0799409352285078 0.12423452822281292 0
0.125 0.0 1
0.0625 0.0 1
0.07370103214720106 0.06176902464876954 0
0.11312477965730837 0.08937526011283538 0
0.10291063851290935 0.1128761431154547 0
0.07869702932789786 0.09281437151147007 0
0.14326666590708328 0.1152685979101601 0
0.1875 0.0 1
0.16628674567347704 0.05798097582448933 0
0.14504102768507704 0.08271266626600955 0
0.19001623819159483 0.09985715209984708 0
0.1706143905193669 0.08319002677443756 0
0.2034659740013374 0.06457439674848231 0
0.124799530221606 0.043832846404346426 0
0.15625 0.0 1
0.17187500000000003 0.02715443707354725 0
0.2071780259566671 0.029395608250009937 0
0.2543006851791791 0.05215321413833325 0
0.2266529606340609 0.04923583709555715 0
0.23641502038620174 0.0891878693276116 0
0.2429948301221001 0.026831593649136197 0
0.375 0.0 1
0.3125 0.0 1
0.2820557031129288 0.024576084090561508 0
0.28125 0.0 1
0.14455029927147758 0.024804780925837596 0
0.3509409402068554 0.1216612610963579 0
0.3354997744007089 0.05963649521532042 0
0.3144135594320563 0.033515369231022524 0
0.29341229395161716 0.0720400500328797 0
0.29327973308302147 0.04698115227610479 0
0.35001277730613517 0.026349448484521934 0
0.34375 0.0 1
0.41250098784739886 0.07340135310382712 0
0.38956816042831927 0.03883744421288812 0
0.4375 0.0 1
0.3636335355552312 0.052095363334515116 0
0.35790983777932484 0.08699190822766492 0
0.38348060118655203 0.07326833012906048 0
0.3977859507318786 0.1180237072729702 0
0.3734556592407272 0.10815186529630802 0
0.32250245503413955 0.09314121807211272 0
0.27795292314188386 0.12395489983011986 0
0.2948101206322767 0.1007154948131247 0
0.267044664788869 0.08769717079864893 0
0.31476481118648414 0.1329236208547161 0
0.2826584144241202 0.18467242124065994 0
0.35318230772752773 0.19259315697454304 0
0.3422376833805834 0.1574376344242438 0
0.3100650943553412 0.1658420371516584 0
0.31618258307233976 0.20410545157485868 0
0.28188775703296254 0.15419105173491596 0
0.25378974035069324 0.14247352654579118 0
0.2510598695781453 0.11388815444350306 0
0.3876454146071765 0.16258269301238723 0
0.37529701196534226 0.13673683822780194 0
0.36380923820619593 0.17000337624083214 0
0.35228446743467595 0.2549209949124782 0
0.36109800530962555 0.29609342846695264 0
0.3793550882625576 0.270655695765497 0
0.38820952350567506 0.22426811411395806 0
0.3292681078159265 0.28137751765207986 0
0.3212195896971677 0.3176327880882602 0
0.2956556238584833 0.3164321767615621 0
0.31338839811547153 0.24432263627022263 0
0.3075245384524655 0.26876559931836086 0
0.26790258107430104 0.24633545273918198 0
0.28963379036102493 0.22246656947939594 0
0.25481625037465855 0.21259418780315478 0
0.22421688501121956 0.23193511585718 0
0.2950515372930701 0.20192588757396995 0
0.3392955125077955 0.22591693623196152 0
0.3639943414906397 0.2322664685729821 0
0.3477065700798092 0.31898578976530195 0
0.3368595784888356 0.20534646058660241 0
0.4285037949590452 0.03789382983115831 0
0.503538511789658 0.09307095686640844 0
0.46012250615551104 0.07350389333493967 0
0.43633472112498656 0.06278302912445842 0
0.4687500000000001 0.027433712410902696 0
0.46875 0.0 1
0.75 0.0 1
0.625 0.0 1
0.512817036167485 0.04611544728642612 0
0.49528837612989207 0.026148385666392028 0
0.48352811705932536 0.05415001805815386 0
0.44585490483103146 0.02199829003501883 0
0.40625 0.0 1
0.40868901115720857 0.02404902366799928 0
0.21169666562253087 0.08791681229689631 0
0.21468471488431892 0.11899536746394133 0
0.09375 0.0 1
0.07812499999999999 0.029066698827131542 0
0.0 0.0625 1
0.0340347165753782 0.03403471657537821 0
0.057359573334488 0.04290795358388676 0
0.036998536432603514 0.0770587545973369 0
0.09769295185655882 0.04836424959627461 0
0.05406510885169173 0.09494771063210265 0
0.02378164831222983 0.056355129288759354 0
0.0 0.09375 1
0.022008386004610057 0.10937500000000001 0
0.08209329740000702 0.17988248400023307 0
0.1704897686626911 0.2684069836443254 0
0.21382716200692475 0.288581920273742 0
0.26567644587889305 0.2980118133227329 0
0.2753271876846498 0.2725414224191195 0
0.3285513621373205 0.48132041691295446 0
0.19092948590803036 0.47772440815875394 0
0.3465176521351682 0.5098667797937685 0
0.38094408057153284 0.4205014742391295 0
0.42052395722974845 0.43869344953295014 0
0.40619195248608414 0.41695290333106844 0
0.45323319751744423 0.31571094697048785 0
0.4301662350446998 0.2962390179387627 0
0.4242645473362429 0.251464355676201 0
0.44825072007706607 0.26534193932727773 0
0.5014462328376963 0.24393005460147912 0
0.4689104891747825 0.17555183510177227 0
0.4782096226765816 0.21305681188657694 0
0.5075621731783999 0.18587370295303718 0
0.5040264251112493 0.21149489271934746 0
0.5297203626000346 0.19986083944122657 0
0.5211645393201771 0.13879534303621816 0
0.4946641682903239 0.15664283008546576 0
0.4918338581487312 0.12384238615670207 0
0.5248886723682362 0.1653756060710311 0
0.4316173242994665 0.2047037716276906 0
0.45142713796605266 0.22832667054234584 0
0.45678078499138514 0.19846464283995544 0
0.624982957126901 0.42498700865650363 0
0.6624059247911467 0.42080467625707524 0
0.7054913454718066 0.36995573986501945 0
0.676461289166528 0.3890360153685159 0
0.7200341226690768 0.42370644078505454 0
0.7039391308276066 0.3992184023756927 0
0.7492800428402522 0.3869509757182818 0
0.6602998851247647 0.332822623151159 0
0.6588712178724286 0.3636632720234872 0
0.6845312957014165 0.34939853831355205 0
0.7168550375042536 0.2761470189793118 0
0.6938624618490727 0.3097585894692141 0
0.6239397748553351 0.3465916868118088 0
0.6099860998294068 0.3681176815746027 0
0.5973074520477125 0.33951056067422836 0
0.6342609916453726 0.318954238454656 0
0.587239754327743 0.32165745164748466 0
0.734565345745273 0.312932081001572 0
0.7152723761481655 0.33901903871956285 0
0.7338122340708972 0.3618951991471943 0
0.715126934145595 0.299634899620047 0
0.8176460540026328 0.2502766788246774 0
1.0 0.25 1
0.7698383337028659 0.2732938878835309 0
0.767451399660779 0.3066831676848684 0
0.8086993562479217 0.2928519445830215 0
1.0 0.375 1
0.9088860526047728 0.2916773603422564 0
0.8586620846185498 0.2811233766239763 0
0.8309364155900868 0.2752971492023384 0
0.7967931979900803 0.26812234846299654 0
0.773562058653645 0.21987028589531535 0
0.7787816642346272 0.24707567845398018 0
0.7380430324998823 0.24078834981452432 0
0.7429723930313875 0.26776975486534305 0
0.7476245071905288 0.29199941065119883 0
0.6894633934675262 0.1176849503892186 0
0.7234574551091166 0.17540711670363907 0
0.6670908237071369 0.2222991998619937 0
0.6998591286082784 0.24193496943875425 0
0.7180373658011122 0.21093378662111195 0
0.6861563344333304 0.18789310026035735 0
0.7460597977141891 0.2137860604350743 0
0.7692188171595458 0.17430209993073104 0
0.6248513712782743 0.17640752814806118 0
0.653595619872647 0.19233562770707985 0
0.6646344302081258 0.1516973781631753 0
0.6207601999777177 0.21769090498014526 0
0.5992766467359326 0.19471748536504108 0
0.5844337857431038 0.14696955207914297 0
0.5521371063735906 0.1480068325580566 0
0.5663263614795946 0.08649029658647693 0
0.5453790768407295 0.11405334425982713 0
0.5769071631104453 0.11627271537375018 0
0.6336575265331381 0.0793402801106272 0
0.6008500281532766 0.09099580194185304 0
0.6308232954568376 0.12336297986936634 0
0.6227870992817262 0.10074301511679465 0
0.603034128847866 0.12613774176882675 0
0.6193429541037498 0.1489289297387639 0
0.6021436136890801 0.04263655451019424 0
0.5625 0.0 1
0.5865021030999858 0.06641507706922083 0
0.5663774919612936 0.03614335557181178 0
0.534316611341457 0.08390487196962894 0
0.5522514897007504 0.06130250619947699 0
0.5196696251840265 0.11311213831313152 0
0.5997655994393805 0.168384507197288 0
0.6603336211184669 0.12248905562640172 0
0.600669465618636 0.23853350136244578 0
0.6966152173338046 0.15717796760160438 0
0.7347684977765527 0.1298746842787717 0
0.7207229141973379 0.1505566641131501 0
0.6918800618505911 0.21355025091714838 0
0.6592627988655643 0.2725225296586744 0
0.6596440068709223 0.30267493839744514 0
0.6876496111422697 0.28083856196764173 0
0.6733594326112128 0.2489979720470475 0
0.6400929485876888 0.24504952396450755 0
0.6312871740284588 0.2716185127668533 0
0.6907909904947396 0.4307760335444045 0
0.5993624898103012 0.4188184359288191 0
0.6183746297751666 0.454412218050122 0
0.6463666128071707 0.46344363042263786 0
0.6454684652382684 0.43876958153282924 0
0.556802980469732 0.49986955080281714 0
0.5742555995430755 0.2502493838339434 0
0.53125 0.0 1
0.537374271259975 0.029189628787809993 0
0.59375 0.0 1
0.5871557223178046 0.023442656108974145 0
0.6875 0.0 1
0.6446806680276334 0.0379949566224119 0
0.65625 0.0 1
0.6218217439920743 0.02574086141207377 0
0.6250025377246395 0.05489064972053297 0
0.6812326253377646 0.0698822415068209 0
0.6709688449696657 0.09625942987280206 0
0.655120938590713 0.06292056377911538 0
0.6798806671349634 0.03453882654308075 0
0.7311971907690696 0.05027342920229771 0
0.71875 0.0 1
0.734375000000001 0.02280902224749945 0
0.875 0.0 1
0.7882496109778032 0.04295871262429592 0
0.8125 0.0 1
0.7638067348926364 0.026214464024490482 0
0.789292637711442 0.01522342210473721 0
0.78125 0.0 1
0.706385742118093 0.025226315429253555 0
0.7034257897376018 0.052970975315204415 0
0.7210982630350254 0.09060725798484609 0
0.7145004571525104 0.11491739715379184 0
0.7741049331395874 0.09416719131422169 0
0.7486963795368532 0.07608615556661062 0
0.7476122753030545 0.10450293172104293 0
0.7745000708459928 0.06671859215949981 0
0.8269293796361119 0.08120048463295193 0
0.8026030553078656 0.06712315010290416 0
0.8358467880032249 0.03773355783678268 0
0.7561092450239668 0.04991026502675743 0
1.0 0.125 1
0.9057690913842108 0.18173114129154289 0
0.8687345863733826 0.22503793052808937 0
0.8490957998192192 0.24961123693001314 0
0.8897911000305063 0.25776670735392965 0
0.9091919721751559 0.22214699765834306 0
0.8875367038428895 0.20362814281594138 0
0.8440954356542952 0.14891803325256892 0
0.8495259056273776 0.18920790746842284 0
0.8327223537483213 0.21929145272101414 0
0.808571965058804 0.18606724905053587 0
0.78420768521232 0.19586454234344308 0
0.8031328092593522 0.21862044432804165 0
0.8303027455734437 0.17128799074442955 0
0.7979400946403109 0.13589701319203315 0
0.766623351836096 0.13006357285351994 0
0.750558164563594 0.15320151534869345 0
0.7940532019349728 0.16293235663243194 0
0.8749620586512888 0.16526858603275432 0
0.8889736674597762 0.10150710001960338 0
0.8731162892396446 0.13144270659033636 0
0.9196910445844246 0.1369463538351657 0
0.8974694611485333 0.12517521927136338 0
0.9000408519187497 0.1553941341746158 0
0.8543565973603756 0.1023376333475076 0
0.8232812176125927 0.11429740832391319 0
0.7967896739469889 0.10888213593850803 0
0.8707239771787648 0.06269451691275534 0
0.8513382220236738 0.07789109926750684 0
1.0 0.0625 1
0.9353520666951904 0.05600316336321498 0
0.9375 0.0 1
0.9042078126341668 0.07064720261930238 0
0.9258903774158499 0.10054106620045747 0
0.9589420780045699 0.12489980356719571 0
0.9038451476866278 0.029435816738179976 0
0.90625 0.0 1
0.8724793336056108 0.03132115981930637 0
0.9321474529900037 0.027837481929102202 0
1.0 0.03125 1
0.9665527283624039 0.020019543275192498 0
0.96875 0.0 1
1.0 0.09375 1
0.9657793367430162 0.07812499999999845 0
0.9732344333453424 0.04916635302415773 0
0.9408388668085412 0.08044276435581985 0
0.9749387502571384 0.1033509842480468 0
0.9517615066833409 0.1714721949629671 0
1.0 0.1875 1
1.0 0.15625 1
0.9784096297257288 0.17187500000000114 0
0.964447332124451 0.21389698604040536 0
0.9440814203873289 0.14644832363310495 0
0.9339175687785412 0.19970007631117873 0
0.8844685991394363 0.28309525830637644 0
0.8640742358951068 0.3801473169435611 0
0.8806581639161901 0.3329633882237404 0
0.8412213574617735 0.31911014997423 0
0.8526531536599954 0.34962672775557835 0
0.8084285299667846 0.3487941685780844 0
0.790630905030914 0.3251201835173776 0
0.8154140449820527 0.31780459582999915 0
0.7892019482611774 0.3031272534482189 0
0.8672529039105041 0.3080647828484036 0
0.7812768955706993 0.37162796149748356 0
0.8210796898748622 0.3913975304758065 0
0.8390072983382492 0.3721303620553339 0
0.8054812499634327 0.3728494452269225 0
0.7869751643732957 0.41010842234104844 0
0.7558311563452421 0.4283605114821496 0
0.7635939673548087 0.4059094405136165 0
0.7323391881260507 0.4690558065809068 0
0.7110336565841758 0.4504927278696329 0
0.6923295933528759 0.44944606782032903 0
0.7580510985015894 0.4567701990092447 0
0.7619191846453227 0.4979138808000247 0
0.7356199703627733 0.44382149454405 0
0.7316085364390248 0.49939376290361953 0
0.7736115141362486 0.53478537915062 0
0.8133309049828256 0.5019003259531902 0
0.7868185902236506 0.5103076523054811 0
0.8031406830150488 0.5349161508950078 0
0.8012633967783154 0.5640623961026662 0
0.8014802978915186 0.6100548834707081 0
1.0 0.75 1
0.7916451814261987 0.47952154158249305 0
0.8406864028592158 0.4536955600072676 0
0.8123832077722123 0.4594257625178081 0
0.8203213565096524 0.4258705672566942 0
0.8589051038741924 0.4189962748556595 0
0.7752435332160429 0.6011311292453682 0
0.8456358137958688 0.39746232682842214 0
0.9212160164842497 0.47384480002989066 0
0.9239797038773527 0.4078865423705609 0
0.8897157224269405 0.40332747429774196 0
0.8914427343129089 0.4448503123294771 0
0.9044654134760836 0.4235113411070183 0
0.9122965690085368 0.36465576720165416 0
0.8898082010462227 0.3774530143719543 0
0.8652234078048516 0.44444613685508777 0
0.8719926530068888 0.49957446375572667 0
0.8779289228631023 0.4708657815055084 0
0.9553964770019555 0.3762020728406993 0
0.9759976543990394 0.3125 0
1.0 0.3125 1
0.9879988271995191 0.28125 0
1.0 0.28125 1
0.9879988271995191 0.34375 0
1.0 0.34375 1
0.951609900229656 0.33979526324146736 0
0.9412339038080149 0.3059819156194925 0
0.9134477340620815 0.32508918526744224 0
0.9433190449387552 0.25753918453291896 0
0.9327886985910088 0.2813521636974987 0
0.9721187298115737 0.2572219962516883 0
0.939069322823312 0.22854631988926288 0
0.9165192759032113 0.24923129650365392 0
0.9275738939128225 0.345300214270636 0
0.9007737795669839 0.3445204816387592 0
0.9774324104319742 0.36573735096968973 0
0.9304972343921204 0.3829311034538568 0
0.8434279303820862 0.5200608868803137 0
1.0 0.625 1
0.899408058978786 0.5679578957608967 0
0.8773010338347842 0.537133527960934 0
0.8605724456096078 0.5724708439791836 0
0.893889287698326 0.6898207865739127 0
0.8867566034937928 0.6284413617160767 0
0.8829971781801511 0.5960900957787918 0
0.8436031322886501 0.6110368901890046 0
0.8268096735127279 0.5836050344327369 0
0.9333817742292361 0.6066291491213471 0
0.9099467823436183 0.5929583783281928 0
0.9421611313149799 0.5646572237539988 0
1.0 0.5625 1
1.0 0.59375 1
0.9716231041736682 0.5781249999999986 0
0.8208999664379568 0.6809681205140382 0
0.821794263787204 0.6426075487966485 0
0.7903120604133426 0.639638876078406 0
0.7597410286731806 0.6844039086196749 0
0.7682014216607964 0.6573603648365969 0
0.7325430427801491 0.6610500386861061 0
0.7901168869882736 0.6790616333097854 0
0.7840972174526861 0.7338629475501798 0
0.8037571884612469 0.7082912304705876 0
0.7758647732615721 0.7071903858589978 0
0.7484331038978302 0.7095032439474025 0
0.8644462808264941 0.7752933554484269 0
0.8280276358488079 0.7472940817898048 0
0.7020310246014783 0.6936796252950108 0
0.7101404669570143 0.6706820573446424 0
0.8601480943228528 0.6626923991939389 0
0.8592218640672209 0.6345116828819082 0
0.8360069593382858 0.6621295985875368 0
0.8552135874809453 0.7033769006435034 0
0.8882518738452054 0.7356862961594546 0
0.8797249916933706 0.7113590342169673 0
0.8703350449301518 0.6845694421401204 0
0.8533570426243383 0.5474268002082086 0
0.9104967482024844 0.5132871777346125 0
0.9049733876947874 0.5406267928873841 0
0.9201391422716234 0.55794711273093 0
0.940642395183855 0.5301494183766688 0
0.9714564030581568 0.544241807612274 0
0.968134765456087 0.5107701029417038 0
0.9393309431965579 0.4990983180111695 0
0.9701890068459539 0.46432344742072196 0
1.0 0.4375 1
1.0 0.46875 1
0.9467808324753009 0.47463045698408707 0
0.9446634714052737 0.43808716170816403 0
0.9723202884029019 0.43671474035699664 0
0.9570508867167938 0.4083622852890833 0
0.9781729416503945 0.48794531589346946 0
0.9188007860660055 0.4466946029746178 0
0.8984385195217118 0.48883233043300595 0
1.0 0.40625 1
0.9777769677709841 0.3920873826788938 0
0.8568421873310047 0.7347580681904774 0
1.0 0.875 1
0.9377768855862725 0.7924106532900684 0
0.903870780749771 0.7720315858440717 0
0.75 1.0 1
0.8892173097384122 0.8348071419531072 0
0.9066630582917838 0.8057814085151328 0
0.8743182461132751 0.8060964466121763 0
0.7720979348415201 0.8773636158344746 0
0.8278723854326168 0.8484201479683657 0
0.8294414137209396 0.8034953917391747 0
0.8567318963743902 0.8334438583102511 0
0.875 1.0 1
0.8704154624247012 0.8951067505949296 0
0.8717858123497183 0.8624529562059509 0
0.842749801007227 0.8775900815152943 0
0.8125 1.0 1
0.8239506473315854 0.9378870634574437 0
0.8414419959318927 0.9102613929654636 0
0.8073755979860374 0.8925359128600914 0
0.8730112385054754 0.9495998445050258 0
0.8663503870688952 0.922608762070467 0
0.9382449386809744 0.9191840683336778 0
0.9019606200345358 0.9138208791842877 0
0.9375 1.0 1
0.9146108724985215 0.9536576239702423 0
0.927089597006803 0.8692335986846341 0
0.9000378685453068 0.8609482644186761 0
0.9068003058578092 0.8871736119346736 0
0.9360713381748279 0.8313282428905592 0
0.9646520046517292 0.8581172800483706 0
1.0 0.8125 1
0.9689214619439979 0.824921707033848 0
1.0 0.84375 1
0.9535281883325941 0.889550004526675 0
0.9297729155456076 0.8960567045704355 0
1.0 0.9375 1
0.9722071827069304 0.9179414350290639 0
1.0 0.90625 1
0.9793784210131986 0.8906249999999981 0
0.9619884509589967 0.9619884509589952 0
0.9760288909294568 0.9420369165088328 0
1.0 0.96875 1
0.940380959813708 0.9459866539396123 0
0.8951491518580161 0.937910808181038 0
0.8916186464529449 0.9741049222082929 0
0.90625 1.0 1
0.9218750000000006 0.978893586097259 0
0.7995686572139422 0.8620892751849581 0
0.7491225031769161 0.8037025154680518 0
0.7682723031828516 0.8381432060039853 0
0.7892827778510567 0.8039167032245006 0
0.8023016315978378 0.8316103964549421 0
0.8090702663568601 0.775889403053628 0
0.8028249907841424 0.7511674872476641 0
0.7683736545024394 0.7696660158648606 0
0.8367709337209337 0.7767675730564131 0
0.7556727575823174 0.7427340107620787 0
0.7248582929113158 0.7702595278230745 0
0.6078673444602483 0.8806649040652602 0
0.625 1.0 1
0.6897130487401222 0.8656028061958698 0
0.7247685138454577 0.8397880877412612 0
0.7121448499741619 0.8050074494555777 0
0.6920007172886433 0.831999984694206 0
0.6200014718657535 0.7572551022535645 0
0.6621468287862088 0.78870756325357 0
0.693174026136578 0.7783667386623471 0
0.6639335897854396 0.7423503676592841 0
0.6717707639754394 0.7658654701655897 0
0.6985727685116067 0.7445508606107617 0
0.7051117796749927 0.7194422215977461 0
0.6843908942924666 0.8053079827051711 0
0.6487143841041375 0.8299100382584447 0
0.6695658772196333 0.8473519110819279 0
0.6384011378690765 0.8634241244550757 0
0.6582989395467079 0.9343219553015831 0
0.6396599750026334 0.9013119461482224 0
0.5625 1.0 1
0.5904243577350372 0.9423247911902494 0
0.6086923488350425 0.9141954596637125 0
0.5541372089413719 0.898762337332037 0
0.5790253442932052 0.9149254030868726 0
0.5404823648108065 0.9470313729659204 0
0.5647246643133991 0.9369458083960653 0
0.5636219694465977 0.9684732442188044 0
0.5303127113434184 0.9812130600321933 0
0.53125 1.0 1
0.59375 1.0 1
0.6093750000000012 0.9701655529340645 0
0.6776500537403122 0.9016282175289243 0
0.6635324968332375 0.8768686647462002 0
0.7181196455808777 0.9476555258342616 0
0.6875 1.0 1
0.6903826047774692 0.9312382336998538 0
0.6774507962557975 0.9651374161948029 0
0.71875 1.0 1
0.7343750000000008 0.973635804524085 0
0.7701495593237059 0.9331768907614492 0
0.746276628713043 0.9481137185273275 0
0.7352970958947632 0.9040195872126823 0
0.7052006258982068 0.9741575772714502 0
0.70630663461989 0.9068482105639284 0
0.6432209097091628 0.9650521589782041 0
0.6277578444731793 0.938400895338018 0
0.65625 1.0 1
0.7223171114110049 0.8731685644772749 0
0.746719453825068 0.8810577931973468 0
0.747103266237599 0.8543810527584641 0
0.7808512393423375 0.9056098285655574 0
0.7977082374320473 0.9280145604121527 0
0.7907404732970286 0.9669587608647304 0
0.7630500800635913 0.9744534887986603 0
0.78125 1.0 1
0.8224967932569854 0.9697309859145804 0
0.84375 1.0 1
0.8593750000000009 0.9753772381739658 0
0.8464936455387835 0.9520675218428883 0
0.6220780656248752 0.7984355180339822 0
0.6036850027000121 0.8375994924766001 0
0.6275642177863877 0.841745409071642 0
0.5364286172893532 0.7821119739385833 0
0.5771628559337614 0.8012424995107685 0
0.5983175692167022 0.7789911163927009 0
0.5689181375070295 0.7279782038868761 0
0.590506392621085 0.7495147017590053 0
0.6195842698640042 0.6987786262691127 0
0.5981941747273994 0.7202201268076273 0
0.5778654956034751 0.6785500283690694 0
0.5594157996558948 0.7590916953849666 0
0.5199021967027535 0.7300160934406674 0
0.5321102490763078 0.7548126080731878 0
0.4527565156354649 0.7784773328234605 0
0.49483558623629037 0.7747001601201998 0
0.4697254827542755 0.7312411440836195 0
0.47219888239165786 0.7587957109890813 0
0.49751230629174953 0.7468288363746902 0
0.48105804319417933 0.8574899678207923 0
0.5083120485188437 0.8194841633425669 0
0.47631869962382567 0.804691965620282 0
0.48373895032886954 0.8306376081135292 0
0.4147510239603148 0.8363337270998938 0
0.4498500807812483 0.8408141934594275 0
0.4447816142001972 0.8093416918501383 0
0.4069673964156848 0.7831085692215962 0
0.375 1.0 1
0.4243765642415995 0.9260267719077047 0
0.4457615229187159 0.8860057826489587 0
0.42934340289693457 0.8617396642670815 0
0.4573729371710746 0.8642755426195577 0
0.41715003399764083 0.8088011803967209 0
0.3577139533963811 0.8174930909998019 0
0.3688274351403972 0.8796044785837673 0
0.3969533528741248 0.8634498275346855 0
0.3884593138657583 0.8201720450813954 0
0.3690938813636325 0.8475068521286723 0
0.2833705816895442 0.8628451719283525 0
0.3276702593890227 0.8632129088334489 0
0.34269210639270176 0.8403529999166257 0
0.28924583241642354 0.788866468784128 0
0.32079603438140497 0.809598935767157 0
0.3991264691481772 0.8997948335151258 0
0.4246808451052942 0.9004654101151448 0
0.3498358425611488 0.9409341511259169 0
0.38763501252182025 0.9361246428240906 0
0.3653778874054085 0.9121416204521622 0
0.3214350063276233 0.9070125215306354 0
0.3452761045052678 0.8935590248330383 0
0.37226531971530524 0.9662717327498378 0
0.4375 1.0 1
0.41274964671111963 0.9679201315023421 0
0.3125 1.0 1
0.3374874145160612 0.9744616614193193 0
0.34375 1.0 1
0.2876460043228122 0.9506888085449515 0
0.3085027435124332 0.9710956171530402 0
0.3179242263571757 0.9406047096320457 0
0.2774728160796598 0.9819479951115848 0
0.28125 1.0 1
0.125 1.0 1
0.23800851731256373 0.9518194762471158 0
0.2524557389926749 0.9738062786290768 0
0.1875 1.0 1
0.21875000000000014 0.9838582428146564 0
0.21875 1.0 1
0.17370599686168559 0.9349747367318371 0
0.189522590349479 0.9655952287153523 0
0.207564250383811 0.9368808898824976 0
0.1955433451315994 0.8487449926970909 0
0.19299670035473718 0.8939800486819004 0
0.24431366097458004 0.9004784166815174 0
0.23225421662238943 0.9250551024474509 0
0.2654086993665333 0.926076509453147 0
0.2950165267450429 0.921231031748268 0
0.2956474214696134 0.8907507801537822 0
0.26819198860465576 0.8861762182484634 0
0.2401715744294443 0.8513439111629089 0
0.19162359239435348 0.9183700287944095 0
0.14892768916068888 0.9671687981528003 0
0.15625 1.0 1
0.0 0.875 1
0.08991549745290078 0.8961173928645159 0
0.0625 1.0 1
0.09431116198602006 0.9524987222334855 0
0.11879641307844513 0.9703438038691711 0
0.09005911143944348 0.9840536215950113 0
0.09375 1.0 1
0.13037046368452515 0.9272537440136744 0
0.10095879282647163 0.9236184376181897 0
0.0 0.9375 1
0.05161396020607695 0.9274655148877357 0
0.0768899305728816 0.9332835088019545 0
0.05655628591340504 0.9638079020714818 0
0.029026812435664764 0.949044473967147 0
0.0 0.96875 1
0.03125 1.0 1
0.025265142724997004 0.9747348572750023 0
0.15003015922240695 0.9423849192629173 0
0.1571952939086522 0.902169244511117 0
0.1240528816715507 0.8936126549912461 0
0.15109905102764895 0.8573180615717186 0
0.14498787631622145 0.8809885988890377 0
0.4586458191754544 0.9580978497262507 0
0.4971121888065497 0.9614922824295661 0
0.5206189723709235 0.959725333112765 0
0.5053589993263845 0.9139586599705395 0
0.4801493444285894 0.9340671279823165 0
0.47482927154100385 0.9015407418813264 0
0.44960200238010134 0.9137818705120141 0
0.5002930067824705 0.882675548901473 0
0.5260696151537777 0.8945530297783109 0
0.5471094811502527 0.8499413295915231 0
0.5235555392330042 0.8661000523639514 0
0.5366217552251872 0.9198733141907015 0
0.5024495001945306 0.8610906297437584 0
0.5793091076221816 0.8617025746157378 0
0.573681866511911 0.8316342020555996 0
0.5431830286729193 0.8158039971062329 0
0.5567639290031055 0.8734679034790213 0
0.5822031964811505 0.8883301754600794 0
0.46875 1.0 1
0.4764513433412736 0.9759735934078706 0
0.433131237660717 0.9510166335629511 0
0.4096989170049329 0.9445133198528814 0
0.40625 1.0 1
0.3467033466778387 0.7787129404385617 0
0.3173799935995289 0.7804249624275079 0
0.32934041280250603 0.7333020675170868 0
0.34836643330024647 0.7520522441935877 0
0.37611022362671986 0.7908525293696591 0
0.2874657720349298 0.8259477520097099 0
0.3138714137024622 0.8377797449310908 0
0.24595093499580178 0.8053714951869699 0
0.2712066225632932 0.8065838763382043 0
0.26573347477104664 0.8422116858482785 0
0.5129101657230906 0.793680812590893 0
0.6003898940021414 0.8121509013987319 0
0.6451168346062482 0.8059464015391274 0
0.6380857211307336 0.7769857384840182 0
0.7461029850146462 0.827925641031722 0
0.7467514947328374 0.7798989599293038 0
0.9468653554702035 0.7388939856037642 0
0.9171477757961676 0.744797319016999 0
0.9365407044345515 0.7646706600900235 0
1.0 0.78125 1
0.9671617498282976 0.777203630866922 0
0.9254568029019389 0.7088739256287351 0
1.0 0.6875 1
0.9643354436703687 0.703791645219759 0
0.9345394146137713 0.6581483972784028 0
0.9202813651000029 0.6817713390679216 0
0.9031672286586911 0.6553274741295267 0
0.9210165959480783 0.6326796255687707 0
0.9610158322320143 0.8013217602636649 0
0.9694854366655639 0.6678826306351547 0
0.960710952582212 0.631787691157428 0
0.9832954954819221 0.6454114957219172 0
1.0 0.65625 1
0.9744157303090988 0.6066336950363018 0
0.9471930039063958 0.6830093059803847 0
0.9761265855928523 0.7315584955146898 0
1.0 0.71875 1
0.8829850105651704 0.7594783149417975 0
0.15315946040616457 0.7485095395112822 0
0.16369600369367335 0.8031328296722977 0
0.16946309472570784 0.8330304420326239 0
0.23676029349534397 0.7162265362701474 0
0.2532835570149389 0.7595692720934363 0
0.2920818541584664 0.7486648310520513 0
0.2895324300026221 0.6896197760926422 0
0.3015147760275235 0.718679973565962 0
0.33143559664890093 0.6955280200203863 0
0.2692308202226982 0.7149911370631551 0
0.25371746138477175 0.7345829626538789 0
0.3145152363446355 0.6639831675426724 0
0.2632689357131378 0.6390349280810755 0
0.2847662316788659 0.6599839854004913 0
0.29602630070540153 0.6269247696991096 0
0.2474662878480148 0.6767556023030817 0
0.2245628584285465 0.6449899637934586 0
0.24075680553482173 0.6214792288336192 0
0.27008436577554257 0.6070208040104538 0
0.13614586920995594 0.6439749069379042 0
0.18046961454546015 0.6344434684241776 0
0.20504137101730763 0.6291595244746563 0
0.317126537569218 0.6395389651785633 0
0.36149946680511735 0.7161406791482179 0
0.41701684358894325 0.7136257088689679 0
0.389694695240579 0.7245197126898744 0
0.4152224571765158 0.7488343492697768 0
0.4448386324795437 0.747363373822382 0
0.38850221702588944 0.6818200194328148 0
0.36139970971098395 0.6882792736502507 0
0.44608664140976967 0.6588789838564681 0
0.42150458444351163 0.6809174363148462 0
0.4503545619292133 0.7015378061991372 0
0.439446456413283 0.7234695743040228 0
0.491871348269019 0.6956307948647052 0
0.5023690250990741 0.6607766146353187 0
0.4747154785042849 0.6453645868217863 0
0.47104834109102056 0.6746769371747812 0
0.4709230037538062 0.6169081440198191 0
0.5390391653216239 0.6417305658113778 0
0.5154371225347656 0.6411128713610077 0
0.5535075279168694 0.6653546191764371 0
0.5879580797020655 0.6308402881898336 0
0.571101608921844 0.608478608696644 0
0.5167456712822971 0.7039712846855524 0
0.5462961272031153 0.7084462044534608 0
0.38864744877239765 0.6337410008813869 0
0.4043595896132804 0.6578281909928358 0
0.3766551144502208 0.6577445043986573 0
0.3595059431963838 0.6341791641800306 0
0.2765193187767662 0.7677678254187393 0
0.3165457760869556 0.7551339224872159 0
0.41686503687528575 0.6110863777431709 0
0.42572307751446825 0.6385000643230729 0
0.6121924691074421 0.6608892339322456 0
0.6253384017996566 0.6254901205617022 0
0.6557224708626711 0.6569141650584789 0
0.6742619414769455 0.6366323126446356 0
0.6506947648134603 0.62713320455902 0
0.6330055949755998 0.6484779503357301 0
0.6230271367410251 0.5921003151808761 0
0.6008059134666706 0.6072277079787225 0
0.5878348882285505 0.6557365977507246 0
0.601660703499557 0.6826095901393928 0
0.4287940300788194 0.7702343475978198 0
0.18281388247525365 0.600425323513399 0
0.128997814119707 0.5895353421330736 0
0.1576845238528363 0.5861904807632231 0
0.1398950431041952 0.5583077215756946 0
0.14649680306263646 0.6149267412345216 0
0.0 0.625 1
0.061847700473801996 0.5485873901431906 0
0.09982609582669619 0.5618403778264331 0
0.09418750997318935 0.5169557322281529 0
0.1222727984183001 0.5318491765721662 0
0.08586769438623035 0.5407973936841747 0
0.061250984944189714 0.6113402135993605 0
0.09405862783393928 0.597126469506672 0
0.1154550742965424 0.6202337200510268 0
0.07898088165871697 0.6729082775587679 0
0.10389550607777903 0.651194814510109 0
0.08650296996841059 0.6270626992066523 0
0.12565105339140004 0.7013083215847636 0
0.1254050414014254 0.6716360500469619 0
0.17524039421152776 0.6860600221110822 0
0.1538228926978568 0.6667548033804594 0
0.07369380417717998 0.5756834757052611 0
0.0 0.5625 1
0.03557314482774812 0.5762118646119394 0
0.0 0.59375 1
0.028664066376434875 0.6093750000000002 0
0.0 0.6875 1
0.03536006099170419 0.6557634222223795 0
0.06051244932085306 0.6406663108008075 0
0.023394766046860645 0.6338130856775703 0
0.0 0.65625 1
0.21225305255389254 0.6883918552947393 0
0.1953345592257141 0.6620225811159443 0
0.19125041301413884 0.7268493060329496 0
0.21207244680199394 0.7132569978509344 0
0.21981365347938456 0.7478605123597152 0
0.1866312920563764 0.7630491224269477 0
0.21634816386779163 0.7841303462321156 0
0.1967461499223709 0.8122626583923114 0
0.18890383781574532 0.8302650962787089 0
0.21895161671210994 0.831255756912063 0
0.1854004500097928 0.7889483187209408 0
0.24095623369373773 0.7810838149259594 0
0.15970357959743262 0.7156949597794937 0
0.14961350293195108 0.6920839990317915 0
0.24194614306871504 0.828217518411422 0
0.13455005996893346 0.7277384917150881 0
0.07417442824233883 0.7333536670065622 0
0.10805042100792532 0.7702021896042975 0
0.10369882415144552 0.7234128383211131 0
0.09739321771905479 0.6951979200890064 0
0.09546599221738945 0.747775558227537 0
0.0 0.8125 1
0.054303549279005506 0.7856174721196386 0
0.07935570522087948 0.7715597624617055 0
0.09598133499157757 0.830539692258505 0
0.09503217013950942 0.7989740158488143 0
0.12859436151998258 0.8137619254150031 0
0.13830549026139594 0.7825574916942366 0
0.12351657796479938 0.8439774835841359 0
0.0968501292059731 0.8636894450765904 0
0.045983294556907896 0.848436310346729 0
0.06602228829613627 0.8740524423093887 0
0.07378941905689307 0.8473302490801767 0
0.05870406490691739 0.8181607347149058 0
0.03030656295186956 0.8054315073761142 0
0.0 0.84375 1
0.023729137419031317 0.7730269993981532 0
0.0 0.78125 1
0.04949366653868532 0.7538793471972667 0
0.035869776020412435 0.7123962021697215 0
0.0661913728620405 0.702222604820273 0
0.05163324806398252 0.6784239374324157 0
0.021638050337771924 0.8593750000000011 0
0.03141762962812774 0.8957131729713261 0
0.022952696285774576 0.9220529340868377 0
0.0 0.90625 1
0.058625016182445776 0.9007068871483656 0
0.04158908736796756 0.8734906998960372 0
0.02660632391830693 0.6874545303113541 0
0.0 0.71875 1
0.025785602792852174 0.7386867962992292 0
0.02443488921114526 0.831931690396678 0
0.048207048788752364 0.5022936229517727 0
0.056767864944453114 0.46926632367313703 0
0.06130094547377351 0.45146279134462164 0
0.0 0.46875 1
0.02707092017806756 0.4531250000000001 0
0.026083131619258303 0.4826768289225805 0
0.07679193716815329 0.492079797765737 0
0.10279934028512511 0.48630488538587974 0
0.0 0.53125 1
0.023414672736094624 0.515625 0
0.027038107012594542 0.5464112585557889 0
0.17666597685300578 0.8703714474932364 0
0.21654298305873515 0.872616444594706 0
0.334039636941066 0.9253094071505233 0
0.6345405984727885 0.7279116461992784 0
0.6646818025938867 0.7036901218766181 0
0.6803134298398625 0.7233300124552279 0
0.6440763461825003 0.6833908308350656 0
0.96875 1.0 1
0.9786345673747119 0.9786345673747108 0
0.8307023797754461 0.7185768032429048 0
1.0 0.21875 1
0.9798781652900997 0.23350638403339855 0
0.5136208044880787 0.0706687583151526 0
0.571847677426559 0.19251916535487834 0
0.552571313642874 0.20644568530294202 0
0.7466458054741502 0.1875959244640975 0
0.429214350228249 0.16319976101187264 0
0.4080980691710976 0.18524390694085943 0
0.3816328756543836 0.19633618321352728 0
0.4582388863648166 0.1398851802825583 0
0.42725802011876574 0.13104056119927046 0
0.4510274726491118 0.10646318285256752 0
0.4775453057016856 0.10079560339457086 0
0.4043836406778588 0.14295854221839202 0
0.42202615869046944 0.10127990568367966 0
0.4151346411653703 0.22607036279210713 0
0.39708387764717545 0.25000090140417874 0
0.03125 0.0 1
0.0 0.03125 1
0.22063490768212488 0.26038857257159703 0
0.2500813575782732 0.17598458487883445 0
0.1705482261285361 0.11941380836081188 0
0.24506180070083292 0.4455580598858457 0
0.25200941336976895 0.4723728028722654 0
0.205809714602894 0.5789661089553344 0
0.23407706897365851 0.5841089227830543 0
0.3919034274482548 0.5609621384202795 0
0.6775393624465733 0.676981421304385 0
0.36104588592067494 0.6006824184024048 0
0.384148288814752 0.6094455179202405 0
0.842091627256156 0.4863573091952178 0
0.84375 0.0 1
1.0 0.53125 1
0.21875 0.0 1
0.0 0.15625 1

Edges
128
1 1175 1
1 1176 1
2 566 1
2 568 1
3 748 1
3 1155 1
4 920 1
4 921 1
5 356 1
5 493 1
6 696 1
6 1190 1
7 793 1
7 946 1
9 1140 1
9 1145 1
10 1122 1
10 1134 1
11 884 1
11 890 1
164 260 1
164 268 1
185 199 1
185 200 1
189 199 1
189 1140 1
195 200 1
195 260 1
233 300 1
233 1191 1
235 376 1
235 1192 1
266 268 1
266 1192 1
276 290 1
276 367 1
277 367 1
277 1175 1
283 290 1
283 1191 1
297 308 1
297 363 1
298 300 1
298 308 1
311 356 1
311 363 1
357 507 1
357 514 1
358 495 1
358 499 1
369 376 1
369 1176 1
428 633 1
428 1158 1
432 635 1
432 704 1
467 493 1
467 495 1
497 499 1
497 507 1
509 563 1
509 1189 1
511 514 1
511 1189 1
527 569 1
527 576 1
556 566 1
556 569 1
558 563 1
558 568 1
575 576 1
575 1158 1
611 970 1
611 987 1
631 633 1
631 635 1
649 662 1
649 983 1
661 662 1
661 1190 1
695 696 1
695 704 1
707 739 1
707 744 1
710 802 1
710 819 1
718 752 1
718 821 1
722 819 1
722 821 1
730 752 1
730 1155 1
737 739 1
737 970 1
742 744 1
742 748 1
766 794 1
766 811 1
784 793 1
784 794 1
799 802 1
799 811 1
851 879 1
851 950 1
875 946 1
875 950 1
877 879 1
877 884 1
885 905 1
885 912 1
888 890 1
888 905 1
906 1120 1
906 1130 1
908 912 1
908 921 1
915 920 1
915 1130 1
973 983 1
973 987 1
1059 1078 1
1059 1084 1
1076 1078 1
1076 1145 1
1080 1084 1
1080 1134 1
1106 1120 1
1106 1122 1

Triangles
2254
2 566 567 0
3 1155 1156 0
4 920 922 0
6 692 701 0
7 946 947 0
8 142 145 0
8 145 149 0
8 149 150 0
8 150 1181 0
9 1140 1142 0
9 1142 1146 0
10 1134 1135 0
12 850 955 0
12 951 954 0
12 954 1012 0
12 1012 1014 0
12 1014 1015 0
13 674 763 0
13 763 764 0
13 764 776 0
13 776 777 0
14 106 107 0
14 107 491 0
15 116 1041 0
15 159 1184 0
15 1041 1187 0
16 1023 1024 0
16 1024 1029 0
16 1028 1030 0
16 1030 1034 0
17 27 1046 0
17 1044 1049 0
17 1046 1047 0
18 423 430 0
18 430 587 0
18 586 591 0
19 37 39 0
19 39 489 0
19 407 486 0
19 486 600 0
19 489 490 0
20 608 648 0
20 648 686 0
20 652 657 0
21 595 615 0
22 30 31 0
22 31 44 0
22 44 604 0
22 602 605 0
23 28 29 0
23 29 617 0
23 617 666 0
23 666 668 0
23 668 669 0
24 29 30 0
24 30 605 0
24 605 609 0
24 609 617 0
25 27 32 0
26 27 28 0
26 28 669 0
26 669 678 0
26 678 1185 0
27 17 32 0
27 25 28 0
27 26 1046 0
28 23 669 0
28 25 29 0
29 24 617 0
29 25 30 0
30 22 605 0
30 25 31 0
31 25 32 0
31 32 36 0
31 36 44 0
32 17 35 0
32 35 36 0
33 36 45 0
34 35 1049 0
35 17 1049 0
35 34 36 0
36 33 38 0
36 34 45 0
36 38 44 0
37 19 600 0
37 38 39 0
37 598 604 0
38 33 39 0
38 37 44 0
39 33 42 0
39 42 489 0
40 47 50 0
40 50 55 0
40 55 487 0
40 406 488 0
41 42 43 0
41 43 46 0
41 46 47 0
41 47 488 0
41 488 489 0
42 33 43 0
42 41 489 0
43 33 45 0
43 45 126 0
43 126 129 0
44 37 604 0
45 34 126 0
46 43 129 0
46 129 491 0
47 40 488 0
47 46 49 0
47 49 50 0
48 49 107 0
49 46 491 0
49 48 50 0
50 48 54 0
50 54 55 0
51 81 393 0
51 393 397 0
51 397 398 0
51 398 1162 0
52 60 85 0
53 54 59 0
53 59 60 0
53 60 63 0
54 48 79 0
54 53 55 0
55 53 57 0
55 57 487 0
56 57 419 0
57 53 63 0
57 56 406 0
57 63 419 0
57 406 487 0
58 59 79 0
58 77 85 0
58 78 100 0
59 54 79 0
59 58 60 0
60 52 62 0
60 58 85 0
60 62 63 0
61 66 67 0
61 67 485 0
61 418 420 0
61 420 422 0
62 52 65 0
62 65 66 0
62 66 422 0
63 62 420 0
64 65 80 0
64 80 81 0
64 81 492 0
65 52 69 0
65 64 66 0
65 69 80 0
66 61 422 0
66 64 67 0
67 64 492 0
67 475 484 0
67 484 485 0
68 69 73 0
68 73 74 0
68 74 393 0
69 52 76 0
69 68 80 0
70 337 338 0
70 338 339 0
70 339 381 0
70 381 382 0
71 86 91 0
71 91 334 0
71 334 335 0
71 335 1174 0
72 73 389 0
72 389 390 0
72 390 392 0
73 69 75 0
73 72 74 0
73 75 389 0
74 72 392 0
74 392 404 0
75 69 76 0
75 76 77 0
75 77 87 0
75 87 389 0
76 52 85 0
77 58 100 0
77 76 85 0
78 58 79 0
78 79 105 0
78 99 100 0
79 48 105 0
80 68 81 0
81 51 83 0
81 68 393 0
81 83 492 0
82 83 1162 0
82 453 475 0
82 475 492 0
83 51 1162 0
83 82 492 0
84 398 402 0
84 402 456 0
84 455 1161 0
84 1161 1162 0
86 71 390 0
86 87 90 0
86 90 91 0
87 77 98 0
87 86 389 0
87 94 95 0
88 92 97 0
88 97 132 0
88 132 220 0
89 90 95 0
89 95 96 0
89 96 97 0
90 87 95 0
90 89 91 0
91 89 92 0
91 92 349 0
92 88 208 0
92 89 97 0
92 208 349 0
93 94 98 0
93 98 99 0
93 99 387 0
93 387 388 0
94 87 98 0
94 93 388 0
95 94 96 0
96 94 388 0
97 96 386 0
98 77 100 0
99 78 103 0
99 98 100 0
99 103 104 0
99 104 387 0
101 108 118 0
101 114 138 0
102 103 105 0
102 105 106 0
102 106 108 0
102 108 130 0
103 78 105 0
103 102 104 0
104 102 130 0
104 130 136 0
104 136 387 0
105 48 107 0
106 14 110 0
106 105 107 0
106 110 111 0
107 49 491 0
108 101 130 0
108 106 111 0
108 111 118 0
109 110 123 0
110 14 124 0
110 109 111 0
111 109 113 0
111 113 118 0
112 113 1027 0
112 1027 1042 0
113 109 120 0
113 112 115 0
113 115 118 0
113 120 1027 0
114 101 118 0
114 115 116 0
114 116 1184 0
114 117 138 0
115 112 116 0
115 114 118 0
116 15 1184 0
116 112 1041 0
117 114 1184 0
117 137 138 0
119 120 122 0
119 122 1029 0
119 1024 1025 0
119 1025 1027 0
120 109 122 0
120 119 1027 0
121 122 123 0
121 123 128 0
121 128 1032 0
121 1028 1029 0
122 109 123 0
122 121 1029 0
123 110 124 0
123 124 127 0
123 127 128 0
124 14 129 0
125 126 1049 0
125 1049 1050 0
126 34 1049 0
126 125 127 0
126 127 129 0
127 124 129 0
127 125 128 0
128 125 1032 0
129 14 491 0
130 101 136 0
131 134 386 0
131 386 388 0
132 97 386 0
132 134 212 0
132 212 220 0
133 134 135 0
133 135 137 0
133 137 385 0
134 131 135 0
134 132 386 0
134 133 211 0
134 211 212 0
135 131 136 0
135 136 138 0
136 101 138 0
136 131 387 0
137 117 140 0
137 135 138 0
137 140 385 0
139 140 154 0
139 154 155 0
140 117 159 0
140 139 141 0
140 141 385 0
141 139 142 0
141 142 214 0
141 214 215 0
141 215 383 0
141 383 385 0
142 8 214 0
142 139 151 0
143 1006 1010 0
143 1010 1054 0
143 1054 1182 0
143 1182 1183 0
144 145 151 0
144 151 152 0
144 152 1007 0
144 1007 1183 0
145 142 151 0
145 144 148 0
145 148 149 0
146 161 162 0
146 162 1057 0
146 1057 1063 0
147 148 163 0
148 144 1183 0
148 147 149 0
149 147 150 0
150 147 160 0
150 160 384 0
150 170 1181 0
151 139 155 0
152 151 155 0
152 155 158 0
152 158 1003 0
152 1003 1007 0
153 154 159 0
153 159 1186 0
154 140 159 0
154 153 155 0
155 153 158 0
156 997 1000 0
156 1000 1011 0
156 1011 1038 0
157 158 1186 0
158 153 1186 0
158 157 1003 0
159 15 1186 0
159 117 1184 0
160 147 161 0
160 161 205 0
160 180 384 0
161 146 205 0
161 147 163 0
162 161 163 0
162 163 1182 0
162 1054 1056 0
162 1056 1057 0
163 148 1182 0
164 268 269 0
165 175 177 0
165 177 191 0
165 191 203 0
165 203 230 0
166 172 209 0
166 176 177 0
166 181 183 0
167 170 384 0
167 180 181 0
167 181 209 0
168 169 173 0
168 173 206 0
168 174 218 0
168 217 1180 0
169 168 1180 0
169 170 209 0
169 172 173 0
170 150 384 0
170 167 209 0
170 169 1180 0
170 1180 1181 0
171 172 175 0
171 175 228 0
172 166 175 0
172 169 209 0
172 171 206 0
173 172 206 0
174 168 206 0
174 206 223 0
175 165 228 0
175 166 177 0
176 166 183 0
176 183 204 0
177 176 204 0
178 182 1144 0
178 1138 1139 0
179 180 205 0
179 205 1063 0
179 1062 1144 0
180 160 205 0
180 167 384 0
180 179 182 0
181 166 209 0
181 180 182 0
181 182 183 0
182 178 187 0
182 179 1144 0
183 182 187 0
183 186 204 0
184 186 187 0
184 187 190 0
184 190 201 0
185 197 198 0
186 183 187 0
186 184 192 0
186 192 204 0
187 178 190 0
188 190 1139 0
188 198 201 0
188 1139 1141 0
189 198 1141 0
190 178 1139 0
190 188 201 0
191 177 204 0
191 192 265 0
192 184 196 0
192 191 204 0
192 196 265 0
193 257 258 0
193 258 265 0
194 196 197 0
194 200 263 0
194 263 264 0
194 264 265 0
195 260 262 0
195 262 263 0
196 184 197 0
196 194 265 0
197 184 198 0
198 184 201 0
198 188 1141 0
198 199 185 0
199 198 189 0
200 194 197 0
200 195 263 0
200 197 185 0
202 203 265 0
202 258 261 0
203 191 265 0
203 202 230 0
205 146 1063 0
206 171 223 0
207 208 219 0
207 219 221 0
207 221 222 0
207 222 339 0
208 88 219 0
208 207 338 0
208 338 349 0
210 212 216 0
210 216 217 0
210 217 218 0
210 218 219 0
210 219 220 0
211 133 383 0
211 215 216 0
212 210 220 0
212 211 216 0
213 214 1181 0
214 8 1181 0
214 213 215 0
215 211 383 0
215 213 216 0
216 213 217 0
217 168 218 0
217 213 1180 0
218 174 221 0
219 88 220 0
219 218 221 0
221 174 222 0
222 174 223 0
222 223 227 0
222 227 381 0
223 171 226 0
223 226 227 0
224 227 380 0
224 342 382 0
224 380 1177 0
225 226 228 0
225 228 231 0
225 231 232 0
225 232 380 0
226 171 228 0
226 225 227 0
227 224 381 0
227 225 380 0
228 165 230 0
228 230 231 0
229 230 261 0
229 251 379 0
230 202 261 0
230 229 231 0
231 229 379 0
232 231 379 0
232 240 1177 0
234 245 247 0
234 247 270 0
234 270 275 0
234 275 280 0
234 280 282 0
235 376 377 0
236 242 249 0
236 246 247 0
236 249 252 0
236 252 253 0
237 240 379 0
237 251 252 0
238 239 243 0
238 243 248 0
238 244 1178 0
238 344 345 0
239 238 345 0
239 240 249 0
239 242 243 0
240 232 379 0
240 237 249 0
240 239 345 0
240 345 1177 0
241 242 245 0
241 245 1179 0
242 236 245 0
242 239 249 0
242 241 248 0
243 242 248 0
244 238 248 0
244 248 366 0
244 328 1178 0
245 234 282 0
245 236 247 0
245 282 1179 0
246 236 253 0
246 253 378 0
247 246 378 0
248 241 366 0
249 237 252 0
250 251 258 0
251 229 261 0
251 237 379 0
251 250 252 0
252 250 253 0
253 250 255 0
253 255 256 0
253 256 378 0
254 255 257 0
254 257 259 0
254 259 269 0
255 250 257 0
255 254 256 0
256 254 267 0
256 267 272 0
256 272 378 0
257 193 259 0
257 250 258 0
258 202 265 0
258 251 261 0
259 164 269 0
259 193 262 0
259 260 164 0
260 259 262 0
262 193 264 0
263 262 264 0
264 193 265 0
267 254 269 0
267 266 271 0
267 268 266 0
267 271 272 0
268 267 269 0
270 247 378 0
270 272 274 0
270 274 275 0
271 235 274 0
271 1192 235 0
272 270 378 0
272 271 274 0
273 274 377 0
274 235 377 0
274 273 275 0
275 273 374 0
276 290 301 0
277 367 368 0
277 368 371 0
278 279 281 0
278 281 374 0
278 368 373 0
279 278 373 0
279 280 281 0
280 275 281 0
280 279 282 0
281 275 374 0
282 279 285 0
282 285 287 0
282 287 1179 0
284 285 289 0
284 289 301 0
285 279 289 0
285 284 287 0
286 287 288 0
286 288 365 0
286 365 366 0
286 366 1179 0
287 284 288 0
287 286 1179 0
288 284 291 0
288 291 292 0
288 292 294 0
288 294 365 0
289 276 301 0
289 279 373 0
289 367 276 0
290 283 291 0
290 291 301 0
291 283 292 0
291 284 301 0
293 294 296 0
293 296 299 0
293 299 306 0
293 305 320 0
294 292 296 0
294 293 295 0
294 295 365 0
295 293 320 0
295 320 329 0
295 329 366 0
296 233 299 0
296 1191 233 0
297 363 364 0
299 298 304 0
299 300 298 0
299 304 306 0
300 299 233 0
302 313 316 0
302 316 331 0
303 304 307 0
303 305 306 0
303 307 312 0
303 312 313 0
303 313 317 0
304 303 306 0
304 308 307 0
305 293 306 0
305 303 317 0
305 317 319 0
305 319 320 0
307 297 310 0
307 308 297 0
307 310 312 0
308 304 298 0
309 310 351 0
309 351 354 0
309 354 1172 0
310 297 364 0
310 309 314 0
311 356 362 0
311 362 364 0
312 310 314 0
313 302 317 0
313 312 314 0
313 314 316 0
314 309 315 0
314 315 316 0
315 309 1172 0
315 1168 1171 0
316 315 331 0
317 302 321 0
318 319 321 0
318 321 327 0
318 327 328 0
318 328 329 0
319 317 321 0
319 318 320 0
320 318 329 0
321 302 324 0
321 324 325 0
321 325 327 0
322 325 346 0
322 344 1178 0
323 324 332 0
323 332 1166 0
323 348 350 0
324 302 331 0
324 323 325 0
324 331 332 0
325 322 327 0
325 323 350 0
325 326 346 0
326 325 350 0
326 340 343 0
326 343 346 0
327 322 1178 0
328 244 329 0
328 327 1178 0
329 244 366 0
330 331 1171 0
330 1164 1165 0
330 1165 1166 0
331 315 1171 0
331 330 332 0
332 330 1166 0
333 334 337 0
333 337 340 0
333 340 347 0
333 347 348 0
334 91 349 0
334 333 335 0
335 333 348 0
335 348 1174 0
336 348 1166 0
336 1165 1173 0
336 1173 1174 0
337 70 341 0
337 334 349 0
338 207 339 0
338 337 349 0
339 222 381 0
340 326 347 0
340 337 341 0
340 341 342 0
340 342 343 0
341 70 382 0
342 224 1177 0
342 341 382 0
343 342 344 0
343 344 346 0
344 238 1178 0
344 322 346 0
344 342 345 0
345 342 1177 0
347 326 350 0
348 323 1166 0
348 336 1174 0
348 347 350 0
351 310 364 0
352 361 1160 0
352 401 1170 0
352 470 472 0
353 354 355 0
353 355 361 0
353 361 1170 0
354 351 362 0
354 353 1169 0
354 1169 1172 0
355 354 362 0
355 356 360 0
355 360 361 0
356 5 360 0
356 355 362 0
358 499 500 0
359 360 494 0
359 471 1160 0
360 359 361 0
360 493 494 0
361 352 1170 0
361 359 1160 0
362 351 364 0
363 311 364 0
365 295 366 0
366 241 1179 0
367 289 373 0
368 278 371 0
368 367 373 0
370 277 371 0
370 371 375 0
370 1175 277 0
371 278 372 0
371 372 375 0
372 278 374 0
372 369 375 0
372 374 377 0
372 376 369 0
374 273 377 0
375 1176 370 0
376 372 377 0
380 232 1177 0
381 224 382 0
383 133 385 0
386 96 388 0
387 131 388 0
389 86 390 0
390 71 391 0
390 391 392 0
391 71 1174 0
392 391 404 0
393 74 395 0
393 395 397 0
394 395 405 0
394 405 1164 0
394 1164 1167 0
395 74 404 0
395 394 396 0
395 396 397 0
395 404 405 0
396 394 400 0
396 400 402 0
397 396 398 0
398 84 1162 0
398 396 402 0
399 400 401 0
399 401 472 0
400 394 1167 0
400 399 402 0
401 352 472 0
401 400 1167 0
401 1167 1170 0
402 399 456 0
403 404 1173 0
404 391 1173 0
404 403 405 0
405 403 1164 0
406 40 487 0
406 56 407 0
406 407 490 0
407 19 490 0
407 56 409 0
407 409 486 0
408 409 415 0
408 415 424 0
408 424 425 0
409 56 414 0
409 408 411 0
409 411 486 0
409 414 415 0
410 411 412 0
410 412 597 0
410 596 603 0
411 408 412 0
411 410 486 0
412 408 425 0
412 425 591 0
412 591 597 0
413 414 418 0
413 418 421 0
413 421 481 0
414 56 418 0
414 413 415 0
415 413 417 0
415 417 424 0
416 426 482 0
416 439 440 0
416 440 441 0
417 413 481 0
417 481 482 0
418 56 419 0
418 61 421 0
418 419 420 0
419 63 420 0
420 62 422 0
421 61 485 0
423 18 424 0
423 424 426 0
423 426 441 0
424 18 425 0
424 417 426 0
425 18 591 0
426 416 441 0
426 417 482 0
427 435 436 0
427 436 438 0
427 438 539 0
428 632 641 0
428 641 1159 0
429 430 441 0
429 436 589 0
430 423 441 0
430 429 589 0
431 435 584 0
431 584 588 0
431 588 589 0
432 704 705 0
433 531 643 0
433 583 590 0
433 637 638 0
434 435 530 0
434 530 531 0
434 531 581 0
434 581 590 0
435 427 530 0
435 431 436 0
435 434 584 0
436 429 438 0
436 431 589 0
437 438 439 0
437 439 448 0
437 448 1163 0
437 538 539 0
438 429 440 0
438 437 539 0
439 416 445 0
439 438 440 0
439 445 446 0
439 446 448 0
440 429 441 0
442 452 474 0
442 474 503 0
442 503 517 0
442 517 518 0
443 446 447 0
443 447 476 0
443 476 478 0
443 478 543 0
443 543 1163 0
444 445 483 0
444 447 479 0
444 483 484 0
445 416 482 0
445 444 479 0
445 482 483 0
446 443 1163 0
446 445 479 0
447 444 451 0
447 446 479 0
447 451 452 0
447 452 476 0
448 446 1163 0
449 538 1163 0
449 542 544 0
450 451 453 0
450 453 454 0
450 454 473 0
451 444 453 0
451 450 452 0
452 442 476 0
452 450 465 0
452 462 474 0
453 82 454 0
453 444 484 0
454 82 1161 0
455 84 456 0
455 456 459 0
455 459 464 0
455 464 465 0
455 465 473 0
455 473 1161 0
456 399 458 0
456 458 459 0
457 458 470 0
457 470 471 0
458 399 472 0
458 457 459 0
459 457 461 0
459 461 464 0
460 461 501 0
460 501 504 0
461 457 468 0
461 460 463 0
461 463 464 0
461 468 501 0
462 452 465 0
462 463 474 0
463 460 503 0
463 462 464 0
464 462 465 0
465 450 473 0
466 468 469 0
466 469 496 0
466 496 500 0
466 500 501 0
467 469 494 0
467 495 496 0
468 457 471 0
468 466 501 0
469 467 496 0
469 468 471 0
469 471 494 0
470 352 1160 0
470 458 472 0
471 359 494 0
471 470 1160 0
473 454 1161 0
474 463 503 0
475 67 492 0
475 453 484 0
476 442 478 0
477 478 518 0
477 518 521 0
477 521 542 0
477 542 543 0
478 442 518 0
478 477 543 0
480 481 485 0
481 421 485 0
481 480 482 0
482 480 483 0
483 480 484 0
484 480 485 0
486 410 599 0
486 599 600 0
488 406 490 0
489 488 490 0
493 360 5 0
493 467 494 0
495 358 500 0
496 495 500 0
497 507 515 0
498 499 505 0
499 497 505 0
499 498 500 0
500 498 501 0
501 498 504 0
502 503 504 0
502 504 505 0
502 505 516 0
502 516 517 0
503 460 504 0
503 502 517 0
504 498 505 0
505 497 515 0
505 515 516 0
506 508 526 0
507 357 508 0
507 508 515 0
508 357 512 0
508 506 515 0
508 512 526 0
509 562 564 0
510 512 513 0
510 513 525 0
510 522 526 0
512 510 526 0
512 514 513 0
513 511 525 0
513 514 511 0
514 512 357 0
515 506 516 0
516 506 517 0
517 506 520 0
517 520 521 0
518 517 521 0
519 520 522 0
519 522 524 0
519 524 553 0
520 506 526 0
520 519 521 0
521 519 542 0
522 510 524 0
522 520 526 0
523 524 525 0
523 525 555 0
523 551 552 0
523 552 553 0
524 510 525 0
524 523 553 0
525 554 555 0
527 561 573 0
528 532 533 0
528 533 545 0
528 545 550 0
528 550 579 0
528 574 580 0
529 530 536 0
530 427 536 0
530 529 531 0
531 433 581 0
531 529 532 0
531 532 643 0
532 528 580 0
532 529 533 0
532 580 642 0
532 642 643 0
533 529 535 0
533 535 545 0
534 535 540 0
534 540 541 0
534 541 552 0
535 529 536 0
535 534 545 0
535 536 537 0
535 537 540 0
536 427 539 0
537 536 539 0
537 538 544 0
538 437 1163 0
538 449 544 0
538 537 539 0
540 537 544 0
541 540 544 0
541 542 553 0
542 449 543 0
542 519 553 0
542 541 544 0
543 449 1163 0
545 534 547 0
545 547 550 0
546 547 551 0
546 551 555 0
546 554 559 0
546 559 560 0
547 534 551 0
547 546 549 0
547 549 550 0
548 549 560 0
548 560 561 0
548 561 579 0
549 546 560 0
549 548 550 0
550 548 579 0
551 523 555 0
551 534 552 0
552 541 553 0
554 525 564 0
554 546 555 0
556 569 570 0
556 570 571 0
557 559 562 0
557 562 565 0
557 565 571 0
557 570 572 0
559 554 562 0
559 557 572 0
560 559 572 0
561 560 572 0
561 572 573 0
561 576 577 0
561 577 579 0
562 554 564 0
562 563 565 0
563 558 565 0
563 562 509 0
564 1189 509 0
565 558 567 0
565 567 571 0
566 556 571 0
567 566 571 0
567 568 2 0
568 567 558 0
569 527 573 0
570 557 571 0
570 569 573 0
572 570 573 0
574 528 579 0
574 577 578 0
574 578 580 0
576 561 527 0
576 575 577 0
577 574 579 0
577 575 578 0
578 1158 1159 0
580 578 642 0
581 433 590 0
582 585 625 0
582 616 618 0
583 433 638 0
583 584 590 0
583 638 645 0
584 434 590 0
584 583 585 0
584 585 586 0
584 586 588 0
585 582 593 0
585 583 625 0
586 18 587 0
586 585 593 0
586 587 588 0
586 593 594 0
587 430 589 0
588 587 589 0
591 586 594 0
591 594 595 0
591 595 597 0
592 593 618 0
593 582 618 0
593 592 594 0
594 592 595 0
595 21 596 0
595 592 615 0
595 596 597 0
596 21 601 0
596 410 597 0
596 601 603 0
598 37 599 0
598 599 603 0
598 601 602 0
598 602 604 0
599 37 600 0
599 410 603 0
601 21 612 0
601 598 603 0
602 22 604 0
602 601 612 0
605 602 607 0
605 607 608 0
605 608 609 0
606 607 612 0
606 612 614 0
606 614 1188 0
607 602 612 0
607 606 608 0
608 20 609 0
608 606 648 0
609 20 657 0
609 610 617 0
610 609 657 0
610 656 665 0
610 665 666 0
611 970 971 0
611 971 986 0
612 21 614 0
613 614 615 0
613 615 616 0
613 616 626 0
613 626 628 0
613 628 1188 0
614 21 615 0
614 613 1188 0
615 592 618 0
616 582 621 0
616 615 618 0
616 621 622 0
616 622 626 0
617 610 666 0
619 622 702 0
619 687 703 0
620 621 647 0
620 647 700 0
620 698 702 0
621 582 625 0
621 620 623 0
621 625 647 0
622 619 628 0
622 621 623 0
622 623 702 0
623 620 702 0
624 625 645 0
624 644 647 0
625 583 645 0
625 624 647 0
626 622 628 0
627 628 703 0
627 648 1188 0
628 619 703 0
628 627 1188 0
629 636 646 0
629 646 705 0
630 631 634 0
630 634 636 0
630 636 637 0
631 630 632 0
632 630 637 0
632 633 631 0
632 637 640 0
632 640 641 0
633 632 428 0
634 432 646 0
634 635 432 0
635 634 631 0
636 629 644 0
636 634 646 0
637 433 640 0
637 636 644 0
638 637 644 0
638 644 645 0
639 640 643 0
640 433 643 0
640 639 641 0
641 639 642 0
641 642 1159 0
642 578 1159 0
642 639 643 0
644 624 645 0
644 629 647 0
646 432 705 0
647 629 700 0
648 606 1188 0
648 627 651 0
648 651 686 0
649 982 984 0
650 651 688 0
650 688 689 0
651 627 687 0
651 650 652 0
651 652 686 0
651 687 688 0
652 20 686 0
652 650 655 0
652 655 656 0
652 656 657 0
653 684 685 0
653 685 977 0
654 655 659 0
654 659 978 0
654 679 680 0
655 650 659 0
655 654 680 0
656 610 657 0
656 655 680 0
658 659 660 0
658 660 663 0
658 663 984 0
659 650 689 0
659 658 978 0
660 659 689 0
660 689 690 0
660 690 691 0
661 662 663 0
661 663 691 0
662 649 984 0
663 660 691 0
663 662 984 0
664 665 681 0
664 681 682 0
664 682 1157 0
665 656 680 0
665 664 670 0
665 680 681 0
666 665 670 0
667 668 670 0
667 670 673 0
667 673 674 0
668 666 670 0
668 667 669 0
669 667 674 0
669 674 678 0
670 664 672 0
670 672 673 0
671 672 760 0
671 760 761 0
671 761 763 0
672 664 1157 0
672 671 673 0
673 671 763 0
674 13 777 0
674 673 763 0
674 677 678 0
675 706 988 0
675 709 713 0
675 713 716 0
675 716 762 0
676 706 762 0
676 759 760 0
676 760 1157 0
677 674 777 0
677 777 1153 0
677 1152 1185 0
678 677 1185 0
679 654 977 0
680 679 681 0
681 679 682 0
682 679 685 0
682 684 706 0
682 706 1157 0
683 684 972 0
683 968 988 0
684 653 972 0
684 682 685 0
684 683 706 0
685 679 977 0
687 619 693 0
687 627 703 0
688 687 690 0
689 688 690 0
690 687 693 0
691 690 692 0
691 1190 661 0
692 690 693 0
692 693 701 0
692 1190 691 0
693 619 697 0
693 697 701 0
694 696 701 0
694 697 698 0
694 698 699 0
695 694 699 0
696 6 701 0
696 694 695 0
697 619 702 0
697 694 701 0
698 620 700 0
698 697 702 0
699 698 700 0
699 704 695 0
700 629 705 0
704 699 700 0
704 700 705 0
706 675 762 0
706 676 1157 0
706 683 988 0
707 744 745 0
708 709 969 0
708 969 971 0
708 971 979 0
709 675 988 0
709 708 712 0
709 712 713 0
709 968 969 0
710 802 803 0
710 803 818 0
711 712 735 0
712 708 735 0
712 711 713 0
713 711 717 0
714 725 815 0
714 813 814 0
715 716 717 0
715 717 720 0
715 720 721 0
715 721 754 0
715 754 758 0
716 713 717 0
716 715 758 0
716 757 759 0
716 759 762 0
717 711 720 0
718 821 822 0
719 720 734 0
720 711 733 0
720 719 721 0
720 733 734 0
721 719 724 0
721 724 725 0
721 725 754 0
722 817 820 0
723 724 823 0
724 719 727 0
724 723 816 0
724 727 823 0
725 714 754 0
725 724 816 0
726 727 750 0
726 750 751 0
726 751 822 0
726 822 823 0
727 719 729 0
727 726 823 0
727 729 750 0
728 729 741 0
728 740 743 0
728 743 749 0
729 719 734 0
729 728 731 0
729 731 750 0
729 734 741 0
730 752 753 0
731 728 749 0
731 749 753 0
732 733 735 0
732 735 736 0
732 736 740 0
732 740 741 0
733 711 735 0
733 732 734 0
734 732 741 0
735 708 979 0
736 707 745 0
736 735 738 0
736 739 707 0
737 738 979 0
738 735 979 0
739 736 738 0
739 738 737 0
740 728 741 0
740 736 745 0
743 740 745 0
743 742 747 0
743 744 742 0
743 747 749 0
744 743 745 0
746 730 753 0
746 747 1156 0
746 1155 730 0
747 746 749 0
747 748 1156 0
748 3 1156 0
748 747 742 0
749 746 753 0
750 731 751 0
751 718 822 0
751 731 753 0
751 752 718 0
752 751 753 0
754 714 756 0
754 756 758 0
755 756 965 0
755 769 966 0
756 714 814 0
756 755 757 0
756 757 758 0
756 814 965 0
757 716 758 0
757 755 761 0
759 676 762 0
759 757 761 0
760 672 1157 0
760 759 761 0
761 755 966 0
763 761 966 0
764 763 966 0
764 769 773 0
764 773 776 0
765 781 783 0
765 783 786 0
765 786 945 0
765 825 826 0
766 794 795 0
766 795 809 0
767 768 812 0
767 796 797 0
768 767 770 0
768 769 965 0
769 755 965 0
769 764 966 0
769 768 770 0
769 770 778 0
770 767 780 0
771 774 964 0
771 829 831 0
771 831 833 0
771 833 1151 0
772 773 778 0
772 778 963 0
772 963 964 0
773 769 778 0
773 772 775 0
773 775 776 0
774 771 1151 0
774 775 964 0
774 1151 1152 0
774 1152 1153 0
775 772 964 0
775 774 776 0
776 774 1153 0
777 776 1153 0
778 770 779 0
778 779 963 0
779 770 780 0
779 780 781 0
779 781 826 0
779 826 963 0
780 767 797 0
781 765 826 0
781 780 797 0
782 783 796 0
782 796 800 0
782 800 801 0
782 801 809 0
782 809 810 0
783 781 797 0
783 782 810 0
785 786 810 0
786 783 810 0
786 785 788 0
786 788 945 0
787 788 790 0
787 790 939 0
787 936 944 0
787 944 945 0
788 785 790 0
788 787 945 0
789 790 791 0
789 791 792 0
789 792 930 0
789 930 939 0
790 785 791 0
790 789 939 0
791 784 792 0
791 785 795 0
791 794 784 0
792 7 929 0
792 793 7 0
792 929 930 0
793 792 784 0
794 791 795 0
795 785 810 0
796 767 808 0
796 783 797 0
798 800 808 0
798 803 807 0
799 801 807 0
800 796 808 0
800 798 801 0
801 798 807 0
801 811 809 0
802 799 807 0
803 798 805 0
803 802 807 0
803 805 818 0
804 805 806 0
804 806 815 0
804 815 816 0
804 816 817 0
804 817 818 0
805 798 806 0
805 804 818 0
806 798 808 0
806 808 812 0
806 812 813 0
806 813 815 0
808 767 812 0
809 795 810 0
809 811 766 0
811 801 799 0
812 768 814 0
813 714 815 0
813 812 814 0
814 768 965 0
815 725 816 0
816 723 817 0
817 723 820 0
817 819 818 0
818 819 710 0
819 817 722 0
820 723 823 0
820 821 722 0
821 820 822 0
822 820 823 0
824 826 962 0
824 829 964 0
825 765 941 0
825 941 942 0
825 942 962 0
826 824 963 0
826 825 962 0
827 828 943 0
827 943 961 0
828 827 835 0
828 829 962 0
828 942 943 0
829 771 964 0
829 824 962 0
829 828 835 0
830 831 835 0
830 835 837 0
830 837 1034 0
831 829 835 0
831 830 833 0
832 833 1052 0
832 1043 1154 0
833 830 834 0
833 832 1151 0
833 834 1052 0
834 830 1034 0
834 1030 1051 0
834 1051 1052 0
835 827 837 0
836 837 842 0
836 842 1023 0
836 1023 1033 0
836 1033 1034 0
837 827 839 0
837 836 1034 0
837 839 842 0
838 839 845 0
838 845 849 0
838 849 1053 0
839 827 961 0
839 838 841 0
839 841 842 0
840 841 1016 0
840 1016 1022 0
840 1021 1023 0
841 838 1016 0
841 840 842 0
842 840 1023 0
843 846 940 0
844 845 961 0
844 937 938 0
844 938 940 0
845 839 961 0
845 844 846 0
845 846 848 0
845 848 849 0
846 843 848 0
846 844 940 0
847 848 854 0
847 854 859 0
847 859 860 0
848 843 855 0
848 847 849 0
849 847 856 0
849 856 1053 0
850 12 1015 0
850 856 860 0
850 860 955 0
850 1015 1053 0
852 867 868 0
852 868 934 0
852 934 948 0
852 948 949 0
853 854 855 0
853 855 933 0
853 933 934 0
854 848 855 0
854 853 868 0
855 843 933 0
856 847 860 0
856 850 1053 0
857 860 861 0
857 861 864 0
857 864 866 0
857 866 951 0
857 951 955 0
858 859 867 0
858 867 871 0
858 871 873 0
859 854 868 0
859 858 861 0
860 857 955 0
860 859 861 0
861 858 863 0
861 863 864 0
862 863 900 0
862 900 901 0
862 901 960 0
862 956 957 0
863 858 873 0
863 862 957 0
863 872 900 0
864 863 957 0
865 866 956 0
865 956 959 0
865 959 1039 0
866 864 957 0
866 865 952 0
867 852 870 0
867 859 868 0
867 870 871 0
868 853 934 0
869 870 874 0
869 874 878 0
869 878 882 0
869 882 1150 0
870 852 949 0
870 869 871 0
871 869 1150 0
872 863 873 0
872 873 1150 0
872 882 899 0
872 899 900 0
873 871 1150 0
874 870 949 0
874 879 878 0
874 950 851 0
875 876 948 0
875 928 947 0
876 874 949 0
878 877 881 0
878 879 877 0
878 881 882 0
879 874 851 0
880 881 883 0
880 883 887 0
880 886 898 0
880 898 899 0
881 880 882 0
881 884 883 0
882 872 1150 0
882 880 899 0
883 11 887 0
883 884 11 0
884 881 877 0
886 880 887 0
886 887 889 0
886 889 893 0
886 893 897 0
886 897 898 0
887 11 889 0
889 888 892 0
889 890 888 0
889 892 893 0
890 889 11 0
891 892 904 0
891 904 923 0
891 923 924 0
892 891 893 0
892 905 904 0
893 891 903 0
894 991 1093 0
894 1093 1094 0
894 1094 1149 0
895 896 897 0
895 897 903 0
895 903 924 0
895 924 1148 0
895 1148 1149 0
896 895 1149 0
897 893 903 0
897 896 898 0
898 896 901 0
899 898 901 0
900 899 901 0
901 896 902 0
901 902 960 0
902 896 1149 0
902 1094 1099 0
903 891 924 0
904 885 910 0
904 905 885 0
904 910 923 0
905 892 888 0
906 1120 1127 0
906 1127 1128 0
907 914 917 0
907 917 1131 0
909 910 911 0
909 911 918 0
910 885 911 0
910 909 913 0
910 913 923 0
911 908 918 0
911 912 908 0
912 911 885 0
913 909 914 0
913 914 925 0
914 907 925 0
914 909 917 0
916 917 918 0
916 918 919 0
916 919 1129 0
916 1128 1131 0
917 909 918 0
917 916 1131 0
918 921 922 0
919 915 1129 0
919 918 922 0
919 920 915 0
920 919 922 0
921 4 922 0
921 918 908 0
923 913 924 0
924 913 925 0
924 925 927 0
924 927 1148 0
925 907 1114 0
926 927 1113 0
926 991 1148 0
927 925 1113 0
927 926 1148 0
928 875 948 0
928 929 947 0
929 7 947 0
929 928 932 0
930 929 931 0
930 931 939 0
931 929 932 0
931 932 933 0
931 933 935 0
931 935 936 0
931 936 939 0
932 928 934 0
933 843 935 0
933 932 934 0
934 928 948 0
935 843 940 0
936 787 939 0
936 935 938 0
936 938 944 0
937 844 943 0
937 941 944 0
938 935 940 0
938 937 944 0
941 765 945 0
941 937 942 0
942 828 962 0
942 937 943 0
943 844 961 0
944 941 945 0
946 875 947 0
948 876 949 0
950 874 876 0
950 876 875 0
951 12 955 0
951 866 952 0
951 952 1040 0
952 865 994 0
952 994 1040 0
953 954 1040 0
953 996 997 0
953 997 1012 0
954 951 1040 0
954 953 1012 0
956 862 960 0
956 866 957 0
958 959 1099 0
958 1091 1096 0
959 956 960 0
959 958 1096 0
959 960 1099 0
960 902 1099 0
963 824 964 0
967 968 972 0
967 972 974 0
967 974 986 0
968 683 972 0
968 709 988 0
968 967 969 0
969 967 971 0
970 737 979 0
971 967 986 0
971 970 979 0
972 653 976 0
972 976 985 0
973 974 980 0
974 972 985 0
974 987 986 0
975 976 977 0
975 977 978 0
975 978 981 0
975 980 985 0
976 653 977 0
976 975 985 0
977 654 978 0
978 658 981 0
980 974 985 0
980 975 981 0
980 981 982 0
980 983 973 0
981 658 984 0
982 981 984 0
983 980 982 0
983 982 649 0
986 987 611 0
987 974 973 0
989 1087 1090 0
989 1090 1112 0
990 991 1111 0
990 1092 1093 0
990 1111 1112 0
991 894 1148 0
991 926 1113 0
991 990 1093 0
992 998 999 0
992 999 1089 0
993 999 1039 0
993 1039 1096 0
994 865 1039 0
994 996 1040 0
995 996 998 0
995 998 1004 0
996 953 1040 0
996 994 998 0
996 995 997 0
997 156 1018 0
997 995 1000 0
998 992 1004 0
998 994 999 0
999 993 1089 0
999 994 1039 0
1000 995 1002 0
1000 1002 1011 0
1001 1002 1004 0
1001 1004 1005 0
1001 1005 1006 0
1001 1006 1007 0
1002 995 1004 0
1002 1001 1003 0
1002 1003 1011 0
1003 157 1011 0
1003 1001 1007 0
1004 992 1085 0
1005 1004 1085 0
1005 1085 1086 0
1006 143 1183 0
1006 1005 1010 0
1007 1006 1183 0
1008 1009 1074 0
1009 1008 1058 0
1009 1010 1086 0
1010 1005 1086 0
1010 1009 1054 0
1011 157 1038 0
1012 997 1018 0
1013 1014 1017 0
1013 1017 1020 0
1013 1020 1021 0
1013 1021 1022 0
1014 1012 1017 0
1014 1013 1015 0
1015 1013 1022 0
1015 1016 1053 0
1016 838 1053 0
1016 1015 1022 0
1017 1012 1018 0
1017 1018 1037 0
1018 156 1037 0
1019 1020 1036 0
1019 1025 1026 0
1019 1036 1042 0
1020 1017 1036 0
1020 1019 1021 0
1021 840 1022 0
1021 1019 1026 0
1023 16 1033 0
1023 1021 1026 0
1024 119 1029 0
1024 1023 1026 0
1025 1019 1027 0
1025 1024 1026 0
1027 1019 1042 0
1028 16 1029 0
1028 121 1032 0
1030 834 1034 0
1030 1028 1031 0
1030 1031 1051 0
1031 1028 1032 0
1031 1032 1050 0
1031 1043 1051 0
1032 125 1050 0
1033 16 1034 0
1035 1036 1037 0
1035 1037 1038 0
1035 1038 1187 0
1035 1041 1042 0
1036 1017 1037 0
1036 1035 1042 0
1037 156 1038 0
1038 157 1186 0
1038 1186 1187 0
1039 959 1096 0
1041 112 1042 0
1041 1035 1187 0
1043 832 1052 0
1043 1031 1044 0
1043 1044 1048 0
1043 1048 1154 0
1044 17 1047 0
1044 1031 1050 0
1044 1047 1048 0
1045 1046 1185 0
1046 26 1185 0
1046 1045 1047 0
1047 1045 1048 0
1048 1045 1154 0
1049 1044 1050 0
1051 1043 1052 0
1054 162 1182 0
1054 1009 1058 0
1055 1056 1058 0
1055 1058 1067 0
1056 1054 1058 0
1056 1055 1057 0
1057 1055 1061 0
1057 1061 1063 0
1058 1008 1067 0
1059 1078 1079 0
1059 1079 1083 0
1060 1064 1075 0
1060 1075 1077 0
1060 1077 1147 0
1061 1055 1066 0
1061 1066 1075 0
1062 179 1063 0
1062 1063 1064 0
1062 1064 1137 0
1062 1137 1143 0
1062 1143 1144 0
1063 1061 1064 0
1064 1060 1137 0
1064 1061 1075 0
1065 1066 1070 0
1065 1070 1082 0
1065 1082 1083 0
1066 1055 1067 0
1066 1065 1075 0
1066 1067 1070 0
1067 1008 1069 0
1067 1069 1070 0
1068 1069 1104 0
1068 1104 1125 0
1068 1125 1126 0
1069 1008 1072 0
1069 1068 1082 0
1069 1072 1104 0
1070 1069 1082 0
1071 1072 1098 0
1071 1097 1100 0
1071 1100 1103 0
1071 1103 1104 0
1072 1008 1074 0
1072 1071 1104 0
1072 1074 1098 0
1073 1074 1086 0
1073 1085 1088 0
1073 1087 1097 0
1073 1097 1098 0
1074 1009 1086 0
1074 1073 1098 0
1075 1065 1077 0
1076 1145 1147 0
1077 1065 1079 0
1077 1076 1147 0
1077 1078 1076 0
1078 1077 1079 0
1079 1065 1083 0
1080 1084 1133 0
1081 1082 1126 0
1081 1084 1083 0
1081 1126 1133 0
1082 1068 1126 0
1082 1081 1083 0
1083 1084 1059 0
1084 1081 1133 0
1085 992 1088 0
1085 1073 1086 0
1087 989 1097 0
1087 1073 1088 0
1087 1088 1089 0
1087 1089 1090 0
1088 992 1089 0
1089 993 1096 0
1090 1089 1091 0
1090 1091 1095 0
1090 1095 1112 0
1091 958 1094 0
1091 1089 1096 0
1091 1092 1095 0
1092 990 1095 0
1092 1091 1094 0
1093 1092 1094 0
1094 902 1149 0
1094 958 1099 0
1095 990 1112 0
1097 989 1100 0
1097 1071 1098 0
1100 989 1102 0
1100 1102 1105 0
1101 1103 1105 0
1101 1105 1108 0
1101 1108 1123 0
1101 1123 1124 0
1101 1124 1125 0
1102 989 1112 0
1103 1100 1105 0
1103 1101 1125 0
1104 1103 1125 0
1105 1102 1108 0
1106 1119 1136 0
1107 1108 1110 0
1107 1110 1118 0
1107 1118 1119 0
1107 1119 1121 0
1107 1121 1123 0
1108 1102 1110 0
1108 1107 1123 0
1109 1110 1111 0
1109 1111 1113 0
1109 1113 1114 0
1109 1114 1117 0
1109 1117 1118 0
1110 1102 1112 0
1110 1109 1118 0
1111 991 1113 0
1111 1110 1112 0
1113 925 1114 0
1114 907 1116 0
1114 1116 1117 0
1115 1116 1132 0
1115 1127 1136 0
1116 907 1131 0
1116 1115 1117 0
1116 1131 1132 0
1117 1115 1118 0
1118 1115 1136 0
1119 1118 1136 0
1119 1122 1121 0
1120 1106 1136 0
1121 10 1135 0
1121 1122 10 0
1122 1119 1106 0
1123 1121 1135 0
1124 1123 1135 0
1125 1124 1126 0
1126 1124 1133 0
1127 1115 1132 0
1127 1120 1136 0
1128 916 1129 0
1128 1127 1132 0
1128 1130 906 0
1130 1128 1129 0
1130 1129 915 0
1131 1128 1132 0
1133 1134 1080 0
1134 1124 1135 0
1134 1133 1124 0
1137 1060 1146 0
1137 1138 1143 0
1138 178 1143 0
1138 1137 1142 0
1139 1138 1141 0
1140 189 1141 0
1140 1141 1142 0
1141 1138 1142 0
1142 1137 1146 0
1143 178 1144 0
1145 9 1146 0
1145 1146 1147 0
1146 1060 1147 0
1148 894 1149 0
1151 832 1154 0
1152 677 1153 0
1152 1151 1154 0
1152 1154 1185 0
1154 1045 1185 0
1155 746 1156 0
1158 428 1159 0
1158 578 575 0
1161 82 1162 0
1164 330 1171 0
1164 403 1165 0
1165 336 1166 0
1165 403 1173 0
1167 1164 1168 0
1167 1168 1169 0
1167 1169 1170 0
1168 315 1172 0
1168 1164 1171 0
1169 353 1170 0
1169 1168 1172 0
1173 391 1174 0
1175 1176 1 0
1176 375 369 0
1176 1175 370 0
1180 213 1181 0
1182 148 1183 0
1186 15 1187 0
1189 525 511 0
1189 564 525 0
1190 692 6 0
1191 292 283 0
1191 296 292 0
1192 271 266 0

End
