MeshVersionFormatted 1

Dimension
2

Vertices
101
0.0 0.0 1
1000.0 0.0 1
4000.0 0.0 1
4000.0 2000.0 1
1000.0 2000.0 1
0.0 2000.0 1
1000.0 1000.0 1
0.0 1000.0 1
0.0 1500.0 1
500.0 2000.0 1
1000.0 1500.0 1
500.0 1250.0 0
0.0 1250.0 1
1000.0 1250.0 1
2625.0 1125.0 0
2500.0 2000.0 1
2500.0 0.0 1
1807.6923076923076 1125.0 0
1432.8640109890114 1375.0000000000007 0
1750.0 2000.0 1
1831.0004748784997 1565.9387464416925 0
2125.0 2000.0 1
2312.5 1556.4051025334038 0
2312.5 2000.0 1
1937.5000000000002 1810.4011019845561 0
2067.2199161244775 1332.3666971584612 0
2357.9045018335473 1260.4086048724657 0
2216.3461538461534 650.0534117124712 0
2136.7437722448335 990.108674307879 0
2430.082372114021 879.4307540919748 0
3250.0 0.0 1
3022.222495089482 609.5680528274897 0
2612.519983429502 495.1639721321847 0
2759.643682835444 817.9868189006827 0
3310.777469910049 1242.7232738892187 0
4000.0 1000.0 1
3087.922397628528 961.956712955258 0
2947.5775102205066 1302.1813187631637 0
3550.5256024179553 823.5985408793221 0
3274.9560635574803 744.7669314071104 0
3625.0 0.0 1
3520.9949447913264 405.7617465275378 0
4000.0 500.0 1
2006.7956078158606 1141.9022318939149 0
4000.0 250.0 1
3733.20337875907 243.94493186139485 0
3731.385549973606 600.8543075452508 0
3250.0 2000.0 1
3185.043357999283 1613.7094134189347 0
3625.0 1738.3352440569145 0
3625.0 2000.0 1
4000.0 1500.0 1
3455.30626511189 1498.506660139451 0
3683.399629099722 1200.8997011077563 0
3727.7303522282177 1471.0875569552977 0
3375.485270104248 1780.2923601419657 0
2772.19501777816 1682.1382009658525 0
2875.0 2000.0 1
2610.194441374375 1426.9250489206977 0
2510.986183238057 1733.9323523322898 0
2875.0 0.0 1
3062.5000000000014 277.27768611044667 0
2779.5710323120074 266.5649554628749 0
4000.0 1750.0 1
1688.56445875839 1352.3825491956768 0
1375.0 2000.0 1
1000.0 1750.0 1
625.0 1625.0 0
321.42857142857144 1517.857142857143 0
0.0 1750.0 1
284.69967532467496 1805.600649350649 0
250.0 2000.0 1
1562.499999999999 1740.4220890447214 0
1279.376058817174 1635.1565743710837 0
1421.055287483847 951.302521110289 0
1258.2018647573605 1167.8546494482755 0
1774.03426548231 682.7595303682565 0
1750.0 0.0 1
1670.582957256002 913.0340617256383 0
1970.6136124613324 334.0368238566508 0
2125.0 0.0 1
2315.453361086585 319.43991619510905 0
1305.758873346146 433.5010382350699 0
1000.0 500.0 1
1000.0 750.0 1
0.0 500.0 1
500.0 625.0 0
1636.9842299985744 375.7342425755307 0
1786.418085786051 215.81799440917067 0
0.0 750.0 1
500.0 0.0 1
0.0 250.0 1
250.0 0.0 1
330.35714285714283 330.35714285714283 0
689.333017975402 319.83207190160823 0
1276.9852502138044 711.6449210211485 0
343.75 937.5 0
671.875 968.75 0
1375.0 0.0 1
1187.4999999999998 192.33178997089348 0
1000.0 250.0 1

Edges
45
1 92 1
1 93 1
2 91 1
2 99 1
2 101 1
3 41 1
3 45 1
4 51 1
4 64 1
5 10 1
5 66 1
5 67 1
6 70 1
6 72 1
7 14 1
7 85 1
8 13 1
8 90 1
9 13 1
9 70 1
10 72 1
11 14 1
11 67 1
16 24 1
16 58 1
17 61 1
17 81 1
20 22 1
20 66 1
22 24 1
31 41 1
31 61 1
36 43 1
36 52 1
43 45 1
48 51 1
48 58 1
52 64 1
78 81 1
78 99 1
84 85 1
84 101 1
86 90 1
86 92 1
91 93 1

Triangles
163
2 99 100 0
3 45 46 0
6 70 71 0
7 14 98 0
7 75 76 0
7 85 96 0
8 90 97 0
9 13 69 0
10 67 5 0
11 14 76 0
11 19 74 0
11 67 68 0
12 11 68 0
12 13 97 0
12 14 11 0
12 68 69 0
12 97 98 0
13 8 97 0
13 12 69 0
14 7 76 0
14 12 98 0
15 27 30 0
15 30 34 0
15 34 37 0
15 37 38 0
15 38 59 0
16 24 60 0
17 61 63 0
17 63 82 0
18 26 65 0
18 29 44 0
18 65 75 0
18 75 79 0
19 11 76 0
19 65 73 0
19 73 74 0
20 66 73 0
21 23 25 0
21 25 73 0
22 20 25 0
23 21 26 0
23 22 25 0
23 24 22 0
23 26 27 0
23 27 59 0
23 59 60 0
24 23 60 0
25 20 73 0
26 18 44 0
26 21 65 0
27 15 59 0
27 26 44 0
27 29 30 0
28 29 77 0
28 77 80 0
28 80 82 0
29 18 79 0
29 27 44 0
29 28 30 0
30 28 33 0
30 33 34 0
31 41 42 0
31 42 62 0
32 33 63 0
33 28 82 0
33 32 34 0
34 32 37 0
35 37 40 0
35 39 54 0
36 39 47 0
36 52 54 0
37 32 40 0
37 35 38 0
38 35 49 0
38 49 57 0
38 57 59 0
39 35 40 0
39 36 54 0
39 40 42 0
39 42 47 0
40 32 42 0
41 3 46 0
42 32 62 0
42 41 46 0
42 46 47 0
43 36 47 0
45 43 46 0
46 43 47 0
48 49 56 0
49 35 53 0
49 53 56 0
49 58 57 0
50 51 56 0
50 53 55 0
51 48 56 0
51 64 4 0
53 35 54 0
53 50 56 0
53 54 55 0
54 52 55 0
55 64 50 0
57 16 60 0
57 58 16 0
58 49 48 0
59 57 60 0
61 31 62 0
61 62 63 0
62 32 63 0
63 33 82 0
64 51 50 0
64 55 52 0
65 19 75 0
65 21 73 0
66 67 74 0
67 10 68 0
67 11 74 0
67 66 5 0
68 10 71 0
69 68 71 0
69 70 9 0
70 69 71 0
71 72 6 0
72 71 10 0
73 66 74 0
75 7 96 0
75 19 76 0
77 29 79 0
77 79 96 0
78 81 89 0
79 75 96 0
80 77 88 0
80 81 82 0
80 88 89 0
81 17 82 0
81 80 89 0
83 88 96 0
83 101 100 0
84 83 96 0
84 85 87 0
84 87 95 0
85 7 98 0
85 84 96 0
86 92 94 0
87 85 98 0
87 86 94 0
87 90 86 0
87 94 95 0
88 77 96 0
89 99 78 0
90 87 97 0
91 2 95 0
92 93 94 0
93 91 94 0
93 92 1 0
94 91 95 0
95 101 84 0
97 87 98 0
99 83 100 0
99 88 83 0
99 89 88 0
100 101 2 0
101 83 84 0
101 95 2 0

End
