MeshVersionFormatted 1

Dimension
2

Vertices
244
0.0 0.0 1
0.5 0.0 1
0.5 0.5 1
0.0 0.5 1
0.25 0.0 1
0.5 0.25 1
0.25 0.5 1
0.0 0.25 1
0.125 0.5 1
0.5 0.125 1
0.5 0.1875 1
0.375 0.0 1
0.125 0.0 1
0.27974562609933595 0.3144616679423175 0
0.375 0.5 1
0.1875 0.5 1
0.15502905214504234 0.45026257171929573 0
0.12039907967183211 0.3710843286715247 0
0.17544826005167868 0.31805366538400703 0
0.0625 0.5 1
0.0 0.125 1
0.10413541715241763 0.2075260213555562 0
0.0 0.1875 1
0.05150509362831186 0.28012387827471913 0
0.05651503266859769 0.3364758511667575 0
0.0625 0.0 1
0.06087106388726974 0.0888563601917642 0
0.0 0.0625 1
0.10794124624125381 0.05216149291625524 0
0.1875 0.0 1
0.4136008081737183 0.13574517311687848 0
0.5 0.0625 1
0.4375 0.0 1
0.5 0.375 1
0.5 0.3125 1
0.5 0.4375 1
0.4375 0.5 1
0.0 0.4375 1
0.22809268325105644 0.24585610717056677 0
0.384983599178351 0.2826501449187068 0
0.30970943221431946 0.27541395878114255 0
0.2902959906310097 0.23465374047341647 0
0.39550042303318544 0.22785430633455656 0
0.4551730559579111 0.15574367248950144 0
0.24376182736380242 0.1663452546073425 0
0.19126676857021552 0.2156028253653079 0
0.28511540428511767 0.3436787048859756 0
0.17309685003779715 0.4135411760502961 0
0.1362865971667377 0.4118880897277583 0
0.12707980266809046 0.3374910943460536 0
0.20930169247072633 0.10623198062817696 0
0.1286533507734696 0.19778288964124546 0
0.13204346614256593 0.22398427232472456 0
0.055833898560068616 0.21570968756216805 0
0.13262549244374827 0.3218684960664727 0
0.05736983827332706 0.3931756648812995 0
0.049704563511859125 0.1555026965063132 0
0.15406571831159746 0.08671814012918908 0
0.09428308622274605 0.13174572084124966 0
0.19896533453492873 0.31027764894082044 0
0.3896614029435858 0.05555591790211527 0
0.44107465942141033 0.09289671878862124 0
0.3968490603406106 0.16351765260072412 0
0.4299494556195099 0.40798765650998814 0
0.4131312288798673 0.4527453208703737 0
0.3521527425879044 0.4469683686218458 0
0.2975621487409677 0.4452952034135574 0
0.30537929834297284 0.5 1
0.2692303079131845 0.28311356068352944 0
0.22688418790456885 0.29482177230576706 0
0.34240788956532897 0.3445888564291771 0
0.4453360262064948 0.20905535804300387 0
0.36176379447492557 0.15038781684001834 0
0.3441897568206762 0.2494804538787002 0
0.2920832209568234 0.14212098419672003 0
0.3405958484497516 0.0486712880971526 0
0.21344765873209218 0.1615983314893768 0
0.2826822343971515 0.05589241292537739 0
0.16221615596560177 0.22557932281930657 0
0.3115926396588807 0.3605567990211636 0
0.3268714588475171 0.34308699065483683 0
0.23984591735032873 0.4247673171866135 0
0.20268228563408525 0.45538357959436265 0
0.08873678871500108 0.4397463627707364 0
0.1543077459076331 0.3897371525830312 0
0.1740310641779303 0.38505201536736583 0
0.14331679587092588 0.3325376512055097 0
0.1923667911703279 0.3350104823283099 0
0.1876235133568885 0.37198118339660713 0
0.1891974535023831 0.18129849530537953 0
0.1804742869244164 0.25013608117264063 0
0.14359326129081929 0.2995217978965779 0
0.42057491281906423 0.1684209876175383 0
0.3939651695910517 0.4181366020481757 0
0.2885170652163435 0.3931829644356985 0
0.2552446551324071 0.321849889272675 0
0.35861675255113923 0.20876656525372383 0
0.3725900331220818 0.13855465844356454 0
0.38676082895826935 0.12720350353458662 0
0.35263080566016247 0.16955183491618434 0
0.3219673958945845 0.16092441626061652 0
0.3259809871365596 0.12693087234683484 0
0.2417138845951973 0.3663247726078257 0
0.3177243106825505 0.3195017956853355 0
0.2038379561348453 0.39135541222024356 0
0.13758967998459715 0.3517030984329982 0
0.15795391104636217 0.32495159200478574 0
0.1537610477372534 0.1660650700864625 0
0.1475665451675918 0.14346525859563608 0
0.10147499219934812 0.25240874808722125 0
0.3594965802508127 0.4092447277692729 0
0.33168763183998184 0.4126784590965922 0
0.34524839240673616 0.12937810521243198 0
0.38966971292672586 0.1448244442686174 0
0.3930649056575582 0.10397541885200412 0
0.343731191812827 0.18700810008836602 0
0.32571490250394175 0.20916337529028975 0
0.1312866524466401 0.3878338182222226 0
0.2047308448968867 0.3585115716047552 0
0.1416504093073018 0.3718751777483891 0
0.1776090026348119 0.08769076887254293 0
0.17010467821989647 0.36713111095335577 0
0.0 0.3125 1
0.4410179867349123 0.26460725352053377 0
0.1291478884217692 0.1650759401633347 0
0.3036334037672281 0.16523820297596892 0
0.31767518365034475 0.11133603869866468 0
0.38015312449998523 0.1758166683769674 0
0.3219971160160583 0.1791816529942236 0
0.17213119669356644 0.20186377826639135 0
0.32102490136375134 0.08727769007175878 0
0.15640256863603413 0.05259235658305256 0
0.35823576020365067 0.09057168425715936 0
0.1498243247514832 0.20004415998089503 0
0.42236489797585147 0.3748728838199206 0
0.33732475220699043 0.16738941797399357 0
0.17968979627836393 0.3006351219000372 0
0.12880592540418706 0.2816636317336654 0
0.10330732068294733 0.39376526815878743 0
0.09113501845550548 0.3600432597830479 0
0.22022536538713036 0.33077323512682505 0
0.24872059905973795 0.09949382506933215 0
0.09755378969893105 0.3004502658856568 0
0.2904488890173183 0.109353372392212 0
0.35759373065113953 0.3137545058304401 0
0.1825838065972267 0.3542076802754299 0
0.17172894957201942 0.3376245020050758 0
0.26425157138095406 0.13730435651988127 0
0.21544519279067859 0.05742917009265282 0
0.15603299727021822 0.34334282032232494 0
0.19861010531766063 0.13653068624131248 0
0.3646973168193376 0.1844551966573882 0
0.18954589110531153 0.15777458545934284 0
0.15804528226561368 0.11226552220517005 0
0.43016878573464173 0.3163449173420347 0
0.4044175089425587 0.19318322556147852 0
0.22884711470344765 0.13512945319258335 0
0.3673428825765564 0.3616402576940705 0
0.1797289529508229 0.11968958946719349 0
0.38980728290751954 0.32724580906554807 0
0.13007484672439876 0.14876141074648638 0
0.08822515440825203 0.17308471698963226 0
0.12350674339345902 0.11943248025509749 0
0.386619124945623 0.3521268183042134 0
0.13553036669951465 0.10147058037713892 0
0.31544124564548065 0.14463280387922833 0
0.33469668833524496 0.35988615949492125 0
0.32893676494183144 0.38327826694973866 0
0.3472900228401308 0.37063993256921396 0
0.34143167360237303 0.28967772769217215 0
0.17388324725486412 0.14117889623950808 0
0.14921193193000093 0.12762185463590933 0
0.3125 0.0 1
0.27714510931603703 0.16493182761993708 0
0.14516348949257546 0.25184677814040246 0
0.38837070090200304 0.3953727276054209 0
0.3698781291361789 0.11766084268801608 0
0.31594075024097185 0.30267316324196997 0
0.16124016503957242 0.28197760909618746 0
0.3450654252833505 0.32726780795656796 0
0.19549991573002967 0.2798204343935014 0
0.16965459367543706 0.1618462324025285 0
0.38082441247133686 0.19873433453873962 0
0.14116603811216064 0.11721613990876484 0
0.44648275487354094 0.3581906092308932 0
0.33837074115381444 0.1101143321061709 0
0.09700141202820119 0.33293003078138217 0
0.16019487521167838 0.37558008488141903 0
0.11701185040257558 0.18005950327222361 0
0.15526176450526447 0.3591010554137955 0
0.1632413223229357 0.18163005963063336 0
0.3492230969766597 0.14303177679535053 0
0.4690130616056095 0.4104230938870818 0
0.4130788240758808 0.42302450682064946 0
0.3756188348007634 0.15776914354186197 0
0.441373703817089 0.43024801512909633 0
0.36665906120284625 0.3843522351756182 0
0.11219581783097016 0.15469860900504548 0
0.14311506586029202 0.15762879211824107 0
0.4107558131776492 0.3569950929030415 0
0.3867299758511641 0.36747443354166587 0
0.260494441683788 0.19981038157950326 0
0.127298487044202 0.30888470835179554 0
0.3545902415025789 0.11740610917204651 0
0.33372407317648556 0.14875671132087273 0
0.30194927825153034 0.317770787813839 0
0.10828572976012335 0.09585331594739918 0
0.31131709812091396 0.33370593230248063 0
0.13242398641081274 0.07757874647169145 0
0.3684633400623952 0.37302257353037 0
0.45737371284255895 0.4506554594087604 0
0.35284032413250777 0.3538528406846908 0
0.36562734134530744 0.3407944501699377 0
0.5 0.46875 1
0.4126774880622502 0.3944720880688831 0
0.3323831450418248 0.32891862641539893 0
0.2967556449381515 0.19290501725884723 0
0.22112553830407722 0.1949692245559682 0
0.1601623127271413 0.3064628043672953 0
0.30928634809083605 0.12790399939600955 0
0.1450404027689726 0.3151273344050742 0
0.36710916756524253 0.1690353402611432 0
0.15958140912874375 0.15451564028158246 0
0.33582239012489384 0.3176437202967201 0
0.16781830137937515 0.35292403346483237 0
0.14054682767628993 0.17861699908087617 0
0.3593418192480247 0.13123581249581667 0
0.0 0.375 1
0.11408955917433414 0.34801287935266234 0
0.4390383525698688 0.3896144886996767 0
0.3991981803990207 0.3764993477720206 0
0.35038680681206424 0.15677147066992905 0
0.13653427133309212 0.1326842002750298 0
0.11631768485418892 0.32386987065808504 0
0.12069786408060608 0.13809300747393366 0
0.29350611189085013 0.2979579662999668 0
0.5 0.40625 1
0.183219240487686 0.4336250452136258 0
0.19963204457744507 0.4226847683610457 0
0.15599876765348444 0.13801799900224906 0
0.16446396776349573 0.12780776092239726 0
0.34755667687064173 0.3918483641075035 0
0.36105969676745553 0.16018576752190478 0
0.3805273561640926 0.3790645539181349 0

Edges
34
1 26 1
1 28 1
2 32 1
2 33 1
3 37 1
3 214 1
4 20 1
4 38 1
5 30 1
5 173 1
6 11 1
6 35 1
7 16 1
7 68 1
8 23 1
8 123 1
9 16 1
9 20 1
10 11 1
10 32 1
12 33 1
12 173 1
13 26 1
13 30 1
15 37 1
15 68 1
21 23 1
21 28 1
34 35 1
34 237 1
36 214 1
36 237 1
38 228 1
123 228 1

Triangles
452
5 149 30 0
6 72 11 0
7 83 82 0
8 54 24 0
9 20 84 0
9 84 17 0
10 11 44 0
10 44 62 0
12 33 61 0
13 30 132 0
13 132 29 0
14 69 236 0
15 66 65 0
16 9 17 0
17 48 238 0
17 84 49 0
18 120 118 0
18 139 140 0
18 140 229 0
19 60 88 0
19 107 219 0
19 147 107 0
20 38 84 0
21 27 57 0
23 21 57 0
24 25 123 0
24 54 110 0
24 123 8 0
25 24 143 0
25 228 123 0
26 13 29 0
26 28 1 0
26 29 27 0
27 59 57 0
27 207 59 0
28 26 27 0
28 27 21 0
29 132 209 0
30 149 132 0
31 44 93 0
31 93 63 0
31 99 115 0
31 114 99 0
32 10 62 0
32 33 2 0
32 62 33 0
33 62 61 0
34 185 35 0
35 124 6 0
35 185 155 0
36 193 237 0
38 20 4 0
39 46 218 0
39 69 70 0
39 181 91 0
39 202 42 0
40 43 124 0
41 69 42 0
41 170 178 0
41 178 236 0
42 117 74 0
42 202 217 0
43 40 74 0
43 97 183 0
44 31 62 0
44 72 93 0
45 77 157 0
45 157 148 0
45 174 202 0
45 202 218 0
46 79 130 0
47 14 206 0
47 96 14 0
48 17 49 0
48 85 86 0
48 86 105 0
48 105 239 0
50 106 229 0
50 229 234 0
51 142 157 0
51 159 121 0
52 22 189 0
52 189 226 0
52 226 134 0
53 22 52 0
53 52 134 0
53 79 175 0
54 8 23 0
54 23 57 0
54 57 162 0
55 50 234 0
55 87 50 0
56 25 140 0
57 59 162 0
58 121 154 0
59 163 235 0
60 137 181 0
61 133 76 0
62 31 115 0
62 115 61 0
63 195 114 0
64 194 215 0
64 196 194 0
65 37 15 0
65 94 194 0
65 196 211 0
66 15 68 0
66 94 65 0
67 68 7 0
67 95 112 0
68 67 66 0
69 14 96 0
69 39 42 0
69 41 236 0
70 60 181 0
70 69 96 0
70 96 141 0
71 216 180 0
72 43 156 0
72 44 11 0
72 124 43 0
73 195 243 0
73 227 98 0
73 232 192 0
74 40 170 0
74 41 42 0
74 97 43 0
74 170 41 0
75 126 174 0
75 144 220 0
75 148 144 0
75 166 126 0
76 12 61 0
76 173 12 0
77 45 218 0
77 151 157 0
78 149 5 0
78 173 76 0
79 46 91 0
80 47 208 0
80 81 167 0
80 167 168 0
81 71 167 0
81 80 208 0
81 208 216 0
82 67 7 0
82 83 239 0
83 7 16 0
83 16 17 0
83 17 238 0
83 238 239 0
84 38 56 0
84 56 139 0
84 139 49 0
85 48 49 0
85 188 86 0
86 188 122 0
87 55 221 0
87 107 150 0
88 119 146 0
89 86 122 0
90 46 130 0
90 153 77 0
90 182 153 0
90 218 46 0
91 46 39 0
91 179 175 0
92 219 221 0
93 156 63 0
94 66 111 0
95 47 80 0
95 67 82 0
95 80 168 0
97 116 152 0
97 117 116 0
98 99 114 0
98 195 73 0
99 98 177 0
99 177 115 0
100 136 232 0
100 232 243 0
102 113 205 0
102 220 127 0
103 47 95 0
103 82 105 0
103 95 82 0
103 96 47 0
103 141 96 0
105 82 239 0
105 86 89 0
106 18 229 0
106 50 87 0
107 87 221 0
107 147 150 0
108 182 191 0
108 191 226 0
109 240 223 0
110 22 53 0
110 53 175 0
110 54 22 0
110 175 138 0
111 66 112 0
111 242 197 0
112 66 67 0
112 168 242 0
113 186 204 0
113 192 205 0
113 227 192 0
114 31 63 0
114 195 98 0
116 100 152 0
116 117 129 0
116 129 136 0
117 42 217 0
117 97 74 0
117 217 129 0
118 49 139 0
118 85 49 0
119 88 141 0
119 89 146 0
119 103 105 0
119 105 89 0
120 18 106 0
120 85 118 0
120 106 190 0
120 188 85 0
121 58 132 0
121 149 51 0
122 146 89 0
122 225 146 0
124 72 6 0
124 155 40 0
125 198 161 0
125 199 226 0
126 129 217 0
126 166 101 0
126 217 174 0
127 144 131 0
128 63 156 0
128 152 222 0
128 156 183 0
128 222 195 0
129 101 136 0
129 126 101 0
130 191 90 0
131 76 133 0
131 78 76 0
131 133 186 0
131 144 78 0
131 186 127 0
132 58 209 0
133 61 115 0
133 177 204 0
134 79 53 0
134 130 79 0
135 185 230 0
135 215 231 0
136 100 116 0
136 101 205 0
136 205 232 0
137 19 219 0
137 60 19 0
138 92 203 0
138 175 179 0
139 18 118 0
139 56 140 0
140 25 187 0
140 187 229 0
141 60 70 0
141 88 60 0
141 103 119 0
142 51 149 0
142 144 148 0
142 148 157 0
143 24 110 0
143 110 138 0
143 138 203 0
143 187 25 0
143 203 234 0
143 234 187 0
144 127 220 0
144 142 78 0
145 160 213 0
145 170 40 0
145 180 224 0
146 147 88 0
147 19 88 0
147 146 225 0
148 75 174 0
148 174 45 0
149 78 142 0
149 121 132 0
150 106 87 0
150 147 225 0
150 190 106 0
151 51 157 0
151 77 153 0
151 153 171 0
152 100 222 0
152 128 183 0
154 159 241 0
154 165 58 0
155 124 35 0
155 185 200 0
156 43 183 0
156 93 72 0
158 213 164 0
159 51 151 0
159 151 171 0
159 154 121 0
159 171 241 0
160 40 155 0
160 145 40 0
160 155 200 0
160 164 213 0
160 200 164 0
161 198 235 0
161 199 125 0
162 22 54 0
162 59 198 0
162 189 22 0
163 59 207 0
163 184 233 0
163 207 165 0
163 233 235 0
164 200 201 0
164 201 158 0
166 75 220 0
166 205 101 0
167 71 212 0
167 212 169 0
168 112 95 0
168 167 169 0
168 169 242 0
169 197 242 0
169 210 197 0
169 212 158 0
171 153 182 0
171 182 223 0
171 223 240 0
171 240 241 0
172 154 241 0
172 184 154 0
172 233 184 0
173 78 5 0
174 217 202 0
175 79 91 0
176 94 111 0
176 231 215 0
177 98 227 0
177 133 115 0
178 104 206 0
178 170 224 0
178 206 236 0
178 224 104 0
179 92 138 0
179 181 137 0
179 219 92 0
180 213 71 0
180 216 224 0
181 39 70 0
181 179 91 0
182 90 191 0
182 108 223 0
183 97 152 0
184 163 165 0
184 165 154 0
185 34 193 0
185 135 200 0
186 102 127 0
186 113 102 0
186 133 204 0
188 120 190 0
188 190 122 0
189 125 226 0
190 150 225 0
191 130 134 0
191 134 226 0
193 34 237 0
193 36 211 0
193 64 230 0
193 211 196 0
194 94 215 0
195 63 128 0
195 222 243 0
196 64 193 0
196 65 194 0
197 176 111 0
197 244 176 0
198 59 235 0
198 125 189 0
198 189 162 0
199 108 226 0
199 161 109 0
200 231 201 0
201 231 244 0
202 39 218 0
203 55 234 0
203 221 55 0
204 177 227 0
205 166 102 0
205 192 232 0
206 14 236 0
206 208 47 0
207 27 29 0
208 104 216 0
208 206 104 0
209 58 165 0
209 165 207 0
209 207 29 0
210 158 201 0
210 169 158 0
210 201 244 0
211 36 214 0
211 37 65 0
212 71 213 0
213 158 212 0
213 180 145 0
214 3 37 0
214 37 211 0
215 94 176 0
215 135 230 0
215 230 64 0
216 71 81 0
216 104 224 0
218 90 77 0
219 107 221 0
219 179 137 0
220 102 166 0
221 203 92 0
222 100 243 0
223 108 199 0
223 199 109 0
224 170 145 0
225 122 190 0
227 73 192 0
227 113 204 0
228 25 56 0
228 56 38 0
229 187 234 0
230 185 193 0
231 176 244 0
231 200 135 0
232 73 243 0
233 109 161 0
233 161 235 0
233 172 109 0
238 48 239 0
240 109 172 0
240 172 241 0
242 111 112 0
244 197 210 0

End
