MeshVersionFormatted 1

Dimension
2

Vertices
1002
0.0 0.0 1
0.5 0.0 1
0.5 0.5 1
0.0 0.5 1
0.25 0.0 1
0.5 0.25 1
0.0 0.25 1
0.0 0.375 1
0.125 0.5 1
0.19358731476494348 0.2844805443049165 0
0.3257830434564155 0.29553327470915947 0
0.388379698148121 0.17747833968299312 0
0.34043981374003496 0.21656758272036628 0
0.5 0.125 1
0.5 0.1875 1
0.29351335143878005 0.19111601271885514 0
0.3215811956900029 0.14405095396175413 0
0.375 0.0 1
0.24483778833021633 0.17423259480217518 0
0.125 0.0 1
0.19928976685482744 0.09658485028451083 0
0.2846704845846665 0.30111257992044216 0
0.30751414969891416 0.3562072589681753 0
0.375 0.5 1
0.1875 0.5 1
0.13584833557634043 0.43114607939239835 0
0.0625 0.5 1
0.09296179338798649 0.1392405747076327 0
0.13352693850852376 0.18708451503175366 0
0.0 0.1875 1
0.035447556765257106 0.24133688951568916 0
0.09505429467440867 0.3051159619195073 0
0.0 0.3125 1
0.0625 0.0 1
0.039305814172566414 0.07977901766809795 0
0.0 0.0625 1
0.12558874407085116 0.0599567100726169 0
0.11993580218403653 0.036954918598159026 0
0.1875 0.0 1
0.18061631073137302 0.04833577045884446 0
0.29528786431614074 0.0608194111351176 0
0.3995884484080471 0.09953039060321753 0
0.461611494130105 0.23681250028430118 0
0.5 0.0625 1
0.4375 0.0 1
0.5 0.375 1
0.4381178590257052 0.3196175930048528 0
0.5 0.3125 1
0.38202975974042824 0.32073173137925015 0
0.34601527697094003 0.46250361155577074 0
0.4375 0.5 1
0.0 0.4375 1
0.3391842934561133 0.3234177016475563 0
0.2959563086716762 0.2789682101549519 0
0.30534046367661455 0.24127804444222453 0
0.35456485217426836 0.21103362147208096 0
0.3928340912231182 0.21583831102046108 0
0.5 0.21972537367528922 1
0.5 0.1587936412590732 1
0.35437773440544945 0.2317500227312638 0
0.3464361290050941 0.2953745644764367 0
0.26917219911780027 0.2203834598425618 0
0.2789198970662065 0.163497767861292 0
0.347800471061348 0.15594027983871794 0
0.29842471476371274 0.17296725622357575 0
0.2642493263805492 0.13089116155725622 0
0.3414554808914246 0.0 1
0.2811162764189688 0.0 1
0.26913877899921507 0.2032791166685733 0
0.24944260715983435 0.13932995337673537 0
0.24459295045877616 0.11033782227183632 0
0.151118549175591 0.24695756177979902 0
0.3088413397089218 0.29908818050940905 0
0.3256709050426289 0.31797060500847546 0
0.3392807010584449 0.5 1
0.15647229048071953 0.5 1
0.2192470100698731 0.5 1
0.2001423298635477 0.47296270199467344 0
0.20452216363873305 0.45175646902600974 0
0.14077157057715703 0.47432382930993844 0
0.10911877431412453 0.3449499992787349 0
0.040516641651977665 0.4586301557422851 0
0.09262084272366991 0.5 1
0.12826260806019418 0.4478569112711428 0
0.17242972733812453 0.10956868821452309 0
0.10418573531773402 0.14312574638118405 0
0.1290979389741578 0.22394881831565672 0
0.11610089680225404 0.1725293547496047 0
0.14043064583003506 0.17766651110393705 0
0.09381669183227166 0.19120989147465645 0
0.0 0.15701951620133373 1
0.0 0.2207630200607491 1
0.06571368608062139 0.24348528068014957 0
0.10596124207080211 0.3175898097151278 0
0.060178287807524496 0.2686641350944181 0
0.10680342860880374 0.2597810878236248 0
0.031693538277054796 0.2821953427199311 0
0.0 0.3454953516181437 1
0.05552884432206017 0.1940502003112532 0
0.0438569591870399 0.03939328791530793 0
0.07693262258050501 0.1173515622552243 0
0.0 0.09164962021269481 1
0.1566502983887526 0.07900314735875692 0
0.14496991620292615 0.025986608382502416 0
0.07157310539233447 0.062421272897881824 0
0.10136469269002094 0.05881674328907488 0
0.22029281789333993 0.0 1
0.15526970934741102 0.0 1
0.14655698436899167 0.06472078225863076 0
0.2733517418477388 0.07974440520182122 0
0.26503668245365 0.056810072083195266 0
0.273744091218646 0.03135770289596538 0
0.17895171262452741 0.2824410653808505 0
0.4448619834828382 0.17023701318806764 0
0.4068696363175016 0.08274523729306821 0
0.4085450641795427 0.11414336780898379 0
0.42554678082487085 0.26111235030012453 0
0.5 0.09067335766100718 1
0.40861640253149084 0.0 1
0.028075043975280222 0.38995636969981373 0
0.05234916778924281 0.3759428070168804 0
0.430607682699504 0.3477121358692614 0
0.5 0.3407775716197194 1
0.37864919480824116 0.33570804351642614 0
0.39989659273610856 0.2892832778602926 0
0.4117499029103153 0.3311943129019497 0
0.3894626929648765 0.47647196481339377 0
0.4477189319599268 0.3588938161052393 0
0.5 0.46978637887020225 1
0.5 0.4058217057804553 1
0.3537884997142194 0.4238506032835665 0
0.33235209116333375 0.4352135956313828 0
0.3119855928681429 0.4648212385685173 0
0.4051753653376662 0.5 1
0.4716962875901069 0.5 1
0.4666807138386777 0.4624939969332316 0
0.03187942400202172 0.4214089346015576 0
0.26426234888925315 0.2841802270360836 0
0.3384589928517552 0.31426829469489936 0
0.32881112541237584 0.3389503561606857 0
0.36964186771141816 0.3260994086852139 0
0.2876105863779535 0.26754741829122836 0
0.28935225022812344 0.2915604600159893 0
0.3149906769153598 0.2913709802101516 0
0.32748810235258935 0.23230848392464196 0
0.2870858925812527 0.2511604442128332 0
0.30392520771327985 0.2618107789563231 0
0.471117598372027 0.20157789927911932 0
0.444014681069629 0.20850535530783382 0
0.4167302364972252 0.20960105038526297 0
0.36657714755530063 0.25732972569763174 0
0.355163537697833 0.280923034414203 0
0.3919294989799838 0.25998823072698557 0
0.3766079565119991 0.2766611422130286 0
0.26940706111456914 0.2417190863693001 0
0.2872040091583942 0.23065074200521463 0
0.30620051692661054 0.2200902787425652 0
0.32494691953598187 0.20747807452054048 0
0.26640158635116606 0.14932301979247042 0
0.26177353083287064 0.16828318836210474 0
0.2879498546163456 0.17776869630083036 0
0.3688093601191149 0.16154858482715456 0
0.3822923810652198 0.114744184414053 0
0.3351865273872125 0.1549599763068884 0
0.309213023159357 0.16981919994216996 0
0.2919752750229073 0.16625555976428838 0
0.28119978734108064 0.14977500617842557 0
0.30325243366799837 0.14119157143267352 0
0.31798244487611194 0.0791805663589846 0
0.33170860963568827 0.1239209012110047 0
0.35252048434099137 0.03403737447082927 0
0.2535104929429898 0.25198904845587783 0
0.24909312359610772 0.23152169724878555 0
0.2598840675868784 0.1880117667629564 0
0.24783438727916166 0.15658905276488908 0
0.251076707356998 0.1244839208704827 0
0.22602122617324827 0.1098163359801621 0
0.13551512821616263 0.24183890787730827 0
0.18783995516368296 0.2702473328452291 0
0.18088003645149084 0.22442090068708265 0
0.21736623469600172 0.20242158222648485 0
0.27653388903270704 0.3077388537789406 0
0.26966809268139635 0.2637693836522692 0
0.28091383990329727 0.2797792831886738 0
0.31705467534824205 0.3015627093765325 0
0.2944903530322112 0.3013519173467577 0
0.2884889870037597 0.3103643892551364 0
0.352630398075078 0.36350092886285895 0
0.3485772039292433 0.33776117672507444 0
0.3249728863140406 0.3059683501571567 0
0.30923578573019744 0.3077973324929514 0
0.3134961546542273 0.33351191555489396 0
0.33190173275340257 0.3202690544999789 0
0.2242177744460434 0.4049348607077357 0
0.22804571644625787 0.4632271446404112 0
0.15094925026886896 0.45532478917869196 0
0.18044605103187078 0.3998413881590306 0
0.14748922081510035 0.4376992658049136 0
0.14529910056195675 0.4229732134039595 0
0.12436808653136727 0.3283422292289844 0
0.09839581887412278 0.356326453314392 0
0.1096670786392286 0.36818853014629654 0
0.18475998308590066 0.2933991894966172 0
0.1734527371287593 0.31938419221061765 0
0.17085965181122673 0.36967053887984835 0
0.11229227117202098 0.47348967039368217 0
0.1670243506719361 0.1330328617596126 0
0.17531670089378962 0.1306074172138234 0
0.1236703884274452 0.1405989261213117 0
0.11712039317593098 0.2106186695083679 0
0.10479106562456418 0.1545081489525171 0
0.12025754107081718 0.18483295734544553 0
0.11530690457281938 0.1609059748288916 0
0.12873935346853455 0.1754983808348057 0
0.14951866416520357 0.15625136945534662 0
0.030280745941625057 0.2063371324393549 0
0.11043611564604851 0.19543641790657496 0
0.10580263401641432 0.18148330184679415 0
0.09936692021030603 0.20993128545521686 0
0.08667485600950532 0.2296631331716343 0
0.08963516506121273 0.32342243586441344 0
0.08160279432092127 0.34290556315907317 0
0.09867347345093208 0.3386672159340297 0
0.10501699409799524 0.2445467611147133 0
0.0875213743457633 0.25822294037370797 0
0.08372373323209643 0.2865388899861515 0
0.057125892201882744 0.349308940549238 0
0.03475723943050925 0.3245702078269903 0
0.02863274795593585 0.3604398486951073 0
0.07856363940121681 0.13505418619647747 0
0.058241816469156174 0.17307024027450998 0
0.09225716457116236 0.12630349778752495 0
0.058546113250016144 0.10347480956398683 0
0.16186611981885146 0.10012019781850907 0
0.13860019331828002 0.046773095982352464 0
0.15802525750872976 0.04586613672400423 0
0.10519211884026716 0.12128789540466531 0
0.14016385689525315 0.09458894613340127 0
0.12986209440765278 0.08844813699061022 0
0.09517860930111656 0.11158168177408442 0
0.23609959692320046 0.03990322603411161 0
0.25712683659403696 0.09514998130059592 0
0.248992586130229 0.07264934651056848 0
0.2160796993088876 0.0932704235084688 0
0.20293177056274217 0.07911270666179708 0
0.16674644497334365 0.06466304062476479 0
0.18615550957581123 0.08735602882622513 0
0.18551758009873123 0.06945681189145303 0
0.17198703655411163 0.08089895704253734 0
0.31179346066655045 0.03062395783453519 0
0.4214666960031935 0.034024381404227866 0
0.473213705182162 0.11070507247842784 0
0.46884022277752385 0.07944887430017272 0
0.41864515671160585 0.13863275882149403 0
0.4361182682471807 0.15690801511612995 0
0.45277007616518766 0.18759968473514368 0
0.47418396071565017 0.14066772724097817 0
0.43208399407095227 0.07078498880997855 0
0.44486718000034126 0.10113032330642904 0
0.34997539995373844 0.06090930951979583 0
0.4272620188404948 0.12132161187256693 0
0.4198904387123364 0.09840414964236248 0
0.41149984314955046 0.12770681016731364 0
0.19701583718443877 0.29982176978654174 0
0.25414632138458804 0.33453651659752937 0
0.27379990894566447 0.3347986921718563 0
0.23331201376755084 0.3330725288648894 0
0.4615445905264066 0.03980266288323256 0
0.0778239876965856 0.3679361747777006 0
0.0672404209031473 0.43064922506578557 0
0.08202445090363757 0.46457222318164404 0
0.45173971424385073 0.3427306995749239 0
0.4710917382950005 0.35821032733365177 0
0.3850185988929137 0.35808055524007565 0
0.4601568627410053 0.2850438372597084 0
0.4705222991490577 0.32633777667739317 0
0.3706688783812154 0.35073466573839335 0
0.39838834179591986 0.3437052307608151 0
0.373642850150056 0.29372702110635884 0
0.3577711116216853 0.29994858852156203 0
0.38467017512773455 0.306347883518881 0
0.4282304858451406 0.29256647467063646 0
0.3980900838635659 0.3149664535591413 0
0.3983736198754272 0.37262651334163566 0
0.4527924009658301 0.3769127394080695 0
0.3550291513583613 0.44149744885314485 0
0.3584176096735552 0.3947850935728669 0
0.34038835367826686 0.4118833149250012 0
0.31979641515959845 0.41116917568838657 0
0.21279475068553505 0.30137163386846355 0
0.2764110778675616 0.29434285489483125 0
0.24586055532476467 0.27192077179505875 0
0.337359610641489 0.33011004148108253 0
0.32315315054183646 0.3436045867786476 0
0.3692628853561101 0.3114781342152023 0
0.3480358785863004 0.31953852849380504 0
0.36154207720753123 0.3301700418566234 0
0.3027982471116909 0.29185596711890194 0
0.311141907737719 0.2790029665697271 0
0.32042654194593323 0.2533519022226911 0
0.36661375245514977 0.1988941287245507 0
0.3502398334098381 0.18036181854464153 0
0.3811770048680186 0.23503317480986743 0
0.4144167066721321 0.17615206486741458 0
0.43075452238733675 0.23075014102147678 0
0.3986699204611386 0.19724249575547145 0
0.3359228820190981 0.30245069334871344 0
0.28801253413406425 0.20824084086483646 0
0.27845570117271967 0.19097453459957603 0
0.3622012079409577 0.15826419855820145 0
0.36874236144905026 0.12410421277050729 0
0.38473257509132025 0.10341687019717992 0
0.3538730666695356 0.10343723659398586 0
0.34109866644796344 0.15296607894738312 0
0.3295291253334398 0.14701921979808974 0
0.30588208134863737 0.20087808190387868 0
0.3186198505969034 0.1569749186105289 0
0.30498578488211087 0.17795443123563404 0
0.3014800327245014 0.16152294372937276 0
0.29180259101129447 0.1429022885563353 0
0.30834852656784567 0.14698325987288596 0
0.3134245273403678 0.13996683528974435 0
0.3391251530662875 0.07602511736031038 0
0.3047426155140001 0.10883247846346177 0
0.3484409211059412 0.09118867509524477 0
0.32542345870568584 0.13064145151946577 0
0.3275949170549621 0.05678172600390496 0
0.2327387412649166 0.2153978852927553 0
0.2034685342189124 0.19098995128333146 0
0.21842356918962452 0.1851557180236246 0
0.21612334189256927 0.14310940619332227 0
0.20887881967597038 0.10946526881538843 0
0.13967331438571673 0.25815036817878895 0
0.18226382468193308 0.25413361976665255 0
0.21994270293282772 0.2683838428561633 0
0.2020118197673805 0.2734239219882498 0
0.1644343226857854 0.2037094116307821 0
0.14782945379839804 0.18855387494420017 0
0.14322731429061836 0.21297408038553478 0
0.17496702641591277 0.23896813692424282 0
0.19456701190180528 0.23776444972918287 0
0.3370934846120401 0.35544558221034467 0
0.32984972911237986 0.34606500226962367 0
0.3181670679462942 0.35913499292216705 0
0.3565550622561636 0.36046426020473366 0
0.3363650424224211 0.34804174749690886 0
0.2895262059394906 0.33266091092381744 0
0.2996967727572621 0.31072045434125195 0
0.31201070489753496 0.31698806216965797 0
0.32285183741685947 0.3269444459943848 0
0.3175263291426651 0.33952687751159577 0
0.3270609034991852 0.3323417877042925 0
0.36437734432297436 0.47844596173227 0
0.2661166130709738 0.35315547499623645 0
0.2353494019968288 0.38103043693306904 0
0.25885654146216297 0.37482022390137526 0
0.27349687319071814 0.41794936155032014 0
0.16984712442844052 0.4711900874401178 0
0.1869577564933224 0.4551542336255225 0
0.24386799461974207 0.4301185423359746 0
0.21594017854597822 0.4327265684161153 0
0.16848747614977255 0.4024864922420811 0
0.15254150318490228 0.41339684382317976 0
0.173121870646087 0.4229669260734977 0
0.13019964495796232 0.3806005883386989 0
0.13249317035012256 0.3290984846771896 0
0.17301611558123448 0.30931050911762614 0
0.15288501996435866 0.31230658665968214 0
0.18370179510850615 0.3786995116806071 0
0.1745414099119416 0.3774170387177695 0
0.1668582214018828 0.32385031122469404 0
0.16212272168852235 0.35151642969267893 0
0.15818316464648297 0.37829077290231844 0
0.13420908714669041 0.42044526468073007 0
0.1045542541033405 0.4521254726347392 0
0.1699855101121463 0.15554766614125384 0
0.15715688686204932 0.14644540756684457 0
0.17500543556067513 0.12084900568720175 0
0.13245471570433354 0.1415995696400958 0
0.1186063530590845 0.12026386474348667 0
0.14917360939950733 0.22950920393002586 0
0.11577290779860172 0.1488014554235776 0
0.13653321412637784 0.15001958973056986 0
0.136728410294626 0.16677623176675538 0
0.10333884578660685 0.16729007702105333 0
0.10968116713067363 0.2263754016367604 0
0.03207751168659175 0.17323465493910653 0
0.05900456327566243 0.22000265201105476 0
0.0783241325912119 0.20458999904117056 0
0.10287436316426861 0.32863128250841933 0
0.11851718741937045 0.32091822988720076 0
0.12566532408523456 0.3229937160939471 0
0.07902037073593274 0.30758126674154124 0
0.12176378226696978 0.2548171386390959 0
0.05933319748585562 0.29886489048098575 0
0.06683114459781304 0.3245033991096252 0
0.030365706699561765 0.11222184757525504 0
0.05653196817041756 0.1296927633127072 0
0.07453672332327002 0.18352831440388453 0
0.1606406308560112 0.11118326425895501 0
0.17340078226430095 0.09472102370027291 0
0.10353388005438961 0.13347265479377698 0
0.15119575805393634 0.09358643536932694 0
0.08099064989252375 0.09869700098381698 0
0.2360744753092425 0.09215601871610393 0
0.20485755453080587 0.056533978709848186 0
0.16252408122496387 0.30513186955833954 0
0.17225057470620192 0.2960752885657509 0
0.16464249233522205 0.2829807111441172 0
0.38810083702949877 0.12424386566888533 0
0.40196943982953043 0.15873313463076769 0
0.4303217977616299 0.18741343807828156 0
0.4516774066393198 0.15129346294454335 0
0.36397127207946167 0.09428284564706452 0
0.19498253032131607 0.34555744103161956 0
0.20326969747175963 0.36585363631981466 0
0.1836140374650545 0.3040705936417044 0
0.20665871217375686 0.3502275298733052 0
0.26581618602055423 0.3186883631170928 0
0.24134782241459718 0.35579058590579926 0
0.09681033664920663 0.37395905231854665 0
0.05499171958542017 0.40098177769006765 0
0.37547116495162075 0.35754384385395954 0
0.3803509945537472 0.3484109225320798 0
0.3591115788898902 0.3429430042392783 0
0.3671338106515835 0.3570462012476322 0
0.41525553910378804 0.309806070166398 0
0.39244549310268173 0.33134773536112105 0
0.3698150147744337 0.3718390755597485 0
0.4112675743971409 0.35165078223657603 0
0.3972843441949021 0.3582870785248346 0
0.389686433760535 0.3749579710979976 0
0.39363815113515876 0.3812160968056774 0
0.47379600520219434 0.38806916814182935 0
0.42026204796714733 0.36224390277819796 0
0.37284635985640985 0.45378481861541825 0
0.38111337065166856 0.42066089094372966 0
0.36814662203057164 0.3892028814189272 0
0.35058345611888797 0.37953015816361774 0
0.34732794167714853 0.39752972896917704 0
0.30111904859901545 0.43206146780817 0
0.26912601241402107 0.4581234553093024 0
0.30978172268251625 0.3698493175991386 0
0.3235294967317547 0.3711834538962927 0
0.447344295347504 0.47798736583266993 0
0.44133823258652766 0.4544355941902962 0
0.20911889721018762 0.2866674369866888 0
0.20569287401083214 0.3143657985974561 0
0.3153381457904135 0.3479169312685333 0
0.3560099795841796 0.3116874601706385 0
0.35320200409307606 0.3292504870508024 0
0.3360515541803174 0.2765703739911358 0
0.3722109716218951 0.21601057736788049 0
0.3409008682682125 0.20135242776219767 0
0.3816509444796571 0.20145256745870574 0
0.3533012309755478 0.1708650424525545 0
0.363187780258977 0.1854232218598365 0
0.387450410968485 0.18758596476393782 0
0.3998820871798991 0.18093790687102096 0
0.4064244759091449 0.23524768417613254 0
0.4117748462556221 0.19027784061381361 0
0.34715329618776686 0.3069877408358318 0
0.27314836174557516 0.17774227008254204 0
0.34873430032388547 0.12797235668649073 0
0.37249607940853025 0.11587753883089963 0
0.35660230576631313 0.14588353394903839 0
0.3418074052450406 0.10264640348466003 0
0.36601586842569633 0.10699570540828404 0
0.3316229116235844 0.19115310718153392 0
0.3264540186307436 0.15593345236222983 0
0.3104797509752298 0.16169256166375034 0
0.3228584338793225 0.15026771831193744 0
0.30592634275406666 0.1870698189894388 0
0.29114666396542427 0.15567050129441343 0
0.30038326701717116 0.15064667601157278 0
0.31555748766155867 0.14883538507992594 0
0.31874645361698695 0.11191810616503023 0
0.31660226057760305 0.0981888584751556 0
0.2967284435164674 0.12238688557877313 0
0.27969038108908534 0.12098784341197291 0
0.33246698995634577 0.09235452313286006 0
0.32124039682175226 0.13706873748421367 0
0.37253845705938593 0.05850941787056205 0
0.2364797177800405 0.19305327449710272 0
0.2522094507256079 0.20854102367328758 0
0.2300855597761841 0.1769208771284877 0
0.23277734444342468 0.1456838856932303 0
0.23501883058935216 0.12767394578102334 0
0.2225357379570761 0.15513523382754346 0
0.2033208024155403 0.13586098735941574 0
0.19551491994954698 0.10913854190576919 0
0.15465811717359784 0.2618578820535764 0
0.1700476996759989 0.26800696912748334 0
0.2352923698556287 0.25027246449118945 0
0.1848996136383283 0.20917042095806584 0
0.19202409758922842 0.19834805749659437 0
0.17114274199239496 0.21353170326674964 0
0.15049447392333862 0.17738429081302043 0
0.15219824570851945 0.20225041979163494 0
0.13871799577619243 0.1994619250362068 0
0.19493462534817646 0.22048863113308506 0
0.20062379735321795 0.25841128956973963 0
0.331407902923289 0.352399250576439 0
0.3435088421726856 0.3509369535229595 0
0.28126371144058154 0.320653605824629 0
0.28673023293974775 0.34932336059832386 0
0.300672854362279 0.32914964661267315 0
0.30367791343015865 0.3195290729728201 0
0.3174288185880088 0.3230646597975448 0
0.3065970070854965 0.3473488520502112 0
0.3290368380095205 0.3262794115631735 0
0.16781579773355088 0.4424216840449009 0
0.1862967843292338 0.4141487946736236 0
0.20178897265129028 0.41372297164110805 0
0.15888720304491127 0.40339059968266017 0
0.1555415547105295 0.395173300920431 0
0.1475491235954942 0.40106071298212553 0
0.13718302714873476 0.3837876783346258 0
0.11911123035120659 0.3651783901549822 0
0.142968019026773 0.31608075308549727 0
0.16455009426461695 0.31606317498230535 0
0.148924813829033 0.3211944124509913 0
0.15478918680226247 0.3398906020163849 0
0.14990991616370136 0.38296401408676534 0
0.1409117898880157 0.41179922951945447 0
0.15848800818839098 0.18322856319808226 0
0.1600103407328266 0.19349067661107183 0
0.2083891935829376 0.17821659069331283 0
0.19717852524405796 0.1780882245634698 0
0.1625188174143735 0.13930856832794009 0
0.17153351268851674 0.13963300538958684 0
0.16154654190638065 0.15407381374551243 0
0.15370937179096425 0.13836332481218255 0
0.12069149008171241 0.13112725522102087 0
0.12734399642930572 0.1262185330539255 0
0.13093782383634603 0.10135156422177523 0
0.16148796513832894 0.23875188550089874 0
0.12666684399160516 0.1492167675324668 0
0.12561628817760329 0.16513313705032873 0
0.15496524536667522 0.15359047795617078 0
0.14384752902887576 0.14973992995375063 0
0.15298314099661114 0.16891647891738665 0
0.09278005860375838 0.15916929355126144 0
0.12012537785645626 0.2380859866113627 0
0.10907267997080056 0.3353320654340877 0
0.1342723208389465 0.3181286554654626 0
0.13491389660672798 0.3097235992294694 0
0.05231410509108623 0.1546866529517572 0
0.09027135983645619 0.1740566749035176 0
0.1591422473433829 0.1209498815374828 0
0.18548056478655195 0.10217307925746999 0
0.0680999595649096 0.08465343964611388 0
0.16530697283696036 0.2513023926195779 0
0.15222906617258347 0.3021843460881791 0
0.1570264221620233 0.2742068702191408 0
0.11712991256049515 0.2986155399033381 0
0.10401959702373682 0.2924006192926305 0
0.14436717034728266 0.27248168127144584 0
0.3883453189158193 0.03105092906786886 0
0.3996741866539052 0.12550512224495386 0
0.3938140894675807 0.11379942580072469 0
0.4098885562588762 0.15005371230456235 0
0.37772501169726513 0.12426816869486772 0
0.3932743210872354 0.16773594406656606 0
0.42309819314975194 0.15280768007672685 0
0.4707501176807302 0.17100946526230415 0
0.4513504119586973 0.12782776286591754 0
0.3827303120387591 0.0843089409602508 0
0.17302599122023155 0.3288815016647095 0
0.17632060040224176 0.35314842936314417 0
0.19033419134754445 0.3704066759796088 0
0.19353492435901098 0.3573844674041413 0
0.2013450299028746 0.37885658700923247 0
0.18125905368203263 0.31449240600045525 0
0.18359940422641366 0.32555742411616956 0
0.26293375203681757 0.3017575297468366 0
0.21917431228675627 0.36515140283567765 0
0.36893583068946234 0.36385913093784383 0
0.3659431919814372 0.3371226482445748 0
0.3654399968117336 0.34647060295792026 0
0.3540689674520285 0.3417187480743121 0
0.364701512854199 0.3520018206002669 0
0.3623406050033839 0.36202937157597076 0
0.3965624453333879 0.38958055538021974 0
0.364075496369351 0.3685181255699052 0
0.39709120052899044 0.3988621267280712 0
0.4081465379529428 0.4163537805092797 0
0.41513993618600376 0.4073801671253887 0
0.436907747127369 0.40322516504725114 0
0.3845497411736614 0.38096653159375465 0
0.38865177346399055 0.3671905275256294 0
0.4332595008477981 0.37056513204344727 0
0.4083726281376725 0.36587876421915 0
0.3564107426653726 0.40729881367284176 0
0.38118780699055105 0.3986943144115134 0
0.3683438638572704 0.41568483791972133 0
0.38867619417314364 0.40433322400562827 0
0.3758462118467172 0.3850113536937982 0
0.36835853618561937 0.3801629843714656 0
0.35992478172063325 0.38262758324253476 0
0.3519887179879852 0.3883909428729791 0
0.33507716168091695 0.3692954216793881 0
0.33233758617982695 0.38107504824380256 0
0.43093670623014707 0.41648871351061006 0
0.4470650307864132 0.41696435726544306 0
0.4527266987990854 0.3979638762291934 0
0.4689823075617184 0.41398907088140063 0
0.4200046497584754 0.47241395154973914 0
0.21272867535356954 0.33221989929954243 0
0.3597678111226814 0.3214465118815324 0
0.35701940288377826 0.33632529200121375 0
0.3399891318772569 0.2567831913716512 0
0.3227545407252757 0.26883237341742644 0
0.33763910889538423 0.28932811792534296 0
0.3248501575560463 0.284115326017633 0
0.3822952917567528 0.17127566675783745 0
0.354820713239644 0.15717905803444768 0
0.3633742589365303 0.1638645833268963 0
0.3674446213735448 0.1699210925353647 0
0.3562360180567315 0.11304243413876021 0
0.35794790133123283 0.131488546621376 0
0.33952415516063633 0.12460024061502346 0
0.3460950259825294 0.1488574675539631 0
0.3749350464622065 0.09921014691991083 0
0.35366548824217725 0.19498901300248295 0
0.3364804834467072 0.1784552256225097 0
0.34006395735336525 0.16195842713923064 0
0.3171836922090872 0.1914713241937234 0
0.31599336162937713 0.16497193786899123 0
0.3223666007567465 0.12208359364814983 0
0.32926372257965486 0.10556277837348546 0
0.30634352966581163 0.13142373589011508 0
0.28888281084556583 0.1317359074728593 0
0.2965512784357069 0.09113035961490613 0
0.3284723589088618 0.13832829198820107 0
0.40044536614240367 0.059963389447479004 0
0.23248387028318726 0.16309466452981908 0
0.1923568482800812 0.13360873742512416 0
0.20376966565805654 0.14711520255485094 0
0.19812141217556462 0.12228008424331 0
0.215957549561884 0.12621713743338414 0
0.21194741703365758 0.2230973180464591 0
0.21485326741180721 0.24496738101281929 0
0.1891722847137933 0.1875086631510559 0
0.1812664473423287 0.19632990911485085 0
0.20061092786310458 0.20746088400913595 0
0.32497874950176064 0.3517142478432402 0
0.30692900674817347 0.33390929221559323 0
0.30018222945876705 0.34068003884857895 0
0.31639091047840523 0.38831297913856944 0
0.2798834330297645 0.3690348188847814 0
0.2768054705304343 0.39080188053587595 0
0.29709333550177036 0.4026849870850372 0
0.2511946669150944 0.3999781914010008 0
0.19135250843199836 0.43381388971226137 0
0.21586278070501438 0.3827319910377213 0
0.17463282606102923 0.410560653645297 0
0.17051211884654932 0.3940082817311363 0
0.15701041099562296 0.38829150166190435 0
0.16216364789647714 0.3952738183765526 0
0.12564630781666405 0.37208367870579523 0
0.12870194308255636 0.351623298619501 0
0.13029502593313472 0.3445181591532603 0
0.14189317251628827 0.32542926236709974 0
0.16627396538529562 0.38475076562662175 0
0.149138698446347 0.32948176469577384 0
0.1572485936312873 0.3239854311931572 0
0.16554278323644378 0.373956007203658 0
0.16645995422252086 0.18693391314588229 0
0.16661028450261536 0.17888497252251265 0
0.1789139926235705 0.15729222164360743 0
0.1293878426914656 0.1342026100433121 0
0.1299678629016922 0.11907805563546746 0
0.165715855453501 0.22654590902726762 0
0.14096937232528076 0.1567135040673871 0
0.1485538413905226 0.14434607882247238 0
0.14111225510243733 0.14268927701552528 0
0.16404345384677982 0.1618701659325646 0
0.07443020098017768 0.16270330958197574 0
0.1441546353684059 0.3058475906189267 0
0.11681630046051857 0.3099237297425954 0
0.1581786881604061 0.1310845720776901 0
0.1543748917337346 0.1047198633223648 0
0.08976261922885473 0.07994282127834816 0
0.22402537533361097 0.07247252633642409 0
0.17107160060928306 0.024635232961107777 0
0.20031716480194614 0.02786822475908085 0
0.15796379356679163 0.2940939890807732 0
0.13624802019310248 0.299621530299659 0
0.1081372392850146 0.30474224771719977 0
0.403547395733134 0.13828643334346552 0
0.3788662197373581 0.14026813371559374 0
0.4273579499770735 0.16740537769107633 0
0.18409726937350282 0.3484173506015928 0
0.17939533044752798 0.33753631777887944 0
0.18248969036801843 0.3592404928816641 0
0.1997175472395166 0.33795011657640694 0
0.2493405364469167 0.29269454413066 0
0.12083544372794502 0.38330647604936063 0
0.08730381016388009 0.38689169086720776 0
0.38346105371376543 0.37329947316762724 0
0.3722580930065719 0.34348224227052143 0
0.3495515812840823 0.34589287013481373 0
0.35520126971575483 0.35449266085514614 0
0.4359379112378796 0.43269692882639077 0
0.38708507308161466 0.43567752693628264 0
0.3580185714724732 0.3740072416839141 0
0.4051941632222951 0.39250793833443387 0
0.40647651601243495 0.4037149260685233 0
0.41963130666150583 0.41447563280779315 0
0.3765152381592595 0.3764769853710627 0
0.4048265772009123 0.43282985984270184 0
0.36972316405658523 0.4011375720569688 0
0.3892485932424247 0.3944155768884468 0
0.37981536721096076 0.4089622199500631 0
0.3826977820553297 0.3900852264609421 0
0.34397867282221894 0.3590101100269828 0
0.32995321461529487 0.36055529296765015 0
0.4571781305339057 0.436661404945368 0
0.39913390084582523 0.4528335823921364 0
0.22324920162766262 0.3145150953123549 0
0.24540580980076174 0.3124457075919035 0
0.22941378646378646 0.292360551655231 0
0.37919086041374783 0.17951487601955313 0
0.34869847055926917 0.16335157828303062 0
0.3636584444162364 0.11800477216025852 0
0.35757079034363176 0.1396297728373964 0
0.3384531910908971 0.11402310869593152 0
0.332852784163524 0.13165803260967932 0
0.3378662252611032 0.14805727473474006 0
0.3414101323423377 0.13358043212024784 0
0.36807377264316204 0.15193031915542723 0
0.35245005338235214 0.15135198557969576 0
0.329055177453702 0.17219910056574178 0
0.3439755369714616 0.17059770184414103 0
0.3131046028614361 0.17955327464163487 0
0.31049663859227755 0.12109685749395878 0
0.31720969216274963 0.13058989322967735 0
0.21787234339677125 0.16883843501705206 0
0.18496831192704216 0.1271631264193209 0
0.18328500424196334 0.13903221314405398 0
0.2102955491542292 0.15618556655125548 0
0.22864849669234558 0.23313490121269345 0
0.17034906466317265 0.19468523697872553 0
0.15734273658554823 0.21463094055633064 0
0.3102821027901264 0.34069631499210107 0
0.2959733845002417 0.3802785320036395 0
0.20430908530110165 0.39512386071028804 0
0.13337107407099175 0.3372400719239385 0
0.1314591096176931 0.358504193921927 0
0.14161802930085252 0.33449971086158486 0
0.15082027950884713 0.33573965974601555 0
0.1390620361809244 0.3433623370763965 0
0.14320908120072368 0.35071004938658257 0
0.14896676899935504 0.36451127587732657 0
0.09169351535096167 0.44093725031140196 0
0.1598451178728501 0.16718180797601453 0
0.15920734627751473 0.17437659177460635 0
0.19192906025687737 0.1672474015610607 0
0.17559128859627735 0.14853112254627016 0
0.13776580407391212 0.13550956370246323 0
0.1337546027823118 0.12783430034800392 0
0.1556418383264355 0.16080136905181824 0
0.16613826307052618 0.1700689642877653 0
0.12901642666245614 0.270337616696817 0
0.11899675637605998 0.28343001861060896 0
0.15204972320942822 0.11477267732416448 0
0.13519551322614695 0.11040843019428015 0
0.12574417736129115 0.3040086363403346 0
0.14659684826103436 0.2955152551248958 0
0.39209879134910364 0.13326550495818884 0
0.39110402646713666 0.15446902748070285 0
0.3624377794799003 0.14473424605348467 0
0.3927749860097281 0.14347113295386998 0
0.16981872385510854 0.33809693379501765 0
0.1914132170406635 0.31445252662711337 0
0.197250903800754 0.3270613996533849 0
0.18992138752243892 0.33740392015761433 0
0.13053682336722217 0.3891757559470372 0
0.10076202657494351 0.3868620751761703 0
0.3781291166792759 0.3669956343407982 0
0.35494169727712865 0.34584457672465496 0
0.3566474155248794 0.3661045547979223 0
0.4171232478063479 0.3962053375321579 0
0.42475323185566927 0.40563783965753436 0
0.4379971014404471 0.3882848684183904 0
0.4177893667456558 0.37412154759275174 0
0.41985851533366114 0.4263468890570513 0
0.3943027756240052 0.421433988770803 0
0.3968399096944713 0.40935724874352003 0
0.3500392475360242 0.36975989487114064 0
0.34300676926749335 0.3862421066184599 0
0.34296632576209213 0.3666029918308495 0
0.3376996927690941 0.36225691166003077 0
0.42011458753193487 0.44512912759655615 0
0.3511545684042184 0.14438937296883092 0
0.3477981685797289 0.11053940844452671 0
0.33564153848188405 0.1408545051508968 0
0.33053306076423444 0.16306915320806636 0
0.32319584218597364 0.1641659777814689 0
0.3249285885140408 0.18062034341776254 0
0.18493289471214885 0.11531691988232641 0
0.18595481359138472 0.15051413230934985 0
0.29946327212875995 0.3509966600839494 0
0.29636440071118947 0.36253931879407086 0
0.19265196451204797 0.4025067592921958 0
0.18888399742147954 0.38841316735495823 0
0.14085661144235193 0.3599500833234462 0
0.15762196751144417 0.35907622189352195 0
0.14692404332966202 0.34247079120373486 0
0.13549509011582372 0.3517320829332954 0
0.14330885203688074 0.38569438802275 0
0.14289592991043643 0.37871626909794065 0
0.13502145197026538 0.37539476475093814 0
0.07840875807055624 0.4047092336797336 0
0.1266946286875186 0.4089762367209054 0
0.18534183534307802 0.17606898135782365 0
0.15007868840910282 0.13210783972594442 0
0.12701088754174145 0.29416829422335683 0
0.14103022153119568 0.11847342370450545 0
0.1509063734162729 0.28416259318566606 0
0.383303652109855 0.16250986084903196 0
0.11142994104379039 0.39161091044542906 0
0.3495001964747567 0.35303130589693504 0
0.40204305465340057 0.3827787267047323 0
0.4126109466398986 0.3843609436881198 0
0.40778550961236587 0.3759502088981689 0
0.37553959623358496 0.3928749604241781 0
0.34840253719713526 0.3634599781753947 0
0.34236944705732036 0.3754845724733294 0
0.3437519407285776 0.14194835248441687 0
0.3194969093861893 0.17194618972402814 0
0.2039128254827012 0.1673257973723013 0
0.19407701300550492 0.14347338538440452 0
0.19659806736215824 0.15576100689605157 0
0.17632347489480552 0.18487535876104302 0
0.15736604009159333 0.3698438865663448 0
0.14222249442587492 0.36963846501770703 0
0.12432738323980203 0.4264046125795596 0
0.15017619393337497 0.12365899632736119 0
0.1362975795629801 0.28605757740061394 0
0.1434189778129115 0.12901944242476543 0
0.37577832773023917 0.1573794772029119 0
0.38524512028413976 0.14728130669857617 0
0.42811916992016946 0.39562756799946447 0
0.424349736312682 0.3845592365250623 0
0.37050006021593773 0.14264617215034295 0
0.14996857067774258 0.3739738688518848 0
0.10832299852712521 0.4338357554607842 0
0.37697403673187674 0.1489570775004086 0
0.18664442922443006 0.15958059773607824 0
0.09237880851976349 0.4212042229582439 0
0.11089519080144887 0.4157518537358734 0
0.11499276830271715 0.40242217706741573 0
0.09949931973163087 0.40152960279649325 0
0.46875 0.0 1
0.0 0.40625 1
0.5 0.03125 1
0.28125 0.5 1
0.3302911454696297 0.3122252468080065 0
0.3237284528236343 0.31248274600133963 0
0.3176152542882114 0.3101810282236845 0
0.14549719312153062 0.17076494327948108 0
0.14199600144826713 0.08298513711060268 0
0.13153828317231242 0.07528854086311881 0
0.1632773786296584 0.08938170895198076 0
0.2622094118974487 0.11428009818042043 0
0.31967928616780117 0.3169534485911363 0
0.11040896202438365 0.10931427917317017 0
0.34440566852664034 0.3292998509037935 0
0.130510936960939 0.20877620301141026 0
0.3402148323096191 0.33653665787565096 0
0.3335273149656236 0.3347387264238935 0
0.33220476560998474 0.3298343409305817 0
0.33415687071147676 0.3260041256132963 0
0.326439593046975 0.32245565164043816 0
0.12288524908167604 0.1562248315496549 0
0.11061535587083221 0.3265500105584719 0
0.2786031977674274 0.13758589631127616 0
0.2973941812258487 0.13409251427117147 0
0.31015524042519027 0.3264353575631179 0
0.29388716772825796 0.3205275562745456 0
0.11403187913274083 0.07944893698533784 0
0.10138135609613083 0.09620963579342162 0
0.33615597456303986 0.169054046574011 0
0.2768209852353196 0.10146348575669054 0
0.3223910425499806 0.32129611980750633 0
0.12517090780356896 0.19800799395572935 0
0.1312164320892055 0.1579083549723528 0
0.16630105522913297 0.1471936176256712 0
0.08727919424209689 0.03302811602118626 0
0.3031725298002405 0.3018287820558927 0
0.10243396394694426 0.2749277237131857 0
0.32031244784080665 0.3330167637847063 0
0.32329810536913917 0.33752776166890147 0
0.3746488793073509 0.1886672945128479 0
0.22488848830922906 0.1359785170403946 0
0.09481994024538129 0.14873989616554553 0
0.08440026686386617 0.14850557011196402 0
0.11708080376943313 0.3311121436292208 0
0.16709190704487775 0.117480132719344 0
0.3423148068649633 0.19039731270214297 0
0.32947324222097035 0.11624573607461106 0
0.17414449129216034 0.20334900166880557 0
0.12506534203960637 0.3363445322343841 0
0.123373866720971 0.10942116521436632 0
0.12623130523683754 0.3141512640083451 0
0.3826176613837901 0.13198495356051423 0
0.3511929819851765 0.35902643186390887 0
0.3642229364571987 0.3757227265309166 0
0.35655121533166534 0.12254252114524714 0
0.18177235196092542 0.1659723014823366 0
0.3865416651544731 0.13933328672013903 0
0.3479992340730039 0.11871601137976429 0
0.17452365548067503 0.17331443047856457 0
0.3764107509476514 0.10744857659801905 0
0.22227045353240024 0.347011338721102 0
0.16431208133945066 0.41299835567677906 0
0.06977049510255047 0.14614588360877662 0
0.12241453842444824 0.39556429368610785 0
0.43460432733981413 0.1414700893305375 0
0.3697338412213087 0.4320602353649036 0
0.3749337984252647 0.1656550422723771 0
0.13899079134826825 0.3934270804332792 0
0.17266337937045728 0.1640556581350031 0
0.38822593604555516 0.41311725544890104 0
0.116200987450125 0.26841831243485825 0
0.13097966262734634 0.39789619681323835 0
0.1786001023333891 0.369038429401208 0
0.14868035391127837 0.39122413504121417 0
0.38922308713613807 0.38704701118342166 0
0.17810284797178833 0.3872827971535529 0
0.29060367161266576 0.1086586732209079 0
0.14693174501534031 0.1631812412236273 0
0.13705402233105668 0.40257718876859677 0
0.15799870773644592 0.42527088829369364 0
0.25024850503493656 0.5 1
0.11783633312177304 0.09697979947014 0
0.1670641361022996 0.12561899926511194 0
0.3168843051056575 0.3286127197081938 0
0.3725225024629096 0.13326291619528113 0
0.36420790109035434 0.13706009846453795 0
0.3590342856240196 0.151818101045909 0
0.35956994316514035 0.07754797635663908 0
0.1615459701660064 0.33849219980180495 0
0.15635211613638417 0.3328453473456379 0
0.07038627270362682 0.38762400112278833 0
0.333112537016414 0.3962420822025308 0
0.33524739704497575 0.3414547932678065 0
0.16410196073924055 0.3309650030275123 0
0.29781782239554366 0.18123076230916435 0
0.3600813148657929 0.1686602242182126 0
0.3611251203488669 0.1752248100926368 0
0.3060462431533329 0.31370315814226796 0
0.1139973982303082 0.35681875910822236 0
0.41357815387244506 0.162212737379843 0
0.36099713114978155 0.35608833381266103 0
0.36485041947802876 0.13045787788334176 0
0.15074911709259045 0.15004891102602952 0
0.3621000444947703 0.12549712834944685 0
0.14622116623054532 0.10880719814999655 0
0.10935249019175823 0.3796044255181191 0
0.4818914033320965 0.43771777632055875 0
0.11677510077720266 0.3744431744060466 0
0.028490746989232103 0.14178870059307208 0
0.3092527360756955 0.1542095143772924 0
0.20976913534367733 0.3722792527106547 0
0.15381647066719292 0.34906939694277805 0
0.1746489531009091 0.34635539547913213 0
0.341980394324941 0.34306103271396965 0
0.12320525788298413 0.357884053979837 0
0.4045810677519145 0.1694781085496802 0
0.38254931762964733 0.1538954780165114 0
0.35911168729143395 0.3497499405197714 0
0.11666542737207702 0.33867782322967216 0
0.12068327944284193 0.34708058977148665 0
0.3699771279950641 0.17816769096502708 0
0.375102955903453 0.17286797898500755 0
0.0 0.12367112302607022 1
0.11329388101253839 0.1373007246836429 0
0.16447155901955704 0.3579491452665552 0
0.11269123355454957 0.12887451223383595 0
0.38975630670320544 0.349972317263071 0
0.38796204731954365 0.3416955782015263 0
0.16089070174002504 0.34542687833780444 0
0.3575223805803502 0.163563383905138 0
0.3347092903509643 0.12004209775435386 0
0.3502081525689625 0.13587745264530637 0
0.12656317224796432 0.36415202925257245 0
0.3997236526047821 0.14892386037018968 0
0.1333734362718479 0.36634310590374575 0
0.3536307170634745 0.3497688626787381 0
0.1912311336844079 0.38004511470727537 0
0.1644400416730336 0.365305193439744 0
0.17176625915362012 0.36160134881319445 0
0.16948417569676513 0.3525700028633174 0
0.14870081450772818 0.357113204774126 0
0.16632915563374845 0.34561556499090207 0
0.14571568806863885 0.13675582601661376 0
0.13934388467704079 0.10258436159380173 0
0.14656416500467187 0.10153236307843065 0
0.5 0.4399603526676159 1

Edges
55
1 34 1
1 36 1
2 856 1
2 858 1
3 129 1
3 135 1
4 27 1
4 52 1
5 68 1
5 107 1
6 48 1
6 58 1
7 33 1
7 92 1
8 98 1
8 857 1
9 76 1
9 83 1
14 59 1
14 118 1
15 58 1
15 59 1
18 67 1
18 119 1
20 34 1
20 108 1
24 75 1
24 134 1
25 76 1
25 77 1
27 83 1
30 91 1
30 92 1
33 98 1
36 102 1
39 107 1
39 108 1
44 118 1
44 858 1
45 119 1
45 856 1
46 123 1
46 130 1
48 123 1
51 134 1
51 135 1
52 857 1
67 68 1
75 859 1
77 937 1
91 979 1
102 979 1
129 1002 1
130 1002 1
859 937 1

Triangles
1947
1 34 100 0
4 52 82 0
5 112 241 0
6 48 275 0
6 275 43 0
7 31 97 0
7 97 33 0
8 229 120 0
10 113 179 0
10 336 447 0
11 615 614 0
12 458 724 0
12 459 458 0
13 145 158 0
13 158 454 0
14 59 257 0
16 161 951 0
17 315 472 0
17 482 635 0
18 119 559 0
19 160 174 0
19 174 484 0
19 484 486 0
20 38 891 0
21 244 332 0
21 245 244 0
21 332 491 0
21 491 551 0
22 143 186 0
22 182 291 0
22 186 187 0
23 344 443 0
23 443 805 0
23 804 510 0
24 75 353 0
24 127 134 0
25 76 358 0
25 358 78 0
26 199 198 0
27 4 82 0
29 89 338 0
29 214 89 0
29 338 500 0
30 216 92 0
31 93 95 0
31 95 97 0
32 94 221 0
32 221 393 0
34 20 891 0
35 100 105 0
35 105 552 0
35 233 397 0
36 100 35 0
37 38 235 0
37 865 883 0
38 20 104 0
38 37 106 0
39 107 687 0
40 236 686 0
40 687 406 0
41 110 111 0
41 112 250 0
41 169 634 0
42 115 262 0
42 312 568 0
42 561 312 0
43 58 6 0
43 148 58 0
43 149 148 0
44 118 253 0
44 268 858 0
46 130 434 0
46 434 273 0
47 122 126 0
47 126 427 0
47 275 276 0
48 123 276 0
49 124 141 0
49 141 295 0
49 283 428 0
50 286 436 0
51 608 445 0
53 293 875 0
54 142 147 0
54 143 184 0
54 147 299 0
55 145 300 0
55 146 156 0
55 156 157 0
56 13 454 0
56 60 13 0
56 301 453 0
56 453 60 0
57 303 453 0
57 453 455 0
59 566 257 0
60 145 13 0
60 303 151 0
62 69 308 0
62 155 173 0
62 156 155 0
62 485 69 0
63 159 167 0
63 161 463 0
63 167 474 0
64 314 623 0
64 617 725 0
64 623 733 0
65 161 166 0
65 166 319 0
65 318 951 0
66 480 879 0
67 171 250 0
68 67 250 0
68 250 112 0
69 174 309 0
70 175 487 0
70 488 176 0
71 405 242 0
71 867 176 0
72 178 381 0
72 381 537 0
72 537 553 0
73 144 185 0
73 185 191 0
74 193 876 0
74 876 887 0
75 50 353 0
75 859 133 0
76 9 80 0
76 80 358 0
77 25 78 0
77 195 937 0
78 359 79 0
79 655 361 0
80 9 206 0
80 84 196 0
80 196 358 0
80 206 84 0
81 223 545 0
81 545 975 0
81 975 976 0
82 52 137 0
82 270 271 0
83 27 271 0
83 271 206 0
84 26 198 0
84 839 26 0
85 378 901 0
85 401 551 0
86 898 28 0
87 178 544 0
87 210 871 0
87 339 381 0
87 871 339 0
88 212 218 0
88 218 385 0
88 539 214 0
89 214 384 0
89 384 863 0
90 217 219 0
90 219 389 0
90 399 549 0
91 387 30 0
92 31 7 0
92 216 31 0
93 31 388 0
93 220 225 0
94 32 690 0
94 391 878 0
95 93 225 0
95 225 226 0
96 394 927 0
97 95 395 0
98 33 228 0
99 231 399 0
99 388 216 0
99 389 388 0
100 34 891 0
100 36 1 0
101 230 398 0
102 36 35 0
102 397 979 0
103 246 249 0
103 249 866 0
103 403 864 0
104 20 108 0
104 108 686 0
105 100 891 0
105 684 552 0
106 37 883 0
106 891 38 0
107 5 241 0
107 241 687 0
108 39 686 0
109 37 235 0
109 103 864 0
109 235 236 0
109 236 246 0
109 864 865 0
109 865 37 0
110 41 634 0
110 634 886 0
112 5 68 0
112 41 111 0
112 111 241 0
113 10 203 0
113 203 408 0
114 256 412 0
114 413 566 0
115 568 636 0
115 636 258 0
116 261 263 0
116 263 560 0
116 560 561 0
117 43 275 0
117 125 153 0
117 275 282 0
117 305 43 0
118 14 252 0
118 252 253 0
120 137 857 0
120 229 121 0
121 227 269 0
121 269 947 0
122 47 272 0
122 592 435 0
124 49 428 0
124 424 702 0
124 428 984 0
125 117 282 0
125 279 154 0
125 282 427 0
125 283 281 0
125 427 283 0
126 283 427 0
126 428 283 0
126 430 278 0
127 24 353 0
127 436 720 0
127 720 608 0
128 122 272 0
128 272 273 0
129 3 135 0
129 963 1002 0
130 963 607 0
131 132 288 0
131 922 286 0
132 50 133 0
132 133 441 0
132 286 50 0
133 50 75 0
133 442 441 0
133 859 442 0
134 127 608 0
135 51 445 0
135 136 129 0
136 135 445 0
136 446 719 0
136 719 963 0
137 52 857 0
137 422 270 0
138 183 184 0
138 291 576 0
138 576 698 0
139 53 193 0
139 193 860 0
139 296 53 0
139 307 462 0
139 860 307 0
140 294 895 0
140 873 949 0
141 297 610 0
141 579 297 0
142 54 184 0
142 146 147 0
143 54 298 0
143 291 184 0
144 11 185 0
144 73 298 0
144 298 299 0
144 299 615 0
144 615 11 0
145 55 157 0
145 60 612 0
145 157 158 0
146 55 147 0
146 142 183 0
146 155 156 0
146 183 155 0
147 55 300 0
147 300 613 0
148 15 58 0
148 256 566 0
149 150 412 0
149 256 148 0
149 412 256 0
150 306 461 0
150 460 57 0
151 154 152 0
151 612 60 0
152 61 614 0
152 279 280 0
152 612 151 0
153 151 303 0
153 154 151 0
153 460 117 0
154 153 125 0
155 172 173 0
156 62 308 0
157 156 308 0
157 308 316 0
157 316 158 0
158 316 628 0
159 63 160 0
159 70 66 0
159 175 70 0
159 879 167 0
160 19 175 0
160 63 463 0
161 16 309 0
161 63 166 0
161 65 951 0
161 309 463 0
162 310 732 0
162 732 843 0
162 843 923 0
163 465 916 0
163 561 410 0
164 315 730 0
164 627 799 0
165 65 319 0
165 318 65 0
165 471 629 0
165 832 736 0
166 63 474 0
167 320 474 0
167 879 320 0
168 321 475 0
169 41 327 0
169 327 323 0
169 478 634 0
170 326 630 0
170 622 729 0
170 630 903 0
170 903 987 0
171 67 18 0
171 327 250 0
171 483 260 0
172 183 292 0
173 172 494 0
174 69 485 0
174 160 463 0
175 19 637 0
175 159 160 0
176 66 70 0
177 71 488 0
177 405 71 0
178 72 333 0
179 113 493 0
179 502 336 0
180 340 674 0
180 495 501 0
180 497 495 0
181 330 484 0
182 22 187 0
182 187 505 0
182 576 291 0
183 138 292 0
183 172 155 0
184 183 142 0
185 11 190 0
185 190 862 0
186 298 892 0
187 186 348 0
187 348 882 0
188 791 829 0
188 829 909 0
189 581 703 0
189 611 581 0
189 703 970 0
190 11 307 0
190 860 861 0
190 861 862 0
191 185 862 0
191 349 954 0
191 892 73 0
192 351 746 0
192 881 940 0
193 53 875 0
193 74 860 0
193 511 876 0
194 360 361 0
194 361 514 0
194 654 360 0
195 77 78 0
195 78 79 0
195 79 361 0
195 360 442 0
197 362 658 0
197 513 657 0
197 657 362 0
197 658 932 0
198 196 84 0
198 199 936 0
198 512 196 0
199 26 374 0
199 363 936 0
199 374 525 0
199 525 363 0
200 366 905 0
200 392 366 0
201 223 81 0
201 421 269 0
201 955 202 0
202 519 964 0
202 962 421 0
202 964 962 0
203 10 264 0
203 417 408 0
204 371 521 0
204 574 575 0
204 575 569 0
206 9 83 0
206 375 84 0
207 208 531 0
208 207 939 0
208 378 740 0
208 740 741 0
209 382 980 0
210 87 386 0
211 382 213 0
211 385 543 0
211 543 898 0
212 29 888 0
212 88 214 0
212 217 218 0
213 382 877 0
213 385 211 0
214 29 212 0
215 541 959 0
217 90 218 0
217 210 219 0
217 212 888 0
218 90 549 0
219 210 386 0
219 220 389 0
219 386 220 0
220 224 225 0
220 388 389 0
221 94 390 0
221 223 222 0
221 390 223 0
222 201 269 0
222 227 396 0
222 396 221 0
223 201 222 0
223 390 545 0
224 96 225 0
224 386 544 0
224 544 394 0
225 96 893 0
226 32 393 0
226 225 893 0
226 393 395 0
227 121 229 0
227 222 269 0
228 33 97 0
228 97 395 0
228 227 229 0
228 396 227 0
229 8 98 0
229 98 228 0
230 101 232 0
230 232 28 0
230 899 919 0
231 99 387 0
231 679 399 0
232 101 240 0
232 237 402 0
233 35 552 0
233 101 398 0
233 404 101 0
234 400 683 0
234 401 85 0
235 38 104 0
235 104 236 0
236 40 246 0
236 104 686 0
237 232 240 0
237 240 869 0
237 380 982 0
238 239 864 0
238 403 1001 0
239 238 536 0
239 536 938 0
239 865 864 0
239 883 865 0
240 101 404 0
240 404 884 0
241 111 243 0
241 243 685 0
241 406 687 0
243 110 242 0
243 111 110 0
243 242 405 0
243 405 685 0
244 177 332 0
244 245 685 0
245 21 247 0
245 248 406 0
245 406 685 0
246 40 248 0
246 103 109 0
246 248 249 0
247 21 551 0
247 401 249 0
248 40 406 0
248 245 247 0
248 247 249 0
249 401 866 0
250 327 41 0
251 119 45 0
251 258 636 0
251 268 258 0
251 559 119 0
251 636 559 0
252 14 257 0
252 259 253 0
253 268 44 0
254 261 921 0
254 565 562 0
255 114 693 0
255 413 114 0
256 114 566 0
257 567 252 0
258 259 262 0
258 268 253 0
259 258 253 0
259 261 262 0
259 567 261 0
260 483 944 0
261 116 262 0
261 254 263 0
261 567 921 0
262 115 258 0
262 116 42 0
263 691 560 0
264 290 448 0
264 447 290 0
265 266 354 0
266 505 347 0
267 265 420 0
267 721 722 0
268 251 45 0
268 856 858 0
269 421 700 0
269 700 947 0
270 82 137 0
271 27 82 0
271 270 756 0
271 375 206 0
272 47 276 0
273 123 46 0
273 285 128 0
273 434 285 0
274 423 424 0
274 424 983 0
274 431 591 0
274 591 781 0
275 47 282 0
275 48 276 0
276 123 273 0
276 273 272 0
277 580 702 0
277 582 580 0
278 983 984 0
279 125 281 0
279 152 154 0
279 281 295 0
279 295 280 0
280 61 152 0
280 295 450 0
280 450 462 0
280 462 61 0
281 49 295 0
282 47 427 0
283 49 281 0
284 432 591 0
284 593 827 0
284 825 433 0
284 827 825 0
285 786 592 0
286 132 131 0
287 440 601 0
288 132 289 0
288 289 948 0
288 594 131 0
289 132 441 0
290 447 723 0
291 138 184 0
291 143 22 0
292 138 698 0
292 335 494 0
292 494 172 0
292 698 723 0
293 53 870 0
293 874 875 0
294 140 343 0
294 343 647 0
294 351 895 0
295 141 610 0
296 139 462 0
296 450 610 0
296 870 53 0
297 611 451 0
298 54 299 0
298 73 892 0
298 186 143 0
299 147 613 0
299 613 615 0
300 145 612 0
300 612 613 0
301 56 625 0
301 457 896 0
302 456 953 0
302 625 902 0
302 735 456 0
304 459 972 0
304 693 412 0
305 117 460 0
305 149 43 0
305 150 149 0
305 460 150 0
306 57 455 0
306 150 57 0
306 455 458 0
306 458 459 0
307 860 190 0
308 16 316 0
309 16 308 0
309 174 463 0
309 308 69 0
310 162 618 0
310 617 943 0
310 943 732 0
310 986 617 0
311 465 563 0
311 958 960 0
312 561 163 0
312 916 624 0
313 468 620 0
313 620 797 0
314 164 730 0
315 17 635 0
315 164 470 0
315 470 472 0
315 635 798 0
315 798 730 0
316 473 628 0
317 470 800 0
317 476 472 0
317 966 476 0
318 473 951 0
319 166 474 0
319 471 165 0
319 475 966 0
320 168 475 0
320 880 168 0
321 168 322 0
321 322 476 0
321 966 475 0
322 168 632 0
322 482 17 0
323 260 944 0
323 325 481 0
323 327 260 0
323 481 169 0
324 477 737 0
325 313 467 0
325 944 414 0
326 170 729 0
326 635 482 0
327 171 260 0
328 484 485 0
328 642 181 0
328 743 642 0
329 181 646 0
329 646 496 0
330 181 329 0
330 486 484 0
330 528 739 0
331 487 489 0
331 490 641 0
331 641 897 0
331 742 639 0
332 177 641 0
332 641 640 0
333 72 492 0
333 765 394 0
334 340 341 0
335 292 723 0
335 502 643 0
335 643 494 0
335 723 447 0
336 10 179 0
337 527 744 0
337 744 904 0
338 89 498 0
338 498 526 0
338 499 500 0
338 526 527 0
340 180 341 0
340 334 553 0
340 537 674 0
341 501 642 0
341 502 334 0
342 346 504 0
342 503 346 0
342 717 794 0
343 140 949 0
343 346 503 0
343 503 647 0
344 23 449 0
344 444 443 0
344 449 647 0
345 188 909 0
346 343 949 0
346 949 970 0
347 505 882 0
347 507 649 0
348 186 892 0
348 191 954 0
348 508 882 0
349 191 862 0
349 508 954 0
349 509 881 0
350 352 894 0
350 509 887 0
350 894 940 0
351 192 894 0
351 294 449 0
352 140 895 0
352 350 511 0
352 511 874 0
352 873 140 0
354 266 506 0
354 356 420 0
355 356 654 0
356 354 651 0
358 359 78 0
359 512 655 0
359 655 79 0
360 195 361 0
360 357 442 0
362 657 918 0
362 660 658 0
363 525 517 0
363 918 936 0
364 513 655 0
365 661 814 0
365 699 661 0
365 779 699 0
366 751 749 0
367 204 521 0
367 417 574 0
367 574 204 0
368 521 667 0
368 680 554 0
369 571 993 0
369 932 370 0
370 929 369 0
372 968 985 0
372 985 998 0
373 524 848 0
373 668 665 0
374 816 525 0
374 839 816 0
375 271 756 0
376 532 890 0
376 671 925 0
376 890 760 0
377 532 540 0
377 533 530 0
377 540 959 0
377 890 532 0
378 85 802 0
378 208 939 0
379 209 672 0
379 538 209 0
379 672 761 0
380 237 869 0
380 534 982 0
380 869 906 0
381 178 87 0
382 86 980 0
382 209 538 0
382 211 86 0
382 538 877 0
383 379 677 0
384 214 539 0
384 539 889 0
384 675 934 0
385 213 88 0
385 218 549 0
386 87 544 0
386 224 220 0
387 91 965 0
387 99 216 0
387 216 30 0
387 548 231 0
388 31 216 0
388 220 93 0
390 878 545 0
391 94 681 0
391 200 900 0
391 681 907 0
392 200 391 0
392 391 907 0
392 907 546 0
394 96 224 0
394 178 333 0
394 765 927 0
395 95 226 0
395 396 228 0
396 393 221 0
396 395 393 0
397 102 35 0
397 965 979 0
398 230 919 0
398 397 233 0
398 965 397 0
399 90 389 0
399 389 99 0
400 234 85 0
400 550 767 0
401 234 866 0
401 247 551 0
402 28 232 0
402 86 28 0
402 237 982 0
402 980 86 0
403 234 683 0
403 238 864 0
403 683 1001 0
403 866 234 0
404 233 552 0
404 684 884 0
405 177 244 0
405 244 685 0
406 241 685 0
407 521 368 0
407 554 688 0
408 367 407 0
408 407 688 0
408 417 367 0
409 113 408 0
409 408 688 0
409 493 113 0
410 560 771 0
410 771 908 0
411 562 956 0
411 990 562 0
412 150 461 0
412 693 114 0
413 255 921 0
413 257 566 0
413 567 257 0
414 313 325 0
414 624 468 0
415 697 418 0
416 571 572 0
416 577 967 0
417 203 264 0
417 776 574 0
418 572 415 0
418 609 917 0
419 182 505 0
419 265 722 0
419 266 265 0
420 265 354 0
420 356 355 0
420 917 267 0
421 201 202 0
422 120 121 0
422 137 120 0
422 947 815 0
423 274 781 0
423 277 424 0
423 426 277 0
424 124 984 0
424 277 702 0
425 579 580 0
425 580 974 0
425 581 611 0
425 782 581 0
426 423 578 0
426 578 583 0
426 583 957 0
428 126 278 0
428 278 984 0
429 578 781 0
429 599 910 0
430 122 435 0
430 126 122 0
430 435 593 0
431 278 430 0
431 284 591 0
431 593 284 0
431 983 278 0
432 284 433 0
432 590 701 0
433 584 931 0
433 825 584 0
434 130 607 0
434 607 606 0
435 592 787 0
436 127 353 0
436 286 922 0
436 353 50 0
437 706 922 0
437 715 926 0
438 287 600 0
438 598 828 0
439 600 601 0
439 791 707 0
439 830 791 0
440 287 594 0
440 948 792 0
441 357 653 0
441 653 289 0
442 357 441 0
442 859 937 0
442 937 195 0
443 444 650 0
443 650 747 0
444 718 602 0
445 446 136 0
446 705 719 0
447 264 10 0
447 336 335 0
448 290 721 0
448 777 776 0
449 23 510 0
449 294 647 0
450 295 610 0
450 296 462 0
451 189 870 0
451 610 297 0
452 614 615 0
453 303 60 0
454 158 469 0
454 469 902 0
455 453 301 0
456 725 986 0
456 952 953 0
457 302 953 0
457 625 302 0
457 953 977 0
458 455 896 0
459 304 461 0
459 461 306 0
459 564 972 0
460 153 303 0
460 303 57 0
461 304 412 0
462 307 61 0
464 621 988 0
464 622 914 0
464 914 911 0
465 311 726 0
465 468 916 0
466 943 733 0
467 313 797 0
467 481 325 0
468 313 414 0
468 465 726 0
468 624 916 0
469 158 628 0
469 626 902 0
469 628 801 0
470 317 472 0
470 799 800 0
471 317 629 0
471 319 966 0
471 966 317 0
472 476 17 0
473 16 951 0
473 316 16 0
473 318 736 0
474 320 475 0
475 319 474 0
476 322 17 0
477 324 478 0
477 478 631 0
477 630 737 0
477 631 903 0
478 324 634 0
478 481 631 0
479 324 737 0
479 632 880 0
479 933 324 0
480 66 867 0
480 479 633 0
480 633 879 0
480 886 933 0
481 478 169 0
482 738 326 0
483 171 559 0
483 568 944 0
484 328 181 0
485 62 173 0
485 173 328 0
485 484 174 0
486 637 19 0
487 175 637 0
487 331 897 0
487 488 70 0
488 71 176 0
488 487 897 0
489 487 637 0
490 331 639 0
490 638 640 0
490 640 641 0
491 332 640 0
491 640 802 0
492 72 553 0
492 493 555 0
492 555 558 0
493 334 179 0
494 743 173 0
495 496 646 0
495 497 904 0
496 495 645 0
496 644 329 0
497 180 674 0
497 337 904 0
497 674 745 0
498 89 863 0
499 337 745 0
499 338 527 0
499 339 500 0
499 527 337 0
500 339 871 0
500 871 888 0
501 341 180 0
501 495 646 0
502 179 334 0
502 335 336 0
502 341 643 0
504 346 970 0
504 970 703 0
505 187 882 0
505 266 419 0
506 266 347 0
506 347 649 0
506 805 651 0
507 508 881 0
507 882 508 0
508 348 954 0
508 349 881 0
509 349 868 0
509 350 940 0
509 868 887 0
511 193 875 0
511 350 876 0
512 358 196 0
512 359 358 0
512 364 655 0
512 936 364 0
513 197 806 0
513 364 657 0
513 514 655 0
513 806 514 0
514 361 655 0
514 748 194 0
515 363 517 0
515 516 660 0
515 517 516 0
515 918 363 0
516 659 660 0
517 525 935 0
518 779 365 0
518 814 813 0
519 202 955 0
519 661 964 0
519 955 971 0
520 664 546 0
521 371 667 0
521 407 367 0
522 368 667 0
522 520 368 0
523 752 946 0
523 945 985 0
523 968 810 0
524 373 659 0
524 659 930 0
524 813 848 0
525 816 935 0
526 498 758 0
528 330 329 0
528 833 739 0
529 329 644 0
529 528 329 0
529 759 833 0
530 207 531 0
530 890 377 0
531 208 741 0
531 890 530 0
532 678 763 0
532 763 540 0
533 676 999 0
533 682 530 0
533 818 682 0
534 209 980 0
534 380 535 0
534 672 209 0
535 673 762 0
536 238 1000 0
536 768 906 0
537 381 674 0
538 379 383 0
539 88 213 0
539 213 877 0
539 877 889 0
540 215 959 0
541 383 677 0
541 675 383 0
541 676 959 0
542 498 863 0
542 757 758 0
543 385 549 0
543 549 679 0
543 679 899 0
544 178 394 0
545 878 900 0
545 900 975 0
546 366 392 0
546 664 366 0
547 520 546 0
547 546 907 0
548 387 965 0
548 398 919 0
548 679 231 0
549 399 679 0
550 400 901 0
550 682 840 0
550 901 939 0
551 491 802 0
551 802 85 0
553 334 493 0
553 493 492 0
553 537 340 0
554 407 368 0
555 493 409 0
556 681 690 0
557 32 226 0
557 226 893 0
557 556 690 0
557 690 32 0
558 333 492 0
558 555 821 0
558 821 841 0
559 171 18 0
560 410 561 0
560 691 771 0
561 42 116 0
562 565 956 0
562 691 254 0
563 163 410 0
563 410 908 0
563 465 163 0
563 908 941 0
564 411 972 0
564 459 12 0
564 616 822 0
564 772 411 0
565 921 255 0
566 15 148 0
566 59 15 0
567 259 252 0
567 413 921 0
568 115 42 0
568 312 624 0
568 414 944 0
568 483 636 0
569 371 204 0
570 995 996 0
571 369 929 0
571 416 573 0
571 573 993 0
572 418 416 0
572 571 696 0
572 694 415 0
573 416 967 0
573 656 748 0
573 807 993 0
575 776 777 0
576 182 419 0
576 419 722 0
577 355 656 0
577 416 418 0
577 418 917 0
577 420 355 0
577 656 967 0
579 124 702 0
579 141 124 0
579 425 611 0
580 579 702 0
580 582 974 0
582 277 426 0
582 426 957 0
583 345 957 0
583 783 345 0
584 714 931 0
584 825 708 0
585 429 910 0
585 578 429 0
585 583 578 0
585 707 783 0
585 783 583 0
586 584 708 0
586 714 584 0
586 790 597 0
587 710 788 0
587 712 789 0
588 587 709 0
588 709 784 0
588 710 587 0
588 784 785 0
589 605 604 0
589 606 605 0
589 845 786 0
590 432 433 0
590 433 931 0
590 598 711 0
591 432 701 0
591 701 781 0
592 122 128 0
592 128 285 0
592 786 846 0
592 846 787 0
593 431 430 0
593 787 827 0
594 287 713 0
594 288 440 0
595 713 828 0
595 716 714 0
596 131 594 0
596 437 922 0
597 714 586 0
597 715 595 0
597 790 926 0
598 438 599 0
598 590 716 0
598 599 711 0
599 429 711 0
599 438 600 0
599 600 910 0
600 287 601 0
600 439 707 0
600 707 910 0
601 440 792 0
601 792 439 0
602 603 444 0
602 718 794 0
602 830 603 0
603 650 444 0
603 792 948 0
605 606 607 0
605 719 705 0
606 285 434 0
606 589 786 0
606 786 285 0
607 719 605 0
608 51 134 0
608 446 445 0
608 795 446 0
609 267 917 0
609 418 697 0
609 448 721 0
609 697 777 0
610 451 296 0
611 189 451 0
611 297 579 0
612 152 452 0
612 452 613 0
613 452 615 0
614 61 307 0
614 307 11 0
614 452 152 0
616 564 12 0
617 733 943 0
618 162 619 0
618 952 986 0
619 162 923 0
619 952 618 0
619 953 952 0
620 468 726 0
620 726 911 0
621 464 911 0
621 911 960 0
622 170 987 0
622 464 731 0
622 728 914 0
623 314 730 0
623 730 831 0
624 414 568 0
625 56 454 0
625 454 902 0
625 457 301 0
626 302 902 0
626 469 801 0
626 734 885 0
626 735 302 0
627 164 314 0
627 314 64 0
627 725 735 0
628 473 736 0
628 736 801 0
629 317 800 0
629 800 832 0
630 326 738 0
630 477 903 0
631 481 467 0
631 728 903 0
632 168 880 0
632 479 737 0
632 737 738 0
633 320 879 0
633 479 880 0
634 324 933 0
636 483 559 0
638 490 834 0
639 742 835 0
640 740 802 0
641 177 488 0
641 488 897 0
642 646 181 0
643 341 642 0
643 642 743 0
643 743 494 0
644 645 836 0
644 817 529 0
645 495 904 0
645 644 496 0
646 642 501 0
647 718 344 0
648 192 746 0
648 507 881 0
649 507 648 0
649 510 804 0
649 804 506 0
650 289 653 0
650 948 289 0
651 354 506 0
651 652 356 0
651 747 652 0
652 357 654 0
652 653 357 0
653 747 650 0
654 194 355 0
654 356 652 0
654 357 360 0
656 194 748 0
656 355 194 0
656 573 967 0
657 364 918 0
659 373 665 0
659 516 930 0
660 362 515 0
661 519 989 0
661 989 991 0
662 663 811 0
663 662 976 0
664 520 522 0
664 522 666 0
665 370 932 0
665 658 660 0
665 660 659 0
665 668 370 0
666 522 667 0
666 667 946 0
666 751 664 0
667 371 950 0
668 205 370 0
668 373 837 0
668 837 994 0
668 994 205 0
669 527 526 0
669 670 836 0
669 744 527 0
670 526 758 0
670 669 526 0
670 764 915 0
671 376 760 0
671 803 851 0
671 851 912 0
671 912 925 0
672 534 535 0
672 535 762 0
673 380 906 0
673 535 380 0
673 768 820 0
675 215 934 0
675 384 889 0
675 541 215 0
675 889 383 0
676 377 959 0
676 533 377 0
676 541 677 0
676 677 999 0
677 761 999 0
678 376 925 0
678 532 376 0
679 548 919 0
680 368 520 0
680 520 547 0
681 94 690 0
681 556 769 0
681 769 907 0
682 207 530 0
682 818 840 0
682 939 207 0
683 400 767 0
683 767 961 0
684 105 106 0
684 106 883 0
684 404 552 0
686 39 687 0
687 40 686 0
688 554 770 0
689 547 769 0
689 680 547 0
689 841 770 0
691 263 254 0
691 562 990 0
691 774 771 0
692 850 847 0
692 908 913 0
693 565 255 0
693 956 565 0
694 572 696 0
694 696 570 0
694 969 695 0
695 569 575 0
696 571 929 0
696 929 995 0
697 415 778 0
699 779 920 0
700 421 780 0
700 815 947 0
701 590 711 0
703 581 782 0
703 782 992 0
703 824 504 0
704 345 909 0
704 824 992 0
704 957 345 0
705 604 605 0
705 788 604 0
706 436 922 0
706 437 789 0
706 720 436 0
707 585 910 0
707 791 783 0
708 825 826 0
709 586 708 0
709 708 784 0
710 588 785 0
710 785 604 0
712 587 788 0
713 287 438 0
713 438 828 0
713 595 715 0
713 596 594 0
713 715 596 0
714 597 595 0
714 716 931 0
715 437 596 0
715 597 926 0
716 590 931 0
716 595 828 0
717 342 504 0
718 342 794 0
718 444 344 0
718 503 342 0
718 647 503 0
719 607 963 0
720 706 712 0
721 267 609 0
721 290 723 0
722 265 267 0
722 698 576 0
723 698 722 0
723 722 721 0
724 458 896 0
724 616 12 0
724 896 977 0
724 977 978 0
725 456 735 0
725 617 986 0
725 627 64 0
726 311 960 0
727 466 796 0
727 621 942 0
727 773 466 0
727 796 988 0
728 467 797 0
728 622 987 0
728 631 467 0
728 797 914 0
729 622 731 0
729 635 326 0
730 798 831 0
731 464 988 0
731 798 729 0
732 943 773 0
733 617 64 0
734 626 801 0
734 799 885 0
734 832 800 0
735 626 885 0
736 318 165 0
737 630 738 0
738 322 632 0
738 482 322 0
739 486 330 0
739 489 637 0
739 637 486 0
740 378 802 0
740 638 741 0
740 640 638 0
741 760 531 0
742 331 489 0
742 489 739 0
742 739 833 0
742 833 835 0
743 328 173 0
744 645 904 0
745 337 497 0
745 339 499 0
745 381 339 0
745 674 381 0
746 351 449 0
746 449 510 0
746 510 649 0
746 649 648 0
747 653 652 0
747 805 443 0
748 514 806 0
748 806 807 0
748 807 573 0
749 751 753 0
749 753 663 0
749 905 366 0
750 662 811 0
750 971 662 0
751 366 664 0
752 666 946 0
752 751 666 0
753 810 754 0
754 810 968 0
754 811 753 0
754 968 997 0
755 808 997 0
755 809 837 0
755 837 848 0
755 848 838 0
756 270 852 0
756 852 849 0
757 542 763 0
757 678 764 0
757 763 678 0
758 498 542 0
758 757 764 0
759 817 912 0
759 835 833 0
760 741 803 0
760 890 531 0
761 677 379 0
761 762 842 0
761 842 999 0
762 673 820 0
762 761 672 0
762 820 842 0
763 215 540 0
763 934 215 0
764 670 758 0
764 678 925 0
765 333 558 0
765 766 927 0
765 841 766 0
766 556 557 0
766 819 556 0
766 841 819 0
767 550 840 0
767 820 961 0
768 536 1000 0
768 673 906 0
769 819 689 0
770 554 680 0
770 680 689 0
770 841 821 0
771 774 913 0
772 564 822 0
772 774 990 0
772 822 973 0
772 844 774 0
773 847 732 0
773 943 466 0
774 691 990 0
774 844 913 0
775 569 695 0
775 695 969 0
775 950 569 0
776 264 448 0
776 417 264 0
776 575 574 0
777 448 609 0
777 697 778 0
777 778 575 0
778 415 694 0
778 694 695 0
778 695 575 0
779 518 924 0
779 924 928 0
780 421 962 0
780 823 855 0
780 855 700 0
781 578 423 0
781 701 711 0
781 711 429 0
782 425 974 0
783 188 345 0
784 708 826 0
785 589 604 0
785 784 845 0
787 593 435 0
787 826 827 0
787 846 826 0
788 710 604 0
789 712 706 0
789 790 587 0
789 926 790 0
790 586 709 0
790 709 587 0
791 188 783 0
791 793 829 0
792 603 830 0
793 717 829 0
794 717 793 0
794 793 602 0
795 608 720 0
795 705 446 0
795 712 788 0
795 720 712 0
795 788 705 0
796 466 733 0
796 623 831 0
796 733 623 0
798 635 729 0
799 470 164 0
799 734 800 0
801 736 832 0
803 671 760 0
803 741 834 0
805 506 804 0
805 747 651 0
805 804 23 0
807 197 932 0
807 369 993 0
807 806 197 0
808 750 811 0
808 754 997 0
808 811 754 0
808 838 991 0
809 372 981 0
809 981 994 0
809 997 968 0
810 751 752 0
810 752 523 0
810 753 751 0
811 663 753 0
812 518 813 0
812 524 930 0
812 924 518 0
813 524 812 0
813 814 838 0
813 838 848 0
814 518 365 0
814 661 991 0
815 270 422 0
815 700 855 0
815 852 270 0
816 839 853 0
816 853 854 0
816 854 920 0
817 759 529 0
817 836 915 0
818 533 999 0
819 769 556 0
820 767 840 0
820 768 961 0
820 840 842 0
821 409 688 0
821 555 409 0
821 688 770 0
822 843 973 0
822 923 843 0
823 699 920 0
823 780 962 0
823 962 699 0
824 703 992 0
824 717 504 0
827 826 825 0
828 598 716 0
829 717 909 0
830 439 792 0
830 602 793 0
830 793 791 0
831 798 731 0
832 165 629 0
832 734 801 0
833 528 529 0
834 490 639 0
834 639 835 0
834 741 638 0
834 835 803 0
835 759 851 0
836 645 744 0
836 670 915 0
836 744 669 0
836 817 644 0
837 373 848 0
837 809 994 0
838 808 755 0
838 814 991 0
839 374 26 0
839 849 853 0
840 818 842 0
841 689 819 0
841 765 558 0
842 818 999 0
843 732 850 0
844 692 913 0
844 772 973 0
845 589 785 0
845 846 786 0
846 784 826 0
846 845 784 0
847 773 942 0
847 850 732 0
849 84 375 0
849 375 756 0
849 839 84 0
849 852 853 0
850 692 844 0
850 973 843 0
851 759 912 0
851 803 835 0
854 823 920 0
854 855 823 0
855 852 815 0
855 853 852 0
855 854 853 0
856 268 45 0
857 8 120 0
858 856 2 0
860 74 861 0
861 74 868 0
862 868 349 0
863 384 934 0
866 403 103 0
867 66 176 0
867 71 242 0
868 74 887 0
868 862 861 0
870 189 872 0
870 296 451 0
870 872 293 0
872 189 970 0
872 873 293 0
872 949 873 0
873 352 874 0
874 293 873 0
874 511 875 0
876 350 887 0
877 538 889 0
878 390 94 0
878 391 900 0
879 159 66 0
880 320 633 0
881 192 648 0
881 509 940 0
882 507 347 0
883 884 684 0
884 869 240 0
885 627 735 0
885 799 627 0
886 242 110 0
886 480 867 0
886 634 933 0
886 867 242 0
888 29 500 0
888 210 217 0
888 871 210 0
889 538 383 0
891 106 105 0
892 191 348 0
893 766 557 0
893 927 766 0
894 192 940 0
894 895 351 0
895 894 352 0
896 455 301 0
896 457 977 0
898 86 211 0
898 543 899 0
898 899 28 0
899 230 28 0
899 679 919 0
900 200 905 0
900 905 975 0
901 378 939 0
901 400 85 0
903 728 987 0
905 663 976 0
905 749 663 0
906 938 536 0
907 769 547 0
908 692 941 0
908 771 913 0
909 717 824 0
909 824 704 0
911 726 960 0
911 914 620 0
912 915 925 0
914 797 620 0
915 764 925 0
915 912 817 0
916 312 163 0
917 420 577 0
918 364 936 0
918 515 362 0
921 565 254 0
922 131 596 0
923 822 616 0
923 978 619 0
924 517 935 0
924 812 930 0
926 789 437 0
927 893 96 0
928 816 920 0
928 920 779 0
928 935 816 0
929 370 205 0
930 516 517 0
930 517 924 0
932 369 807 0
932 658 665 0
933 479 480 0
934 542 863 0
934 763 542 0
935 928 924 0
936 512 198 0
938 869 884 0
938 883 239 0
938 884 883 0
938 906 869 0
939 682 550 0
941 311 563 0
941 692 847 0
941 847 942 0
941 958 311 0
942 621 958 0
942 773 727 0
944 325 323 0
945 775 998 0
945 950 775 0
946 667 950 0
946 945 523 0
946 950 945 0
947 422 121 0
948 440 288 0
948 650 603 0
949 872 970 0
950 371 569 0
952 456 986 0
955 81 976 0
955 201 81 0
956 304 972 0
956 693 304 0
956 972 411 0
957 704 974 0
957 974 582 0
958 621 960 0
958 941 942 0
961 1001 683 0
962 964 699 0
963 129 136 0
963 130 1002 0
964 661 699 0
965 91 979 0
965 398 548 0
966 321 476 0
968 372 809 0
968 523 985 0
969 694 570 0
969 998 775 0
971 955 976 0
971 976 662 0
971 989 519 0
973 850 844 0
974 992 782 0
975 905 976 0
977 619 978 0
977 953 619 0
978 616 724 0
978 923 616 0
980 982 534 0
981 372 996 0
982 980 402 0
983 424 984 0
983 431 274 0
985 945 998 0
986 310 618 0
988 621 727 0
988 796 831 0
988 831 731 0
989 750 991 0
989 971 750 0
990 411 772 0
991 750 808 0
992 974 704 0
994 981 995 0
995 205 994 0
995 570 696 0
995 929 205 0
995 981 996 0
996 372 998 0
996 969 570 0
997 809 755 0
998 969 996 0
1000 238 1001 0
1000 961 768 0
1001 961 1000 0

End
