MeshVersionFormatted 1

Dimension
2

Vertices
501
0.0 0.0 1
0.5 0.0 1
0.5 0.5 1
0.0 0.5 1
0.25 0.0 1
0.5 0.25 1
0.25 0.5 1
0.0 0.25 1
0.0 0.375 1
0.125 0.5 1
0.3582244780807943 0.365049456253507 0
0.31662658874728306 0.3055599182650197 0
0.4509871468764075 0.261835257608762 0
0.5 0.125 1
0.5 0.1875 1
0.26251477684433894 0.11673013121695355 0
0.2714914061151906 0.18731532456941016 0
0.32016922496322575 0.13968164777965916 0
0.375 0.0 1
0.3125 0.0 1
0.125 0.0 1
0.19216795570641126 0.10414884940135401 0
0.2712026883928118 0.2916290200920781 0
0.375 0.5 1
0.3125 0.5 1
0.1875 0.5 1
0.23843364545507462 0.4510019226232762 0
0.1377433938861082 0.429010184228538 0
0.10156785739155985 0.3563582939605986 0
0.0625 0.5 1
0.0 0.125 1
0.1505694750391597 0.134520779915634 0
0.11958420778970248 0.1952491572286472 0
0.0 0.1875 1
0.11510704774198373 0.2980771343861469 0
0.0 0.3125 1
0.0625 0.0 1
0.0 0.0625 1
0.13044316781286636 0.06971428523721472 0
0.09856127016336504 0.04533991554497262 0
0.1875 0.0 1
0.1830303477092046 0.049433718503437495 0
0.41550284570188417 0.11574688519325722 0
0.4017506089604982 0.09122558470195417 0
0.4686721811086605 0.2184235574935456 0
0.5 0.0625 1
0.4375 0.0 1
0.5 0.375 1
0.5 0.3125 1
0.3979635854188269 0.3138731777203424 0
0.5 0.4375 1
0.357663927947767 0.448406518736144 0
0.3222496922252073 0.4596378212590023 0
0.0 0.4375 1
0.3460989408253547 0.3279152410213656 0
0.2913484328123108 0.2857093338714649 0
0.30609048771696595 0.24051593190797763 0
0.33869080686856656 0.24112401533864047 0
0.4686511185779365 0.15786469523828672 0
0.45397494299200786 0.18239288723109665 0
0.4251667089085525 0.21090583894489168 0
0.3419641064356197 0.26637723994946133 0
0.40585794587079344 0.24106831841747298 0
0.40582029791210505 0.2814487134775548 0
0.3161276485858751 0.21390394166491172 0
0.2736387000327732 0.13548038355283296 0
0.3681654272045083 0.15366004491236135 0
0.30090104463589606 0.16689304285199358 0
0.28666448798657174 0.11996682925821661 0
0.34392272806070906 0.10081208011294683 0
0.2560414878245169 0.2105587216995755 0
0.2563267733952172 0.1379593885318021 0
0.22116886510380432 0.17464669652467701 0
0.21706370331756092 0.1152920019238543 0
0.2697194957230845 0.27368399506569197 0
0.28663067270855913 0.3065570831452025 0
0.32471248769596384 0.31313170244459454 0
0.27743367344289105 0.4492215624595395 0
0.16266672426403692 0.46571816263512217 0
0.1763901377628238 0.41392293995238516 0
0.12918970043907874 0.4129991781051782 0
0.18036685979077724 0.10208928074097988 0
0.1159555061173152 0.12506382894736642 0
0.1145037172352088 0.16449279582086512 0
0.12633198754046274 0.1720168991367426 0
0.04871834765647643 0.21988732384308504 0
0.11766615988968676 0.3161608275528461 0
0.08895000575483634 0.2894508020233258 0
0.04693662162108659 0.34345384465298046 0
0.05157962517863706 0.2819783473883076 0
0.07881533417552694 0.12927266450264074 0
0.07449373438415383 0.1854125841554788 0
0.04034848576698249 0.09014374736505204 0
0.049150387769206494 0.04658177023128586 0
0.068888699687107 0.10793725780151327 0
0.146448224243636 0.0902574136713995 0
0.11624378525432559 0.10149645422409792 0
0.26481278400201497 0.0767109092416414 0
0.16039025742581164 0.07064648653351066 0
0.28659278638341273 0.07297050961459263 0
0.27578427910770753 0.04932594027644892 0
0.1824883351719736 0.29240883077128654 0
0.4034477134718929 0.12390925280978846 0
0.3811201721288435 0.07512415327733553 0
0.42161342598677976 0.07780010963248059 0
0.4147739260639269 0.10083933024031379 0
0.21549205493262855 0.35929770572091907 0
0.4593537933925316 0.357918973780412 0
0.4118796453971444 0.3314422556539786 0
0.3747865729537523 0.32822580409290064 0
0.3651264548831309 0.2905310799026811 0
0.43015895301615154 0.31712560826703734 0
0.47777756304255525 0.3903746728922466 0
0.38103447114561545 0.4763225596912204 0
0.3584594464226975 0.42192156955270105 0
0.33665204120156883 0.4221903226047254 0
0.4051753653376662 0.5 1
0.4716962875901069 0.5 1
0.471627183200819 0.419271803275401 0
0.24239784993860822 0.26761458390523385 0
0.3305490398007334 0.32008955288497476 0
0.32812426707899445 0.33668240193171356 0
0.36582418219050855 0.31621245400327863 0
0.305152466493228 0.2967225224505182 0
0.29339809695308056 0.26506456070732265 0
0.36540249797567864 0.19652643153209437 0
0.37003807360305285 0.2264958914034414 0
0.43298499797542167 0.1582371122563336 0
0.42139709171412554 0.1317400210356638 0
0.26944515715786366 0.245474895251214 0
0.3430738635104964 0.20929605913902938 0
0.2638486484162434 0.15936005235827946 0
0.36890402485352436 0.16572778796744167 0
0.37310364816728353 0.13135947711395307 0
0.3360617002747503 0.14175040609648762 0
0.302486998722047 0.19020796063003043 0
0.30651991352601854 0.15236267847473423 0
0.3036029100209588 0.1235592885408624 0
0.34923898132062753 0.08125936730446372 0
0.31849031506312747 0.06238370345302097 0
0.33307401086985944 0.108572049714347 0
0.3547556094766128 0.04208369136157463 0
0.2466561279669326 0.18172137775872962 0
0.2103706532740404 0.09159653675347156 0
0.23823038607587235 0.12440081629598407 0
0.1590832572210272 0.2421824665510863 0
0.1756321760597359 0.26922435011693985 0
0.1991136426821282 0.27520203607091304 0
0.2183906687951443 0.26091374412643925 0
0.13847515990025167 0.2041861104773239 0
0.1757830227998513 0.22033057266699846 0
0.34068375669201545 0.3389647579461352 0
0.27852053739787036 0.3252842412033114 0
0.3040505396497907 0.3132275486046951 0
0.3189890418316352 0.33396024912751043 0
0.14524278386729447 0.4070930753223197 0
0.17961226923103785 0.4390211089616417 0
0.2071652898101791 0.46428669759959745 0
0.13630005180260374 0.3969324809562995 0
0.1832670683338438 0.31002920651326665 0
0.16002243335439326 0.3278363154609185 0
0.1720286038423138 0.11780289942872962 0
0.1271264981745759 0.1337744348934538 0
0.11380787342572883 0.2440794213405549 0
0.1339365096643872 0.25302898648665906 0
0.12442083137213326 0.14714194937717584 0
0.14248133229741847 0.16910204702682774 0
0.09764153796991193 0.1852996130334291 0
0.08418614508152178 0.25357030780697526 0
0.11517969621095395 0.2711891397225229 0
0.06980558743892154 0.3153918319159211 0
0.07516744845240587 0.36893953448827566 0
0.04971430655909499 0.39669266083054666 0
0.0948375476041778 0.1441574952419688 0
0.07523254098843025 0.15563653725600954 0
0.038876348256964365 0.1663370074758436 0
0.051180438894903216 0.13168799962791944 0
0.09534625810136133 0.1040450986147074 0
0.07781428893713986 0.0782816219262023 0
0.16495000886987007 0.09360211631604322 0
0.14841529855537017 0.03998946129049991 0
0.11242227373323382 0.11376020224385135 0
0.12722809139840374 0.09010476776895612 0
0.18610233485923025 0.08045551250685373 0
0.4031362088710774 0.03971225280732952 0
0.45625955888010045 0.04547178893334028 0
0.4293943492574286 0.10851771861086636 0
0.4008882287888146 0.10440058383137288 0
0.19690381511039895 0.31833006706134276 0
0.21292442897174063 0.3173091133045357 0
0.09635468645864832 0.3784289597992915 0
0.38237031422407164 0.35033842492266826 0
0.3911675004271566 0.33733647760801705 0
0.37655200760445107 0.3723250264184353 0
0.4110617295073239 0.4111840954467739 0
0.4044267907473406 0.35352574740614723 0
0.42740064176597925 0.3461462585121144 0
0.35266865638474504 0.3992386719151671 0
0.19882009982778132 0.30112847914863716 0
0.2629121268084375 0.3127005497170856 0
0.33142993555308314 0.2993730700858387 0
0.3253204918627203 0.32733805247956443 0
0.3519974350372512 0.3169518907361621 0
0.3204729846684515 0.2910828422679131 0
0.3084887060983749 0.2795636620316124 0
0.39741841558653096 0.20923723349939624 0
0.38409772148041016 0.1850396699630008 0
0.3542898467483622 0.1777854181495159 0
0.45669935604538736 0.08850591322296437 0
0.4178782956236096 0.16572161376645614 0
0.42600280132572804 0.18554843306692792 0
0.4112992523968612 0.17545136573852987 0
0.3605808417660892 0.17124313628558566 0
0.38102344327231225 0.17020599701980732 0
0.38591275863590013 0.11674217555427067 0
0.35520198337636577 0.11454765864531208 0
0.2879830327375275 0.21422762032932222 0
0.3272922011706099 0.14587284894758426 0
0.3161042014865873 0.1755747340190317 0
0.31766335466780715 0.14845613214325523 0
0.2869796764302139 0.15440683360488902 0
0.30987542677502405 0.13727950508211978 0
0.3162431018418573 0.130609350408187 0
0.28401618049523014 0.09603741870734632 0
0.327863049603091 0.09099896754576953 0
0.3121180807779956 0.11756884290245921 0
0.32293357398307276 0.11984246441837125 0
0.22869801868453796 0.23523686136649086 0
0.2301907558726483 0.19791978471022173 0
0.2036537581832383 0.18890406860517758 0
0.21955532361984909 0.13491771084912885 0
0.2006358046676698 0.11188756705793992 0
0.2372552916159782 0.15444588409908264 0
0.15230069257884093 0.2687038546338613 0
0.15533151510283696 0.21336457509220375 0
0.14042167119884905 0.1846960593826836 0
0.20280544977123996 0.21625509700911236 0
0.33215349947933565 0.3464717124139247 0
0.3419480380126111 0.3527421075839271 0
0.2599193014243349 0.34195517644670775 0
0.240902235120045 0.37702507409385727 0
0.2732369403133447 0.4004170251183785 0
0.18298700944926707 0.38837106056225273 0
0.17119274574728857 0.4004960872512778 0
0.2136659910195244 0.4282088673938629 0
0.13289703429372707 0.4563551190155873 0
0.13022708988770137 0.38553882359655534 0
0.1529047359665356 0.4016786442565059 0
0.11506384077155556 0.3745599292005197 0
0.12360165588223058 0.34140443746848376 0
0.11659895208368617 0.3508091313453323 0
0.1503587138010346 0.32548839456800227 0
0.1706937405678855 0.3211434905915301 0
0.18783187847181934 0.37263426556907975 0
0.14187945004305363 0.32784279505066155 0
0.13410116904212568 0.34085291821965646 0
0.17795985888295068 0.3766521978914351 0
0.17375901269358282 0.36748646024431497 0
0.15158560863941212 0.37694348376530645 0
0.04772414170104935 0.4532619727294806 0
0.09583244190447415 0.46074081512720794 0
0.15922666615688805 0.14550309862588381 0
0.15502271103505488 0.19371737109724388 0
0.17485360032503425 0.13666287417509718 0
0.10997465758254318 0.15143951529258082 0
0.13814096242726515 0.1299432450701339 0
0.12291851155311152 0.11313234324964234 0
0.13078849307503956 0.2243413046798435 0
0.1380879685741804 0.1429119618727581 0
0.1529811776020778 0.15179549359604497 0
0.15370069211331788 0.1618184815018387 0
0.110810216890382 0.17535955185182397 0
0.09483636466870754 0.21668762455954152 0
0.10959753014317475 0.3363215024895258 0
0.12631563868873166 0.3312146684252493 0
0.12964632094839162 0.31546545471530746 0
0.0843394849041443 0.3400179901837295 0
0.08611710632759982 0.1728024639415576 0
0.1560962074610697 0.10329005572800479 0
0.22232653480911993 0.05536931932414402 0
0.12952541211212565 0.2922469005700631 0
0.15838908527297757 0.3174389852116126 0
0.16285086222180295 0.2870288900339138 0
0.38793105830622654 0.1582401017471712 0
0.2021344637952567 0.33374731507921335 0
0.18524048176467586 0.3555363409829454 0
0.20121259109806172 0.3604094244559722 0
0.18531565593231147 0.3268919092237521 0
0.23967893037328755 0.3157619304623847 0
0.10795060526355303 0.3861262818641077 0
0.37503453958038263 0.3420240840111793 0
0.36427007809839457 0.33705145654212576 0
0.36255701684868274 0.3479105117181887 0
0.34660912002048105 0.30659645890557446 0
0.38304589534253947 0.3797227088215881 0
0.36809183911682836 0.3686549115965966 0
0.4370462161518961 0.376479237341565 0
0.3879874802656531 0.3654723115146945 0
0.39637065240353453 0.3751427400036937 0
0.4209155705996892 0.3616633988964311 0
0.38683315459476625 0.44765387485159586 0
0.3788718802235059 0.4298090051690972 0
0.36873915542419466 0.3858649834692629 0
0.35850095093594053 0.3807582585206549 0
0.30666913909910876 0.4195261967311874 0
0.3255987586716853 0.37473011392468886 0
0.31306932690459566 0.36362258924111207 0
0.3415464690545257 0.368698117779053 0
0.3421905557767258 0.3812465255611704 0
0.3225060518522683 0.34800216224491204 0
0.33995195145262785 0.31832114542512857 0
0.3523042543445622 0.33590845146146264 0
0.3208178864147941 0.2664811207256669 0
0.398216076634497 0.17284342463585886 0
0.3690278621726913 0.1752041315641654 0
0.4120482183295327 0.15200914561899004 0
0.35213675366899244 0.12807323717945948 0
0.3610105207107608 0.14570693371070106 0
0.3426372064034746 0.11800402239342392 0
0.36527250760608604 0.09973408170648523 0
0.3168749185384433 0.15428038316333084 0
0.29430760292683855 0.13746235880463062 0
0.305783326424848 0.09082385493190108 0
0.3161073691001557 0.10429396292800276 0
0.30065014370618176 0.10921856709897117 0
0.3274894896057086 0.1308316450561469 0
0.21103956714939906 0.15437424997254948 0
0.20093655831567186 0.14006417864161602 0
0.1945791747027715 0.24600447640582265 0
0.18297479479658363 0.19835123143265576 0
0.3293622467419748 0.3589204433309272 0
0.2902338022920501 0.34243031926700346 0
0.2951392690568526 0.32479425764789555 0
0.3089854790926641 0.34871603915522864 0
0.22391656170421748 0.3417791778414512 0
0.2429778409610244 0.41776634390175116 0
0.2107703432847854 0.3770969016236289 0
0.19700788603790956 0.39476862736586155 0
0.19232997464949253 0.4103024273188489 0
0.14386951339344345 0.39040028317519154 0
0.16140088188172488 0.38882269642501144 0
0.13828152968619112 0.3776861474654045 0
0.16797897408785917 0.35022554253221594 0
0.15744368953839624 0.3390316732799314 0
0.1511748108020156 0.33234946914655217 0
0.14689396189406287 0.34098434837027297 0
0.15342517601062977 0.17807034304276365 0
0.1704297271451657 0.18408507448448463 0
0.18865420389961104 0.1786814079323003 0
0.18865163855002465 0.1658580728868951 0
0.17042414461051805 0.14940403204668248 0
0.16004494093940297 0.13011725727505558 0
0.13017708857166338 0.12154004768382448 0
0.14863017125994105 0.14696801089896672 0
0.1607411338723157 0.1567103665798479 0
0.16984994779602708 0.15852932280532706 0
0.1268956026619906 0.3029071970526272 0
0.1458231627174094 0.3163085758005007 0
0.15836259148283532 0.11567609852453388 0
0.1386613993073843 0.10105439983132607 0
0.1346764535181262 0.27317765634433283 0
0.1675793361663578 0.3054455844505967 0
0.38880363926233835 0.13297444645495088 0
0.4022178919858387 0.13930682237006842 0
0.3803192576911019 0.14076715923371802 0
0.18463721940037103 0.3406203287856797 0
0.19452465987588963 0.34866385491181784 0
0.22272531105951554 0.2912237899100604 0
0.11917936631530224 0.3849696037866821 0
0.36797547993160834 0.3560649730793932 0
0.3777382183761674 0.3637551312019123 0
0.3606577609296193 0.3273039504845049 0
0.35966216907393206 0.3550801047891025 0
0.35247894448320327 0.3472070181998306 0
0.4398136386519436 0.4608101796685588 0
0.4185231699440143 0.40070191433707447 0
0.42610074020909083 0.4185459872036388 0
0.39721090904134265 0.41643302778227503 0
0.3720547449709623 0.4069741928456708 0
0.3504638208482621 0.3708253141067491 0
0.32775654118105085 0.3979273046877262 0
0.3510362509578874 0.36039563382990275 0
0.44951150745993307 0.3824092047036219 0
0.32592959111144015 0.1926468755089036 0
0.34409125217896175 0.19088389444587409 0
0.35946107117382514 0.15944702634575086 0
0.3639711604357247 0.12375339145902958 0
0.35956107718440117 0.13605935929667426 0
0.3405833781247376 0.12997037243174564 0
0.3325731183571311 0.12032817073124237 0
0.35873039103323184 0.15105510716754292 0
0.3720201202489953 0.11548814711152473 0
0.3243925860970275 0.1542276160978988 0
0.1847008202570474 0.13032551602003598 0
0.20798939218852855 0.12492542358792932 0
0.3040018295052275 0.33494322146181804 0
0.2979734483056547 0.3612852477876635 0
0.30327639202428625 0.38308949839185824 0
0.27775388151518016 0.36657287052438564 0
0.21875186705726135 0.39897934106414246 0
0.12798508722719876 0.35075754588405866 0
0.124172338305134 0.36343578777996616 0
0.08609558797738608 0.42213370784868115 0
0.1774334284815016 0.16887978698218323 0
0.18112410779322047 0.16046575848103117 0
0.14092449131998738 0.11856121075299962 0
0.16501467270037765 0.16840107088140274 0
0.13721176791282708 0.1132322978656053 0
0.3714188904995449 0.1437552158804064 0
0.2525257681105453 0.291739196841135 0
0.1180257518956463 0.3952994307916354 0
0.08292720148269757 0.39308124938016575 0
0.4033767602221334 0.4596994015488669 0
0.39849058577258123 0.39487278645635654 0
0.38808558297607004 0.40872433254362833 0
0.4439725483116846 0.43573016384022384 0
0.34862125669841526 0.14968140255687984 0
0.3543947796067505 0.14454833488023752 0
0.3231075962286904 0.1639362169840036 0
0.16780608287355656 0.20022062388895706 0
0.12602818677784317 0.37691266390007694 0
0.16975077542261316 0.3341670072850402 0
0.15826759794660775 0.36624085770735987 0
0.15206362433201936 0.3534165890918331 0
0.11421347234780496 0.4317507519665739 0
0.1955598775067485 0.1566559293393235 0
0.14640557826399384 0.11419745845348811 0
0.14882670671908554 0.12400199103166491 0
0.1472063108099594 0.28683252324715053 0
0.15390531326314993 0.30255625841815453 0
0.380236988197267 0.14954495801117515 0
0.10016735065582427 0.3976362703970423 0
0.3992943522291346 0.4365162114821419 0
0.4332063763677227 0.36612982580358755 0
0.42535140411701416 0.3786257967886521 0
0.34692294883886926 0.16332728303132923 0
0.33634964959184194 0.15303997799067884 0
0.3359772820339649 0.17573044684281863 0
0.13984512663928264 0.35228982392883074 0
0.1429175062451198 0.3651731649384926 0
0.1106291310456505 0.41172910291888243 0
0.18265932517436925 0.14488253889554667 0
0.13882300574517734 0.3019480131024581 0
0.3766914874963913 0.1571001334904634 0
0.20074580696943198 0.17049989439513977 0
0.33471550471988637 0.16165313458334693 0
0.13329936415614638 0.3675223753507928 0
0.13484011534690762 0.3593061558536448 0
0.5 0.40625 1
0.5 0.46875 1
0.470988455995687 0.4546012719682566 0
0.13404416120626317 0.15699267035156586 0
0.1092347206652546 0.3650198053523899 0
0.3361467576607289 0.32940697890347087 0
0.3136983533793835 0.31794492428552856 0
0.3191957203591405 0.3272528428616882 0
0.1131873085278323 0.1375438841900393 0
0.10099729417107386 0.12525197298691218 0
0.14579091035510747 0.15460569797978466 0
0.3049354460200027 0.3247234793038288 0
0.3134083356327428 0.32764094409034755 0
0.1269273042729413 0.10233485453966308 0
0.12131082064142325 0.1568424936515989 0
0.3232378045150069 0.3209516039318569 0
0.34375 0.5 1
0.286918633740783 0.17167228432051407 0
0.15911851879212816 0.4162225409357653 0
0.10710894566825331 0.08223266051515053 0
0.3340334979918018 0.28665615702601965 0
0.09885486080208691 0.16419128725593413 0
0.16534085234162874 0.10599938786061201 0
0.20929577124892618 0.3503493501029672 0
0.33570519637512486 0.31157571318592986 0
0.38515511473008285 0.1009225524853131 0
0.3114318069290836 0.1630847476523613 0
0.17514893964962347 0.3866856256443341 0
0.43344817033038985 0.3920539957398884 0
0.18751427592655334 0.11485585831651757 0
0.4073519283842949 0.399091363508778 0
0.3831938469060051 0.3946625426366733 0
0.45350180059766015 0.40506917374866575 0
0.3899960175495651 0.14472555569675177 0
0.4102665275764275 0.42268580703928965 0
0.4155758521371799 0.38946647452485667 0
0.37062701428378997 0.259776205479044 0
0.23920775058009824 0.096390893306439 0
0.1666278388062191 0.3788646464276029 0
0.40558194879198767 0.16296030057612582 0
0.40542236992353786 0.19204254888691497 0
0.3919122449558278 0.38804539953856615 0
0.4068605657048204 0.38744866789057325 0
0.3926661213605362 0.3981663510412969 0
0.1972895795256393 0.12400513658426024 0
0.3503478899749508 0.13857282684754313 0
0.1552173615414244 0.44051785329597354 0
0.41935677180923325 0.43603251837990753 0
0.45485997916117865 0.127242243213982 0
0.0990553013133296 0.316575625235717 0
0.4113943404134223 0.3772239401117208 0
0.4023615006110001 0.1496370989179915 0
0.40004612626247577 0.40381944402667425 0

Edges
36
1 37 1
1 38 1
2 46 1
2 47 1
3 118 1
3 450 1
4 30 1
4 54 1
5 20 1
5 41 1
6 15 1
6 49 1
7 25 1
7 26 1
8 34 1
8 36 1
9 36 1
9 54 1
10 26 1
10 30 1
14 15 1
14 46 1
19 20 1
19 47 1
21 37 1
21 41 1
24 117 1
24 465 1
25 465 1
31 34 1
31 38 1
48 49 1
48 449 1
51 449 1
51 450 1
117 118 1

Triangles
964
1 37 94 0
2 186 47 0
5 101 280 0
6 13 45 0
7 26 158 0
7 27 78 0
8 34 86 0
8 86 90 0
9 36 89 0
10 30 261 0
11 304 380 0
12 124 204 0
12 455 154 0
13 49 112 0
14 15 59 0
14 59 497 0
15 45 60 0
16 66 72 0
16 72 145 0
16 486 98 0
17 71 143 0
17 136 217 0
18 218 220 0
18 222 223 0
18 223 326 0
19 47 185 0
20 19 142 0
20 101 5 0
21 41 181 0
22 144 232 0
22 478 82 0
23 56 76 0
23 200 410 0
25 7 78 0
26 10 79 0
26 79 158 0
27 7 158 0
27 336 78 0
28 156 467 0
28 425 81 0
28 467 495 0
29 191 172 0
29 277 274 0
30 4 260 0
30 260 261 0
31 38 93 0
32 262 354 0
32 269 266 0
32 428 352 0
33 85 236 0
33 150 268 0
33 168 272 0
33 268 273 0
33 273 168 0
34 176 86 0
35 87 498 0
35 170 281 0
36 8 90 0
37 21 40 0
37 40 94 0
38 1 94 0
39 96 183 0
40 21 181 0
40 39 468 0
41 5 280 0
42 41 280 0
42 99 181 0
42 181 41 0
43 103 188 0
44 104 105 0
44 105 106 0
45 15 6 0
46 14 209 0
46 209 186 0
49 13 6 0
49 48 108 0
50 64 112 0
50 110 123 0
50 193 110 0
51 450 451 0
52 53 116 0
52 115 302 0
52 301 114 0
53 25 78 0
53 52 465 0
53 465 25 0
54 9 173 0
55 372 312 0
56 23 75 0
57 65 58 0
57 313 125 0
58 127 485 0
59 15 60 0
59 60 128 0
59 128 497 0
60 45 61 0
61 13 63 0
61 45 13 0
61 206 489 0
61 211 60 0
62 58 485 0
62 111 469 0
63 64 485 0
63 206 61 0
64 13 112 0
64 50 111 0
64 63 13 0
65 57 217 0
65 131 58 0
65 136 384 0
66 16 69 0
66 69 322 0
67 431 444 0
68 136 466 0
68 137 475 0
69 16 224 0
69 138 322 0
69 224 325 0
70 141 225 0
70 216 319 0
70 320 216 0
71 217 130 0
72 66 132 0
72 132 233 0
73 445 327 0
74 144 486 0
74 145 231 0
74 231 395 0
74 232 144 0
75 120 130 0
75 130 125 0
75 410 120 0
76 56 124 0
76 124 154 0
76 153 200 0
76 154 333 0
76 333 153 0
77 201 473 0
78 305 53 0
79 157 158 0
79 246 495 0
80 157 467 0
80 244 339 0
82 184 22 0
83 163 457 0
83 267 353 0
83 457 458 0
84 265 463 0
84 272 470 0
85 84 463 0
85 167 236 0
85 272 84 0
86 169 90 0
87 35 357 0
87 276 275 0
88 35 498 0
88 169 170 0
88 171 90 0
89 277 172 0
90 89 36 0
90 169 88 0
90 171 89 0
91 174 175 0
91 458 174 0
92 86 176 0
92 175 278 0
92 273 86 0
92 278 168 0
93 95 177 0
94 40 179 0
94 93 38 0
94 179 93 0
95 91 177 0
95 93 179 0
95 178 91 0
96 39 99 0
96 279 360 0
97 178 468 0
97 183 462 0
97 267 182 0
98 224 16 0
99 42 184 0
99 180 96 0
100 140 323 0
101 100 98 0
102 362 283 0
103 43 129 0
103 215 188 0
104 44 474 0
104 142 185 0
105 185 186 0
105 186 209 0
105 187 106 0
106 43 188 0
106 187 43 0
107 287 472 0
107 337 287 0
108 48 113 0
108 112 49 0
108 297 434 0
108 383 297 0
109 112 197 0
110 291 292 0
110 292 372 0
111 123 294 0
111 294 469 0
111 485 64 0
112 108 197 0
112 109 50 0
113 449 119 0
113 481 383 0
114 24 465 0
114 117 24 0
115 52 116 0
115 198 379 0
116 305 381 0
117 114 413 0
118 117 375 0
118 375 451 0
118 450 3 0
119 51 451 0
119 416 481 0
120 410 368 0
121 77 473 0
121 464 77 0
122 152 238 0
122 155 202 0
122 202 454 0
123 110 372 0
123 111 50 0
123 203 294 0
124 12 154 0
124 56 205 0
125 56 75 0
125 130 57 0
125 205 56 0
126 131 385 0
126 315 207 0
127 63 485 0
127 126 206 0
128 60 211 0
128 129 497 0
128 316 129 0
129 43 187 0
129 187 497 0
129 364 103 0
130 217 57 0
131 65 384 0
131 126 127 0
131 127 58 0
131 384 385 0
132 17 143 0
132 466 17 0
133 67 444 0
133 214 315 0
133 386 67 0
134 215 363 0
134 365 409 0
134 387 392 0
134 409 388 0
135 218 326 0
135 389 494 0
135 417 437 0
135 437 218 0
136 17 466 0
136 65 217 0
136 68 219 0
136 219 384 0
137 68 221 0
137 221 322 0
137 321 475 0
138 69 325 0
138 222 322 0
139 70 225 0
139 320 70 0
140 20 142 0
140 100 101 0
140 101 20 0
140 139 225 0
140 225 323 0
141 70 319 0
141 319 390 0
142 19 185 0
142 104 139 0
142 139 140 0
143 71 229 0
143 73 233 0
143 233 132 0
144 184 280 0
144 280 486 0
145 72 233 0
145 74 486 0
146 147 234 0
146 151 329 0
147 146 329 0
147 148 102 0
148 147 329 0
148 329 149 0
148 368 199 0
149 329 228 0
150 33 236 0
150 236 263 0
151 146 235 0
151 330 237 0
151 420 330 0
152 55 312 0
152 312 374 0
152 454 55 0
155 122 310 0
155 396 461 0
156 28 81 0
156 81 159 0
156 340 248 0
157 79 495 0
159 411 247 0
160 199 189 0
160 288 253 0
160 362 102 0
161 253 422 0
161 344 345 0
162 82 478 0
162 359 471 0
162 394 264 0
162 471 82 0
163 83 353 0
163 266 269 0
164 169 273 0
164 170 169 0
164 268 165 0
164 273 268 0
165 170 164 0
165 268 146 0
166 163 269 0
166 452 463 0
167 85 452 0
167 452 459 0
168 273 92 0
168 470 272 0
169 86 273 0
170 35 88 0
171 88 498 0
172 173 89 0
172 191 412 0
172 412 173 0
173 9 89 0
173 403 260 0
174 265 470 0
174 457 265 0
175 174 470 0
175 177 91 0
176 34 31 0
176 175 92 0
177 31 93 0
177 175 176 0
177 176 31 0
178 95 179 0
178 97 182 0
178 179 468 0
178 182 458 0
178 458 91 0
179 40 468 0
180 82 471 0
180 99 184 0
181 39 40 0
181 99 39 0
182 83 458 0
183 96 360 0
183 468 39 0
184 42 280 0
184 82 180 0
184 144 22 0
185 47 186 0
185 105 104 0
186 2 46 0
187 105 209 0
187 209 497 0
188 44 106 0
188 474 44 0
189 285 288 0
190 285 189 0
191 29 453 0
191 249 290 0
191 432 412 0
192 196 298 0
192 298 371 0
192 370 291 0
193 50 109 0
193 196 192 0
194 296 371 0
194 303 296 0
195 376 377 0
195 377 483 0
195 378 501 0
196 193 109 0
196 197 300 0
196 300 499 0
197 196 109 0
197 434 300 0
198 115 116 0
198 116 381 0
199 102 148 0
199 160 102 0
199 190 189 0
200 23 76 0
201 12 204 0
201 77 12 0
201 204 469 0
201 294 473 0
202 121 454 0
202 155 456 0
202 456 464 0
203 55 311 0
203 123 372 0
204 124 205 0
204 313 469 0
205 125 313 0
206 63 127 0
206 126 207 0
207 214 314 0
207 489 206 0
208 126 385 0
209 14 497 0
210 128 211 0
210 211 212 0
210 212 488 0
211 61 489 0
212 211 489 0
213 133 315 0
213 208 436 0
213 315 208 0
214 133 444 0
214 207 315 0
215 103 363 0
216 317 319 0
216 320 392 0
217 71 17 0
219 68 475 0
219 438 384 0
220 137 222 0
220 218 393 0
220 321 137 0
221 66 322 0
221 68 466 0
221 132 66 0
222 18 220 0
222 137 322 0
222 138 223 0
223 138 226 0
224 98 100 0
224 100 323 0
224 323 325 0
225 141 324 0
226 138 325 0
227 141 390 0
227 223 226 0
227 324 141 0
227 326 223 0
227 390 326 0
228 71 130 0
228 120 149 0
228 130 120 0
228 229 71 0
229 73 143 0
230 73 229 0
230 229 237 0
230 349 445 0
231 145 233 0
231 233 327 0
231 328 395 0
232 74 395 0
232 395 493 0
233 73 327 0
234 165 146 0
234 361 165 0
235 146 268 0
235 150 263 0
235 263 420 0
235 268 150 0
236 167 347 0
237 229 228 0
237 330 230 0
238 152 239 0
238 239 331 0
238 310 122 0
239 152 374 0
240 200 153 0
240 332 399 0
241 107 335 0
241 240 399 0
241 242 336 0
241 335 240 0
241 336 400 0
241 400 337 0
242 78 336 0
242 241 399 0
243 244 476 0
243 257 254 0
243 338 339 0
243 339 244 0
244 248 341 0
244 341 476 0
245 27 158 0
245 158 157 0
245 336 27 0
245 400 336 0
246 10 261 0
246 28 495 0
246 79 10 0
246 425 28 0
247 369 421 0
248 467 156 0
249 191 453 0
249 369 290 0
249 453 402 0
250 274 275 0
251 29 274 0
251 274 250 0
251 453 29 0
252 161 345 0
253 161 282 0
253 288 422 0
253 362 160 0
254 258 286 0
254 337 338 0
255 252 345 0
255 256 275 0
255 358 252 0
256 255 346 0
256 346 439 0
257 243 476 0
257 258 254 0
257 476 487 0
258 343 286 0
258 487 423 0
259 340 342 0
259 423 487 0
260 4 54 0
260 54 173 0
260 403 261 0
261 403 425 0
261 425 246 0
262 32 352 0
262 270 354 0
262 355 270 0
263 236 347 0
263 347 348 0
263 348 420 0
264 262 352 0
264 351 262 0
264 394 442 0
265 84 470 0
265 457 166 0
266 353 406 0
266 406 428 0
267 83 182 0
267 97 462 0
269 32 354 0
269 452 166 0
271 270 355 0
271 347 167 0
271 459 270 0
272 85 33 0
274 87 275 0
274 498 87 0
275 256 250 0
276 87 357 0
276 255 275 0
276 357 443 0
277 29 172 0
277 89 171 0
277 171 498 0
278 175 470 0
279 96 180 0
279 180 471 0
279 359 427 0
280 98 486 0
280 101 98 0
281 170 361 0
281 357 35 0
281 361 429 0
282 161 252 0
282 252 358 0
282 430 362 0
283 147 102 0
283 234 147 0
283 430 429 0
284 214 444 0
284 314 214 0
284 482 500 0
285 335 472 0
285 367 366 0
286 287 254 0
286 343 366 0
287 286 367 0
287 367 472 0
288 160 189 0
288 366 422 0
289 200 240 0
289 335 190 0
289 410 200 0
290 411 432 0
291 110 193 0
291 193 192 0
292 312 372 0
293 291 370 0
293 292 291 0
293 374 292 0
294 201 469 0
294 203 311 0
294 311 473 0
295 194 298 0
296 11 370 0
296 303 304 0
296 370 371 0
297 383 477 0
297 435 434 0
298 194 371 0
298 196 299 0
299 196 499 0
299 295 298 0
299 490 295 0
300 435 499 0
301 52 302 0
302 115 379 0
302 379 415 0
302 415 378 0
302 433 301 0
303 194 295 0
303 198 304 0
303 295 480 0
303 379 198 0
304 11 296 0
304 198 309 0
304 309 380 0
305 78 242 0
305 116 53 0
305 242 398 0
305 398 381 0
306 307 331 0
306 309 381 0
307 306 398 0
308 239 382 0
308 306 331 0
308 309 306 0
308 331 239 0
308 380 309 0
310 238 331 0
310 307 334 0
310 331 307 0
310 334 155 0
311 121 473 0
311 454 121 0
312 292 374 0
313 57 58 0
313 58 62 0
313 62 469 0
313 204 205 0
314 212 489 0
314 488 212 0
315 126 208 0
316 128 210 0
316 210 488 0
316 488 500 0
317 216 387 0
317 387 388 0
317 494 389 0
318 67 391 0
318 391 418 0
319 389 390 0
320 104 474 0
320 139 104 0
321 220 393 0
321 393 419 0
323 225 324 0
323 324 325 0
324 226 325 0
324 227 226 0
326 218 18 0
326 390 389 0
328 231 327 0
328 394 493 0
328 426 442 0
329 151 237 0
329 237 228 0
330 349 230 0
332 240 153 0
332 396 334 0
332 397 399 0
333 154 460 0
333 332 153 0
333 396 332 0
335 107 472 0
335 285 190 0
335 289 240 0
337 107 241 0
337 254 287 0
338 243 254 0
338 337 400 0
338 400 339 0
339 157 80 0
339 245 157 0
340 156 159 0
340 159 247 0
340 259 341 0
340 341 248 0
341 259 487 0
342 340 247 0
342 440 259 0
343 344 422 0
343 422 366 0
343 423 424 0
345 344 346 0
345 346 255 0
346 344 424 0
347 271 407 0
348 330 420 0
348 347 407 0
348 349 330 0
348 404 349 0
350 426 445 0
351 442 405 0
352 162 264 0
352 428 359 0
353 266 163 0
353 267 408 0
354 270 459 0
355 262 351 0
355 407 271 0
356 351 405 0
356 355 351 0
356 404 407 0
357 281 443 0
358 255 276 0
358 276 443 0
358 430 282 0
358 443 430 0
359 162 352 0
359 279 471 0
359 428 427 0
360 279 427 0
360 462 183 0
361 170 165 0
361 234 429 0
362 253 282 0
363 103 364 0
363 364 482 0
364 129 316 0
364 316 500 0
365 134 363 0
365 363 482 0
366 288 285 0
367 285 472 0
367 286 366 0
368 148 149 0
368 149 120 0
368 190 199 0
368 289 190 0
370 11 373 0
370 192 371 0
372 55 203 0
373 11 382 0
373 293 370 0
374 293 373 0
374 373 382 0
374 382 239 0
375 413 496 0
375 416 451 0
376 195 479 0
376 479 484 0
377 376 477 0
377 477 481 0
378 195 483 0
378 415 501 0
379 303 480 0
381 309 198 0
381 398 306 0
382 11 380 0
382 380 308 0
383 108 113 0
384 438 385 0
385 438 208 0
386 133 213 0
386 391 67 0
387 216 392 0
388 318 418 0
388 387 134 0
388 494 317 0
389 135 326 0
389 319 317 0
391 386 417 0
392 215 134 0
392 320 474 0
393 218 437 0
393 437 446 0
394 162 478 0
394 328 442 0
394 478 493 0
395 328 493 0
396 155 334 0
396 333 460 0
396 460 461 0
397 307 398 0
397 332 334 0
397 334 307 0
397 398 399 0
398 242 399 0
400 245 339 0
401 250 256 0
401 251 250 0
401 439 448 0
402 251 401 0
402 401 448 0
402 421 249 0
402 447 421 0
402 453 251 0
403 173 412 0
403 412 432 0
403 432 441 0
404 348 407 0
404 350 349 0
405 350 404 0
405 404 356 0
406 353 408 0
407 355 356 0
408 267 462 0
408 360 427 0
409 67 318 0
409 318 388 0
409 365 431 0
410 75 23 0
410 289 368 0
411 81 441 0
411 159 81 0
411 290 369 0
411 369 247 0
413 114 301 0
413 375 117 0
413 433 496 0
414 479 501 0
414 490 491 0
415 379 480 0
415 480 492 0
415 492 501 0
416 375 496 0
416 377 481 0
417 135 494 0
417 418 391 0
418 417 494 0
419 393 446 0
419 475 321 0
420 151 235 0
421 342 247 0
421 369 249 0
422 344 161 0
423 259 440 0
423 343 258 0
424 344 343 0
425 403 441 0
425 441 81 0
426 328 327 0
426 350 405 0
427 406 408 0
427 428 406 0
428 32 266 0
429 234 283 0
429 443 281 0
430 283 362 0
431 67 409 0
431 365 482 0
432 191 290 0
432 411 441 0
433 302 378 0
433 378 483 0
433 413 301 0
434 197 108 0
435 300 434 0
435 477 484 0
435 484 499 0
436 208 438 0
436 386 213 0
436 417 386 0
436 438 446 0
437 417 436 0
437 436 446 0
438 219 419 0
438 419 446 0
439 346 424 0
439 401 256 0
439 424 440 0
439 440 448 0
440 424 423 0
442 351 264 0
442 426 405 0
443 429 430 0
444 431 284 0
445 73 230 0
445 349 350 0
445 426 327 0
447 342 421 0
447 440 342 0
447 448 440 0
448 447 402 0
449 51 119 0
449 113 48 0
451 416 119 0
451 450 118 0
452 85 463 0
452 269 459 0
454 152 122 0
454 311 55 0
455 12 77 0
455 77 464 0
455 456 461 0
455 461 460 0
456 455 464 0
457 163 166 0
457 174 458 0
459 269 354 0
459 271 167 0
460 154 455 0
461 456 155 0
462 360 408 0
463 265 166 0
464 121 202 0
465 52 114 0
466 132 221 0
467 157 495 0
467 244 80 0
467 248 244 0
468 183 97 0
470 168 278 0
474 188 215 0
474 215 392 0
475 419 219 0
476 341 487 0
477 376 484 0
477 383 481 0
477 435 297 0
478 22 232 0
478 232 493 0
479 195 501 0
479 414 491 0
480 295 490 0
480 490 492 0
481 113 119 0
482 284 431 0
482 364 500 0
483 496 433 0
484 479 491 0
484 491 499 0
485 111 62 0
486 16 145 0
487 258 257 0
488 284 500 0
488 314 284 0
489 207 314 0
490 299 491 0
490 414 492 0
491 299 499 0
492 414 501 0
494 388 418 0
496 377 416 0
496 483 377 0
498 274 277 0

End
