MeshVersionFormatted 1

Dimension
2

Vertices
150
0.0 0.0 1
0.5 0.0 1
0.5 0.5 1
0.0 0.5 1
0.25 0.0 1
0.25 0.5 1
0.0 0.25 1
0.125 0.5 1
0.3097340992820321 0.263806362189644 0
0.5 0.1875 1
0.43043240872385224 0.27346154270237993 0
0.29342964006746053 0.21207109352597608 0
0.375 0.0 1
0.3125 0.0 1
0.26904456563184026 0.12134411127401788 0
0.125 0.0 1
0.25749017954575304 0.29104351738650747 0
0.375 0.5 1
0.1875 0.5 1
0.09778107189261252 0.4477397989454601 0
0.0625 0.5 1
0.0 0.125 1
0.14450803570559628 0.04265012989952109 0
0.0 0.3125 1
0.1875 0.0 1
0.5 0.0625 1
0.4375 0.0 1
0.5 0.375 1
0.4375 0.5 1
0.0 0.4375 1
0.36665874628938266 0.2612876575612072 0
0.30442459181159365 0.14274892106989728 0
0.2532367349068887 0.15373894802792326 0
0.24417658891806707 0.07543098832925271 0
0.4271306623155146 0.1327339439385842 0
0.3641968270131588 0.37008437569079433 0
0.3374907927560261 0.2188229946296395 0
0.3851937609636365 0.3410927966278895 0
0.05346116794471456 0.3595345795068496 0
0.13412587556227973 0.3849515876491405 0
0.13049423178967978 0.3516618607931014 0
0.35346794789425756 0.1251639054438645 0
0.11807591695840897 0.24063054096294242 0
0.2826866351247695 0.43866159950213945 0
0.14176370321033477 0.40632306713860034 0
0.18634777408491673 0.17830808578435536 0
0.3125 0.5 1
0.15619546605567744 0.4491023037304962 0
0.3304584880635622 0.39861032699202875 0
0.0 0.1875 1
0.24055143393045805 0.3422962330878774 0
0.3978027489335793 0.1751174340723432 0
0.1622619273623585 0.2562257585230047 0
0.39206231402217334 0.21925477907967564 0
0.36636778349205695 0.19362583533800443 0
0.19244991962816954 0.3134106925638596 0
0.1615735686800022 0.33811727219731513 0
0.055082373411586005 0.2926723377164883 0
0.14001596289229892 0.31290045341594885 0
0.2365973839325397 0.39469696772915186 0
0.27806609335714844 0.15701771427323702 0
0.3476164547250515 0.05438275739389567 0
0.23004458884392498 0.12312027992971714 0
0.10922292065962576 0.28290223597669617 0
0.33669240409413537 0.1482896394913922 0
0.3178005254816512 0.14452748712392194 0
0.25548491538665874 0.24002031369189658 0
0.2578319175251236 0.18841583365565745 0
0.2218906904844203 0.16449917591343508 0
0.09956519377704741 0.32540618217268497 0
0.10840534619487302 0.40619299402246417 0
0.1847084958303256 0.40067293582621405 0
0.10190486774566804 0.37248074469702647 0
0.4170465648473335 0.06063977601969243 0
0.20944487342799406 0.21467148693047222 0
0.03965048544458157 0.15521438798177245 0
0.4082516835179724 0.35151556867619677 0
0.19144134694072446 0.1427011931302869 0
0.39270972933661946 0.3603984011872794 0
0.5 0.3125 1
0.43902785741238187 0.20578385958881829 0
0.38831434363764844 0.3009399165789677 0
0.14656803166703633 0.2023559568966733 0
0.2778919077407891 0.32900763003580663 0
0.13429048957931994 0.11025440309582696 0
0.3406993871608069 0.3404952900839555 0
0.338072707382075 0.29758222190139894 0
0.36742370570535243 0.35751547966643527 0
0.15708795840110606 0.1195317816927688 0
0.05424457435989112 0.10122004459496328 0
0.0 0.0625 1
0.0625 0.0 1
0.3256021549205232 0.10270470733617856 0
0.3603999001205248 0.15592409133319424 0
0.37437105193189807 0.4087678759640014 0
0.15231889560514103 0.08497105069914346 0
0.19612866922155195 0.054887833418539346 0
0.11278341364485335 0.08811137542611883 0
0.44226439055583333 0.37256119070213484 0
0.07872380429816901 0.04590686322929063 0
0.19557895595236305 0.10396842946104602 0
0.42741417966737655 0.32323795438821684 0
0.37470548215426674 0.10396450955174408 0
0.38138257440641116 0.1355207221745506 0
0.29548510977387077 0.07368867777926713 0
0.45650435469682843 0.42130247668217796 0
0.5 0.25 1
0.1572221030168136 0.3840142490490108 0
0.2133090472404004 0.2695594351537414 0
0.08388651996618479 0.1719767097612665 0
0.33690446875311875 0.17637297831141305 0
0.3557005720173836 0.36418587454058615 0
0.13592877906157771 0.13284301267152782 0
0.15582323154293234 0.1549564977596269 0
0.2009280089773918 0.3608646682344986 0
0.17174812001052697 0.3699569179110855 0
0.15289547550523222 0.3621946790921916 0
0.06836591266661123 0.24624237236336066 0
0.2191337581500806 0.44817045059133737 0
0.2868686063377642 0.18258107193224735 0
0.29963966399602393 0.16310180041916197 0
0.3940320778790835 0.3836823456932114 0
0.31050728421584406 0.1157605406450622 0
0.34681434775167 0.4506201659756441 0
0.044275880536084215 0.20754102527081783 0
0.35271940842195465 0.3799367420639047 0
0.09709582487077685 0.20654634148640497 0
0.174094321711038 0.3516419620003995 0
0.3131846213932155 0.188574038785562 0
0.39809635232292906 0.45058602007889276 0
0.3194734035887821 0.15882028238520135 0
0.41570564501305357 0.400764137204137 0
0.5 0.4375 1
0.3740349020038083 0.3778892956822032 0
0.36034224107208057 0.3413703058769509 0
0.3597588905673193 0.32487628474738245 0
0.30544239707624987 0.30986495739209374 0
0.09804905777019009 0.128672018271651 0
0.34802710647732044 0.35445339442156776 0
0.2843309954651119 0.3746814062186163 0
0.33107198778321095 0.3283319241896849 0
0.30917485470224143 0.33847647245794454 0
0.32865024441364793 0.3441804177949651 0
0.33125753979624945 0.36771501365971637 0
0.06945941319994006 0.40565224559524776 0
0.377942073769802 0.3588463624121681 0
0.4132095960460282 0.37167109518107927 0
0.32300853218148895 0.13201053820643313 0
0.1201080658587946 0.16128009294301213 0
0.0 0.375 1

Edges
31
1 91 1
1 92 1
2 26 1
2 27 1
3 29 1
3 133 1
4 21 1
4 30 1
5 14 1
5 25 1
6 19 1
6 47 1
7 24 1
7 50 1
8 19 1
8 21 1
10 26 1
10 107 1
13 14 1
13 27 1
16 25 1
16 92 1
18 29 1
18 47 1
22 50 1
22 91 1
24 150 1
28 80 1
28 133 1
30 150 1
80 107 1

Triangles
267
5 14 105 0
5 34 97 0
5 97 25 0
5 105 34 0
7 58 24 0
7 125 118 0
8 20 48 0
8 21 20 0
9 12 37 0
9 17 67 0
9 37 31 0
9 67 12 0
9 137 17 0
11 107 80 0
12 120 129 0
13 27 74 0
13 62 14 0
15 63 34 0
15 123 32 0
16 23 100 0
17 109 67 0
17 137 84 0
18 47 124 0
18 130 29 0
19 48 119 0
19 119 6 0
20 30 145 0
20 71 45 0
21 4 30 0
22 90 76 0
23 96 98 0
23 98 100 0
25 23 16 0
26 10 35 0
26 27 2 0
26 35 74 0
26 74 27 0
29 106 133 0
29 133 3 0
30 20 21 0
31 54 11 0
31 87 9 0
32 61 15 0
32 131 121 0
32 148 66 0
33 15 61 0
33 61 68 0
33 68 69 0
34 101 97 0
34 105 15 0
35 104 103 0
36 88 146 0
36 112 88 0
37 12 129 0
37 55 54 0
37 129 111 0
38 79 146 0
38 82 102 0
38 135 136 0
39 70 73 0
39 73 145 0
39 150 24 0
40 45 71 0
40 71 73 0
40 117 108 0
41 59 57 0
41 70 59 0
41 117 40 0
42 65 148 0
42 93 103 0
42 104 94 0
43 53 64 0
43 118 127 0
44 6 119 0
44 47 6 0
44 49 124 0
44 60 140 0
44 140 49 0
45 40 108 0
46 69 75 0
46 83 114 0
47 44 124 0
48 19 8 0
48 20 45 0
48 45 72 0
48 72 119 0
49 95 124 0
50 22 76 0
51 60 115 0
51 84 140 0
51 115 56 0
52 35 81 0
52 94 104 0
53 59 64 0
53 75 109 0
54 31 37 0
54 52 81 0
54 55 52 0
55 37 111 0
55 94 52 0
56 17 51 0
56 53 109 0
56 57 59 0
56 59 53 0
56 115 128 0
57 117 41 0
58 7 118 0
58 39 24 0
58 64 70 0
60 51 140 0
61 121 120 0
62 74 103 0
62 93 105 0
62 103 93 0
63 15 33 0
63 33 69 0
63 78 101 0
64 118 43 0
65 66 148 0
65 94 111 0
65 111 131 0
68 12 67 0
68 120 12 0
69 46 78 0
69 68 75 0
70 39 58 0
70 64 59 0
71 20 145 0
72 45 108 0
72 60 119 0
73 41 40 0
73 70 41 0
73 71 145 0
74 62 13 0
75 53 83 0
75 67 109 0
75 68 67 0
76 90 138 0
76 110 125 0
77 38 102 0
77 99 147 0
78 46 114 0
78 63 69 0
79 38 77 0
79 77 147 0
80 99 102 0
81 11 54 0
81 35 10 0
81 107 11 0
82 31 11 0
82 38 136 0
83 43 127 0
83 46 75 0
83 53 43 0
84 51 17 0
85 89 113 0
85 113 138 0
86 135 139 0
86 136 135 0
87 31 82 0
87 82 136 0
88 38 146 0
88 135 38 0
88 139 135 0
89 78 114 0
89 96 101 0
90 91 100 0
90 98 138 0
91 90 22 0
92 16 100 0
92 91 1 0
93 42 148 0
94 55 111 0
94 65 42 0
95 126 134 0
95 130 124 0
96 23 97 0
96 85 98 0
96 89 85 0
97 23 25 0
98 85 138 0
98 90 100 0
99 80 28 0
99 106 132 0
99 132 147 0
100 91 92 0
101 34 63 0
101 78 89 0
101 96 97 0
102 11 80 0
102 82 11 0
102 99 77 0
103 74 35 0
104 35 52 0
104 42 103 0
105 14 62 0
105 93 123 0
106 29 130 0
106 99 28 0
106 130 132 0
107 81 10 0
109 17 56 0
112 36 126 0
113 89 114 0
113 114 149 0
114 83 149 0
115 60 72 0
116 72 108 0
116 115 72 0
117 116 108 0
117 128 116 0
118 64 58 0
118 125 127 0
119 60 44 0
120 68 61 0
121 61 32 0
121 129 120 0
122 79 147 0
122 95 134 0
122 132 95 0
123 15 105 0
123 93 148 0
125 7 50 0
125 50 76 0
125 110 127 0
126 95 49 0
126 144 112 0
127 149 83 0
128 57 56 0
128 115 116 0
128 117 57 0
130 18 124 0
130 95 132 0
131 32 66 0
131 66 65 0
131 111 129 0
131 129 121 0
132 122 147 0
133 106 28 0
134 79 122 0
134 126 36 0
134 146 79 0
136 86 141 0
137 9 87 0
137 141 142 0
138 110 76 0
138 149 110 0
139 88 112 0
139 112 144 0
139 143 86 0
141 87 136 0
141 137 87 0
142 84 137 0
142 140 84 0
142 144 140 0
143 139 144 0
143 141 86 0
143 142 141 0
144 49 140 0
144 126 49 0
144 142 143 0
145 150 39 0
146 134 36 0
148 32 123 0
149 127 110 0
149 138 113 0
150 145 30 0

End
