MeshVersionFormatted 1

Dimension
2

Vertices
75
0.0 0.0 1
0.5 0.0 1
0.5 0.5 1
0.0 0.5 1
0.25 0.5 1
0.375 0.0 1
0.375 0.5 1
0.0625 0.5 1
0.0 0.1875 1
0.0 0.3125 1
0.0625 0.0 1
0.0 0.0625 1
0.5 0.0625 1
0.4375 0.0 1
0.5 0.3125 1
0.0 0.4375 1
0.4375 0.5 1
0.1875 0.0 1
0.30302645505175047 0.12436789675444214 0
0.037583331170289835 0.23799784862940682 0
0.26265404471507764 0.30951130191995174 0
0.5 0.4375 1
0.15625 0.5 1
0.5 0.1875 1
0.31597442408366205 0.4152807513319012 0
0.4155759816198941 0.2584388930310205 0
0.15878354935379738 0.3431185976324205 0
0.1642544706233946 0.18046474625405243 0
0.45239651319302837 0.12256946445915975 0
0.41101095088202494 0.07103737418554512 0
0.33393217248360013 0.3712915851565758 0
0.10558150129137296 0.28154645912238163 0
0.22140514123205193 0.18825783464449442 0
0.1106751504734225 0.20389277032477335 0
0.36578490632631017 0.39283396416851335 0
0.33120448146470194 0.07676298440981523 0
0.09228377887111189 0.37464674026467937 0
0.3531767335248342 0.23404309278231758 0
0.4266432748244727 0.32647072402964583 0
0.17290133628677642 0.25183383249474633 0
0.41008839309506057 0.12217534020732937 0
0.3001191286682065 0.22897231800014864 0
0.3091675065900171 0.26469755139274087 0
0.3333649813285388 0.1745482757393645 0
0.25696775253181897 0.2376636170783055 0
0.1534534914016855 0.4216252739847375 0
0.24038859050184316 0.390203334074763 0
0.4423946227809078 0.4008483555515776 0
0.2819930460400431 0.17864121675772285 0
0.2897526477697644 0.3669291822236382 0
0.39798721333644904 0.37590246761041723 0
0.19771543015439214 0.13855734588925414 0
0.23715769884925694 0.08125016755941343 0
0.4060418589292534 0.18719280356522414 0
0.36090721443542484 0.29864355012154026 0
0.31105781480083583 0.35022205795270506 0
0.3553588426349427 0.1273007287829381 0
0.3816863909853166 0.4287848430066889 0
0.14597913816865596 0.06096306838958149 0
0.05670584650907356 0.15337333474459625 0
0.36869908895256304 0.341701984719512 0
0.24956600778818291 0.1501282606686845 0
0.08240800238746085 0.07449880379022875 0
0.11570672078355126 0.14664914369567497 0
0.25 0.0 1
0.125 0.0 1
0.4091072799152875 0.152011753427314 0
0.43336139712049326 0.1538872803166075 0
0.3157432333928648 0.3211612828059056 0
0.3697605466405987 0.10855478171262359 0
0.14056335910244372 0.11368378498231506 0
0.34030023894245254 0.33439170275418556 0
0.3873922548550135 0.14019522788228772 0
0.5 0.125 1
0.0 0.25 1

Edges
25
1 11 1
1 12 1
2 13 1
2 14 1
3 17 1
3 22 1
4 8 1
4 16 1
5 7 1
5 23 1
6 14 1
6 65 1
7 17 1
8 23 1
9 12 1
9 75 1
10 16 1
10 75 1
11 66 1
13 74 1
15 22 1
15 24 1
18 65 1
18 66 1
24 74 1

Triangles
123
5 46 47 0
5 47 25 0
6 30 36 0
7 25 58 0
10 32 37 0
11 12 1 0
12 11 63 0
12 60 9 0
13 14 2 0
13 29 30 0
14 13 30 0
15 22 48 0
15 26 24 0
15 39 26 0
16 8 4 0
16 10 37 0
17 7 58 0
17 22 3 0
18 53 59 0
18 65 53 0
19 36 57 0
19 62 53 0
20 60 34 0
20 75 9 0
21 56 50 0
23 46 5 0
24 26 54 0
24 54 68 0
25 7 5 0
25 35 58 0
25 47 50 0
26 39 55 0
27 32 40 0
27 40 21 0
27 46 37 0
28 34 64 0
28 40 34 0
28 64 71 0
29 24 68 0
29 74 24 0
30 6 14 0
30 29 41 0
30 70 36 0
31 25 50 0
31 35 25 0
31 50 56 0
31 56 72 0
32 10 20 0
32 34 40 0
33 49 45 0
33 52 62 0
34 32 20 0
34 60 64 0
35 31 61 0
36 53 65 0
37 8 16 0
37 32 27 0
37 46 8 0
38 26 55 0
38 42 44 0
38 54 26 0
39 15 48 0
39 48 51 0
39 51 61 0
40 28 33 0
40 33 45 0
41 29 68 0
41 73 70 0
42 38 43 0
42 45 49 0
42 49 44 0
43 38 55 0
43 45 42 0
43 55 69 0
44 19 57 0
44 57 73 0
45 21 40 0
45 43 21 0
46 23 8 0
46 27 47 0
47 21 50 0
47 27 21 0
48 17 58 0
48 22 17 0
49 19 44 0
49 33 62 0
51 35 61 0
51 58 35 0
52 28 71 0
52 33 28 0
52 59 53 0
53 36 19 0
54 38 44 0
54 44 73 0
54 67 68 0
55 39 61 0
55 61 72 0
56 21 69 0
57 36 70 0
57 70 73 0
58 51 48 0
59 52 71 0
59 66 18 0
60 12 63 0
60 20 9 0
61 31 72 0
62 19 49 0
62 52 53 0
63 59 71 0
63 64 60 0
63 66 59 0
64 63 71 0
65 6 36 0
66 63 11 0
67 41 68 0
67 54 73 0
69 21 43 0
69 72 56 0
70 30 41 0
72 69 55 0
73 41 67 0
74 29 13 0
75 20 10 0

End
