MeshVersionFormatted 1

Dimension
2

Vertices
501
0.0 0.0 1
0.5 0.0 1
0.5 0.5 1
0.0 0.5 1
0.25 0.0 1
0.5 0.25 1
0.25 0.5 1
0.0 0.25 1
0.0 0.375 1
0.125 0.5 1
0.3692188374332668 0.34689066660894696 0
0.2509209228562067 0.25045198610884606 0
0.1928024148838615 0.2915523646272049 0
0.2504227945765868 0.319566455510137 0
0.39347609364800135 0.17910927386435269 0
0.3341398254103019 0.22180201673927682 0
0.5 0.125 1
0.5 0.1875 1
0.2528226945035231 0.13648698616325414 0
0.2802794620136137 0.19273856772748263 0
0.3207656441631677 0.1438903129075458 0
0.375 0.0 1
0.3125 0.0 1
0.3507843115242544 0.07715840589602255 0
0.125 0.0 1
0.18620372256383727 0.08994727993012115 0
0.2845330640434103 0.41528987748753077 0
0.375 0.5 1
0.3125 0.5 1
0.25823280587796527 0.385706546922921 0
0.1875 0.5 1
0.22675494651413958 0.4612520038030729 0
0.14090722433664504 0.42513815578968284 0
0.0625 0.5 1
0.08140157193471828 0.45562405037921494 0
0.0 0.125 1
0.09997052922957243 0.13740415066661546 0
0.15896586837863919 0.1395066216318521 0
0.13662071757753244 0.19117153795837016 0
0.04077510217762734 0.20023604354373165 0
0.0 0.1875 1
0.0 0.3125 1
0.0459006950572342 0.12315348896049107 0
0.0625 0.0 1
0.0 0.0625 1
0.07451685209361598 0.04850468077817019 0
0.2333045157992705 0.07041305037234702 0
0.1875 0.0 1
0.15421044607729273 0.057609432909473964 0
0.2905635807565478 0.0841356281453017 0
0.2886785967065511 0.03447937756685937 0
0.15368215838927096 0.2748039887679242 0
0.43909813690982147 0.0817640805156111 0
0.3888410584473796 0.0917972221705235 0
0.5 0.0625 1
0.4375 0.0 1
0.5 0.375 1
0.44878669955347783 0.36124103846549105 0
0.5 0.3125 1
0.5 0.4375 1
0.35332323385851083 0.4158184073215237 0
0.4375 0.5 1
0.22486562450498154 0.28245355527932003 0
0.3629163726886028 0.32098622661304926 0
0.29867151439808365 0.2481625337122573 0
0.36524157303316235 0.1926761162094358 0
0.35458552917771785 0.23011066635471242 0
0.5 0.155375442259618 1
0.355374900637165 0.28728388090119855 0
0.27266361895367686 0.24187566958095894 0
0.3528464177609987 0.16299678706602871 0
0.30237355025231744 0.1642794508209212 0
0.28645693434410097 0.1384054568276599 0
0.3413427549990793 0.10581089678121842 0
0.23511678926590102 0.14589575446363387 0
0.14024951101679858 0.24656082242118263 0
0.18808162163343375 0.27362540986321493 0
0.2742314707816911 0.26858366333030353 0
0.2908400252457431 0.2955983132084117 0
0.3432201769975713 0.34334694656660947 0
0.286245197466687 0.33886124590385097 0
0.2800345546951297 0.4580041809615923 0
0.34271704682856563 0.5 1
0.24702079235435137 0.42426329817276087 0
0.20896764525282277 0.4282979857918509 0
0.16379991412068878 0.40145194163588205 0
0.17460400093748815 0.4293714665574015 0
0.14228366043721274 0.3971503008513894 0
0.16857693182797234 0.36677525927196764 0
0.16711186857535384 0.3069058039540495 0
0.17569280814541827 0.34208472826319647 0
0.0404248746054809 0.43095747289064934 0
0.1702003547944181 0.1028979916927751 0
0.11823068737608677 0.14499773145924494 0
0.07905305952817086 0.19806855290396277 0
0.06961468081407375 0.2275265885690248 0
0.03589908737334203 0.24012440769740262 0
0.0949087832460048 0.2458070917587566 0
0.06866731118870056 0.2630319663428556 0
0.04358595718709303 0.3361941600444504 0
0.061784989312155696 0.14593951126702623 0
0.03593054002062941 0.15832697945836746 0
0.034637057570044545 0.08729006271564226 0
0.038491534858648424 0.04495301857923101 0
0.08913650565684376 0.10005668658474251 0
0.16358636495139972 0.08230902310628714 0
0.12918661585136254 0.09847271015647584 0
0.10485270623040527 0.0327166961484435 0
0.2542743951643377 0.04895272130324436 0
0.2082437743021003 0.07810835052162049 0
0.18295454824900462 0.06397330160740146 0
0.33307423500749667 0.06687226181386259 0
0.27899411605579 0.10637243932441456 0
0.280052492875578 0.06244478940792469 0
0.1664766661842451 0.2475563008150927 0
0.1769698855769976 0.28562754916001243 0
0.4688754338866317 0.09293781821646142 0
0.4061505314497166 0.14966838661320703 0
0.3692176167444131 0.08119653408172291 0
0.41147020560962033 0.08365994004745984 0
0.403647938040126 0.10635014752798436 0
0.2009939419177793 0.3532525728877568 0
0.20586983042726026 0.3175488867223777 0
0.46115456879080485 0.04814107634410521 0
0.42158335627366156 0.052456281688790456 0
0.46990495579099 0.35127449348399326 0
0.410338242959375 0.3660445507616263 0
0.5 0.34272249503070185 1
0.46120886926815313 0.24732977807846765 0
0.4451450411740082 0.29418036266286945 0
0.4428671367105131 0.33140115086838035 0
0.379531272315324 0.3403049895081756 0
0.37578600614662805 0.3056358573174065 0
0.40956911141906144 0.29800791538131244 0
0.4268138352756729 0.35037036868804355 0
0.3759911674032567 0.4571384363459777 0
0.409056951068791 0.41231781026279535 0
0.5 0.4070984866274847 1
0.3565488393916918 0.3936680425325187 0
0.3527933457099284 0.4732228057181483 0
0.337107819733049 0.39994962592799643 0
0.3465974258762833 0.44255341229099937 0
0.2122226627987547 0.30028111399891616 0
0.24506398451499817 0.27644274348666087 0
0.36374253305417625 0.3351550334907999 0
0.37523621457362905 0.32447428833269165 0
0.3131770593989908 0.30670558674532106 0
0.31287101157534186 0.2238967817758683 0
0.3750027571269436 0.1768455928702495 0
0.3480720818594647 0.20518186188827658 0
0.401700689055869 0.19361323288733623 0
0.38376661000651696 0.19444960433064437 0
0.3841392338759341 0.23950695114492984 0
0.41266660469145394 0.18024266080423437 0
0.4674565311608354 0.1682594171634171 0
0.3954215632149809 0.21192650545610203 0
0.42196673311354205 0.20378351301395842 0
0.2849121690173862 0.21999211950060216 0
0.3035934307753894 0.20157305242728246 0
0.3254268543698498 0.20487064424792614 0
0.2505045027278143 0.15739548088972763 0
0.37266482397721434 0.1612530990503571 0
0.38139786025725897 0.1338331172434537 0
0.3432601448501165 0.156844714092497 0
0.36130223640367715 0.17935100659847122 0
0.3005240061472252 0.18096351028817023 0
0.31811442418852814 0.18764838896763042 0
0.306384118436791 0.15080723289762216 0
0.2852390209974888 0.1690496460919988 0
0.2726838266660598 0.1280402823061555 0
0.2718404368270222 0.15075505998560434 0
0.301641053792004 0.1377971085737104 0
0.3364529643647048 0.08904064575443198 0
0.31576323628370917 0.08548733776733328 0
0.3376170192124294 0.12890628711508523 0
0.36012038961208237 0.02447600496665218 0
0.25699191315843817 0.22270403780353004 0
0.24371546178602507 0.17492896780028486 0
0.23180964693989645 0.12444438854087725 0
0.2047773842791686 0.10495726766217288 0
0.18224977071167117 0.258294487527673 0
0.16915271301607537 0.26970987972851035 0
0.1955489032683338 0.22371063000114438 0
0.2242314926539999 0.2599772482027937 0
0.275093511188744 0.3186528574240795 0
0.3313121777636788 0.3483186784450125 0
0.30669157974931055 0.3377527018863992 0
0.3226047897582402 0.3383854555043411 0
0.3247153380412771 0.468267963399989 0
0.24097615785444704 0.3412971795466017 0
0.2053808658163702 0.3325235742393635 0
0.22303372666064009 0.3966974845279605 0
0.201108466453525 0.3769326089022564 0
0.1778925249013453 0.3827698228613667 0
0.15643636908173816 0.3804093219919922 0
0.19103754533398892 0.4027193870801962 0
0.15751754238202062 0.46066958572883276 0
0.1080488924888115 0.42551004536184467 0
0.139408567150783 0.37820385659374844 0
0.15401529155193597 0.36281984490095803 0
0.14619228493686534 0.3520134688148069 0
0.11558794449643943 0.3547958968850853 0
0.17971352621530262 0.30015179129880126 0
0.18493628610310417 0.3630641945288109 0
0.17415487770104457 0.3544332418460841 0
0.16006966995514377 0.15475144921855 0
0.17376424461608378 0.17035973247151365 0
0.17407051456708258 0.1316186387393237 0
0.12197790075225173 0.20844557751262532 0
0.10267986955697696 0.15441126714388714 0
0.1177745860995064 0.18477470239389124 0
0.11659363798963618 0.16501659573842506 0
0.10245007573991391 0.19648486842843738 0
0.09575251322617165 0.17450343077238586 0
0.037831846670729974 0.2843367573331697 0
0.11793666193407182 0.233577110569553 0
0.10338340750452044 0.33664718043705494 0
0.13082611391236676 0.3126388711562943 0
0.09784830873976645 0.2744758708445922 0
0.11900765476404165 0.2797941450407648 0
0.07821834516520682 0.1248170953185249 0
0.14024339355144422 0.07933692900708796 0
0.12633457030947798 0.05725830133362117 0
0.13988872933791374 0.030067218741059824 0
0.10206104438926043 0.1174598992851934 0
0.12028726945082449 0.11497252452942289 0
0.11743714479363064 0.08018929962868909 0
0.10969321044635287 0.09915066113356913 0
0.05856876237825097 0.07111454632144643 0
0.17223307848406172 0.03222959959151479 0
0.2544323894923787 0.1127952148588629 0
0.23015055029461823 0.09796006962048097 0
0.29173494427569574 0.12336797386058172 0
0.26001348620955717 0.08334167571247221 0
0.306380214662327 0.061470607517748646 0
0.32948330542297405 0.03477057849618695 0
0.13763649123909305 0.27125768275923257 0
0.16858384501133322 0.29555683333597643 0
0.15654911280739198 0.2981115662437529 0
0.16198742408144703 0.2848803861358574 0
0.4469708650561918 0.10768406041534155 0
0.4021252094959421 0.1648257410959519 0
0.4358803363127893 0.1264536025397989 0
0.42044791319581115 0.14124518757755775 0
0.43731674836276935 0.17797484448183198 0
0.4253509281138841 0.10470037657245125 0
0.35412237380756306 0.09471873271056698 0
0.4144809209027109 0.12315719942989801 0
0.4063073374483923 0.13581609037776757 0
0.46045526982951124 0.20476326802895203 0
0.19006215200269286 0.33849127205179946 0
0.1934914273157392 0.3078227532328581 0
0.3911399176460166 0.03313240537031512 0
0.06818435943211601 0.35894975982644306 0
0.09307081497502785 0.35701500751786924 0
0.3856075265655447 0.35019565021312 0
0.4014825215962858 0.3463419087331169 0
0.47760256715852534 0.28751640248515636 0
0.47133995294636116 0.3188359762222193 0
0.3933070819875389 0.32425427590308414 0
0.4178123143339028 0.32815778877210183 0
0.4011493094400389 0.4362100451399765 0
0.3746596460628126 0.371909342948195 0
0.4131342831852404 0.3873937274688385 0
0.4316895113662213 0.3749816785198504 0
0.4637075493916987 0.4212435903579494 0
0.46520231291584424 0.38541695078858157 0
0.3133611465607895 0.4347967116145797 0
0.3307844317336979 0.36356907590911836 0
0.2622051790449832 0.2963230134337731 0
0.35266958833887707 0.31028081935840257 0
0.3338204769795208 0.2734011068568025 0
0.371933931408692 0.21233210316847068 0
0.3563519714058319 0.2591103696754607 0
0.41871456932795437 0.2590372398680544 0
0.26403318913474627 0.17344700455458545 0
0.39378260548042154 0.14144864802084406 0
0.394992507881975 0.12404477339137936 0
0.38144362763260814 0.14951517944524062 0
0.37783295271404105 0.11973494960700075 0
0.3551461553019234 0.11096854999183058 0
0.35084914572992726 0.18596257581966508 0
0.33514595270700276 0.18939584821027236 0
0.31460904530462 0.1716546798635093 0
0.2923677405141193 0.15194633945648198 0
0.3042430375974373 0.10663827537411207 0
0.32460714086881315 0.1037972679220148 0
0.33766991638309823 0.14085755021236498 0
0.3605626464847806 0.054865992219996704 0
0.25447967229726626 0.19590131171147807 0
0.19171479532379002 0.1242097213754384 0
0.2192409998465051 0.140389721708994 0
0.21164336907235695 0.12467296846756357 0
0.21508383797932476 0.21865390548791772 0
0.2094599607928463 0.23942961922448247 0
0.23220741609049442 0.23368726627888667 0
0.20720840486051378 0.27816485015270315 0
0.19966185877623352 0.25841086971987726 0
0.2950131930886223 0.3817151308107876 0
0.2286639187879052 0.36480325048242856 0
0.10228522129275487 0.39749044393448113 0
0.1723839149548089 0.1475415900840577 0
0.18640822241996535 0.14243887661025353 0
0.14642610214692292 0.1484053709825978 0
0.13828711041185482 0.11609494546523247 0
0.0840675798103101 0.15112634516552298 0
0.15550601425984847 0.19133315730203893 0
0.16736060085423846 0.1792714608891786 0
0.16279952416641774 0.1674115880608356 0
0.14592410937748443 0.17959217341386297 0
0.06627554576064489 0.17174915498634521 0
0.09745895512992812 0.21846415167896227 0
0.11815847187370576 0.25866250922452316 0
0.14363807722571387 0.3010535557797236 0
0.07530391252547171 0.3011654545044746 0
0.06453343407020928 0.0970207334997321 0
0.10063734579637722 0.06352211649693312 0
0.38655127785289806 0.16420527237600574 0
0.41996668075041993 0.1610843200201765 0
0.46574409118616505 0.13252432252099342 0
0.44119453231230055 0.1511269674076045 0
0.3903510376700121 0.06610610018026175 0
0.4110540193615657 0.22911242139547794 0
0.19193227402311472 0.3231574226406048 0
0.17796627683818933 0.32845796632252966 0
0.17924807964823605 0.3145435602145884 0
0.07651350407056097 0.4130665343839337 0
0.04378525151803385 0.38522086357448515 0
0.43032501574653026 0.4305034828163372 0
0.39183368680281067 0.39766758588300527 0
0.23647972630950062 0.29952381158246033 0
0.32896348019203553 0.24614978995801903 0
0.29861789780553044 0.2730143028478818 0
0.33321880467113413 0.29982082685096434 0
0.38383391943578715 0.27463197764446357 0
0.4346232446794339 0.22836379605124693 0
0.36131225297895286 0.14733684569813432 0
0.37119425697534447 0.10352351960389908 0
0.3415025388767457 0.17595125213285606 0
0.314577541990261 0.15868274117845343 0
0.31876469385965306 0.11860218739188187 0
0.3551725145622706 0.12549625929617594 0
0.2347793580198764 0.21046331982823097 0
0.21780402576004768 0.20030627457245384 0
0.22445252373703872 0.17277443411661841 0
0.217794151670653 0.1857941989397372 0
0.23524745606657954 0.16145340012943876 0
0.20567032925400136 0.1900982678267859 0
0.19026391594813838 0.19231928768353856 0
0.18800865889574242 0.2418327584867327 0
0.29813975046057756 0.3200738926938836 0
0.29879076853100894 0.3563522561694436 0
0.3213351897307995 0.38378191739657846 0
0.17243494873611023 0.16002588311960556 0
0.2024791305387354 0.14005452215029388 0
0.15885730526303812 0.12002310189954178 0
0.15582987756913658 0.17654530686921463 0
0.13294790162833886 0.17396913914437123 0
0.1836876515460431 0.20834949926180668 0
0.145264701200117 0.20845602700524415 0
0.1313937191488354 0.29161198876811567 0
0.1473678300698314 0.28690317618202865 0
0.39406332367558244 0.15381305699676934 0
0.10656672341442203 0.37393202669990644 0
0.08134395635123173 0.3809576335943131 0
0.43440331430063356 0.4026213240476841 0
0.3063809974447289 0.12361693080784475 0
0.2321586440229296 0.19019900730910355 0
0.20925615646806853 0.17696075044007153 0
0.20146544691235244 0.20576808743565955 0
0.14230089718075747 0.32873923136502686 0
0.15612101524923797 0.35170478664066485 0
0.21002410963451473 0.15113326489768986 0
0.19586823405303946 0.15709262899979512 0
0.13293407209602753 0.1562659749886886 0
0.1741880674137449 0.1931479801402413 0
0.1755328369513222 0.22626682182776617 0
0.224467420043836 0.3219511666188611 0
0.15627884517892474 0.3281110377922852 0
0.1825133924582618 0.1785751849818532 0
0.20075248129528206 0.16962907354278353 0
0.19164428404384354 0.16955572612343364 0
0.18167912530433827 0.15445705039258242 0
0.14818291499176295 0.16515084719734097 0
0.15460221232996182 0.22725292711618833 0
0.16493976208352132 0.20889185900698962 0
0.18305732962119015 0.16474049832361956 0
0.15625 0.0 1
0.5 0.46875 1
0.0 0.40625 1
0.0 0.21875 1
0.3560490601578682 0.34707677653960695 0
0.3260539837692248 0.3160051179317764 0
0.3291817017140184 0.3277342511122762 0
0.3518143287733584 0.32597038632761033 0
0.3302323265738732 0.14655963024926333 0
0.3626636450462865 0.16845287209970541 0
0.34462472427183605 0.1191365037511796 0
0.3285551554993844 0.13700806271329175 0
0.33289665353188747 0.3380785740875636 0
0.34135096300448065 0.3312435254117564 0
0.16570676037577065 0.33427606564965257 0
0.21244860588206896 0.04195624061378242 0
0.18545370460534805 0.3501567743517819 0
0.36654283021377737 0.3593083384788839 0
0.3872231283457885 0.1089701498362759 0
0.3455085678977502 0.16694796107004017 0
0.3523743052214987 0.17357127470804878 0
0.3326587363386374 0.117053010808415 0
0.3454560312853298 0.14662404511811925 0
0.16527738415802468 0.3466186353728472 0
0.34838519397979933 0.3616875955723073 0
0.35335810234383114 0.15252111808558602 0
0.369497950987604 0.1517540455405603 0
0.3533209880410247 0.1437053186145153 0
0.3251322079447867 0.16364185165568274 0
0.32306945828656625 0.1530687938517435 0
0.3164397631398031 0.13296527495032665 0
0.1636359610269262 0.35672496287824074 0
0.36557805501065077 0.11792660721765964 0
0.3684980551995481 0.12909882937790274 0
0.35966156651736725 0.13695607544672458 0
0.3520591584915742 0.3363590272659291 0
0.3621256329725042 0.15724945369590435 0
0.3326864381063621 0.15600113641205154 0
0.3268247330069823 0.12696494200587136 0
0.37027783479173554 0.14161359790477795 0
0.3333715915154384 0.42005199936208226 0
0.2636509892741353 0.33891213296644873 0
0.39216833868652734 0.3760945605960041 0
0.3430899804310793 0.3791663626482754 0
0.27617732043368914 0.3600487246643753 0
0.10942316018115299 0.3002044907755432 0
0.37526765331636036 0.38639713816681637 0
0.37367540448746805 0.4067878632825127 0
0.13581622995626083 0.22484846107504758 0
0.3902173624074178 0.4161998096999975 0
0.3139090020791236 0.4062393288446675 0
0.360659844200675 0.3753440561236452 0
0.3121049647877095 0.14297161183354568 0
0.42891816802017385 0.3139290985898408 0
0.12339810308040255 0.3874193453498126 0
0.31555221832105995 0.32420144205367035 0
0.2197372251135646 0.34238903856754754 0
0.26942281220328773 0.20771601180269217 0
0.19695800662413981 0.17948945827859922 0
0.21029597917642684 0.16352846635808413 0
0.22234023248967158 0.15602695340455658 0
0.0 0.4556098228873565 1
0.34375 0.0 1
0.19094065639825425 0.4552123244418153 0
0.11360825021138816 0.12897738930443187 0
0.3748603305824097 0.4285409207968439 0
0.17616206405408358 0.11733098975737459 0
0.1857171547593311 0.10821062328981045 0
0.09924671480835792 0.08392239630195933 0
0.12696912748854708 0.3686985012437418 0
0.4582236746144176 0.4612179654452522 0
0.4121516943098996 0.4640019395647547 0
0.3359773217335456 0.16583269448495241 0
0.08116982601556041 0.07752461453257911 0
0.13238524623707978 0.35287635772012216 0
0.12659059658768157 0.33609469095165656 0
0.11313413726577176 0.32116559330037164 0
0.14982103861597645 0.09970920292903447 0
0.46875 0.5 1
0.03571412972386505 0.46832885060380747 0
0.15291959903927113 0.2620811269630237 0
0.13379014259674427 0.14248480746532521 0
0.14416945790062352 0.13239431875104776 0
0.3167561659726394 0.35260328289195403 0
0.12361836660893732 0.40578683982793073 0
0.08088217590814857 0.33515415529304393 0
0.2537530868560501 0.357799749382554 0
0.3154637282901676 0.14996236167616644 0
0.347825073919829 0.13590190043318764 0
0.3380213424800914 0.14936262783833404 0
0.21969810009657514 0.11279907966390953 0
0.1223073991960525 0.45283991616967384 0
0.32829344063433397 0.1756830563023816 0
0.09620690153692542 0.31887440213364593 0
0.3124692703181667 0.36741686056493134 0
0.3393380353763426 0.31825464866134895 0
0.128041882170488 0.12996738788514697 0
0.5 0.21875 1
0.1519231706847699 0.31396500125276766 0
0.3144030064236166 0.26574859825435343 0
0.3135543952526725 0.28605487837690585 0
0.15291868295080513 0.3401820639365287 0
0.16659811587682916 0.32065908011985705 0
0.14119775171625057 0.36471883945629957 0
0.14003863929003982 0.34141641785427285 0
0.34642893266163927 0.12751484469779553 0
0.14819275278525187 0.3715407819643266 0
0.3813696496716167 0.3629936950505013 0
0.34757203963246425 0.351283072554857 0
0.3404732267314282 0.3533538555721489 0
0.39590852240927715 0.36040044519169095 0
0.37682224608095166 0.3509095301420662 0
0.5 0.09375 1
0.5 0.28125 1

Edges
45
1 44 1
1 45 1
2 55 1
2 56 1
3 389 1
3 466 1
4 34 1
4 449 1
5 23 1
5 48 1
6 485 1
6 501 1
7 29 1
7 31 1
8 42 1
8 391 1
9 42 1
9 390 1
10 31 1
10 34 1
17 68 1
17 500 1
18 68 1
18 485 1
22 56 1
22 450 1
23 450 1
25 44 1
25 388 1
28 62 1
28 83 1
29 83 1
36 41 1
36 45 1
41 391 1
48 388 1
55 500 1
57 128 1
57 138 1
59 128 1
59 501 1
60 138 1
60 389 1
62 466 1
390 449 1

Triangles
955
1 44 104 0
2 55 124 0
4 449 467 0
5 23 51 0
5 51 109 0
5 109 403 0
6 258 129 0
7 31 32 0
7 32 82 0
8 97 215 0
9 42 100 0
10 34 35 0
10 35 479 0
11 132 499 0
12 78 144 0
12 177 70 0
12 296 177 0
13 77 297 0
14 331 270 0
14 378 331 0
15 152 149 0
16 148 160 0
16 160 150 0
16 332 148 0
18 250 155 0
19 170 171 0
20 158 445 0
20 290 276 0
21 417 475 0
22 56 253 0
24 112 289 0
24 119 247 0
25 224 108 0
26 110 180 0
26 180 455 0
27 30 299 0
27 82 84 0
27 268 82 0
28 83 140 0
28 459 62 0
29 7 82 0
29 82 189 0
30 27 84 0
30 84 192 0
30 300 474 0
31 10 197 0
31 197 451 0
32 31 451 0
33 86 87 0
33 87 197 0
33 197 479 0
33 198 472 0
34 4 467 0
35 34 467 0
35 198 479 0
36 43 102 0
36 45 103 0
37 94 210 0
37 210 306 0
37 221 225 0
38 206 304 0
38 304 470 0
38 356 208 0
39 310 307 0
39 358 310 0
40 41 102 0
40 95 96 0
40 97 391 0
40 102 311 0
40 391 41 0
41 36 102 0
42 8 215 0
42 215 100 0
43 103 316 0
44 25 108 0
44 46 104 0
45 1 104 0
46 108 317 0
46 461 229 0
47 232 110 0
47 403 109 0
48 5 403 0
49 106 222 0
49 222 223 0
49 224 230 0
50 113 234 0
50 114 235 0
50 174 286 0
51 23 236 0
51 235 114 0
53 241 246 0
54 119 322 0
54 120 121 0
54 121 406 0
55 117 124 0
56 124 125 0
56 125 253 0
57 126 128 0
59 128 259 0
60 389 458 0
61 139 435 0
61 141 139 0
61 142 428 0
63 143 297 0
63 144 331 0
63 184 144 0
64 145 395 0
65 148 332 0
65 332 487 0
66 149 152 0
66 150 282 0
66 152 273 0
67 16 150 0
67 150 273 0
68 18 155 0
69 133 271 0
69 272 274 0
70 78 12 0
71 164 413 0
71 413 424 0
72 166 169 0
72 169 285 0
72 340 284 0
73 170 233 0
74 173 247 0
74 247 281 0
74 398 409 0
75 19 161 0
75 347 448 0
76 115 468 0
76 216 436 0
76 237 313 0
77 13 116 0
77 116 182 0
77 298 297 0
78 65 333 0
78 70 65 0
78 79 270 0
78 270 144 0
78 333 79 0
79 488 147 0
80 392 496 0
80 423 392 0
80 496 497 0
81 185 351 0
81 187 352 0
82 32 84 0
83 29 189 0
84 85 192 0
85 84 32 0
85 87 196 0
85 451 87 0
86 33 88 0
86 88 195 0
86 194 196 0
87 86 196 0
88 33 472 0
89 194 195 0
89 204 194 0
89 419 205 0
90 490 486 0
91 205 411 0
91 251 404 0
91 402 325 0
92 35 467 0
92 327 35 0
93 26 455 0
94 37 452 0
94 375 212 0
94 484 469 0
95 40 311 0
96 95 312 0
96 99 97 0
96 312 98 0
97 8 391 0
97 40 96 0
97 99 215 0
98 216 313 0
98 219 99 0
99 96 98 0
99 219 315 0
100 315 473 0
101 43 221 0
102 43 101 0
103 43 36 0
103 45 104 0
103 104 229 0
104 46 229 0
105 221 316 0
106 26 93 0
106 49 111 0
106 93 465 0
106 111 26 0
107 222 465 0
107 305 226 0
108 46 44 0
109 51 114 0
109 234 47 0
110 26 111 0
110 111 403 0
110 403 47 0
111 49 230 0
111 230 403 0
112 24 173 0
112 173 174 0
112 236 289 0
113 50 286 0
113 170 231 0
113 233 170 0
114 234 109 0
115 181 182 0
115 182 468 0
115 377 350 0
116 203 238 0
116 238 240 0
117 17 320 0
117 53 124 0
117 320 241 0
117 500 17 0
118 242 363 0
118 249 244 0
119 24 289 0
119 54 338 0
119 289 322 0
120 54 322 0
120 246 121 0
121 246 248 0
121 278 406 0
122 251 191 0
122 404 251 0
122 444 300 0
123 191 324 0
124 53 125 0
124 56 2 0
125 53 120 0
125 120 322 0
126 58 131 0
126 131 259 0
126 267 58 0
127 135 265 0
127 264 430 0
127 430 498 0
128 126 259 0
129 250 485 0
129 258 130 0
129 485 6 0
130 131 441 0
131 58 135 0
131 130 259 0
131 135 261 0
131 261 441 0
132 11 145 0
132 145 146 0
132 256 499 0
133 64 271 0
133 134 260 0
133 335 134 0
134 130 441 0
134 335 275 0
135 58 265 0
135 127 257 0
135 257 261 0
136 28 140 0
136 262 459 0
137 262 437 0
137 264 366 0
137 329 262 0
137 366 329 0
138 60 266 0
138 267 57 0
139 431 439 0
140 83 189 0
140 142 136 0
141 61 428 0
141 353 431 0
141 431 139 0
142 61 453 0
142 140 189 0
142 268 428 0
143 13 297 0
143 63 331 0
143 252 13 0
144 184 12 0
144 270 331 0
145 64 146 0
145 392 423 0
146 64 133 0
146 133 260 0
147 351 79 0
148 65 158 0
149 66 165 0
149 165 397 0
149 318 15 0
150 66 273 0
151 15 154 0
151 154 157 0
151 156 152 0
152 15 151 0
152 156 273 0
153 67 273 0
153 156 323 0
153 273 156 0
153 274 67 0
154 15 242 0
154 242 319 0
154 245 157 0
155 245 321 0
155 320 68 0
157 156 151 0
157 323 156 0
157 336 323 0
158 20 159 0
158 65 70 0
158 70 177 0
158 159 148 0
158 177 445 0
159 20 166 0
159 166 167 0
159 167 160 0
160 148 159 0
160 167 283 0
161 19 171 0
161 171 276 0
161 276 178 0
161 347 75 0
162 149 397 0
162 279 318 0
163 279 427 0
164 71 407 0
164 407 460 0
164 410 413 0
164 425 477 0
165 66 282 0
166 72 284 0
167 166 284 0
167 284 480 0
168 72 285 0
168 172 440 0
168 285 172 0
168 440 475 0
169 20 276 0
169 166 20 0
169 171 285 0
170 19 231 0
170 73 171 0
171 73 285 0
171 169 276 0
172 233 367 0
172 285 73 0
172 418 440 0
173 24 247 0
174 235 112 0
174 287 286 0
175 288 399 0
175 398 493 0
176 22 253 0
176 450 22 0
177 290 445 0
178 290 368 0
178 368 345 0
179 19 75 0
179 75 292 0
179 293 478 0
180 110 232 0
180 232 478 0
180 291 455 0
181 77 182 0
181 115 350 0
182 52 468 0
182 240 52 0
183 295 350 0
184 63 297 0
184 295 296 0
184 296 12 0
184 297 298 0
185 79 351 0
185 270 79 0
185 429 14 0
186 80 497 0
186 188 400 0
186 400 80 0
186 471 188 0
187 188 471 0
187 351 443 0
188 394 400 0
190 14 429 0
190 300 444 0
190 378 14 0
191 378 444 0
192 196 193 0
192 300 30 0
193 204 122 0
194 86 195 0
195 88 199 0
195 199 494 0
195 200 89 0
196 192 85 0
196 194 193 0
197 10 479 0
197 87 451 0
198 33 479 0
198 35 327 0
198 301 472 0
199 88 442 0
199 442 457 0
199 457 491 0
199 491 494 0
200 195 494 0
200 201 372 0
200 419 89 0
201 200 491 0
201 462 492 0
203 13 252 0
203 90 238 0
203 116 13 0
203 326 90 0
204 89 205 0
204 193 194 0
205 404 204 0
206 38 302 0
206 309 384 0
206 354 309 0
206 384 304 0
209 211 39 0
209 312 213 0
209 436 216 0
210 94 212 0
210 212 214 0
211 209 213 0
211 212 358 0
211 213 214 0
211 214 212 0
213 95 214 0
213 312 95 0
214 95 311 0
214 306 210 0
214 311 306 0
215 315 100 0
216 98 312 0
217 202 255 0
217 255 473 0
218 314 486 0
218 371 463 0
218 463 464 0
219 98 313 0
219 220 433 0
220 313 237 0
221 43 316 0
221 105 225 0
221 306 101 0
222 106 465 0
222 107 227 0
222 227 223 0
223 224 49 0
223 227 317 0
224 223 108 0
225 105 228 0
225 452 37 0
226 228 107 0
227 107 228 0
227 228 456 0
228 105 456 0
228 226 225 0
230 48 403 0
231 19 179 0
231 179 232 0
232 47 234 0
232 179 478 0
233 113 286 0
233 172 73 0
233 286 367 0
234 113 231 0
234 114 50 0
234 231 232 0
235 51 236 0
235 174 50 0
236 112 235 0
236 176 289 0
236 450 176 0
237 52 362 0
237 468 52 0
239 238 90 0
239 314 362 0
240 182 116 0
240 238 239 0
240 239 362 0
241 53 117 0
242 15 318 0
242 118 319 0
242 318 363 0
243 241 320 0
243 321 244 0
244 248 243 0
245 154 319 0
245 155 250 0
245 250 157 0
246 120 53 0
246 241 243 0
247 119 338 0
248 244 249 0
248 246 243 0
248 278 121 0
249 118 277 0
249 277 278 0
250 18 485 0
250 129 336 0
251 91 325 0
251 324 191 0
252 123 324 0
252 143 123 0
252 324 326 0
254 100 473 0
255 202 364 0
256 132 257 0
256 257 498 0
256 495 499 0
257 127 498 0
257 132 260 0
257 260 261 0
258 59 259 0
258 501 59 0
259 130 258 0
260 132 146 0
260 134 261 0
261 134 441 0
263 405 495 0
263 430 434 0
264 127 265 0
264 265 366 0
264 330 430 0
265 267 366 0
266 267 138 0
266 366 267 0
267 126 57 0
267 265 58 0
268 27 438 0
268 142 189 0
268 189 82 0
268 438 428 0
269 186 497 0
269 353 482 0
269 431 353 0
269 471 186 0
270 185 14 0
271 334 69 0
272 69 334 0
272 332 274 0
272 334 488 0
274 153 335 0
274 332 67 0
274 335 69 0
275 129 130 0
275 130 134 0
275 323 336 0
275 336 129 0
276 290 178 0
277 118 363 0
277 163 278 0
278 163 280 0
278 248 249 0
278 280 406 0
279 163 277 0
279 277 363 0
279 363 318 0
279 414 427 0
280 163 421 0
280 338 406 0
281 247 338 0
281 398 74 0
282 408 165 0
283 150 160 0
283 167 480 0
283 282 150 0
283 339 282 0
283 480 339 0
284 340 416 0
286 341 367 0
287 74 409 0
287 173 74 0
287 174 173 0
288 175 476 0
288 396 399 0
288 410 477 0
288 477 396 0
289 176 253 0
290 20 445 0
290 177 343 0
291 180 293 0
291 208 454 0
291 355 303 0
291 454 455 0
292 75 448 0
292 293 179 0
292 355 293 0
293 180 478 0
294 344 343 0
294 370 344 0
295 183 294 0
295 294 296 0
295 298 350 0
296 343 177 0
298 77 181 0
298 181 350 0
298 295 184 0
299 30 432 0
299 352 482 0
299 432 352 0
300 190 474 0
300 192 193 0
300 193 122 0
301 198 327 0
301 327 365 0
301 364 442 0
301 365 364 0
302 38 208 0
302 208 303 0
303 208 291 0
303 355 374 0
303 383 302 0
304 375 469 0
304 469 470 0
305 356 470 0
305 465 356 0
306 221 37 0
306 311 101 0
307 308 376 0
307 310 357 0
307 360 39 0
307 386 360 0
308 309 207 0
308 357 309 0
308 380 376 0
310 358 384 0
311 102 101 0
312 209 216 0
313 216 76 0
313 220 219 0
314 239 486 0
314 361 362 0
315 215 99 0
315 219 433 0
315 433 481 0
316 103 229 0
316 461 105 0
317 108 223 0
317 227 456 0
317 456 461 0
318 149 162 0
319 118 244 0
319 321 245 0
320 17 68 0
320 155 321 0
321 243 320 0
321 319 244 0
322 253 125 0
322 289 253 0
323 275 153 0
324 251 325 0
324 325 326 0
325 402 490 0
325 490 326 0
326 203 252 0
328 9 100 0
328 100 254 0
328 254 365 0
328 327 92 0
329 266 458 0
329 459 262 0
330 137 437 0
330 264 137 0
331 378 143 0
332 16 67 0
332 272 487 0
333 65 487 0
333 487 488 0
334 147 488 0
334 393 147 0
335 133 69 0
335 153 275 0
336 157 250 0
337 413 415 0
337 415 422 0
337 427 414 0
338 54 406 0
338 420 281 0
339 407 408 0
339 460 407 0
339 480 460 0
340 72 168 0
340 168 475 0
341 286 287 0
341 287 409 0
341 409 426 0
342 281 420 0
342 421 422 0
342 422 476 0
342 476 493 0
343 296 294 0
343 344 368 0
343 368 290 0
344 346 368 0
344 348 346 0
345 368 346 0
346 369 345 0
347 161 178 0
347 178 345 0
348 349 446 0
349 376 380 0
349 380 446 0
350 377 183 0
351 187 81 0
352 187 471 0
352 432 81 0
352 471 482 0
353 299 482 0
354 206 302 0
354 207 309 0
354 302 383 0
354 387 207 0
355 291 293 0
355 373 374 0
356 38 470 0
356 454 208 0
356 465 93 0
357 308 307 0
357 310 384 0
357 384 309 0
358 39 211 0
358 212 375 0
358 375 384 0
359 370 183 0
359 377 386 0
359 386 376 0
360 209 39 0
360 385 436 0
361 218 433 0
361 220 237 0
361 237 362 0
361 314 218 0
362 52 240 0
364 202 457 0
364 365 255 0
365 254 255 0
365 327 328 0
366 266 329 0
367 418 172 0
369 346 348 0
369 348 446 0
369 381 447 0
369 447 345 0
370 294 183 0
370 348 344 0
370 349 348 0
370 359 349 0
371 379 489 0
371 489 492 0
371 492 463 0
372 201 489 0
372 411 419 0
372 489 411 0
373 292 448 0
373 355 292 0
373 448 447 0
374 373 447 0
374 382 387 0
374 387 383 0
375 94 469 0
376 349 359 0
377 359 183 0
377 385 386 0
378 123 143 0
378 190 444 0
378 191 123 0
379 371 486 0
380 308 207 0
380 387 382 0
381 374 447 0
382 374 381 0
382 446 380 0
383 303 374 0
384 375 304 0
385 76 436 0
385 115 76 0
385 360 386 0
385 377 115 0
386 307 376 0
387 354 383 0
387 380 207 0
388 48 230 0
388 224 25 0
388 230 224 0
390 9 328 0
390 92 449 0
390 328 92 0
392 145 11 0
392 405 412 0
392 412 496 0
393 334 483 0
394 188 443 0
394 393 483 0
395 145 423 0
395 271 64 0
396 21 399 0
397 71 424 0
397 408 71 0
397 424 162 0
398 175 409 0
398 281 342 0
398 342 493 0
399 21 418 0
399 418 426 0
399 426 175 0
400 394 401 0
401 80 400 0
401 423 80 0
401 483 395 0
402 91 411 0
402 379 490 0
404 122 204 0
404 205 91 0
405 11 499 0
405 263 439 0
405 392 11 0
407 71 408 0
408 282 339 0
408 397 165 0
409 175 426 0
410 164 477 0
411 205 419 0
411 489 402 0
412 269 497 0
412 405 439 0
413 337 424 0
413 410 415 0
414 162 424 0
414 279 162 0
414 424 337 0
415 476 422 0
416 417 425 0
416 425 460 0
417 21 396 0
417 340 475 0
417 416 340 0
418 21 440 0
418 341 426 0
418 367 341 0
419 200 372 0
420 280 421 0
420 338 280 0
421 163 427 0
421 342 420 0
422 421 427 0
423 401 395 0
425 164 460 0
425 396 477 0
425 417 396 0
427 337 422 0
428 438 141 0
429 81 432 0
429 185 81 0
429 474 190 0
430 263 495 0
430 330 434 0
430 495 498 0
431 269 412 0
432 30 474 0
433 218 464 0
433 220 361 0
433 464 481 0
434 330 435 0
434 439 263 0
435 139 434 0
435 330 437 0
435 453 61 0
436 209 360 0
438 27 299 0
438 299 353 0
438 353 141 0
439 431 412 0
439 434 139 0
440 21 475 0
442 364 457 0
442 472 301 0
443 147 393 0
443 188 187 0
443 351 147 0
443 393 394 0
444 122 191 0
446 381 369 0
446 382 381 0
448 345 447 0
448 347 345 0
449 92 467 0
450 236 23 0
451 85 32 0
452 225 226 0
452 226 484 0
453 136 142 0
453 262 136 0
453 435 437 0
453 437 262 0
454 93 455 0
454 356 93 0
456 105 461 0
457 202 462 0
458 62 459 0
458 266 60 0
459 28 136 0
459 329 458 0
460 480 416 0
461 46 317 0
461 316 229 0
462 202 463 0
462 463 492 0
462 491 457 0
463 202 217 0
463 217 464 0
465 305 107 0
466 62 458 0
466 389 3 0
466 458 389 0
468 237 76 0
470 484 305 0
471 269 482 0
472 442 88 0
473 255 254 0
474 429 432 0
476 175 493 0
476 410 288 0
476 415 410 0
480 284 416 0
481 217 473 0
481 464 217 0
481 473 315 0
483 271 395 0
483 334 271 0
483 401 394 0
484 94 452 0
484 226 305 0
484 470 469 0
486 239 90 0
486 371 218 0
486 490 379 0
487 272 488 0
488 79 333 0
489 201 492 0
489 379 402 0
490 90 326 0
491 200 494 0
491 462 201 0
495 256 498 0
495 405 499 0
496 412 497 0
500 117 55 0
501 258 6 0

End
