MeshVersionFormatted 1

Dimension
2

Vertices
252
0.0 0.0 1
0.5 0.0 1
0.5 0.5 1
0.0 0.5 1
0.25 0.0 1
0.5 0.25 1
0.25 0.5 1
0.0 0.25 1
0.0 0.375 1
0.125 0.5 1
0.20310969006022223 0.38437789412447726 0
0.3533292984805648 0.3646132083848115 0
0.2529240161799364 0.27597029431177417 0
0.19954138606662308 0.2939223354420076 0
0.3744192129667901 0.161175061032249 0
0.33507854240586005 0.2419989355816103 0
0.3794186470507536 0.23544832205271332 0
0.5 0.125 1
0.3358802014241282 0.14709642482932234 0
0.375 0.0 1
0.3125 0.0 1
0.3572669620552053 0.052611207156772255 0
0.2223560039573311 0.15980974640613663 0
0.125 0.0 1
0.2983261920311587 0.3533008844619518 0
0.2105332601513659 0.4588047547207358 0
0.375 0.5 1
0.23428788792162836 0.38363102888063516 0
0.1875 0.5 1
0.15849533863146142 0.4599129521684433 0
0.12997236493399236 0.38905759160236697 0
0.13335126946014839 0.32652972097327154 0
0.0625 0.5 1
0.0 0.125 1
0.09839017095837466 0.13055303200335255 0
0.15843540308783205 0.14192367837716133 0
0.09860372363627004 0.20746758901522114 0
0.0 0.1875 1
0.03888342940491787 0.16522164507509363 0
0.0625 0.0 1
0.05744936046148808 0.08006480067520469 0
0.14218485093281663 0.08236218524948158 0
0.10579962251062937 0.04978458437710736 0
0.2280766142603942 0.04748034464355133 0
0.1875 0.0 1
0.18392383587373995 0.057326017121222844 0
0.28179777803289147 0.09137410051580518 0
0.2740290127972632 0.04877774573268134 0
0.14379683796214843 0.26660401472521256 0
0.43297425589368643 0.23981207653859107 0
0.21713024251896038 0.33410452226051635 0
0.5 0.0625 1
0.4375 0.0 1
0.5 0.375 1
0.44918625269555407 0.348835571229521 0
0.5 0.3125 1
0.44178085727393374 0.29628105364006885 0
0.40083999443575186 0.27646004798632956 0
0.453583328869708 0.40371118903456077 0
0.5 0.4375 1
0.36163669123756875 0.4639184718098163 0
0.2712300651225956 0.4364545004201353 0
0.4375 0.5 1
0.4523303944691051 0.4565715916900356 0
0.0 0.4375 1
0.3522208616557126 0.31676249565780645 0
0.2914010897399451 0.2927598231793754 0
0.29255450288393886 0.24786766025968496 0
0.3570102120124089 0.22018123427238892 0
0.3755892076010297 0.20402066844846817 0
0.4231072074219954 0.16457858425024766 0
0.45057279961481683 0.1891881996744626 0
0.4057731420430739 0.1972328652549879 0
0.3099651678032563 0.21260298290947802 0
0.26233959306053733 0.1546023791466753 0
0.3610061133801066 0.16074400110986575 0
0.31899161551559846 0.16854333899738533 0
0.3539903053052874 0.10326257119118956 0
0.27383517333152085 0.20599673052021816 0
0.2515360804954341 0.12160043404084357 0
0.22419994270877583 0.10638024097908966 0
0.11576038000083635 0.27177200011742375 0
0.17227452982408495 0.25210057524775803 0
0.328273590983814 0.3625142734700851 0
0.2717452180813116 0.34303574884809407 0
0.29633740543158327 0.32441064347212156 0
0.18691336749484855 0.4201896289918049 0
0.13645407997225315 0.42202859550390676 0
0.16564162961116147 0.3877431467610273 0
0.09344523104735984 0.35945037803856134 0
0.17704509991718137 0.31057811633828986 0
0.18547729393524126 0.36156259967585264 0
0.10422843018822543 0.44771733796983415 0
0.09001445895626611 0.24737396349515986 0
0.11590756094077852 0.16781731230218863 0
0.1578370440393048 0.18713508371403764 0
0.05032522424022074 0.21256299384331187 0
0.10295345073603442 0.3249844389555507 0
0.08713602125523542 0.28992830147734905 0
0.05845065891141045 0.3317107041082135 0
0.05937773676701161 0.1308903069979069 0
0.17589579555978385 0.10145204772395484 0
0.15052590479987993 0.03780872176057538 0
0.12360842475043352 0.10887258220066676 0
0.24519369667872404 0.08169199522462502 0
0.20864495969724717 0.0842306302147093 0
0.30312375559767235 0.113745064111568 0
0.1732094533643208 0.2838616126080003 0
0.38346418409565036 0.1532832685100429 0
0.4512902952812484 0.14292363618011888 0
0.4477491224833549 0.1087041838418171 0
0.376281417230122 0.08318204946585031 0
0.4015274503389684 0.12006197187013216 0
0.2137140175611642 0.35955414306422917 0
0.38890116672009695 0.3477801698701169 0
0.3556097882592816 0.335273973791958 0
0.36248390122625807 0.273194520466973 0
0.41155045750427616 0.3265498292240939 0
0.4020241371889465 0.4678498139542695 0
0.38905729968954356 0.3960993058381333 0
0.37806508391698673 0.4295896127873766 0
0.33681129440465474 0.387962446378983 0
0.27325634859771647 0.3759473967763883 0
0.3083550817760271 0.5 1
0.0 0.312344210440504 1
0.32329372819720437 0.2804231877810059 0
0.339265884358138 0.20765905312024124 0
0.24196428795229952 0.15132803721864826 0
0.36830716854270423 0.12219698591970395 0
0.3585635449118046 0.1947244776637776 0
0.3241230950018852 0.19015425871051203 0
0.34189304828107814 0.18396597811021975 0
0.30978695604114836 0.0903028946079597 0
0.31878115055622647 0.11008431302958052 0
0.3997579363243267 0.042034724614856925 0
0.24598647595374873 0.17807488497053495 0
0.14919547289513782 0.24215156333289287 0
0.2579952865370429 0.23935877685172569 0
0.22619858148713384 0.22686585370961876 0
0.17527940577381074 0.33670345456148115 0
0.10123093509355706 0.3952645596769898 0
0.17538318332026462 0.16234188784214357 0
0.17258847864401997 0.12358771961865743 0
0.14047159664292871 0.15839659983407162 0
0.12321786381194898 0.2512117399963814 0
0.07791643464966418 0.17099140577105942 0
0.04881320802903689 0.27451193121904194 0
0.10158394581178656 0.0912116448438235 0
0.14981451737040402 0.11410248517491572 0
0.059610195885092636 0.3751144575582787 0
0.399404691580421 0.3678981287915251 0
0.2655777938414694 0.3098340168100637 0
0.27527605904950114 0.17462904837039636 0
0.3699014766699463 0.15150755985432593 0
0.36137711639296427 0.1400106824974376 0
0.2463091724222654 0.20618348388949634 0
0.21907814807871945 0.2009898376294947 0
0.22122708003784744 0.13605124147662548 0
0.20279395330415478 0.11574369008966699 0
0.19680536962571837 0.21647805227409211 0
0.2337663594851523 0.25208291017770657 0
0.1413661282105798 0.3737216639448636 0
0.19704506973004304 0.3426027990327796 0
0.19893790694418956 0.3185054967108075 0
0.05520798661038563 0.4247069087300089 0
0.1806589953699161 0.14010550596755342 0
0.13830612357861252 0.17653465634803045 0
0.41290600045296133 0.41684543613820263 0
0.24435076830789706 0.3468730474887754 0
0.15755273666441977 0.2146672468843235 0
0.15750655793238305 0.1682783528320445 0
0.17687493778468946 0.1931955069966302 0
0.22655031198421538 0.30884573250663505 0
0.20613549827886335 0.16627363720044935 0
0.19660697585012693 0.13700282786216947 0
0.5 0.15625 1
0.31961296701401587 0.3390758523311591 0
0.3487718331693901 0.15396984718051532 0
0.30045731150299076 0.18144476632437487 0
0.3217957763208934 0.15227034287541977 0
0.28810546758584477 0.15582492642277182 0
0.2860483789227814 0.1270520185051116 0
0.3393087393227859 0.3293078227490009 0
0.32820304732372513 0.3143344305619271 0
0.11609870426317045 0.34646052222092577 0
0.1526084531951477 0.31713803270629426 0
0.15052921266067815 0.3412418554538072 0
0.14957272034806549 0.29910138966936006 0
0.1296035249538713 0.313695978696607 0
0.3468722204645336 0.2995710177435319 0
0.37848929820087324 0.31136321372580916 0
0.3679265671995951 0.16836771586321864 0
0.33339581429629706 0.11459371675450812 0
0.3465179912454634 0.14321885415870023 0
0.3513015525325134 0.12753528202259332 0
0.0 0.05847882060368868 1
0.34641294036709724 0.16603769958624437 0
0.307402571030942 0.13822251103293207 0
0.3429623232132218 0.34709862837531236 0
0.1186152900583938 0.3708722415055237 0
0.3214964938006316 0.12530600712893317 0
0.35734308786531677 0.15157576353299676 0
0.38199569737268346 0.1331502594550568 0
0.3324686596082111 0.17395052656840887 0
0.33359171156060313 0.13356706172720378 0
0.12190704840199347 0.29527256978968747 0
0.37526890099702126 0.18224920767794175 0
0.3981318425547888 0.16440295098393723 0
0.41712495206218647 0.14977641579045536 0
0.33456210159184807 0.42603528108720917 0
0.3094761993272813 0.394143106424329 0
0.12515269699224324 0.22749704375500743 0
0.17141350836635474 0.17335330207894112 0
0.1876197710640485 0.1746133653676519 0
0.208030709099411 0.15200967600163523 0
0.13626260243422492 0.3551421681893854 0
0.13004361513426593 0.13428406527473333 0
0.3590087666452923 0.1751841342593786 0
0.3579800926531075 0.3952952761348563 0
0.1353403007793237 0.19716249955081083 0
0.19226108397579889 0.1532616949919057 0
0.3509611376434345 0.08348438780880345 0
0.1906688972084106 0.27089989266865067 0
0.22087186541615048 0.4200504445163699 0
0.42661159974463303 0.12487017864580675 0
0.3686891762729029 0.3554448030712275 0
0.35832302653329723 0.34676287816990364 0
0.3727662711658067 0.3355699813004336 0
0.4034737068804927 0.3034536401158093 0
0.3337337224056117 0.09461169951804702 0
0.20344065143789905 0.24893059983189328 0
0.0812147478595546 0.10961008086677099 0
0.41866049940901684 0.3833538290527962 0
0.15854541449675963 0.36141850260891883 0
0.4136570630312428 0.3549536845347961 0
0.3298675889875498 0.07563982260529385 0
0.45274956664944016 0.04710166044534959 0
0.3816807617347792 0.11019367157995984 0
0.18759722589208105 0.12345150754346808 0
0.30335290297217277 0.07561997960964646 0
0.3167744950159285 0.04979884995545391 0
0.21739982756174756 0.27728499479732305 0
0.22437233512424218 0.18681911513623642 0
0.3244672762705317 0.13904660501473426 0
0.30835839532232234 0.3036888673980175 0
0.2034550479465204 0.18885802684088965 0
0.30547026282397066 0.16035692702387444 0
0.3310605517834269 0.16065872441666823 0
0.4033057762772492 0.1410848553686866 0
0.40750080654217674 0.08618256151493085 0
0.37733300872968767 0.36697633532238505 0
0.3420078579926492 0.153337717660913 0

Edges
32
1 40 1
1 196 1
2 52 1
2 53 1
3 60 1
3 63 1
4 33 1
4 65 1
5 21 1
5 45 1
6 56 1
6 176 1
7 29 1
7 124 1
8 38 1
8 125 1
9 65 1
9 125 1
10 29 1
10 33 1
18 52 1
18 176 1
20 21 1
20 53 1
24 40 1
24 45 1
27 63 1
27 124 1
34 38 1
34 196 1
54 56 1
54 60 1

Triangles
470
1 40 196 0
2 52 237 0
3 63 64 0
5 21 48 0
6 50 72 0
6 56 57 0
7 62 124 0
8 97 147 0
9 125 100 0
9 165 65 0
11 28 224 0
11 89 92 0
12 84 199 0
12 199 227 0
12 226 251 0
13 152 173 0
13 242 161 0
14 91 108 0
14 108 223 0
14 223 242 0
15 109 208 0
16 68 74 0
16 69 17 0
16 74 127 0
17 58 117 0
17 69 70 0
17 70 73 0
17 73 50 0
17 117 16 0
18 176 110 0
19 180 244 0
20 53 135 0
21 22 241 0
22 21 20 0
22 112 222 0
22 135 112 0
22 222 236 0
22 236 241 0
23 128 136 0
23 136 243 0
23 158 128 0
23 174 215 0
24 45 103 0
25 85 86 0
25 86 177 0
25 211 123 0
26 7 29 0
26 30 87 0
26 87 224 0
27 61 119 0
28 11 114 0
28 114 169 0
28 123 62 0
28 169 123 0
29 10 30 0
30 26 29 0
31 88 141 0
32 186 187 0
32 216 185 0
33 4 65 0
33 65 165 0
34 41 101 0
35 95 146 0
35 101 232 0
35 104 217 0
35 148 104 0
36 143 166 0
37 94 97 0
37 97 146 0
38 34 39 0
38 39 97 0
39 34 101 0
40 24 43 0
40 41 196 0
41 34 196 0
41 40 43 0
41 43 148 0
41 148 232 0
42 43 103 0
42 46 102 0
42 104 148 0
42 149 104 0
43 24 103 0
43 42 148 0
44 5 48 0
44 45 5 0
44 105 106 0
45 44 46 0
45 46 103 0
46 42 103 0
46 44 106 0
47 48 240 0
47 80 105 0
48 21 241 0
48 105 44 0
49 137 83 0
49 206 82 0
50 6 57 0
50 57 58 0
50 58 17 0
51 114 163 0
52 111 237 0
53 2 237 0
55 54 59 0
55 56 54 0
55 59 233 0
56 55 57 0
57 55 118 0
57 118 229 0
58 57 229 0
59 60 64 0
59 168 233 0
60 3 64 0
60 59 54 0
62 7 26 0
62 123 211 0
62 224 28 0
63 27 119 0
64 63 119 0
66 116 183 0
66 184 190 0
66 228 116 0
67 13 68 0
67 68 126 0
67 86 152 0
67 126 245 0
68 16 126 0
68 138 79 0
69 16 127 0
70 69 130 0
70 130 207 0
71 208 209 0
72 71 110 0
72 110 176 0
73 71 72 0
73 72 50 0
73 208 71 0
74 79 179 0
74 179 131 0
75 136 128 0
76 178 202 0
77 131 179 0
77 179 247 0
77 248 204 0
78 193 230 0
78 238 129 0
79 74 68 0
79 136 153 0
79 153 179 0
80 47 182 0
80 75 128 0
80 81 105 0
80 182 75 0
83 108 49 0
83 160 231 0
83 170 160 0
84 12 122 0
84 122 211 0
85 25 123 0
85 152 86 0
86 67 245 0
87 11 224 0
87 30 88 0
87 89 11 0
88 31 89 0
88 93 141 0
89 31 162 0
89 87 88 0
89 162 234 0
90 98 185 0
90 150 100 0
90 185 200 0
91 14 164 0
91 140 186 0
92 89 234 0
92 114 11 0
92 140 163 0
93 10 33 0
93 30 10 0
93 88 30 0
94 37 212 0
95 35 217 0
95 37 146 0
95 144 167 0
95 220 37 0
96 171 213 0
97 8 38 0
97 39 146 0
97 94 147 0
98 32 185 0
98 206 189 0
99 82 206 0
99 94 82 0
99 98 100 0
100 98 90 0
101 41 232 0
101 146 39 0
102 46 106 0
102 143 149 0
102 159 239 0
105 48 47 0
105 81 106 0
106 81 159 0
107 47 133 0
107 133 134 0
107 134 201 0
107 198 182 0
108 83 223 0
109 15 154 0
109 154 203 0
110 71 209 0
110 111 18 0
111 52 18 0
111 225 250 0
112 78 222 0
112 135 250 0
113 250 225 0
114 92 163 0
115 118 235 0
115 151 251 0
115 226 228 0
117 58 191 0
117 191 190 0
118 55 235 0
118 191 229 0
118 228 191 0
119 61 121 0
119 121 168 0
119 168 64 0
120 219 251 0
120 233 168 0
121 61 210 0
122 12 219 0
122 210 211 0
124 61 27 0
124 210 61 0
125 8 147 0
126 16 117 0
126 117 190 0
126 184 245 0
126 190 184 0
127 74 131 0
127 130 69 0
127 132 130 0
128 158 80 0
129 155 195 0
129 195 78 0
129 203 155 0
132 127 131 0
132 218 130 0
133 47 240 0
134 133 230 0
134 193 201 0
135 22 20 0
135 53 237 0
135 237 250 0
136 75 153 0
136 79 156 0
137 212 170 0
138 13 161 0
138 68 13 0
138 156 79 0
139 156 138 0
139 157 156 0
139 161 231 0
140 91 164 0
140 234 187 0
141 90 200 0
141 93 165 0
141 150 90 0
141 200 31 0
142 166 221 0
143 102 239 0
144 36 171 0
144 95 217 0
144 217 36 0
145 49 82 0
145 82 94 0
145 94 212 0
145 137 49 0
145 212 137 0
146 101 35 0
147 94 99 0
147 99 100 0
147 100 125 0
148 35 232 0
149 36 217 0
149 42 102 0
149 143 36 0
150 9 100 0
150 141 165 0
151 115 235 0
151 120 251 0
152 13 67 0
153 75 181 0
154 15 76 0
154 76 202 0
154 155 203 0
154 202 155 0
155 202 194 0
156 243 136 0
157 139 160 0
157 160 246 0
158 23 215 0
158 81 80 0
158 175 159 0
159 81 158 0
159 102 106 0
159 175 239 0
160 139 231 0
160 172 246 0
161 139 138 0
162 200 216 0
163 164 51 0
164 14 173 0
164 163 140 0
165 9 150 0
165 93 33 0
166 142 36 0
166 143 239 0
166 175 221 0
167 96 220 0
167 144 171 0
168 59 64 0
168 121 120 0
169 85 123 0
169 114 51 0
169 152 85 0
169 173 152 0
170 83 137 0
171 36 142 0
171 96 167 0
171 142 213 0
172 96 213 0
172 160 170 0
172 170 96 0
172 214 246 0
173 14 242 0
173 51 164 0
173 169 51 0
174 23 243 0
174 221 215 0
174 243 246 0
175 158 215 0
175 166 239 0
175 215 221 0
176 6 72 0
177 84 25 0
177 86 184 0
177 199 84 0
178 76 197 0
178 194 202 0
178 197 252 0
179 153 181 0
179 181 247 0
180 19 248 0
180 77 247 0
180 198 244 0
181 198 247 0
182 47 107 0
182 181 75 0
182 198 181 0
183 116 199 0
183 184 66 0
184 86 245 0
184 183 177 0
186 140 187 0
186 188 91 0
188 49 108 0
188 108 91 0
188 189 206 0
188 206 49 0
189 32 98 0
189 186 32 0
189 188 186 0
191 58 229 0
191 66 190 0
192 76 15 0
192 207 218 0
193 78 195 0
193 134 230 0
193 195 205 0
194 195 155 0
194 252 19 0
195 194 205 0
197 132 204 0
197 204 248 0
197 218 132 0
197 248 252 0
198 107 201 0
198 180 247 0
198 201 244 0
199 116 227 0
199 177 183 0
200 162 31 0
200 185 216 0
201 193 205 0
203 238 113 0
203 249 109 0
204 131 77 0
204 132 131 0
205 194 19 0
205 244 201 0
206 98 99 0
207 15 208 0
207 73 70 0
207 130 218 0
207 192 15 0
208 73 207 0
208 109 249 0
209 208 249 0
210 62 211 0
210 122 219 0
210 124 62 0
211 25 84 0
212 37 220 0
212 220 170 0
213 214 172 0
214 142 221 0
214 174 246 0
214 213 142 0
216 32 187 0
216 234 162 0
217 104 149 0
218 76 192 0
218 197 76 0
219 12 251 0
219 120 121 0
219 121 210 0
220 95 167 0
220 96 170 0
221 174 214 0
222 78 230 0
222 230 236 0
223 83 231 0
223 231 242 0
224 62 26 0
225 110 209 0
225 111 110 0
225 249 113 0
226 12 227 0
226 115 251 0
226 227 228 0
227 116 228 0
228 66 191 0
228 118 115 0
230 133 236 0
231 161 242 0
233 120 151 0
233 235 55 0
234 140 92 0
234 216 187 0
235 233 151 0
236 133 240 0
236 240 241 0
237 111 250 0
238 78 112 0
238 112 250 0
238 203 129 0
240 48 241 0
242 13 173 0
243 156 157 0
243 157 246 0
244 205 19 0
248 19 252 0
248 77 180 0
249 203 113 0
249 225 209 0
250 113 238 0
252 194 178 0

End
