MeshVersionFormatted 1

Dimension
2

Vertices
79
0.0 0.0 1
0.5 0.0 1
0.5 0.5 1
0.0 0.5 1
0.25 0.0 1
0.5 0.25 1
0.25 0.5 1
0.0 0.25 1
0.0 0.375 1
0.125 0.5 1
0.5 0.125 1
0.20141249376546208 0.15392978652101663 0
0.125 0.0 1
0.0 0.125 1
0.5 0.375 1
0.197500272851909 0.18702663366439518 0
0.2874312434195145 0.08954068929911618 0
0.10297490620888412 0.26533978313495243 0
0.1683265994797684 0.26119600978009894 0
0.40625 0.0 1
0.44366312635501676 0.08988568194538096 0
0.3109992922760578 0.14966937418716428 0
0.328125 0.0 1
0.1440407343618494 0.20650254582975947 0
0.06288482637676776 0.06421872639369683 0
0.20782504320487952 0.06782079110789185 0
0.26033534788983953 0.15233250437003354 0
0.06625352971146269 0.1798377342437919 0
0.11367693733206952 0.1276309372776939 0
0.5 0.0625 1
0.3101170183282077 0.32010344232210397 0
0.37031513535230115 0.32411903628510175 0
0.360385384902024 0.14897200081260648 0
0.3423616432764309 0.10238004161027861 0
0.25640783705146597 0.32352017386995285 0
0.38940224895743714 0.10832238093451986 0
0.3679801706774134 0.06339284988834742 0
0.4526778344329243 0.14390608215984282 0
0.5 0.1875 1
0.0 0.0625 1
0.24468998331404063 0.2000805069409478 0
0.3497230260135851 0.21808216073446762 0
0.1970396444728331 0.23060643348028106 0
0.22692562964183438 0.12226321767765107 0
0.049381288965555235 0.11597343395108294 0
0.1744920712278866 0.10932825080296278 0
0.16630173151466998 0.14961053024574084 0
0.22497701169572493 0.15640950457560676 0
0.4193834623925641 0.17028018582233256 0
0.30987044125847885 0.4175780643647029 0
0.24833914661844958 0.3784412010746228 0
0.2952672944289388 0.2570329808251347 0
0.20185271197536844 0.32575179545547467 0
0.29376235115404004 0.3587868294365928 0
0.221442378052011 0.4392577145164818 0
0.43751834132306494 0.2024626808016102 0
0.4149431095320976 0.2615870699194117 0
0.29051443011976574 0.19211481696145993 0
0.4321754976486267 0.31638148340178784 0
0.4074005616447806 0.38680642973299423 0
0.34137059784496393 0.3859302963574134 0
0.1757972624314004 0.38518426970373676 0
0.3455977496172142 0.283066657746262 0
0.07690231480916039 0.3750069907247809 0
0.15166309555616195 0.3218697936278118 0
0.22525293316322725 0.26756233083613495 0
0.375 0.5 1
0.5 0.4375 1
0.36622949801188254 0.12753630367193883 0
0.33485653189419046 0.15273325433999588 0
0.4129720895430565 0.1404433927076423 0
0.32536517435595036 0.18052500607966446 0
0.14157471302469835 0.08175841140517848 0
0.38374865537613023 0.14068906434436151 0
0.4021646625334326 0.20433313667946132 0
0.32081779497622476 0.1267350326357609 0
0.35094413712812456 0.17936619341446003 0
0.3837074234885174 0.17214331747648254 0
0.3421948302253566 0.13538047704304115 0

Edges
21
1 13 1
1 40 1
2 20 1
2 30 1
3 67 1
3 68 1
4 9 1
4 10 1
5 13 1
5 23 1
6 15 1
6 39 1
7 10 1
7 67 1
8 9 1
8 14 1
11 30 1
11 39 1
14 40 1
15 68 1
20 23 1

Triangles
135
1 25 40 0
6 56 39 0
6 57 56 0
7 50 67 0
8 18 64 0
8 28 18 0
8 64 9 0
10 55 7 0
10 64 62 0
12 16 47 0
12 44 48 0
13 5 26 0
13 73 25 0
14 45 28 0
15 68 60 0
16 12 48 0
16 24 47 0
16 41 43 0
17 23 37 0
17 26 5 0
17 27 44 0
17 76 22 0
19 24 43 0
19 53 65 0
19 66 53 0
20 2 30 0
20 30 21 0
21 37 20 0
21 71 36 0
22 27 17 0
22 76 70 0
23 17 5 0
24 16 43 0
24 19 18 0
24 28 29 0
24 29 47 0
25 1 13 0
25 29 45 0
26 17 44 0
26 44 46 0
26 46 73 0
27 22 58 0
27 41 48 0
27 48 44 0
28 8 14 0
28 24 18 0
29 25 73 0
29 28 45 0
29 46 47 0
30 11 21 0
31 32 61 0
31 52 63 0
31 61 54 0
32 31 63 0
32 57 59 0
33 70 79 0
33 74 78 0
34 17 37 0
34 37 36 0
34 79 76 0
35 31 54 0
35 52 31 0
35 53 66 0
36 69 34 0
37 21 36 0
37 23 20 0
38 21 11 0
38 71 21 0
39 38 11 0
40 45 14 0
41 27 58 0
42 63 52 0
42 78 75 0
43 41 66 0
44 12 46 0
45 40 25 0
46 12 47 0
46 29 73 0
48 41 16 0
49 56 75 0
49 75 78 0
50 7 55 0
50 51 54 0
50 54 61 0
51 50 55 0
52 35 66 0
53 35 51 0
53 62 65 0
54 51 35 0
56 38 39 0
56 49 38 0
57 6 59 0
57 32 63 0
57 75 56 0
58 42 52 0
58 52 41 0
58 72 42 0
59 6 15 0
60 32 59 0
60 59 15 0
61 32 60 0
61 67 50 0
62 51 55 0
62 53 51 0
62 55 10 0
63 42 57 0
64 4 9 0
64 10 4 0
64 18 65 0
64 65 62 0
65 18 19 0
66 19 43 0
66 41 52 0
67 60 68 0
67 61 60 0
68 3 67 0
69 33 79 0
69 74 33 0
70 33 77 0
70 77 72 0
71 38 49 0
71 78 74 0
72 22 70 0
72 58 22 0
73 13 26 0
74 36 71 0
74 69 36 0
75 57 42 0
76 17 34 0
77 33 78 0
77 42 72 0
78 42 77 0
78 71 49 0
79 34 69 0
79 70 76 0

End
