MeshVersionFormatted 1

Dimension
2

Vertices
1007
0.0 0.0 1
0.5 0.0 1
0.5 0.5 1
0.0 0.5 1
0.25 0.0 1
0.5 0.25 1
0.25 0.5 1
0.12942307415012544 0.25389098982908415 0
0.0 0.25 1
0.0 0.375 1
0.125 0.5 1
0.193839318827034 0.3755354445045908 0
0.3741647427149641 0.3736485944168371 0
0.25260314398417083 0.2544750962787612 0
0.27178724814520155 0.34271693594035096 0
0.390780818073463 0.16665890296649677 0
0.3324671203834767 0.22910270531517546 0
0.5 0.125 1
0.5 0.1875 1
0.36469137276844177 0.2726124869062648 0
0.31874624245036975 0.14433322435988016 0
0.375 0.0 1
0.3125 0.0 1
0.125 0.0 1
0.375 0.5 1
0.3125 0.5 1
0.1875 0.5 1
0.2199203170722437 0.4385474886740258 0
0.14244274290304235 0.32729890700075187 0
0.06473914310427442 0.43956426727485065 0
0.0625 0.5 1
0.0 0.125 1
0.0931711985862893 0.14449862542918487 0
0.16074621307794892 0.13378322714840518 0
0.1120104512018558 0.19477702219664694 0
0.05049221044728016 0.2052885735610348 0
0.0 0.1875 1
0.026347805351983986 0.3291783054747027 0
0.0 0.3125 1
0.03342654591237462 0.1565176810660149 0
0.0625 0.0 1
0.05126104195976953 0.08841920124369346 0
0.0 0.0625 1
0.2447601736595898 0.06898872705250984 0
0.1875 0.0 1
0.16053258230507472 0.049129934504546884 0
0.2769883741373352 0.047280412626164614 0
0.16378712201485546 0.2762010632699887 0
0.42003049863752956 0.07255612011886056 0
0.39079508426670123 0.08845699120299377 0
0.21812551900243113 0.34713925353210356 0
0.5 0.0625 1
0.4375 0.0 1
0.5 0.375 1
0.4331605308368369 0.3416370659882698 0
0.5 0.3125 1
0.39502419863228716 0.33092836357840283 0
0.42652445028861546 0.44913571678206765 0
0.5 0.4375 1
0.33176858215224353 0.4287215129953582 0
0.3055475257719246 0.38798224032715134 0
0.4375 0.5 1
0.34257665095151724 0.34109242520001526 0
0.5 0.22116043503464355 1
0.5 0.155375442259618 1
0.40841115976675707 0.1747296467146773 0
0.3239926062629189 0.2587562646114954 0
0.3549613410728059 0.2843142563923585 0
0.2812322748845265 0.15583283766315367 0
0.36958139583448807 0.15902565056509307 0
0.2978380639926591 0.18131743276932083 0
0.30163024369371694 0.1327198738029703 0
0.34375 0.0 1
0.3451355514942006 0.09538496309537263 0
0.3186181037261958 0.016365921406652273 0
0.36008146554217624 0.02109974448244833 0
0.21185130444403394 0.10942035489771879 0
0.27711223811250113 0.32394146931034107 0
0.29702911470224214 0.28826754660613635 0
0.34493978897496586 0.3575615986618661 0
0.34271704682856563 0.5 1
0.24646490150110267 0.3779235720485936 0
0.22852526874585616 0.39014194807528074 0
0.15651863122126736 0.5 1
0.2186316921037741 0.5 1
0.24504711239628998 0.43077211176305985 0
0.2016339911528225 0.4650557232760455 0
0.2067970416533001 0.41945358064581234 0
0.16645832157923912 0.4190496196010103 0
0.17356571019389508 0.387814340484707 0
0.11418362446606062 0.3383462943199004 0
0.16738204719932964 0.3130182893557967 0
0.17887984628554598 0.35523972340989335 0
0.04387651312865003 0.46914295803088985 0
0.09297430222654396 0.5 1
0.07743375330043899 0.4711176521341263 0
0.12959141987230507 0.4260722264942172 0
0.17104618988714132 0.10164045955859591 0
0.032226196210620825 0.23232977856133838 0
0.0 0.15676265681515095 1
0.0 0.21875579571934156 1
0.023669335793431404 0.20040410003170323 0
0.06593109239477458 0.22854773845701143 0
0.028098440786375203 0.2670921520694666 0
0.11770420472662478 0.31289955321072827 0
0.0 0.2806771823099131 1
0.0 0.34424494552458595 1
0.020778220528297975 0.13597140072568364 0
0.06968756978873986 0.15144072294586625 0
0.04130476458022648 0.18157392488900223 0
0.0926528264197259 0.0 1
0.028770870758493324 0.0 1
0.028033347834680488 0.10901745369477323 0
0.05414432300487922 0.028679218623024586 0
0.07291894540980758 0.11613145882681972 0
0.0 0.029734749043636703 1
0.0 0.09231086597863973 1
0.026275657777558553 0.07583766324009092 0
0.13556790615053707 0.020292996464804612 0
0.11197069217566197 0.12147622463685166 0
0.0770888040440434 0.02127691232978148 0
0.07830278111204174 0.048086462524848404 0
0.2519338493535224 0.02995234205138856 0
0.2554269377032397 0.08648463452434661 0
0.21896029865625846 0.0 1
0.1570432260548747 0.0 1
0.1745571152763436 0.02587139827490462 0
0.17753067486345267 0.06622586320077391 0
0.2832783955984407 0.1043905589018733 0
0.15503370516362877 0.30256108963637124 0
0.4739275219135282 0.08893640793765886 0
0.4184328035766279 0.15440653028696427 0
0.43304070978414133 0.1031055782881858 0
0.4770017498220101 0.1169263422662389 0
0.42447312008781435 0.08940140201943304 0
0.40936295413819634 0.11592914381523861 0
0.2147128972866689 0.32030753417781044 0
0.46853559223382996 0.05715773165337727 0
0.40793162302903907 0.0 1
0.4221557641627154 0.02673396581144046 0
0.4721917212177328 0.3615287806937621 0
0.40731892538357656 0.35288024760686426 0
0.5 0.34272249503070185 1
0.5 0.28117550788515494 1
0.4404657903809501 0.325123842740953 0
0.3734716641455472 0.3503092982604254 0
0.3844559042599497 0.2761719337315744 0
0.40554605469006655 0.2814783842904739 0
0.40831139805017447 0.33864810625766567 0
0.3905139236145146 0.47774732837701545 0
0.37918549323368134 0.4080311646515608 0
0.44813107928015006 0.36811666101897056 0
0.5 0.4702596785712166 1
0.5 0.40709848662748466 1
0.3673840622273275 0.4407607038752065 0
0.35262546537919875 0.40498710785696296 0
0.36267548467202215 0.4778748155807532 0
0.3151311769232351 0.40310434321697514 0
0.295334496967145 0.4455005235889697 0
0.40709899805911814 0.5 1
0.470264282602922 0.5 1
0.454173297674697 0.46803297685817086 0
0.0 0.4070637601999575 1
0.0 0.470784980583463 1
0.027392571424139704 0.43334395932297054 0
0.24845932481145525 0.27190394257841644 0
0.2112470899853602 0.2797044356913425 0
0.26610622827378544 0.28327528987120304 0
0.3370801121084785 0.32009028925484523 0
0.355355567976137 0.35310459851273723 0
0.36993421649803465 0.34118010987266795 0
0.2689281740651012 0.26149870447307044 0
0.3040042275065272 0.254708150576447 0
0.2873433721843573 0.26114786716883687 0
0.3659494447180792 0.19879586555445491 0
0.3450290321203523 0.21548985616685631 0
0.3926030993033481 0.19131077166833152 0
0.34975308293197954 0.23413014640063998 0
0.41912397729487594 0.18709487592858381 0
0.4004983128394178 0.16571058127914623 0
0.45265766142626707 0.18852116862926402 0
0.3895040946722865 0.20870798382015496 0
0.42286681427871214 0.20717834860336284 0
0.3365988826607466 0.24651377019310924 0
0.3477012434782892 0.2720542694999156 0
0.3413042356502464 0.2861854970844202 0
0.26186035440364513 0.24139558078616746 0
0.28386857403106536 0.24234514635081875 0
0.303435762295261 0.23342388305642872 0
0.29983260601696154 0.1953785119238855 0
0.3175055143461973 0.22573010285888281 0
0.28583101695816376 0.17193357629910297 0
0.37795217444047724 0.15854399561535315 0
0.3608543324315571 0.1809363349164426 0
0.31294312371316574 0.1576316701087171 0
0.2998368206318023 0.16901363246239726 0
0.2921715366863387 0.12916432217106152 0
0.2857252457907488 0.14148083054364627 0
0.3114089122913241 0.14518059589352528 0
0.3457089662780846 0.08353050216498527 0
0.3229660217429958 0.12289022833020169 0
0.2986215159947903 0.030704449409035165 0
0.3406614236494562 0.04799888808265075 0
0.3400464158020526 0.02917812039268777 0
0.36254040602082926 0.044536686473271844 0
0.2573290779351066 0.14394121735866802 0
0.24005602826534755 0.11831514037873073 0
0.20048910808996792 0.09442868027232731 0
0.21993923869152568 0.1330612527712691 0
0.15838731860632466 0.25470100915236166 0
0.1397125728266655 0.2375209825678304 0
0.17610311365298095 0.2735405230684879 0
0.18310015821764133 0.28784496122316955 0
0.18267535709324967 0.22379611823485013 0
0.2801446088641776 0.2922636513562884 0
0.2827955237788622 0.2763708334277133 0
0.3553281850761843 0.3637241290358284 0
0.3031895720695413 0.34973520955903403 0
0.32476675073329875 0.3187935753054216 0
0.30539467582676616 0.303972016599239 0
0.314753638441406 0.3336496100124038 0
0.2689155675736907 0.4424255361228211 0
0.23992508775335075 0.46433890867618866 0
0.2797486571096005 0.4739657313458438 0
0.24232492404056602 0.35975670098484275 0
0.20670318227925671 0.38640729621484554 0
0.19811106862794334 0.4024616237420046 0
0.21092749640962183 0.4039102826775938 0
0.15406703723438767 0.4553932273582413 0
0.17919216410758143 0.4026707855588434 0
0.17600551736995243 0.4440825499686228 0
0.14174521396462472 0.3940558684986717 0
0.1603429046062458 0.3972832166671391 0
0.18077168146664335 0.3766013262472062 0
0.13003179350127353 0.33473787078407174 0
0.1151743118670961 0.3522768183083296 0
0.18174455151874538 0.3026374605261661 0
0.16151299982411518 0.318802195530594 0
0.16777879587361605 0.33414040297086545 0
0.18602476507833088 0.3650123659518047 0
0.1576695738479472 0.33512881471338724 0
0.1695375238234096 0.3762522083638699 0
0.11002268482094438 0.4691012748682434 0
0.1612528912401947 0.15108980589703902 0
0.15874316071412134 0.12170095826778561 0
0.17010309557549338 0.12745932527816736 0
0.12013027435278831 0.23843123030647587 0
0.1273988271596566 0.22007625612863088 0
0.11779816840828233 0.156918125141071 0
0.1551040739298314 0.17524627062976486 0
0.0844105257972264 0.18538777166995343 0
0.019782855826469745 0.17662146327045508 0
0.05708323894679372 0.2564989351424767 0
0.08682818920481103 0.24971346089905985 0
0.10262069015519833 0.35034729767666867 0
0.09579259655997906 0.3325127903062626 0
0.10987967259476836 0.3247039575224977 0
0.1090278763357456 0.3013412215439262 0
0.13069934823137191 0.32034877346382207 0
0.07696676285380381 0.2758756604223287 0
0.11017450657641267 0.25407060489399386 0
0.09316030698686706 0.29463095348374835 0
0.05260615660707397 0.28505486682249975 0
0.026930233393241708 0.2983213975743001 0
0.08115591841273298 0.13999488061649767 0
0.05655212083667474 0.16530123262783616 0
0.04305138142156808 0.1324711930311337 0
0.08217999579252247 0.12620549391625555 0
0.05577067016949997 0.11300203342897791 0
0.026774518356674767 0.04268191782225134 0
0.051591548447085134 0.059795270322158776 0
0.17343468239609167 0.08559942806787302 0
0.12106633911398701 0.03955175956176447 0
0.15325405671865777 0.02711991465652987 0
0.09752900903356014 0.03000153994999953 0
0.10304937386733455 0.1397129486911806 0
0.11466688732121992 0.13298725720090127 0
0.08737992183415033 0.110650941570822 0
0.07243338110973642 0.07510827237772104 0
0.11978889420142354 0.061314629666550914 0
0.10273740022183654 0.052610875254843883 0
0.2744665122489184 0.020654877294684355 0
0.24702765183029568 0.10308588049541503 0
0.23677740589029092 0.08757497503775674 0
0.2050274936037446 0.07680842171030394 0
0.21817323667825456 0.09082505196368941 0
0.2073782572416003 0.05577564192250395 0
0.13706514796273475 0.054290368852504864 0
0.16048155134003309 0.07306072436261665 0
0.19350122044981086 0.06387568466545075 0
0.30561769741759115 0.07315784687609161 0
0.2840692988954769 0.1194180203909487 0
0.29520182857927435 0.1153347748757568 0
0.26467690786903375 0.1022461966640371 0
0.2748030546285851 0.08690970683516515 0
0.25303406426875774 0.05008306510619573 0
0.28671337253020807 0.06962276641674797 0
0.1674566135488169 0.26404592595619597 0
0.15349053060800696 0.2684358508615568 0
0.12092794503229201 0.2718757870925587 0
0.17221406814541781 0.29677314501847263 0
0.1525324479890822 0.3197616638732579 0
0.15838833645770495 0.3112873924738554 0
0.44427975499767697 0.0816747786417326 0
0.453721275273413 0.10737019244253118 0
0.4273880809135792 0.1408092127961001 0
0.4037247981571969 0.15344358003530043 0
0.4104814215887181 0.1634850852414371 0
0.43607760400841816 0.15779471869248404 0
0.435881546227804 0.17792698112412073 0
0.3795088899764466 0.07584489717120445 0
0.3540854080585616 0.07616550815540363 0
0.3552314816736216 0.08870538349671848 0
0.40758754450692813 0.08826533534030473 0
0.42272828932841 0.1145065024013061 0
0.4158414053123835 0.1024535136849843 0
0.39801710018964803 0.1037557992153483 0
0.41854637083655166 0.12753432695824785 0
0.4230129333049744 0.26759184334339714 0
0.44343163702723243 0.24864647305495588 0
0.4239162156666767 0.22872848883748492 0
0.1900740603910717 0.35381420462709356 0
0.2105219316881576 0.36020454414835745 0
0.19695286810388765 0.3623572839970901 0
0.21927439884767355 0.37267376654469253 0
0.2047951267673484 0.3084588462171268 0
0.1914666246245656 0.311667759558371 0
0.20957178105782712 0.33486077332143244 0
0.252523704701665 0.34415543130557374 0
0.23416175909955794 0.3447414902195122 0
0.26151871493319856 0.3610422193780123 0
0.45556499661421856 0.027791659694570276 0
0.43641661407404125 0.05281765380711764 0
0.09286406704220686 0.3645244833506157 0
0.09047896081939004 0.4490498775156508 0
0.03119369906476065 0.39277625747400513 0
0.4494213554971768 0.34671441532136205 0
0.46048467977066465 0.38084134637365236 0
0.3762685296681319 0.36278604664164593 0
0.42037177503523004 0.3472821148652889 0
0.39553644484345574 0.3456233125264306 0
0.4734542597103845 0.29592728391361744 0
0.4697381345613858 0.327360271451458 0
0.4328739641005001 0.3038191119272844 0
0.381586729237823 0.33958792085461514 0
0.3648523913538251 0.3577548947314598 0
0.3695487086474943 0.29226984384829346 0
0.3904973536218377 0.2961773332818432 0
0.3941831778815657 0.3144666693538063 0
0.4237664995676976 0.28771983154856795 0
0.4013064430601086 0.4556803329314332 0
0.3915435253516217 0.38088716692870866 0
0.4448081859347241 0.38751815813310314 0
0.4774593281279202 0.38986696299376883 0
0.34968528605330096 0.43769215711495985 0
0.3772028002659825 0.4579651278965478 0
0.38687154765820103 0.4393017362646938 0
0.37517026396569075 0.4253664222481774 0
0.3638984789657754 0.4150347808373334 0
0.3384881533538511 0.4114614555423164 0
0.3603374947228807 0.3933806801943219 0
0.3231048362268145 0.3861697986331077 0
0.3545310075938614 0.45672325793202617 0
0.32511211542016416 0.3707564224456515 0
0.2961255086186297 0.4054485748331716 0
0.3122623005121352 0.4646776507566611 0
0.3164737610853144 0.44284594716062137 0
0.47523242791209097 0.4459236690037327 0
0.18952110344123596 0.2736366091073762 0
0.19837642198980734 0.284342069113363 0
0.20864679323181393 0.29363716129732853 0
0.32323834142083135 0.3296157242678442 0
0.32612023855199307 0.3580880388273385 0
0.36331962801986645 0.3473424300522198 0
0.3707497532668646 0.3315643722788706 0
0.3505739848602081 0.3387027446908934 0
0.37761367539781365 0.1740040793942672 0
0.3775427907585674 0.1946302486657633 0
0.3999567630011543 0.25789279556657424 0
0.405847174283255 0.19965548929453325 0
0.39330285928439296 0.22515713582988187 0
0.354580376519502 0.2544874675420781 0
0.31969043235853367 0.24137599599567275 0
0.32606217791266284 0.2885298485145882 0
0.34285500633438004 0.30986424341863433 0
0.27063381987341567 0.22076336523469295 0
0.2869842834647176 0.20659625535113954 0
0.3478119562881924 0.20249343766360325 0
0.32643328028775537 0.21145902340827427 0
0.26396848081805974 0.13062127054570521 0
0.2657770148797715 0.1563274910511696 0
0.2457708942428589 0.17175442851417422 0
0.3918805514589833 0.13113993804780766 0
0.37863164099493246 0.13976244366114055 0
0.38459861908130544 0.09923182086107393 0
0.3480209453090322 0.11516494582773501 0
0.3580410273087711 0.20679291000841438 0
0.3688221799188405 0.17334495501200967 0
0.3612166773027536 0.17020055319086427 0
0.3081136828538465 0.18654245001801845 0
0.3159692760661215 0.19648932043657952 0
0.30333675988043207 0.15763425438721615 0
0.3223500334804622 0.07773549006086371 0
0.3254030561309385 0.09066007448066916 0
0.3115069922158709 0.0912870285330882 0
0.3184372329724848 0.13059428662794884 0
0.3276773815683926 0.130808634094343 0
0.3348789957761963 0.1344112367079638 0
0.3201740322030402 0.043580286635236526 0
0.33257807867570505 0.06111904350908908 0
0.24641310862812923 0.24317230306485157 0
0.24809003199293272 0.22605802702422068 0
0.28549370826067694 0.18900454709976303 0
0.24895838276185328 0.13155009859500258 0
0.22978357615622558 0.10473985420116445 0
0.2560965247089206 0.11711250356319874 0
0.2248735125250022 0.12035587621758267 0
0.17084127558692483 0.2513714240491007 0
0.17323628922757903 0.23624104752755384 0
0.2178275745690143 0.21581189245769475 0
0.23138834766520702 0.22087149431090464 0
0.1882855112485987 0.23644712982694768 0
0.23813649275326415 0.2555022073148776 0
0.220930939424542 0.22802916818371663 0
0.3073064886940829 0.36291701234954704 0
0.29220544883785826 0.32479329453924455 0
0.3142277645887218 0.3437914536722272 0
0.23233936507512495 0.37216250393983497 0
0.2678160422817081 0.38328638694782463 0
0.22792577063869426 0.41378089953882813 0
0.18900102898164084 0.38803514214427703 0
0.137399715046193 0.3796949903420513 0
0.12315762594127663 0.35979217589801143 0
0.12536120358691646 0.347797945875283 0
0.17102220330547074 0.3458596214137732 0
0.1688573816480031 0.32270459932837714 0
0.16011043246994372 0.3265885384066333 0
0.14890289942329643 0.3361796536241682 0
0.14070903220608771 0.3377494751503831 0
0.15180529942203258 0.38133796213395704 0
0.16094163733119593 0.34975763264460213 0
0.12783186259313334 0.40522758784622215 0
0.17467013540407023 0.16264170244621934 0
0.17044493054024787 0.13824261482365047 0
0.19823445456065197 0.13474132237675773 0
0.15294904852975233 0.14286771357304695 0
0.1492191233386896 0.13038679546839269 0
0.124384944471512 0.20205986575862772 0
0.10865658754960254 0.1691725001771095 0
0.14984630268683513 0.1822699314166347 0
0.16359251826692922 0.17370578300184436 0
0.1278184729763016 0.18081740178737696 0
0.09606241244876447 0.20041279244937432 0
0.10155871820746269 0.18306525512463598 0
0.11069238909609297 0.21085875871097984 0
0.07553031500180411 0.2046842533159121 0
0.14195708555428144 0.3143552458259298 0
0.09983709119747604 0.2723276639228877 0
0.1330965079907977 0.2937348876636448 0
0.12113559423265763 0.2981501385210822 0
0.08728463500495123 0.3492463132729178 0
0.07356709700049525 0.33661541242595777 0
0.054725670903944305 0.31528270049686463 0
0.07158539390563488 0.3622934666481579 0
0.02607399080478514 0.3594687853596416 0
0.09262527821965162 0.13372392603435443 0
0.05360181496397797 0.147617769475816 0
0.15789280310826592 0.10771108930796505 0
0.18475147210958884 0.09720840375004693 0
0.14217247953794782 0.03723061522724421 0
0.13300736265186044 0.14073482193517994 0
0.13225124210786177 0.07262059573614056 0
0.0934430058258511 0.1222288820001708 0
0.08803230756983056 0.08734544130622973 0
0.1176017871440799 0.07826390572521393 0
0.18644592892852335 0.049586495241858694 0
0.2233079638795405 0.06917837643274073 0
0.2324349458774704 0.02152125326461776 0
0.26539096604758683 0.06691012040623426 0
0.301139848983712 0.05489316899149421 0
0.145212064174874 0.2545088547612956 0
0.11130708850685636 0.28753065801410543 0
0.13804528472900332 0.26790854112627 0
0.16872986030958165 0.28517432237512663 0
0.16128885959214875 0.29450891766671206 0
0.3948814463225845 0.15887664939689886 0
0.45073700891128365 0.16943404415132013 0
0.45726380574981623 0.13034363659908987 0
0.3480554337619127 0.06180855955646872 0
0.366838417216116 0.08206759288443086 0
0.40663485505303154 0.05206160007850179 0
0.38431087912539447 0.05631266874372224 0
0.43648138733827624 0.12349853137087109 0
0.4117314523811312 0.14106494351408277 0
0.4066893116192837 0.2175572454603426 0
0.472765943063542 0.23383550746897486 0
0.1823323237906197 0.34559281681960535 0
0.22634094746718245 0.35947130133166133 0
0.1946487904116373 0.2986114419683068 0
0.1780111783147967 0.31524486563693027 0
0.17748258523887311 0.32825387974932585 0
0.20087840682438937 0.32261372355490014 0
0.2666834048138472 0.3058901315773559 0
0.11052858017258912 0.3652205553336876 0
0.06433441399217861 0.3904362583142238 0
0.43302582378361926 0.3568170193480431 0
0.47256746189780846 0.26536025276532044 0
0.4459170015636806 0.28231437509902774 0
0.4525011854539418 0.3069021797557893 0
0.3630313993090988 0.3084350867748861 0
0.38138111310768114 0.3243195188158368 0
0.41133540305139493 0.3034659628419687 0
0.4224428188266085 0.3321568619975659 0
0.3661839192497246 0.38175124938015664 0
0.4270166265937745 0.42567611961024454 0
0.4281431265766825 0.39440765570250275 0
0.36116069044636995 0.42802985758265044 0
0.3497045812847254 0.42120584270032446 0
0.35555904087855533 0.38476885243033954 0
0.3130274059907689 0.3744292925225701 0
0.34906897279850446 0.3923599248793199 0
0.2506358460451665 0.4029261666429156 0
0.2853940716018696 0.42240310277274723 0
0.3092093847480458 0.42256777922457167 0
0.44980893851818887 0.43601155443140405 0
0.47229833474625865 0.4175850246521031 0
0.22466670163339547 0.3323793688008071 0
0.23661560811262322 0.2853552841474074 0
0.35139779878341043 0.2988297738017708 0
0.2969408680072137 0.27124501144075924 0
0.36189555604312457 0.22121449423402012 0
0.37637946741111894 0.2565310192171154 0
0.38689229485891297 0.239600314287465 0
0.44644729293641133 0.21502307244633148 0
0.3477032606941709 0.31918579371647715 0
0.3057403307991774 0.21315420252804265 0
0.2721283140406918 0.1432162127493781 0
0.3986849228846664 0.14090000677619915 0
0.4042742668287164 0.12930596155225169 0
0.3729374819730231 0.14632235583620282 0
0.3612743979979724 0.13668143921246878 0
0.35554040054893066 0.10050727712019564 0
0.3354541203215253 0.12059804462119254 0
0.35938331664277945 0.1288471665458009 0
0.3642527760721619 0.10631135232985138 0
0.36577270966337916 0.09504221585579302 0
0.3561796639747441 0.15848602051490593 0
0.35578594013057285 0.1938738988431532 0
0.3170388195104349 0.18346440940222564 0
0.33814842406089596 0.20395015242525363 0
0.32432517165719577 0.18883757908465307 0
0.3036160438823695 0.1474362818735677 0
0.29413800088042547 0.15059950903898683 0
0.3392852331015286 0.10565232740903158 0
0.3095321597548034 0.13123969647838657 0
0.31689543210398574 0.06226466640768259 0
0.254197523799733 0.20693510547890845 0
0.23083318981369744 0.17004935641081112 0
0.27069266178229934 0.19857559928028448 0
0.2403547459497958 0.2118087366816744 0
0.210809884678028 0.18109487979392258 0
0.2159116268097973 0.1899641297386809 0
0.2286555150709587 0.20701726991682395 0
0.24076864002426696 0.19866391751573603 0
0.2164675867484378 0.1679601271614834 0
0.23386414644586132 0.1324525734194925 0
0.2719019719226049 0.1171153936022454 0
0.2135603961182209 0.14309180685813083 0
0.22543393670007367 0.15930602775762093 0
0.24277385045925556 0.14526967975844093 0
0.22702515044718677 0.146421305755175 0
0.21330197976758652 0.12307883065953647 0
0.21475141514429344 0.20116876391864782 0
0.17917100630256128 0.21029663019670458 0
0.22729295592863288 0.27182961023510266 0
0.23211990930340012 0.23798320914315382 0
0.19349738663098956 0.24915019948595843 0
0.20153478024154292 0.23784433109849132 0
0.215096714455009 0.2396721247341699 0
0.30571503345225853 0.32728668716637777 0
0.29650878402357017 0.33826308636817 0
0.16943792367787333 0.472944559166933 0
0.15235349186701921 0.32909971382599595 0
0.13633218014570495 0.34572724516601283 0
0.1580615104588651 0.3593134565083764 0
0.1545770277392361 0.34321567796592867 0
0.20847568922389523 0.1326727714919943 0
0.20086503035773867 0.12219278896683353 0
0.18033677914074586 0.12189869447203494 0
0.18800606746452292 0.1391845585512958 0
0.151888943233382 0.15604091781534812 0
0.129427055077766 0.16202581463351168 0
0.1224835479731097 0.17041039728440732 0
0.16496380301519373 0.18990969091112572 0
0.17092431909736777 0.19909860351179492 0
0.16905377894526946 0.2216038024357623 0
0.1397818472892671 0.20451307983446948 0
0.09316600659658499 0.16920618842391344 0
0.11106282894923707 0.22596861049561082 0
0.10122665379407 0.31356256309432035 0
0.07185679857381679 0.29717901847798894 0
0.13141443124230354 0.3069121475706367 0
0.1438941760064984 0.30149683432998764 0
0.08168175571518949 0.31499026274682473 0
0.05015636484816217 0.34549992369146404 0
0.07541296019857899 0.16846593625971162 0
0.08595354227076371 0.15463961339858973 0
0.06384392605447949 0.18520503568941213 0
0.06536933338421483 0.13244598599527418 0
0.15879048826959066 0.09142902349978196 0
0.14272210357981363 0.13789433907528856 0
0.11494990783703873 0.1084792174388962 0
0.14500226689028337 0.08235930805892253 0
0.09186694055179759 0.06904836607712893 0
0.23118310622545324 0.047460457310739224 0
0.4729262785434524 0.1710883175331787 0
0.4772021327420515 0.14175437670891275 0
0.44261162298585144 0.14089309745018636 0
0.36609187600814685 0.06624531873285557 0
0.37718134986051705 0.09059560845693984 0
0.38912334180714386 0.028874520438112644 0
0.398200855366795 0.07212154278239713 0
0.41897931798686794 0.2478099305113897 0
0.19147779432860557 0.3444510430694935 0
0.20140388034345008 0.3481105345674887 0
0.17687318257684229 0.3381027658620934 0
0.18808703767860954 0.3247280874971423 0
0.12203525754856052 0.36978159223082846 0
0.0722660297122935 0.41407385130335256 0
0.4232263557316875 0.31746020027962396 0
0.40907298234785944 0.3228715812519232 0
0.4437826209900198 0.40963288838049433 0
0.42876456893838827 0.37522265638254937 0
0.41423862020160523 0.3729454627318704 0
0.42431483786801344 0.4091063930428941 0
0.4125917339496738 0.39990467847108724 0
0.3455529333478862 0.3699006582022627 0
0.33559227842415995 0.37717359960424346 0
0.45975352391637697 0.3971085296317264 0
0.41956921735554525 0.47507182490974603 0
0.24130711128252297 0.3292722366183797 0
0.21925125828380163 0.3048786371043322 0
0.24987976004420462 0.29345418378913196 0
0.357785213487141 0.3191211248503993 0
0.3318036610412576 0.2736386823645162 0
0.47406542704126026 0.2028840331347257 0
0.31317811253633787 0.27531118800026483 0
0.2901819683792641 0.22331071027478058 0
0.3842498296954233 0.11050158987169564 0
0.3514160198686441 0.14645186957836168 0
0.3948820164862736 0.11906004101760045 0
0.35337631860295016 0.1395354489037336 0
0.345651194610353 0.1280377226627274 0
0.3353298139172818 0.15957643508605346 0
0.3522326282096563 0.17249337989865454 0
0.32876477914100566 0.17155768801205568 0
0.3261568630134089 0.1801803843151347 0
0.33002933281692437 0.1970110485317742 0
0.30325761302701687 0.12399284057490441 0
0.2716058730840414 0.18077870772216634 0
0.23646222718185858 0.18354324535157268 0
0.22555257660295075 0.19341323665041776 0
0.22275062011536403 0.18143791705466247 0
0.21566950762606155 0.1547998534106881 0
0.2372267327525071 0.15813836177120172 0
0.1911334348236681 0.20395506932154908 0
0.20124162546101984 0.19752383433455697 0
0.21106385723988277 0.26487199180484416 0
0.13252437057513136 0.3676874825467047 0
0.13339088902264476 0.3560171825851115 0
0.14583967857247224 0.3447489914230734 0
0.15179401917794189 0.35197395082089905 0
0.18782156820796844 0.16803763195742302 0
0.19487966753216684 0.10836304641177867 0
0.18726112138564138 0.15079060382277495 0
0.19685020367446057 0.14525662177449203 0
0.14222809103600756 0.14842311054222154 0
0.15490613325973132 0.19052430654594615 0
0.1311536053749867 0.15188297253829697 0
0.13961930381522097 0.1821768790019363 0
0.173665170270051 0.17201544463213383 0
0.16479675906826227 0.2097482254697634 0
0.16013236933170266 0.19948220635215744 0
0.14427739390887623 0.19147163838879785 0
0.1041114153770969 0.23830992133428922 0
0.0928219427392412 0.22256544701342465 0
0.1518879701451621 0.294205837015941 0
0.1440127556842612 0.11654482340052087 0
0.13603911169996266 0.12876719480525797 0
0.14409414850682056 0.0992868910781995 0
0.12397044732186777 0.12193551266288206 0
0.10676211101858701 0.0689449129756036 0
0.10288575688833164 0.08265211799394366 0
0.20560288796536638 0.02831650640475755 0
0.2941096708964108 0.08815938961414756 0
0.13411583278344325 0.28109254161604363 0
0.45604167921135846 0.15188843731494317 0
0.37470785351866265 0.10278219088256708 0
0.19601657071141593 0.3351672902435635 0
0.1167161170516848 0.37927230197694306 0
0.1104111309348171 0.4392407869644199 0
0.3355460299939876 0.3650040053917219 0
0.2599403046013807 0.3258467614322043 0
0.22275381899563654 0.2891761690293702 0
0.24731118135518063 0.31187071932394356 0
0.3410723218127795 0.13737535711662835 0
0.33008576728913486 0.16386512529597286 0
0.34894053912980916 0.1827613286883893 0
0.31970145241914355 0.11266354711505183 0
0.32220784959763976 0.10095335686554664 0
0.300747381390876 0.10286540525231375 0
0.19533867256063508 0.17303545046751515 0
0.1873600945243672 0.18376080874951503 0
0.20278833056479859 0.21219334334249346 0
0.19518495585772358 0.22610223492021383 0
0.20921164838695414 0.22669498611692843 0
0.2819566364118074 0.36737481279215073 0
0.2980345477576417 0.37320972832938865 0
0.14419656561099942 0.3700171958628236 0
0.1895725821856002 0.11805343563714193 0
0.1405334632985459 0.1608811252434915 0
0.1815349792917794 0.19721585166504427 0
0.18305859240421754 0.18884412998127925 0
0.15718756960063118 0.2315572601449521 0
0.1535128121748891 0.20834823890969775 0
0.15042998004076172 0.19878133489109323 0
0.12947455448089762 0.09064147778384028 0
0.1301668522085016 0.10786266817696522 0
0.15550757169546978 0.2839076972002955 0
0.4049253007760252 0.23616601148374614 0
0.18530524547345034 0.33626185513184925 0
0.12720205618096322 0.3883653729180343 0
0.08976437062927181 0.42623792831953483 0
0.23444261405963535 0.30027643607006665 0
0.23060864625791447 0.31626964729314627 0
0.3433320501337348 0.17546502930772173 0
0.3420310468310492 0.19272711419297744 0
0.31233748658054755 0.10458373493041913 0
0.1910165184789148 0.19157976157028703 0
0.2046579959851132 0.14146144506145747 0
0.19030102157355852 0.1603445550506017 0
0.19726059786848293 0.1558579211361554 0
0.20557143000121508 0.1605299855642526 0
0.17989032432518068 0.1670720184539475 0
0.14616688188413104 0.171481274806545 0
0.17497599419322493 0.18963380623856976 0
0.15946673191817778 0.18189045056318306 0
0.16933369176028204 0.18126237631213749 0
0.14595541485735727 0.2196676873894169 0
0.10117261822576148 0.38059053957876443 0
0.0905714177986421 0.400126498392895 0
0.3348370059364592 0.1772952663796239 0
0.33287582299690816 0.18627467160582822 0
0.1402607164639489 0.3615942773224713 0
0.14858444242972527 0.3609201332832633 0
0.2054914783804532 0.15021705073442823 0
0.340404178204134 0.1827787486988169 0
0.1427198824514577 0.35358563372696367 0
0.18261944446960424 0.16085934725083406 0
0.11008582441478047 0.4153188711830071 0
0.5 0.1080343733955203 1
0.29657362818580557 0.0 1
0.1684419031720837 0.15612077962028356 0
0.5 0.029467380742546883 1
0.3480957087840767 0.34730321635287537 0
0.38204107412028954 0.1661610546252005 0
0.315925260657124 0.15085444165280087 0
0.30622249980120386 0.1391574260233352 0
0.1743236573677789 0.3663154132384563 0
0.1702327841783608 0.11547734081138893 0
0.15023037816112889 0.3098609121339148 0
0.3958410006237279 0.35833826362736554 0
0.3729332881297918 0.3937118802284971 0
0.3792666902391024 0.3826150759893708 0
0.36581791768779653 0.4030479584209584 0
0.3306291835640576 0.32664214728445096 0
0.3355227605538163 0.35581336534127916 0
0.3606543450222398 0.3370408198009528 0
0.3441238013366214 0.33342157531747135 0
0.3555970130981078 0.3447049724092972 0
0.3754165743485686 0.13193001544313002 0
0.37413325802278063 0.16606280538191742 0
0.3622493981553477 0.1624482541807795 0
0.32028618638633 0.1562551979154995 0
0.32665279288359483 0.15479370491366481 0
0.3086759188429914 0.17652931232345007 0
0.3337245902516788 0.08700290871490422 0
0.1679264155866626 0.3574606899252637 0
0.16454591847623457 0.3035967903191578 0
0.3838417550058158 0.372154486126376 0
0.3437021334206231 0.3261857072906048 0
0.3525077786627351 0.3110828038961762 0
0.3743209581904266 0.15314208222614198 0
0.3815169324265191 0.14976136226143233 0
0.36524600596239976 0.14439831665092873 0
0.3702189267719521 0.13818128946997793 0
0.34144005813314365 0.11806898437300405 0
0.33008071220040824 0.1237631758836899 0
0.33488496415159463 0.1275330734105017 0
0.372010861338453 0.1249914956344092 0
0.355383049262765 0.12065106904519403 0
0.3553801710642126 0.11095021916856967 0
0.3718810146516108 0.1151449798145793 0
0.3625797888283821 0.15486212335377453 0
0.31056484248375504 0.1662713750284236 0
0.33633625489056723 0.11373356115055575 0
0.33230656489364707 0.09774481905675046 0
0.31622110536798154 0.32509309403150677 0
0.3123135905023043 0.31588934480259867 0
0.15473092156795581 0.369194929899957 0
0.16410761667496349 0.3674830922109563 0
0.18917612852912216 0.12882398333916803 0
0.17931090392340635 0.1332692449639892 0
0.4056314981601972 0.36548017368596714 0
0.40363285691420114 0.3773571304415976 0
0.41822358360051054 0.36175725190299723 0
0.39709596675506886 0.40477292583948016 0
0.4010915233324701 0.3902023659290065 0
0.41475774183616715 0.38500314127013346 0
0.3523575639754783 0.3286823503636132 0
0.387891797717009 0.14094118062905128 0
0.3566846063658393 0.1518164948526313 0
0.35839556007988027 0.14468827352947733 0
0.35465772661414313 0.1331837645146283 0
0.34757992290393375 0.1338523962623767 0
0.34080831691373425 0.13100640350077616 0
0.3408612905759875 0.12476682293204756 0
0.34719010620717494 0.12313362000638445 0
0.3485226379628628 0.15489004964856093 0
0.33287866578961345 0.1530049900287594 0
0.3297530935186635 0.15810416649810258 0
0.3249297512140253 0.16041428588561849 0
0.31933674220987623 0.17261610901296984 0
0.3298382512049475 0.10783803253758636 0
0.347080913899745 0.1415037287848618 0
0.3369973881512291 0.1680966737762427 0
0.31370896696307765 0.12243103235998976 0
0.3480163560560593 0.10614774104710813 0
0.36542506087668575 0.3691047076394543 0
0.3291693335189242 0.11691895898425893 0
0.33959574984021096 0.348816849779479 0
0.33511006728104764 0.34210004262879673 0
0.36742100817170587 0.1661202781783832 0
0.3225859222011084 0.15019781599284193 0
0.36723249700810223 0.13050624629329854 0
0.36464667474065227 0.12291790684676049 0
0.35165382350743574 0.12827296227039064 0
0.3623631682411128 0.11514963093602894 0
0.342829763212651 0.11145070253374881 0
0.3945940305102073 0.36958103607735954 0
0.38684590001891017 0.39337329183371056 0
0.3620042712065657 0.14945808054995083 0
0.35012126985252917 0.16319959119981442 0
0.3396407577815941 0.15347023574438232 0
0.33782859787173036 0.1469761571194746 0
0.34370545802085134 0.14767717471843575 0
0.46875 0.0 1
0.03125 0.5 1
0.132765494527022 0.4499192518624901 0
0.3951846267854079 0.1771924857111988 0
0.2783312103935625 0.13007994105677692 0
0.18817152809969334 0.42062706979668896 0
0.14614517484027165 0.4127600187548562 0
0.12050081528900564 0.3262515057498711 0
0.073577908855302 0.09867404972739947 0
0.18929964121401519 0.07922069893760322 0
0.39265812418380885 0.4213445952181588 0
0.40743593726799016 0.43447979155719885 0
0.3334993741614075 0.4510632588684217 0
0.33639755558328344 0.47516989178798585 0
0.32237164069039537 0.33873747863913295 0
0.32295583605886125 0.34782838869778626 0
0.37250522155400734 0.1824834298930486 0
0.3835515909554269 0.18220887952829506 0
0.33895191786741813 0.2611070349706592 0
0.2517489831499313 0.1576339567870507 0
0.16242598395851393 0.24360968622827237 0
0.31524235709626697 0.3546489607925416 0
0.10163653195215863 0.1153453880401531 0
0.38672422297203124 0.15841236454351215 0
0.3779016859357036 0.30931108696155923 0
0.2972192962381561 0.14014002530815495 0
0.1827361717900175 0.2593120146328916 0
0.4101739049543199 0.41589438492835906 0
0.3465898778783143 0.3815180482271927 0
0.20139583966487945 0.27281230783157395 0
0.1606775894156657 0.15880252878956627 0
0.09944274087732517 0.09989372911230088 0
0.14390539661333876 0.28893556608176957 0
0.30759076305481 0.11378380218523364 0
0.1965855497995586 0.164094855019784 0
0.16244238556884333 0.3418632132045611 0
0.12236963925283914 0.18989202614833292 0
0.1784214996062874 0.14423183306152232 0
0.38174196458087556 0.12387422627718603 0
0.15098956253049983 0.4346623799566207 0
0.15243657042193884 0.24456193092956677 0
0.2851170403295681 0.336124076454439 0
0.2752908222614101 0.4020631024265383 0
0.4042784547912589 0.18605595403175834 0
0.3680451244414116 0.23829417381436666 0
0.1822029777589592 0.2459119141051491 0
0.22182273741593267 0.25345017668324543 0
0.11583055924319391 0.1813779332046175 0
0.04867353413237179 0.3701178059230394 0
0.11477792401119118 0.017703812505633784 0
0.33996244959498645 0.07478229642646878 0
0.43535738030234544 0.19512064479693425 0
0.26421630611622543 0.42047986902452095 0
0.254212717497901 0.18727921746149462 0
0.20096206429225646 0.17849018008850653 0
0.1977375318642722 0.26128842740569913 0
0.15609084748655733 0.16616909526935372 0
0.2088079289952552 0.1919810758506368 0
0.18126156639868182 0.17281005365813518 0
0.421343536893323 0.16922493831238417 0
0.19348470495600872 0.1820748518390277 0
0.28761861733159516 0.34968354326334544 0
0.15825913232661273 0.2186350594720425 0
0.18747336301698253 0.1764409141691317 0
0.17959221251674115 0.18109174063407243 0
0.2875612663624719 0.386337230767871 0
0.13418865456831863 0.17119228203698877 0
0.11228967167354816 0.3948699112685785 0
0.16936064249327873 0.14758130985304785 0
0.3379791865059458 0.3362250311788162 0
0.18177194915658518 0.1104043478731341 0
0.38498053608936506 0.35330747878587243 0
0.3374015226868426 0.32963547952903055 0
0.3285386264420602 0.3426469712783205 0
0.3008059609291291 0.3161648378054416 0
0.36205420419815343 0.32729185907724684 0
0.3924106212404317 0.15057553915753408 0
0.3241887902454569 0.16606276969269473 0
0.3429542066625329 0.161524266719148 0
0.3313998461178722 0.34936065351817946 0
0.3563623707599688 0.16508117289254565 0
0.3786165018326225 0.22368276428752734 0
0.38709060951923785 0.36325070202811727 0
0.20454274681946 0.17139469734822968 0
0.18997470031040156 0.21516255942278392 0
0.14132741980516111 0.47454248304777563 0
0.3174567238141881 0.36438264759979005 0
0.2063309146848451 0.25098678520888307 0
0.20130574786965214 0.18700684664860706 0
0.3307444730429091 0.3351436745879252 0
0.3186455638386229 0.16316406539668918 0
0.3249634335865338 0.41325413976794984 0
0.3094094978074346 0.1518464927241823 0
0.2885663550950887 0.308136120715792 0
0.3213255690318972 0.3042569064149171 0
0.17285075394651642 0.30649832224837853 0
0.16304176944582432 0.14287062619234905 0
0.10182842395775514 0.154252698837294 0
0.10274780575880675 0.12778120313323332 0
0.11167490869241765 0.14561681241320454 0
0.1479769279089217 0.06464588635765792 0
0.33024840458795623 0.4006998249866093 0
0.3358997417324017 0.2997387373611094 0
0.33236603084412736 0.3106093240786391 0
0.3144753446849791 0.13811585323416595 0
0.33776393575417335 0.3897761995053217 0
0.30684088588953967 0.33886977075838837 0
0.14524316085434114 0.2781908565051734 0
0.3417174700066605 0.4000600026977187 0
0.36881547026583533 0.3200398280024441 0
0.051995607267619835 0.41404566374424745 0
0.124023756606821 0.2865462869577328 0
0.3829201678172642 0.13382560561694246 0
0.36750376441525745 0.1511901816221646 0
0.13309344146190122 0.19187705001706135 0
0.385814447956407 0.17319376228252778 0
0.3254627724677049 0.14449364492688108 0
0.29275395198742743 0.16110892420078385 0
0.3718840430649681 0.20901917152489152 0
0.3224798267965819 0.13799689503851972 0
0.1631750141190943 0.3837532354829658 0
0.3360843163101558 0.14087840652179287 0
0.11432548570821746 0.09347735972051263 0
0.20571928860827807 0.3706100712601897 0
0.32965366058831647 0.13903636604923736 0
0.16609461006993434 0.16494144364811736 0
0.3125772315054542 0.2921476269264799 0
0.12718764485409065 0.3769899578301785 0
0.08410798261368364 0.3796064471672062 0
0.3278485012074018 0.14973702421309146 0
0.355807862565834 0.3751784941691093 0
0.17681325466829786 0.15398499933888748 0
0.19701873727330815 0.43626548400013276 0
0.16055708919591216 0.3757340347761238 0
0.33172908306860827 0.14557635485021 0
0.36656143112606626 0.19024342176181552 0
0.27304721658673164 0.1669986957169757 0
0.29553965444783564 0.36046395638607925 0
0.3410044889586305 0.142985103464813 0
0.260673682601163 0.17036117510000712 0
0.2749749779939659 0.35500568747891814 0
0.08696521467760555 0.09910466198021926 0
0.12176798367456082 0.10007651676643546 0
0.12237198407176578 0.14360840705159358 0
0.1257310930120276 0.1335541218229214 0
0.1333985482968116 0.11876233966873215 0
0.34504040710999095 0.16817829688250843 0
0.14893541081004533 0.16414773010825787 0
0.0 0.44007879080726076 1
0.280377170358363 0.5 1
0.2732868140929028 0.0 1

Edges
65
1 112 1
1 116 1
2 764 1
2 857 1
3 153 1
3 161 1
4 164 1
4 858 1
5 125 1
5 1007 1
6 64 1
6 144 1
7 85 1
7 1006 1
9 101 1
9 106 1
10 107 1
10 163 1
11 84 1
11 95 1
18 65 1
18 761 1
19 64 1
19 65 1
22 73 1
22 139 1
23 73 1
23 762 1
24 111 1
24 126 1
25 81 1
25 160 1
26 81 1
26 1006 1
27 84 1
27 85 1
31 95 1
31 858 1
32 100 1
32 117 1
37 100 1
37 101 1
39 106 1
39 107 1
41 111 1
41 112 1
43 116 1
43 117 1
45 125 1
45 126 1
52 761 1
52 764 1
53 139 1
53 857 1
54 143 1
54 154 1
56 143 1
56 144 1
59 153 1
59 154 1
62 160 1
62 161 1
163 1005 1
164 1005 1
762 1007 1

Triangles
1947
1 112 116 0
5 123 478 0
6 144 507 0
7 224 1006 0
8 211 481 0
8 261 247 0
8 483 300 0
9 99 104 0
9 104 106 0
11 243 942 0
12 226 431 0
12 234 240 0
12 240 324 0
12 324 980 0
13 339 790 0
13 514 839 0
13 774 514 0
13 839 339 0
14 423 411 0
15 78 898 0
15 898 918 0
15 918 997 0
16 180 860 0
16 766 880 0
16 860 972 0
17 176 178 0
17 178 184 0
17 184 383 0
18 65 617 0
18 617 134 0
19 64 646 0
19 646 616 0
20 68 185 0
20 147 347 0
20 185 382 0
20 382 532 0
21 199 961 0
21 961 976 0
22 76 73 0
23 73 75 0
24 119 906 0
25 81 157 0
25 150 160 0
26 224 366 0
26 870 81 0
27 582 87 0
28 86 223 0
28 87 989 0
28 88 430 0
29 235 259 0
29 259 457 0
29 302 583 0
29 438 439 0
30 94 165 0
30 165 967 0
30 733 335 0
31 94 96 0
33 265 466 0
34 245 246 0
34 444 953 0
34 446 447 0
35 453 454 0
35 455 453 0
35 904 893 0
36 99 102 0
36 102 110 0
37 100 252 0
38 39 264 0
38 107 39 0
38 463 605 0
38 465 107 0
39 106 264 0
40 100 108 0
40 108 267 0
40 110 252 0
40 267 467 0
41 111 121 0
42 113 118 0
42 118 271 0
42 279 865 0
43 116 270 0
44 296 479 0
44 477 615 0
46 127 476 0
46 289 957 0
47 123 282 0
47 202 480 0
47 297 479 0
47 480 297 0
50 311 622 0
50 314 317 0
50 395 620 0
51 323 625 0
51 328 527 0
51 330 498 0
52 131 138 0
52 138 764 0
52 761 131 0
54 154 354 0
55 337 506 0
56 143 343 0
57 149 341 0
57 341 345 0
57 349 631 0
58 351 868 0
58 515 525 0
58 640 351 0
59 526 154 0
60 355 869 0
60 518 355 0
60 524 948 0
61 158 365 0
62 160 640 0
62 162 161 0
62 640 162 0
63 765 841 0
63 779 376 0
63 841 842 0
64 6 496 0
65 616 617 0
66 179 900 0
66 180 308 0
66 308 916 0
67 184 875 0
67 383 184 0
67 645 647 0
67 647 173 0
68 20 347 0
68 347 529 0
69 192 993 0
69 391 537 0
69 553 974 0
70 193 782 0
70 783 804 0
70 804 970 0
70 970 793 0
71 190 413 0
71 192 196 0
71 196 786 0
71 400 190 0
71 413 192 0
72 197 659 0
72 555 768 0
73 76 204 0
74 200 313 0
74 542 838 0
74 554 807 0
75 73 204 0
77 208 286 0
77 415 417 0
77 417 572 0
77 588 674 0
78 426 898 0
78 503 950 0
78 703 503 0
79 216 530 0
79 220 950 0
79 647 983 0
79 950 215 0
80 170 217 0
80 217 637 0
80 777 841 0
82 225 331 0
82 429 522 0
83 82 522 0
83 226 325 0
83 325 428 0
83 428 82 0
83 430 228 0
83 522 430 0
84 11 942 0
85 27 87 0
86 28 430 0
86 222 223 0
86 430 522 0
86 522 909 0
87 28 223 0
87 231 989 0
88 28 989 0
88 227 228 0
88 228 430 0
89 230 862 0
89 231 896 0
89 233 230 0
89 862 231 0
90 233 977 0
90 431 230 0
91 235 434 0
91 255 256 0
91 256 257 0
91 257 864 0
92 436 238 0
92 500 436 0
92 789 952 0
93 240 769 0
93 497 322 0
93 769 788 0
94 30 96 0
94 164 165 0
95 31 96 0
95 96 243 0
95 243 11 0
96 30 335 0
96 335 243 0
97 760 442 0
98 272 469 0
98 469 927 0
98 610 272 0
98 927 770 0
99 9 101 0
99 36 103 0
99 101 102 0
99 103 253 0
100 32 108 0
100 40 252 0
101 37 102 0
102 37 252 0
103 36 456 0
104 99 253 0
104 263 264 0
105 257 600 0
105 258 460 0
105 460 602 0
105 864 257 0
106 104 264 0
107 465 10 0
108 32 113 0
108 113 267 0
109 607 606 0
110 40 266 0
110 102 252 0
110 266 608 0
111 24 906 0
111 275 121 0
112 41 114 0
112 114 270 0
113 32 117 0
113 42 269 0
113 117 118 0
114 41 121 0
114 122 271 0
116 112 270 0
117 43 118 0
118 43 270 0
118 270 271 0
119 24 126 0
119 273 906 0
119 470 273 0
120 277 955 0
120 612 691 0
120 879 612 0
121 122 114 0
121 275 122 0
122 281 614 0
123 5 282 0
123 47 296 0
123 296 615 0
124 283 284 0
124 295 294 0
125 5 478 0
125 478 694 0
125 694 45 0
126 45 127 0
126 127 274 0
126 274 119 0
127 46 274 0
128 289 46 0
128 290 866 0
129 567 294 0
129 695 711 0
130 303 771 0
130 485 789 0
130 603 687 0
131 134 305 0
132 306 309 0
132 309 916 0
133 304 305 0
133 305 493 0
133 315 316 0
133 493 315 0
135 133 316 0
135 304 133 0
136 315 318 0
136 651 317 0
137 326 642 0
137 328 502 0
137 735 527 0
138 131 304 0
138 304 333 0
138 332 764 0
139 53 140 0
139 140 621 0
139 621 22 0
140 332 333 0
141 143 54 0
141 152 337 0
141 337 343 0
141 354 338 0
142 149 340 0
142 340 816 0
143 141 343 0
144 56 342 0
144 342 507 0
145 55 513 0
145 337 55 0
146 171 345 0
146 345 928 0
146 346 374 0
147 379 148 0
147 532 379 0
148 348 147 0
148 350 512 0
148 379 319 0
148 512 348 0
149 57 631 0
149 142 341 0
149 631 513 0
150 25 157 0
150 157 356 0
150 351 640 0
151 358 359 0
151 359 775 0
151 773 851 0
151 817 867 0
152 141 338 0
152 353 633 0
153 3 161 0
153 368 59 0
155 355 517 0
155 356 363 0
155 363 355 0
156 359 518 0
156 360 965 0
156 361 775 0
157 81 870 0
157 363 356 0
158 61 362 0
158 362 958 0
159 524 367 0
160 150 640 0
162 153 161 0
162 368 153 0
162 640 58 0
163 10 336 0
163 165 1005 0
164 858 4 0
165 163 336 0
165 164 1005 0
165 336 967 0
166 14 172 0
166 575 423 0
166 643 528 0
168 216 215 0
168 503 643 0
169 219 960 0
169 385 535 0
169 535 791 0
169 791 929 0
169 929 776 0
170 80 765 0
170 765 780 0
171 146 374 0
171 374 778 0
171 375 345 0
172 168 166 0
172 188 174 0
172 216 168 0
173 174 188 0
173 383 67 0
173 530 174 0
174 216 172 0
175 378 975 0
175 548 992 0
176 17 389 0
177 182 378 0
177 380 182 0
177 860 900 0
179 66 916 0
179 380 900 0
180 66 860 0
180 307 308 0
180 486 307 0
181 487 616 0
181 534 908 0
182 380 495 0
182 381 938 0
182 975 378 0
183 179 908 0
183 380 179 0
183 534 321 0
184 382 875 0
185 645 875 0
186 68 529 0
186 185 68 0
186 384 645 0
186 529 959 0
187 172 14 0
187 188 172 0
187 386 188 0
187 411 412 0
188 189 173 0
188 386 648 0
189 188 648 0
189 383 173 0
189 536 191 0
190 387 413 0
190 401 536 0
191 17 383 0
191 536 389 0
192 69 974 0
192 660 993 0
193 70 793 0
193 793 794 0
193 794 880 0
194 708 655 0
194 873 992 0
195 767 784 0
195 805 402 0
196 192 974 0
196 805 786 0
196 974 402 0
197 198 861 0
197 292 293 0
197 293 659 0
197 882 198 0
198 69 537 0
198 537 861 0
199 21 767 0
199 552 768 0
199 767 949 0
200 74 787 0
200 312 313 0
200 787 907 0
200 907 312 0
201 709 840 0
201 837 709 0
202 75 409 0
202 282 762 0
202 409 480 0
202 762 75 0
203 204 205 0
203 205 489 0
204 76 205 0
204 409 75 0
205 76 621 0
205 619 489 0
205 621 492 0
206 391 876 0
206 414 390 0
206 537 391 0
206 570 414 0
207 283 416 0
207 414 566 0
207 417 415 0
208 285 286 0
208 469 866 0
209 417 566 0
209 571 568 0
210 299 481 0
210 481 897 0
211 8 247 0
211 247 248 0
211 724 897 0
212 48 298 0
212 213 484 0
212 484 48 0
212 883 369 0
213 301 484 0
213 369 370 0
213 370 499 0
214 574 941 0
216 79 215 0
216 174 530 0
217 987 637 0
218 581 963 0
218 878 425 0
219 372 808 0
219 808 809 0
219 809 951 0
219 951 960 0
220 79 983 0
220 809 931 0
221 372 871 0
221 427 963 0
221 580 808 0
222 159 224 0
222 523 159 0
223 7 85 0
223 85 87 0
223 222 224 0
224 7 223 0
224 26 1006 0
224 159 366 0
225 82 428 0
225 329 331 0
225 330 329 0
225 428 498 0
226 12 980 0
226 83 228 0
226 227 431 0
227 88 862 0
227 226 228 0
227 230 431 0
229 859 896 0
229 896 231 0
230 227 862 0
231 582 229 0
231 862 989 0
232 233 863 0
232 440 233 0
233 89 863 0
233 90 230 0
233 440 977 0
234 12 431 0
234 90 242 0
234 769 240 0
235 29 439 0
235 91 864 0
235 439 584 0
236 91 434 0
237 213 499 0
237 301 213 0
237 327 500 0
237 500 952 0
238 302 303 0
238 303 92 0
238 436 437 0
239 241 437 0
239 436 501 0
239 501 626 0
239 892 241 0
240 93 322 0
240 322 324 0
241 438 583 0
242 90 977 0
242 977 990 0
243 859 942 0
244 446 953 0
245 688 468 0
246 245 770 0
246 589 813 0
247 685 599 0
248 448 597 0
249 593 449 0
249 956 1000 0
249 1000 679 0
250 745 913 0
251 454 453 0
253 103 254 0
253 254 260 0
253 260 263 0
253 263 104 0
254 458 260 0
254 686 685 0
255 91 236 0
255 504 334 0
256 461 462 0
257 256 600 0
258 105 600 0
258 262 482 0
259 105 602 0
259 235 864 0
260 262 601 0
261 8 300 0
261 254 685 0
261 685 247 0
262 260 458 0
262 458 482 0
262 600 604 0
263 260 601 0
264 463 38 0
265 33 607 0
265 109 609 0
265 268 466 0
266 109 606 0
266 467 109 0
266 606 608 0
267 113 269 0
267 269 609 0
268 115 278 0
268 278 473 0
268 609 115 0
269 42 865 0
269 115 609 0
270 114 271 0
271 279 42 0
272 128 866 0
272 289 128 0
272 866 469 0
273 275 906 0
273 281 275 0
273 288 280 0
273 470 288 0
275 111 906 0
275 281 122 0
276 33 466 0
276 277 956 0
276 954 33 0
276 956 954 0
277 120 691 0
277 276 955 0
277 691 1001 0
278 865 998 0
279 122 614 0
279 271 122 0
279 614 474 0
280 475 692 0
281 273 280 0
282 202 47 0
282 1007 762 0
283 124 294 0
283 415 284 0
284 44 124 0
285 287 477 0
286 285 477 0
286 415 77 0
286 477 284 0
287 285 290 0
287 476 694 0
288 46 957 0
288 470 46 0
289 613 957 0
290 285 866 0
290 476 287 0
291 405 695 0
292 129 293 0
293 129 711 0
293 890 659 0
294 416 283 0
295 124 479 0
295 129 294 0
295 479 297 0
296 44 615 0
296 47 479 0
297 291 695 0
297 695 295 0
298 48 299 0
298 210 418 0
298 883 212 0
299 210 298 0
299 729 964 0
300 458 261 0
300 483 696 0
300 968 482 0
301 237 952 0
301 789 485 0
302 29 457 0
302 437 583 0
302 457 771 0
303 130 789 0
303 302 771 0
303 789 92 0
304 49 333 0
304 131 305 0
304 135 49 0
305 134 488 0
305 488 493 0
306 132 494 0
306 318 493 0
306 493 618 0
307 132 308 0
307 494 132 0
307 933 538 0
308 132 916 0
309 310 916 0
309 487 310 0
309 618 697 0
310 179 916 0
310 487 181 0
310 908 179 0
311 50 620 0
311 490 619 0
311 619 492 0
312 489 619 0
313 312 490 0
313 490 546 0
313 542 74 0
314 49 135 0
314 50 622 0
314 135 316 0
314 316 317 0
314 622 49 0
315 136 316 0
316 136 317 0
317 395 50 0
317 651 649 0
318 306 494 0
318 315 493 0
319 379 623 0
319 508 350 0
320 319 623 0
320 321 534 0
320 507 508 0
320 508 319 0
321 320 623 0
321 730 495 0
323 51 498 0
323 325 980 0
324 323 980 0
325 226 980 0
325 323 498 0
326 137 502 0
326 327 499 0
326 371 642 0
327 237 499 0
327 326 502 0
327 502 627 0
328 51 625 0
328 137 527 0
328 625 699 0
329 641 703 0
330 51 527 0
330 225 498 0
330 641 329 0
331 15 997 0
331 329 15 0
331 429 82 0
332 138 333 0
332 140 53 0
333 491 140 0
334 461 255 0
334 750 985 0
335 733 701 0
336 10 465 0
336 465 905 0
336 505 967 0
337 145 343 0
337 152 506 0
338 353 152 0
338 354 639 0
339 346 146 0
340 55 506 0
340 506 816 0
340 513 55 0
341 772 928 0
342 56 343 0
342 343 509 0
342 508 507 0
343 145 509 0
344 509 145 0
344 512 350 0
345 341 928 0
345 511 57 0
346 170 374 0
346 217 170 0
346 839 217 0
347 348 881 0
347 510 529 0
348 347 147 0
349 348 512 0
349 512 631 0
349 881 348 0
350 148 319 0
350 508 344 0
351 150 356 0
351 356 357 0
351 357 868 0
352 774 790 0
352 815 818 0
352 818 851 0
353 338 639 0
353 516 633 0
354 141 54 0
354 526 639 0
355 363 869 0
356 155 357 0
357 155 358 0
357 358 867 0
357 867 868 0
358 151 867 0
358 155 517 0
359 156 775 0
359 358 517 0
359 517 518 0
360 60 948 0
360 156 518 0
360 948 958 0
360 958 965 0
361 156 521 0
362 61 520 0
362 364 638 0
362 638 962 0
363 157 870 0
364 362 520 0
364 373 702 0
365 158 524 0
365 523 899 0
365 922 61 0
366 367 869 0
367 60 869 0
367 366 159 0
367 524 60 0
368 526 59 0
369 213 212 0
370 167 371 0
370 371 499 0
370 886 167 0
371 167 704 0
371 326 499 0
372 219 776 0
373 364 943 0
373 777 702 0
373 943 878 0
374 170 780 0
375 171 778 0
375 511 345 0
375 778 932 0
376 765 63 0
376 778 780 0
376 779 820 0
376 780 765 0
377 398 782 0
377 766 972 0
378 874 177 0
378 992 873 0
379 730 623 0
380 177 900 0
381 730 533 0
382 178 901 0
382 184 178 0
382 185 875 0
383 189 191 0
384 951 983 0
385 169 960 0
385 529 792 0
386 187 412 0
387 190 536 0
387 386 559 0
387 536 648 0
387 648 386 0
388 548 397 0
388 737 548 0
389 17 191 0
391 69 993 0
391 993 996 0
391 996 876 0
392 661 558 0
392 665 876 0
393 538 821 0
393 821 969 0
393 969 895 0
394 781 969 0
394 794 540 0
394 821 794 0
395 649 698 0
396 797 849 0
396 801 828 0
397 175 975 0
397 176 388 0
398 194 399 0
398 377 873 0
398 399 843 0
399 194 655 0
399 655 937 0
399 783 843 0
400 786 549 0
401 190 400 0
402 949 195 0
403 410 907 0
404 403 787 0
404 405 403 0
404 787 807 0
405 291 403 0
405 404 710 0
405 711 695 0
406 201 407 0
406 407 976 0
407 408 981 0
407 798 799 0
408 407 799 0
408 706 978 0
408 799 826 0
408 978 981 0
409 203 410 0
409 204 203 0
409 410 556 0
410 203 489 0
411 187 14 0
412 560 557 0
412 576 421 0
413 660 192 0
414 207 416 0
415 283 207 0
415 286 284 0
416 294 567 0
416 390 414 0
417 207 566 0
417 209 572 0
418 210 877 0
419 214 422 0
419 418 877 0
419 724 596 0
419 902 418 0
420 424 716 0
420 714 573 0
422 214 715 0
422 577 902 0
422 578 577 0
423 14 166 0
423 575 903 0
423 576 411 0
424 420 421 0
424 579 716 0
425 878 943 0
425 994 218 0
426 581 898 0
426 931 580 0
427 218 963 0
427 221 871 0
427 871 872 0
427 872 878 0
428 325 498 0
429 331 717 0
429 717 922 0
429 899 522 0
431 90 234 0
432 232 732 0
433 434 670 0
433 504 236 0
433 669 628 0
434 235 584 0
434 433 236 0
434 584 670 0
435 93 788 0
435 239 626 0
435 441 892 0
436 239 437 0
436 500 501 0
437 241 583 0
437 302 238 0
438 29 583 0
438 671 439 0
440 232 432 0
440 719 810 0
440 810 990 0
441 435 788 0
441 586 892 0
442 232 863 0
442 732 232 0
443 744 681 0
443 759 744 0
443 763 988 0
444 34 246 0
444 246 813 0
444 813 894 0
444 894 925 0
444 925 953 0
445 590 812 0
446 34 953 0
446 244 591 0
446 591 677 0
447 245 34 0
447 446 611 0
447 611 689 0
447 688 245 0
447 689 688 0
448 248 455 0
449 593 904 0
449 598 954 0
449 954 249 0
450 250 747 0
450 745 250 0
451 681 748 0
451 982 681 0
452 593 923 0
452 680 971 0
452 893 904 0
454 449 904 0
454 598 449 0
455 35 448 0
455 248 599 0
455 599 686 0
456 36 608 0
456 251 453 0
456 608 251 0
457 259 602 0
457 602 603 0
458 254 261 0
458 300 482 0
459 460 968 0
459 696 889 0
460 258 482 0
460 459 602 0
460 482 968 0
461 256 255 0
462 461 464 0
462 463 604 0
462 604 256 0
462 605 463 0
463 264 263 0
463 601 604 0
464 334 985 0
464 461 334 0
464 505 905 0
465 605 905 0
466 268 473 0
466 955 276 0
467 266 40 0
467 267 609 0
468 690 610 0
468 770 245 0
469 208 674 0
470 119 274 0
470 274 46 0
471 677 679 0
471 689 611 0
471 1000 1001 0
472 280 288 0
472 475 280 0
472 613 727 0
472 957 613 0
473 278 879 0
473 879 955 0
474 614 693 0
474 888 998 0
475 472 727 0
475 727 979 0
476 127 694 0
476 128 46 0
476 290 128 0
477 44 284 0
478 123 615 0
478 615 694 0
479 124 44 0
480 291 297 0
480 409 556 0
480 556 291 0
481 211 897 0
481 299 483 0
481 483 8 0
483 299 964 0
484 301 485 0
484 485 729 0
486 16 880 0
486 180 16 0
486 880 933 0
487 309 697 0
488 617 697 0
489 312 907 0
489 907 410 0
490 311 620 0
491 49 622 0
491 333 49 0
491 621 140 0
491 622 492 0
492 619 205 0
492 621 491 0
492 622 311 0
494 307 538 0
495 183 321 0
495 380 183 0
495 381 182 0
496 320 534 0
497 93 435 0
497 435 626 0
497 624 322 0
497 626 731 0
500 92 952 0
500 627 501 0
501 627 731 0
502 328 699 0
503 168 215 0
503 215 950 0
503 703 705 0
504 255 236 0
504 433 628 0
504 700 750 0
504 750 334 0
505 336 905 0
505 464 985 0
505 629 967 0
505 751 629 0
506 152 633 0
506 633 816 0
507 320 496 0
507 496 6 0
509 344 508 0
509 508 342 0
510 347 881 0
510 792 529 0
511 349 57 0
511 375 966 0
512 344 630 0
512 630 631 0
513 340 149 0
513 630 145 0
514 361 519 0
514 519 987 0
514 773 361 0
515 58 868 0
515 868 884 0
516 353 632 0
516 632 635 0
516 635 636 0
516 636 819 0
517 355 518 0
518 60 360 0
519 521 885 0
520 61 718 0
521 156 965 0
521 519 361 0
523 222 909 0
523 365 524 0
524 158 948 0
524 159 523 0
525 162 58 0
525 368 162 0
525 632 526 0
526 354 154 0
526 368 525 0
527 641 330 0
528 643 734 0
529 385 959 0
531 176 397 0
531 178 176 0
531 397 975 0
532 147 20 0
532 382 901 0
532 533 379 0
532 901 533 0
534 181 646 0
534 183 908 0
534 646 496 0
535 385 792 0
535 644 820 0
536 189 648 0
536 401 389 0
537 206 390 0
537 390 861 0
538 393 539 0
538 539 494 0
538 933 821 0
539 136 318 0
539 318 494 0
539 393 651 0
540 796 394 0
542 313 546 0
543 797 827 0
543 798 840 0
544 541 824 0
544 801 846 0
544 824 847 0
544 845 541 0
545 542 546 0
545 546 698 0
545 698 803 0
545 803 848 0
546 620 698 0
547 829 822 0
548 175 397 0
548 194 992 0
549 401 400 0
549 551 401 0
549 657 551 0
550 176 389 0
550 388 176 0
550 658 737 0
551 657 753 0
552 199 949 0
552 402 553 0
552 553 882 0
553 69 198 0
553 198 882 0
554 74 838 0
554 806 834 0
554 838 849 0
555 72 659 0
555 406 961 0
555 659 837 0
556 403 291 0
556 410 403 0
557 386 412 0
557 560 564 0
557 910 559 0
558 663 565 0
558 665 392 0
559 386 557 0
559 413 387 0
559 660 413 0
560 412 421 0
560 421 563 0
561 663 562 0
561 911 940 0
561 940 565 0
561 945 911 0
562 663 662 0
563 420 573 0
563 421 420 0
563 564 560 0
564 563 662 0
565 663 561 0
565 664 569 0
566 414 570 0
567 129 292 0
567 390 416 0
569 558 565 0
569 571 665 0
569 664 571 0
569 665 558 0
570 876 665 0
571 209 566 0
571 566 570 0
571 570 665 0
572 209 587 0
572 587 588 0
573 662 563 0
573 667 914 0
574 214 596 0
574 666 941 0
574 722 666 0
575 166 528 0
575 167 668 0
575 668 903 0
575 704 167 0
576 412 411 0
576 424 421 0
576 579 424 0
576 903 579 0
577 578 944 0
577 883 902 0
578 422 715 0
578 579 944 0
578 715 716 0
579 578 716 0
580 221 963 0
581 426 580 0
581 580 963 0
581 918 898 0
582 27 84 0
582 231 87 0
582 942 229 0
584 439 671 0
584 671 758 0
585 441 788 0
585 788 811 0
586 241 892 0
586 438 241 0
586 441 672 0
587 209 568 0
588 77 572 0
588 445 812 0
588 587 445 0
589 246 770 0
589 720 812 0
589 770 927 0
589 812 813 0
590 445 676 0
590 675 894 0
591 244 887 0
591 913 1004 0
592 249 679 0
593 249 592 0
593 452 904 0
593 592 923 0
595 574 682 0
595 683 594 0
596 214 419 0
596 682 574 0
596 724 919 0
597 448 971 0
597 971 684 0
598 454 251 0
598 606 607 0
599 248 247 0
600 262 258 0
601 463 263 0
602 459 603 0
603 771 457 0
604 600 256 0
604 601 262 0
605 462 464 0
605 464 905 0
605 465 38 0
606 598 251 0
607 33 954 0
607 109 265 0
608 36 110 0
608 606 251 0
609 109 467 0
609 268 265 0
610 98 468 0
610 289 272 0
610 613 289 0
610 690 613 0
612 888 979 0
612 979 999 0
613 690 727 0
614 281 692 0
614 692 693 0
615 287 694 0
615 477 287 0
616 65 19 0
616 646 181 0
616 697 617 0
617 488 134 0
618 309 306 0
618 488 697 0
618 493 488 0
619 490 312 0
620 395 698 0
620 546 490 0
621 76 22 0
624 497 731 0
625 322 624 0
625 323 324 0
625 324 322 0
625 624 699 0
626 501 731 0
627 500 327 0
627 502 699 0
627 699 731 0
628 669 984 0
629 30 967 0
630 344 145 0
630 513 631 0
632 353 639 0
632 515 635 0
632 525 515 0
632 639 526 0
633 516 819 0
633 634 816 0
634 633 819 0
634 814 816 0
635 515 884 0
636 635 884 0
636 817 818 0
636 818 819 0
637 638 702 0
637 702 80 0
638 364 702 0
638 637 885 0
641 527 735 0
642 371 704 0
642 704 734 0
642 734 735 0
643 166 168 0
643 503 705 0
643 705 734 0
644 510 966 0
644 535 792 0
645 67 875 0
645 185 186 0
645 384 647 0
646 64 496 0
647 79 530 0
647 384 983 0
647 530 173 0
649 395 317 0
649 651 895 0
650 652 823 0
650 822 829 0
650 829 856 0
651 136 539 0
652 650 835 0
652 824 541 0
653 825 826 0
653 826 827 0
653 827 828 0
653 828 847 0
654 707 831 0
654 830 854 0
655 708 736 0
655 736 1003 0
655 853 937 0
656 657 833 0
656 707 836 0
656 833 934 0
657 549 833 0
657 656 752 0
658 389 401 0
658 401 551 0
658 550 389 0
658 551 753 0
660 910 996 0
661 392 910 0
661 564 662 0
662 573 562 0
662 663 661 0
663 558 661 0
664 568 571 0
664 756 568 0
666 667 714 0
666 739 667 0
667 573 714 0
667 739 945 0
668 167 886 0
668 886 912 0
668 944 903 0
669 432 984 0
669 433 670 0
669 719 432 0
670 584 758 0
670 754 669 0
671 438 586 0
671 672 758 0
672 441 585 0
672 671 586 0
673 712 920 0
673 741 891 0
673 759 741 0
674 208 77 0
674 588 720 0
674 927 469 0
675 676 742 0
675 759 988 0
676 445 740 0
676 675 590 0
676 756 742 0
677 471 611 0
677 591 721 0
677 611 446 0
678 450 747 0
678 683 726 0
678 684 450 0
678 747 594 0
679 677 721 0
680 452 923 0
680 684 971 0
680 745 450 0
680 923 745 0
681 915 921 0
681 921 748 0
682 596 919 0
683 595 682 0
683 678 594 0
683 725 726 0
684 678 726 0
684 680 450 0
684 726 597 0
685 686 599 0
686 103 456 0
686 254 103 0
686 453 455 0
686 456 453 0
687 485 130 0
688 689 1002 0
689 471 1001 0
689 691 1002 0
690 468 688 0
691 612 728 0
691 689 1001 0
691 728 1002 0
692 281 280 0
693 475 979 0
693 692 475 0
694 127 45 0
695 129 295 0
696 459 968 0
696 483 964 0
697 616 487 0
698 649 803 0
699 624 731 0
700 504 628 0
700 628 984 0
700 732 924 0
700 924 750 0
701 97 859 0
701 243 335 0
701 760 97 0
702 777 80 0
703 15 329 0
703 78 15 0
703 641 705 0
704 528 734 0
704 575 528 0
705 641 735 0
706 408 826 0
706 825 835 0
706 835 995 0
707 654 836 0
707 934 832 0
708 194 548 0
708 737 757 0
709 710 834 0
709 890 738 0
710 404 807 0
710 807 834 0
711 738 890 0
712 673 891 0
712 891 940 0
712 917 920 0
714 420 716 0
714 715 941 0
715 214 941 0
715 714 716 0
717 331 997 0
717 718 922 0
717 918 994 0
718 61 922 0
718 425 520 0
718 717 994 0
719 440 432 0
719 669 754 0
719 754 755 0
720 588 812 0
721 591 1004 0
721 592 679 0
721 923 592 0
722 574 595 0
722 723 739 0
722 746 723 0
724 419 877 0
724 877 897 0
725 597 726 0
725 682 919 0
725 683 682 0
727 690 728 0
727 728 999 0
728 612 999 0
728 688 1002 0
728 690 688 0
729 48 484 0
729 299 48 0
729 485 687 0
729 687 889 0
730 321 623 0
730 379 533 0
730 381 495 0
732 984 432 0
733 30 629 0
733 629 751 0
733 751 760 0
734 705 735 0
735 137 642 0
736 708 757 0
736 752 836 0
736 836 1003 0
737 388 550 0
737 658 753 0
737 708 548 0
737 753 757 0
738 405 710 0
738 710 709 0
738 711 405 0
739 666 722 0
739 713 917 0
739 723 713 0
739 917 945 0
740 445 587 0
740 587 568 0
741 675 742 0
741 742 891 0
742 743 891 0
743 664 565 0
745 721 1004 0
745 923 721 0
746 594 748 0
746 595 594 0
746 722 595 0
746 748 921 0
747 250 451 0
747 451 748 0
748 594 747 0
749 211 248 0
749 248 597 0
749 597 725 0
749 724 211 0
749 919 724 0
750 751 985 0
751 505 985 0
751 750 924 0
752 656 836 0
752 736 757 0
752 753 657 0
752 757 753 0
754 670 758 0
755 672 585 0
755 754 758 0
755 810 719 0
756 664 743 0
756 676 740 0
756 740 568 0
756 743 742 0
758 672 755 0
759 443 988 0
759 673 744 0
759 675 741 0
760 701 733 0
760 751 924 0
761 18 134 0
761 134 131 0
762 23 75 0
763 244 925 0
763 443 982 0
763 887 244 0
764 857 2 0
765 80 841 0
766 16 972 0
766 193 880 0
766 782 193 0
767 21 844 0
767 195 949 0
768 882 72 0
768 961 199 0
769 234 242 0
769 242 811 0
770 468 98 0
771 603 130 0
772 142 814 0
772 341 142 0
772 814 850 0
772 850 939 0
773 151 775 0
773 774 851 0
774 352 851 0
774 773 514 0
775 361 773 0
776 219 169 0
776 946 372 0
777 373 936 0
778 374 780 0
778 376 820 0
778 820 932 0
781 796 845 0
782 398 843 0
782 766 377 0
783 70 843 0
783 547 804 0
783 937 547 0
784 767 844 0
784 832 947 0
784 844 785 0
784 947 195 0
785 830 831 0
785 831 832 0
785 832 784 0
785 844 986 0
786 400 71 0
786 833 549 0
787 74 807 0
787 403 907 0
788 769 811 0
789 301 952 0
790 339 939 0
790 774 13 0
790 850 352 0
791 779 929 0
791 820 779 0
792 510 644 0
793 540 794 0
793 970 540 0
794 821 933 0
795 541 796 0
795 823 541 0
795 852 823 0
796 540 795 0
796 781 394 0
797 396 828 0
797 543 806 0
797 806 849 0
798 201 840 0
798 407 201 0
798 543 799 0
799 543 827 0
800 781 845 0
800 803 895 0
801 396 802 0
801 544 847 0
801 802 848 0
802 396 838 0
802 542 545 0
802 545 848 0
803 649 895 0
803 846 848 0
804 547 822 0
804 822 852 0
804 852 970 0
805 196 402 0
806 543 840 0
806 554 849 0
807 554 834 0
808 372 221 0
808 580 809 0
809 220 951 0
809 580 931 0
810 585 811 0
810 755 585 0
811 990 810 0
812 590 813 0
813 590 894 0
814 142 816 0
814 634 815 0
814 815 850 0
815 352 850 0
815 634 819 0
817 151 851 0
817 636 884 0
818 815 819 0
818 817 851 0
820 644 932 0
820 791 535 0
821 394 969 0
823 652 541 0
823 822 650 0
823 852 822 0
824 652 825 0
824 825 847 0
825 652 835 0
825 653 847 0
825 706 826 0
826 799 827 0
827 797 828 0
828 801 847 0
829 547 853 0
829 853 935 0
829 854 856 0
830 654 831 0
830 785 986 0
830 986 991 0
832 831 707 0
833 786 805 0
833 805 947 0
834 806 840 0
835 650 856 0
835 856 995 0
836 654 935 0
837 201 406 0
837 406 555 0
837 659 890 0
838 396 849 0
838 542 802 0
839 346 339 0
839 514 987 0
840 709 834 0
841 777 936 0
842 841 936 0
842 926 63 0
843 70 782 0
844 21 973 0
844 973 986 0
845 796 541 0
845 846 800 0
846 801 848 0
846 803 800 0
846 845 544 0
850 790 939 0
853 547 937 0
853 655 1003 0
854 830 855 0
854 855 856 0
854 935 654 0
855 830 991 0
856 855 995 0
857 332 53 0
857 764 332 0
858 94 31 0
858 164 94 0
859 97 896 0
859 243 701 0
860 66 900 0
860 177 874 0
860 874 972 0
861 292 197 0
861 390 567 0
861 567 292 0
862 88 989 0
863 97 442 0
864 105 259 0
865 115 269 0
865 278 115 0
865 279 474 0
865 474 998 0
866 285 208 0
867 884 868 0
869 363 870 0
869 870 366 0
870 26 366 0
871 372 946 0
871 930 872 0
872 936 373 0
873 194 398 0
873 874 378 0
874 377 972 0
874 873 377 0
876 570 206 0
877 210 897 0
878 218 427 0
878 872 373 0
879 120 955 0
879 888 612 0
880 794 933 0
881 349 511 0
881 966 510 0
882 197 72 0
882 768 552 0
883 298 418 0
883 418 902 0
883 577 912 0
884 867 817 0
885 962 638 0
885 987 519 0
886 370 369 0
887 763 982 0
888 278 998 0
888 474 693 0
888 693 979 0
888 879 278 0
889 603 459 0
889 687 603 0
889 964 729 0
890 293 711 0
890 709 837 0
891 743 940 0
892 239 435 0
893 448 35 0
894 675 988 0
894 988 925 0
895 651 393 0
895 781 800 0
895 969 781 0
896 97 863 0
896 863 89 0
899 523 909 0
901 178 531 0
902 419 422 0
903 576 423 0
903 944 579 0
904 35 454 0
908 310 181 0
909 222 86 0
909 522 899 0
910 392 996 0
910 557 564 0
910 564 661 0
910 660 559 0
912 369 883 0
912 577 944 0
912 886 369 0
913 451 250 0
913 591 887 0
913 745 1004 0
913 887 982 0
914 561 562 0
914 562 573 0
914 667 945 0
915 673 920 0
915 681 744 0
915 744 673 0
915 920 921 0
917 712 911 0
917 713 920 0
918 218 994 0
918 581 218 0
918 717 997 0
919 749 725 0
920 713 921 0
921 713 723 0
921 723 746 0
922 365 899 0
922 899 429 0
924 442 760 0
924 732 442 0
925 244 953 0
926 779 63 0
926 929 779 0
927 674 720 0
927 720 589 0
928 339 146 0
928 772 939 0
928 939 339 0
930 871 946 0
930 936 872 0
930 946 842 0
931 426 950 0
931 950 220 0
932 966 375 0
933 307 486 0
934 707 656 0
934 833 947 0
934 947 832 0
935 853 1003 0
935 854 829 0
935 1003 836 0
936 930 842 0
937 783 399 0
938 381 533 0
938 531 975 0
938 533 901 0
938 901 531 0
940 743 565 0
940 911 712 0
941 666 714 0
942 582 84 0
942 859 229 0
943 364 520 0
943 520 425 0
944 668 912 0
945 561 914 0
945 917 911 0
946 776 929 0
946 926 842 0
946 929 926 0
947 805 195 0
948 158 958 0
949 402 552 0
950 426 78 0
951 220 983 0
951 384 959 0
954 598 607 0
954 956 249 0
955 466 473 0
957 472 288 0
958 362 962 0
958 962 965 0
959 384 186 0
960 951 959 0
960 959 385 0
961 406 976 0
961 768 555 0
962 521 965 0
962 885 521 0
964 889 696 0
966 881 511 0
966 932 644 0
968 300 696 0
970 795 540 0
970 852 795 0
971 448 893 0
971 893 452 0
973 21 976 0
973 976 981 0
974 553 402 0
975 182 938 0
976 407 981 0
977 440 990 0
978 855 991 0
978 995 855 0
979 727 999 0
981 978 991 0
981 991 973 0
982 443 681 0
982 451 913 0
984 732 700 0
986 973 991 0
987 217 839 0
987 885 637 0
988 763 925 0
990 811 242 0
992 378 175 0
994 425 718 0
995 978 706 0
996 392 876 0
996 993 660 0
1000 277 1001 0
1000 471 679 0
1000 956 277 0
1007 282 5 0

End
