MeshVersionFormatted 1

Dimension
2

Vertices
156
0.0 0.0 1
0.5 0.0 1
0.5 0.5 1
0.0 0.5 1
0.25 0.0 1
0.5 0.25 1
0.25 0.5 1
0.09878048189936765 0.23434034856667926 0
0.0 0.25 1
0.125 0.5 1
0.3375072599339946 0.3360621124030905 0
0.2882541581624453 0.2248965866747988 0
0.3320261842313375 0.26405368886851366 0
0.5 0.125 1
0.4367638724664431 0.2215977621925843 0
0.30299358069367427 0.15671355641458581 0
0.375 0.0 1
0.3125 0.0 1
0.33646868135541586 0.0479299667825824 0
0.2505474622960679 0.20908079279201755 0
0.2819651149775125 0.26662615902491493 0
0.375 0.5 1
0.1875 0.5 1
0.21970658269116472 0.4307370649667981 0
0.14990028552900697 0.4412305218817523 0
0.0625 0.5 1
0.08600337315119425 0.4429402359581062 0
0.0 0.125 1
0.12418264640497537 0.1558583796989067 0
0.049597418417728516 0.21230334998315198 0
0.0 0.1875 1
0.05584227460760067 0.2707697897798696 0
0.052014479038960136 0.15403425564453785 0
0.0625 0.0 1
0.059454084945016875 0.09203072372328908 0
0.0 0.0625 1
0.22314938593898517 0.05381045477038511 0
0.1875 0.0 1
0.28306621040881136 0.046433660135842054 0
0.15351830508333175 0.24612892834651134 0
0.5 0.0625 1
0.4375 0.0 1
0.062196374925259486 0.37452261404577514 0
0.5 0.375 1
0.5 0.3125 1
0.44329016828335277 0.2868691014220789 0
0.44669067045231403 0.4199606510073189 0
0.5 0.4375 1
0.40086381409378313 0.4457008994095622 0
0.30188576748633356 0.43215787106215553 0
0.4375 0.5 1
0.0 0.4375 1
0.24677898138813728 0.24790010345181338 0
0.36013511958794414 0.306337325048546 0
0.3735411323868382 0.21657753753567183 0
0.36869343085014195 0.1788014837877245 0
0.40120002460365234 0.17734123655050835 0
0.446770236995545 0.15770400406918234 0
0.3304369238536139 0.21600727053856034 0
0.3294288457613727 0.16691960703671574 0
0.27925101074462033 0.1839517733561186 0
0.2950847568007672 0.1254851066075666 0
0.30895156251052563 0.09386686726242752 0
0.24446575169076293 0.17249513547299877 0
0.18869642815757534 0.22319548909251255 0
0.12244552799369936 0.32299592995114457 0
0.17901489215380673 0.3137824657931804 0
0.21635437884544745 0.37745014219746553 0
0.16632009956813631 0.05331080729721201 0
0.40417352633646325 0.1378020984213546 0
0.07834048239315722 0.320596505026995 0
0.38778156900583416 0.2701459586103297 0
0.3703808407847056 0.39169250153051566 0
0.3436036816203233 0.1891826800680685 0
0.18604354775140475 0.17567788498409834 0
0.20220008214445429 0.19799013468922216 0
0.1120456437631974 0.2795945415553105 0
0.23492324638316217 0.13525648342364074 0
0.21712190875112822 0.1578594138927505 0
0.17378222649205216 0.1475327564009075 0
0.1701949582823136 0.20349349340371845 0
0.19119489711272433 0.0851449632172762 0
0.18179664280002195 0.11930811688368613 0
0.0 0.3125 1
0.232417120812391 0.34113801325444226 0
0.4384490644974181 0.35301598699190906 0
0.27726328011635726 0.3394377763953363 0
0.3051136766158623 0.3723004401068761 0
0.260411714361743 0.3829555905170652 0
0.33335743297645104 0.312384520062478 0
0.3694844574987772 0.3316678312818007 0
0.398595264194054 0.3174969575085342 0
0.3136024678250671 0.18863995986641544 0
0.26847986878425734 0.14694331836888602 0
0.26520399172327197 0.09760286170371231 0
0.31674936213990706 0.1325977386187292 0
0.4375112322272092 0.09262216511101411 0
0.38901662622569205 0.10470422954366583 0
0.346103230628928 0.13125841324578083 0
0.2541671238037751 0.29760432589151925 0
0.22248333895420008 0.2789232018205007 0
0.33930057438073574 0.35830738513580923 0
0.35216652385573105 0.09067308346664132 0
0.2031961240893308 0.25322607311376244 0
0.13847725229016583 0.13063435217589242 0
0.15017501592674815 0.09665962377018877 0
0.10198458926943493 0.3500259454420169 0
0.12082686568267517 0.3918563614888798 0
0.18686409573864587 0.28251003288620696 0
0.21070583298243584 0.17546298851543135 0
0.21968492533565778 0.2216797190796318 0
0.20536926056205523 0.1351763433004243 0
0.39453091099634807 0.35087441405441094 0
0.34373685248535313 0.39713723944789114 0
0.11323932973478075 0.1096074577791488 0
0.08753146885754873 0.1830143429218828 0
0.3795170136238722 0.13309072239193584 0
0.3532006952777183 0.16359054852301677 0
0.39849145893882937 0.3844190261595164 0
0.3676016512357825 0.35140772120861696 0
0.11366073572916144 0.054521942400405386 0
0.37831456183314205 0.1560937473400172 0
0.30099156489027185 0.30175859031960106 0
0.31565383276843545 0.3346908948071238 0
0.14110449004228917 0.35574166511810923 0
0.35837364277564 0.14112843819899873 0
0.34096952937565184 0.14661078316137838 0
0.125 0.0 1
0.5 0.1875 1
0.3322783176443831 0.11743107343286512 0
0.3859112641992918 0.0558627302020898 0
0.35910594083401515 0.11808905677946523 0
0.19896769670429004 0.15539747762729939 0
0.19299817127698887 0.3449135199195385 0
0.2099873812298341 0.3100648001806606 0
0.13503927332853927 0.19810177660878667 0
0.14977458865061757 0.29750066466284586 0
0.17464325514597814 0.3845715785594864 0
0.36200802821363304 0.4376594703877206 0
0.34967529233275174 0.3247124794725613 0
0.1591459823290754 0.33085788515795567 0
0.37376360107199513 0.41120010633968385 0
0.21752532008375927 0.1055420794092331 0
0.156747993360674 0.1720616983997521 0
0.1510091084552199 0.14235533244655382 0
0.22433574880975732 0.19359530255043403 0
0.3292888952105005 0.13647753091618547 0
0.09007177223811733 0.1376784698412747 0
0.37992992707348444 0.37201787118458157 0
0.35345433006560156 0.341183572741465 0
0.362845628899367 0.3745252486470041 0
0.31346341235882513 0.11572340913679954 0
0.3248001312031694 0.1484820035440764 0
0.16888695074546123 0.35456622002833943 0
0.15894919679681388 0.1295381115272951 0
0.0 0.375 1

Edges
31
1 34 1
1 36 1
2 41 1
2 42 1
3 48 1
3 51 1
4 26 1
4 52 1
5 18 1
5 38 1
6 45 1
6 129 1
7 22 1
7 23 1
9 31 1
9 84 1
10 23 1
10 26 1
14 41 1
14 129 1
17 18 1
17 42 1
22 51 1
28 31 1
28 36 1
34 128 1
38 128 1
44 45 1
44 48 1
52 156 1
84 156 1

Triangles
279
3 51 48 0
5 18 39 0
5 39 37 0
7 23 24 0
7 24 50 0
8 40 77 0
8 116 136 0
10 26 27 0
11 90 140 0
11 140 150 0
12 20 61 0
12 21 53 0
13 59 55 0
13 123 21 0
14 97 41 0
15 46 72 0
15 55 57 0
15 57 58 0
15 129 6 0
16 94 62 0
16 96 153 0
17 131 19 0
18 17 19 0
18 19 39 0
19 103 63 0
20 12 53 0
20 64 61 0
20 111 146 0
21 12 13 0
22 7 50 0
22 50 139 0
23 10 25 0
24 23 25 0
24 89 50 0
25 10 27 0
25 27 108 0
25 108 138 0
26 52 27 0
27 43 108 0
29 136 116 0
29 144 136 0
29 145 144 0
30 8 32 0
30 31 33 0
30 33 116 0
31 28 33 0
31 30 9 0
32 8 77 0
32 9 30 0
33 28 35 0
33 35 148 0
34 36 1 0
35 34 121 0
35 115 148 0
35 121 115 0
36 34 35 0
36 35 28 0
37 38 5 0
37 95 143 0
38 37 69 0
39 19 63 0
39 63 95 0
39 95 37 0
40 65 104 0
40 81 65 0
40 136 81 0
40 137 77 0
42 2 41 0
43 107 108 0
43 156 84 0
45 46 6 0
46 15 6 0
47 48 51 0
47 86 44 0
48 47 44 0
49 22 139 0
49 119 47 0
49 139 142 0
50 88 114 0
50 114 139 0
51 22 49 0
51 49 47 0
52 26 4 0
52 43 27 0
53 21 100 0
53 100 101 0
54 13 72 0
54 72 92 0
54 140 90 0
55 72 13 0
55 74 56 0
56 57 55 0
58 97 14 0
59 13 12 0
60 16 153 0
60 74 93 0
62 63 152 0
62 94 95 0
62 95 63 0
62 96 16 0
63 103 130 0
63 130 152 0
64 20 146 0
64 94 61 0
65 76 111 0
66 77 137 0
66 107 71 0
66 125 107 0
66 141 125 0
67 109 135 0
67 134 141 0
67 141 137 0
68 24 138 0
68 85 89 0
68 134 85 0
69 37 82 0
70 58 57 0
70 98 97 0
70 117 98 0
71 77 66 0
71 84 32 0
72 46 92 0
72 55 15 0
73 114 151 0
74 55 59 0
74 59 93 0
74 60 118 0
74 118 56 0
75 76 81 0
75 80 133 0
75 81 144 0
76 65 81 0
76 75 110 0
76 110 146 0
77 71 32 0
78 94 64 0
79 78 64 0
79 112 78 0
80 75 144 0
80 112 133 0
80 144 145 0
80 145 155 0
82 37 143 0
82 106 69 0
83 80 155 0
83 82 143 0
83 106 82 0
83 112 80 0
84 9 32 0
84 71 43 0
85 134 135 0
86 45 44 0
86 46 45 0
86 47 119 0
86 92 46 0
87 88 89 0
87 123 124 0
88 50 89 0
88 124 102 0
89 24 68 0
89 85 87 0
90 13 54 0
90 123 13 0
91 54 92 0
91 113 120 0
91 120 150 0
92 86 113 0
93 12 61 0
93 16 60 0
93 59 12 0
93 61 16 0
94 16 61 0
94 78 95 0
95 78 143 0
96 62 152 0
96 130 147 0
97 42 41 0
97 58 70 0
97 98 131 0
97 131 42 0
99 127 147 0
100 21 123 0
100 87 85 0
100 135 101 0
101 104 53 0
101 109 104 0
102 11 150 0
102 120 151 0
102 124 11 0
103 19 131 0
103 131 98 0
103 132 130 0
104 109 40 0
105 145 29 0
106 115 121 0
106 121 69 0
106 155 105 0
107 43 71 0
107 125 108 0
108 125 138 0
109 101 135 0
110 64 146 0
110 79 64 0
110 133 79 0
111 20 53 0
111 53 104 0
111 76 146 0
111 104 65 0
113 86 119 0
113 91 92 0
114 73 142 0
114 88 102 0
114 102 151 0
115 29 148 0
115 105 29 0
115 106 105 0
116 8 30 0
116 33 148 0
116 148 29 0
117 70 122 0
117 132 98 0
118 60 127 0
118 126 122 0
119 142 73 0
119 149 113 0
120 102 150 0
120 113 149 0
120 149 151 0
122 56 118 0
122 57 56 0
122 70 57 0
123 87 100 0
124 88 87 0
124 90 11 0
124 123 90 0
125 141 154 0
126 117 122 0
126 127 99 0
126 132 117 0
127 60 153 0
127 126 118 0
128 38 69 0
128 69 121 0
128 121 34 0
129 15 58 0
129 58 14 0
130 96 152 0
130 99 147 0
131 17 42 0
132 99 130 0
132 103 98 0
132 126 99 0
133 110 75 0
133 112 79 0
134 138 154 0
135 100 85 0
135 134 67 0
136 40 8 0
137 40 109 0
137 109 67 0
137 141 66 0
138 24 25 0
138 125 154 0
138 134 68 0
139 114 142 0
140 54 91 0
140 91 150 0
141 134 154 0
142 119 49 0
143 78 112 0
143 112 83 0
144 81 136 0
145 105 155 0
147 153 96 0
149 73 151 0
149 119 73 0
153 147 127 0
155 106 83 0
156 43 52 0

End
