MeshVersionFormatted 1

Dimension
2

Vertices
1012
0.0 0.0 1
0.5 0.0 1
0.5 0.5 1
0.0 0.5 1
0.25 0.0 1
0.5 0.25 1
0.25 0.5 1
0.0 0.375 1
0.125 0.5 1
0.3687755225443179 0.36856061004228663 0
0.27122871213875466 0.24428830979921815 0
0.1840159659320308 0.2826569664162861 0
0.3404664288863801 0.21996196746948635 0
0.5 0.125 1
0.5 0.1875 1
0.4283440923924087 0.19309597269377168 0
0.2507105489535334 0.12482770142264386 0
0.28059410514207317 0.1834833502597335 0
0.375 0.0 1
0.23577002690947707 0.17115769962223468 0
0.125 0.0 1
0.28380229830160486 0.3077827813285324 0
0.375 0.5 1
0.3125 0.5 1
0.1875 0.5 1
0.20771439914572964 0.450223558101246 0
0.09481184283284665 0.36671854422227246 0
0.0625 0.5 1
0.0 0.125 1
0.09351355790073705 0.30204178849650637 0
0.034667952831483516 0.31981105321743813 0
0.0625 0.0 1
0.0 0.0625 1
0.12637653197062762 0.06486828166848407 0
0.09156380271101192 0.03330782539498709 0
0.1875 0.0 1
0.3037708238093984 0.08698766805168676 0
0.5 0.0625 1
0.4375 0.0 1
0.5 0.375 1
0.5 0.3125 1
0.3880738545337175 0.32506189610041386 0
0.5 0.4375 1
0.364693956252812 0.44250510615475885 0
0.4375 0.5 1
0.0 0.4375 1
0.2328244855050014 0.260717018071486 0
0.3509331253945166 0.3330022198809866 0
0.35758830867882324 0.22909584383800133 0
0.5 0.21808555724428252 1
0.5 0.1611932150835233 1
0.3416616253979822 0.2414348768002057 0
0.40544154531578863 0.2862191408384185 0
0.31068586817747745 0.199625697936808 0
0.2726190645570682 0.16008305933563619 0
0.35727475255514524 0.15369556834647904 0
0.29655167141906075 0.16783470811766737 0
0.3510055016906389 0.12696599840740375 0
0.3796526440625794 0.09624485778060236 0
0.2671007885603303 0.1926242396891394 0
0.25083849591327884 0.143056608019969 0
0.1563051780870336 0.25471793853462127 0
0.2801283052196236 0.26104210319758336 0
0.34744041622517174 0.35870380923979317 0
0.31627685919994913 0.32757703728310295 0
0.2858618889269215 0.4624758301849667 0
0.33964204024501893 0.5 1
0.1569250760576596 0.5 1
0.2228266003358115 0.5 1
0.10862052983933179 0.36174693529489205 0
0.16122735533073201 0.3519260254266736 0
0.04313417197883985 0.4590881139626454 0
0.09028543946327146 0.5 1
0.07875206899570722 0.4692594704194879 0
0.14194498196245917 0.17063585922546456 0
0.0758578991680074 0.20983839018698083 0
0.0 0.15701951620133373 1
0.0 0.21959874632160992 1
0.06545167116192657 0.23130078911095142 0
0.03912205418624068 0.2486660261390702 0
0.07436229675829684 0.25781870245550914 0
0.07978117334163902 0.3338554426587458 0
0.11473560932810953 0.30639188196456846 0
0.08082139247883634 0.2853973130457756 0
0.049040551389482955 0.2843834824523558 0
0.06022773542110034 0.33917326172468404 0
0.03019482256164605 0.1438358542756508 0
0.04586656412974915 0.21214085849999634 0
0.044653409491679286 0.04165095383210379 0
0.0 0.09164962021269481 1
0.1399416682362313 0.07700961071240862 0
0.26467098361482333 0.04182103483460698 0
0.15526970934741102 0.0 1
0.1490591786830949 0.05844529721185456 0
0.3441158309175248 0.0 1
0.28020082112264305 0.0 1
0.27447236264335795 0.10315860422858672 0
0.3116050092520434 0.09951664557441521 0
0.1206878154971541 0.25342120203729335 0
0.43635951076247326 0.15073825315368392 0
0.4727550788820284 0.10942390740589387 0
0.5 0.0890579241532706 1
0.4066216036724774 0.0 1
0.40144978975006074 0.06752262084461343 0
0.40240796667083273 0.3575191387984491 0
0.37783035983991115 0.34805346013179067 0
0.5 0.46978637887020225 1
0.5 0.4058217057804553 1
0.4036128652152186 0.4425770536505525 0
0.3574765664536378 0.4251748186650956 0
0.34351292104280656 0.4428646538909272 0
0.4051753653376662 0.5 1
0.4716962875901069 0.5 1
0.04103972940260807 0.4115494520940932 0
0.3586637379190927 0.35721413215714565 0
0.37784076803474537 0.3307223387869176 0
0.3017778121049773 0.2787274565486232 0
0.2894024026003692 0.24591826264096353 0
0.3709291156606701 0.18985699334139286 0
0.37106941440622015 0.21587493031143085 0
0.43178339221678524 0.26281629102672593 0
0.39604268988562374 0.17948686178134127 0
0.392756118362527 0.21727161886582008 0
0.4102913047666079 0.20359152581311965 0
0.3628251280889349 0.2532513844411844 0
0.2814181375466053 0.22793212924868264 0
0.30109065995188095 0.23009939624074502 0
0.3110075058456583 0.21633688744616514 0
0.29523570471522054 0.190044448399872 0
0.32488812130630684 0.2103336471633663 0
0.26381582582128404 0.14905383241086237 0
0.25450116873211226 0.16204024047308216 0
0.27955571079968267 0.17187150578773758 0
0.33884239848305003 0.14455640808258122 0
0.29018877589894876 0.17545229126438627 0
0.3086229161480026 0.18483741134733853 0
0.309143463043048 0.15332289991196488 0
0.2860369468120868 0.16487328538740884 0
0.264634387523845 0.13512731505672285 0
0.27517062008719984 0.14469007752318783 0
0.3016898124984143 0.13285268311101397 0
0.3472269734536075 0.1434668544988009 0
0.25081600245834773 0.24679726031612736 0
0.26158107593520313 0.2268227895897942 0
0.27226868948730404 0.21001176794750637 0
0.281576834713315 0.19689496216252797 0
0.25142485895464256 0.18272303851933416 0
0.23524519767680405 0.11560435256092562 0
0.23634331982865686 0.13425336006121086 0
0.1688822871717478 0.24315253961632446 0
0.15230532303397856 0.2416183704343965 0
0.18563807458859793 0.2551830003798316 0
0.22613963259655984 0.21431794887944908 0
0.28261537087101846 0.28860942518776883 0
0.28582611968205296 0.2761967682552171 0
0.3486873241492981 0.34552805159318656 0
0.27221213268051253 0.3339417788661998 0
0.3099161729732818 0.31215609710126585 0
0.3210235336490926 0.3404864804317643 0
0.2362818450252761 0.4569053934638407 0
0.3601371841582809 0.46792031425223696 0
0.2382279958966916 0.4102187357865549 0
0.11772529809582309 0.3718326721221615 0
0.12479135348494799 0.3402535884629412 0
0.1082713410397135 0.34792043339022916 0
0.18531789527928363 0.2987230642920539 0
0.16923295800436516 0.36135556548683945 0
0.16556086402127096 0.1594640772057017 0
0.14705201177166483 0.15161209668250591 0
0.15334842718472283 0.165069257905472 0
0.14950700140291037 0.18081254252676435 0
0.09600536993398097 0.3396060341860496 0
0.10710755213822452 0.33789072791134345 0
0.10306053058819352 0.3308388855020964 0
0.12465720849971962 0.316660296945441 0
0.11240255253479112 0.27111894560750416 0
0.10078241520040174 0.28612580547014027 0
0.10788242708484883 0.2979314144862929 0
0.12083438897778544 0.2993461854914023 0
0.03272758062736051 0.3540300584685565 0
0.07009508968422085 0.3126189310725113 0
0.06449748723379192 0.18596638507425553 0
0.06050776581017296 0.10294011848314527 0
0.03493277731143183 0.07837923207940843 0
0.16260090389506485 0.09054261804218516 0
0.13118431376125142 0.035553598222410776 0
0.09391398156538677 0.10560592050461276 0
0.12404870450720824 0.08104492774375226 0
0.2519152610333587 0.10409117106602725 0
0.2375161657058374 0.07358613022816995 0
0.22247569643613752 0.038170716561475436 0
0.26808103122904214 0.07928263681097975 0
0.2671846211937342 0.11973898203582682 0
0.2828776060714882 0.11898217974872458 0
0.295461954247254 0.1050382231727567 0
0.3208778841100364 0.1090603041607961 0
0.17395057978156478 0.3038670600947035 0
0.15516682748660643 0.306439721711632 0
0.42259037020466794 0.1601110841105663 0
0.428165783892723 0.12832445003865067 0
0.43631417654547167 0.17078823991963996 0
0.4755142189074353 0.142225302298757 0
0.39277358039231974 0.13291132653833038 0
0.41046334714150323 0.12319880917309627 0
0.37411817019483856 0.0640954594188476 0
0.4229499964324289 0.031133912933809932 0
0.4424050323092345 0.1022669234798472 0
0.4688337358229663 0.07749737024042717 0
0.42077813010636717 0.1105586838119989 0
0.4161454820737449 0.09033339458870786 0
0.4738461771933624 0.20102199897626805 0
0.2003040875085674 0.3103838252935201 0
0.18974969877344447 0.3211223793973589 0
0.2359400841147917 0.34145976284686763 0
0.24952186685248479 0.35763092799372637 0
0.0593843320819862 0.36411359131505255 0
0.07980763065196213 0.37306500559559486 0
0.46615651224124977 0.3507438419488345 0
0.46708383025001077 0.40199369188515194 0
0.3895831167606684 0.3626470967889122 0
0.41736510545192873 0.3441317491144046 0
0.37186916256048 0.35491093176971117 0
0.38952762072671143 0.3509893782495184 0
0.37501219144167347 0.2817302457132939 0
0.3869523305854031 0.3055683703321931 0
0.4353930858055716 0.2984751444813186 0
0.4379946331714379 0.3309648920978852 0
0.3786338560197561 0.3855777446423171 0
0.4041723356165182 0.3779525636211815 0
0.4485570178166089 0.40112806289677533 0
0.39096739943221526 0.47548258181891834 0
0.3923241771492019 0.4305985250638076 0
0.36535795277310396 0.39845001853141243 0
0.3383455154143821 0.4180124550846276 0
0.32622035058170473 0.4667591543814061 0
0.0396924866635694 0.37946099052790977 0
0.2653953457062729 0.2587181768559667 0
0.2013054056161244 0.28994935126955407 0
0.2571543457945117 0.2875576866250412 0
0.3433281002688432 0.3345016161625262 0
0.32749607515833135 0.3247341431759087 0
0.33124805923548517 0.3368847995207365 0
0.3534347070809625 0.3406309511956313 0
0.35290896228731816 0.3552810925665051 0
0.36566248072615704 0.36133882336421963 0
0.3680452552039183 0.3317160270217338 0
0.29431966452618147 0.28820895897884674 0
0.3055981369368034 0.29017901954896874 0
0.29600247698596427 0.26274442246772073 0
0.37934060715677465 0.20051710971211828 0
0.37315236720706574 0.17998672960649528 0
0.3546859978998134 0.21162295920872146 0
0.39585568005484356 0.2516142970799181 0
0.3761077705127332 0.2336524245798012 0
0.4239945821137657 0.22431829732527156 0
0.40948608189264635 0.1865087262937207 0
0.3951854322050704 0.19526483275091258 0
0.4069381816292895 0.174339100964823 0
0.29321517240276496 0.21019076765233666 0
0.2677059126595281 0.17547736917238227 0
0.34494930455003187 0.15105979001075587 0
0.3007768632735676 0.17693696283250562 0
0.32441936119605047 0.14760381060560426 0
0.3023627918898442 0.16075675877061643 0
0.3147705712739167 0.14592818850794667 0
0.293572338020247 0.15930517924252827 0
0.2856576302925321 0.13922280073110896 0
0.3053431432000689 0.14354040186869585 0
0.290331986826309 0.13038838500557823 0
0.3130964428354777 0.13393339866556409 0
0.3559313334829966 0.12854207137739504 0
0.3453881792704202 0.13120213609944079 0
0.33788811011388975 0.1352499270843608 0
0.3438702217578065 0.1383213420882713 0
0.35285619420006203 0.13265548996430382 0
0.3527214967738271 0.14892219351819846 0
0.34922987236610326 0.13709164287187775 0
0.3611237568336728 0.1478104575616999 0
0.3638651665581593 0.1247304309217044 0
0.37233217969761645 0.15762316438201457 0
0.36933917599421345 0.15022196249508935 0
0.3806102593462405 0.1600936075840992 0
0.3496872540778343 0.0693049524965354 0
0.3112675596890517 0.04030932984158798 0
0.3154373919042882 0.06912924562304694 0
0.33726752107360936 0.0949676055784159 0
0.24353241675730652 0.22644025853034566 0
0.232760324529309 0.19187286414749258 0
0.2053874067386257 0.18176151930072493 0
0.21918241841613653 0.17847168060090104 0
0.20938018451941962 0.14982465025844224 0
0.18114512620071438 0.26984494102317 0
0.21581409922216896 0.2756419350925131 0
0.1965631730990931 0.27078674036847994 0
0.2138453191411302 0.19497044475053718 0
0.1906721992802055 0.23272783463181004 0
0.288728520309725 0.29866313080629575 0
0.3167202402404193 0.29502138552004964 0
0.34066488398444633 0.35459721559315077 0
0.35419355459081 0.3613134419837829 0
0.3620907332934291 0.3680468594978349 0
0.3473831396077931 0.33889492162382046 0
0.34762003059639507 0.35220322324017533 0
0.3523325438766152 0.3502211669584202 0
0.28460836531509326 0.34477576674326516 0
0.3246905074334502 0.3190261349937488 0
0.31573033043495785 0.3208953390576323 0
0.3154980102014885 0.3150250487507144 0
0.31218591804961654 0.30411808897180104 0
0.30732185529148986 0.2986820518975178 0
0.3187940755052369 0.3337191670255056 0
0.2676997763574851 0.35176957758586147 0
0.27419256704071165 0.4213562348036325 0
0.21522633131980803 0.43052372078202567 0
0.22352011071373137 0.38733807940949866 0
0.13425234900079777 0.4734192517097575 0
0.19715807547125302 0.4173228525466095 0
0.13874929827124025 0.38892395273034264 0
0.1436157273884128 0.4049652748562544 0
0.14902222416706595 0.42253080580262536 0
0.1707380837633622 0.4095371022339793 0
0.15960314628898267 0.41695982877936444 0
0.16082623067419802 0.40475838946413384 0
0.16133856629840743 0.38430645717633977 0
0.17004586116222783 0.3877737391602009 0
0.14138144657088558 0.38203754190846667 0
0.14598237716960236 0.37929497147336894 0
0.17686129742829818 0.392289519340485 0
0.1676050079479252 0.377717885930176 0
0.1738194877250748 0.37387473513181624 0
0.12958383120641645 0.39075853866772625 0
0.11353553832758762 0.3822157028624916 0
0.12952110112578116 0.33434714880239574 0
0.15000547921361607 0.3239025175543636 0
0.1649879540269884 0.3370379411691987 0
0.16791639579015727 0.3194632641540756 0
0.16192062333163215 0.3570683293899531 0
0.1689961762713457 0.368920870890142 0
0.15615355574492418 0.3477834318868446 0
0.16247281336915137 0.3636602517802237 0
0.15889860937654335 0.3758032376258613 0
0.10906904146226677 0.4734530266877813 0
0.07132023269015957 0.43644137865793275 0
0.161689410630943 0.15308402180995637 0
0.18119370489222608 0.1788807071348367 0
0.1884872369360361 0.17225370095969395 0
0.16598727816862047 0.1327990296190293 0
0.13132097408888058 0.13744039582939457 0
0.14492259946798275 0.13798342549766754 0
0.0953204483055733 0.15267191015423745 0
0.10912154371228304 0.17681591295367602 0
0.10997171875030325 0.152890678289908 0
0.11208412864746725 0.13898616280977613 0
0.10869777636451003 0.16713560654244014 0
0.15146583542467199 0.14682396389388028 0
0.1453561482723023 0.14475765105601512 0
0.15407869125476203 0.15267645908517738 0
0.13423108096606493 0.18248755241210496 0
0.12821150750306406 0.17624068559117478 0
0.13280580362233368 0.19286218033925012 0
0.15760725822656058 0.15903436241705443 0
0.149796463139264 0.15864027396307664 0
0.16130888518220182 0.16597553185404937 0
0.14508224533477598 0.16485976388296272 0
0.17322821044941683 0.17152953180671113 0
0.1637602653089894 0.1829173866993378 0
0.14955794970975092 0.17306060036125878 0
0.14190694649363703 0.1781421997481825 0
0.17299587032031655 0.18961350832321036 0
0.1712627714755411 0.17896731762586857 0
0.14426683249119082 0.1871775234979444 0
0.15391659614622547 0.18681804584382075 0
0.17917571717894418 0.20178514129134525 0
0.16854777900409082 0.20000688391176502 0
0.033744359737971574 0.17915190688186128 0
0.11246702285592411 0.23634897611291428 0
0.11534101047814961 0.3398952108533827 0
0.11804933408022275 0.32377307862172744 0
0.093948651089324 0.32153654443253404 0
0.1519063154798588 0.1191001246066472 0
0.16349424734397996 0.0328885124376978 0
0.09986296058652265 0.11645024343303588 0
0.11245024270647803 0.1197331316150078 0
0.14873739597980984 0.09344591159442366 0
0.0807058858149379 0.10086405982042167 0
0.10637482829857509 0.05672076235826721 0
0.07765541002597351 0.07382226757085308 0
0.1898308609081765 0.04406543543980314 0
0.18851044440267897 0.06772179588247967 0
0.15779393407251027 0.07704740783906486 0
0.1714376711150353 0.06060068554794339 0
0.29722885443340186 0.12164344251563022 0
0.30750271425105896 0.12604872712661358 0
0.3177714259446521 0.123523146534381 0
0.3856901103246698 0.08229104418961607 0
0.1287182262644539 0.2908632738431619 0
0.41058452893327585 0.1637880530388605 0
0.41392486286113056 0.13390720478303444 0
0.4763303125946687 0.1726853916560682 0
0.4553699436892454 0.15821610024076 0
0.3876536437156221 0.1469588065017401 0
0.3777218888958805 0.11872080005649324 0
0.38553407197388123 0.12379894829759615 0
0.39608026865179946 0.12178790407530996 0
0.3554276742394182 0.03607169340825692 0
0.459651933850288 0.040437366238969964 0
0.4047514433993329 0.10802868367413908 0
0.4651288762320818 0.27859200886678787 0
0.4638194198094337 0.23457955199409425 0
0.2005310923566894 0.33157380549432336 0
0.20063252429736242 0.3565454829787466 0
0.1756584594552265 0.35663091266461394 0
0.18647094068444403 0.35696607295185917 0
0.2278100633891476 0.3647604219406654 0
0.1842780647827002 0.31137315306199703 0
0.25599183417538346 0.3379719615352434 0
0.08061595926755435 0.3531599269884259 0
0.06313078759911979 0.38762182159919306 0
0.4606108853294195 0.3143127524014087 0
0.3816002845109329 0.36860333283529007 0
0.4360212375269863 0.3576461986203885 0
0.3641568411527492 0.3524452831332161 0
0.37415734697528247 0.3638294571932965 0
0.3812551888346413 0.35855949350799027 0
0.3981305577845559 0.33897371458530196 0
0.383949758323625 0.3384594329778447 0
0.4104276546837511 0.3187737295866807 0
0.38884504239310574 0.3726938533086079 0
0.36998464916866536 0.37515896289955886 0
0.42546500644877594 0.4187455370826945 0
0.40708112821610054 0.3696748398186756 0
0.39814398828373637 0.36959650282942585 0
0.3843610672605722 0.45054300211615383 0
0.3765159672921534 0.4301583785289338 0
0.40546314956626733 0.4264444422457915 0
0.37240581904852754 0.3912374134764546 0
0.358614595472964 0.38221878659964365 0
0.35425746785410456 0.4075542581887453 0
0.313002004450479 0.4325159011195049 0
0.32209403312379875 0.40497035248022567 0
0.32823591848781225 0.36547107307038823 0
0.31046252041533495 0.38578288249716336 0
0.22070839754492308 0.3219232928893847 0
0.2705786598824447 0.2741437916401646 0
0.2501005179375036 0.30198711196894285 0
0.33497220485838963 0.322872566239513 0
0.32798250092988 0.3074080412488346 0
0.3317955784073909 0.3309475405224984 0
0.33520547286017544 0.34130724051983113 0
0.3238776549078649 0.34786904195933954 0
0.3595021367069893 0.36318422204150375 0
0.372566389987965 0.3188589102925844 0
0.3740467591764413 0.33951050268292793 0
0.3597932268273996 0.33568937359902296 0
0.29948755198173177 0.2977550460003602 0
0.3265764445693018 0.2979222873918708 0
0.32139604913042186 0.2316920613555361 0
0.3650341622758906 0.20081347765097138 0
0.3407585931781372 0.20157913588911616 0
0.37861093339787216 0.1736878968173573 0
0.35995098246247176 0.19007175177926167 0
0.36099362466958923 0.17167843914522904 0
0.3653927037926323 0.18115095647149224 0
0.38242718031987294 0.16633395627986608 0
0.382975778095288 0.1840468857307879 0
0.38785711051817034 0.1719755293970081 0
0.41940549443703673 0.17488765117739002 0
0.350282827317351 0.2763588352703165 0
0.3371396749958919 0.3106881247374508 0
0.3042018069472659 0.16831134771416284 0
0.3261894086261419 0.1942061899946818 0
0.33193017409167913 0.1502728973546216 0
0.3180184537914352 0.15481155918203607 0
0.33017715450126095 0.14143582314371644 0
0.2870795466565988 0.15179796123096795 0
0.29515378047405205 0.14105534941699904 0
0.2988683370195802 0.15179175505053802 0
0.3225668900031239 0.13835024307391447 0
0.329768502225052 0.117678423980729 0
0.35480430122388645 0.1407694913349018 0
0.3640492104502813 0.15591616746814158 0
0.36094157074817645 0.13431929669571 0
0.33342483150955443 0.06052164477401891 0
0.348789356199621 0.09144321946131122 0
0.3338422722105495 0.10514550454769168 0
0.3673849577472614 0.11706348226556085 0
0.25045551287708817 0.20638823401074669 0
0.19296892424924658 0.18130987585263375 0
0.21705133863644782 0.11026872899826604 0
0.22272339599818855 0.1438767583447958 0
0.22026534099165287 0.16138242145916934 0
0.1871176237714684 0.14041988744234227 0
0.15452058561128776 0.27027889706947683 0
0.17031042935284088 0.2765729753001669 0
0.22900863319029038 0.23803804148231708 0
0.18492012792776988 0.21456459179008283 0
0.17341378947508732 0.22533501519139118 0
0.19836421434310303 0.19365343449719252 0
0.20222676521519128 0.21188103845134165 0
0.331103193857742 0.3473825057005755 0
0.32095942871555716 0.3102966214648255 0
0.3052689373532545 0.3360135294077834 0
0.24457633379445123 0.38179948249412393 0
0.2616631014326945 0.39501077664189604 0
0.19812816723227064 0.4388850488435998 0
0.1853093450624959 0.45254595930103847 0
0.20238369523546815 0.4692449952157927 0
0.13750868774436775 0.4494333141499384 0
0.18841934861088575 0.3800841897064187 0
0.21376272510539626 0.4074461972212101 0
0.18183580643464778 0.41475411051747235 0
0.17050881557877906 0.4234730002772393 0
0.14978092581691319 0.4107351793684501 0
0.15126051539477414 0.39969560180192026 0
0.16956353189487444 0.3985589099112267 0
0.14460958790749662 0.3950434046101389 0
0.14587840412914038 0.3863178238954258 0
0.13458163342946994 0.3986400517519928 0
0.13279304222941168 0.3828900496572095 0
0.11826849252449197 0.36234182996284753 0
0.13840499515038016 0.34964010653434724 0
0.12006088030360212 0.34801054205532617 0
0.11577586463591585 0.35517618549256613 0
0.1507253272343903 0.2955061782914481 0
0.14666029429627825 0.31396935232130074 0
0.14092753158728022 0.3214667827220373 0
0.16422695321530165 0.34591045383967944 0
0.17849211968120865 0.34756794986830697 0
0.15738684642814635 0.31768838069817923 0
0.15989467404643143 0.32896054833572497 0
0.14376122964806046 0.3300025576823299 0
0.1628318935048905 0.3708022436092981 0
0.15702399954458557 0.3680800041862916 0
0.13942070527097813 0.43311039693197834 0
0.15724582406810056 0.1465416360784057 0
0.16138360876836141 0.14034694920734428 0
0.16722569464047143 0.14048821724352611 0
0.17158294881719635 0.14528660516058634 0
0.16898080220974804 0.15220487320670412 0
0.16415003409946366 0.1464631040497525 0
0.1523566775281234 0.14042425143361448 0
0.13606422391686848 0.22136690634393721 0
0.1332830560772458 0.2368306224010721 0
0.1386988810108869 0.1404604912575249 0
0.15660547351557064 0.171279499124571 0
0.1863822075990359 0.19107478977268336 0
0.14060438323032975 0.19836417676736862 0
0.16184381990283006 0.19368472379422907 0
0.11492141497280442 0.3152396691808794 0
0.13189186184602 0.3189129389280811 0
0.143364677313881 0.30412277115778186 0
0.1273723491650096 0.26635923279917345 0
0.06077925199100203 0.1582777968908777 0
0.030131120914653677 0.11114798404646513 0
0.07197570825652394 0.14278712209071162 0
0.15929782703182624 0.10358555616472517 0
0.1367621779651486 0.10219442608482468 0
0.13885523018585502 0.12528053309200304 0
0.17208995492301554 0.11080156064612041 0
0.08632444157061028 0.11541226679283477 0
0.11750476426898905 0.13003958357433873 0
0.0991948086649706 0.14160400538128473 0
0.10800108733518458 0.07857595058806428 0
0.1757306021901693 0.0829383584499243 0
0.17166955266649822 0.0980455800750484 0
0.2912650075435379 0.0665890950144556 0
0.3084004848685033 0.11404347779788854 0
0.3276113811883075 0.13017004971940835 0
0.16970934078443778 0.26164798084223967 0
0.16239618030461073 0.2992069716820237 0
0.11591538096778847 0.2870426114983188 0
0.45071934680662123 0.12977535893086878 0
0.37514660309316417 0.13427214411470176 0
0.38854080212612124 0.13974973317060016 0
0.3888340794564119 0.10945836085349817 0
0.2139097676447902 0.34599908620816666 0
0.16743407620556644 0.35387152695001217 0
0.17603620054721406 0.36564298849570936 0
0.2087199634004785 0.37251669601512183 0
0.19265932183497556 0.3700929348037743 0
0.20664441014589813 0.39020794635717854 0
0.10568205264269954 0.37552624744324703 0
0.3747639696777112 0.3704469734233354 0
0.3898098438105162 0.39516208242467693 0
0.3949131562078369 0.37890252319860207 0
0.38583905908222593 0.38114622956846156 0
0.37772149671367145 0.3769929318096223 0
0.399276085187515 0.40451677886343157 0
0.4151575873484616 0.40881500151392713 0
0.41429389231645947 0.42099181096276694 0
0.4170658889008941 0.3636132754225235 0
0.39248899881837085 0.3884760860950804 0
0.3978257374202116 0.3963092307340493 0
0.45006883117420604 0.38112910695493446 0
0.4195329434535796 0.3879492339449085 0
0.4029204868424238 0.4596348047558277 0
0.40636027979992584 0.4151243712753554 0
0.3710519133885993 0.41152128363789087 0
0.39087877713025576 0.4009515386734844 0
0.38533050208497854 0.41721035778820875 0
0.39256687424514786 0.4100019878146995 0
0.3972696603831383 0.41837474537574193 0
0.378875956586777 0.3926313118004544 0
0.37089674968761044 0.3830028577631749 0
0.35820870302452334 0.37445977578643797 0
0.34204967294627237 0.38442255982395057 0
0.3645870729739486 0.3875670408992174 0
0.3534705974878148 0.3915241302324206 0
0.3199387076799484 0.357126428826783 0
0.3090400676631276 0.35718541166214934 0
0.31531022035915873 0.3682671415847074 0
0.3396194208412387 0.365482149869115 0
0.32350197551468346 0.3766070810676287 0
0.4532456627825873 0.41811697171768347 0
0.43765959500144497 0.42844177489952145 0
0.4540315895004947 0.44059470340101514 0
0.47370866757504765 0.45692349966471363 0
0.41674398519795425 0.4762489736441119 0
0.4348971825274909 0.4449123889951448 0
0.4207283733315044 0.4528986837446715 0
0.2719418208940574 0.30981286727423135 0
0.27150094071539577 0.28869845899375124 0
0.2166945417632874 0.2970811058180158 0
0.3371126831871533 0.29185847474539095 0
0.3303175348301858 0.31619658138251594 0
0.32629771854014394 0.3345841609486144 0
0.3420064809681902 0.34132199421703285 0
0.3284156426940261 0.3411976270380312 0
0.34454528358874564 0.3247764820982711 0
0.3582867797575411 0.32376587760048736 0
0.3604626768753251 0.3447113704039192 0
0.3653542951983698 0.3399793300420826 0
0.30796815035586483 0.24862321467001292 0
0.37514999245697506 0.1656691734971399 0
0.35388025604081474 0.19825063897928363 0
0.3666710582577728 0.16402374833300057 0
0.3489446129704212 0.18888773274111903 0
0.3173495484577212 0.18807278540189615 0
0.32845439354638395 0.16965697738710103 0
0.33829044204722203 0.15256034114459893 0
0.3120162282941228 0.16369134856212766 0
0.33821568923497924 0.1251032824958572 0
0.3676068420265636 0.13848198675881362 0
0.3623752023584121 0.1415608872821384 0
0.36710022635517026 0.09876147242332921 0
0.3676179576537412 0.08467089710763294 0
0.33935290242485955 0.11476200562170345 0
0.3506409533218454 0.11368449391687614 0
0.3243862581054138 0.0974017530327575 0
0.3314710122234454 0.0813444612159955 0
0.21518639617650545 0.08864127187033204 0
0.2015638723040089 0.10154230926973477 0
0.23650442577675734 0.15328818499384303 0
0.2056509442970082 0.16017897093674915 0
0.2109461986669718 0.1361004575881555 0
0.2206824648802451 0.12719801266799455 0
0.20231405820000004 0.11449462620220538 0
0.19924812407851583 0.15279848956783945 0
0.21213245934769157 0.22963150114701886 0
0.17037314910731693 0.21076119645863015 0
0.19027173911408263 0.2035554644991231 0
0.3023948323958712 0.31559962843064276 0
0.29553807418023964 0.3077663834297897 0
0.34343778906933936 0.34853757809056995 0
0.31561921196183196 0.34830632237148906 0
0.31113086955988334 0.3323318708777665 0
0.31028373136948834 0.3242180641512531 0
0.31347478328603917 0.3394816981611894 0
0.2967117983758909 0.3537972225476295 0
0.15932812716901504 0.4599161802014775 0
0.1609796584168555 0.39457599890767914 0
0.18408564006548583 0.3919657654210831 0
0.1779231265986612 0.4024058901800347 0
0.18877405197883937 0.40423712472237405 0
0.1510308730553432 0.4392896693750546 0
0.15256920314662428 0.3814619471513734 0
0.13333655673026368 0.40869481883409486 0
0.12926012490915756 0.3732763160790178 0
0.14165682282481848 0.3441713202470935 0
0.13557826785741314 0.34329843911547775 0
0.1346337352170099 0.35572860234518666 0
0.1453464110268342 0.3506325681338053 0
0.14458212729546524 0.36124025603901294 0
0.129087509368578 0.3487584623130937 0
0.13485219990124728 0.3281239161376734 0
0.1711483128795681 0.34210043448322536 0
0.15565702199430248 0.33956932173632526 0
0.15134117322678342 0.3320321478082497 0
0.14186518157512237 0.4125712544097698 0
0.12256799889685946 0.43456229102392363 0
0.08413805945071652 0.391547956913312 0
0.07377887327875274 0.4095953787143666 0
0.1738882718993585 0.16077029586858876 0
0.12317281932991468 0.15058025026389601 0
0.11910337979401973 0.16234961969241948 0
0.11868271565272683 0.17438706447910665 0
0.1312767931769823 0.14482595366575 0
0.1364998618647615 0.16420481009039697 0
0.14269346045517786 0.1576588778024059 0
0.16429110458618046 0.1731850143046469 0
0.1671363351733484 0.16624197474462543 0
0.1562327874437956 0.1778622036869788 0
0.13029373818200737 0.20755173600393545 0
0.14802023517784937 0.2270429126734754 0
0.12495374299067942 0.1853874050860395 0
0.12050505499235802 0.19559701684521758 0
0.09730507065409555 0.17360967250579878 0
0.10667231960121233 0.22172559050642618 0
0.09091548161113377 0.2318441788392651 0
0.12250897910437065 0.2212703881969349 0
0.12271564829938371 0.30916244422413924 0
0.13709073653235138 0.3122713389507687 0
0.08081088499122223 0.15519780316156778 0
0.10286030210880108 0.1849116146390421 0
0.07950823662037937 0.17106424840293594 0
0.08864086183161786 0.19063643488902227 0
0.06043062812788984 0.12933737046670452 0
0.07812446206160426 0.13004368643514636 0
0.14857174613769983 0.10836055453854995 0
0.13004530085567637 0.11092437610276035 0
0.13521012903173987 0.13151104937892472 0
0.1460471161352512 0.12564621419971658 0
0.16095126873799376 0.11499935316637282 0
0.15966129665476017 0.12487237137949497 0
0.18484948260923728 0.10027465509070407 0
0.286451018097999 0.08718875182251862 0
0.3899655139730196 0.030853666253930035 0
0.13548157488145807 0.28363126118311066 0
0.1296217445586117 0.3114743971235356 0
0.14030228178291546 0.256675545427248 0
0.42041966070463976 0.14479907964690536 0
0.41306872640117803 0.15348532611665813 0
0.40222348291943744 0.13277108122109785 0
0.403751594952781 0.15419381255962436 0
0.3679449348614792 0.13116689652036276 0
0.38105646262488446 0.14112828663147417 0
0.3781154597863067 0.15067782335119173 0
0.37289435582537944 0.14342613435847787 0
0.38292982200268233 0.1327692558600617 0
0.3964643934758366 0.09229126007692154 0
0.19074559988550502 0.34458878869553855 0
0.23514202672677473 0.2850035418755724 0
0.27726398828738275 0.32007590031921423 0
0.26298175224812126 0.31767521374505475 0
0.33456463675361564 0.3022228452470893 0
0.4199930135108139 0.4345127049898256 0
0.4002392556038028 0.38685435864319173 0
0.3646915591445142 0.37955384848786916 0
0.40522130253886723 0.4059954105682702 0
0.38499146240723603 0.3904366912517097 0
0.41422384162576115 0.37705533571449035 0
0.40960556995745256 0.3863287108653749 0
0.43616339032532386 0.41143486353393693 0
0.42590828735054215 0.4069850179514897 0
0.4331989062906815 0.3944958140743131 0
0.41988316205338466 0.39925066341314647 0
0.38345061759413085 0.4060042753606091 0
0.40074020373518593 0.4107886102729193 0
0.38400293539537395 0.39773108163045734 0
0.3554617908127812 0.3679424463875021 0
0.3342742896543956 0.37536894956220096 0
0.35161706293806344 0.3799903623994092 0
0.3447404036760155 0.37392477096718024 0
0.3286952180793759 0.35466995166264775 0
0.47518109779660744 0.4266446663154808 0
0.44406223557266816 0.46720223934046384 0
0.3371100099517259 0.33559615793941033 0
0.369062657633103 0.3467212478845775 0
0.37036018836818035 0.17258986304479149 0
0.35068556509400634 0.15590702501407477 0
0.3554435624911263 0.1799024328009104 0
0.3164189300038319 0.17989588789417416 0
0.3259305395579708 0.1806703260330559 0
0.3222402560595981 0.16326763730013988 0
0.3296808921041574 0.1624112534565875 0
0.3371908565815178 0.186405377167096 0
0.3666786787432255 0.14492791973746258 0
0.35906753011564935 0.09699069824058795 0
0.3463224811197025 0.12195522106789271 0
0.34465219584689444 0.10393819222788202 0
0.31825218528628096 0.08596126248342521 0
0.19628911232229626 0.0842022852036375 0
0.19819765538109296 0.16981689488771617 0
0.17349889933931223 0.1374569234424425 0
0.1932352021176715 0.14645482984906646 0
0.20924303696353116 0.25143899040949885 0
0.30394140475188286 0.30576833802692643 0
0.2881668813017544 0.33087168513666704 0
0.3056424380352676 0.34617780079840904 0
0.30511803009123845 0.327903362252853 0
0.2961001451337319 0.3407424243850013 0
0.30070904537755794 0.4065616159601275 0
0.17848794424965692 0.4773199928778038 0
0.14677424046499343 0.3379743666515608 0
0.13681947564031963 0.33752478971004735 0
0.13108143343217002 0.3640175398771787 0
0.14992093817475813 0.34513774596758157 0
0.14895519513692773 0.3569262716592963 0
0.15002724392259142 0.3651506530097114 0
0.1424058360875437 0.3561830655348815 0
0.17237349057312168 0.3311935303832563 0
0.09238472353708792 0.3793574537465162 0
0.116968594459309 0.3924945312107736 0
0.09977227346142484 0.44385935894516804 0
0.1911442739649202 0.15520700660640765 0
0.1604774026269281 0.2312094042594008 0
0.1391562469030348 0.14961298778153095 0
0.1140337978183504 0.18580732601618213 0
0.10584016554886463 0.1963424343225511 0
0.11288107354814823 0.20893422709730053 0
0.09679681991311391 0.20916086552563212 0
0.07188679754908071 0.11635942697247921 0
0.1345590019615694 0.11823902453101934 0
0.13881163234076638 0.11126461510007583 0
0.1194713346601911 0.10982864946303804 0
0.12479726009359123 0.10237082795647745 0
0.1274162737750923 0.13055378218629332 0
0.15248360269020095 0.12679676335849863 0
0.1490357401616035 0.13292552040018552 0
0.16871653143053414 0.12199301619675035 0
0.10557240320378747 0.1292310266294749 0
0.2076660273194891 0.06530765945529658 0
0.17251914482571257 0.2921538011311899 0
0.13156166995198873 0.3033261944703842 0
0.13931349083914238 0.2935222441464129 0
0.12635606427671378 0.2789032837500994 0
0.39811005683218187 0.16596337167744374 0
0.3931864581465032 0.15420216323281624 0
0.3715809757533217 0.12440835798361319 0
0.18478415129772233 0.3318660664607924 0
0.2649218343807556 0.299500712586619 0
0.3700771559208052 0.30195958932533873 0
0.35476739002955526 0.2966077304022901 0
0.364568962685867 0.37334474856284816 0
0.4066651845944748 0.3939470410359096 0
0.3760419412831844 0.3995119789765959 0
0.35184417511886257 0.37253254097602206 0
0.3287156262563633 0.38812322640056673 0
0.33991977056175937 0.39929568665189474 0
0.28325902369215544 0.3636289175153716 0
0.2841552937890143 0.38798123244928523 0
0.31588130085393795 0.281911914846559 0
0.3137824378210999 0.26634210371783434 0
0.3297279509736726 0.2736841537380662 0
0.35726093704837203 0.1620525588300216 0
0.3101669913742104 0.17383445911543915 0
0.3261845556152501 0.15592628637021655 0
0.33620521283103966 0.17472806570875193 0
0.3546949943994262 0.10506300882773677 0
0.3590838332903931 0.11554302052456453 0
0.1966736087329744 0.160685872763939 0
0.1947382708093547 0.12211322187313699 0
0.20778842243128284 0.12436902175438717 0
0.17480394344429698 0.12826781966767128 0
0.200513533128948 0.13323557715895473 0
0.17693246804847526 0.15137356929740275 0
0.29046419236515464 0.3178284133135258 0
0.3053002069054642 0.3216065731611564 0
0.29878116379199154 0.33181474370824954 0
0.16044506050207952 0.42785767974987043 0
0.19337902146762653 0.3914722646628304 0
0.1522079636947985 0.3905125841577937 0
0.13899359545990989 0.36237231103250295 0
0.155715935935946 0.36179035623749517 0
0.15122749286076947 0.35163771935243365 0
0.150208629219593 0.3731378131410618 0
0.1421293063205646 0.3750174236323304 0
0.1368006740834728 0.37666542898981054 0
0.1365934568526474 0.36989102801010415 0
0.17896513809126754 0.32139668188956055 0
0.1801383527219448 0.3399106896296612 0
0.10204062617209328 0.39002221737254167 0
0.12484439220610287 0.40118106441343926 0
0.08948882912611889 0.4230102323163712 0
0.1817360978680362 0.16743562869646936 0
0.1511175351236528 0.19701368095737412 0
0.15989365594218127 0.20500801341196023 0
0.1593602618797039 0.21823928866004896 0
0.13184133492566316 0.1245815574606311 0
0.14339514728149344 0.11817801734089878 0
0.12481954964457562 0.12071283806330844 0
0.15713778600212483 0.1333100246195038 0
0.14241246890634912 0.1317763758818029 0
0.15981592666336003 0.2864459060622928 0
0.14668829221612378 0.2838791299230988 0
0.1380893814010452 0.27308651073245965 0
0.40753615504515556 0.14336782924023359 0
0.3878917215032807 0.16225944413082666 0
0.395751667951676 0.1433763256336814 0
0.24216629559521938 0.3203575693775559 0
0.4133913544010295 0.39352860676431406 0
0.3486775366765703 0.3667087816433069 0
0.2989339490851427 0.36938003255846846 0
0.2658929553970381 0.37413691256233383 0
0.3261531967647698 0.2534264828356183 0
0.33336376764880077 0.15743534353596284 0
0.34592464171226367 0.17777183297634214 0
0.3191265978538366 0.17192843737482663 0
0.3629808433402108 0.10654148650908231 0
0.18393238108421098 0.11604501183298482 0
0.17631018189727113 0.12040712836733501 0
0.19031446779282793 0.13223143255800612 0
0.2985414269927829 0.3247860838818651 0
0.16769585617131005 0.4385508056914169 0
0.15637408577631298 0.35474918521664434 0
0.1438349192754199 0.36759393805113744 0
0.09556158999750382 0.40648099659231707 0
0.10655948697855666 0.4209303615694022 0
0.11182488773632412 0.4040469261702947 0
0.18490466762401445 0.148950130555201 0
0.18302413744985466 0.15807467284014853 0
0.13096095730081406 0.1515329117752549 0
0.14610267515353467 0.21053562023965264 0
0.09007153637516445 0.16173921490911453 0
0.4039626121856924 0.40019721573761735 0
0.34851474971905166 0.313071942251684 0
0.3356811991676405 0.1649955723177504 0
0.3520745183190465 0.17005647593914233 0
0.18959588309874642 0.1643488681313781 0
0.17943275246813506 0.14341825895505214 0
0.18338156708617923 0.43113568587929946 0
0.13495883174947607 0.4212486434250968 0
0.3846524410046697 0.1547823583133946 0
0.410514935223644 0.4002535877169569 0
0.3489274950472913 0.16284325242467346 0
0.34233850658917303 0.15895696607850102 0
0.34369881123233903 0.16827270900520183 0
0.18408394701698086 0.12609939869266612 0
0.12139801747648842 0.41557027932375523 0
0.18170282127735582 0.1351716663414499 0
0.0 0.34375 1
0.0 0.28125 1
0.08604428641146962 0.1423599630440707 0
0.09268258795225236 0.128669911470739 0
0.10586403557018746 0.3106555255099751 0
0.10776902780975671 0.322188820088334 0
0.12067550693034605 0.332501065526533 0
0.3569126279766204 0.35084815650153056 0
0.1116428523761629 0.3318719726899857 0
0.09778654450508086 0.3534662764953074 0
0.27759405049035557 0.13135788286408595 0
0.320727100095154 0.3169741718780013 0
0.1349623167100122 0.1732047021088962 0
0.12747346096900886 0.3257789685278733 0
0.45283052305426114 0.1834290383290832 0
0.17489966249358663 0.31418096683168817 0
0.13175080419501134 0.09150868960725674 0
0.12528972795701449 0.35718319007475074 0
0.3416510320586508 0.30318228636443945 0
0.25147363678974094 0.26869190787772834 0
0.4486279581673289 0.20735713835569003 0
0.33799163186579534 0.34771077061174094 0
0.20962425979573474 0.17036015470142046 0
0.10067470693503204 0.25462267647831216 0
0.0941511224806618 0.2714530773618047 0
0.16587640293116085 0.31033954948372866 0
0.1933970760629581 0.11127768586549593 0
0.33451863855219044 0.35317182807696634 0
0.12765899406941295 0.16820628066717494 0
0.3254384280745568 0.2871956474334686 0
0.2011050024514482 0.1422764061145834 0
0.42855393577739215 0.3768207568818331 0
0.19937772233602086 0.4027843926551819 0
0.34219162741490466 0.25944570859328836 0
0.3609395442290515 0.310818239561424 0
0.35467136827799284 0.3468070829399335 0
0.23172483943557665 0.097919725353267 0
0.4766913738892523 0.3826135198179645 0
0.17685952939366906 0.38238322055942603 0
0.10019095319949822 0.16136312949363632 0
0.13536678176041103 0.15641603195442016 0
0.3104707319142503 0.31899060545276536 0
0.12251148834230435 0.13944260628087993 0
0.12913147969479635 0.1589419667020245 0
0.32100550121106164 0.32283455083194046 0
0.27698158378473037 0.28286337560290004 0
0.33794465870920853 0.3296258374972148 0
0.32546175613390177 0.31392631764701895 0
0.12275918003426206 0.38219343699753544 0
0.19774786989120902 0.38128326633822734 0
0.3226209130499078 0.3291518257546559 0
0.12481662470063842 0.3658644411636915 0
0.11964344240533104 0.09160534088061784 0
0.37772555558393206 0.1273730891138847 0
0.20243673627661932 0.3449398507952302 0
0.38383149754781093 0.37467367822168773 0
0.17156568180306542 0.34964546014686515 0
0.35478784175764927 0.12166144466486295 0
0.2778020815464105 0.2991839541747729 0
0.33465411548853763 0.35823516497751573 0
0.19450655456931276 0.13906395451644168 0
0.3168330346621449 0.3084588017812372 0
0.32030504717015923 0.13102474238791498 0
0.15455791626329413 0.11140491536716386 0
0.13206778710974865 0.3401728328703521 0
0.11657190368726404 0.14569660751716398 0
0.1072290426281741 0.10757325474799165 0
0.11605188367837065 0.10019107418234637 0
0.3276246908470293 0.3300046760934329 0
0.4343441653662393 0.06908546052374598 0
0.3737071711084264 0.10759317300273676 0
0.32015088116606066 0.30436965778541153 0
0.10720918402072895 0.09692977485663305 0
0.09195762149624855 0.09140430914039595 0
0.18163293813813433 0.37325846508723637 0
0.18362101470114117 0.36566231790287446 0
0.11892845579092971 0.45705024719001486 0
0.1809048509712966 0.3616449913712513 0
0.21302868793563198 0.35985447411827787 0
0.3355892297097439 0.3165048497096774 0
0.34014890362149397 0.317410426100088 0
0.23396908316295922 0.3051076359531347 0

Edges
48
1 32 1
1 33 1
2 38 1
2 39 1
3 107 1
3 113 1
4 28 1
4 46 1
5 36 1
5 96 1
6 41 1
6 50 1
7 24 1
7 69 1
8 46 1
8 931 1
9 68 1
9 73 1
14 51 1
14 102 1
15 50 1
15 51 1
19 95 1
19 103 1
21 32 1
21 93 1
23 67 1
23 112 1
24 67 1
25 68 1
25 69 1
28 73 1
29 77 1
29 90 1
33 90 1
36 93 1
38 102 1
39 103 1
40 41 1
40 108 1
43 107 1
43 108 1
45 112 1
45 113 1
77 78 1
78 932 1
95 96 1
931 932 1

Triangles
1974
1 32 89 0
2 38 406 0
4 46 72 0
5 92 191 0
5 96 92 0
6 41 408 0
6 409 50 0
8 114 46 0
8 180 236 0
9 73 342 0
10 245 423 0
10 423 583 0
10 429 834 0
10 583 429 0
11 63 237 0
11 143 144 0
11 144 126 0
12 292 294 0
12 494 292 0
13 49 52 0
13 52 457 0
13 130 459 0
13 252 49 0
14 51 202 0
14 202 101 0
16 201 945 0
16 256 467 0
16 945 951 0
17 61 149 0
17 148 189 0
17 189 193 0
18 129 146 0
18 133 135 0
19 727 405 0
20 132 147 0
20 147 288 0
20 491 653 0
22 621 989 0
22 663 857 0
23 67 161 0
23 161 231 0
24 7 66 0
25 793 507 0
26 506 505 0
27 417 940 0
27 802 217 0
28 4 72 0
28 72 74 0
29 90 554 0
30 84 177 0
30 177 178 0
30 178 935 0
31 86 180 0
31 180 931 0
31 181 86 0
31 932 85 0
32 21 35 0
32 35 89 0
33 89 184 0
34 91 188 0
35 21 186 0
35 386 387 0
35 387 89 0
36 5 191 0
36 381 93 0
37 98 195 0
37 195 726 0
37 285 781 0
39 2 406 0
39 406 206 0
40 968 218 0
41 40 218 0
41 218 419 0
42 225 427 0
42 425 426 0
42 452 225 0
45 112 618 0
45 618 766 0
47 143 950 0
47 742 293 0
47 786 495 0
48 240 629 0
48 243 302 0
49 120 254 0
49 125 52 0
49 254 125 0
50 211 15 0
51 399 202 0
52 125 964 0
53 224 253 0
53 226 427 0
53 253 121 0
53 427 225 0
54 128 259 0
54 129 136 0
54 471 130 0
55 131 140 0
55 133 260 0
55 140 475 0
56 278 481 0
57 138 266 0
57 264 470 0
58 271 275 0
58 272 779 0
59 395 740 0
59 575 1001 0
60 260 18 0
61 131 132 0
61 132 653 0
61 139 131 0
62 150 569 0
62 493 730 0
63 118 249 0
64 244 300 0
64 299 303 0
64 892 612 0
65 307 975 0
65 311 666 0
65 666 667 0
66 7 160 0
66 439 235 0
67 235 161 0
69 25 507 0
70 163 582 0
70 165 523 0
70 940 165 0
71 527 577 0
72 46 114 0
73 28 74 0
74 72 343 0
74 804 342 0
75 364 367 0
75 368 943 0
76 182 716 0
76 716 811 0
77 29 87 0
77 87 375 0
78 77 375 0
79 76 709 0
79 88 76 0
80 81 85 0
80 85 932 0
81 79 709 0
81 80 79 0
81 709 954 0
81 954 955 0
83 178 179 0
84 30 181 0
84 81 955 0
84 85 81 0
85 84 181 0
86 82 417 0
87 717 553 0
88 79 80 0
88 80 78 0
89 33 1 0
90 33 184 0
91 34 94 0
91 390 384 0
92 190 191 0
92 566 192 0
93 186 21 0
94 34 186 0
95 19 405 0
96 95 284 0
96 284 92 0
97 189 192 0
97 192 726 0
98 37 781 0
98 196 567 0
99 176 954 0
100 199 731 0
100 200 572 0
101 207 208 0
101 572 207 0
102 14 101 0
102 101 208 0
103 39 206 0
103 206 727 0
104 206 1000 0
104 395 205 0
104 727 206 0
105 221 591 0
105 223 425 0
105 431 432 0
105 432 220 0
106 223 424 0
108 968 40 0
109 232 435 0
109 435 746 0
109 596 433 0
110 234 438 0
110 438 598 0
111 44 161 0
111 110 44 0
111 161 235 0
111 234 110 0
111 439 234 0
112 231 618 0
113 107 3 0
113 617 107 0
114 8 236 0
114 236 418 0
114 692 343 0
115 245 451 0
115 300 244 0
116 42 426 0
116 246 452 0
117 155 249 0
117 247 155 0
118 11 126 0
118 63 11 0
118 126 127 0
118 127 633 0
119 251 465 0
119 461 463 0
120 49 252 0
120 252 458 0
121 226 53 0
121 409 408 0
122 256 257 0
122 257 465 0
122 466 827 0
123 124 255 0
123 253 254 0
123 257 124 0
124 16 255 0
125 468 964 0
126 145 259 0
127 457 633 0
128 54 130 0
128 127 259 0
128 130 457 0
129 18 135 0
129 54 259 0
129 135 262 0
130 13 457 0
131 55 132 0
131 139 140 0
132 20 653 0
132 55 260 0
133 55 138 0
134 273 274 0
134 274 142 0
135 57 262 0
136 129 262 0
136 846 772 0
137 264 477 0
137 265 473 0
137 473 641 0
138 55 475 0
138 57 135 0
138 135 133 0
139 17 193 0
139 61 17 0
139 193 941 0
140 139 941 0
140 267 475 0
141 268 476 0
141 269 392 0
141 392 393 0
142 274 277 0
142 277 480 0
143 237 950 0
143 287 144 0
144 487 145 0
145 60 146 0
145 126 144 0
145 146 259 0
146 60 18 0
147 60 487 0
147 132 260 0
148 17 149 0
148 489 967 0
149 61 653 0
150 151 806 0
150 152 569 0
150 497 296 0
150 806 497 0
151 150 62 0
152 150 296 0
152 292 569 0
152 294 292 0
153 295 288 0
153 495 659 0
154 247 297 0
154 297 989 0
154 622 976 0
155 63 249 0
155 154 976 0
155 444 63 0
156 966 304 0
157 743 788 0
158 308 972 0
158 309 992 0
159 450 665 0
160 7 69 0
160 69 507 0
160 314 162 0
161 44 433 0
162 313 160 0
162 314 510 0
162 510 315 0
163 70 520 0
163 520 982 0
163 678 979 0
164 333 995 0
164 377 937 0
166 238 212 0
167 338 340 0
168 701 363 0
169 355 357 0
169 357 362 0
170 361 363 0
170 363 545 0
171 372 371 0
171 702 372 0
172 165 940 0
172 174 173 0
172 379 174 0
173 165 172 0
173 174 939 0
174 379 936 0
174 936 939 0
175 378 549 0
175 549 711 0
175 729 550 0
175 944 378 0
176 177 955 0
176 552 826 0
176 571 177 0
176 826 571 0
177 84 955 0
178 83 935 0
178 177 571 0
178 571 179 0
179 396 824 0
180 8 931 0
181 30 379 0
181 31 85 0
181 82 86 0
181 379 82 0
182 76 88 0
183 554 184 0
184 89 387 0
186 93 381 0
186 386 35 0
187 382 560 0
187 385 1004 0
188 563 34 0
189 97 193 0
189 148 967 0
190 189 967 0
190 192 189 0
190 651 822 0
190 822 191 0
191 388 36 0
191 822 388 0
192 190 92 0
192 566 726 0
193 97 194 0
193 194 941 0
194 97 195 0
194 195 392 0
194 392 269 0
195 97 726 0
195 567 392 0
196 98 649 0
197 823 166 0
197 946 956 0
198 551 524 0
199 100 201 0
199 201 467 0
199 397 732 0
199 467 397 0
200 100 731 0
200 204 209 0
200 209 207 0
201 100 400 0
202 399 400 0
203 574 739 0
204 200 398 0
204 398 733 0
204 404 407 0
205 646 283 0
205 727 104 0
206 406 1000 0
207 1000 208 0
208 38 102 0
208 406 38 0
209 204 407 0
210 104 1000 0
210 207 209 0
211 399 15 0
211 409 951 0
212 410 213 0
212 415 166 0
212 443 410 0
212 623 443 0
213 410 830 0
213 830 870 0
214 416 215 0
214 443 890 0
214 890 416 0
215 503 414 0
215 894 503 0
216 86 417 0
216 180 86 0
216 217 418 0
216 236 180 0
216 417 217 0
217 417 27 0
218 227 419 0
218 594 421 0
219 108 765 0
219 594 968 0
219 614 230 0
219 765 614 0
220 223 105 0
220 420 424 0
221 105 425 0
221 421 591 0
222 106 424 0
222 245 422 0
222 768 106 0
223 106 426 0
223 220 424 0
224 53 225 0
224 125 253 0
224 832 833 0
224 833 468 0
225 832 224 0
226 227 427 0
226 408 419 0
226 419 227 0
227 218 421 0
227 421 221 0
228 436 604 0
228 586 750 0
229 431 751 0
229 751 752 0
230 753 755 0
231 112 23 0
231 161 433 0
231 433 596 0
232 109 433 0
232 433 434 0
232 434 600 0
232 600 602 0
233 436 836 0
233 438 608 0
234 439 440 0
234 440 839 0
235 24 66 0
235 67 24 0
236 216 418 0
237 143 11 0
238 12 294 0
238 166 12 0
239 622 831 0
239 742 950 0
239 831 445 0
240 302 627 0
240 627 767 0
241 446 448 0
241 448 999 0
242 448 767 0
242 449 628 0
243 48 454 0
243 156 302 0
243 454 631 0
243 631 966 0
244 64 303 0
244 303 304 0
244 938 115 0
245 10 301 0
245 115 422 0
245 222 423 0
246 116 453 0
246 453 632 0
247 117 248 0
247 154 155 0
250 119 465 0
250 120 458 0
250 123 120 0
250 257 123 0
251 119 463 0
251 460 465 0
251 463 769 0
252 13 459 0
252 635 458 0
253 255 121 0
254 120 123 0
254 253 125 0
255 16 951 0
255 253 123 0
256 16 124 0
256 124 257 0
256 258 467 0
257 250 465 0
258 256 122 0
258 827 397 0
259 127 126 0
259 146 129 0
260 60 147 0
260 133 18 0
261 134 142 0
261 142 276 0
261 276 770 0
261 926 640 0
262 57 470 0
262 470 846 0
263 474 472 0
264 57 266 0
264 137 641 0
264 266 477 0
265 137 268 0
265 263 473 0
266 138 475 0
266 475 477 0
267 140 941 0
267 269 476 0
268 137 477 0
268 141 270 0
269 141 476 0
269 941 194 0
270 141 393 0
270 265 268 0
270 393 394 0
270 394 993 0
270 478 265 0
271 58 988 0
272 275 277 0
272 277 274 0
273 474 568 0
273 568 642 0
273 642 272 0
274 273 272 0
275 271 482 0
275 272 58 0
276 56 770 0
276 480 278 0
277 275 480 0
278 56 276 0
278 480 644 0
278 644 777 0
278 777 281 0
279 271 988 0
279 482 271 0
279 735 482 0
279 829 735 0
279 850 486 0
280 282 634 0
280 481 281 0
281 737 280 0
282 280 737 0
282 464 634 0
282 737 923 0
283 405 205 0
283 483 405 0
284 405 483 0
285 566 284 0
285 650 781 0
286 484 780 0
287 143 495 0
287 153 487 0
287 495 153 0
288 147 487 0
289 488 783 0
289 783 953 0
290 20 288 0
290 289 953 0
290 295 289 0
291 490 491 0
291 961 655 0
294 293 238 0
295 153 499 0
295 290 288 0
296 659 786 0
296 786 152 0
297 22 989 0
297 247 455 0
297 663 22 0
298 309 310 0
298 456 1002 0
298 842 960 0
299 64 612 0
299 612 990 0
299 664 303 0
299 952 664 0
300 115 451 0
300 760 892 0
301 10 834 0
301 605 760 0
302 240 48 0
303 156 304 0
303 664 156 0
305 312 157 0
306 241 975 0
306 625 241 0
306 942 978 0
307 65 667 0
307 308 942 0
308 158 992 0
308 307 972 0
308 501 942 0
309 298 1002 0
309 787 310 0
310 248 298 0
310 455 248 0
311 65 981 0
311 159 668 0
313 66 160 0
313 162 504 0
314 160 26 0
315 414 503 0
315 579 414 0
316 9 342 0
316 68 9 0
316 342 1007 0
316 508 670 0
317 511 674 0
317 674 963 0
317 921 511 0
318 326 517 0
318 516 518 0
319 514 513 0
319 518 516 0
320 675 534 0
320 689 513 0
320 922 689 0
321 673 511 0
322 320 513 0
322 321 512 0
322 323 321 0
322 513 323 0
322 860 320 0
323 514 671 0
326 867 327 0
326 868 867 0
328 325 969 0
328 515 325 0
328 672 673 0
329 325 324 0
329 338 330 0
329 969 325 0
330 578 1005 0
331 518 873 0
331 803 979 0
331 873 803 0
332 163 979 0
332 582 163 0
332 803 872 0
333 795 995 0
333 937 944 0
333 944 685 0
334 530 688 0
336 529 956 0
336 530 529 0
337 71 577 0
337 167 340 0
338 167 578 0
338 329 532 0
339 527 71 0
339 797 687 0
339 865 797 0
340 338 532 0
340 533 864 0
340 864 337 0
341 324 676 0
341 329 324 0
342 73 74 0
342 804 1007 0
343 72 114 0
343 874 804 0
344 361 357 0
344 539 168 0
345 365 875 0
345 370 365 0
345 488 546 0
345 546 369 0
346 875 919 0
347 854 784 0
348 544 697 0
350 352 970 0
350 713 933 0
350 970 914 0
351 808 714 0
352 353 996 0
352 354 970 0
352 562 353 0
353 561 973 0
353 821 561 0
353 973 996 0
354 352 695 0
354 707 970 0
355 169 356 0
356 169 807 0
356 541 355 0
356 544 349 0
357 361 362 0
357 535 344 0
358 359 943 0
358 360 705 0
358 371 360 0
359 696 959 0
360 547 703 0
360 703 706 0
361 170 362 0
361 344 168 0
362 170 364 0
363 361 168 0
363 701 700 0
364 170 367 0
364 698 699 0
364 699 362 0
365 370 700 0
365 693 875 0
366 370 369 0
366 372 702 0
367 170 545 0
367 368 75 0
367 702 171 0
368 171 371 0
368 358 943 0
368 367 171 0
369 374 548 0
369 546 373 0
369 548 366 0
370 345 369 0
371 358 368 0
371 547 360 0
371 876 547 0
373 496 660 0
374 369 373 0
374 373 660 0
374 660 877 0
375 87 553 0
375 88 78 0
375 182 88 0
377 165 173 0
377 173 939 0
377 522 165 0
377 939 937 0
378 937 939 0
378 939 936 0
379 30 935 0
379 172 82 0
379 935 936 0
380 719 994 0
380 722 880 0
380 723 724 0
380 724 818 0
381 94 186 0
382 187 997 0
382 383 821 0
382 821 934 0
382 934 560 0
383 997 815 0
384 185 556 0
384 390 185 0
384 556 719 0
385 183 387 0
385 387 1004 0
385 560 812 0
385 812 183 0
386 34 563 0
386 186 34 0
387 183 184 0
387 386 563 0
387 563 1004 0
388 381 36 0
388 389 391 0
389 388 822 0
390 91 94 0
391 94 381 0
391 381 388 0
391 389 564 0
391 390 94 0
391 564 390 0
393 392 567 0
394 196 479 0
394 479 568 0
394 567 196 0
394 568 993 0
395 104 740 0
396 179 571 0
396 825 824 0
397 734 732 0
398 200 731 0
398 731 887 0
398 887 733 0
399 51 15 0
399 211 945 0
400 100 572 0
400 572 202 0
400 945 201 0
401 828 923 0
402 403 984 0
402 486 1001 0
402 829 486 0
403 203 739 0
403 402 575 0
403 739 984 0
404 203 403 0
404 575 407 0
405 284 95 0
405 727 205 0
406 208 1000 0
407 210 209 0
408 226 121 0
409 6 408 0
409 121 255 0
409 211 50 0
409 255 951 0
410 576 985 0
410 741 830 0
411 576 1009 0
411 741 985 0
412 413 1008 0
412 528 413 0
412 987 528 0
413 580 1006 0
413 1006 1008 0
414 214 215 0
414 576 214 0
414 579 1009 0
415 197 166 0
415 212 213 0
415 870 946 0
416 157 312 0
416 312 215 0
416 890 744 0
417 82 172 0
417 172 940 0
418 217 691 0
418 691 692 0
419 408 41 0
420 423 424 0
420 428 986 0
421 594 962 0
422 115 938 0
422 631 768 0
423 222 424 0
423 420 583 0
425 42 427 0
425 223 426 0
425 427 221 0
426 453 116 0
427 227 221 0
428 220 432 0
428 420 220 0
428 432 585 0
428 585 586 0
428 586 986 0
429 587 604 0
429 604 748 0
430 615 746 0
430 746 590 0
431 105 591 0
431 229 432 0
431 591 751 0
432 229 585 0
433 44 434 0
434 44 110 0
434 110 598 0
434 598 600 0
435 232 602 0
435 590 746 0
436 228 603 0
436 233 607 0
436 603 836 0
437 605 748 0
437 607 608 0
438 233 598 0
438 234 839 0
439 66 313 0
439 111 235 0
440 439 792 0
440 442 838 0
441 611 609 0
442 611 613 0
443 576 410 0
443 623 1012 0
444 155 976 0
444 237 63 0
444 950 237 0
445 744 890 0
445 1012 742 0
446 241 625 0
446 625 1010 0
446 629 977 0
446 1010 1011 0
447 456 745 0
447 625 978 0
447 745 469 0
447 1002 456 0
448 242 626 0
448 446 977 0
448 626 999 0
449 627 952 0
449 767 627 0
450 159 628 0
450 764 609 0
451 245 301 0
452 42 116 0
452 246 630 0
452 630 965 0
452 832 225 0
453 426 106 0
453 768 632 0
454 246 632 0
455 247 248 0
456 298 960 0
456 960 624 0
457 127 128 0
457 895 633 0
458 119 250 0
458 461 119 0
459 130 471 0
459 776 637 0
460 251 769 0
460 466 465 0
460 634 464 0
461 635 637 0
461 637 771 0
463 462 769 0
463 771 462 0
465 466 122 0
466 460 464 0
466 464 888 0
466 888 827 0
467 201 16 0
467 258 397 0
468 125 224 0
468 844 964 0
469 916 1011 0
469 949 916 0
470 264 641 0
470 641 846 0
471 54 638 0
471 638 773 0
471 773 776 0
472 134 640 0
472 474 134 0
472 640 896 0
473 263 847 0
474 273 134 0
475 267 476 0
475 476 477 0
476 268 477 0
478 263 265 0
478 270 993 0
478 474 263 0
478 568 474 0
479 196 485 0
479 485 647 0
480 275 482 0
480 276 142 0
480 482 644 0
481 278 281 0
481 636 845 0
481 845 56 0
483 283 650 0
483 285 284 0
483 650 285 0
484 286 650 0
484 650 283 0
484 778 849 0
485 196 649 0
485 286 780 0
486 899 1001 0
487 60 145 0
487 144 287 0
487 153 288 0
488 289 498 0
488 345 346 0
488 498 546 0
489 651 967 0
489 652 651 0
489 657 652 0
490 149 653 0
490 656 149 0
491 20 290 0
491 490 653 0
491 953 654 0
492 902 991 0
492 910 920 0
493 494 884 0
493 569 494 0
494 569 292 0
495 143 47 0
495 786 659 0
496 296 497 0
496 497 660 0
496 499 296 0
497 878 660 0
498 289 295 0
498 295 499 0
498 499 661 0
499 496 661 0
500 449 952 0
500 952 958 0
501 308 992 0
501 447 978 0
501 992 1002 0
502 666 668 0
503 162 315 0
503 504 162 0
505 314 26 0
505 317 314 0
506 26 507 0
506 921 505 0
507 26 160 0
508 316 1007 0
508 534 675 0
509 580 980 0
509 672 969 0
509 861 672 0
509 969 1005 0
510 314 317 0
510 317 963 0
510 581 315 0
512 321 511 0
512 860 322 0
512 904 860 0
512 921 904 0
514 319 516 0
514 323 513 0
514 862 671 0
515 321 323 0
515 323 671 0
515 328 673 0
515 671 325 0
515 673 321 0
516 318 517 0
517 326 327 0
517 327 676 0
517 676 862 0
518 319 677 0
518 331 318 0
518 677 873 0
519 318 331 0
519 326 318 0
519 331 979 0
520 523 948 0
521 679 682 0
521 681 684 0
521 682 800 0
522 164 684 0
522 377 164 0
522 684 948 0
522 948 523 0
523 165 522 0
523 520 70 0
524 885 884 0
525 529 334 0
526 334 531 0
526 525 334 0
526 685 550 0
526 712 525 0
527 335 686 0
527 686 987 0
528 686 871 0
528 741 413 0
529 198 956 0
529 525 198 0
530 334 529 0
530 687 688 0
530 801 335 0
531 334 688 0
531 795 685 0
532 329 341 0
532 341 533 0
533 340 532 0
533 799 864 0
534 508 690 0
535 355 541 0
535 357 355 0
535 540 344 0
536 535 541 0
536 540 535 0
536 882 347 0
537 347 784 0
537 536 347 0
537 538 540 0
538 537 784 0
538 539 540 0
538 920 856 0
539 344 540 0
539 538 856 0
539 693 168 0
539 856 693 0
540 536 537 0
541 349 819 0
541 356 349 0
541 882 536 0
542 704 543 0
542 710 703 0
542 913 704 0
543 99 376 0
543 710 542 0
543 730 99 0
544 356 807 0
544 883 349 0
545 363 700 0
546 661 373 0
547 876 913 0
548 372 366 0
548 374 877 0
548 876 372 0
549 83 711 0
549 935 83 0
550 712 526 0
550 729 712 0
551 198 525 0
551 824 825 0
552 99 730 0
552 176 99 0
552 886 826 0
553 182 375 0
553 555 713 0
553 715 182 0
554 87 29 0
554 90 184 0
554 183 717 0
555 717 718 0
555 933 713 0
556 185 565 0
556 559 723 0
556 723 994 0
557 384 719 0
557 719 814 0
557 720 816 0
557 816 947 0
557 947 384 0
558 721 879 0
558 722 883 0
558 880 722 0
559 556 565 0
559 901 820 0
560 385 187 0
560 718 812 0
561 383 881 0
561 817 973 0
561 821 383 0
562 352 350 0
563 188 983 0
563 983 1003 0
563 1003 1004 0
564 185 390 0
564 389 782 0
565 185 564 0
565 564 725 0
566 37 726 0
566 92 284 0
566 285 37 0
567 195 98 0
567 394 393 0
568 478 993 0
568 479 642 0
569 493 62 0
570 198 524 0
570 823 197 0
570 956 198 0
572 101 202 0
572 200 207 0
573 736 738 0
573 984 739 0
574 401 736 0
574 889 401 0
575 59 740 0
575 402 1001 0
575 404 403 0
576 411 985 0
576 414 1009 0
576 443 214 0
577 167 337 0
577 412 167 0
577 527 987 0
578 167 412 0
578 330 338 0
578 412 1008 0
579 315 581 0
579 411 1009 0
579 581 980 0
580 411 579 0
580 413 411 0
580 509 1005 0
580 579 980 0
580 1005 1006 0
581 963 861 0
582 27 70 0
582 332 872 0
583 587 429 0
584 592 593 0
584 599 759 0
585 229 747 0
586 228 587 0
586 587 986 0
586 592 750 0
587 228 604 0
587 420 986 0
587 583 420 0
588 758 601 0
589 430 590 0
589 749 924 0
589 754 430 0
590 435 597 0
591 421 962 0
592 584 750 0
592 585 747 0
592 586 585 0
593 599 584 0
593 747 835 0
594 218 968 0
594 219 230 0
594 230 755 0
594 755 962 0
595 751 962 0
595 755 756 0
595 756 891 0
596 109 620 0
597 435 602 0
597 589 590 0
597 602 758 0
597 749 589 0
598 233 836 0
598 757 600 0
599 588 601 0
599 593 588 0
599 757 759 0
600 757 601 0
601 602 600 0
601 757 599 0
601 758 602 0
603 228 750 0
603 759 836 0
604 436 607 0
604 607 748 0
605 301 834 0
605 437 762 0
605 762 837 0
606 761 763 0
607 233 608 0
607 437 748 0
608 438 839 0
608 839 606 0
609 611 610 0
609 764 441 0
610 611 893 0
610 669 789 0
610 789 665 0
610 893 669 0
611 441 613 0
612 441 990 0
612 761 441 0
613 838 442 0
614 616 615 0
614 753 230 0
615 430 753 0
615 619 746 0
616 614 765 0
616 766 619 0
617 43 107 0
617 765 43 0
617 766 616 0
618 231 596 0
618 596 620 0
619 615 616 0
620 109 746 0
621 22 743 0
621 744 831 0
622 154 989 0
622 239 444 0
622 444 976 0
623 212 238 0
623 238 293 0
623 293 742 0
623 742 1012 0
624 833 949 0
624 844 468 0
624 960 844 0
625 306 978 0
625 447 469 0
625 469 1010 0
626 159 311 0
626 311 981 0
626 981 999 0
627 302 156 0
627 664 952 0
628 159 626 0
628 449 500 0
628 500 450 0
628 626 242 0
629 240 977 0
629 446 1011 0
630 48 629 0
630 246 454 0
630 454 48 0
630 916 965 0
631 422 938 0
631 632 768 0
631 938 966 0
632 631 454 0
633 249 118 0
633 843 249 0
634 460 769 0
634 769 636 0
635 252 459 0
635 459 637 0
635 461 458 0
636 280 634 0
636 481 280 0
636 769 462 0
637 776 897 0
638 54 136 0
638 136 772 0
638 772 773 0
639 773 898 0
639 774 775 0
639 775 917 0
640 134 261 0
641 473 774 0
641 774 898 0
642 479 647 0
642 647 779 0
642 779 272 0
643 482 735 0
643 738 777 0
644 482 643 0
645 59 1001 0
645 646 59 0
645 778 646 0
646 205 395 0
646 395 59 0
646 484 283 0
646 778 484 0
648 779 647 0
649 98 781 0
649 286 485 0
649 650 286 0
650 649 781 0
651 190 967 0
652 657 957 0
652 782 651 0
654 291 491 0
654 658 291 0
655 490 291 0
655 656 490 0
655 853 656 0
656 148 149 0
656 489 148 0
657 489 853 0
657 852 957 0
658 654 851 0
658 785 961 0
658 805 785 0
659 296 499 0
659 499 153 0
661 496 373 0
661 546 498 0
662 858 903 0
662 903 857 0
662 972 858 0
663 297 455 0
663 455 787 0
663 787 662 0
664 627 156 0
665 450 609 0
665 609 610 0
665 789 668 0
666 311 668 0
666 790 667 0
667 790 858 0
667 972 307 0
668 159 665 0
670 68 316 0
670 508 675 0
670 793 68 0
671 324 325 0
671 862 324 0
672 328 969 0
672 674 673 0
672 861 674 0
673 674 511 0
674 861 963 0
675 320 860 0
676 866 341 0
677 689 922 0
678 163 982 0
678 519 979 0
678 796 869 0
678 868 519 0
679 521 680 0
679 680 795 0
680 521 684 0
681 521 800 0
681 796 948 0
681 800 863 0
682 679 797 0
682 797 865 0
682 798 800 0
683 798 799 0
683 800 798 0
684 681 948 0
684 995 680 0
685 526 531 0
685 944 550 0
686 335 801 0
686 528 987 0
686 801 871 0
687 335 527 0
687 527 339 0
687 530 335 0
688 794 531 0
689 319 513 0
689 677 319 0
690 508 1007 0
690 908 929 0
690 922 534 0
691 217 802 0
691 802 872 0
692 114 418 0
692 691 907 0
694 352 996 0
694 697 912 0
694 912 974 0
695 352 694 0
695 694 974 0
695 696 354 0
695 959 696 0
696 351 354 0
696 808 351 0
697 694 973 0
698 75 943 0
698 364 75 0
698 943 959 0
698 971 699 0
699 169 362 0
699 807 169 0
700 370 366 0
700 702 545 0
701 168 693 0
701 365 700 0
701 693 365 0
702 367 545 0
702 700 366 0
703 810 706 0
704 151 543 0
704 806 151 0
704 913 878 0
705 359 358 0
705 696 359 0
705 808 696 0
706 705 360 0
706 808 705 0
707 354 351 0
707 715 914 0
707 914 970 0
708 376 709 0
708 709 811 0
708 710 376 0
709 76 811 0
709 376 954 0
710 543 376 0
711 83 179 0
711 824 729 0
712 551 525 0
712 824 551 0
713 350 914 0
713 715 553 0
713 914 715 0
714 707 351 0
715 707 716 0
715 716 182 0
716 707 714 0
716 809 811 0
717 87 554 0
717 183 812 0
717 555 553 0
717 812 718 0
718 933 555 0
718 934 933 0
719 380 880 0
719 556 994 0
720 557 814 0
720 815 816 0
721 348 817 0
721 544 348 0
721 558 883 0
721 817 879 0
722 380 818 0
723 380 994 0
724 723 820 0
725 559 565 0
725 900 559 0
727 19 103 0
728 396 826 0
729 175 711 0
730 151 62 0
730 543 151 0
731 199 732 0
732 887 731 0
733 203 404 0
733 404 204 0
733 887 889 0
733 889 203 0
734 397 827 0
734 828 889 0
735 573 643 0
735 984 573 0
736 401 737 0
736 573 739 0
736 739 574 0
737 738 736 0
738 643 573 0
738 737 281 0
740 104 210 0
740 210 407 0
740 407 575 0
741 410 985 0
741 411 413 0
741 528 871 0
742 47 950 0
742 239 445 0
743 22 857 0
744 157 416 0
744 621 743 0
744 743 157 0
745 456 624 0
745 624 949 0
746 619 620 0
747 229 752 0
747 593 592 0
748 605 834 0
748 834 429 0
749 588 915 0
749 597 758 0
749 758 588 0
750 584 759 0
750 759 603 0
751 591 962 0
751 595 752 0
752 595 891 0
753 430 754 0
753 614 615 0
755 595 962 0
755 753 754 0
756 589 924 0
756 754 589 0
756 755 754 0
757 598 836 0
759 757 836 0
760 300 451 0
760 451 301 0
760 605 837 0
760 837 892 0
761 606 838 0
761 612 763 0
761 613 441 0
762 437 608 0
762 608 606 0
762 763 837 0
763 762 606 0
764 450 500 0
764 500 958 0
764 990 441 0
765 108 43 0
765 617 616 0
766 113 45 0
766 617 113 0
766 618 620 0
766 620 619 0
767 449 242 0
767 977 240 0
768 222 422 0
768 453 106 0
770 845 925 0
770 925 926 0
771 463 461 0
771 637 897 0
771 897 918 0
771 918 462 0
772 846 898 0
773 772 898 0
773 848 776 0
774 473 847 0
774 639 898 0
775 774 847 0
775 896 917 0
776 459 471 0
776 848 897 0
777 644 643 0
777 738 281 0
778 645 899 0
779 988 58 0
780 484 849 0
780 647 485 0
780 648 647 0
782 652 725 0
782 725 564 0
783 488 346 0
783 654 953 0
783 851 654 0
784 930 920 0
785 492 991 0
785 910 492 0
786 47 293 0
786 293 294 0
786 294 152 0
787 158 662 0
787 309 158 0
787 455 310 0
788 305 157 0
788 743 857 0
788 791 305 0
788 859 791 0
789 502 668 0
789 791 502 0
790 666 502 0
790 903 858 0
791 669 305 0
791 789 669 0
791 859 502 0
792 439 313 0
792 442 440 0
792 841 442 0
793 25 68 0
793 506 507 0
793 670 506 0
794 679 795 0
794 688 687 0
794 797 679 0
795 333 685 0
795 531 794 0
795 680 995 0
796 678 982 0
796 681 863 0
796 863 869 0
797 794 687 0
798 682 865 0
798 865 905 0
799 533 866 0
799 798 864 0
800 683 863 0
801 336 870 0
801 530 336 0
801 830 871 0
802 27 582 0
802 582 872 0
803 332 979 0
804 74 343 0
804 690 1007 0
804 874 908 0
805 658 851 0
805 851 919 0
805 919 911 0
806 704 878 0
806 878 497 0
807 697 544 0
807 699 971 0
807 912 697 0
808 706 809 0
809 714 808 0
809 716 714 0
810 703 710 0
810 708 811 0
810 710 708 0
810 809 706 0
810 811 809 0
813 558 879 0
813 720 814 0
813 814 880 0
813 879 881 0
813 881 720 0
814 719 880 0
815 720 881 0
815 881 383 0
815 997 998 0
816 815 998 0
817 348 973 0
817 561 881 0
818 724 882 0
819 722 818 0
819 883 722 0
820 347 724 0
820 723 559 0
820 854 347 0
821 353 562 0
822 651 782 0
822 782 389 0
823 12 166 0
823 494 12 0
823 884 494 0
824 711 179 0
824 712 729 0
825 396 728 0
825 524 551 0
825 728 885 0
826 396 571 0
827 258 122 0
827 828 734 0
828 401 889 0
828 888 923 0
829 279 486 0
829 402 984 0
830 741 871 0
830 801 870 0
831 744 445 0
831 989 621 0
832 452 965 0
833 624 468 0
833 916 949 0
833 965 916 0
835 747 752 0
835 752 891 0
835 891 924 0
835 915 593 0
835 924 915 0
837 763 892 0
838 606 839 0
838 613 761 0
838 839 440 0
840 305 669 0
840 312 305 0
840 669 893 0
840 841 894 0
840 893 841 0
841 313 504 0
841 504 894 0
841 792 313 0
842 248 117 0
842 298 248 0
842 843 844 0
842 844 960 0
843 117 249 0
843 633 895 0
843 842 117 0
844 895 964 0
845 636 462 0
845 770 56 0
846 136 262 0
846 641 898 0
847 263 472 0
847 896 775 0
848 639 917 0
848 773 639 0
848 917 927 0
849 648 780 0
849 778 899 0
849 850 648 0
849 899 850 0
850 279 988 0
852 855 902 0
852 900 957 0
853 489 656 0
853 852 657 0
854 820 901 0
854 901 928 0
854 928 930 0
855 655 961 0
855 852 853 0
855 853 655 0
856 910 911 0
856 911 693 0
857 663 662 0
859 788 903 0
859 790 502 0
859 903 790 0
861 980 581 0
862 514 516 0
862 516 517 0
862 676 324 0
863 683 906 0
864 798 905 0
864 905 337 0
865 339 905 0
866 533 341 0
866 676 327 0
866 867 906 0
867 866 327 0
868 326 519 0
868 678 869 0
869 863 906 0
869 867 868 0
869 906 867 0
870 336 946 0
870 415 213 0
872 907 691 0
873 677 929 0
873 909 803 0
873 929 909 0
874 343 692 0
875 346 345 0
875 693 911 0
876 371 372 0
876 548 877 0
878 877 660 0
880 558 813 0
881 879 817 0
882 541 819 0
882 724 347 0
882 819 818 0
883 544 721 0
883 819 349 0
884 570 524 0
884 823 570 0
885 493 884 0
885 524 825 0
885 886 493 0
886 552 730 0
886 728 826 0
886 730 493 0
886 885 728 0
887 732 734 0
887 734 889 0
888 282 923 0
888 464 282 0
888 828 827 0
889 574 203 0
890 443 1012 0
892 64 300 0
892 763 612 0
893 442 841 0
893 611 442 0
894 215 312 0
894 312 840 0
894 504 503 0
895 52 964 0
895 457 52 0
895 844 843 0
896 847 472 0
897 848 927 0
899 486 850 0
899 645 1001 0
900 725 957 0
901 559 900 0
902 492 930 0
902 855 991 0
902 928 852 0
903 788 857 0
904 506 670 0
904 670 675 0
904 675 860 0
905 71 337 0
905 339 71 0
906 683 799 0
906 799 866 0
907 874 692 0
908 690 804 0
908 874 907 0
908 909 929 0
909 872 803 0
909 907 872 0
909 908 907 0
910 785 805 0
910 805 911 0
910 856 920 0
911 919 875 0
912 807 971 0
913 542 703 0
913 703 547 0
913 876 877 0
913 877 878 0
915 588 593 0
916 629 1011 0
916 630 629 0
917 896 926 0
917 926 927 0
918 845 462 0
918 897 927 0
918 925 845 0
919 783 346 0
919 851 783 0
920 538 784 0
920 930 492 0
921 317 505 0
921 506 904 0
921 512 511 0
922 320 534 0
922 690 929 0
923 737 401 0
924 749 915 0
924 891 756 0
925 918 927 0
926 261 770 0
926 896 640 0
926 925 927 0
928 900 852 0
928 901 900 0
929 677 922 0
930 784 854 0
930 928 902 0
931 932 31 0
932 78 80 0
933 562 350 0
933 934 562 0
934 718 560 0
934 821 562 0
935 549 936 0
936 549 378 0
937 333 164 0
937 378 944 0
938 244 304 0
938 304 966 0
940 70 27 0
941 269 267 0
942 501 978 0
942 975 307 0
943 359 959 0
944 175 550 0
945 211 951 0
945 400 399 0
946 197 415 0
946 336 956 0
947 91 384 0
947 188 91 0
947 983 188 0
948 982 520 0
949 469 745 0
950 444 239 0
952 299 958 0
953 491 290 0
954 176 955 0
954 376 99 0
956 570 197 0
957 725 652 0
958 299 990 0
959 974 698 0
961 291 658 0
961 991 855 0
963 581 510 0
965 833 832 0
966 156 243 0
968 108 219 0
969 329 330 0
969 330 1005 0
971 974 912 0
972 662 158 0
972 667 858 0
973 348 697 0
973 694 996 0
974 959 695 0
974 971 698 0
975 942 306 0
975 981 65 0
977 767 448 0
980 861 509 0
981 241 999 0
981 975 241 0
982 948 796 0
983 816 998 0
983 947 816 0
983 998 1003 0
984 735 829 0
987 412 577 0
988 648 850 0
988 779 648 0
989 831 622 0
990 764 958 0
991 961 785 0
992 309 1002 0
995 684 164 0
997 383 382 0
997 1003 998 0
1000 207 210 0
1002 447 501 0
1003 187 1004 0
1003 997 187 0
1005 578 1006 0
1006 578 1008 0
1010 469 1011 0
1012 445 890 0

End
