MeshVersionFormatted 1

Dimension
2

Vertices
75
0.0 0.0 1
0.5 0.0 1
0.5 0.5 1
0.0 0.5 1
0.5 0.25 1
0.25 0.5 1
0.0 0.375 1
0.125 0.5 1
0.375 0.5 1
0.0 0.125 1
0.0625 0.0 1
0.0 0.0625 1
0.1875 0.0 1
0.3125 0.0 1
0.5 0.4375 1
0.40625 0.0 1
0.1478258968909261 0.43155441134707784 0
0.2588386286673466 0.20759600712654694 0
0.2375695640197657 0.24708657493141659 0
0.30177614176252954 0.23808296478928662 0
0.4375 0.5 1
0.06204918194830233 0.16875581925299626 0
0.06942039626299516 0.23467925489036676 0
0.5 0.34375 1
0.07642127942844919 0.3100241741975937 0
0.1887239879243762 0.23712780503103567 0
0.1339054715401859 0.2276690465292414 0
0.4062858847979145 0.418528396694993 0
0.5 0.16796875 1
0.20903829658365333 0.12110879692260329 0
0.17741191700211792 0.15709233677406145 0
0.276749377170558 0.2927757412743211 0
0.4177269182001321 0.32832423059896115 0
0.3508759074119594 0.27265837075432514 0
0.13514830305745062 0.09408475652753824 0
0.4115780983349499 0.08661661491181313 0
0.3288577340373492 0.44628229764722793 0
0.39796453925783676 0.2416441725196447 0
0.35111062472705956 0.04902783760891518 0
0.230022212679012 0.3581297914064422 0
0.10759070540155173 0.27872962763396003 0
0.24345667902303467 0.4350433832430615 0
0.3125 0.5 1
0.06137275144976183 0.10299327475485577 0
0.20976565150540835 0.19047627531873426 0
0.15540485709019297 0.28621415458173644 0
0.09382792804147144 0.4240384274079185 0
0.3544866144810061 0.21226548878251036 0
0.25871899951071 0.1489759094578175 0
0.38620613913722185 0.35370668348452283 0
0.30262073774577175 0.38737743648203926 0
0.3689977351881036 0.2951052575221083 0
0.09158962845663085 0.36301524061491675 0
0.0 0.25 1
0.3743069416204812 0.18662548328378378 0
0.439519307993413 0.20120728173064045 0
0.11938531219995097 0.1618251193503113 0
0.1973157364595854 0.39472569662254714 0
0.19960663788632088 0.2811566291006686 0
0.1875 0.5 1
0.1403553487408619 0.19945844397867046 0
0.1662098898647691 0.20384102446363053 0
0.2776777356702216 0.0833177404773667 0
0.30243569114367397 0.3454537682578683 0
0.3271397099420481 0.30536645973034765 0
0.14189309888357174 0.3825967228752545 0
0.3862898163700223 0.328331721070709 0
0.09813958247948726 0.1988543095039068 0
0.3387400773609335 0.3768670491321886 0
0.3511459373304079 0.329319872494898 0
0.36110010926864006 0.12040605487673187 0
0.16686419176176764 0.3408841658636249 0
0.3070201902791339 0.17150841091952185 0
0.12592190364866235 0.3157978576885269 0
0.42091467573106794 0.1449565324755408 0

Edges
22
1 11 1
1 12 1
2 16 1
2 29 1
3 15 1
3 21 1
4 7 1
4 8 1
5 24 1
5 29 1
6 43 1
6 60 1
7 54 1
8 60 1
9 21 1
9 43 1
10 12 1
10 54 1
11 13 1
13 14 1
14 16 1
15 24 1

Triangles
126
2 29 36 0
2 36 16 0
4 7 47 0
6 42 43 0
7 25 53 0
7 54 25 0
8 4 47 0
8 17 60 0
9 28 21 0
9 37 28 0
9 43 37 0
10 44 22 0
11 13 35 0
11 35 44 0
11 44 12 0
12 1 11 0
13 30 35 0
13 63 30 0
15 3 21 0
16 36 39 0
16 39 14 0
17 8 47 0
17 58 42 0
17 66 58 0
18 20 19 0
18 49 73 0
19 45 18 0
20 32 19 0
20 65 32 0
20 73 48 0
21 28 15 0
22 44 57 0
22 57 68 0
23 22 68 0
23 25 54 0
25 74 53 0
26 27 62 0
26 59 46 0
27 23 68 0
27 41 23 0
27 61 62 0
28 24 15 0
28 33 24 0
28 69 50 0
29 75 36 0
30 31 35 0
30 63 49 0
31 30 45 0
31 45 62 0
31 57 35 0
32 59 19 0
33 5 24 0
33 28 50 0
33 38 5 0
33 50 67 0
34 52 65 0
36 71 39 0
37 51 69 0
38 34 48 0
38 48 55 0
38 52 34 0
40 32 64 0
40 42 58 0
40 72 59 0
41 25 23 0
41 27 46 0
41 46 74 0
42 37 43 0
42 40 51 0
42 60 17 0
44 10 12 0
45 19 26 0
45 26 62 0
45 49 18 0
46 27 26 0
46 72 74 0
47 53 66 0
48 34 20 0
49 45 30 0
49 63 73 0
50 70 67 0
51 37 42 0
51 40 64 0
52 33 67 0
52 38 33 0
52 67 70 0
53 47 7 0
54 10 22 0
54 22 23 0
55 48 73 0
55 56 38 0
56 5 38 0
56 29 5 0
56 55 75 0
57 31 61 0
57 44 35 0
57 61 68 0
59 26 19 0
59 32 40 0
60 42 6 0
61 27 68 0
61 31 62 0
63 13 14 0
63 14 39 0
63 39 71 0
63 71 73 0
64 32 65 0
64 65 70 0
64 69 51 0
65 20 34 0
65 52 70 0
66 17 47 0
66 72 58 0
69 28 37 0
69 64 70 0
70 50 69 0
71 36 75 0
71 55 73 0
72 40 58 0
72 46 59 0
72 66 74 0
73 20 18 0
74 25 41 0
74 66 53 0
75 29 56 0
75 55 71 0

End
