MeshVersionFormatted 1

Dimension
2

Vertices
502
0.0 0.0 1
0.5 0.0 1
0.5 0.5 1
0.0 0.5 1
0.25 0.0 1
0.5 0.25 1
0.25 0.5 1
0.0 0.25 1
0.0 0.375 1
0.125 0.5 1
0.3227990563800128 0.21447818742768074 0
0.5 0.125 1
0.5 0.1875 1
0.2680934120007765 0.09335712268694228 0
0.2764919627376224 0.19199161688726663 0
0.375 0.0 1
0.125 0.0 1
0.21403472895994283 0.23242999879723153 0
0.375 0.5 1
0.1875 0.5 1
0.08732944639935167 0.3415372622019014 0
0.0625 0.5 1
0.0 0.125 1
0.17121904975464824 0.13182651917431085 0
0.0 0.1875 1
0.08425008210693212 0.2847477728720667 0
0.0625 0.0 1
0.0 0.0625 1
0.08006433075391028 0.05788988418867804 0
0.1875 0.0 1
0.3125 0.0 1
0.3171518632845792 0.07774735119412196 0
0.46503109118622266 0.10322775834335889 0
0.5 0.0625 1
0.5 0.375 1
0.5 0.3125 1
0.46297969022596075 0.35679844833535895 0
0.5 0.4375 1
0.34627055213172436 0.44747320211418606 0
0.2801930983255174 0.4450397087609805 0
0.4375 0.5 1
0.0 0.4375 1
0.3083903471451017 0.23016582864217716 0
0.34612376948567125 0.21007487092397625 0
0.45911320963198254 0.1445955799257492 0
0.4115037669098925 0.2265536708392451 0
0.3716057432404914 0.23017979187990212 0
0.2809434851203396 0.22857286086218134 0
0.2985531415663987 0.20754912238494155 0
0.2695484365548192 0.13829285844277 0
0.24874447301087546 0.21205892809968563 0
0.22743830535491702 0.26851671254407644 0
0.3066121881034848 0.28177007836472423 0
0.10708473716144137 0.381772119749365 0
0.10256939605578484 0.32367152317656767 0
0.07977821777543498 0.31280808020564116 0
0.11894923153112158 0.29370442703527166 0
0.04899551316864547 0.2841975235521315 0
0.04872105180416707 0.3425012429037641 0
0.13478095536617202 0.09133005236731863 0
0.2782759042395312 0.05547013626285631 0
0.1675806810059098 0.044259022327738456 0
0.2916088174131547 0.09297951743135692 0
0.43556275339639744 0.1137566663174456 0
0.4042302427538179 0.03938053078602704 0
0.4360820495737861 0.07059380278842278 0
0.44443768010166923 0.2713689087224775 0
0.45615649011146403 0.21798807191067007 0
0.36826867463942914 0.31951104261177043 0
0.3939802762005761 0.2652436740969682 0
0.4423163154491115 0.321998778106901 0
0.4658555286955754 0.3971468757412389 0
0.3490294846177529 0.4102299025571822 0
0.30584171083321615 0.5 1
0.0 0.313893407463111 1
0.44073989235293787 0.0 1
0.2753667520835278 0.2573269527225741 0
0.4270965616401525 0.19276854405544006 0
0.33432183162074186 0.2386103976037426 0
0.2718725527433304 0.16316542754844415 0
0.22246513717413244 0.19793868056320293 0
0.2480633518791075 0.18056474347015466 0
0.18136629251439385 0.24449040085042142 0
0.25844198871580953 0.2779500701728205 0
0.3114802712925585 0.30515510728206713 0
0.334204772188334 0.30825897384477335 0
0.13300884252056658 0.42690699180238934 0
0.04745689479228544 0.3941129660629967 0
0.19125482811383002 0.3060427417295938 0
0.20531467041397733 0.18347148113273967 0
0.13240342012523162 0.2588802341802089 0
0.108180457938755 0.16158176938218474 0
0.13557764904116232 0.16870944218062253 0
0.14523602137214264 0.1536555007734358 0
0.12607908788383157 0.19604303336840062 0
0.08791201187163347 0.21490229840341848 0
0.10897546153341846 0.27414739091892787 0
0.04278842229322107 0.1442552083507692 0
0.11543616887455528 0.09067372480784582 0
0.04890624854232474 0.1030701401362917 0
0.11257025297917231 0.10904298845183592 0
0.2157221425009991 0.050024543785079006 0
0.29806671294911063 0.11690958093200585 0
0.3336382149367666 0.04369469950796891 0
0.13254986831390667 0.2831591771050765 0
0.3954506682176683 0.11567503508084923 0
0.22409075626410474 0.35731044759080766 0
0.2115312437250455 0.31386660614888184 0
0.25614295442167206 0.34577591503895955 0
0.23321949857057242 0.3278525934991791 0
0.39361561630481734 0.3531948275856804 0
0.40783446106821025 0.30196108166565744 0
0.4079202547770447 0.3355877256926951 0
0.43026329516430645 0.35513805320796765 0
0.3541257566938398 0.3868440913494863 0
0.3107251454797323 0.37850708761963714 0
0.250250627907734 0.24611072687020635 0
0.34495959805497506 0.32988758579560706 0
0.32358627000016355 0.3381005902833055 0
0.32188680744450426 0.3479722063151321 0
0.3506690808597697 0.3393363289479466 0
0.3726026862682549 0.2975767741891006 0
0.3211238743796945 0.29550851870508255 0
0.3025894785995078 0.2555839494132196 0
0.38335671892522566 0.19188602581593342 0
0.4033199057323191 0.19497428884692494 0
0.35750141181330186 0.26501976710106956 0
0.36687485761828253 0.1845320667390153 0
0.3150286021731965 0.19120013260867558 0
0.3082888977619075 0.14236957343621048 0
0.371039578008667 0.10382270349062417 0
0.15276407054612887 0.2747625390939739 0
0.1986761129749349 0.2029022069922892 0
0.27805955894413786 0.3348119913302892 0
0.32497399948790323 0.3182722069527974 0
0.25217460205106224 0.37693287570849004 0
0.22218269033971141 0.38768633544708037 0
0.24375336685603827 0.41086684039544025 0
0.19047909659312867 0.4057135354160923 0
0.21000207484096356 0.41240792746084926 0
0.2181513203576691 0.4508888138427283 0
0.10184464706520967 0.35910657531982976 0
0.135803003569621 0.3150030576246633 0
0.10172384488918856 0.3006763679360413 0
0.20412936078839983 0.3731347041047631 0
0.18208714011131216 0.32370785105138655 0
0.14183054166183426 0.33493442057259426 0
0.1583936580693829 0.3888435061952401 0
0.098644228627377 0.46693381858753874 0
0.1433053855703286 0.11612204454039257 0
0.12253048113805848 0.15479412633872522 0
0.17690100937425432 0.14307766674410305 0
0.15907032150035758 0.17052933108782348 0
0.19430064986844758 0.17060481183195303 0
0.1568003186698282 0.18396136563816654 0
0.18207808418994437 0.20222981396107084 0
0.16352242740727438 0.22936203276559286 0
0.07569867075387303 0.13037337781617503 0
0.09199080027633702 0.0980181295625594 0
0.32800376283787586 0.11345945251812 0
0.39717617053100546 0.07434277313841572 0
0.1687119016826059 0.289678347752627 0
0.41036007269894254 0.09935366507819253 0
0.38214369194056746 0.4370457465698902 0
0.38282853512620246 0.4048830014111922 0
0.39124827043619587 0.41907815226621165 0
0.4191479778446667 0.3747143550341304 0
0.3697693368783935 0.4201176624552488 0
0.31778123119085305 0.4111324801361865 0
0.3086543862702029 0.3550071098079256 0
0.23703415082757895 0.2990355212322539 0
0.35102343674581316 0.31405083962774055 0
0.34103433169863306 0.33753275477445105 0
0.3586579586137145 0.32963883194773463 0
0.34403497267420996 0.2918900101666044 0
0.41376258839112073 0.12327451768655602 0
0.32669815546769415 0.270979572905254 0
0.352335712256274 0.15228411548964224 0
0.24331400706457662 0.1512703101585419 0
0.31896235837882086 0.33177006813213467 0
0.28230485756532475 0.3160973825155924 0
0.2812580600726065 0.3982957948271854 0
0.28413717466444255 0.3621496187396511 0
0.18304874677969618 0.4276497333019331 0
0.20955190352472985 0.335090372128242 0
0.14679042227574088 0.382927693008505 0
0.155236795688781 0.43612417595033093 0
0.15484213433896768 0.07424904434524511 0
0.13854787656346698 0.23103642778232678 0
0.13416933045333448 0.1577357464356314 0
0.1253644642731837 0.1667397069338159 0
0.1831773995530667 0.07659131660441347 0
0.35705894228196766 0.11160481312038031 0
0.3814618039603845 0.11307522435025301 0
0.3961161860885677 0.46192719600380183 0
0.4402471181167633 0.380068778388566 0
0.33517047336740485 0.3569565694953504 0
0.2603482558386168 0.317310436820233 0
0.41252801317903726 0.1544625340478414 0
0.3983612499456638 0.13255027244655815 0
0.3413664189469545 0.14642503231166573 0
0.22310681612893632 0.17204228961743215 0
0.20184273255710566 0.11275638064439122 0
0.2291543707293398 0.1322639962793165 0
0.1721946316296865 0.46259855099938313 0
0.20977933192265336 0.12859118282358423 0
0.11390997251162964 0.13309758039728442 0
0.15727715763832323 0.10835987427987186 0
0.16773796140142572 0.0964586029385829 0
0.11078548809612233 0.241390166442768 0
0.09747067448436415 0.14573705165871575 0
0.3444447225216273 0.11072763518325515 0
0.3537793600006611 0.09728127540777039 0
0.13527426486315675 0.3017444168421829 0
0.3890489409900218 0.14029382618674638 0
0.36773612837497427 0.39930501224520887 0
0.3340670592416939 0.3895416706097377 0
0.352609230571925 0.19082554630991005 0
0.304870354567093 0.3310457930313807 0
0.3037464402284598 0.32123058738228216 0
0.3119378450769944 0.3391514151106103 0
0.10826765924608742 0.4347920521672728 0
0.15246504053835808 0.21638702639184051 0
0.3344724800381283 0.19424804558628608 0
0.357207539763979 0.17598150272804552 0
0.18763569142063483 0.11502849869639042 0
0.15147458745302034 0.3531150048163581 0
0.1366483515830873 0.460701422741166 0
0.15625 0.5 1
0.3703156390670391 0.3603770595561079 0
0.3879864910488855 0.33888328739365653 0
0.29859785030251634 0.15263938282349604 0
0.3464993136343882 0.35709818099691754 0
0.4115375847246902 0.17417193244180937 0
0.42735703265937774 0.14045937103253414 0
0.387828658726606 0.2103008377600819 0
0.2767632375122504 0.11701307583773064 0
0.3679248210295779 0.20319547065664556 0
0.31204731427487964 0.17957728842223836 0
0.28542076896915414 0.27738782375321863 0
0.31460633793484605 0.13466548146306664 0
0.3858541754352953 0.3217306065481121 0
0.35281675751366054 0.34649636997555167 0
0.3290491894109585 0.1462989684283034 0
0.17548796629798916 0.26900924655190916 0
0.1737437979977771 0.40547455190266446 0
0.08049833811854215 0.3700668341077539 0
0.13216920405267707 0.4080619566329248 0
0.1380145800411944 0.32386823990422214 0
0.1751557469627458 0.377330538632641 0
0.15373747397825083 0.3255152925461107 0
0.1759577961721654 0.11115819621399617 0
0.14519858434883132 0.17513113753388193 0
0.32074440424159784 0.14451873428857667 0
0.32209465467706067 0.1326880656345306 0
0.38295065433491016 0.1282640186742961 0
0.37267787515276796 0.3364026104934051 0
0.14589283749083198 0.41008354837857586 0
0.09160848039238216 0.40514992563869856 0
0.11801694619660853 0.3292341353109715 0
0.10701741323535581 0.3411837667539333 0
0.1977384571001935 0.32211411899459774 0
0.3805630916742136 0.3919069900212037 0
0.32574813866996577 0.17843819846136932 0
0.12976910147398074 0.3329312529351109 0
0.2922649932231957 0.3282800802244562 0
0.13364786504013276 0.3440136364122194 0
0.34319922312001544 0.17844728749634667 0
0.16402237048834048 0.37050654971757313 0
0.2874628506683761 0.17400017184983513 0
0.3599100772666381 0.1661257657888984 0
0.1692465831143423 0.32921463748838403 0
0.1269320399211561 0.3540830287110955 0
0.3530231780315796 0.12406825915961905 0
0.454232475424197 0.18081752799901912 0
0.2493441395251268 0.1195658207302031 0
0.19957075234728783 0.35232680337223754 0
0.18728412662277236 0.10126843059875908 0
0.04514421009039224 0.22983261613004077 0
0.4387725135449583 0.40532090660417297 0
0.3583682633077899 0.14516629990729832 0
0.36763832886867237 0.1630667730195327 0
0.3771922039227683 0.16402372887964756 0
0.3849753634474288 0.15365997228962933 0
0.24021827348330554 0.08776769137219088 0
0.29009970653023115 0.30494232215307654 0
0.30651157870191026 0.3144589709924356 0
0.19016000941400577 0.37919459297140007 0
0.1998837296639406 0.3911971410225278 0
0.14716367138681385 0.39431382353865374 0
0.11562882291201293 0.1793860979607352 0
0.1853606773925039 0.18631645106450687 0
0.1702367473156641 0.1942281768816115 0
0.3461772969457209 0.07537948864719117 0
0.371356299252314 0.053188342034851455 0
0.4305379428270743 0.45225478859183843 0
0.2097523614100604 0.09083899704848786 0
0.29390041482906804 0.2943738322901802 0
0.2069228709586271 0.16457502151759484 0
0.10881650443420691 0.1959137156919359 0
0.17766204080789555 0.2981997343117373 0
0.33716991387921524 0.12312411862202462 0
0.3961778266724707 0.3665288011469252 0
0.1385044943088801 0.209243647416297 0
0.11776982107031823 0.21430043506869964 0
0.07761552324955234 0.1575612911908062 0
0.09264487771822544 0.1796034925634854 0
0.38824827925431915 0.09852260310477212 0
0.19933573008946567 0.14152302097441744 0
0.39970481948628783 0.1618793242398371 0
0.34234078207899 0.16503553445028274 0
0.2856915906162723 0.1480315648940867 0
0.19842320200410807 0.2654480463452339 0
0.20888327857493513 0.2889947853535321 0
0.361727395601546 0.3767047850067318 0
0.2750468425091241 0.2977204243473574 0
0.36838327849656427 0.38414169806212795 0
0.15605161427488679 0.37632627671475183 0
0.3015427776893022 0.1675559872119428 0
0.3371371614605419 0.3208660747654229 0
0.1581715618865275 0.2514232903176624 0
0.16541283387921812 0.38039619022573123 0
0.18764433605446923 0.28630889066874193 0
0.16683306963623928 0.12053561943763613 0
0.1881713595912088 0.14542705113928758 0
0.15417881066492423 0.20056974260654706 0
0.3125788078466698 0.10366839959471628 0
0.3152702835539951 0.12250438217424052 0
0.40814191654903986 0.3602199114291831 0
0.06894465987331422 0.43982045686752874 0
0.2985326701277827 0.18642302314878317 0
0.1624959529709558 0.35711815388766643 0
0.3340188530303442 0.3430467536192685 0
0.37794559905946434 0.14303975598816895 0
0.22444637804152834 0.11109204139686128 0
0.1978392789051081 0.15534855771915493 0
0.38276806991083084 0.36549732934490003 0
0.3336616703558549 0.0967897373042561 0
0.12380793107285304 0.061667351265260635 0
0.464030489944662 0.463942971229989 0
0.1735991184035717 0.36258601014276487 0
0.3802130029169223 0.3795070931020984 0
0.15888291873744165 0.4010700980764632 0
0.3075061028193262 0.29680153262860043 0
0.3714526335351782 0.3715974114222917 0
0.36655568703891345 0.3497266412910909 0
0.0804508295735073 0.2557600519201759 0
0.35978058919865336 0.34195253333794356 0
0.12680998360307555 0.3778357524029481 0
0.12352492533278779 0.39436561718066854 0
0.058331483295797654 0.18532097217651985 0
0.3680023581943791 0.1215394316763058 0
0.42602233889060015 0.4244275720774552 0
0.406158011523857 0.4348430158630912 0
0.21554715186554227 0.14924591336319723 0
0.1674104648801572 0.2108264247419511 0
0.3279871610360179 0.32510204002356213 0
0.13911742871849203 0.3527144877268725 0
0.18486191789644899 0.2204260405391432 0
0.45445265513355815 0.4300270718016301 0
0.31214141223417347 0.3281324851116385 0
0.1338927909097071 0.12132825034916245 0
0.13443572910913043 0.14178517151487555 0
0.14867340771902338 0.09824390090703111 0
0.37046861145091836 0.08374592250519998 0
0.1807839834379847 0.17151714104692892 0
0.18231610518009772 0.3915995012807348 0
0.3997913137706847 0.14734851976753247 0
0.14853490691142554 0.2944338506024044 0
0.14877143957357766 0.3073012277171358 0
0.39379110013906415 0.17771334589797347 0
0.40979916062591204 0.1392056531655644 0
0.14424377258309654 0.3182578888040945 0
0.36221020620326416 0.15638184640949598 0
0.2962462903097277 0.31571601215884754 0
0.1629958731645157 0.3109244797972835 0
0.17825467111374052 0.12161832285555708 0
0.3986727075351419 0.3837722268344368 0
0.38916385803584563 0.38596560835762483 0
0.12026580554019899 0.3129880923858465 0
0.3967239566184544 0.4046444335097754 0
0.40988118146418273 0.3997590076564946 0
0.1571079169307157 0.15183004208596346 0
0.4087591782782317 0.4152527588705786 0
0.14215437290201666 0.19137685480234726 0
0.4040008644037373 0.37424746462697733 0
0.15220493766735857 0.16137261451515855 0
0.1151295082793745 0.35240004099478844 0
0.12254174427222805 0.34205225542027423 0
0.3999271021909185 0.3932921782611773 0
0.13256647072198335 0.17936965876297611 0
0.1870580066443739 0.36551215485709393 0
0.15372533892836968 0.36464855929390744 0
0.33284327724831647 0.33206809110397917 0
0.4316138402625491 0.16428630108921827 0
0.14361046959995316 0.34595140540014474 0
0.16177359457492066 0.16149024026139347 0
0.28919936940073165 0.13152403623570597 0
0.3446485078416744 0.3475842269082032 0
0.3604235209900971 0.3578935243891559 0
0.16118948751762396 0.41710372240098637 0
0.16980187383663584 0.3519640387606472 0
0.18329786277607207 0.15768370513729799 0
0.1593382380207759 0.3369236003180239 0
0.3686379095415987 0.17052897986433171 0
0.19178519678087588 0.33553537751221796 0
0.30434540884596023 0.13032556549919347 0
0.1256538099736524 0.14670517937259622 0
0.18096999380135242 0.3494435754800895 0
0.37065680715667026 0.13502690970328976 0
0.37924563015601614 0.3506921169856412 0
0.31310263190868987 0.15564118814501937 0
0.3915139176363457 0.3758768256471703 0
0.3436512985280189 0.3770778541261117 0
0.2568273787992887 0.29836063633047305 0
0.1317835956023249 0.13039156988775463 0
0.11900773636861517 0.3651135494221705 0
0.3425614556497035 0.366490341852476 0
0.1695963032300013 0.39067596426754797 0
0.37963779321897184 0.1758172808802774 0
0.12215578366027452 0.12638842409301895 0
0.13589401097462303 0.37728246363717294 0
0.13490956023686484 0.36518697892129004 0
0.12402574461706753 0.13783305265062412 0
0.11510829654689841 0.14708412149780917 0
0.17893489991343492 0.33627336669549296 0
0.31730372210882085 0.3231804946129286 0
0.31011497149307216 0.32246502317136516 0
0.3211930888693716 0.36147859217078154 0
0.3568224538997277 0.34996643996783555 0
0.11550553590020857 0.41036227241430984 0
0.4231047167647804 0.3922859112958217 0
0.17542879819797005 0.3110514506798406 0
0.3525688801676432 0.3618957737516722 0
0.4094527719109 0.3860175979295263 0
0.3308426129036081 0.3716217681248665 0
0.3526684658621764 0.37248154336474887 0
0.4212182505105758 0.40749206108944286 0
0.14432837282384045 0.1641553992067248 0
0.15278674917241591 0.1188671375783093 0
0.15752707343902783 0.12988007247030603 0
0.17072129951599893 0.17866607018393724 0
0.14429986597438366 0.12733169989354137 0
0.16274326743410383 0.14137559343947648 0
0.15079467528693438 0.14024305606939036 0
0.17066956243327422 0.16606146695726026 0
0.16775916680017375 0.15384518794263669 0
0.35847650745656406 0.13621574113058157 0
0.36725959415843673 0.14502694065887062 0
0.35265734152954226 0.353195410702479 0
0.37342405894616115 0.15480904955515623 0
0.13481916785828846 0.10526132404420802 0
0.3280886712790024 0.12716050942878887 0
0.35003463510329225 0.14357444090642715 0
0.38699149026328367 0.1673849451410863 0
0.2887082443644235 0.16078301064754177 0
0.33119529167260725 0.1671428205114387 0
0.34612047554901787 0.134807433084179 0
0.33415197196356955 0.1335420490593017 0
0.10106663468545828 0.12257285256620425 0
0.12366144493670014 0.11361238415349115 0
0.135359220447143 0.38797332273147683 0
0.1472725949040909 0.3259216921119987 0
0.39101590403095077 0.394940857378738 0
0.3203745389935435 0.3088010135027664 0
0.16088210067316416 0.3469675121109343 0
0.15200228802122578 0.3330284191373462 0
0.361548911237493 0.3666247342838879 0
0.1489865284925683 0.4227980331618272 0
0.30052872667203284 0.30546892318294966 0
0.32440378581546925 0.15581972554967088 0
0.31832763749396664 0.16781954695407625 0
0.11464799793559284 0.12099691401654508 0
0.14548572702820034 0.3629827380378425 0
0.16955478095434065 0.34018206141705554 0
0.13786174673342294 0.39884176357440226 0
0.14527366796517896 0.3716960634377518 0
0.15192873526943623 0.34320127003375644 0
0.18862560301242723 0.1289714422761315 0
0.31465554579017224 0.315519851792453 0
0.10290904825548336 0.07615557937648743 0
0.29739544684923713 0.34115964434786805 0
0.09358688155570566 0.16234126772105792 0
0.11024851059211072 0.39832023690673934 0
0.3496343152104924 0.17027384223649075 0
0.3441914170567901 0.15351213743486095 0
0.3521334703964478 0.1607795078737073 0
0.12881843550143895 0.3222969974154371 0
0.15251557519868963 0.3216629266210736 0
0.15776267033968386 0.3194892368149492 0
0.1699883499071708 0.3029155977539585 0
0.1547441499200228 0.3113954249143193 0
0.3946123613634968 0.38952741513982264 0
0.2967936055287045 0.1415489427926701 0
0.1590234332623529 0.30326273904041895 0
0.3230454381187671 0.32648071351586905 0
0.1588804854910052 0.3266220533407697 0
0.16829774819493026 0.3197884287054 0
0.126994572221469 0.10341132896812644 0
0.3253957616711052 0.33140057200900513 0
0.15092953991172503 0.16759058063418653 0
0.3361018610126706 0.15433401566204424 0

Edges
33
1 27 1
1 28 1
2 34 1
2 76 1
3 38 1
3 41 1
4 22 1
4 42 1
5 30 1
5 31 1
6 13 1
6 36 1
7 20 1
7 74 1
8 25 1
8 75 1
9 42 1
9 75 1
10 22 1
10 229 1
12 13 1
12 34 1
16 31 1
16 76 1
17 27 1
17 30 1
19 41 1
19 74 1
20 229 1
23 25 1
23 28 1
35 36 1
35 38 1

Triangles
969
5 61 102 0
7 40 74 0
10 22 149 0
10 149 228 0
10 228 229 0
11 43 49 0
11 49 129 0
11 224 44 0
12 13 45 0
13 6 68 0
13 68 275 0
14 63 237 0
14 237 276 0
14 276 285 0
15 80 270 0
15 82 80 0
16 65 295 0
16 76 65 0
16 104 31 0
17 30 62 0
17 339 29 0
18 52 313 0
18 81 51 0
18 313 83 0
19 74 39 0
20 141 7 0
21 261 142 0
22 4 42 0
22 42 330 0
22 330 149 0
23 98 25 0
24 152 444 0
24 377 479 0
25 279 8 0
25 351 279 0
26 144 56 0
26 347 97 0
27 17 29 0
27 29 28 0
28 1 27 0
28 100 23 0
29 100 28 0
29 339 481 0
32 63 61 0
32 104 294 0
32 338 327 0
33 12 45 0
33 34 12 0
33 64 66 0
33 66 34 0
34 66 76 0
34 76 2 0
35 38 72 0
36 71 67 0
37 35 72 0
37 36 35 0
37 71 36 0
37 196 114 0
38 360 72 0
39 73 168 0
39 74 40 0
39 168 164 0
39 195 19 0
40 169 39 0
40 182 169 0
41 19 195 0
42 9 88 0
42 88 330 0
43 11 79 0
43 48 49 0
43 79 124 0
44 79 11 0
45 13 275 0
45 235 64 0
45 275 395 0
46 70 47 0
46 78 68 0
47 127 79 0
48 15 49 0
48 43 124 0
49 15 331 0
50 179 276 0
50 312 80 0
51 15 48 0
51 48 117 0
51 81 82 0
52 18 117 0
52 84 171 0
53 123 344 0
53 344 298 0
54 142 417 0
54 350 484 0
55 56 144 0
55 144 380 0
55 260 261 0
56 21 59 0
56 55 21 0
57 105 214 0
58 8 279 0
58 26 56 0
59 21 247 0
59 58 56 0
59 75 58 0
60 99 339 0
60 364 452 0
60 452 499 0
61 5 31 0
61 63 14 0
61 104 32 0
62 30 102 0
62 188 339 0
63 327 103 0
64 33 45 0
64 235 176 0
65 161 295 0
66 64 163 0
66 161 65 0
67 6 36 0
67 46 68 0
67 68 6 0
67 71 112 0
67 112 70 0
69 172 122 0
69 257 174 0
70 46 67 0
71 37 114 0
72 360 280 0
73 39 169 0
73 115 216 0
73 169 217 0
73 217 115 0
75 8 58 0
75 59 9 0
76 66 65 0
77 48 124 0
77 117 48 0
78 126 234 0
78 275 68 0
79 44 47 0
79 177 124 0
80 179 50 0
80 312 456 0
81 90 202 0
81 133 90 0
81 202 82 0
82 15 51 0
83 245 321 0
83 359 18 0
84 52 117 0
84 77 240 0
84 117 77 0
84 240 316 0
84 316 415 0
85 123 465 0
85 287 470 0
85 344 123 0
85 465 480 0
86 135 465 0
86 320 135 0
87 187 228 0
87 228 222 0
87 258 469 0
87 431 248 0
88 9 59 0
88 59 247 0
88 247 259 0
89 108 262 0
89 262 146 0
89 301 323 0
89 323 314 0
90 292 154 0
91 105 97 0
91 189 321 0
91 210 189 0
92 291 307 0
92 307 483 0
93 190 439 0
93 191 190 0
93 253 391 0
94 363 445 0
94 383 387 0
94 387 439 0
95 291 391 0
95 391 385 0
96 210 347 0
96 279 351 0
96 307 300 0
97 105 57 0
98 23 100 0
98 100 158 0
98 158 306 0
98 306 351 0
99 60 499 0
99 101 159 0
99 159 481 0
100 29 159 0
101 99 499 0
101 461 473 0
102 30 5 0
102 61 285 0
103 237 63 0
103 327 328 0
103 398 237 0
103 407 398 0
104 16 295 0
104 61 31 0
105 91 132 0
105 369 214 0
106 176 200 0
106 194 308 0
106 200 256 0
106 256 194 0
107 109 136 0
107 185 110 0
107 277 185 0
108 89 314 0
108 110 185 0
108 171 110 0
108 185 262 0
109 107 110 0
110 198 109 0
111 231 113 0
111 303 337 0
112 242 122 0
113 71 114 0
113 112 71 0
114 329 113 0
116 170 429 0
116 183 170 0
117 18 51 0
118 121 173 0
118 172 174 0
118 320 172 0
119 180 500 0
119 221 180 0
120 170 221 0
120 333 197 0
121 118 174 0
121 243 399 0
122 70 112 0
122 127 70 0
123 86 465 0
123 175 86 0
124 53 240 0
124 177 53 0
124 240 77 0
125 128 420 0
125 238 128 0
125 420 371 0
126 46 236 0
126 78 46 0
127 47 70 0
127 122 175 0
127 175 177 0
128 225 405 0
128 405 420 0
129 49 331 0
129 239 264 0
130 254 412 0
131 194 352 0
131 213 365 0
132 91 321 0
132 162 369 0
132 245 162 0
133 18 359 0
133 81 18 0
134 198 181 0
134 266 482 0
135 320 357 0
135 357 496 0
135 427 480 0
136 183 182 0
137 107 136 0
138 137 136 0
138 141 140 0
138 182 40 0
139 367 289 0
140 137 138 0
140 141 184 0
141 40 7 0
141 138 40 0
142 54 247 0
142 247 21 0
142 261 388 0
143 249 488 0
144 26 97 0
144 57 380 0
144 97 57 0
145 107 137 0
145 289 288 0
146 406 426 0
146 498 433 0
147 267 265 0
147 463 467 0
147 478 396 0
148 322 419 0
150 208 440 0
150 362 452 0
150 440 443 0
151 190 191 0
152 403 447 0
153 253 501 0
153 446 442 0
154 336 299 0
154 366 403 0
155 293 326 0
156 133 359 0
156 292 133 0
156 293 292 0
157 223 356 0
157 321 189 0
157 356 359 0
158 159 460 0
158 211 306 0
159 29 481 0
159 101 460 0
159 158 100 0
160 212 302 0
160 327 338 0
160 328 327 0
161 66 163 0
161 308 365 0
162 491 495 0
163 106 308 0
163 176 106 0
164 166 354 0
164 168 166 0
165 166 168 0
165 263 464 0
166 165 381 0
167 114 196 0
167 196 432 0
168 73 216 0
168 216 165 0
169 116 217 0
169 182 116 0
170 120 429 0
170 183 482 0
171 84 415 0
171 314 52 0
172 69 174 0
172 320 86 0
173 121 399 0
174 348 121 0
175 122 172 0
175 123 177 0
175 172 86 0
176 163 64 0
176 235 372 0
177 79 127 0
177 123 53 0
178 281 374 0
178 374 487 0
179 80 82 0
179 355 204 0
180 221 361 0
180 361 427 0
180 427 496 0
181 198 316 0
181 286 375 0
182 138 136 0
183 109 134 0
183 116 182 0
183 134 482 0
183 136 109 0
184 139 140 0
184 187 401 0
186 148 290 0
187 87 469 0
188 60 339 0
188 62 192 0
188 364 60 0
189 223 157 0
189 304 223 0
189 305 304 0
190 94 439 0
191 92 151 0
191 93 391 0
191 291 92 0
191 391 291 0
192 62 102 0
192 209 188 0
193 131 352 0
194 131 308 0
194 256 352 0
195 39 164 0
195 164 354 0
196 37 72 0
196 72 280 0
196 280 432 0
197 233 418 0
197 333 399 0
198 110 171 0
198 134 109 0
198 171 415 0
199 235 395 0
199 310 368 0
199 368 372 0
200 176 372 0
201 486 502 0
202 90 299 0
202 179 82 0
202 299 355 0
203 206 479 0
203 278 297 0
203 479 226 0
204 206 335 0
204 276 179 0
204 335 276 0
205 20 229 0
205 141 20 0
205 184 141 0
205 187 184 0
205 229 228 0
206 203 335 0
209 192 278 0
209 208 364 0
209 252 208 0
209 278 252 0
210 91 97 0
210 96 305 0
210 97 347 0
211 92 483 0
211 207 425 0
211 460 207 0
212 160 338 0
212 213 193 0
213 131 193 0
213 212 338 0
214 143 380 0
214 370 143 0
215 256 200 0
215 334 256 0
216 115 317 0
217 116 436 0
218 44 224 0
218 128 238 0
218 224 268 0
219 428 361 0
220 266 375 0
220 287 428 0
221 119 120 0
221 219 361 0
221 482 219 0
222 228 149 0
222 259 431 0
223 304 326 0
224 11 129 0
224 264 268 0
225 128 218 0
225 218 268 0
225 271 405 0
226 278 203 0
226 377 252 0
227 393 474 0
227 466 332 0
227 474 358 0
228 187 205 0
230 345 468 0
231 242 113 0
231 257 242 0
232 130 412 0
232 494 130 0
233 197 399 0
233 399 450 0
234 126 371 0
234 199 395 0
235 45 395 0
235 199 372 0
236 46 47 0
236 125 126 0
236 238 125 0
237 50 276 0
238 44 218 0
238 47 44 0
238 236 47 0
239 129 331 0
239 319 472 0
240 298 316 0
241 130 407 0
241 255 254 0
242 69 122 0
242 112 113 0
243 121 348 0
243 348 430 0
243 430 450 0
244 201 502 0
244 255 459 0
244 459 201 0
245 83 313 0
245 132 321 0
245 313 323 0
245 323 162 0
246 139 184 0
246 343 419 0
246 401 343 0
247 54 259 0
248 350 476 0
249 143 373 0
249 463 147 0
250 269 341 0
250 341 392 0
250 367 419 0
251 463 489 0
251 489 490 0
252 278 226 0
252 377 324 0
253 153 155 0
253 439 501 0
254 130 241 0
254 244 471 0
254 471 412 0
255 241 328 0
255 244 254 0
255 328 453 0
256 334 410 0
257 69 242 0
257 346 348 0
258 87 248 0
258 248 476 0
258 290 343 0
258 401 469 0
259 54 484 0
259 222 330 0
260 55 380 0
260 265 389 0
260 380 488 0
261 21 55 0
261 260 389 0
262 406 146 0
263 165 216 0
263 216 317 0
263 317 342 0
263 342 379 0
263 379 464 0
264 224 129 0
264 239 472 0
265 249 147 0
265 488 249 0
266 134 181 0
266 181 375 0
266 219 482 0
266 220 219 0
267 358 273 0
268 264 457 0
268 485 225 0
269 250 322 0
269 318 393 0
269 322 318 0
269 332 341 0
270 80 456 0
270 456 319 0
271 225 485 0
271 374 282 0
271 485 487 0
272 146 426 0
272 404 497 0
272 426 475 0
272 475 404 0
272 497 498 0
273 358 423 0
273 389 267 0
274 193 352 0
274 212 193 0
274 302 212 0
274 352 448 0
274 448 458 0
274 458 302 0
277 107 145 0
277 145 392 0
277 392 409 0
278 192 297 0
279 96 347 0
280 353 438 0
281 178 454 0
281 448 449 0
282 283 405 0
282 405 271 0
283 282 451 0
283 284 455 0
284 283 451 0
284 310 455 0
284 334 215 0
284 368 310 0
285 61 14 0
286 316 298 0
287 85 480 0
287 480 428 0
288 392 145 0
289 137 140 0
289 140 139 0
289 145 137 0
290 148 343 0
290 258 476 0
290 462 186 0
290 476 462 0
292 90 133 0
292 366 154 0
293 155 442 0
293 156 356 0
293 442 292 0
294 104 295 0
294 213 338 0
295 161 365 0
295 365 294 0
296 41 195 0
296 195 354 0
296 360 340 0
297 102 285 0
297 192 102 0
297 335 203 0
298 240 53 0
298 344 470 0
298 470 286 0
299 90 154 0
299 336 355 0
300 291 95 0
300 307 291 0
301 89 433 0
301 162 323 0
301 433 491 0
302 458 459 0
304 305 95 0
305 96 300 0
305 189 210 0
305 300 95 0
306 211 483 0
306 307 351 0
307 96 351 0
307 306 483 0
308 131 365 0
308 161 163 0
309 206 355 0
309 336 325 0
309 479 206 0
310 199 234 0
310 234 371 0
311 457 502 0
311 487 485 0
312 232 456 0
312 398 494 0
313 52 314 0
314 171 108 0
315 115 437 0
315 317 115 0
315 437 468 0
316 198 415 0
316 286 181 0
317 315 345 0
318 148 186 0
318 186 477 0
319 239 331 0
319 331 270 0
320 118 394 0
321 157 83 0
322 148 318 0
323 313 314 0
324 24 441 0
324 208 252 0
324 441 440 0
325 152 479 0
325 403 152 0
325 479 309 0
326 356 223 0
326 385 155 0
327 63 32 0
328 160 453 0
328 407 103 0
329 111 113 0
329 114 167 0
329 167 386 0
329 303 111 0
329 386 303 0
330 88 259 0
330 222 149 0
331 15 270 0
332 393 227 0
333 119 394 0
333 120 119 0
333 173 399 0
333 394 173 0
334 284 451 0
334 451 449 0
335 285 276 0
335 297 285 0
336 154 403 0
337 303 413 0
337 411 111 0
338 32 294 0
339 17 62 0
339 99 481 0
340 3 41 0
340 38 3 0
340 41 296 0
341 332 402 0
342 337 413 0
342 345 337 0
343 148 419 0
343 401 258 0
344 85 470 0
345 230 337 0
345 315 468 0
345 342 317 0
346 230 400 0
346 400 430 0
346 411 230 0
347 26 58 0
347 58 279 0
348 174 257 0
348 346 430 0
349 54 417 0
349 350 54 0
349 422 462 0
350 248 431 0
350 349 462 0
350 431 484 0
351 25 98 0
352 256 410 0
352 410 448 0
353 296 354 0
353 354 384 0
353 360 296 0
353 384 438 0
354 166 384 0
355 179 202 0
355 206 204 0
355 336 309 0
356 156 359 0
356 326 293 0
357 320 394 0
357 394 500 0
358 396 227 0
359 83 157 0
360 38 340 0
360 353 280 0
362 416 421 0
362 421 461 0
362 443 416 0
363 94 190 0
363 416 443 0
363 424 416 0
364 150 452 0
364 188 209 0
364 208 150 0
365 213 294 0
366 446 403 0
367 139 246 0
367 246 419 0
367 250 288 0
367 288 289 0
368 200 372 0
368 215 200 0
368 284 215 0
369 105 132 0
369 162 495 0
370 214 369 0
370 369 495 0
371 126 125 0
371 420 455 0
373 143 370 0
373 370 492 0
374 271 487 0
374 281 449 0
374 451 282 0
375 287 220 0
376 433 498 0
376 490 492 0
377 24 324 0
378 379 413 0
378 390 493 0
379 342 413 0
379 378 493 0
380 57 214 0
380 143 488 0
381 165 464 0
381 390 382 0
382 384 381 0
382 432 438 0
383 94 445 0
383 397 387 0
383 447 397 0
384 166 381 0
384 382 438 0
385 253 155 0
385 304 95 0
385 326 304 0
386 167 435 0
386 378 413 0
386 435 378 0
387 153 501 0
387 397 153 0
388 261 389 0
388 417 142 0
389 265 267 0
389 273 388 0
390 378 435 0
390 381 464 0
390 464 493 0
391 253 385 0
392 288 250 0
392 341 409 0
393 318 477 0
393 332 269 0
394 118 173 0
394 119 500 0
395 78 234 0
395 275 78 0
396 267 147 0
396 358 267 0
398 50 237 0
398 312 50 0
398 407 494 0
399 243 450 0
400 230 468 0
400 450 430 0
400 468 434 0
401 187 469 0
401 246 184 0
402 332 466 0
402 409 341 0
402 466 475 0
403 325 336 0
404 467 497 0
404 478 467 0
405 283 420 0
406 185 277 0
406 262 185 0
407 130 494 0
407 328 241 0
408 151 425 0
408 190 151 0
408 363 190 0
408 424 363 0
409 402 475 0
409 406 277 0
409 426 406 0
411 231 111 0
411 257 231 0
411 337 230 0
411 346 257 0
412 319 232 0
413 303 386 0
414 115 217 0
414 217 436 0
414 418 437 0
414 436 418 0
417 388 273 0
417 423 349 0
418 233 434 0
418 434 437 0
419 322 250 0
420 283 455 0
421 207 473 0
422 349 423 0
422 477 186 0
423 358 474 0
423 417 273 0
423 477 422 0
424 207 421 0
424 408 425 0
424 421 416 0
425 92 211 0
425 151 92 0
425 207 424 0
426 409 475 0
427 135 496 0
427 428 480 0
428 219 220 0
428 427 361 0
429 120 197 0
431 87 222 0
431 259 484 0
432 280 438 0
432 382 435 0
433 89 146 0
433 376 491 0
434 233 450 0
435 167 432 0
435 382 390 0
436 116 429 0
436 197 418 0
436 429 197 0
437 115 414 0
437 434 468 0
439 253 93 0
439 387 501 0
440 208 324 0
440 441 443 0
441 445 443 0
442 155 153 0
442 366 292 0
442 446 366 0
443 362 150 0
444 383 445 0
444 441 24 0
444 445 441 0
444 447 383 0
445 363 443 0
446 153 397 0
446 397 447 0
446 447 403 0
447 444 152 0
448 410 449 0
449 410 334 0
450 400 434 0
451 374 449 0
452 461 499 0
453 160 302 0
453 302 459 0
453 459 255 0
454 448 281 0
454 458 448 0
454 486 201 0
455 310 371 0
456 232 319 0
457 264 472 0
457 311 268 0
458 201 459 0
458 454 201 0
460 211 158 0
460 473 207 0
461 101 499 0
461 421 473 0
461 452 362 0
462 422 186 0
462 476 350 0
463 249 373 0
463 251 467 0
463 373 489 0
464 379 493 0
465 135 480 0
466 227 478 0
466 404 475 0
467 251 497 0
470 287 375 0
470 375 286 0
471 457 472 0
471 502 457 0
472 319 412 0
472 412 471 0
473 460 101 0
477 423 474 0
477 474 393 0
478 147 467 0
478 227 396 0
478 404 466 0
479 152 24 0
479 377 226 0
482 221 170 0
485 268 311 0
486 178 487 0
486 311 502 0
486 454 178 0
487 311 486 0
488 265 260 0
489 373 492 0
490 376 498 0
490 489 492 0
490 497 251 0
491 162 301 0
491 376 495 0
492 495 376 0
494 232 312 0
495 492 370 0
496 500 180 0
497 490 498 0
498 146 272 0
500 496 357 0
502 471 244 0

End
