MeshVersionFormatted 1

Dimension
2

Vertices
244
0.0 0.0 1
0.5 0.0 1
0.5 0.5 1
0.0 0.5 1
0.25 0.0 1
0.5 0.25 1
0.25 0.5 1
0.0 0.375 1
0.125 0.5 1
0.4041670106849922 0.3725650663328047 0
0.5 0.125 1
0.5 0.1875 1
0.3752837821408784 0.13722613886057394 0
0.375 0.0 1
0.125 0.0 1
0.375 0.5 1
0.1875 0.5 1
0.0625 0.5 1
0.0 0.125 1
0.0 0.1875 1
0.0 0.3125 1
0.0625 0.0 1
0.0 0.0625 1
0.1875 0.0 1
0.3125 0.0 1
0.2772114219057961 0.4300435865785409 0
0.5 0.375 1
0.5 0.3125 1
0.5 0.4375 1
0.4375 0.5 1
0.0 0.4375 1
0.3798178738392218 0.2763527952458867 0
0.4347286340422505 0.2297115456680703 0
0.4563112486172669 0.1508718316885177 0
0.43388335809190115 0.3019195034047138 0
0.256520486258881 0.21356003815347294 0
0.38731192143296556 0.1743992640909419 0
0.2872466632590801 0.20730783399572844 0
0.42287542860985583 0.11589683429303455 0
0.2706595933894282 0.2381803306497926 0
0.35140039294749437 0.36270692431563106 0
0.294576545798894 0.3664636076365416 0
0.36913556840433853 0.343445664609546 0
0.14026460576635974 0.4157658601 0
0.15103603478575317 0.3799109230995297 0
0.1727102145226569 0.2838210230773322 0
0.14860563957669834 0.16069191030545132 0
0.11733233811506948 0.15482549804853513 0
0.14024523008273776 0.2849470851292047 0
0.19695574824380746 0.25867219786651907 0
0.5 0.04964301178515245 1
0.264731274761023 0.331247850681307 0
0.36347627108046615 0.35781635506108966 0
0.34491115341175693 0.2881931730044854 0
0.3734975591972159 0.22205707750289938 0
0.3400259778166319 0.2538153919907552 0
0.36004174510307074 0.132242069774269 0
0.22400188120370004 0.19721108259768555 0
0.22298936574457787 0.15915847366790856 0
0.18610715351807966 0.1957653274786816 0
0.3772454993548556 0.3573209179766399 0
0.3555311686694196 0.32560277339137567 0
0.21998675106441587 0.4050343436453501 0
0.18038754568365842 0.42068886737312366 0
0.10517373901000067 0.3234931091391108 0
0.19972447185924413 0.3213114773376763 0
0.1458060464968403 0.33032287479121836 0
0.18314528570556643 0.3678878729190528 0
0.10719094898829577 0.4499679181944367 0
0.14394820665591992 0.13233180601260958 0
0.046752081319391355 0.1484698085850962 0
0.09088801826825958 0.1591267604341753 0
0.11724662606511145 0.18593228757692626 0
0.06870050052352333 0.1955836463242509 0
0.1436074786525973 0.3112017894806783 0
0.1250123468421837 0.3059897585297455 0
0.25109155795410726 0.3741975033733566 0
0.3924894653000033 0.3889913365265624 0
0.42867938472927 0.4116583567042704 0
0.35454965805503286 0.4447852749622285 0
0.3611030984341068 0.4057450832674246 0
0.22928666847316906 0.23969475729155054 0
0.4209437162906709 0.3467495738683253 0
0.31227101183767764 0.31324290740546035 0
0.38327578849336463 0.3194033741561352 0
0.40456194268970475 0.19384784368715763 0
0.3588609150089836 0.15228662415378022 0
0.13081932318674724 0.3898381368686428 0
0.056408929539046054 0.42413620309828604 0
0.12373317180612974 0.3410357012824228 0
0.1291070041316535 0.3218556419272857 0
0.12403655409659584 0.13338487876013014 0
0.06375690478404002 0.25700266354510215 0
0.10250027001367834 0.08783264985094467 0
0.1026312104907503 0.2910447258059984 0
0.4035970820339043 0.46078175506249175 0
0.3719446319600726 0.3872225634006657 0
0.3042135706878778 0.3310739173626302 0
0.3729910124862724 0.18631007048205084 0
0.33631026112213724 0.21357708626115693 0
0.10232714557355731 0.40516678465568057 0
0.20218478633173018 0.12434953014181847 0
0.1595059656659012 0.24928669858259372 0
0.1792715267653891 0.09968911929310913 0
0.09740197915371468 0.22229225041527645 0
0.22670790706187213 0.05476581672701321 0
0.4375 0.0 1
0.21267459470998104 0.4528640102538299 0
0.07335726131657012 0.37755912972148215 0
0.32448042127379867 0.1428943703511147 0
0.14852190700558598 0.14939673496438824 0
0.13112493469790742 0.16489763959925718 0
0.06376135531250406 0.3250362219736248 0
0.38050206385532886 0.4194736312039229 0
0.3799021736997734 0.40270855066292505 0
0.3968082092384079 0.3541454887215643 0
0.22460674923694002 0.34421852105366924 0
0.1583585136889821 0.15355565291465625 0
0.09821943814203613 0.34963426312339607 0
0.40239465788763523 0.4182428329337241 0
0.34180657469742 0.16519714244937297 0
0.33895786601772654 0.3342391156752924 0
0.37373437148997257 0.16651503950501395 0
0.18685700939551447 0.39132239320042855 0
0.195636343501796 0.34813444844374547 0
0.05975842692316005 0.08209913360040434 0
0.17638007737443198 0.3480433682576733 0
0.3674636382207465 0.37171917092778045 0
0.11546105495435276 0.2546314310176899 0
0.34411946918067504 0.3534327108486642 0
0.2299738827803115 0.3075398483124558 0
0.1553248007698373 0.09010972450772142 0
0.11914910888268833 0.35784024656224717 0
0.3515427688945874 0.34338877641085946 0
0.33145133440469954 0.3640551082357374 0
0.3125 0.5 1
0.26221369662027777 0.2789361957348342 0
0.4585785290336677 0.35285374368215555 0
0.1304225688818448 0.09949736247061904 0
0.14624635097703959 0.3583814530197946 0
0.3407613797893946 0.3129465558498639 0
0.2110586766963802 0.3713608772363099 0
0.25809397188236743 0.135925812800397 0
0.1587020517599537 0.4536531641283838 0
0.178622285199487 0.17200751384716972 0
0.2841726165459992 0.14802552518634765 0
0.28019910014648625 0.04867083549030049 0
0.29886830278522575 0.09053105429199552 0
0.08349664816330925 0.12076913674840939 0
0.42918634605089306 0.3800964023705061 0
0.3624330823668016 0.30461736501505027 0
0.357764739896468 0.35312607628447307 0
0.28671657963951114 0.11753775619402088 0
0.2495863286643544 0.0933763072693945 0
0.3201130079116907 0.16290187253430752 0
0.31791094775500883 0.13389049544101916 0
0.3923852846928328 0.15229196329121913 0
0.14573902881427298 0.17651008429688067 0
0.13316350120157536 0.21912529878406745 0
0.1152418979652871 0.11465031061972203 0
0.35178429888244045 0.3805970707596214 0
0.16156679484195727 0.397274532913913 0
0.32982785311953333 0.396447087009594 0
0.17122064025044825 0.37985182617658414 0
0.1091569982339695 0.37469003829876685 0
0.19456988503611286 0.15236465825391513 0
0.19896247643173523 0.17398746225253975 0
0.1399272215333425 0.3455614224584381 0
0.14568715407370897 0.11195391990367891 0
0.4603863264451097 0.40051775144126656 0
0.1321936787841631 0.3547539272287358 0
0.1448626116287819 0.03813379219224483 0
0.32165135191566 0.10484938645946568 0
0.22748306988319064 0.1270162332127683 0
0.34352129877173576 0.07960803007932751 0
0.13035249999698756 0.3702908033020382 0
0.3190160854793951 0.34436462177454735 0
0.33601257670037915 0.34538360179078653 0
0.21320320075959048 0.09463827086162611 0
0.18475517233988756 0.06181968331388889 0
0.17911442572319822 0.12973176788592056 0
0.19852367488504216 0.29343209490654504 0
0.13791032220506516 0.1484254245963283 0
0.41973488047235646 0.15344794918297022 0
0.4055635539729328 0.06591322564244392 0
0.22306018330940167 0.2727318997250866 0
0.4507138396846029 0.09742035548317353 0
0.16321222373220665 0.21228144776969976 0
0.3948215623263224 0.4027722028253656 0
0.3246310988709199 0.3227200701496742 0
0.40987726836017635 0.10091020358103968 0
0.4399870848432697 0.1782593294708478 0
0.3500933857790906 0.10616820739457779 0
0.3950524763263055 0.1294739777005508 0
0.3699819147616851 0.12580438593362198 0
0.38091047835561676 0.09871676069137357 0
0.19315999801808795 0.22608742702346207 0
0.3837368954740981 0.37057904112064455 0
0.29754086734159785 0.17457595300592377 0
0.3249972605663714 0.18380760695690188 0
0.16433708743913525 0.1868300917627046 0
0.4487687670294259 0.44931688491826083 0
0.3256773164081626 0.3011557375324712 0
0.1602618413501426 0.16808437637613655 0
0.40871640161267425 0.3960859408985274 0
0.3534397510594332 0.19197148177317386 0
0.29923729901015034 0.2698921090840602 0
0.17833232320499007 0.3244846634538181 0
0.34342815698971807 0.14465959890681038 0
0.17743049101897834 0.3083537798822066 0
0.2908797375903665 0.3056405852228151 0
0.16403341330890045 0.3636770934140215 0
0.3861322321332828 0.33930699553893046 0
0.16117628578272772 0.11555140215857235 0
0.4148652655453273 0.43356278541357485 0
0.31058689778906645 0.20443534393178905 0
0.2620549241926165 0.17550142110272718 0
0.3069349446765769 0.2300896509104943 0
0.16060159026899995 0.3029976032585583 0
0.1836105354643356 0.3323544555566917 0
0.36071062489461814 0.17302985503185042 0
0.10422806693260037 0.0501504886369273 0
0.4084224236011936 0.16931069501125118 0
0.1570429560428857 0.3481922251166825 0
0.16111405585787766 0.1405929230491187 0
0.14217202986174562 0.19937338946717387 0
0.3914882095012422 0.4352107906164745 0
0.3348665020925214 0.1278695918638848 0
0.309111678740331 0.2861457092370582 0
0.1674984597848315 0.332978640568028 0
0.16111562563925286 0.31955243135350836 0
0.4056438065260967 0.3315755644970841 0
0.3779768736068533 0.1506411075873239 0
0.13284228642563775 0.11838061247721911 0
0.3188595953082721 0.15114895323485714 0
0.30895850510483325 0.15532699846728887 0
0.14639332608268762 0.3961857929791611 0
0.17256164167465118 0.1513956078653738 0
0.3229227895932696 0.33276336567594994 0
0.10624183051656423 0.13574651719648886 0
0.13314407461034736 0.07417174724467551 0
0.3227318290286879 0.2832263555030607 0
0.3092917904062486 0.29860845243403805 0
0.3311710015341905 0.1523486079090635 0

Edges
31
1 22 1
1 23 1
2 51 1
2 107 1
3 29 1
3 30 1
4 18 1
4 31 1
5 24 1
5 25 1
6 12 1
6 28 1
7 17 1
7 136 1
8 21 1
8 31 1
9 17 1
9 18 1
11 12 1
11 51 1
14 25 1
14 107 1
15 22 1
15 24 1
16 30 1
16 136 1
19 20 1
19 23 1
20 21 1
27 28 1
27 29 1

Triangles
455
3 30 202 0
5 25 147 0
8 21 113 0
8 89 31 0
9 69 144 0
9 144 17 0
10 78 198 0
10 83 150 0
10 116 83 0
10 205 78 0
11 12 34 0
12 6 33 0
12 33 192 0
13 57 195 0
13 157 233 0
13 194 157 0
14 107 185 0
15 24 172 0
15 172 222 0
16 80 96 0
17 108 7 0
18 4 31 0
20 19 71 0
21 20 93 0
22 15 222 0
23 1 22 0
23 126 19 0
24 5 106 0
25 14 175 0
25 175 147 0
26 42 163 0
26 136 7 0
27 138 28 0
28 35 6 0
29 3 202 0
29 170 27 0
30 96 202 0
32 55 33 0
33 86 192 0
34 39 187 0
34 187 11 0
35 32 33 0
35 33 6 0
35 83 232 0
37 86 99 0
37 157 223 0
38 36 217 0
38 40 36 0
38 218 40 0
39 34 184 0
39 191 187 0
41 130 152 0
41 135 130 0
41 152 53 0
42 52 98 0
42 77 52 0
42 98 177 0
43 53 152 0
43 61 53 0
43 62 85 0
43 85 213 0
44 64 144 0
44 88 237 0
44 101 88 0
45 88 176 0
45 162 237 0
45 212 164 0
46 50 182 0
46 103 50 0
46 210 219 0
47 111 118 0
47 158 112 0
47 183 111 0
48 73 72 0
48 92 183 0
48 183 112 0
49 46 219 0
49 75 76 0
49 76 95 0
50 82 186 0
50 103 197 0
50 197 82 0
51 11 187 0
51 185 107 0
52 131 137 0
52 211 98 0
53 128 41 0
54 32 151 0
54 56 32 0
54 141 203 0
55 32 56 0
55 56 100 0
55 99 86 0
55 100 206 0
56 54 242 0
56 218 100 0
57 13 87 0
57 87 209 0
57 193 195 0
58 59 217 0
58 60 167 0
58 197 60 0
59 58 167 0
59 143 217 0
59 166 102 0
60 188 201 0
60 197 188 0
61 43 213 0
62 141 151 0
64 44 162 0
64 124 63 0
65 90 119 0
65 91 90 0
66 117 125 0
66 125 220 0
66 208 210 0
67 75 231 0
67 90 91 0
67 91 75 0
68 124 164 0
68 142 124 0
68 164 212 0
69 9 18 0
69 44 144 0
69 101 44 0
70 111 183 0
70 225 111 0
70 234 169 0
71 126 149 0
72 73 74 0
72 240 48 0
73 48 112 0
73 105 74 0
73 226 159 0
74 20 71 0
74 71 72 0
74 93 20 0
75 49 219 0
76 91 65 0
77 26 63 0
77 42 26 0
78 97 198 0
79 120 205 0
79 202 215 0
80 114 227 0
81 114 80 0
82 36 40 0
82 40 137 0
82 58 36 0
82 137 186 0
82 197 58 0
83 116 232 0
83 138 150 0
84 211 243 0
85 32 35 0
85 35 232 0
85 151 32 0
86 33 55 0
87 13 233 0
87 121 209 0
87 123 221 0
88 45 237 0
88 101 165 0
88 165 176 0
89 18 31 0
89 69 18 0
90 67 168 0
90 168 171 0
91 76 75 0
92 48 240 0
92 70 183 0
92 160 234 0
93 74 105 0
93 95 113 0
93 105 129 0
93 113 21 0
94 241 139 0
95 65 113 0
95 76 65 0
95 129 49 0
96 30 16 0
96 80 227 0
97 78 115 0
97 128 198 0
97 161 128 0
98 239 177 0
99 55 206 0
99 123 37 0
99 206 221 0
101 69 89 0
101 89 109 0
101 109 165 0
102 174 59 0
103 46 49 0
103 49 129 0
103 159 188 0
103 188 197 0
104 132 180 0
104 179 102 0
104 214 132 0
105 73 159 0
106 147 154 0
107 2 51 0
108 17 144 0
108 26 7 0
108 63 26 0
108 64 63 0
109 89 8 0
110 209 244 0
112 158 73 0
113 109 8 0
113 119 109 0
114 81 115 0
114 115 189 0
114 120 227 0
115 78 189 0
115 81 97 0
116 61 213 0
116 213 232 0
117 52 77 0
117 142 125 0
118 111 225 0
118 204 47 0
119 113 65 0
119 165 109 0
120 79 215 0
120 114 189 0
120 189 205 0
121 87 221 0
122 62 134 0
122 178 239 0
122 190 141 0
123 87 233 0
123 99 221 0
125 68 127 0
125 127 220 0
126 23 22 0
126 71 19 0
126 94 149 0
127 68 212 0
127 212 224 0
127 224 230 0
128 53 61 0
128 61 198 0
128 161 41 0
129 95 93 0
129 159 103 0
131 52 117 0
131 117 66 0
131 182 186 0
132 139 241 0
133 90 171 0
133 119 90 0
133 171 176 0
134 62 43 0
134 130 178 0
134 152 130 0
135 161 163 0
135 163 42 0
135 178 130 0
136 26 80 0
136 80 16 0
137 40 207 0
137 131 186 0
137 207 211 0
138 35 28 0
138 83 35 0
138 170 150 0
139 132 169 0
139 160 94 0
139 169 234 0
140 168 224 0
140 176 171 0
141 54 151 0
141 62 122 0
142 63 124 0
142 68 125 0
142 77 63 0
142 117 77 0
143 59 174 0
143 146 217 0
143 154 153 0
144 64 108 0
145 60 201 0
145 167 60 0
145 201 204 0
146 153 156 0
146 156 236 0
147 106 5 0
147 148 154 0
148 175 173 0
149 72 71 0
149 94 160 0
149 160 240 0
150 79 205 0
150 170 79 0
151 85 62 0
152 134 43 0
153 146 143 0
153 173 156 0
154 148 153 0
154 179 106 0
155 121 200 0
155 199 236 0
155 244 121 0
156 110 235 0
156 228 110 0
156 235 236 0
157 37 123 0
157 123 233 0
157 184 223 0
158 47 204 0
158 201 226 0
159 129 105 0
160 92 240 0
160 139 234 0
161 81 163 0
161 97 81 0
161 135 41 0
162 44 237 0
162 45 164 0
162 124 64 0
162 164 124 0
163 80 26 0
163 81 80 0
165 119 133 0
165 133 176 0
166 59 167 0
166 145 238 0
166 167 145 0
166 181 102 0
168 67 224 0
169 132 214 0
170 29 202 0
170 138 27 0
171 168 140 0
172 180 241 0
173 153 148 0
173 193 228 0
174 154 143 0
175 14 185 0
175 148 147 0
175 193 173 0
176 140 45 0
177 135 42 0
177 178 135 0
178 122 134 0
178 177 239 0
179 154 174 0
179 174 102 0
179 180 106 0
180 24 106 0
180 132 241 0
180 172 24 0
180 179 104 0
181 104 102 0
181 166 238 0
182 50 186 0
182 66 210 0
182 131 66 0
183 47 112 0
184 194 39 0
185 51 187 0
185 191 196 0
188 159 226 0
189 78 205 0
190 98 84 0
190 122 239 0
191 185 187 0
192 34 12 0
192 86 223 0
192 184 34 0
193 57 228 0
193 175 196 0
194 13 195 0
194 184 157 0
194 191 39 0
195 196 194 0
196 175 185 0
196 191 194 0
196 195 193 0
198 61 116 0
198 116 10 0
199 38 217 0
199 146 236 0
199 155 200 0
199 200 216 0
199 216 38 0
200 100 216 0
200 206 100 0
201 158 204 0
201 188 226 0
202 79 170 0
202 96 215 0
203 141 190 0
203 190 84 0
203 242 54 0
204 238 145 0
205 10 150 0
206 121 221 0
206 200 121 0
207 56 242 0
207 218 56 0
207 229 211 0
208 66 220 0
208 220 230 0
208 230 231 0
209 110 228 0
209 121 244 0
209 228 57 0
210 46 182 0
210 208 231 0
211 52 137 0
211 84 98 0
211 229 243 0
212 45 140 0
212 140 224 0
213 85 232 0
214 70 169 0
214 104 181 0
214 181 225 0
215 227 120 0
216 100 218 0
217 36 58 0
217 146 199 0
218 38 216 0
218 207 40 0
219 231 75 0
220 127 230 0
222 94 126 0
222 126 22 0
222 241 94 0
223 86 37 0
223 184 192 0
224 67 230 0
225 70 214 0
225 238 118 0
226 73 158 0
227 215 96 0
228 156 173 0
229 207 242 0
230 67 231 0
231 219 210 0
234 70 92 0
235 110 244 0
235 155 236 0
238 204 118 0
238 225 181 0
239 98 190 0
240 72 149 0
241 222 172 0
242 243 229 0
243 203 84 0
243 242 203 0
244 155 235 0

End
