MeshVersionFormatted 1

Dimension
2

Vertices
151
0.0 0.0 1
0.5 0.0 1
0.5 0.5 1
0.0 0.5 1
0.25 0.0 1
0.5 0.25 1
0.25 0.5 1
0.0 0.25 1
0.0 0.375 1
0.125 0.5 1
0.45571383390261355 0.3102733113380841 0
0.2694014119729196 0.23437768705306972 0
0.3132403968667938 0.21280169417433203 0
0.5 0.125 1
0.5 0.1875 1
0.23491395993099976 0.20662665416072312 0
0.34747078384422436 0.13902813277988318 0
0.20541888517590207 0.17834357435176934 0
0.24469047635478824 0.15096891612437008 0
0.16564124687095805 0.25787278685921405 0
0.375 0.5 1
0.22547101226326408 0.3743055265036864 0
0.1875 0.5 1
0.13134949964448733 0.3195967068050398 0
0.0625 0.5 1
0.0 0.125 1
0.12280099119139996 0.1555840147005367 0
0.05668682425379043 0.2076412375652028 0
0.0 0.1875 1
0.0625 0.0 1
0.0 0.0625 1
0.1875 0.0 1
0.3125 0.0 1
0.23607389593261102 0.31415089184131734 0
0.5 0.3125 1
0.5 0.4375 1
0.4375 0.5 1
0.0 0.4375 1
0.21867217401307038 0.2571710398224937 0
0.36181169086036263 0.31758446507872745 0
0.3114045828950341 0.2553378323715391 0
0.40224019824051577 0.2605585650177926 0
0.3741857257493338 0.17609227313995537 0
0.27548273642231197 0.19010117897852088 0
0.19185540725305872 0.21644557658646144 0
0.31924593793620654 0.36450238327938184 0
0.30434727898624764 0.3340005262794317 0
0.09190111881585547 0.3635947337511461 0
0.17885775286132086 0.15288818578981242 0
0.1555014427687749 0.04670515350601407 0
0.11529889321740669 0.19462628066669305 0
0.15236448695999658 0.21227199794451745 0
0.2740549119173403 0.060134577277670125 0
0.2718154124338322 0.2792462051397358 0
0.38919120313152517 0.31768079631431195 0
0.36422593545223225 0.3412314784695976 0
0.34852732227991906 0.2807473252006353 0
0.37662129111351933 0.12940846443014017 0
0.21844357897962932 0.0475838932617003 0
0.20597976649933866 0.1281656929957305 0
0.18366151143973455 0.39775659208118724 0
0.1910988984290816 0.2965106863845457 0
0.15684392724704216 0.3006663613425667 0
0.1697014567720883 0.31954544600200147 0
0.16944389968099 0.3355438609644217 0
0.14934599602587922 0.17095686012142688 0
0.1774692497382982 0.18560047599600857 0
0.0588128675201349 0.287139519869835 0
0.4504381142676074 0.13551836444094748 0
0.28586927008385954 0.44752396992721455 0
0.2391226261296976 0.09600596442640795 0
0.27867146274712107 0.3251673735319007 0
0.10889738599657527 0.24171396711659485 0
0.3125 0.5 1
0.3274598289755018 0.12774948355342883 0
0.27375587597094303 0.10742247523095222 0
0.049129326509655125 0.34264727697771163 0
0.34311086539850866 0.19795569689992978 0
0.3473229363543515 0.24162111811811893 0
0.38122389643417554 0.201879724494617 0
0.14494675355738748 0.10304749385333672 0
0.3116427662437061 0.17886544149250366 0
0.0 0.3125 1
0.33991996570585864 0.4523534611046361 0
0.3247844568196806 0.07041368668330482 0
0.29824345770476135 0.142348815468991 0
0.343966943180988 0.10809981832500824 0
0.2994267424951759 0.37111111528099644 0
0.08033734181359106 0.44834234005734674 0
0.12119524224657556 0.34339926793203157 0
0.12777096022252513 0.3676815371026629 0
0.10310144992172306 0.14010919851882442 0
0.08382293419755318 0.16965424351634303 0
0.0416483559618386 0.13543369492774926 0
0.1633254354476618 0.41202215708161954 0
0.20930248848797217 0.43418483801481284 0
0.15325189819120855 0.38125715162584944 0
0.19317187269778552 0.3297245284797792 0
0.25570017509413345 0.4008216718605204 0
0.09419346055382724 0.32228489535303245 0
0.14404854699397823 0.14117447997925597 0
0.44464380445131196 0.08357767611848428 0
0.38570999169232584 0.4469086271928076 0
0.40975788128844237 0.12130539333939046 0
0.33986958049498933 0.36656090347729914 0
0.33288152939322313 0.3228798009694555 0
0.15148665129046116 0.32986005557099435 0
0.1184206750755417 0.29302452288199055 0
0.347274667351219 0.4022496559538614 0
0.3754636282848504 0.07313469925274123 0
0.05829478866369497 0.38961305857317413 0
0.15660496697532245 0.443351910316394 0
0.152346252900076 0.35199905195697745 0
0.08898726592594561 0.06262190974437422 0
0.11843808412813073 0.40487139500833574 0
0.3007747943523125 0.4034796224436541 0
0.18344453149664902 0.3659692999015114 0
0.4455228817938678 0.4246032372326578 0
0.30669051382993406 0.09965027839928166 0
0.3196856635987491 0.3826812514412026 0
0.5 0.375 1
0.125 0.0 1
0.4375 0.0 1
0.4391001504963912 0.20058840027231087 0
0.42948812067610764 0.37049053424620704 0
0.1717848536884942 0.1285139778172168 0
0.35450118275577636 0.1493586624376605 0
0.34211205618710167 0.14585997419359498 0
0.37959796500310766 0.3795766428306741 0
0.39385339284487425 0.40689882760011803 0
0.18669344136563074 0.08957677057147086 0
0.4143335919767407 0.3427792594437547 0
0.41939017017442853 0.15345634671503072 0
0.32174407203712707 0.3176711933185363 0
0.3287851172736133 0.15158485867134563 0
0.30827152632634097 0.30000406941612395 0
0.3741472255900811 0.15056127705195027 0
0.3177401462757367 0.3367778430890814 0
0.30332869881799296 0.355413737002805 0
0.34018071278928 0.34342950043828313 0
0.33842294161920733 0.3119445680512215 0
0.38760085354790325 0.1527780192916004 0
0.2715480509278934 0.3775094777512462 0
0.4048924606011527 0.1730170615352983 0
0.36072663608538064 0.17758488962658045 0
0.3588340237852617 0.16244995800203774 0
0.3430317868141495 0.1674242623286154 0
0.34623756293996444 0.3304791137507787 0
0.28699119110764637 0.35255234613050446 0
0.26159777408330537 0.35016149897716625 0
0.5 0.0625 1

Edges
31
1 30 1
1 31 1
2 123 1
2 151 1
3 36 1
3 37 1
4 25 1
4 38 1
5 32 1
5 33 1
6 15 1
6 35 1
7 23 1
7 74 1
8 29 1
8 83 1
9 38 1
9 83 1
10 23 1
10 25 1
14 15 1
14 151 1
21 37 1
21 74 1
26 29 1
26 31 1
30 122 1
32 122 1
33 123 1
35 121 1
36 121 1

Triangles
269
3 37 36 0
5 59 32 0
6 11 42 0
7 23 96 0
7 70 74 0
7 96 70 0
8 29 28 0
8 68 83 0
9 77 111 0
10 25 89 0
10 89 112 0
11 6 35 0
11 55 42 0
11 121 125 0
11 132 55 0
12 16 44 0
12 41 54 0
13 41 12 0
13 44 82 0
13 78 79 0
15 6 124 0
15 124 69 0
16 12 39 0
16 18 19 0
17 58 127 0
17 75 87 0
18 45 67 0
18 49 60 0
19 44 16 0
19 60 71 0
19 86 44 0
20 39 62 0
20 52 45 0
20 108 73 0
21 74 84 0
21 84 103 0
21 103 37 0
22 34 150 0
22 61 117 0
22 96 61 0
22 143 99 0
23 10 112 0
23 112 96 0
24 90 100 0
24 100 108 0
25 4 38 0
25 38 89 0
27 66 51 0
28 29 94 0
28 73 68 0
28 93 51 0
30 122 114 0
31 1 30 0
31 114 94 0
32 50 122 0
33 110 85 0
33 123 110 0
34 54 72 0
34 72 150 0
37 118 36 0
38 9 111 0
39 12 54 0
39 20 45 0
39 45 16 0
40 56 148 0
41 57 136 0
42 55 57 0
42 124 6 0
43 137 142 0
43 145 146 0
44 13 12 0
45 18 16 0
45 52 67 0
46 88 139 0
46 105 120 0
46 138 140 0
47 72 136 0
47 134 138 0
47 138 139 0
48 115 111 0
49 18 67 0
49 101 126 0
49 126 60 0
50 32 59 0
50 114 122 0
51 73 28 0
51 93 27 0
52 20 73 0
52 51 66 0
52 66 67 0
53 5 33 0
53 71 59 0
53 85 119 0
53 119 76 0
54 34 39 0
54 41 136 0
55 56 40 0
55 132 56 0
56 129 105 0
56 140 148 0
57 40 141 0
57 55 40 0
57 79 42 0
58 87 110 0
58 104 142 0
59 5 53 0
59 71 131 0
59 131 50 0
60 19 18 0
60 131 71 0
61 97 117 0
62 39 34 0
62 98 64 0
63 20 62 0
63 24 108 0
63 107 24 0
64 63 62 0
64 65 107 0
65 64 98 0
65 98 117 0
66 27 101 0
66 49 67 0
68 8 28 0
68 77 83 0
68 108 100 0
69 14 15 0
69 102 14 0
69 104 102 0
70 84 74 0
71 76 19 0
72 47 149 0
72 54 136 0
72 149 150 0
73 51 52 0
75 128 135 0
76 71 53 0
77 9 83 0
77 68 100 0
78 13 82 0
78 80 79 0
78 82 147 0
79 41 13 0
79 57 41 0
80 42 79 0
80 43 144 0
80 78 145 0
80 124 42 0
81 50 131 0
81 101 92 0
81 114 50 0
82 44 86 0
82 86 135 0
84 70 116 0
85 53 33 0
86 19 76 0
86 75 135 0
86 76 119 0
87 58 17 0
87 75 119 0
88 120 116 0
88 143 149 0
89 38 111 0
90 24 107 0
90 91 48 0
90 107 113 0
91 90 113 0
92 27 93 0
92 94 114 0
92 101 27 0
93 28 94 0
94 26 31 0
94 29 26 0
94 92 93 0
95 96 112 0
96 95 61 0
96 99 70 0
97 61 95 0
97 91 113 0
97 95 115 0
97 115 91 0
98 34 22 0
98 62 34 0
99 96 22 0
100 48 77 0
100 90 48 0
101 49 66 0
101 81 126 0
102 151 14 0
103 118 37 0
104 69 133 0
104 110 102 0
104 133 142 0
105 129 109 0
105 140 56 0
106 134 141 0
106 141 148 0
107 63 64 0
107 65 113 0
108 20 63 0
108 68 73 0
109 103 84 0
109 116 120 0
109 120 105 0
109 130 103 0
110 87 85 0
110 104 58 0
111 77 48 0
111 115 89 0
112 115 95 0
113 117 97 0
114 31 30 0
114 81 92 0
115 48 91 0
115 112 89 0
116 70 99 0
116 109 84 0
116 143 88 0
117 98 22 0
117 113 65 0
118 103 130 0
118 121 36 0
118 130 125 0
119 75 86 0
119 85 87 0
120 88 46 0
121 11 35 0
123 102 110 0
123 151 102 0
124 80 144 0
124 133 69 0
125 121 118 0
126 81 131 0
126 131 60 0
127 58 137 0
127 128 17 0
127 137 146 0
128 75 17 0
128 127 147 0
129 56 132 0
129 125 130 0
130 109 129 0
132 11 125 0
132 125 129 0
133 124 144 0
134 47 136 0
134 106 138 0
135 147 82 0
136 141 134 0
137 43 146 0
137 58 142 0
138 46 139 0
139 149 47 0
140 105 46 0
140 106 148 0
140 138 106 0
141 40 148 0
141 136 57 0
142 144 43 0
143 22 150 0
143 116 99 0
144 142 133 0
145 43 80 0
145 78 147 0
146 147 127 0
147 135 128 0
147 146 145 0
149 139 88 0
149 143 150 0
151 123 2 0

End
