MeshVersionFormatted 1

Dimension
2

Vertices
507
0.0 0.0 1
0.5 0.0 1
0.5 0.5 1
0.0 0.5 1
0.25 0.0 1
0.5 0.25 1
0.25 0.5 1
0.0 0.25 1
0.0 0.375 1
0.125 0.5 1
0.19301019044781662 0.37231931633312537 0
0.36096616952928473 0.37151808813564935 0
0.267179176641469 0.35197401763783154 0
0.30939626825897476 0.30336960636940463 0
0.4235912030119243 0.2725424847505982 0
0.5 0.125 1
0.5 0.1875 1
0.2733423727982088 0.12653649648775242 0
0.28418797187115213 0.20023800694450658 0
0.3251876519813777 0.13954090604050595 0
0.375 0.0 1
0.3125 0.0 1
0.34171556567807965 0.07060434945749973 0
0.19456488817008927 0.17797048367636775 0
0.125 0.0 1
0.18374188073539263 0.09597298267978559 0
0.31902161900000453 0.3634096251488203 0
0.375 0.5 1
0.3125 0.5 1
0.2437905438339393 0.3890020307100112 0
0.1875 0.5 1
0.211819260155268 0.4350738864149854 0
0.13497114468646443 0.3779869619209094 0
0.0625 0.5 1
0.08925029701723097 0.14176063372174977 0
0.12450166267097496 0.1970534365565877 0
0.0 0.1875 1
0.0 0.3125 1
0.03354968062637618 0.12051783056535462 0
0.0625 0.0 1
0.0 0.0625 1
0.11692582447098249 0.09037852982517881 0
0.08865146221941843 0.037864953548406126 0
0.24966243895948262 0.04437143992944539 0
0.1875 0.0 1
0.1824434688305974 0.04292102437135232 0
0.29116951565662225 0.04350843046390986 0
0.376755390924291 0.08671132695878633 0
0.21566698439972795 0.33744746215963084 0
0.5 0.0625 1
0.4375 0.0 1
0.5 0.375 1
0.5 0.3125 1
0.3832745520938349 0.3254339422470516 0
0.41283433370911277 0.41751370916684016 0
0.4369758207753215 0.36581693300936124 0
0.5 0.4375 1
0.4375 0.5 1
0.460015788715689 0.45743331094835227 0
0.0 0.4375 1
0.22392953062049303 0.2783817946411814 0
0.3508058135376384 0.33145408910194335 0
0.2882114028452091 0.30722437233113076 0
0.3553817278922682 0.21836062951639493 0
0.5 0.15596421201581223 1
0.4560505013282434 0.21145947072362148 0
0.35338701587302923 0.25198534118869487 0
0.33938915340795117 0.2811347645977478 0
0.38168122475789795 0.22939248316597513 0
0.3081988106152846 0.1627930463006676 0
0.29640738264261707 0.13149856319204145 0
0.3388569801762624 0.038437229850111734 0
0.20210744413552595 0.19247156595785658 0
0.24479598560010168 0.19007446790175636 0
0.2329839208479059 0.12173297962805762 0
0.26771374920064506 0.2887926080402644 0
0.3399102966426881 0.3681611946215315 0
0.3149251817848143 0.33523588771552365 0
0.2912624930168091 0.4529837466979144 0
0.2147976740075708 0.37844407007749736 0
0.1566469596950974 0.5 1
0.2391333242976954 0.457093651488379 0
0.23584078258363436 0.42142916662545504 0
0.21665845920668306 0.4054554602631958 0
0.13203230484681316 0.42671595656480305 0
0.1551052590720068 0.37558602070081565 0
0.16989672437277098 0.2972492567793341 0
0.17018185372814998 0.34717761510421935 0
0.17326906509172757 0.16934851484111516 0
0.17431535358090636 0.1235667843467598 0
0.10456639416884367 0.14368580914770274 0
0.13965027942299066 0.22257317005457095 0
0.10207324564086416 0.1732115812927289 0
0.1290558362584918 0.18296781488581715 0
0.03582054972364687 0.21570308712143793 0
0.08784924580793271 0.20978946550633215 0
0.04371153362346404 0.25031065975822553 0
0.06794673351871658 0.26284963322279553 0
0.04085633984232269 0.3368800548673431 0
0.04333457388964656 0.2886332333087738 0
0.043161156512823935 0.15120857498508655 0
0.03466864549581803 0.17960698091240504 0
0.04412014198620369 0.04165639905647158 0
0.06545295844299431 0.10628251043964772 0
0.0361467718704304 0.08275888113848061 0
0.1370861991789298 0.09364653330226749 0
0.12589302829540622 0.04434499711642444 0
0.10514313895067996 0.06808730560995443 0
0.24523906163663184 0.09687677182554551 0
0.22777597020195464 0.0709420469521361 0
0.2164554201389938 0.03640957528849766 0
0.15455631685811277 0.05747213727149681 0
0.1776690246022224 0.07344331068422139 0
0.3174266475925792 0.06386625249474914 0
0.2969450851033367 0.0822465093963315 0
0.26394559897494074 0.07368956095839507 0
0.17565540451158418 0.283962725608356 0
0.45904826500673884 0.09592591067641552 0
0.4250874669357807 0.07297823495299038 0
0.4661499921722195 0.13620238677767146 0
0.35432991793275226 0.08437097972714785 0
0.4096359718759895 0.1117934968773246 0
0.2062709650368515 0.3562636552766579 0
0.20168715463851147 0.32542667491657545 0
0.2384437305399271 0.3300689152908602 0
0.45833877005108264 0.04243902357105046 0
0.45733076911060067 0.33475728486109674 0
0.3743429838926508 0.3437600336398385 0
0.3653439924330638 0.2833917953759641 0
0.3940259263122384 0.29746049162174637 0
0.36972454666905646 0.43279131873053067 0
0.377105741380747 0.39067621327350094 0
0.42063212475717326 0.3842232509733508 0
0.4534390568368554 0.42098714512299373 0
0.37614471773544306 0.4063229743181948 0
0.34538121959975 0.46493096108084947 0
0.2659225374950711 0.42016208652099213 0
0.3094128565739128 0.38371944244866824 0
0.33133813543952306 0.4285675621988815 0
0.03580743612257054 0.45913854458304443 0
0.2469987849003305 0.27031859547681425 0
0.20260953243064111 0.28029131968415033 0
0.23903818379372882 0.29969267492148893 0
0.3360682814582778 0.3156324580117464 0
0.3207779692210155 0.3478516435037017 0
0.35856753281872505 0.3429002051336907 0
0.3644286303680259 0.3291943193352134 0
0.322024539329687 0.26348973289563005 0
0.2743921384458833 0.2593462695589374 0
0.2994634543007259 0.2519255765764381 0
0.451119912520231 0.2510287825445437 0
0.4223617714301163 0.20344582192956354 0
0.24957896482403827 0.23833626100026284 0
0.30086727428422305 0.189830316327529 0
0.32140444164024806 0.22836338424736988 0
0.2738595767145444 0.1650753415438187 0
0.2863969734194828 0.18035785136131902 0
0.36186466889411495 0.16840897906983324 0
0.35925764763275986 0.11449058259257146 0
0.30041539761412867 0.17496137565421868 0
0.32205947102994026 0.1630033866119559 0
0.31610943103213723 0.15018828330639902 0
0.2919432977276934 0.1629746236654598 0
0.2829627616082824 0.14630111649495658 0
0.31194011113060877 0.13587269411306221 0
0.32187847064622904 0.08156068283458001 0
0.3247560287175554 0.11489637199712949 0
0.2338411696425292 0.21221875971361845 0
0.22898378811095435 0.2568985965596978 0
0.2221104468247134 0.1921375851308696 0
0.2621991453870051 0.1479150954361743 0
0.2111657706671789 0.1764873023340162 0
0.23081890334900468 0.17259908256465337 0
0.2544411770622901 0.115604617374163 0
0.19935210788079366 0.10279188840404317 0
0.25195970688522124 0.1317667397282547 0
0.16957438946900846 0.2484839985528686 0
0.14867613545795524 0.2586920377840111 0
0.16444441797043266 0.2702574191957144 0
0.1885717955468194 0.18933308116574957 0
0.15356107099431066 0.19866921205374638 0
0.18887759612149416 0.20546574260519843 0
0.19710495943906375 0.22333904693894133 0
0.2836260615361193 0.32796494616969774 0
0.3509005954564026 0.35540868567079376 0
0.32017244225493224 0.3171364951110562 0
0.30134916152956737 0.321487866215814 0
0.29491361496462637 0.34175761172805275 0
0.3083848459006306 0.34975334256775636 0
0.3304651643957702 0.33834550847588946 0
0.23103465702373002 0.3568957794980372 0
0.20050653112510186 0.4663340014136089 0
0.1960651204104076 0.39349480974784845 0
0.1800161332705814 0.3851539648072804 0
0.16560749793795423 0.40832418816709365 0
0.1938465170609027 0.4176387572487295 0
0.13902837894659759 0.4074244054018481 0
0.15118946867845165 0.4155390129611354 0
0.15329289600406576 0.3995765146988198 0
0.16612822459478488 0.39421985017617706 0
0.14637087249592332 0.3803680793259033 0
0.16603454177083965 0.37728355690951404 0
0.11438155603494753 0.3636086712029217 0
0.16573883634155934 0.3084070376181245 0
0.1683156928119607 0.3609154426375504 0
0.15795958404945568 0.3661107837756107 0
0.12611419966648493 0.3689777393040555 0
0.13638730319172274 0.46467146541096455 0
0.10165213501824619 0.4699633677886199 0
0.16432930036592644 0.16038381686514594 0
0.20126810394993325 0.16393464933975316 0
0.12005859466320941 0.14730667695421146 0
0.1092629366924847 0.11130380081586562 0
0.12500481633336277 0.21805876945771702 0
0.12750106247908952 0.2407207193135159 0
0.0936250386106086 0.15625053475212317 0
0.11303168898296403 0.18614388744915267 0
0.11106532735562061 0.15917622746178967 0
0.11885866917072127 0.17180218780047843 0
0.10696101763688325 0.2048479982707146 0
0.09243274126673907 0.18982059725886657 0
0.10323660297711756 0.22724811207436454 0
0.07280183237010943 0.23109079633511495 0
0.0977518462755558 0.3585721236245526 0
0.08264826020747258 0.28711419900503293 0
0.11130467545468277 0.2873778594818999 0
0.041014978799682356 0.41511977678621653 0
0.08180358116880286 0.37762942481146766 0
0.0738661778937964 0.3511182125045719 0
0.09280896885205137 0.09378968229961744 0
0.07900056498338207 0.1288853489554887 0
0.05947279393884142 0.13127699919976943 0
0.1536390077838112 0.09987556139353547 0
0.13241830598666218 0.07233175233632318 0
0.15456680741973594 0.029148714882534267 0
0.07100379222388623 0.0721341618900929 0
0.20140763370155731 0.08368885422017197 0
0.21895778827237558 0.09955901666036926 0
0.20116529453957543 0.06160036979752774 0
0.2942581248371433 0.10947469588133754 0
0.12826760153165853 0.2679151643958798 0
0.15677708309341912 0.2986650275162097 0
0.4324226418104831 0.12493248469590632 0
0.4342857583713777 0.18276153977323464 0
0.43815716317715103 0.1539415331657622 0
0.3853187130693616 0.03421668579879023 0
0.3359543139264742 0.08960363560365138 0
0.40860096909108023 0.13181500595426987 0
0.18516878583836888 0.35469315204827845 0
0.19049936572816545 0.317592538496122 0
0.19626994694196045 0.339568387373512 0
0.21875404517513986 0.3161488684816434 0
0.052098606929023294 0.37699837914836776 0
0.37604870393551093 0.3612076826808194 0
0.4038673150171392 0.323188541709407 0
0.4596927465103064 0.2884092543757649 0
0.42188414478548075 0.34158335942403073 0
0.3893214798635721 0.2612667142933113 0
0.3939581096441167 0.3474686798589656 0
0.4346614382101596 0.44115334617713164 0
0.3687118620622436 0.3829914271688112 0
0.42846656063613775 0.40177960869824725 0
0.3908921224935603 0.39430072132977667 0
0.3514799805028153 0.4074013250986607 0
0.32792838691229104 0.3992784653445612 0
0.297604090297115 0.36231497517823813 0
0.3288895285244493 0.38019000632303174 0
0.3004702924750771 0.4119446895871771 0
0.20240213520856618 0.30968223843654646 0
0.26427013094061463 0.31710675981371467 0
0.3475055826323717 0.30158572613266593 0
0.33416276770473174 0.3518963679051333 0
0.3670029787257863 0.30988084822543993 0
0.3193773635507529 0.2856117987462155 0
0.29764523658636094 0.2797819016105717 0
0.3517022955884475 0.17259373917267598 0
0.3769167474271124 0.2040834171611742 0
0.4176603976101941 0.23356244815866414 0
0.4000376503102496 0.20817452843868134 0
0.28415637870079247 0.22826961228144924 0
0.2667690960111133 0.1861901770125175 0
0.3415054821992086 0.13753781508094798 0
0.3753137491829607 0.10794967758722114 0
0.3499955620325517 0.10162515538794283 0
0.31767100989483094 0.1983413466015451 0
0.33243601032792336 0.16284424911985212 0
0.3151188241684758 0.1781017826438052 0
0.30149816325854295 0.14825087229445358 0
0.31744254336935596 0.10028313068294456 0
0.2603771672444762 0.2095226521466373 0
0.21712824976053152 0.23515085625573964 0
0.271599877540065 0.10030338426525941 0
0.18681267566905274 0.1136968853088571 0
0.2380295878343407 0.14884091558675883 0
0.18561533983700734 0.26708764248476397 0
0.1815540775570298 0.17932934443995116 0
0.1684023183004058 0.2039207079773113 0
0.13989276784095228 0.19077891960134724 0
0.1391573797944674 0.207970543366063 0
0.2104383312909123 0.2097819082442105 0
0.17183633676466267 0.4696663510573797 0
0.18306260956650006 0.44123571582914634 0
0.14351962297178097 0.3914878255902447 0
0.1361051360150767 0.36334723102685523 0
0.12401768094640492 0.40755535137835586 0
0.18594967779490898 0.16529270069998428 0
0.15276676438812908 0.1434002043824891 0
0.09806960634053301 0.1281016141214527 0
0.15260250293616526 0.23513086063201502 0
0.07221118020675003 0.15015819207464817 0
0.13193717917221454 0.17103817774870342 0
0.15379900976463237 0.16809263602726976 0
0.16398155076015528 0.17117288975490694 0
0.14335208260073137 0.17648313680839717 0
0.1631775664668563 0.18985015711267975 0
0.0967369556560598 0.3363078586080972 0
0.07208369430075896 0.31927266353601663 0
0.1676627199059595 0.0922422619281094 0
0.16836420004534253 0.10878991086744659 0
0.15411881126973093 0.3134526198868627 0
0.1596043272828201 0.2858525828650566 0
0.3763497311971144 0.14352511886741742 0
0.3957817763487279 0.1738666574031702 0
0.41313630745591035 0.16373462001728492 0
0.41001986946349056 0.18816080032242805 0
0.46496932764460336 0.17066378254981496 0
0.36489978313005345 0.0639378596840875 0
0.3945303487728809 0.12382820559258645 0
0.39117140139133644 0.368336060395299 0
0.40978836443978905 0.3634993969479858 0
0.34513997768153276 0.3875161572696672 0
0.35083533195095956 0.3191181601347608 0
0.32832365696307264 0.3010936826159667 0
0.35539185231995185 0.1609926579911036 0
0.35887682961481243 0.19521904987939942 0
0.36030549733303385 0.1788152328864313 0
0.3898600136575694 0.18937692459239278 0
0.25272834217841483 0.1685638500833302 0
0.35259378669411834 0.1447060157377891 0
0.36248840432387 0.09924443875754627 0
0.3488364859940861 0.121996157963936 0
0.34431899339619665 0.16245679544376465 0
0.3118205874547691 0.12024673750505194 0
0.2084532843959146 0.26008482804241817 0
0.1848655409035199 0.14341169571777126 0
0.21717995367587145 0.1586604121233437 0
0.19251658434005242 0.2426836149666284 0
0.174077748540727 0.22432498100246218 0
0.17700636418492685 0.19137813419499275 0
0.15840270853341573 0.43994965141646064 0
0.14635897087386465 0.37106534168567273 0
0.19026896696637477 0.32870919973473167 0
0.1663165769375505 0.3198140583710466 0
0.15828581970566993 0.3540401560538749 0
0.15050788562808393 0.3476730397587073 0
0.13762963048869628 0.34869391263948907 0
0.11008297411371792 0.4451788349710429 0
0.17596770814525084 0.15994794551859465 0
0.16093149771839443 0.14930913418467665 0
0.1178116076921958 0.13007865137454153 0
0.1263959151324127 0.1049113180613594 0
0.15452727441630287 0.21545661437834604 0
0.08173710094507601 0.17257906520762992 0
0.1319476486600659 0.1516295591128248 0
0.12609002771265307 0.16066334783545466 0
0.15259865456153857 0.15565726411024797 0
0.14051359047242523 0.1612754623933385 0
0.16950003901281507 0.17939657643389212 0
0.15811308037691332 0.17870838697553953 0
0.06549952222323727 0.19551703721070204 0
0.0986192727744619 0.2578267134370286 0
0.11845856230642779 0.3285623026617575 0
0.1131402413306652 0.3475474645182455 0
0.13281830780285067 0.33621765453416536 0
0.10078358905128552 0.31081171656123274 0
0.08885120722417483 0.11371627511224787 0
0.16115435220336022 0.12220235628158299 0
0.1471534015722428 0.2779123445918103 0
0.39581015774770595 0.15831594118699108 0
0.3804702915983047 0.13069772030220342 0
0.3706992197962385 0.15452650082254088 0
0.39552595384029315 0.06559126509721563 0
0.21389512221460405 0.2963792935272306 0
0.0751053517910913 0.44490197236851425 0
0.2802464942148379 0.38573205025693874 0
0.3383852580404684 0.20191568868831522 0
0.3732644445473127 0.18714997279383935 0
0.3268735022858642 0.17135772644335379 0
0.1873491875022752 0.12972789028388776 0
0.21636472618784217 0.14067001004589996 0
0.14786467778012244 0.3588521979626588 0
0.1250612840014262 0.35627899340312635 0
0.125345698867041 0.34375878625096984 0
0.15489012409460617 0.327857439537701 0
0.18119425073153947 0.3386125185010979 0
0.17933379594664942 0.32424562007648444 0
0.10298769331907422 0.37954945929959816 0
0.1726562005429916 0.14919915055870883 0
0.142393749170724 0.1479716113051577 0
0.0592666252390211 0.17002911937947335 0
0.14188367244726757 0.3030420922576828 0
0.12344140896326464 0.30707288884206274 0
0.13872875170727214 0.32160585220371923 0
0.3868388227489821 0.1067926209083572 0
0.3758785959130691 0.1619168834453022 0
0.3690273488482929 0.16264714559240526 0
0.3842432960352406 0.1668010354247914 0
0.0960987457909313 0.3953339150364676 0
0.3393221424970526 0.1732955722436013 0
0.3312040631826518 0.18509813963007543 0
0.164103317775574 0.14027326559296674 0
0.1982811495022922 0.13991263645484225 0
0.20477206366251524 0.15130579515118933 0
0.20572417569783844 0.12122829576993918 0
0.16772287266405175 0.3331412672240349 0
0.17816314679281117 0.30969768192989616 0
0.15820257612944863 0.34117008554369577 0
0.1456019949649304 0.33721314895131066 0
0.18264604669614337 0.15440381165611064 0
0.12593630040363807 0.11690407395180845 0
0.13388185993757162 0.288799582841975 0
0.1477994356123208 0.29118527368046426 0
0.1561677351608745 0.13229554636190846 0
0.14009184360281643 0.1110014455349458 0
0.15451491528230743 0.11253854356576766 0
0.3930128551262623 0.14104887053960993 0
0.38231742820767917 0.15455875446180753 0
0.3663261271988643 0.14493816138458182 0
0.10315776309420045 0.41672567038321123 0
0.34639523752620177 0.18466463661117974 0
0.1660485820097342 0.13052829514442124 0
0.17478419961091937 0.13596779001237005 0
0.19319442928669084 0.15297021856533732 0
0.14814393896381198 0.12340772240631566 0
0.1320430885985711 0.13998017173122745 0
0.144312940308163 0.13548943772501476 0
0.1346917870988661 0.12623117554974506 0
0.0 0.09375 1
0.21875 0.5 1
0.4263503429637651 0.3108906393830278 0
0.3358285177404609 0.14347889867107172 0
0.15412886584471422 0.08155921352426479 0
0.3279890187109725 0.15183085454367656 0
0.17941715871541164 0.37065177143244904 0
0.3764098495973969 0.37684414190085425 0
0.36293163467491363 0.3920678056242841 0
0.34399408087296346 0.34160587602077963 0
0.3447849762415215 0.14438510100840304 0
0.3352708109089022 0.10624792460272298 0
0.3390202903596265 0.15331980499090678 0
0.12960631338875245 0.39339105466930513 0
0.4030226147239474 0.38137871236813436 0
0.34998089369700275 0.15362871183408872 0
0.3372768048625555 0.1212596920602129 0
0.32435208353423917 0.12791548641866535 0
0.3716738822607925 0.1220363872462549 0
0.3683695395887916 0.13477918230067207 0
0.38859041201626665 0.4673365147958715 0
0.3891153590216884 0.3808090759172659 0
0.07535504311832983 0.40406863486293837 0
0.391181468977014 0.41527181559193144 0
0.11959037158394563 0.37998040033195585 0
0.1127871665742914 0.3949853378994101 0
0.3587508575330385 0.1416450474070048 0
0.3600236668669996 0.15121803768039066 0
0.35803893155223926 0.12848907275067198 0
0.30135314084424825 0.20958189953386328 0
0.41982730739425694 0.14471302315348583 0
0.3832400978006403 0.1780693709094427 0
0.3725806686559677 0.17217121461350157 0
0.408069341652471 0.39736914754140196 0
0.40983606916490295 0.43591398418857985 0
0.35045932905121885 0.1383824202699099 0
0.0 0.15625 1
0.40625 0.0 1
0.3398966314562771 0.3289619133550103 0
0.15555607045764738 0.38695369200444374 0
0.36359889806015877 0.3558262658530875 0
0.38085731246138094 0.11868743243051659 0
0.17915098303111782 0.40414379705450265 0
0.4065483945060549 0.14829390394089473 0
0.4057816976352305 0.09160774869697187 0
0.17273826617099747 0.4213441109922197 0
0.4205105750643059 0.4649596525871748 0
0.32780892204620876 0.32727401634473224 0
0.40625 0.5 1
0.416896577166774 0.03447802652239009 0
0.4640704349810569 0.3710136655116343 0
0.4748942294753012 0.3995982362197028 0
0.448266950089516 0.3908863411052929 0
0.19654843134257485 0.29488210693159606 0
0.19053905045987263 0.3054407574371108 0
0.34528819104183345 0.13079641771473804 0
0.34638624794180095 0.11435178727927525 0
0.15111617494705018 0.18602768226773247 0
0.3354075136842916 0.1333712332361248 0
0.1891484697813893 0.28426744381649527 0
0.18313995725135995 0.2948940684216121 0
0.42580826429860114 0.10210213875908185 0
0.4277652892155598 0.4228461020612194 0
0.3632988672497472 0.1600555546100279 0
0.4340468377517389 0.38559108602364517 0
0.47916394822621267 0.34811736570993473 0
0.15625 0.0 1
0.09375 0.5 1
0.5 0.40625 1
0.5 0.34375 1

Edges
42
1 40 1
1 41 1
2 50 1
2 51 1
3 57 1
3 58 1
4 34 1
4 60 1
5 22 1
5 45 1
6 17 1
6 53 1
7 29 1
7 439 1
8 37 1
8 38 1
9 38 1
9 60 1
10 81 1
10 505 1
16 50 1
16 65 1
17 65 1
21 22 1
21 475 1
25 40 1
25 504 1
28 29 1
28 486 1
31 81 1
31 439 1
34 505 1
37 474 1
41 438 1
45 504 1
51 475 1
52 506 1
52 507 1
53 507 1
57 506 1
58 486 1
438 474 1

Triangles
970
1 40 103 0
2 50 126 0
3 58 59 0
5 22 47 0
5 44 111 0
6 53 256 0
6 151 66 0
8 37 95 0
8 95 97 0
8 100 38 0
9 38 99 0
9 253 227 0
10 208 81 0
10 209 208 0
11 80 193 0
11 193 194 0
11 194 444 0
12 77 185 0
12 254 445 0
12 261 446 0
13 125 270 0
13 184 188 0
13 191 125 0
13 266 385 0
14 187 63 0
14 274 333 0
14 275 274 0
15 130 258 0
15 151 256 0
15 256 440 0
15 278 151 0
15 440 130 0
16 65 120 0
17 66 326 0
18 171 176 0
18 174 292 0
18 176 174 0
18 240 71 0
19 154 467 0
20 162 165 0
20 165 455 0
20 441 443 0
20 496 441 0
21 246 72 0
22 21 72 0
23 114 72 0
23 121 247 0
23 327 121 0
24 172 73 0
24 180 296 0
24 296 306 0
26 175 293 0
27 138 266 0
28 29 136 0
28 136 458 0
29 7 79 0
29 79 136 0
30 83 84 0
30 137 83 0
31 301 192 0
32 192 302 0
32 196 84 0
33 201 303 0
33 351 201 0
33 451 462 0
34 4 140 0
34 140 384 0
34 384 209 0
35 91 216 0
35 216 310 0
35 231 308 0
36 94 298 0
36 214 220 0
36 298 299 0
39 101 474 0
40 25 43 0
40 43 103 0
41 103 105 0
42 213 230 0
42 234 106 0
43 25 107 0
43 107 108 0
43 108 236 0
44 5 47 0
44 110 111 0
45 5 111 0
45 46 235 0
46 45 111 0
46 111 239 0
46 112 235 0
47 22 72 0
47 116 44 0
48 121 327 0
48 283 340 0
48 327 382 0
48 382 482 0
49 123 251 0
49 124 252 0
49 125 191 0
50 16 118 0
50 118 126 0
51 126 487 0
51 487 475 0
52 488 503 0
54 128 147 0
54 147 273 0
55 262 500 0
55 461 471 0
56 127 488 0
56 133 330 0
56 490 502 0
57 3 59 0
57 59 134 0
59 484 260 0
60 9 227 0
61 141 143 0
61 143 383 0
62 147 146 0
62 447 476 0
63 76 275 0
63 270 76 0
64 69 67 0
64 155 386 0
65 17 326 0
66 17 6 0
66 151 278 0
66 152 244 0
66 244 326 0
67 69 258 0
67 129 68 0
68 129 271 0
68 148 67 0
68 271 333 0
69 279 278 0
70 160 163 0
70 161 287 0
70 163 288 0
71 165 288 0
72 114 47 0
72 327 23 0
73 182 180 0
73 300 182 0
74 173 338 0
74 338 281 0
75 109 174 0
75 174 176 0
75 294 390 0
76 141 149 0
76 270 143 0
77 12 331 0
77 27 272 0
77 272 185 0
78 145 189 0
78 186 485 0
78 188 187 0
79 7 82 0
79 82 137 0
79 268 139 0
80 11 123 0
80 30 84 0
80 84 193 0
80 123 191 0
81 301 31 0
82 7 439 0
82 32 83 0
82 439 192 0
83 32 84 0
85 197 198 0
85 350 208 0
85 429 305 0
86 201 351 0
86 202 477 0
87 242 321 0
89 210 358 0
89 296 368 0
90 293 389 0
90 432 431 0
91 35 308 0
91 308 360 0
92 214 299 0
92 299 362 0
92 362 309 0
93 216 218 0
93 217 221 0
93 218 219 0
94 36 217 0
94 217 219 0
94 219 311 0
96 220 222 0
96 370 221 0
97 95 223 0
98 97 223 0
98 225 100 0
99 317 229 0
100 8 97 0
100 97 98 0
100 99 38 0
100 225 317 0
101 39 232 0
101 102 474 0
101 232 310 0
101 310 400 0
102 95 37 0
102 101 400 0
102 370 95 0
103 41 1 0
103 43 236 0
104 39 105 0
104 231 232 0
104 232 39 0
104 236 230 0
105 103 236 0
105 438 41 0
106 234 442 0
106 361 42 0
107 25 235 0
107 112 234 0
108 42 230 0
108 107 234 0
108 230 236 0
109 75 238 0
110 109 238 0
110 116 109 0
110 237 239 0
111 110 239 0
112 46 113 0
112 107 235 0
113 26 318 0
113 46 239 0
113 237 26 0
113 442 112 0
114 23 166 0
115 47 114 0
115 114 166 0
115 116 47 0
115 240 292 0
115 289 240 0
116 110 44 0
116 292 109 0
117 87 321 0
117 295 497 0
117 497 498 0
117 498 87 0
118 16 120 0
118 120 243 0
118 243 499 0
119 118 499 0
119 126 118 0
119 382 487 0
120 65 326 0
121 48 340 0
121 284 247 0
122 243 248 0
122 248 328 0
122 404 482 0
122 482 499 0
123 11 249 0
123 49 191 0
123 249 251 0
124 49 251 0
124 250 269 0
124 251 352 0
125 49 252 0
125 143 270 0
125 252 143 0
126 51 2 0
126 119 487 0
127 53 503 0
127 256 53 0
127 440 256 0
128 54 259 0
128 146 147 0
128 254 478 0
129 130 273 0
130 54 273 0
130 129 258 0
130 255 54 0
130 440 255 0
131 135 461 0
131 139 264 0
132 446 261 0
133 56 502 0
133 262 471 0
134 59 260 0
134 260 500 0
134 262 490 0
134 489 57 0
135 263 461 0
135 446 132 0
136 79 139 0
136 131 458 0
136 139 131 0
137 82 83 0
138 27 267 0
138 268 385 0
140 4 60 0
141 61 169 0
141 76 143 0
142 61 383 0
142 295 344 0
142 344 61 0
142 491 497 0
143 252 383 0
144 271 332 0
144 476 485 0
145 27 189 0
145 78 190 0
146 128 478 0
147 62 332 0
148 68 274 0
148 274 275 0
149 153 280 0
149 275 76 0
149 280 150 0
150 155 148 0
152 325 244 0
153 141 169 0
153 149 141 0
153 168 290 0
153 290 280 0
153 291 168 0
154 157 160 0
154 285 467 0
155 64 67 0
155 67 148 0
155 150 280 0
155 280 467 0
155 285 386 0
156 157 281 0
156 281 338 0
157 19 281 0
157 154 19 0
157 156 163 0
158 276 334 0
158 336 276 0
158 501 406 0
159 283 456 0
159 341 494 0
160 70 287 0
160 157 163 0
161 70 162 0
161 162 443 0
161 286 388 0
162 20 443 0
162 70 288 0
163 156 164 0
163 164 288 0
164 18 71 0
164 71 288 0
165 71 343 0
165 162 288 0
165 343 455 0
166 23 247 0
166 289 115 0
167 289 449 0
167 449 454 0
167 455 343 0
168 74 290 0
168 170 74 0
168 291 300 0
169 61 344 0
170 168 300 0
170 172 173 0
171 18 164 0
171 156 338 0
171 164 156 0
172 24 211 0
172 170 73 0
173 74 170 0
173 172 346 0
174 109 292 0
175 26 237 0
175 237 238 0
176 171 294 0
177 179 178 0
177 295 179 0
177 309 348 0
178 215 309 0
178 309 177 0
179 117 321 0
179 321 378 0
179 378 178 0
180 24 73 0
181 495 315 0
182 183 348 0
182 300 183 0
182 348 297 0
184 13 270 0
184 63 187 0
184 187 188 0
184 270 63 0
185 146 478 0
185 447 146 0
186 144 485 0
186 187 14 0
186 333 144 0
187 186 78 0
188 78 189 0
189 266 188 0
190 78 485 0
190 272 145 0
190 447 272 0
191 13 30 0
191 30 80 0
192 32 82 0
192 301 302 0
193 84 196 0
193 196 480 0
194 193 480 0
194 200 202 0
194 202 444 0
195 198 199 0
195 200 480 0
196 32 302 0
197 305 451 0
198 195 483 0
198 197 199 0
199 303 477 0
200 194 480 0
200 195 199 0
200 199 477 0
201 477 303 0
202 86 206 0
202 200 477 0
202 205 444 0
203 207 462 0
203 224 373 0
203 373 392 0
204 87 416 0
205 88 249 0
205 202 206 0
205 206 354 0
205 249 444 0
205 354 88 0
206 86 351 0
206 391 354 0
207 33 462 0
207 203 392 0
208 301 81 0
208 357 85 0
209 505 34 0
210 89 313 0
210 312 366 0
210 359 398 0
211 24 306 0
211 306 433 0
212 91 360 0
212 218 91 0
212 360 435 0
212 365 218 0
213 308 376 0
213 360 308 0
214 36 299 0
214 92 215 0
214 215 222 0
215 371 222 0
216 91 218 0
216 93 363 0
217 36 220 0
217 93 219 0
217 220 221 0
219 218 365 0
220 96 221 0
220 214 222 0
221 363 93 0
223 96 222 0
223 222 371 0
223 370 96 0
223 371 98 0
224 203 397 0
224 229 316 0
224 316 373 0
225 226 375 0
225 371 226 0
226 241 421 0
227 140 60 0
227 253 460 0
227 384 140 0
229 224 228 0
229 228 253 0
230 213 376 0
231 35 310 0
231 376 308 0
232 231 310 0
233 318 319 0
233 424 106 0
233 442 318 0
234 42 108 0
234 112 442 0
235 504 45 0
236 104 105 0
237 110 238 0
237 113 239 0
238 75 414 0
238 414 175 0
240 18 292 0
240 343 71 0
241 215 178 0
241 226 371 0
242 87 204 0
242 204 320 0
243 120 245 0
243 122 499 0
243 245 468 0
244 245 326 0
244 325 324 0
245 120 326 0
245 324 468 0
246 382 327 0
248 243 468 0
248 468 481 0
249 11 444 0
249 88 395 0
250 124 352 0
250 396 416 0
250 416 492 0
251 395 352 0
252 269 383 0
253 9 99 0
253 99 229 0
254 12 478 0
254 128 259 0
256 151 6 0
257 127 56 0
257 259 255 0
257 440 127 0
258 129 67 0
259 54 255 0
259 257 330 0
259 329 254 0
259 330 329 0
260 472 500 0
261 12 445 0
262 55 471 0
262 133 502 0
262 134 500 0
263 132 459 0
263 135 132 0
264 135 131 0
264 139 265 0
264 265 331 0
264 331 446 0
265 138 267 0
265 267 331 0
265 268 138 0
266 13 188 0
266 138 385 0
266 189 27 0
267 27 77 0
267 77 331 0
268 79 137 0
268 265 139 0
269 250 492 0
269 252 124 0
271 129 273 0
271 144 333 0
271 273 332 0
272 27 145 0
272 447 185 0
273 147 332 0
274 68 333 0
275 14 63 0
275 149 150 0
275 150 148 0
276 430 409 0
277 69 64 0
278 15 258 0
278 152 66 0
278 258 69 0
278 279 152 0
279 69 277 0
279 277 337 0
280 19 467 0
280 290 19 0
282 441 496 0
283 48 404 0
283 159 340 0
283 404 479 0
284 159 494 0
284 340 159 0
285 155 467 0
285 287 410 0
286 161 443 0
286 342 409 0
287 154 160 0
287 161 388 0
287 285 154 0
287 388 410 0
289 166 247 0
289 167 343 0
290 74 281 0
290 281 19 0
291 153 169 0
291 169 344 0
291 347 183 0
292 116 115 0
293 175 414 0
293 319 26 0
294 75 176 0
294 173 346 0
294 346 390 0
295 117 179 0
295 142 497 0
295 177 347 0
295 347 344 0
296 89 306 0
296 180 349 0
296 349 368 0
297 315 349 0
297 349 182 0
297 362 181 0
298 94 314 0
298 181 299 0
298 314 495 0
299 181 362 0
300 73 170 0
300 291 183 0
301 208 350 0
302 301 350 0
302 350 483 0
302 483 196 0
303 197 451 0
303 199 197 0
304 33 207 0
304 207 392 0
305 197 85 0
305 429 463 0
306 89 358 0
306 358 419 0
307 359 366 0
307 366 399 0
307 411 359 0
307 436 423 0
309 215 92 0
310 216 363 0
310 363 400 0
311 219 365 0
311 314 94 0
312 210 313 0
313 89 368 0
313 368 369 0
314 311 367 0
314 367 312 0
314 369 495 0
315 297 181 0
315 368 349 0
316 229 317 0
316 372 373 0
317 99 100 0
317 225 375 0
318 26 319 0
319 90 377 0
319 293 90 0
319 377 425 0
320 353 394 0
320 401 242 0
321 422 378 0
322 380 426 0
322 381 428 0
322 428 457 0
323 325 337 0
323 469 407 0
324 245 244 0
324 325 323 0
324 379 481 0
325 152 279 0
325 279 337 0
327 72 246 0
328 380 479 0
328 404 122 0
329 330 452 0
329 445 254 0
330 133 452 0
330 257 56 0
332 476 144 0
333 186 14 0
334 276 342 0
334 342 453 0
334 465 501 0
335 64 386 0
335 277 64 0
335 336 387 0
335 386 430 0
336 158 470 0
336 335 430 0
337 277 387 0
338 173 294 0
338 294 171 0
340 284 121 0
341 159 466 0
341 466 493 0
342 276 409 0
342 286 450 0
342 450 453 0
343 240 289 0
345 389 412 0
346 172 211 0
346 413 390 0
347 291 344 0
347 348 183 0
348 309 362 0
348 347 177 0
349 180 182 0
350 85 198 0
350 198 483 0
351 33 304 0
351 304 391 0
352 395 396 0
353 204 416 0
353 320 204 0
353 415 394 0
353 416 396 0
354 391 355 0
354 417 88 0
355 356 418 0
355 417 354 0
355 418 417 0
356 374 418 0
356 391 304 0
356 392 393 0
357 208 209 0
358 210 398 0
358 398 419 0
360 213 420 0
360 437 435 0
361 213 42 0
361 420 213 0
362 297 348 0
363 221 370 0
363 370 400 0
364 212 435 0
364 435 399 0
365 212 364 0
366 359 210 0
366 367 399 0
367 311 365 0
367 365 364 0
367 366 312 0
368 315 369 0
369 312 313 0
369 314 312 0
369 315 495 0
370 102 400 0
370 223 95 0
371 215 241 0
371 225 98 0
372 375 402 0
372 403 374 0
373 393 392 0
374 356 393 0
375 316 317 0
375 372 316 0
376 104 230 0
376 231 104 0
377 90 431 0
377 434 425 0
378 241 178 0
379 324 323 0
379 407 427 0
379 426 481 0
380 322 457 0
380 328 426 0
380 456 479 0
381 322 427 0
381 405 406 0
381 406 501 0
382 119 482 0
382 246 487 0
383 491 142 0
384 227 460 0
384 357 209 0
385 30 13 0
385 137 30 0
385 268 137 0
386 285 410 0
386 410 430 0
387 277 335 0
387 469 337 0
388 286 409 0
388 409 410 0
389 293 414 0
389 345 432 0
389 432 90 0
390 412 414 0
390 414 75 0
391 206 351 0
391 356 355 0
392 356 304 0
393 372 374 0
393 373 372 0
394 415 417 0
395 88 415 0
395 251 249 0
396 250 352 0
396 415 353 0
397 203 462 0
397 228 224 0
397 463 408 0
398 359 411 0
399 367 364 0
399 435 436 0
401 320 403 0
401 403 402 0
402 226 421 0
402 375 226 0
402 421 401 0
403 320 394 0
403 372 402 0
403 418 374 0
404 48 482 0
404 328 479 0
405 407 470 0
406 405 470 0
406 470 158 0
407 379 323 0
407 469 470 0
408 228 397 0
408 463 429 0
410 409 430 0
411 423 431 0
411 431 432 0
412 389 414 0
412 390 413 0
412 433 345 0
413 211 433 0
413 346 211 0
415 396 395 0
416 87 498 0
417 415 88 0
418 394 417 0
418 403 394 0
419 345 433 0
419 398 345 0
419 433 306 0
420 361 424 0
421 241 378 0
421 378 422 0
421 422 401 0
422 242 401 0
422 321 242 0
423 377 431 0
423 411 307 0
424 233 425 0
424 361 106 0
424 434 437 0
425 233 319 0
426 248 481 0
426 328 248 0
426 427 322 0
427 405 381 0
427 407 405 0
427 426 379 0
428 381 465 0
429 85 357 0
429 357 384 0
429 384 460 0
430 276 336 0
432 345 398 0
432 398 411 0
433 412 413 0
434 377 423 0
434 423 436 0
434 424 425 0
434 436 437 0
435 437 436 0
436 307 399 0
437 360 420 0
437 420 424 0
438 105 39 0
439 31 192 0
440 257 255 0
442 113 318 0
442 233 106 0
443 450 286 0
445 132 261 0
445 329 459 0
446 135 264 0
446 331 12 0
447 62 146 0
447 190 476 0
448 339 453 0
448 441 282 0
448 473 339 0
449 247 284 0
449 284 494 0
449 289 247 0
450 441 448 0
450 443 441 0
451 33 303 0
451 305 463 0
452 263 459 0
453 339 465 0
453 450 448 0
454 341 493 0
454 493 496 0
454 494 341 0
455 167 454 0
455 454 496 0
456 283 479 0
456 380 457 0
457 428 464 0
457 466 456 0
458 131 472 0
458 486 28 0
459 132 445 0
459 329 452 0
460 228 408 0
460 253 228 0
460 408 429 0
461 263 471 0
462 451 463 0
463 397 462 0
464 339 473 0
464 465 339 0
464 466 457 0
465 334 453 0
465 381 501 0
465 464 428 0
466 159 456 0
466 464 473 0
468 324 481 0
469 323 337 0
470 387 336 0
470 469 387 0
471 263 452 0
471 452 133 0
472 55 500 0
472 131 461 0
472 461 55 0
472 484 458 0
473 448 282 0
473 493 466 0
474 102 37 0
474 438 39 0
475 246 21 0
476 190 485 0
476 332 62 0
477 201 86 0
478 12 185 0
480 196 483 0
480 483 195 0
482 119 499 0
484 59 58 0
484 472 260 0
486 458 484 0
486 484 58 0
487 246 475 0
488 52 489 0
488 127 503 0
488 490 56 0
489 490 488 0
489 506 57 0
490 262 502 0
490 489 134 0
491 269 492 0
491 383 269 0
492 416 498 0
493 282 496 0
493 473 282 0
494 454 449 0
495 181 298 0
496 20 455 0
498 491 492 0
498 497 491 0
501 158 334 0
503 507 52 0
504 235 25 0
505 209 10 0
506 489 52 0
507 503 53 0

End
