MeshVersionFormatted 1

Dimension
2

Vertices
151
0.0 0.0 1
0.5 0.0 1
0.5 0.5 1
0.0 0.5 1
0.25 0.0 1
0.5 0.25 1
0.25 0.5 1
0.13208574905565493 0.2500185534535086 0
0.0 0.25 1
0.0 0.375 1
0.125 0.5 1
0.2489196516952019 0.3939278000677577 0
0.37060797350412983 0.2956622281802325 0
0.2276052416967531 0.28284622668037224 0
0.2685660040776657 0.3601956937958289 0
0.29774036239666984 0.26231890915803674 0
0.5 0.125 1
0.5 0.1875 1
0.26283705172103095 0.13290509505579742 0
0.3001319039881704 0.22140820182450813 0
0.3252576942927063 0.14503439631192167 0
0.375 0.0 1
0.3125 0.0 1
0.3483972024477345 0.05105141127038877 0
0.23042825929452007 0.2096907039024324 0
0.2343267294218885 0.1608877544738194 0
0.125 0.0 1
0.18503727706490442 0.09334515341959582 0
0.1956085436110708 0.21367704000800677 0
0.375 0.5 1
0.1875 0.5 1
0.20443828812970022 0.43380054147528857 0
0.07425915310719451 0.4195271967751628 0
0.0625 0.5 1
0.0 0.125 1
0.11204626918846829 0.1736552365586546 0
0.06732588344614214 0.3093183564681366 0
0.0625 0.0 1
0.0 0.0625 1
0.09420024412602336 0.061209627851026335 0
0.2147395286989935 0.052816508275719765 0
0.1875 0.0 1
0.15844286828647428 0.05002632745860077 0
0.28173085748562665 0.06862066312271956 0
0.18260513154425273 0.25284841085524035 0
0.24526463315938385 0.31726655328921577 0
0.5 0.0625 1
0.4375 0.0 1
0.5 0.375 1
0.41237935868968895 0.44104495859517107 0
0.2701137747633827 0.44851100769955615 0
0.4375 0.5 1
0.0 0.4375 1
0.2596020157974831 0.2414904376835031 0
0.3554248709677958 0.11138499143185865 0
0.22968668194868758 0.10135015207871577 0
0.2146479356316294 0.170575498712576 0
0.27160354648037166 0.29136350068093164 0
0.18777784698754063 0.29074898025289453 0
0.23193029619831282 0.3532467003461248 0
0.12337967057496735 0.39878166025887135 0
0.19862492797225803 0.12762377008697276 0
0.12521591135945676 0.14374984307676955 0
0.11434056353821695 0.21018699078734732 0
0.1522112694948172 0.1861566680156452 0
0.06500424982498126 0.1836487176788446 0
0.05974474201356835 0.1158499984108485 0
0.14172803397040898 0.09558754774859808 0
0.15063068148445705 0.2881727696660883 0
0.4364648970175925 0.30398082881365 0
0.3386017938305889 0.27133285926652095 0
0.3763721328221531 0.40295913181819376 0
0.2212499522935526 0.23957215980728366 0
0.38729914663198906 0.24725284941223413 0
0.3291502971974164 0.22566527802037356 0
0.45388551734617427 0.2269315624603442 0
0.4111925290939314 0.13644292743239106 0
0.3971495339472272 0.10533124070266318 0
0.33226148869148275 0.09066773170728268 0
0.1611711991032022 0.1718899619208274 0
0.20744870972685547 0.31523044607742406 0
0.08372092985296012 0.36010497650885637 0
0.16286782799269067 0.15393636468493738 0
0.10964278560177747 0.11520165947684566 0
0.13658107867330027 0.18764461438331168 0
0.15434801955220329 0.2140779034294416 0
0.0833405678409952 0.24766597240057703 0
0.11294718031594336 0.2872848460614586 0
0.1308564032035735 0.3202237584058173 0
0.40761870410059764 0.059329629421876084 0
0.4419644928290379 0.16875103977310205 0
0.4119774513334146 0.20698108232771306 0
0.3704662168937319 0.20028572842894066 0
0.17218741837203386 0.319333174787601 0
0.12779133809776447 0.369188434311734 0
0.14733900543245182 0.14316129752016687 0
0.44486280789674765 0.11020015245626748 0
0.16325387643817932 0.12514966219822812 0
0.13639301305135965 0.12481669701798324 0
0.39869881085524045 0.17062965442228317 0
0.30496732467365173 0.19102120274954212 0
0.29654604860811234 0.15917099418138486 0
0.2627908136028451 0.18857837412400377 0
0.22949724336626415 0.18275936758032804 0
0.372103334563313 0.08845577092594864 0
0.22882662832993436 0.13394882143261388 0
0.31742226679118557 0.35402688731263615 0
0.3919094740860894 0.3349451712484347 0
0.3374822986385698 0.4346901784041877 0
0.30651566995699053 0.12033520556670482 0
0.34019587877199164 0.31235041641363886 0
0.14124031508141638 0.1663486700991095 0
0.3125 0.5 1
0.3657008093916175 0.32532958260186634 0
0.3386496373639048 0.12235471606820476 0
0.21026204081202746 0.18720840500369282 0
0.20813759195228076 0.15041103207893994 0
0.09575662565801281 0.14862741766842288 0
0.38002668644232285 0.14609538914349798 0
0.19548709020494498 0.16841591356147015 0
0.16395930601761305 0.4099549561708483 0
0.20139236889172316 0.38209879184739604 0
0.14977249741309967 0.3897805779115837 0
0.18644833212418493 0.1499353159605407 0
0.3379511320306564 0.1599610228126335 0
0.36217637108937917 0.16590931303842862 0
0.14977314312483525 0.34922879840081844 0
0.16396335688691505 0.3748754191872114 0
0.3374584050981824 0.18563920385007796 0
0.32075505416069194 0.16876515411408458 0
0.2956537473433911 0.39707773313121636 0
0.37160569486486544 0.37274574885969486 0
0.3396426211781275 0.382412955156803 0
0.4336932915124194 0.38341469338106143 0
0.3451064603459483 0.14331031723483226 0
0.18043084177705346 0.1882786625422333 0
0.38901325479739585 0.1262681116962571 0
0.35082993608494617 0.15228631484205768 0
0.18943595922941844 0.346928180015357 0
0.3535710667143604 0.12884149734846023 0
0.3715331398455882 0.12385202241734475 0
0.1034413815287171 0.32263685697784444 0
0.357717798966267 0.3434050904567942 0
0.13993752179560032 0.44795694738431757 0
0.5 0.4375 1
0.11944785599471654 0.3402937207745691 0
0.2746037387322507 0.3239872256388549 0
0.3030580712185739 0.2960672742206071 0
0.17836136282570725 0.1641945560614982 0
0.3764243212988527 0.11174129524673018 0
0.3621195775056372 0.1437150834748842 0

Edges
29
1 38 1
1 39 1
2 47 1
2 48 1
3 52 1
3 145 1
4 34 1
4 53 1
5 23 1
5 42 1
6 18 1
6 49 1
7 31 1
7 113 1
9 10 1
9 35 1
10 53 1
11 31 1
11 34 1
17 18 1
17 47 1
22 23 1
22 48 1
27 38 1
27 42 1
30 52 1
30 113 1
35 39 1
49 145 1

Triangles
271
5 23 44 0
5 44 41 0
6 49 70 0
7 31 32 0
8 64 86 0
10 9 37 0
10 82 33 0
11 33 144 0
11 144 31 0
12 131 51 0
13 74 70 0
14 45 73 0
14 54 58 0
14 81 59 0
15 60 46 0
16 54 20 0
16 71 148 0
17 18 91 0
17 91 97 0
18 76 91 0
19 44 110 0
19 102 103 0
19 106 56 0
20 75 16 0
21 102 110 0
21 110 115 0
21 125 130 0
22 24 23 0
22 48 90 0
22 90 24 0
23 24 44 0
24 79 44 0
25 29 116 0
25 54 73 0
26 19 103 0
26 57 117 0
26 103 104 0
27 42 43 0
28 41 56 0
28 98 68 0
29 86 136 0
29 136 116 0
31 144 32 0
32 12 51 0
32 144 121 0
33 11 34 0
33 34 53 0
33 82 61 0
34 4 53 0
36 66 118 0
36 85 64 0
37 87 88 0
37 88 142 0
38 27 40 0
38 39 1 0
38 40 39 0
40 27 43 0
40 43 68 0
40 68 84 0
41 28 43 0
41 42 5 0
42 41 43 0
43 28 68 0
44 56 41 0
44 79 110 0
45 14 59 0
45 29 73 0
45 59 69 0
45 86 29 0
46 14 58 0
46 60 81 0
46 147 15 0
47 48 2 0
47 97 90 0
49 134 70 0
50 52 30 0
50 109 72 0
51 7 32 0
53 10 33 0
54 14 73 0
54 16 58 0
54 103 20 0
55 105 150 0
55 141 140 0
56 44 19 0
56 62 28 0
57 104 116 0
58 16 148 0
59 81 94 0
60 12 122 0
60 15 12 0
61 121 144 0
61 144 33 0
62 56 106 0
62 106 117 0
62 117 124 0
63 36 118 0
63 84 99 0
63 112 36 0
64 8 87 0
64 66 36 0
64 87 66 0
65 112 80 0
66 9 35 0
66 67 118 0
66 87 9 0
67 35 39 0
67 39 40 0
67 40 84 0
67 66 35 0
68 99 84 0
69 8 45 0
69 94 89 0
70 74 76 0
71 16 75 0
71 111 148 0
72 132 134 0
72 133 132 0
73 29 25 0
74 13 71 0
74 71 75 0
74 92 76 0
74 93 92 0
76 6 70 0
76 18 6 0
77 78 97 0
77 91 100 0
78 77 137 0
78 90 97 0
78 105 90 0
78 150 105 0
79 55 115 0
79 105 55 0
81 14 46 0
81 139 94 0
82 10 37 0
82 37 142 0
82 146 95 0
83 80 112 0
83 98 124 0
83 112 96 0
83 149 80 0
84 118 67 0
85 36 112 0
85 86 64 0
85 112 65 0
86 45 8 0
86 85 65 0
87 8 88 0
87 37 9 0
88 8 69 0
88 89 142 0
89 88 69 0
89 94 127 0
89 127 146 0
90 48 47 0
90 105 24 0
91 76 92 0
91 77 97 0
92 93 100 0
92 100 91 0
93 74 75 0
93 75 129 0
93 126 100 0
94 69 59 0
95 61 82 0
95 123 61 0
96 63 99 0
96 98 83 0
97 47 17 0
98 28 62 0
98 62 124 0
98 96 99 0
99 68 98 0
100 119 77 0
100 126 119 0
101 20 103 0
101 75 20 0
101 102 130 0
101 129 75 0
102 19 110 0
102 21 130 0
102 101 103 0
103 25 104 0
103 54 25 0
104 57 26 0
105 79 24 0
106 19 26 0
106 26 117 0
107 15 147 0
107 111 143 0
107 133 131 0
107 147 148 0
108 13 70 0
108 70 134 0
108 114 13 0
108 143 114 0
109 30 113 0
109 50 30 0
109 133 72 0
110 79 115 0
111 13 114 0
111 71 13 0
111 107 148 0
111 114 143 0
112 63 96 0
113 7 51 0
113 51 109 0
115 55 140 0
115 135 21 0
116 104 25 0
116 120 57 0
117 57 120 0
118 84 63 0
119 137 77 0
120 124 117 0
120 136 149 0
121 61 123 0
121 128 122 0
122 12 32 0
122 32 121 0
122 128 139 0
122 139 60 0
123 95 128 0
124 120 149 0
125 21 135 0
126 129 125 0
126 151 119 0
127 94 139 0
127 95 146 0
127 128 95 0
128 121 123 0
129 101 130 0
129 126 93 0
129 130 125 0
131 12 15 0
131 15 107 0
131 109 51 0
132 108 134 0
133 107 143 0
133 109 131 0
134 50 72 0
134 145 50 0
135 115 140 0
135 138 125 0
135 140 151 0
136 65 80 0
136 80 149 0
136 86 65 0
136 120 116 0
137 119 141 0
137 141 150 0
138 126 125 0
138 135 151 0
139 81 60 0
139 128 127 0
140 141 151 0
141 55 150 0
141 119 151 0
142 89 146 0
143 108 132 0
143 132 133 0
145 3 52 0
145 52 50 0
145 134 49 0
146 82 142 0
147 46 58 0
147 58 148 0
149 83 124 0
150 78 137 0
151 126 138 0

End
