MeshVersionFormatted 1

Dimension
2

Vertices
76
0.0 0.0 1
0.5 0.0 1
0.5 0.5 1
0.0 0.5 1
0.25 0.0 1
0.0 0.375 1
0.125 0.5 1
0.24630099665127203 0.16734818136059398 0
0.5 0.1875 1
0.0625 0.5 1
0.0625 0.0 1
0.5 0.0625 1
0.4375 0.0 1
0.5 0.4375 1
0.0 0.4375 1
0.1875 0.5 1
0.4375 0.5 1
0.1404655667944917 0.2960866598619973 0
0.0 0.3125 1
0.37818048901083456 0.30415354643209297 0
0.0 0.171875 1
0.125 0.0 1
0.0 0.046875 1
0.3125 0.5 1
0.22866867104328104 0.22667604720587883 0
0.06582839356883032 0.22584874851103162 0
0.40375954768348654 0.46567742234299836 0
0.5 0.34375 1
0.22202612424820867 0.0732342853163624 0
0.08055534413690946 0.15129716088732734 0
0.37075453552844645 0.2265280372072463 0
0.23132963595876818 0.32069609754042705 0
0.17211122149522914 0.25144257164239525 0
0.21805654918549824 0.41332284138419834 0
0.3766772638185309 0.16937308931507217 0
0.2876902193060527 0.11820334521650112 0
0.2968610881391574 0.06508877064584283 0
0.3068852933048722 0.2769314309884522 0
0.18122012558735306 0.19074306947270028 0
0.05344363386552946 0.4354885499257943 0
0.11161346431971675 0.2583066783078862 0
0.1821432231688744 0.1183382163544121 0
0.12339948120135359 0.20182723447214163 0
0.13990825137210805 0.15821682984444105 0
0.17406601121891874 0.058177914695495284 0
0.1875 0.0 1
0.11137136399023664 0.08369453082093511 0
0.4128443756654108 0.18142206505025155 0
0.3153917060980652 0.37050801824436913 0
0.29778381925579894 0.1591520452874162 0
0.04640643397079129 0.0851941848449849 0
0.3331260195786896 0.11103400184322608 0
0.08469628949509685 0.31416553828366556 0
0.07944735856641554 0.3781184596796799 0
0.1461216466161329 0.3590306507096826 0
0.4288437339454636 0.14107978339626398 0
0.30291395650503156 0.20966194506965222 0
0.12890934976769855 0.4450845234304977 0
0.3520399118178355 0.1489465158060708 0
0.386919482898595 0.07102399423659275 0
0.370401925853793 0.13009528028386505 0
0.34375 0.0 1
0.433382720450727 0.32557835669217183 0
0.3762787418238704 0.36476612485209015 0
0.3641828446561868 0.43522701789176393 0
0.4240120247858789 0.3945774110576338 0
0.4465653022829734 0.46407941487466997 0
0.338837957069608 0.13397213508000125 0
0.3499846577658255 0.17126394842220508 0
0.3147073092634238 0.12959412666386538 0
0.4244175326232391 0.2595079973801172 0
0.3242383306907268 0.14775650969849957 0
0.0 0.109375 1
0.0 0.2421875 1
0.5 0.265625 1
0.375 0.5 1

Edges
28
1 11 1
1 23 1
2 12 1
2 13 1
3 14 1
3 17 1
4 10 1
4 15 1
5 46 1
5 62 1
6 15 1
6 19 1
7 10 1
7 16 1
9 12 1
9 75 1
11 22 1
13 62 1
14 28 1
16 24 1
17 76 1
19 74 1
21 73 1
21 74 1
22 46 1
23 73 1
24 76 1
28 75 1

Triangles
122
3 17 67 0
4 40 10 0
6 19 54 0
8 57 25 0
10 58 7 0
11 23 1 0
11 47 51 0
11 51 23 0
12 9 56 0
12 56 60 0
13 2 12 0
14 3 67 0
16 7 58 0
16 58 34 0
17 27 67 0
20 31 71 0
20 38 31 0
20 63 64 0
24 34 49 0
24 49 65 0
25 32 33 0
25 33 39 0
25 39 8 0
25 57 38 0
26 30 43 0
26 74 21 0
27 66 67 0
28 14 66 0
29 42 45 0
29 46 5 0
30 26 21 0
30 73 51 0
31 35 48 0
31 69 35 0
32 18 33 0
32 55 18 0
33 18 41 0
33 41 43 0
34 24 16 0
34 32 49 0
35 56 48 0
36 8 29 0
36 37 52 0
36 52 70 0
37 29 5 0
37 36 29 0
38 32 25 0
38 57 31 0
40 4 15 0
40 6 54 0
40 15 6 0
41 18 53 0
41 26 43 0
42 8 39 0
42 29 8 0
42 39 44 0
43 39 33 0
43 44 39 0
44 43 30 0
44 47 42 0
46 29 45 0
46 45 22 0
47 11 22 0
47 22 45 0
47 30 51 0
47 44 30 0
47 45 42 0
48 56 9 0
48 71 31 0
49 20 64 0
49 32 38 0
49 38 20 0
49 64 65 0
50 8 36 0
50 36 70 0
50 72 69 0
51 73 23 0
52 37 60 0
52 61 68 0
52 68 70 0
53 26 41 0
53 55 54 0
53 74 26 0
54 19 53 0
54 58 40 0
55 32 34 0
55 34 58 0
55 53 18 0
55 58 54 0
56 35 61 0
57 8 50 0
57 50 69 0
58 10 40 0
59 35 69 0
59 69 72 0
60 13 12 0
60 56 61 0
60 62 13 0
61 35 59 0
61 52 60 0
61 59 68 0
62 37 5 0
62 60 37 0
63 20 71 0
63 28 66 0
63 75 28 0
65 66 27 0
65 76 24 0
66 14 67 0
66 64 63 0
66 65 64 0
68 59 72 0
69 31 57 0
70 68 72 0
71 48 9 0
72 50 70 0
73 30 21 0
74 53 19 0
75 63 71 0
75 71 9 0
76 27 17 0
76 65 27 0

End
