MeshVersionFormatted 1

Dimension
2

Vertices
247
0.0 0.0 1
0.5 0.0 1
0.5 0.5 1
0.0 0.5 1
0.25 0.0 1
0.5 0.25 1
0.25 0.5 1
0.0 0.25 1
0.0 0.375 1
0.125 0.5 1
0.21230765526058626 0.4029609634166091 0
0.3583402379311943 0.3724552639589737 0
0.2780104610242635 0.252138667863571 0
0.21256928226850222 0.2872114928558529 0
0.2667829580098975 0.3458756983469482 0
0.3956794644806887 0.2356112784348915 0
0.5 0.125 1
0.5 0.1875 1
0.3486993546400491 0.2596105058339701 0
0.24979775366058046 0.08271050465622548 0
0.2784577306119765 0.20667199427865582 0
0.3334216076140773 0.16096481606052743 0
0.375 0.0 1
0.3125 0.0 1
0.19418512138770336 0.17748164674559042 0
0.23714118210614266 0.17003177989090687 0
0.125 0.0 1
0.21161656378169816 0.09017761418899804 0
0.3084620960492824 0.32270286762100947 0
0.3303653220915371 0.3599045251460941 0
0.2936934196968717 0.4428741484493073 0
0.375 0.5 1
0.24250093652833116 0.38376190847127983 0
0.1875 0.5 1
0.14649046153243475 0.44674141277801827 0
0.1188195848912807 0.3960790956030809 0
0.0625 0.5 1
0.0 0.125 1
0.10386141490919269 0.12615612232851625 0
0.1131095544025821 0.18169552914062292 0
0.043428768998361435 0.22184762714063236 0
0.0 0.1875 1
0.05572674225599804 0.28248852957797654 0
0.04527966543133069 0.1694970594644559 0
0.0625 0.0 1
0.13301551195560568 0.042286589584065816 0
0.09905022460150463 0.04895916144006267 0
0.21556473466229537 0.04739826824051617 0
0.1875 0.0 1
0.16483735861961873 0.03969924410444703 0
0.27414982198068544 0.03922557108332331 0
0.44993947944961293 0.1052419511303826 0
0.3815216024270801 0.10605269371608823 0
0.45097742940820557 0.21833194802804037 0
0.23136109868124927 0.34927391937652263 0
0.5 0.0625 1
0.4375 0.0 1
0.5 0.375 1
0.4496081729946253 0.3484505639248706 0
0.5 0.3125 1
0.439916698936504 0.28475727777232335 0
0.3775338224293414 0.29885224735596166 0
0.45813609243752657 0.40207916163028634 0
0.5 0.4375 1
0.35081657964676927 0.4458297816363683 0
0.32241921991469924 0.40838260440961976 0
0.4375 0.5 1
0.0 0.4375 1
0.2372524717621549 0.27455205349751693 0
0.3097139847334923 0.2774108842648154 0
0.3129306380321146 0.23453196082276304 0
0.34951424277506243 0.21714779258157077 0
0.456914122276671 0.15792125046212693 0
0.268753967644399 0.1676482641529378 0
0.34301184932705825 0.15327807064525964 0
0.2956937859632053 0.18037944014951984 0
0.2812652712395747 0.1380946549075704 0
0.3494099931182736 0.10893263381295797 0
0.24448674085995817 0.19095920428696983 0
0.21956551527632964 0.19119227611161596 0
0.2487643300413557 0.14552763886608747 0
0.21029428837430927 0.16402368089171762 0
0.1623045554075966 0.21898625924834503 0
0.21407309065128013 0.26047304589880144 0
0.19830573882357455 0.20505335456246726 0
0.33961751172408333 0.3448650436371793 0
0.2505756402399162 0.4272199074258943 0
0.20183239949609422 0.4498269342861055 0
0.17159577541818039 0.41928327747927585 0
0.15765901169313615 0.39817562889269137 0
0.11786146681839317 0.3737385256996645 0
0.1788533151554424 0.35850730111939766 0
0.1376459770760251 0.367740507828835 0
0.17176372690487027 0.15361738050131893 0
0.16379657782012869 0.09666121213302464 0
0.12086613798560579 0.2254435791577097 0
0.11938722679230472 0.15176546666880625 0
0.13791678840964508 0.16526335295225833 0
0.08511112213157972 0.1997804598339538 0
0.09101634204769661 0.3209901314204187 0
0.11192422207820807 0.2777544057322759 0
0.04989103307596115 0.3406558524882547 0
0.1916066555558736 0.2401323034706654 0
0.1568310056252824 0.2556894436416266 0
0.18876337051885717 0.2716902257152547 0
0.17100608760747024 0.2869717513318356 0
0.39626935339403396 0.11321714183636329 0
0.4466891629931156 0.056940713139234135 0
0.4057291867664512 0.3301677076038137 0
0.34022112711551855 0.3010269855706224 0
0.35290733620445924 0.3280003696917673 0
0.40966975240711034 0.4529755509210634 0
0.3609321686496243 0.39855534128272146 0
0.28348156398667534 0.39156488465528 0
0.3172858829490097 0.3785873511907309 0
0.31271527321442066 0.5 1
0.0 0.3115599967829504 1
0.2737487398454143 0.2965075171571199 0
0.23596230988152886 0.31492930377087286 0
0.3484931852019583 0.1905575089882713 0
0.4151624592645465 0.18554325749653558 0
0.3516188956402749 0.15820414864258628 0
0.3479946996031502 0.1715848587575332 0
0.31305317022443774 0.16965557860352848 0
0.3620315093137284 0.09868441391917805 0
0.22965209062812778 0.11717847398609334 0
0.14530576674968973 0.19124951723381411 0
0.2328580634691232 0.22930933052380836 0
0.08276330607459544 0.450021840656409 0
0.061890752241164665 0.39461633372272176 0
0.1638748090135473 0.3058053825051894 0
0.212055217674461 0.33551524416083744 0
0.2108541905746889 0.3661842856706646 0
0.1614853922697823 0.3441277374898262 0
0.15961453852236002 0.36191740115264753 0
0.18801387430903932 0.1626573381581672 0
0.15605040345988752 0.11557509467676302 0
0.12011672805298632 0.0767003990557335 0
0.08490917638880396 0.24011377308498222 0
0.14066740669863687 0.14554309267361748 0
0.15526704487882656 0.15346773451860274 0
0.08864593728758688 0.157118520564135 0
0.41174477771861157 0.1410798018686954 0
0.41131066445712444 0.03530687496492623 0
0.3385320049960721 0.37927193247646435 0
0.3025931864176408 0.35575840046400664 0
0.3759568622673876 0.18853252412420976 0
0.3607066814334169 0.17130519729118437 0
0.3591389619345188 0.13236093540149493 0
0.3784554691439721 0.12075538273050902 0
0.31950366552954496 0.19662021981969652 0
0.15947548280196144 0.17189410326369717 0
0.12084259811594605 0.3455546785717628 0
0.09071040342839362 0.35946403081332595 0
0.18880283500361436 0.29481473233033045 0
0.16070909699822625 0.3265448383923444 0
0.19530631733009593 0.35284919694843825 0
0.14628179715119916 0.33427153946974225 0
0.22854209159151972 0.1465494487925684 0
0.15265844283861593 0.06966120591555613 0
0.16050111273912046 0.12889925179846715 0
0.12929089426066157 0.12717793796014926 0
0.14660382283020817 0.12870324011612447 0
0.12612116433214177 0.31398357620095146 0
0.149469134397813 0.3144186402799688 0
0.1477757138458601 0.29164993366165604 0
0.389545126567562 0.15881010088810046 0
0.36895700853736096 0.12935443692395981 0
0.14517556859551356 0.3491923179322632 0
0.20678336688170765 0.13634433145086344 0
0.14102000983080584 0.09816810367034566 0
0.17722662297712027 0.11752466503286574 0
0.11663809948841498 0.10107720833488953 0
0.3871237349514998 0.13701429194392217 0
0.37510019280729895 0.14951037661606326 0
0.2001018876107981 0.11677969645342426 0
0.1889853155460107 0.12971734579456976 0
0.328000373913957 0.04811753495040584 0
0.29750117050651465 0.08473243983538076 0
0.2683118455943069 0.11304792640345535 0
0.2957945326301044 0.1599665877638486 0
0.30358743242098113 0.13380180271743106 0
0.2966968612761737 0.11648491526918256 0
0.34017428583731585 0.1289023498706008 0
0.3439080324057747 0.36198702028514396 0
0.14246858387757347 0.40707778727225274 0
0.18544722301776864 0.39858246238781625 0
0.19211416709143622 0.3775608896028071 0
0.17097069189587072 0.37673829014969934 0
0.13833538612402424 0.38710919746165035 0
0.08416204896620494 0.10117603585146503 0
0.061303280193683744 0.07816920156885693 0
0.3561355730057865 0.34675289078340055 0
0.3733076628633879 0.3312188963794854 0
0.39036451061001765 0.3818484166720151 0
0.45803822535611266 0.44992226863946383 0
0.4336877609421031 0.3862355128240316 0
0.35257346421872365 0.12806876551185786 0
0.33228712047993375 0.3282814545556067 0
0.3229890453793701 0.34327364129959126 0
0.34843987036295765 0.13524134119687783 0
0.17351395959253313 0.18810539321676162 0
0.09861745408380948 0.38714270423338265 0
0.09452948279323987 0.08244215328623353 0
0.33774268468334345 0.08653540339103016 0
0.35529135891150326 0.14478421919619866 0
0.3759700767737588 0.059165355177248795 0
0.32112086034343085 0.1168580254784288 0
0.19272408368694205 0.4180697249538425 0
0.1533659002445745 0.3784769903808018 0
0.06631808690541714 0.12505279403719866 0
0.3829358039414639 0.35708563189507125 0
0.4161030191133588 0.3624958306588901 0
0.10819390461628096 0.41522085316076385 0
0.0 0.0625 1
0.18130845675354218 0.0728928187204698 0
0.4162856364232925 0.07644101231553835 0
0.42645902243709927 0.4176092802688722 0
0.3912321217993521 0.41383025644102783 0
0.17834332067590772 0.17038466090125348 0
0.17516829219646843 0.3209066527513889 0
0.37185253385417594 0.1364406980175849 0
0.1890215009257024 0.0989468060953075 0
0.17464460953748373 0.1346260912498058 0
0.18936642049951755 0.14590337420089597 0
0.16768706258853455 0.14168824705121008 0
0.33261275069184326 0.14409599862002517 0
0.4105792343209002 0.39565088046646396 0
0.36385057374457125 0.11781341640156978 0
0.36346437191033953 0.14330908945205517 0
0.39030534263993205 0.09563719722777324 0
0.3348517008628373 0.17627646218407048 0
0.17716491076091262 0.3049917664966326 0
0.20479446392203712 0.31428281176623923 0
0.17845087788692965 0.34722616583282295 0
0.3633531881011492 0.15571738209971883 0
0.3704905605358734 0.16465729313578362 0
0.15572994212322613 0.1385806571009607 0
0.13977157057631842 0.11131213168569183 0
0.3177021005782111 0.15059669607570875 0
0.324803819149784 0.13368886327907417 0
0.37628744526650754 0.37734826304351327 0
0.3445089048527895 0.13959308637884046 0
0.33989357263340336 0.16356566165489062 0
0.1908214340212619 0.3281575165187436 0
0.1892524162420039 0.3124921652053323 0
0.1745006037320323 0.3315093535969273 0

Edges
32
1 45 1
1 215 1
2 56 1
2 57 1
3 64 1
3 67 1
4 37 1
4 68 1
5 24 1
5 49 1
6 18 1
6 60 1
7 34 1
7 116 1
8 42 1
8 117 1
9 68 1
9 117 1
10 34 1
10 37 1
17 18 1
17 56 1
23 24 1
23 57 1
27 45 1
27 49 1
32 67 1
32 116 1
38 42 1
38 215 1
58 60 1
58 64 1

Triangles
460
2 108 57 0
3 196 64 0
5 24 51 0
6 60 61 0
7 87 31 0
7 88 87 0
8 43 117 0
10 129 35 0
11 187 188 0
11 209 187 0
12 113 145 0
12 145 185 0
12 185 193 0
12 193 212 0
12 212 242 0
13 70 118 0
13 128 21 0
14 69 119 0
15 33 55 0
15 55 119 0
16 19 72 0
16 54 61 0
16 62 19 0
16 121 54 0
17 18 73 0
18 6 54 0
19 62 110 0
19 71 72 0
20 28 48 0
20 51 179 0
20 179 180 0
21 74 76 0
21 76 151 0
22 75 244 0
22 240 227 0
23 207 178 0
24 178 51 0
25 80 85 0
25 85 202 0
25 202 220 0
26 74 79 0
26 82 159 0
27 46 47 0
27 49 50 0
28 20 126 0
28 176 223 0
29 15 118 0
29 70 110 0
29 146 15 0
29 200 146 0
30 115 146 0
30 145 115 0
30 185 145 0
31 65 116 0
32 65 112 0
33 11 133 0
33 15 114 0
34 35 88 0
34 88 7 0
35 34 10 0
35 214 186 0
36 91 190 0
36 186 214 0
37 4 68 0
38 44 42 0
38 192 211 0
39 97 142 0
39 173 162 0
40 96 99 0
40 97 98 0
40 98 127 0
40 142 97 0
41 42 44 0
41 43 8 0
41 99 139 0
42 41 8 0
43 41 139 0
43 139 101 0
44 99 41 0
45 27 47 0
45 47 192 0
45 192 215 0
46 27 50 0
47 138 204 0
48 5 51 0
48 28 216 0
48 49 5 0
49 48 50 0
50 48 216 0
51 20 48 0
52 17 73 0
52 143 107 0
52 217 108 0
53 107 150 0
53 125 231 0
53 150 229 0
54 6 61 0
54 73 18 0
54 121 73 0
55 33 133 0
56 17 52 0
56 52 108 0
57 108 144 0
57 144 23 0
59 58 63 0
59 197 213 0
59 213 109 0
60 58 59 0
60 59 61 0
61 62 16 0
61 109 62 0
62 109 194 0
63 218 197 0
64 63 58 0
64 196 63 0
65 31 66 0
65 66 113 0
65 219 112 0
66 31 114 0
66 115 145 0
68 9 130 0
69 13 118 0
69 14 84 0
69 84 128 0
69 118 119 0
69 128 13 0
70 13 71 0
70 29 118 0
70 71 19 0
71 13 21 0
71 21 151 0
72 120 147 0
72 151 120 0
73 143 52 0
74 21 79 0
74 26 81 0
75 227 243 0
76 74 181 0
76 124 151 0
77 74 81 0
77 81 180 0
77 180 183 0
77 181 74 0
78 184 208 0
79 80 26 0
80 25 82 0
80 79 128 0
80 82 26 0
81 159 126 0
82 25 136 0
82 136 225 0
83 96 127 0
83 202 85 0
84 14 105 0
84 103 128 0
85 80 128 0
85 103 83 0
86 30 200 0
86 111 193 0
87 11 33 0
87 114 31 0
88 11 87 0
88 209 11 0
89 88 35 0
89 186 90 0
89 187 209 0
90 190 210 0
91 36 203 0
91 93 190 0
91 153 93 0
92 134 235 0
92 157 188 0
92 188 189 0
93 135 210 0
93 153 169 0
94 141 226 0
94 224 225 0
95 137 171 0
96 40 127 0
96 83 104 0
96 101 139 0
97 39 162 0
98 140 141 0
98 141 152 0
99 44 142 0
99 96 139 0
100 43 101 0
100 153 154 0
101 96 104 0
101 164 100 0
102 43 100 0
102 117 43 0
104 83 103 0
104 106 166 0
104 166 101 0
105 103 84 0
105 104 103 0
105 106 104 0
106 105 155 0
106 155 233 0
107 143 174 0
107 231 217 0
108 2 56 0
109 61 59 0
109 212 194 0
110 62 111 0
110 70 19 0
110 111 199 0
111 62 194 0
112 67 32 0
112 196 67 0
112 219 218 0
113 12 242 0
113 66 145 0
113 195 219 0
114 15 146 0
114 87 33 0
114 115 66 0
115 114 146 0
116 7 31 0
116 65 32 0
117 102 9 0
118 15 119 0
119 55 132 0
119 234 14 0
120 148 147 0
120 232 123 0
121 143 73 0
122 75 206 0
122 244 75 0
123 232 244 0
124 22 232 0
124 76 181 0
124 181 240 0
125 53 229 0
125 78 205 0
125 205 207 0
125 207 231 0
125 229 78 0
126 159 170 0
126 180 81 0
127 98 152 0
127 152 202 0
128 79 21 0
128 103 85 0
129 10 37 0
129 37 68 0
129 68 130 0
129 130 214 0
130 9 102 0
130 154 203 0
131 106 233 0
131 221 156 0
132 55 133 0
132 157 245 0
133 11 188 0
134 92 135 0
134 135 169 0
134 156 247 0
135 92 189 0
135 93 169 0
135 189 210 0
136 94 225 0
136 220 94 0
137 95 172 0
137 161 163 0
137 163 239 0
137 172 161 0
138 46 160 0
138 47 46 0
138 160 171 0
140 97 162 0
140 98 97 0
140 163 238 0
141 140 238 0
142 40 99 0
142 211 39 0
143 121 167 0
143 167 174 0
144 108 217 0
144 207 23 0
146 200 30 0
147 16 72 0
147 121 16 0
147 148 237 0
148 120 123 0
148 122 236 0
148 123 122 0
148 236 237 0
149 198 229 0
149 222 230 0
150 174 222 0
151 72 71 0
151 124 232 0
152 94 220 0
152 141 94 0
153 91 154 0
153 100 164 0
153 158 169 0
154 102 100 0
154 130 102 0
155 14 234 0
155 105 14 0
155 234 246 0
156 134 158 0
156 165 131 0
156 221 247 0
157 92 235 0
157 132 133 0
157 133 188 0
157 235 245 0
158 134 169 0
158 153 164 0
159 81 26 0
160 46 50 0
160 50 216 0
160 95 171 0
161 172 224 0
162 173 239 0
163 140 162 0
163 161 238 0
163 162 239 0
164 101 166 0
164 165 158 0
165 156 158 0
165 166 131 0
166 106 131 0
166 165 164 0
167 121 147 0
167 147 237 0
168 150 222 0
168 229 150 0
170 82 225 0
170 159 82 0
170 176 126 0
171 137 239 0
171 173 138 0
172 95 223 0
172 176 177 0
172 177 224 0
173 39 191 0
173 171 239 0
173 204 138 0
174 150 107 0
174 167 175 0
174 175 222 0
175 167 237 0
176 28 126 0
176 170 177 0
176 172 223 0
178 24 23 0
178 179 51 0
178 205 179 0
179 208 183 0
180 126 20 0
180 179 183 0
181 77 182 0
181 182 240 0
182 77 183 0
182 183 208 0
182 208 241 0
184 78 198 0
184 201 243 0
184 227 241 0
185 30 86 0
185 86 193 0
186 89 35 0
187 89 90 0
187 90 189 0
188 187 189 0
189 90 210 0
190 90 186 0
190 93 210 0
190 186 36 0
191 39 211 0
191 192 204 0
191 204 173 0
192 38 215 0
192 47 204 0
192 191 211 0
193 111 194 0
194 212 193 0
195 113 242 0
195 212 213 0
195 213 228 0
196 3 67 0
196 112 218 0
197 59 63 0
197 218 228 0
198 78 229 0
198 201 184 0
199 29 110 0
199 86 200 0
199 111 86 0
199 200 29 0
201 149 206 0
201 198 149 0
202 83 127 0
202 152 220 0
203 36 214 0
203 154 91 0
205 78 208 0
205 178 207 0
206 149 230 0
206 236 122 0
206 243 201 0
207 217 231 0
208 179 205 0
208 184 241 0
209 88 89 0
211 44 38 0
211 142 44 0
212 195 242 0
213 212 109 0
214 35 129 0
214 130 203 0
215 1 45 0
216 95 160 0
216 223 95 0
217 52 107 0
217 207 144 0
218 63 196 0
219 65 113 0
219 195 228 0
220 136 25 0
221 131 233 0
221 233 246 0
221 245 247 0
222 149 168 0
222 175 230 0
223 216 28 0
224 94 226 0
224 226 161 0
225 177 170 0
225 224 177 0
226 238 161 0
227 75 22 0
227 184 243 0
227 240 241 0
228 213 197 0
228 218 219 0
229 168 149 0
230 236 206 0
231 107 53 0
232 22 244 0
232 120 151 0
233 155 246 0
234 119 132 0
234 132 245 0
235 134 247 0
236 175 237 0
236 230 175 0
238 226 141 0
240 22 124 0
240 182 241 0
243 206 75 0
244 122 123 0
245 235 247 0
245 246 234 0
246 245 221 0

End
