MeshVersionFormatted 1

Dimension
2

Vertices
1005
0.0 0.0 1
0.5 0.0 1
0.5 0.5 1
0.0 0.5 1
0.25 0.0 1
0.5 0.25 1
0.25 0.5 1
0.0 0.25 1
0.0 0.375 1
0.125 0.5 1
0.1866481379293035 0.37687189341779664 0
0.35770265342748514 0.358836888401183 0
0.20039977221089886 0.28396102779422616 0
0.37913732088961155 0.1732622135175634 0
0.5 0.125 1
0.5 0.1875 1
0.37979527389725215 0.277067391764512 0
0.2833825830532618 0.18798455938587422 0
0.3192644131047194 0.14097217127422304 0
0.375 0.0 1
0.3125 0.0 1
0.34178958557205047 0.07484192767076525 0
0.19220252191546577 0.180480612272756 0
0.125 0.0 1
0.18562342927318046 0.09229036634224602 0
0.31405487070374627 0.36210845907654704 0
0.375 0.5 1
0.3125 0.5 1
0.1875 0.5 1
0.2137729311290571 0.4499450096772988 0
0.14563543092846262 0.42712509089094036 0
0.08906152695048873 0.3558346772126431 0
0.14276401396315502 0.37770091277498563 0
0.0625 0.5 1
0.0 0.125 1
0.09192561567284122 0.13708148832111922 0
0.12669065456914422 0.1923728486582328 0
0.0 0.1875 1
0.05039807220689564 0.26137666388083824 0
0.0 0.3125 1
0.0625 0.0 1
0.028146816514084634 0.043222668380919455 0
0.0 0.0625 1
0.12169412330715518 0.05979579890668877 0
0.08323578327469335 0.026390500312968922 0
0.1875 0.0 1
0.3001179603549085 0.07252863090082028 0
0.26631119375760326 0.026310802294554004 0
0.407970006351286 0.05993769195729758 0
0.3840281691818009 0.08647397346469689 0
0.2250043934602597 0.3410220024664939 0
0.5 0.0625 1
0.4375 0.0 1
0.5 0.375 1
0.5 0.3125 1
0.4271324719869657 0.42630911158323354 0
0.45719539824281236 0.3741603226433284 0
0.5 0.4375 1
0.3574467824700833 0.4228513213056715 0
0.4375 0.5 1
0.4739475193441612 0.4607791467759232 0
0.0 0.4375 1
0.34050096750307296 0.3308657379274523 0
0.2962921698196055 0.24366518691420108 0
0.3736968298580867 0.23745838402909986 0
0.5 0.22116043503464355 1
0.5 0.15596421201581223 1
0.3645479667417211 0.25934243004330404 0
0.3566978269577423 0.2802988343273135 0
0.3893393972822422 0.2547231357085499 0
0.4039565473683219 0.2729509668390453 0
0.3100015409003905 0.20542139612660323 0
0.27805638647868525 0.15546088040434325 0
0.34308517865573407 0.15030710296416452 0
0.30939603001244015 0.16100576514684248 0
0.30892437179507626 0.1295453908843269 0
0.34373230313648645 0.0 1
0.2803146767139564 0.0 1
0.33271278091551426 0.11113031442826253 0
0.32710613875418987 0.02533092843193758 0
0.21549198430282548 0.1947147984566884 0
0.25756140471075917 0.15983892233199243 0
0.23303320216281592 0.11305929393655186 0
0.1887894844714335 0.25660929947449485 0
0.18205938357434645 0.20851143491666502 0
0.2754515954887192 0.3262405166480231 0
0.336347642184102 0.3628452822574773 0
0.3015775997478389 0.32406770432463206 0
0.28231413960115126 0.5 1
0.34279338480528915 0.5 1
0.2556112426455438 0.37729284382103023 0
0.21950351795900716 0.3907566697714644 0
0.25350315402710505 0.4300411046283512 0
0.1566469596950974 0.5 1
0.21943569476424446 0.5 1
0.23707127896100766 0.449392657908062 0
0.20192058236547383 0.4730700054036392 0
0.20068427520388288 0.42706498197722514 0
0.1819210470715704 0.4031936428629377 0
0.14277644334158535 0.40341793800022474 0
0.16004684807561764 0.37883153644866946 0
0.1049015141917959 0.3753217687581457 0
0.14342361177746193 0.36148394489855534 0
0.029282820388723603 0.5 1
0.09262084272366991 0.5 1
0.12032023723052118 0.45211167366605687 0
0.17598232635695804 0.16455774682958285 0
0.12157688002136466 0.14232457227306455 0
0.13407423504799362 0.21985252352475138 0
0.11597872690412743 0.16593622698705568 0
0.13808272112582157 0.1721672672532912 0
0.08528069066921562 0.19517817793598147 0
0.0 0.155218446873316 1
0.0 0.21993705100995545 1
0.023168858039771922 0.26258789688334777 0
0.07806553672754878 0.25761283699613635 0
0.02896024847946453 0.32948917293027313 0
0.0 0.2815454116020642 1
0.0 0.34298469559746936 1
0.01880187592067433 0.13584856602932183 0
0.06030800004918455 0.13636513575691867 0
0.04502234138878769 0.1720152022309454 0
0.09178478754494265 0.0 1
0.022874274461614167 0.11199855980577841 0
0.06383260496236084 0.10319208656537843 0
0.0 0.09427618783081426 1
0.14577749221067696 0.09473511848976655 0
0.0773592694105794 0.05082882474872147 0
0.10138112482767485 0.04923069708880502 0
0.2341237453343559 0.02649129958139333 0
0.2528193211855015 0.08332131381234224 0
0.2127203093794461 0.08220907588374761 0
0.21952364188391496 0.0 1
0.1579214827739078 0.0 1
0.1488526777018297 0.08160622459778573 0
0.17218502518131112 0.0240629576920652 0
0.17513666706726258 0.06560102888731703 0
0.31685754499095453 0.08572980465031299 0
0.2752229637818728 0.075278507173915 0
0.2841305797338373 0.050916523052986204 0
0.18720831717477623 0.2817943621158316 0
0.40572296652972484 0.14356662366307607 0
0.4272421503179062 0.1631034679487517 0
0.4459592675909634 0.10910184316540855 0
0.47313646057503017 0.13935186997612153 0
0.3567732266248047 0.08260986042197298 0
0.41197725812096325 0.08175579335550957 0
0.4157803976377059 0.11190882539493875 0
0.20376676593740145 0.3604072385857203 0
0.211049826599235 0.33115169860032584 0
0.2657588416163301 0.35486347101090754 0
0.5 0.09234240466610838 1
0.4693519168677384 0.07730142580392693 0
0.4074343092345598 0.0 1
0.42230987535012476 0.03355974377934994 0
0.47871457572992565 0.36128348413399414 0
0.5 0.3435490736643619 1
0.4318425212630346 0.2709380991201561 0
0.3899700911840991 0.35424128852797343 0
0.4164881373944579 0.29545286181937114 0
0.4308769116298919 0.34282066431483754 0
0.3903903592462047 0.4766777719099247 0
0.39433660235379375 0.4073783366238424 0
0.47773239531619444 0.38904029209062946 0
0.43940742819463513 0.36431561800589424 0
0.44396464599595364 0.40197946367717147 0
0.5 0.46968764626529946 1
0.5 0.40709848662748466 1
0.39645354885106937 0.4392782733450178 0
0.3626269497999063 0.47334904024709207 0
0.2829507447289764 0.43576212088542904 0
0.40576967476611414 0.5 1
0.4710181174166696 0.5 1
0.4473399893646892 0.4720947653596084 0
0.4341802374690329 0.45120153326656687 0
0.0 0.40717339102679156 1
0.0 0.46992739321314564 1
0.2473257965104106 0.26284169448474076 0
0.2625218460813613 0.2940821979457349 0
0.33360188141131236 0.31591362801114736 0
0.32988979649016686 0.34453002310732556 0
0.35459239088050276 0.34099233121018324 0
0.37678248801736725 0.33220362050262064 0
0.28346932996754837 0.2641470678686198 0
0.2780609363819753 0.3059722571518951 0
0.3221860132519744 0.2480144598073735 0
0.3041818332139306 0.26132034006121935 0
0.3478237545248578 0.23901378965330958 0
0.4138294070406825 0.25020477956667925 0
0.44027823224722606 0.19743311744143227 0
0.40410586295813455 0.20976150583612116 0
0.4187897938093716 0.19097906323668354 0
0.3352202181860713 0.2868902123559237 0
0.37044176704434195 0.2967628634796216 0
0.2804152289198001 0.19987995797105704 0
0.2547794885364224 0.22405524470053764 0
0.29646660370430483 0.193228490172206 0
0.30946508164522485 0.22580938884785287 0
0.2826400864744662 0.14327090718778357 0
0.2691754434414671 0.15941762026647965 0
0.276172810212388 0.17656906995748056 0
0.35411434862662694 0.1583421228130329 0
0.37001186935305047 0.12127087753068888 0
0.3326509090814822 0.1427558054809432 0
0.2916504972760119 0.1794939348014198 0
0.30550317662257837 0.18128485850382556 0
0.3189829870279801 0.1483985656579951 0
0.2982870094487729 0.161081353504278 0
0.2883105322041652 0.13075421914217863 0
0.2944871528624529 0.14193043994426782 0
0.31139883891548664 0.14527075022914604 0
0.31253668860938616 0.10054742575295803 0
0.29737382421057346 0.025716009167806572 0
0.33988537475916736 0.051968396622215474 0
0.35697303315025924 0.027388138591592785 0
0.24783053129062388 0.20336486863930126 0
0.26483794040367575 0.2024528481493169 0
0.20059399721551235 0.1884044390589115 0
0.25904761709374385 0.13383421476603796 0
0.22702181024683912 0.15600790970268558 0
0.20935452300684684 0.1674717070586518 0
0.21357094452937395 0.17971364542281107 0
0.22981225324298396 0.2006663844542381 0
0.24227474266553842 0.18840900636685026 0
0.23826438976620026 0.17623739251037335 0
0.22635941118357092 0.18528131636105702 0
0.24640380232830245 0.1237275034311949 0
0.20366578107449299 0.1168249183206 0
0.14460812764609793 0.2498430739784647 0
0.1789454505548774 0.24900492160132123 0
0.19459908477049268 0.2691525873253394 0
0.19163033934231394 0.19903547899390675 0
0.15228151657976846 0.20026335259406802 0
0.19667728979951699 0.21181430296667125 0
0.1875144935842551 0.22384883804599287 0
0.32684948605320857 0.37034749485585017 0
0.34590754953428304 0.35984635167796974 0
0.2976404915331002 0.3589406553267924 0
0.3225646899900346 0.30926266365480726 0
0.30639657741730525 0.3111030587856143 0
0.3219459752225856 0.3300702544305992 0
0.2628844766383724 0.46472277786548033 0
0.30080304966383253 0.46526608165441635 0
0.3335129697257214 0.4718482068978122 0
0.24124314519657789 0.3554903076302656 0
0.2038290145615268 0.39257105075526444 0
0.23916287512242027 0.40219253984230213 0
0.1715613889323031 0.47099304763473315 0
0.17091705777813576 0.44433794294570994 0
0.21418026225220477 0.40861254437913486 0
0.13749119572281596 0.4735246555940163 0
0.15918634275369747 0.4225221747470355 0
0.144394205586242 0.38718753760130326 0
0.15034999060218926 0.4139792203212548 0
0.1600034888718805 0.4100320276772981 0
0.17441295939527396 0.39390372295789783 0
0.15168739512445412 0.3740807597137366 0
0.17747041374363542 0.3831752989269401 0
0.13162023811322615 0.37665074558510653 0
0.10235404235434763 0.3534253542270573 0
0.19108270752191678 0.29323331115538537 0
0.16700278984435693 0.3061229368819616 0
0.18437404574747315 0.36567765935746727 0
0.16154970613896394 0.3432013520596559 0
0.16636167608652838 0.36968255680248613 0
0.1379948269788483 0.3683420647611356 0
0.1276787803480673 0.366009845855285 0
0.1055432682520643 0.4765752795326257 0
0.1836201175937142 0.16948255765335934 0
0.19779613349242062 0.16375663223508166 0
0.11258214513006873 0.1407405144503818 0
0.11451988635492001 0.09883664718435144 0
0.13183521572408127 0.20322570520077007 0
0.13729333785285172 0.23485122215940948 0
0.10671114110263834 0.159833234620658 0
0.15769437796388466 0.17009202733282391 0
0.03212345117709703 0.23046807574789213 0
0.10237722158233155 0.18799780285572928 0
0.0896970972078065 0.17816454082568386 0
0.06495797771414522 0.1965189297818764 0
0.1010648356388324 0.20336497825486352 0
0.03038254284764879 0.15298768758291023 0
0.042386649193946996 0.19599465658576928 0
0.06377113911167848 0.23641982019471547 0
0.10089776616687403 0.2521800497607264 0
0.09305433905988668 0.34063709075917725 0
0.08551112774039667 0.3249841602002526 0
0.11552990364718418 0.28662733863445233 0
0.050547397114724904 0.3465653337345456 0
0.034922457214507076 0.29317536422311674 0
0.07677396717667581 0.13320772798406563 0
0.051932490622582456 0.15050735218891062 0
0.02995566988211638 0.08116130991126778 0
0.056089809509219976 0.02952385815011249 0
0.09257897831604724 0.08422647787147555 0
0.07883944015840727 0.11198148381416216 0
0.05618733984789109 0.08628873113199052 0
0.061464040804926165 0.12057538696240212 0
0.15089647040734466 0.10168509160889945 0
0.13656909843381024 0.08626516989589215 0
0.13981327071338157 0.05213062748491771 0
0.1629466963347113 0.04634684132071663 0
0.24941156787877128 0.10413312065965723 0
0.19797388954530512 0.10027790354647023 0
0.21588863856544654 0.10492589745773892 0
0.23279952448045638 0.09333986195204275 0
0.19523276059901334 0.06972174950907326 0
0.14226402946939679 0.027851366539179075 0
0.1387231144088185 0.07138619342692945 0
0.203033988738277 0.025263162068360195 0
0.1798961164341624 0.0804699531479851 0
0.16415605833825034 0.08008236394344212 0
0.28178714558326584 0.10901931261801029 0
0.2926437177865478 0.11846938751812967 0
0.26747042502745527 0.09656735057738064 0
0.25227614540162807 0.05628299787072284 0
0.1676343291742292 0.26661958995477403 0
0.17898975780186155 0.2914279154361879 0
0.17210517371651352 0.2993341328053926 0
0.4498114080721287 0.09321109046058249 0
0.4693818747477322 0.10923561702076054 0
0.42021647495376446 0.13898906453315885 0
0.4362246440162508 0.14732940513585116 0
0.41875542400524596 0.1513376027283871 0
0.4342764242491315 0.17866822847215866 0
0.4320152251917807 0.11760896593011871 0
0.36817225545145277 0.09160409800242811 0
0.3433017024862945 0.09181932291297232 0
0.38250390104988663 0.06426079848987744 0
0.39919017386772504 0.08833856459497609 0
0.43146871350959415 0.13265442757448498 0
0.4075426833155399 0.09800741145745451 0
0.41882819509535274 0.12644105626278448 0
0.44438289889695903 0.21954491393412398 0
0.4699012723913005 0.23485599287750072 0
0.19179995165830938 0.3594155820490603 0
0.19520380754168432 0.3697926309664817 0
0.20980952798724894 0.37750638922648544 0
0.20337215987104434 0.2961697927680194 0
0.1930644290361456 0.31705697470923316 0
0.19898788892967323 0.3396212214994386 0
0.27301213199528024 0.3416475742366797 0
0.2389590963755901 0.33568730167955624 0
0.4620630546217811 0.04052178650008425 0
0.4361923053081315 0.06898633824115051 0
0.08454027841581639 0.36731951082433284 0
0.03204803368560291 0.39020558071316347 0
0.4556252307435516 0.3502341688465871 0
0.38641441178119307 0.3660078454206113 0
0.4238772331104721 0.36004928087198 0
0.4720756886037663 0.3035911800653408 0
0.39798532829610395 0.3467801795558494 0
0.3683402367724157 0.35606079362739046 0
0.3993440055115325 0.359887195391792 0
0.41074294344624823 0.33375265050390346 0
0.4149610882893488 0.44911296421979807 0
0.38863801763241285 0.39699394520733516 0
0.40410186645138707 0.41179737619378315 0
0.40031575673710673 0.3875585119928726 0
0.4740185234261108 0.41536743041436763 0
0.4393115265166491 0.4151044779610649 0
0.3752141447034318 0.43297430479815247 0
0.3794350976127009 0.45468576868295324 0
0.39034903454031367 0.4190657581956851 0
0.3674371823791947 0.39532339904370456 0
0.353652155582643 0.4465700144776797 0
0.31083840228978915 0.39336951009506055 0
0.3195263982945322 0.3802167129295721 0
0.3356295933071502 0.42632087587462925 0
0.4180841001712215 0.4721869223260548 0
0.035138221584477256 0.4405776410224805 0
0.21484356952132075 0.2876374762012897 0
0.2633473557258277 0.2754338408295996 0
0.3384437944189105 0.35112570229561657 0
0.3727242995111525 0.3448616222610543 0
0.35696714876084124 0.3228611894506937 0
0.36364361493724556 0.334835891317201 0
0.2945939755574969 0.2980693213107199 0
0.3143857389580602 0.2942414371946563 0
0.3559517677128998 0.17234117009892985 0
0.3812544075862708 0.2175775572427433 0
0.4409591135709355 0.24394618656855047 0
0.3971444130160991 0.23329749325837346 0
0.42155270242177534 0.2275090631143476 0
0.3364968427474077 0.30477266435180184 0
0.3933380554922217 0.2954814002552437 0
0.4028908635411209 0.3152313269085925 0
0.3807086352068452 0.31508807352797974 0
0.35110796014888884 0.29961391489506745 0
0.2772551874790666 0.21770635977319056 0
0.3358823187611855 0.20325561022969615 0
0.26807804794198414 0.1471149147407117 0
0.26669108717131196 0.16830662963617843 0
0.3495378295993752 0.15507826906892697 0
0.3692274710530549 0.16386826959501857 0
0.3649144358873029 0.1338353195102122 0
0.3103066707652639 0.19155688574756385 0
0.32621452191913497 0.15899486036482036 0
0.3028686471764619 0.15122970034725236 0
0.3028984791696436 0.091767655462451 0
0.31864429148267315 0.12321798250012385 0
0.323139081426929 0.06937003466281678 0
0.3604118106010058 0.06665331302064048 0
0.23612418567930454 0.23531897569379512 0
0.27175922321017226 0.1904355591334495 0
0.24372150751257377 0.15422371661729853 0
0.22312340756231747 0.17026210565244176 0
0.19048485812870344 0.11713822680111718 0
0.24438336295993524 0.13696149781399217 0
0.16508537988308883 0.2504364601736679 0
0.1754499951450063 0.25844204184367303 0
0.18179556939556338 0.26911992526716166 0
0.21226273453775543 0.2743031574663298 0
0.22898814379490032 0.26490409998189773 0
0.2261381218615396 0.28085722503245536 0
0.20773134466870696 0.2567878945774576 0
0.16801455244799954 0.202397370788923 0
0.14465473638080975 0.1925724095305758 0
0.1453999872085227 0.21003507516047643 0
0.17363095423059027 0.23432523816278353 0
0.20303361076364895 0.2261542166978089 0
0.23402089090959866 0.21682157454557482 0
0.19256811319849865 0.24069304197379623 0
0.2840885746882673 0.33820823465911637 0
0.3029299983363142 0.37655218441065097 0
0.29086215268202503 0.31518221931982765 0
0.23063463346079266 0.47256130523383305 0
0.21984401369704984 0.35889241812614375 0
0.23068967987592917 0.3777510585683368 0
0.2251489946946825 0.42732302174606235 0
0.1901166050778401 0.45015191887663547 0
0.13070050307493264 0.43698063414427996 0
0.1947989048765898 0.4063852007815745 0
0.18205810854981141 0.4168802813528368 0
0.1498752348560914 0.3937571675645276 0
0.15288213175804022 0.3641500463414431 0
0.13533966045719167 0.3850966635628386 0
0.1633973452625542 0.351260421798951 0
0.1581833413992371 0.3570521101313269 0
0.14067684954703794 0.41482827742891965 0
0.17026855045173928 0.15948491918313915 0
0.17314126911985261 0.19037992808037799 0
0.1902960556245413 0.15751214779031023 0
0.17005618937546815 0.13704354022047197 0
0.10251816127507017 0.11961775356437093 0
0.12514812891972407 0.09454351968885555 0
0.13614822805276 0.09669473169448288 0
0.15477960709812877 0.23625247701703955 0
0.12512463825272202 0.14942354479613443 0
0.14286717778820612 0.1657036961112651 0
0.1607962464628117 0.1605519841104781 0
0.1513896145186799 0.16160567492593356 0
0.16657300447316403 0.16900015395722917 0
0.14791157397231713 0.17216846506902858 0
0.11667650224858514 0.1957334186813228 0
0.10512343637200094 0.1725252629024602 0
0.0577331262963133 0.1830586771733269 0
0.11651758969805975 0.21600786969559532 0
0.02383551440414949 0.17848618959251655 0
0.07911011269546186 0.215388269001366 0
0.12435001835288698 0.2473562584843073 0
0.1123216012480367 0.3050566960658206 0
0.09874427783153403 0.31312982395809774 0
0.07164789681579423 0.2883042444335995 0
0.09663962371869847 0.29680307341932044 0
0.09647654038621556 0.27349041618024705 0
0.12736259848623555 0.2998257883716268 0
0.07455405299140411 0.3411239516392889 0
0.06150305276419935 0.3182457145324311 0
0.02674168115021959 0.3587597027663585 0
0.08559006195437087 0.1484520813208309 0
0.06302185086142949 0.1667649768544949 0
0.11244482147443069 0.08775579940681465 0
0.07597849787607433 0.09388519228365853 0
0.10737820223196275 0.07058363598506916 0
0.0907979918766494 0.12366179817536102 0
0.041356676821503645 0.13093810326988856 0
0.1570194944943366 0.10926403826550858 0
0.1870889411246467 0.04810457879078843 0
0.21670505980494942 0.0551345695921485 0
0.17158387221528915 0.09431995932352412 0
0.2659924129125167 0.11764603606543755 0
0.28733775241216175 0.09182693530230512 0
0.11692854148689387 0.26728892222062445 0
0.13443765263608867 0.26313078674458973 0
0.16215878206543266 0.30099401886205157 0
0.1556177603343153 0.2911420490940499 0
0.40536110218725674 0.1568449526978936 0
0.455468238649926 0.15088016089871 0
0.3572652057257463 0.09662877095366591 0
0.39710123782341367 0.07634586271178326 0
0.38803696632069384 0.032983980069696626 0
0.37000327972437497 0.07815587089349661 0
0.41032886327074397 0.13306385197960716 0
0.40689612733620206 0.12256668304388653 0
0.4649276750940559 0.26947145811616613 0
0.4260049419563297 0.20920884333043271 0
0.18083522328652563 0.35622135478563455 0
0.19418916853588422 0.30711739574703617 0
0.19704329489744207 0.3276639744200544 0
0.25878591330063505 0.31380784956505153 0
0.2562922600345834 0.3361986701244023 0
0.06773966760475508 0.3628649463485737 0
0.04687013435502616 0.36811673929925776 0
0.04207043406669587 0.41780659028061395 0
0.06580868561396774 0.42613665262531425 0
0.023041550725262663 0.41861910555090137 0
0.4500662022792022 0.32482139231766843 0
0.37550600801813944 0.3756996785360944 0
0.47631077575695924 0.33299452935279905 0
0.41290767516952986 0.3519081520191589 0
0.42649337328066284 0.3184192070759777 0
0.4435403496768964 0.297537498060538 0
0.3870353079894739 0.3819134752792753 0
0.3759411887706391 0.40259951896996776 0
0.39841107693719 0.3744313971836573 0
0.41109311184878694 0.3815716606274534 0
0.4575926833394135 0.39646896924739217 0
0.41608306035643294 0.40400489547702517 0
0.44009971999355335 0.3863643648859734 0
0.3537176047130002 0.37842828730519357 0
0.36242297745314966 0.4078518338974507 0
0.27246846220850124 0.40354231715078026 0
0.32011973803710053 0.4118962297365259 0
0.22762743681707978 0.3268151022119019 0
0.24280765867589907 0.28128719417267006 0
0.373172003957813 0.18992800524896047 0
0.3483572631260915 0.16216341667691 0
0.35537911504447395 0.1652496358106415 0
0.4183536736923425 0.17498348876878148 0
0.3967452409498923 0.17576690838879547 0
0.38794878151030077 0.1707305600230414 0
0.3850501880579813 0.18226284816207775 0
0.46984962095380706 0.1691959559023699 0
0.4675636956467729 0.2012789994996978 0
0.3467720558316977 0.3140228586704305 0
0.293947187446067 0.21231353048983043 0
0.35034373236960475 0.20020554810189503 0
0.3616456480553431 0.15965583712830406 0
0.3519757368750562 0.1393295921522819 0
0.3607435694116642 0.13888577333594784 0
0.39289658071770384 0.09955181897321155 0
0.3738552575252665 0.11229259083433278 0
0.3775624822560626 0.10081998651869421 0
0.3565989909444295 0.12786032882779774 0
0.3645144693316174 0.11430405563544502 0
0.32437296005540683 0.1960702507740512 0
0.3295210495976692 0.18378386043992964 0
0.3348522814950163 0.15850156532302384 0
0.30405486546912824 0.1397172306875085 0
0.3065633048807319 0.11645829374461361 0
0.3121277145834864 0.04843681310586181 0
0.24673110316636246 0.16969130943575564 0
0.19385542681336757 0.13636897554718855 0
0.2217554335850511 0.1355864477068925 0
0.22303064044607349 0.2447770392097982 0
0.21987903273749573 0.2295005120096882 0
0.20829521639375015 0.23889181275599378 0
0.17224757314434755 0.21691431706843456 0
0.14403664499610663 0.18140821477358096 0
0.13568910534213796 0.19082615045462134 0
0.1555225575655427 0.17882889279307573 0
0.14855643464519716 0.22312784141829434 0
0.14158056653874707 0.19997151035643027 0
0.21459781475844428 0.21129224070744088 0
0.2948218549450166 0.3452776831446364 0
0.14727685126099097 0.44805267212055067 0
0.15846496500701993 0.43470416553338953 0
0.18692200380259383 0.39147702349020214 0
0.1681393987631474 0.4171901829670991 0
0.15796210570288688 0.370117621109333 0
0.1282850730679065 0.3544116947758415 0
0.15870404709432487 0.3155454384122295 0
0.16683140321791598 0.3139153423887663 0
0.16623688796239033 0.3598610015466504 0
0.1600044401744745 0.3331882444806297 0
0.15499259255076236 0.34866373523574196 0
0.14926987485935986 0.35467593686741256 0
0.13069321532265277 0.4075785867389537 0
0.166864503684317 0.17952637900498283 0
0.18412741016407924 0.1772182471621266 0
0.1805288915869595 0.19695727413669578 0
0.18388704054933397 0.16182689853640342 0
0.1620502820218515 0.14058376445972678 0
0.1572124214854311 0.13241651879604985 0
0.09524043231611688 0.11131089040861773 0
0.11752132881070972 0.13279844382519554 0
0.12751972362611347 0.13460485987523263 0
0.14278618237340304 0.10395345289314645 0
0.16113134285401218 0.22463834399607577 0
0.13189014980001068 0.14279886707561215 0
0.156091476430995 0.14701780243392776 0
0.14118646513082647 0.14803575046011078 0
0.1420686236157726 0.15664676829108104 0
0.12595341447784175 0.15972959536275816 0
0.1245270880465296 0.229633084648695 0
0.09669311740391728 0.21792689216702277 0
0.08392093594562733 0.30973244899552177 0
0.07299670755523101 0.1801068522973063 0
0.06977976623429318 0.14962815855748474 0
0.07964094763649203 0.1642167383680621 0
0.05304246599204119 0.06105281830098203 0
0.08979073457243655 0.0662547516021787 0
0.04567289282942017 0.10527199436117887 0
0.16600059579561005 0.11727363847175962 0
0.16682644994437956 0.29053789119081347 0
0.150299503826503 0.3119080841905517 0
0.14360284397907633 0.3169343875620133 0
0.15782167812313225 0.2800349924763309 0
0.44930771576372763 0.12896531566517938 0
0.374938496843773 0.12909054189928754 0
0.39886030847914133 0.1332783759253207 0
0.3786530120643619 0.14618480685597274 0
0.396207292180868 0.16611728483264243 0
0.3813496798598367 0.16562550223301006 0
0.4446802325388965 0.16546443817473044 0
0.3473366814720036 0.11068960588007755 0
0.398826898015941 0.14893648502152362 0
0.1720244064313681 0.35382429152955674 0
0.1819388677766734 0.30204747668702175 0
0.18544536754129617 0.32329291163698065 0
0.08948941052095283 0.4475372922586851 0
0.38443844178252323 0.4079093164037816 0
0.41201992402150345 0.3673805679496687 0
0.45433500906180807 0.41109625442696035 0
0.4225300514353648 0.3905274769588248 0
0.3770554520765516 0.3900195498777169 0
0.3407188483303266 0.3710889917251372 0
0.35493739382247197 0.3944131903046758 0
0.32641502804142797 0.4485126322278676 0
0.24246958560483 0.3207848139861322 0
0.22783879871155127 0.2938049831597325 0
0.3418580232321107 0.26475889807680036 0
0.36048439721825204 0.19028420438751828 0
0.34427595146067774 0.216270442450156 0
0.36669706790433254 0.18156012272219058 0
0.3748107741937063 0.17984341969528425 0
0.36933857844521495 0.17258139285896004 0
0.3620921799498185 0.167736989723208 0
0.38482747004695467 0.19849053791092192 0
0.31877912965608024 0.2725033271175225 0
0.36218672385847944 0.3117441766669334 0
0.3485861113193248 0.1862569989279621 0
0.361907448702748 0.14590544454292934 0
0.34581144786028806 0.13767350713767595 0
0.34093783908474506 0.1808711728166317 0
0.33786257522987856 0.19181289363281864 0
0.3176776299393003 0.18312120525153003 0
0.33334797704940305 0.17384215290877783 0
0.3420478760795669 0.15776982175521878 0
0.29654524920317904 0.10436174949257017 0
0.24933871487012985 0.17786177807534406 0
0.19098219973661 0.14895169196183708 0
0.18477424775485052 0.1367645822559312 0
0.19890432432779453 0.12985378165305592 0
0.2141385135466051 0.15792265963916105 0
0.23191182085242407 0.129308870801595 0
0.2819498209614377 0.35173367007422995 0
0.3033232590870047 0.3353648355007005 0
0.29105945257930854 0.3301606792502211 0
0.1707985805150751 0.4284158111479383 0
0.10313607439653877 0.32929023784825534 0
0.12071414130197995 0.3449692676991369 0
0.11553299247704686 0.33212154414913553 0
0.13517698879118262 0.31999056092811157 0
0.16522729442185916 0.320619195486128 0
0.17030117829230587 0.33831886716280163 0
0.1512691071382487 0.32117218091905764 0
0.17368832131254203 0.36301676185061876 0
0.16043538242796598 0.36375780006234354 0
0.151989727085986 0.33923685099304546 0
0.13964395531339258 0.35322876239275436 0
0.14566029170630548 0.3466803217435077 0
0.13212869092903115 0.34330224066965753 0
0.12889052222710423 0.42237550932329976 0
0.1624591476932545 0.18965234005105297 0
0.1755310736719642 0.17381474051546347 0
0.1719802272950136 0.15181511071730822 0
0.16431715794145538 0.13187381633839418 0
0.1026083787887961 0.09944205929839967 0
0.10373172902378158 0.13232725212935853 0
0.12040011543230962 0.11487542903021564 0
0.1354056462524297 0.13559790510013886 0
0.15856808845669595 0.21278246006770135 0
0.14940053947467533 0.15228352858044591 0
0.15430957015196264 0.13998883650666985 0
0.14146117565290373 0.1398557546578535 0
0.13388089935479186 0.15344339964216147 0
0.1257548110845782 0.3128664090795088 0
0.1255382843788091 0.32558444177865736 0
0.113040570931784 0.31942712470156714 0
0.13360021272222836 0.2877660188892817 0
0.0747140550027326 0.0735230796444994 0
0.16123613115282368 0.12583433133340136 0
0.15908116524682334 0.30820533596813027 0
0.1519652007939784 0.26466332811939824 0
0.3946858870587499 0.15564055515811878 0
0.38641698830725185 0.13024728351268702 0
0.39216794105442204 0.14884226320763816 0
0.3856165267304223 0.15225304608455542 0
0.37698940749468945 0.15307566919986976 0
0.38741483576782393 0.14231497066800564 0
0.3655539550117412 0.1424739817632042 0
0.3662444188746646 0.10374775936244357 0
0.17536423499325973 0.3087161328745877 0
0.18355908147357655 0.3124130302746228 0
0.1743264265193257 0.3198202222680766 0
0.11794848904094006 0.37335911602811783 0
0.0716188522743448 0.3914909342240194 0
0.3740275256163921 0.4152620154392093 0
0.42508359898770887 0.37462218834663097 0
0.3473712395292996 0.4091780089354528 0
0.29978575868028506 0.41039488198573054 0
0.29286244112205 0.39276183806547044 0
0.3116202640537864 0.43354311569022225 0
0.24474495331947574 0.30262789802604806 0
0.3675742771002969 0.2041710360473175 0
0.3625813212585318 0.17461597360467854 0
0.35719969562333626 0.1810114429166102 0
0.3988658890850564 0.1896620486917739 0
0.3490236956236434 0.17690793501958915 0
0.3146126098352417 0.17192444522827036 0
0.32389785542411464 0.17597877670431794 0
0.3185327933582403 0.16348475472760104 0
0.33995577437674473 0.16574597427341267 0
0.18362758317372554 0.1523859848127982 0
0.19898330286976001 0.15344175670433685 0
0.1835862758151227 0.14472268162468852 0
0.17737128517704331 0.14103888718819177 0
0.17736326351192938 0.13419421626349287 0
0.19150263707802728 0.128036804671302 0
0.19795995978574843 0.12291729675336555 0
0.21759021038505236 0.14623313902126794 0
0.20225888338556652 0.13580286430444347 0
0.28168311390860257 0.3736382809876752 0
0.18276575664044772 0.43321822732433046 0
0.17687952063208706 0.3304316067726974 0
0.16851535899212913 0.3473808817707187 0
0.15930093133153841 0.32523755419964123 0
0.15151538947366225 0.32931841091939873 0
0.13686963057963672 0.33126422723374427 0
0.14410517622359437 0.32554965357765886 0
0.14610962905806718 0.33260605366012536 0
0.16388797877951494 0.150764080347406 0
0.12107235839378588 0.10678902317498568 0
0.1344159977013278 0.12162259097716205 0
0.156402511802026 0.15468673756993684 0
0.14841941118957913 0.14343947044867675 0
0.10845119587358629 0.23346417034101707 0
0.14976447584365293 0.3017970867604313 0
0.13902701002027668 0.2982781338328277 0
0.4009817535914346 0.11124089209771806 0
0.37979569846459876 0.12135739962513721 0
0.37538083252834487 0.16041306597577532 0
0.38202022676487224 0.15811577014809142 0
0.3702636211987185 0.15607601390496834 0
0.37831669034114274 0.13712485409206457 0
0.3712650158681821 0.14913124745651293 0
0.36661755014219116 0.1382866475509363 0
0.3709303580039536 0.14176780823839122 0
0.18814193726908815 0.3477095098989123 0
0.1306666814403321 0.3920956780658087 0
0.10061196023344954 0.3999358645866943 0
0.3408095624209614 0.3872760588444576 0
0.327970446389032 0.3951629991975563 0
0.34845529363869254 0.1692687224558197 0
0.176895086581103 0.1561981378920234 0
0.2053090183002607 0.1588219046255985 0
0.1702820991838677 0.14431572622955907 0
0.17151093298412465 0.1267561088513707 0
0.2190194693768559 0.12394850599040975 0
0.19845805268721942 0.1439062287568958 0
0.18724367938295194 0.3348408424945138 0
0.17637286772455135 0.34764446892822753 0
0.13814963700691404 0.11298811219516267 0
0.13842959288699414 0.30869332891835016 0
0.146185666099849 0.28853459131089476 0
0.40589382801604346 0.16892859009793923 0
0.4152473698745876 0.162685135414979 0
0.39458391842012547 0.121737611397969 0
0.38761347151415065 0.161978715573988 0
0.36458970090689224 0.15206452858592479 0
0.3706876635957798 0.1349830314550749 0
0.11123259965556667 0.3862052044864965 0
0.09515118820622324 0.42007056790131253 0
0.07846245945659866 0.4035077857772033 0
0.114214373894818 0.41329865709115077 0
0.08503290756375555 0.39029693732819076 0
0.17769670740621904 0.14807983984731157 0
0.2075525757339123 0.15085679609110908 0
0.17615101088283935 0.11603071831910275 0
0.18209322613797946 0.12665999817832244 0
0.21352362497059887 0.1359872892282532 0
0.20763504677768066 0.1422209123096898 0
0.16748913825108672 0.3281414236507013 0
0.17999330420669024 0.3404914930010612 0
0.14811968160816016 0.11147689626737566 0
0.12802696100234714 0.11513678823269748 0
0.13199623513961714 0.10434151258811541 0
0.14280273000122323 0.27698458629872336 0
0.3872565557834744 0.11317808139985258 0
0.1113431658028893 0.432405257620545 0
0.11992604780409158 0.39795629669631655 0
0.20677949528207437 0.12796365486684522 0
0.15474434650168498 0.11956934665682034 0
0.14991371239095547 0.1274251076625169 0
0.14482513189562257 0.1205523682051771 0
0.1489257030596117 0.13599868918441116 0
0.0 0.03125 1
0.03125 0.0 1
0.42519760992143063 0.43947964313199805 0
0.45475842581977854 0.4465035573787554 0
0.33252912957841346 0.32612907640321454 0
0.32428115008592545 0.32184072489894605 0
0.3309024720763657 0.33519857354037286 0
0.3491826323254016 0.3504644105344721 0
0.33627413373620485 0.1483248907856414 0
0.30122924494794806 0.17008488917158648 0
0.31178384696601774 0.1524631589080279 0
0.28969704284102554 0.1535839436616175 0
0.2880701269346425 0.16609389052069665 0
0.3129038501446372 0.1371252669940744 0
0.32854191701592667 0.09887456499796045 0
0.1705099716569873 0.40713170157481854 0
0.1668967871065767 0.3865957533499867 0
0.16910231972075135 0.37812410822821596 0
0.175776139095744 0.3725876751978135 0
0.11118792036537836 0.024421912180620464 0
0.1943873956997804 0.08390996722120579 0
0.34010428430467793 0.10503910335623023 0
0.20656567230874975 0.3083500259023062 0
0.3605589504802532 0.34768693825953406 0
0.41444774133413886 0.433038789248098 0
0.4254680900949455 0.41535544452956646 0
0.34061065461647655 0.3231353249258362 0
0.35169557431520865 0.3322218888392663 0
0.3254893279882061 0.14531721112610957 0
0.3303966644998436 0.15128447227316455 0
0.3187375946606246 0.13318039779064023 0
0.32655396061375314 0.12963427569086405 0
0.3358868452853396 0.12753008998310633 0
0.15743619594363759 0.38803291728430145 0
0.1504606830159515 0.3830492324205023 0
0.16200397368668376 0.39735892817545226 0
0.15250921914488108 0.4026003646399532 0
0.3616389275417162 0.12999685341471565 0
0.35555687078904297 0.1381557222024943 0
0.3586573172238196 0.13381216633912224 0
0.3492062114519829 0.1258396885874777 0
0.3544077190206258 0.11812172087425378 0
0.13911738319506697 0.3929963858857086 0
0.41146241258768473 0.3924804345860918 0
0.4313848516307421 0.4029437840050149 0
0.3379068860081465 0.13664128496107597 0
0.34441230495387043 0.13079322549538122 0
0.3374311954548128 0.11888077028842048 0
0.35658959410751473 0.10848918923373184 0
0.19045436723121922 0.14296511261133452 0
0.36750141781822443 0.12862722264330048 0
0.21658371631874085 0.3023031413278926 0
0.36847715656953844 0.32349564288781574 0
0.3502519440144706 0.14877828067948762 0
0.5 0.2804213303118195 1
0.4385960873285401 0.4343467991996844 0
0.3407817061372511 0.14268176727477505 0
0.3451033006231282 0.11866056198883407 0
0.41442439141011495 0.41783966906582154 0
0.3287418586831901 0.12008170881988563 0
0.3315110698589981 0.13549196183285708 0
0.36286772089883196 0.12352084909887225 0
0.3415886167524698 0.12452215290244899 0
0.35202122351108905 0.1336331629776633 0
0.3212187689775476 0.11204704820100647 0
0.3314154477487172 0.08433693687946268 0
0.3186455044363924 0.34856715844382546 0
0.3854910995146191 0.3440826884597333 0
0.2736744944120218 0.132514506327741 0
0.25424058413918676 0.14632331233118318 0
0.20093228619996223 0.17517589042487203 0
0.20386159849460614 0.20046033279346667 0
0.3275895736666828 0.3576742842377115 0
0.3143495195382889 0.33779014128185825 0
0.1967417628837118 0.38123647630028457 0
0.1351069653824849 0.36141582641561915 0
0.191292008327035 0.17157244583108763 0
0.18154559515378513 0.10497224766790597 0
0.11619031257360396 0.1523818594867904 0
0.12771724395075276 0.1696511824115454 0
0.13150144926944854 0.1818796318157239 0
0.28111537653111096 0.1219576275432062 0
0.36495408980990657 0.04834242354041025 0
0.19789531700796464 0.35034171359732974 0
0.21065080330132474 0.34682484623477666 0
0.37908587977726793 0.3546424560010852 0
0.4019480805419193 0.4000811702934997 0
0.4039623054924599 0.4253063305995383 0
0.3924198070612613 0.3315448183628056 0
0.12335687898366272 0.07767131368031405 0
0.15662548399214576 0.09221148424996525 0
0.17346748336326098 0.2800783156994422 0
0.06433866758007858 0.45268233597891644 0
0.37448294113912284 0.3644600055015323 0
0.36429199181368277 0.36956517361682734 0
0.09446798034690303 0.16207657444955753 0
0.3487168125342658 0.10222434784520074 0
0.3660407581119389 0.3841716975175791 0
0.10774296715845394 0.3438923448598712 0
0.11993504304967816 0.36232686110216755 0
0.11403233757698529 0.35436018482838855 0
0.1103184476147794 0.11117403369355813 0
0.11319484032426798 0.12255199936116393 0
0.12870409390037454 0.2760467871168485 0
0.3956719701812708 0.1422544669246091 0
0.05903041202035748 0.38130309998576367 0
0.32465158612237915 0.167986488089453 0
0.1320942725659735 0.12875898871644434 0
0.0872121194004357 0.23491478803751847 0
0.13280415779253565 0.39906361140273944 0
0.33159505358473834 0.38026869598726876 0
0.3428574154094564 0.17289580725624995 0
0.3669127823131883 0.14625830968334796 0
0.12427369278574506 0.38552778541510935 0
0.10193012847946259 0.1476082854750947 0
0.331247492610826 0.1655432870132492 0
0.15559916885400996 0.12641255997299983 0
0.12438609724103557 0.1247548260494713 0
0.32969694927350396 0.22859325335623104 0
0.2334247401429794 0.0735691927578284 0
0.2799601312435058 0.2865089924388116 0
0.019512245329328305 0.20265869874725376 0
0.2637647831248303 0.25570967995788896 0
0.27340687241919925 0.23975422386286563 0
0.29035097013159344 0.22703108242702946 0
0.3256656770420704 0.21261942531875358 0
0.25287019834759034 0.2449048431359423 0
0.09673959339020795 0.36556374676651276 0
0.10946830086241031 0.36447610476652065 0
0.30008884100792166 0.2803218778702158 0
0.13480539333922503 0.16297693812139594 0
0.16797643042720084 0.10696037679916681 0
0.16067418627280647 0.10183261922915914 0
0.4520187734865737 0.18252779345665218 0
0.23841454898344475 0.25073971954705176 0
0.14262475165858582 0.338393283911207 0
0.07564973565831606 0.3782739300442251 0
0.05831240748794654 0.4018375522163267 0
0.4080827193043552 0.18023270093560112 0
0.09020640935145366 0.3777538245055605 0
0.3457101847432301 0.3407848297908685 0
0.33726937964632936 0.15297938947848239 0
0.2154021828127832 0.31658130921637156 0
0.3993349190935292 0.45803708749377386 0
0.45492459170518185 0.42681698269166485 0
0.3254462052104806 0.13798968809607332 0
0.0571330599549364 0.2158739473068696 0
0.07911473035528493 0.4718950504824632 0
0.37515508213410387 0.1672667597009851 0
0.23197818545795934 0.14170472140624096 0
0.14052570049205554 0.1296228075723922 0
0.18590661800581001 0.1871278858842157 0
0.30794218217145586 0.3483201842766371 0
0.32346350668760165 0.33955029260997616 0
0.11781226363348044 0.18138729468482945 0
0.337307353478952 0.34000239111305675 0
0.47112034779441164 0.4368013985908532 0
0.04549658950670017 0.47587300924140774 0
0.42824022127622857 0.0978559191537164 0
0.2769646402443104 0.1640130905757776 0
0.2994018714217251 0.13365993246737878 0
0.23555916910708025 0.1649327420741899 0
0.2993205995004224 0.12642316822979152 0
0.16150840578909953 0.17429294692484137 0
0.09159378617986894 0.20811079879150624 0
0.22898010290610607 0.31025503509371294 0
0.3609592453076969 0.22078595482996893 0
0.3576323526984625 0.15208539650837624 0
0.1776407092265679 0.1815644050945999 0
0.08977779492428072 0.10047401492050653 0
0.33437568266058987 0.40878276433541777 0
0.35554931376841004 0.2103610475826796 0
0.31796593021965375 0.15567621584435218 0
0.3409788154777817 0.39996923264920864 0
0.38685164134674094 0.12115330656752649 0
0.14590538101146708 0.3690095991025335 0
0.19002195897515628 0.16358007760032467 0
0.32621781403107397 0.2987966692967649 0
0.254139655407343 0.19058559513580475 0
0.0984166357823722 0.3855683183295 0
0.2830818054001116 0.159185256375824 0
0.12242297410570095 0.0425932962703911 0
0.3478487029892696 0.3245680101790499 0
0.15364761397053983 0.06618014756026573 0
0.32346083538848497 0.15235789248734033 0
0.3147888474574 0.31903068106751054 0
0.35212857937898706 0.3685350329577001 0
0.1528162285759975 0.18963777299124282 0
0.12602096843612487 0.33687391499535785 0
0.26402285023285693 0.17932027219367055 0
0.3542452787246638 0.14312674268584655 0
0.20297075545175333 0.3173845869865806 0
0.3922875994759471 0.13668774874931167 0
0.25630749831156724 0.17069829494442715 0
0.3111506555801452 0.32940652394376474 0
0.347345810395418 0.14374527405767107 0
0.340721400136187 0.11329182094975986 0

Edges
62
1 809 1
1 810 1
2 52 1
2 53 1
3 167 1
3 173 1
4 104 1
4 177 1
5 78 1
5 133 1
6 66 1
6 863 1
7 89 1
7 95 1
8 114 1
8 118 1
9 119 1
9 176 1
10 94 1
10 105 1
15 67 1
15 152 1
16 66 1
16 67 1
20 77 1
20 154 1
21 77 1
21 78 1
24 123 1
24 134 1
27 90 1
27 172 1
28 89 1
28 90 1
29 94 1
29 95 1
34 104 1
34 105 1
35 113 1
35 126 1
38 113 1
38 114 1
40 118 1
40 119 1
41 123 1
41 810 1
43 126 1
43 809 1
46 133 1
46 134 1
52 152 1
53 154 1
54 157 1
54 168 1
55 157 1
55 863 1
58 167 1
58 168 1
60 172 1
60 173 1
62 176 1
62 177 1

Triangles
1946
2 52 344 0
4 177 104 0
5 48 130 0
5 130 133 0
6 335 66 0
6 496 335 0
7 95 427 0
8 114 277 0
8 115 118 0
9 347 176 0
10 268 251 0
11 258 827 0
11 263 337 0
11 337 883 0
12 237 816 0
12 353 903 0
12 832 353 0
12 903 995 0
13 141 231 0
13 231 413 0
14 532 533 0
14 638 957 0
15 321 152 0
16 66 535 0
16 535 534 0
17 68 70 0
17 70 71 0
17 71 386 0
18 201 205 0
19 207 211 0
19 822 839 0
20 154 492 0
20 492 215 0
21 77 80 0
21 80 213 0
23 581 885 0
24 134 308 0
24 308 828 0
25 311 829 0
26 236 368 0
26 875 881 0
27 90 170 0
27 162 172 0
29 94 248 0
30 97 431 0
30 98 430 0
31 252 568 0
31 432 675 0
31 440 254 0
31 567 432 0
32 260 936 0
33 253 437 0
33 257 843 0
33 259 266 0
33 266 984 0
34 956 105 0
36 291 476 0
36 476 681 0
37 273 455 0
38 113 459 0
38 459 930 0
39 116 464 0
39 277 284 0
39 290 115 0
41 45 294 0
41 123 45 0
41 294 810 0
42 294 602 0
42 810 294 0
43 293 126 0
44 129 990 0
44 301 309 0
46 133 310 0
47 139 140 0
47 400 483 0
48 5 78 0
48 78 213 0
48 140 316 0
49 147 491 0
50 327 493 0
50 329 491 0
50 542 544 0
51 150 525 0
51 245 428 0
52 153 344 0
53 2 344 0
54 156 157 0
55 510 351 0
56 361 864 0
56 811 833 0
56 833 867 0
57 156 164 0
57 164 518 0
57 348 156 0
58 61 965 0
59 362 366 0
59 710 362 0
59 712 522 0
60 172 370 0
61 58 167 0
61 167 173 0
61 173 174 0
61 174 812 0
61 812 965 0
62 176 507 0
63 964 815 0
63 991 836 0
64 184 932 0
64 187 184 0
65 70 68 0
65 188 975 0
65 381 383 0
67 534 145 0
68 17 69 0
68 69 633 0
69 194 389 0
70 383 189 0
71 160 386 0
72 197 397 0
72 547 934 0
73 200 392 0
73 820 989 0
74 394 650 0
74 650 950 0
74 865 1004 0
75 208 399 0
75 399 819 0
75 722 818 0
75 819 981 0
76 401 839 0
76 550 969 0
76 969 971 0
77 20 215 0
77 215 80 0
78 21 213 0
79 823 830 0
79 830 1005 0
79 856 868 0
80 214 552 0
80 215 214 0
81 218 222 0
81 222 226 0
81 226 223 0
82 393 1002 0
82 406 878 0
82 553 406 0
83 306 303 0
84 231 412 0
84 423 416 0
85 232 234 0
85 234 235 0
85 417 582 0
86 185 426 0
86 502 501 0
87 237 628 0
87 881 374 0
88 240 994 0
88 659 660 0
90 28 244 0
91 247 429 0
92 246 338 0
92 338 429 0
93 171 242 0
93 242 96 0
93 247 523 0
93 430 247 0
94 10 251 0
95 29 97 0
95 97 427 0
96 30 430 0
96 242 427 0
96 427 30 0
97 29 248 0
97 30 427 0
97 248 431 0
98 30 431 0
98 250 430 0
98 431 736 0
98 434 433 0
99 256 569 0
99 434 824 0
99 569 433 0
100 254 440 0
100 435 845 0
100 440 579 0
100 918 851 0
101 257 571 0
101 265 826 0
101 825 842 0
101 843 257 0
102 708 784 0
102 936 937 0
102 988 948 0
103 266 884 0
103 672 578 0
103 984 266 0
104 966 34 0
105 268 10 0
106 622 802 0
106 802 432 0
107 269 677 0
107 767 583 0
108 271 587 0
108 591 449 0
109 273 419 0
109 419 563 0
110 275 887 0
110 595 888 0
110 887 595 0
110 888 963 0
110 963 456 0
111 450 454 0
111 454 560 0
111 888 939 0
112 278 281 0
112 280 599 0
112 281 973 0
113 35 120 0
113 120 282 0
113 282 459 0
114 38 930 0
115 8 277 0
116 39 284 0
117 40 290 0
117 289 470 0
117 290 469 0
117 470 119 0
118 290 40 0
119 40 117 0
120 35 124 0
121 291 600 0
122 457 283 0
122 472 457 0
123 828 45 0
124 35 126 0
124 477 120 0
124 604 477 0
125 296 298 0
125 298 604 0
126 293 124 0
127 299 589 0
128 129 603 0
128 294 45 0
129 44 475 0
129 128 45 0
129 475 603 0
129 828 990 0
130 48 316 0
130 316 480 0
131 139 315 0
131 303 306 0
132 307 480 0
132 480 928 0
132 829 307 0
133 130 310 0
134 46 136 0
134 136 308 0
135 127 300 0
135 300 309 0
135 309 992 0
135 899 127 0
136 302 308 0
136 310 479 0
137 302 479 0
137 307 311 0
137 311 312 0
137 312 992 0
137 479 307 0
138 47 402 0
138 400 47 0
138 402 874 0
139 47 483 0
140 48 213 0
140 139 316 0
140 213 552 0
141 13 261 0
141 261 318 0
141 318 900 0
141 412 231 0
142 324 488 0
142 488 618 0
142 612 494 0
142 618 913 0
143 616 325 0
144 320 321 0
144 321 610 0
144 610 326 0
145 15 67 0
145 489 610 0
145 534 489 0
146 22 403 0
146 327 490 0
146 403 493 0
147 49 345 0
147 332 330 0
148 333 495 0
148 752 332 0
149 336 892 0
149 892 893 0
149 893 428 0
150 51 893 0
150 341 500 0
150 500 1000 0
151 91 245 0
151 342 658 0
151 735 91 0
152 153 52 0
153 152 321 0
153 321 320 0
154 53 155 0
155 53 344 0
155 345 49 0
155 492 154 0
156 54 164 0
156 348 510 0
157 156 510 0
158 189 382 0
159 349 894 0
159 352 354 0
160 71 158 0
160 158 513 0
161 165 350 0
161 350 511 0
161 355 512 0
161 508 348 0
162 27 170 0
162 170 363 0
162 363 952 0
163 357 895 0
163 358 364 0
163 364 623 0
164 54 168 0
164 360 518 0
165 57 520 0
165 161 348 0
165 520 711 0
165 711 350 0
166 361 853 0
166 518 625 0
167 3 173 0
168 58 360 0
169 364 896 0
169 833 356 0
170 90 244 0
170 244 366 0
171 93 523 0
171 243 242 0
171 523 713 0
172 162 370 0
173 60 174 0
174 60 370 0
174 175 812 0
175 174 370 0
175 356 811 0
175 811 864 0
176 347 507 0
177 62 371 0
177 966 104 0
178 373 526 0
178 414 943 0
179 373 929 0
179 501 716 0
179 526 373 0
180 239 385 0
180 385 536 0
180 536 835 0
180 813 814 0
181 962 815 0
182 816 949 0
182 836 377 0
183 375 377 0
183 377 861 0
183 388 897 0
184 931 932 0
184 938 929 0
185 86 501 0
185 929 378 0
186 187 64 0
186 188 633 0
186 198 927 0
187 186 641 0
187 641 938 0
188 65 68 0
188 186 927 0
188 635 975 0
189 71 70 0
189 158 71 0
189 383 384 0
189 384 382 0
190 192 325 0
190 325 942 0
191 383 381 0
192 190 497 0
192 497 191 0
192 720 947 0
193 69 389 0
193 379 641 0
193 385 986 0
194 17 386 0
194 69 17 0
194 388 642 0
195 18 197 0
195 197 537 0
195 405 18 0
196 216 217 0
196 217 390 0
196 422 216 0
196 932 935 0
197 18 205 0
197 72 537 0
197 205 206 0
197 206 397 0
198 64 933 0
198 72 934 0
198 186 64 0
199 73 392 0
199 209 210 0
199 392 877 0
199 820 73 0
200 73 968 0
200 82 392 0
201 18 405 0
201 405 998 0
202 394 976 0
203 543 753 0
203 611 859 0
204 817 838 0
204 837 954 0
205 201 821 0
206 205 818 0
207 19 837 0
207 837 993 0
208 75 818 0
208 818 821 0
208 820 399 0
209 199 877 0
209 314 971 0
210 550 399 0
210 969 550 0
211 399 550 0
211 550 822 0
211 819 399 0
212 138 823 0
212 551 651 0
212 873 551 0
213 80 552 0
214 22 402 0
214 215 891 0
214 402 552 0
214 403 22 0
215 492 891 0
216 223 224 0
216 987 217 0
217 195 390 0
218 23 879 0
218 81 880 0
218 232 960 0
219 227 482 0
219 392 878 0
219 877 392 0
220 406 970 0
220 407 656 0
220 958 406 0
221 222 879 0
221 270 768 0
221 656 407 0
222 218 879 0
222 221 407 0
223 216 422 0
224 225 652 0
224 226 225 0
224 652 987 0
225 226 407 0
225 407 970 0
225 553 652 0
226 224 223 0
227 83 303 0
227 303 482 0
227 409 657 0
227 657 83 0
228 305 771 0
228 771 804 0
229 485 461 0
229 696 485 0
230 84 411 0
230 420 423 0
231 84 416 0
232 85 582 0
232 218 880 0
233 417 684 0
233 419 564 0
233 996 676 0
234 232 880 0
235 234 421 0
236 26 881 0
236 87 628 0
236 919 368 0
237 374 816 0
237 995 628 0
238 26 425 0
238 566 961 0
239 180 814 0
239 379 986 0
239 814 994 0
240 239 994 0
241 815 962 0
241 882 1003 0
241 994 814 0
242 7 427 0
242 89 7 0
242 243 89 0
243 28 89 0
243 244 28 0
243 715 630 0
245 51 343 0
245 91 429 0
245 502 151 0
246 92 250 0
246 250 433 0
246 433 569 0
246 569 883 0
247 91 523 0
247 92 429 0
247 430 250 0
248 94 251 0
248 249 431 0
248 567 249 0
250 92 247 0
250 98 433 0
251 106 567 0
251 567 248 0
252 31 254 0
252 254 255 0
252 570 661 0
253 33 843 0
254 845 255 0
255 844 824 0
256 99 824 0
256 824 844 0
256 825 258 0
257 33 984 0
257 436 571 0
258 11 569 0
258 826 827 0
259 33 437 0
260 32 286 0
260 286 907 0
261 13 339 0
263 11 827 0
263 336 337 0
264 438 577 0
264 671 576 0
264 738 438 0
265 101 571 0
265 571 670 0
265 575 669 0
265 669 827 0
266 259 267 0
266 267 884 0
267 572 884 0
268 105 956 0
268 106 251 0
268 622 106 0
269 107 583 0
269 581 677 0
270 443 727 0
270 727 768 0
270 879 885 0
270 885 985 0
272 745 910 0
272 910 680 0
273 37 561 0
273 109 458 0
273 561 564 0
274 109 563 0
274 596 109 0
275 110 456 0
275 456 904 0
275 904 923 0
276 451 453 0
276 453 972 0
277 39 115 0
277 114 930 0
277 283 955 0
278 112 279 0
278 456 963 0
279 112 599 0
279 599 601 0
279 601 904 0
280 112 460 0
280 283 457 0
280 457 599 0
280 460 955 0
281 278 455 0
281 455 458 0
281 458 597 0
281 597 973 0
282 120 477 0
282 122 459 0
282 292 122 0
283 277 930 0
283 280 955 0
284 277 955 0
284 460 917 0
285 116 917 0
285 749 461 0
285 917 749 0
286 468 287 0
286 662 907 0
287 598 463 0
287 662 286 0
288 462 465 0
288 484 912 0
289 117 469 0
289 504 470 0
290 39 464 0
290 118 115 0
291 36 471 0
291 121 298 0
291 296 476 0
291 471 600 0
292 121 600 0
292 282 477 0
292 477 121 0
293 43 42 0
293 602 297 0
294 128 602 0
295 473 680 0
295 474 693 0
295 680 978 0
296 125 474 0
296 291 298 0
296 474 978 0
297 125 604 0
297 474 125 0
297 602 693 0
298 121 477 0
298 477 604 0
299 127 899 0
299 478 797 0
299 899 941 0
300 127 447 0
301 44 990 0
301 302 992 0
301 308 302 0
302 137 992 0
303 131 315 0
303 315 482 0
304 25 829 0
304 228 408 0
304 305 228 0
304 886 25 0
305 83 771 0
305 132 306 0
305 304 132 0
306 83 305 0
307 479 480 0
308 990 828 0
309 301 992 0
309 898 44 0
310 130 480 0
310 136 46 0
311 25 481 0
311 307 829 0
312 135 992 0
312 311 481 0
312 481 899 0
313 314 890 0
313 315 483 0
314 209 890 0
314 313 651 0
314 551 971 0
315 139 483 0
315 313 482 0
316 131 928 0
316 139 131 0
317 410 411 0
317 411 412 0
317 412 900 0
317 696 410 0
317 900 609 0
318 319 606 0
319 262 486 0
319 318 620 0
319 705 262 0
320 144 967 0
321 15 145 0
321 145 610 0
322 323 324 0
322 333 331 0
323 143 324 0
323 616 143 0
324 142 322 0
325 192 530 0
326 333 148 0
326 610 331 0
327 50 544 0
327 704 490 0
328 22 146 0
328 146 490 0
328 874 22 0
329 50 493 0
329 403 891 0
329 492 49 0
330 491 147 0
330 542 50 0
331 323 322 0
332 147 967 0
333 322 494 0
333 326 331 0
334 190 535 0
335 334 535 0
335 496 382 0
335 535 66 0
336 149 337 0
336 263 498 0
336 761 892 0
337 149 338 0
338 149 428 0
338 428 429 0
338 883 337 0
339 13 372 0
339 372 860 0
339 499 261 0
340 499 1000 0
340 500 621 0
340 621 706 0
341 150 893 0
341 773 500 0
342 151 502 0
343 51 525 0
343 525 631 0
344 153 345 0
345 153 320 0
345 155 344 0
346 32 936 0
346 936 948 0
347 504 914 0
347 505 507 0
347 914 946 0
348 57 165 0
348 508 510 0
349 159 354 0
349 509 902 0
351 496 863 0
351 508 513 0
351 863 55 0
352 159 876 0
352 355 511 0
353 375 894 0
353 902 903 0
354 352 511 0
354 511 624 0
354 516 349 0
355 161 511 0
355 352 897 0
355 387 512 0
356 175 370 0
357 163 623 0
357 359 895 0
357 515 627 0
358 519 867 0
358 867 896 0
359 357 514 0
359 514 516 0
359 516 517 0
359 517 852 0
359 852 895 0
360 58 965 0
360 164 168 0
361 56 834 0
361 166 625 0
361 834 853 0
361 953 864 0
362 169 363 0
362 363 366 0
362 364 169 0
363 170 366 0
364 358 896 0
364 362 710 0
366 244 630 0
367 368 765 0
368 425 26 0
369 59 366 0
369 366 630 0
369 524 979 0
369 630 715 0
369 715 524 0
370 952 356 0
371 506 901 0
372 632 860 0
373 178 931 0
373 931 184 0
374 181 964 0
374 237 87 0
374 881 181 0
374 964 949 0
375 183 876 0
375 353 832 0
375 876 894 0
376 377 836 0
376 536 642 0
376 642 861 0
376 836 991 0
377 375 832 0
377 376 861 0
377 832 182 0
378 240 426 0
378 379 240 0
378 929 938 0
379 193 986 0
379 239 240 0
379 378 938 0
380 529 639 0
380 639 718 0
380 719 721 0
380 721 766 0
381 65 975 0
381 640 191 0
382 334 335 0
382 384 334 0
382 496 158 0
383 70 65 0
383 191 384 0
384 497 334 0
385 193 389 0
385 239 986 0
385 389 536 0
386 160 387 0
386 387 388 0
387 160 512 0
387 355 897 0
388 194 386 0
388 387 897 0
388 861 642 0
389 194 642 0
390 195 537 0
390 932 196 0
390 933 932 0
391 647 538 0
392 82 878 0
393 82 200 0
393 201 998 0
393 968 201 0
394 74 862 0
394 202 528 0
394 528 650 0
394 862 976 0
395 539 756 0
395 638 639 0
395 754 957 0
396 859 783 0
397 206 648 0
398 549 924 0
398 724 981 0
398 981 993 0
400 138 212 0
401 76 551 0
402 22 874 0
403 214 891 0
403 329 493 0
405 195 217 0
405 217 987 0
406 409 878 0
406 958 409 0
407 220 970 0
407 226 222 0
408 228 732 0
408 731 792 0
408 792 791 0
409 219 878 0
409 227 219 0
410 696 229 0
411 84 412 0
411 410 230 0
412 141 900 0
413 231 416 0
413 372 13 0
413 416 414 0
414 178 526 0
414 416 556 0
414 526 415 0
414 556 943 0
415 372 413 0
415 413 414 0
415 632 372 0
417 85 559 0
417 233 676 0
417 442 582 0
418 233 564 0
418 560 996 0
419 233 684 0
419 273 564 0
420 230 410 0
420 410 448 0
420 559 235 0
420 590 559 0
421 234 565 0
421 423 235 0
421 558 423 0
422 196 404 0
422 557 565 0
423 84 230 0
423 420 235 0
423 558 416 0
424 86 660 0
424 342 86 0
424 566 658 0
424 658 342 0
425 368 367 0
425 735 238 0
426 185 378 0
426 240 88 0
428 245 429 0
430 93 96 0
434 99 433 0
434 570 824 0
434 661 570 0
435 253 843 0
435 842 844 0
435 844 845 0
435 851 253 0
436 257 984 0
436 578 439 0
437 253 851 0
437 922 259 0
438 439 577 0
438 575 439 0
439 670 436 0
441 107 453 0
441 451 744 0
441 678 767 0
441 744 678 0
442 417 676 0
442 580 977 0
442 960 582 0
443 270 985 0
443 583 726 0
443 653 727 0
444 769 584 0
445 476 586 0
445 586 910 0
446 272 473 0
446 300 447 0
446 473 898 0
446 799 745 0
447 127 589 0
448 229 274 0
448 274 563 0
448 410 229 0
448 590 420 0
449 887 108 0
450 594 452 0
451 276 452 0
451 441 453 0
452 276 454 0
452 594 685 0
452 747 451 0
453 107 677 0
453 580 972 0
454 276 562 0
454 450 452 0
455 273 458 0
455 278 963 0
455 963 37 0
456 278 279 0
456 279 904 0
457 472 599 0
458 109 596 0
458 749 597 0
459 122 283 0
459 283 930 0
460 112 973 0
460 284 955 0
460 597 917 0
461 274 229 0
461 484 285 0
461 485 484 0
462 288 467 0
462 691 463 0
463 465 462 0
464 465 598 0
464 466 465 0
464 469 290 0
464 598 469 0
465 463 598 0
465 466 288 0
466 116 285 0
466 464 116 0
466 484 288 0
467 689 462 0
467 776 689 0
468 286 32 0
468 503 289 0
469 287 468 0
469 468 289 0
470 9 119 0
470 347 9 0
470 504 347 0
471 36 923 0
472 122 292 0
472 292 600 0
472 600 601 0
473 272 680 0
473 295 475 0
473 475 898 0
474 295 978 0
474 297 693 0
475 44 898 0
475 295 603 0
476 296 586 0
476 445 681 0
478 299 941 0
478 605 805 0
478 805 797 0
478 940 605 0
479 302 136 0
479 310 480 0
480 316 928 0
481 25 886 0
482 313 890 0
482 877 219 0
483 651 313 0
484 466 285 0
484 485 912 0
485 696 800 0
486 262 695 0
486 606 319 0
487 777 609 0
488 614 697 0
488 778 614 0
489 323 610 0
490 704 857 0
490 857 905 0
491 329 49 0
491 330 50 0
492 155 49 0
492 329 891 0
493 327 146 0
494 322 142 0
494 495 333 0
495 494 612 0
495 612 780 0
496 6 863 0
496 351 513 0
496 513 158 0
497 190 334 0
497 384 191 0
498 263 669 0
498 619 774 0
499 339 831 0
499 340 706 0
499 831 1000 0
500 340 1000 0
500 773 621 0
501 179 185 0
501 502 631 0
501 631 716 0
502 86 342 0
502 245 343 0
502 343 631 0
503 32 346 0
503 346 945 0
503 468 32 0
504 289 503 0
504 503 914 0
505 347 946 0
505 371 507 0
506 371 505 0
506 785 622 0
506 946 786 0
507 371 62 0
508 161 512 0
508 351 510 0
509 349 514 0
509 514 627 0
509 627 906 0
510 55 157 0
512 160 513 0
512 513 508 0
514 349 516 0
514 357 627 0
515 357 623 0
515 365 627 0
515 522 365 0
515 623 710 0
516 624 517 0
517 624 711 0
517 626 852 0
518 360 625 0
518 520 57 0
519 358 895 0
519 626 853 0
520 166 853 0
520 518 166 0
520 626 711 0
521 628 995 0
521 903 906 0
522 515 710 0
523 91 735 0
523 735 714 0
524 367 765 0
524 715 713 0
524 765 979 0
525 150 951 0
526 179 716 0
527 634 636 0
527 636 637 0
528 202 529 0
529 202 539 0
529 539 639 0
529 766 528 0
530 143 325 0
530 192 947 0
530 779 143 0
532 14 615 0
533 527 637 0
533 532 531 0
534 67 16 0
534 535 942 0
534 942 616 0
535 190 942 0
536 376 991 0
536 389 642 0
537 72 198 0
537 198 933 0
538 635 391 0
538 643 634 0
538 717 980 0
539 395 639 0
540 645 872 0
540 872 847 0
541 396 759 0
541 644 999 0
541 703 644 0
541 848 396 0
542 330 332 0
542 332 752 0
542 752 801 0
543 203 546 0
543 546 704 0
544 543 704 0
545 848 872 0
545 850 870 0
546 203 870 0
546 850 857 0
547 72 397 0
547 391 934 0
547 397 648 0
547 548 647 0
548 547 648 0
548 646 647 0
548 648 723 0
548 723 649 0
549 398 838 0
549 650 725 0
549 725 924 0
549 838 950 0
550 76 822 0
551 76 971 0
551 314 651 0
552 47 140 0
552 402 47 0
553 82 1002 0
553 970 406 0
554 772 858 0
556 404 943 0
556 557 404 0
556 558 557 0
557 422 404 0
558 421 557 0
558 556 416 0
559 85 235 0
559 684 417 0
560 418 561 0
560 454 562 0
560 561 889 0
560 562 996 0
561 418 564 0
562 276 972 0
562 580 676 0
562 676 996 0
563 419 684 0
563 590 448 0
565 81 223 0
565 223 422 0
565 557 421 0
565 880 81 0
566 660 659 0
567 31 568 0
567 106 432 0
567 568 249 0
568 252 661 0
569 11 883 0
569 256 258 0
570 252 255 0
570 255 824 0
571 436 670 0
572 267 908 0
572 908 909 0
573 574 666 0
573 739 668 0
574 262 705 0
574 695 262 0
574 705 707 0
575 265 670 0
575 438 619 0
576 667 264 0
576 671 740 0
576 740 739 0
577 578 673 0
577 673 671 0
578 436 103 0
578 577 439 0
578 672 673 0
579 440 675 0
579 675 787 0
579 787 803 0
579 803 918 0
580 442 676 0
580 453 677 0
580 562 972 0
580 677 977 0
581 23 960 0
581 960 977 0
583 985 269 0
584 679 444 0
584 686 585 0
585 806 925 0
585 808 806 0
586 296 978 0
586 680 910 0
587 271 681 0
587 911 926 0
588 108 587 0
588 587 926 0
588 591 108 0
588 683 591 0
589 299 797 0
589 775 799 0
590 563 684 0
591 687 593 0
592 686 584 0
592 744 747 0
593 685 594 0
593 687 748 0
594 450 939 0
594 688 593 0
595 449 688 0
595 688 939 0
595 887 449 0
596 274 461 0
596 461 749 0
597 460 973 0
597 749 917 0
598 287 469 0
599 472 601 0
600 471 601 0
601 471 904 0
602 293 42 0
603 295 693 0
604 124 293 0
604 293 297 0
606 486 487 0
606 487 609 0
606 609 900 0
606 900 318 0
607 776 750 0
608 742 665 0
609 696 317 0
609 800 696 0
610 323 331 0
611 203 753 0
611 698 757 0
611 757 783 0
611 783 859 0
612 698 780 0
612 913 1001 0
613 701 758 0
613 757 702 0
613 758 760 0
614 531 532 0
614 778 531 0
614 781 697 0
615 14 957 0
615 755 781 0
616 323 489 0
616 489 534 0
616 942 325 0
617 866 1005 0
618 488 697 0
618 697 699 0
619 438 738 0
619 498 669 0
619 669 575 0
619 738 774 0
620 261 499 0
620 318 261 0
620 499 706 0
620 705 319 0
622 268 956 0
622 785 802 0
622 901 506 0
624 350 711 0
624 511 350 0
624 516 354 0
625 360 953 0
626 517 711 0
626 519 852 0
626 520 853 0
627 365 906 0
628 764 919 0
628 919 236 0
629 365 522 0
629 522 712 0
629 712 982 0
629 764 521 0
629 906 365 0
630 244 243 0
631 525 974 0
632 415 526 0
632 526 716 0
632 716 974 0
633 69 193 0
633 188 68 0
633 193 641 0
634 527 717 0
634 643 719 0
634 719 636 0
635 538 980 0
635 934 391 0
636 638 637 0
637 14 533 0
637 638 14 0
638 395 957 0
638 636 718 0
639 638 718 0
640 527 533 0
640 533 720 0
640 717 527 0
641 186 633 0
641 379 938 0
643 538 647 0
643 721 719 0
644 703 921 0
644 976 999 0
645 854 855 0
645 855 872 0
645 1004 865 0
646 643 647 0
646 920 721 0
647 391 547 0
648 206 722 0
648 722 723 0
649 646 548 0
649 723 915 0
649 920 646 0
650 528 725 0
651 400 212 0
651 483 400 0
652 553 1002 0
653 443 726 0
653 726 728 0
653 858 772 0
654 554 858 0
654 728 729 0
654 729 730 0
654 792 731 0
655 554 731 0
655 734 554 0
656 221 768 0
656 733 220 0
656 790 733 0
657 409 958 0
657 771 83 0
657 958 555 0
658 566 238 0
658 735 151 0
659 88 1003 0
660 86 426 0
660 426 88 0
660 566 424 0
661 249 568 0
661 434 736 0
661 736 249 0
662 287 463 0
662 463 691 0
663 572 909 0
663 664 997 0
663 909 907 0
664 690 997 0
664 691 690 0
664 907 662 0
665 741 690 0
666 574 707 0
666 707 795 0
666 795 739 0
667 774 738 0
667 795 737 0
668 607 573 0
668 608 607 0
669 263 827 0
670 439 575 0
671 264 577 0
671 673 944 0
672 674 673 0
672 884 572 0
673 674 944 0
674 572 663 0
674 672 572 0
674 741 944 0
674 997 741 0
675 432 802 0
675 440 31 0
677 581 977 0
678 744 769 0
678 769 789 0
679 584 585 0
680 586 978 0
681 911 587 0
681 923 36 0
682 745 798 0
682 910 745 0
683 588 916 0
683 687 591 0
683 916 959 0
684 559 590 0
685 592 747 0
685 593 748 0
686 592 748 0
686 808 585 0
687 683 959 0
687 959 808 0
688 449 591 0
688 591 593 0
688 594 939 0
689 690 691 0
690 689 665 0
690 741 997 0
691 462 689 0
691 664 662 0
692 288 912 0
692 467 288 0
692 751 467 0
692 800 777 0
693 128 603 0
693 602 128 0
694 585 925 0
694 679 585 0
694 770 679 0
694 805 605 0
695 573 607 0
695 574 573 0
695 607 750 0
695 750 486 0
697 700 699 0
698 611 753 0
698 612 1001 0
698 702 757 0
698 753 983 0
699 700 702 0
699 702 913 0
700 613 702 0
700 701 613 0
700 755 701 0
701 754 756 0
701 756 758 0
702 698 1001 0
703 541 759 0
704 327 544 0
704 546 857 0
705 620 706 0
705 706 707 0
706 621 707 0
707 621 737 0
707 737 795 0
708 267 259 0
708 937 908 0
709 786 946 0
709 914 945 0
710 59 522 0
710 623 364 0
712 59 369 0
712 369 979 0
712 979 982 0
713 367 524 0
713 714 367 0
713 715 171 0
714 425 367 0
714 713 523 0
714 735 425 0
715 243 171 0
716 631 974 0
717 381 975 0
717 538 634 0
717 640 381 0
717 975 980 0
718 636 719 0
719 380 718 0
720 191 640 0
720 192 191 0
720 531 947 0
720 533 531 0
721 643 646 0
722 75 724 0
722 206 818 0
722 915 723 0
724 75 981 0
724 398 915 0
725 528 766 0
725 649 924 0
725 766 920 0
726 583 767 0
726 767 789 0
727 653 772 0
727 790 768 0
728 654 858 0
728 726 789 0
729 444 730 0
729 728 789 0
730 770 792 0
731 408 732 0
731 554 654 0
731 732 655 0
732 804 655 0
733 790 794 0
733 958 220 0
734 793 794 0
735 658 238 0
736 431 249 0
736 434 98 0
737 621 773 0
737 773 796 0
738 264 667 0
739 573 666 0
739 740 668 0
740 671 743 0
740 742 668 0
741 665 742 0
741 742 743 0
741 743 944 0
742 608 668 0
743 671 944 0
743 742 740 0
744 451 747 0
744 584 769 0
744 592 584 0
745 272 446 0
746 775 807 0
746 807 959 0
747 452 685 0
748 592 685 0
748 687 808 0
749 458 596 0
750 487 486 0
750 751 777 0
750 776 751 0
750 777 487 0
751 692 777 0
752 148 495 0
752 780 801 0
753 543 801 0
753 801 983 0
754 395 756 0
754 615 957 0
754 701 755 0
754 755 615 0
755 700 781 0
756 539 782 0
757 613 760 0
757 760 783 0
758 756 782 0
758 782 921 0
759 396 783 0
759 760 703 0
760 759 783 0
760 921 703 0
761 336 498 0
761 341 892 0
761 498 774 0
761 773 341 0
762 437 851 0
762 803 922 0
762 851 918 0
762 922 437 0
763 785 786 0
763 786 788 0
763 788 988 0
764 628 521 0
764 629 982 0
764 765 919 0
765 368 919 0
765 764 982 0
766 529 380 0
766 721 920 0
767 107 441 0
767 678 789 0
768 790 656 0
769 444 729 0
769 729 789 0
770 444 679 0
770 605 791 0
770 694 605 0
770 730 444 0
770 791 792 0
771 555 793 0
771 657 555 0
771 793 804 0
772 554 734 0
772 734 794 0
773 761 796 0
774 667 796 0
774 796 761 0
775 589 797 0
775 746 798 0
775 798 799 0
776 467 751 0
776 607 608 0
776 608 665 0
776 665 689 0
778 488 779 0
778 779 530 0
778 947 531 0
779 324 143 0
779 488 324 0
780 698 983 0
780 752 495 0
781 532 615 0
781 614 532 0
781 700 697 0
782 539 976 0
782 644 921 0
784 708 922 0
784 763 988 0
784 803 763 0
785 506 786 0
785 763 787 0
785 787 802 0
786 709 788 0
787 675 802 0
787 763 803 0
788 709 945 0
788 945 948 0
788 948 988 0
790 727 772 0
790 772 794 0
791 605 940 0
792 654 730 0
793 555 733 0
793 734 804 0
794 793 733 0
795 576 739 0
795 667 576 0
796 667 737 0
797 807 775 0
798 745 799 0
798 746 926 0
798 926 682 0
799 446 447 0
799 447 589 0
800 609 777 0
800 912 485 0
801 543 544 0
801 544 542 0
801 780 983 0
803 762 918 0
803 784 922 0
804 732 228 0
804 734 655 0
805 694 925 0
805 807 797 0
806 805 925 0
807 805 806 0
807 806 959 0
808 686 748 0
809 42 43 0
810 42 809 0
810 809 1 0
811 56 864 0
811 356 833 0
812 175 864 0
812 953 965 0
813 63 815 0
813 180 835 0
813 241 814 0
815 241 813 0
816 182 832 0
816 374 949 0
817 204 865 0
818 205 821 0
819 207 981 0
819 211 207 0
820 199 210 0
820 208 821 0
820 210 399 0
820 821 989 0
821 201 968 0
821 968 989 0
822 19 211 0
822 76 839 0
823 79 873 0
823 138 874 0
823 328 830 0
823 873 212 0
825 101 826 0
825 256 844 0
825 826 258 0
826 265 827 0
828 123 24 0
828 129 45 0
829 132 304 0
830 617 1005 0
830 905 617 0
831 339 860 0
831 860 951 0
831 951 1000 0
832 12 816 0
834 56 867 0
834 519 853 0
835 63 813 0
835 536 991 0
836 182 949 0
836 949 63 0
837 19 954 0
837 204 838 0
837 838 993 0
838 398 993 0
838 817 950 0
839 401 840 0
839 954 19 0
840 869 954 0
841 840 868 0
841 854 869 0
841 855 854 0
841 868 856 0
841 869 840 0
842 435 843 0
842 825 844 0
843 101 842 0
844 255 845 0
845 254 100 0
846 396 848 0
846 848 545 0
846 870 859 0
847 541 999 0
848 541 847 0
849 545 872 0
849 855 871 0
850 545 849 0
850 546 870 0
850 617 857 0
850 849 866 0
851 435 100 0
854 204 869 0
855 841 871 0
855 849 872 0
856 79 1005 0
856 871 841 0
857 617 905 0
858 653 728 0
859 396 846 0
859 870 203 0
861 388 183 0
862 74 1004 0
865 74 817 0
865 204 854 0
865 854 645 0
866 617 850 0
866 849 871 0
866 856 1005 0
866 871 856 0
867 519 834 0
868 840 401 0
868 873 79 0
869 204 954 0
870 846 545 0
872 848 847 0
873 401 551 0
873 868 401 0
874 328 823 0
875 26 961 0
875 181 881 0
875 961 882 0
875 962 181 0
876 159 894 0
876 897 352 0
877 890 209 0
879 270 221 0
880 565 234 0
881 87 236 0
882 241 962 0
882 659 1003 0
882 961 659 0
883 338 246 0
884 672 103 0
885 269 985 0
885 581 269 0
885 879 23 0
886 304 408 0
886 408 791 0
886 791 940 0
887 271 108 0
887 923 271 0
888 111 889 0
888 595 939 0
888 889 963 0
889 37 963 0
889 111 560 0
889 561 37 0
890 877 482 0
892 341 893 0
893 51 428 0
894 902 353 0
895 358 163 0
895 852 519 0
896 833 169 0
896 867 833 0
897 876 183 0
898 300 446 0
898 309 300 0
899 135 312 0
899 481 941 0
901 956 966 0
902 509 903 0
902 894 349 0
903 509 906 0
903 521 995 0
904 471 923 0
905 328 490 0
905 830 328 0
906 629 521 0
907 664 663 0
907 909 260 0
908 267 708 0
909 908 937 0
909 937 260 0
910 682 911 0
910 911 445 0
911 681 445 0
911 682 926 0
912 800 692 0
913 612 142 0
913 618 699 0
913 702 1001 0
914 503 945 0
914 709 946 0
915 722 724 0
915 924 649 0
916 588 926 0
916 926 746 0
917 116 284 0
918 100 579 0
920 649 725 0
921 760 758 0
922 708 259 0
923 681 271 0
923 887 275 0
924 915 398 0
927 198 934 0
927 635 188 0
928 131 306 0
928 306 132 0
929 185 179 0
929 373 184 0
931 935 932 0
933 64 932 0
933 390 537 0
934 635 927 0
935 404 196 0
935 931 178 0
935 943 404 0
936 102 948 0
936 260 937 0
937 708 102 0
938 184 187 0
939 450 111 0
940 478 941 0
940 481 886 0
940 941 481 0
943 935 178 0
945 346 948 0
946 506 505 0
947 778 530 0
949 964 63 0
950 650 549 0
950 817 74 0
951 150 1000 0
951 974 525 0
952 169 356 0
952 363 169 0
952 370 162 0
953 360 965 0
953 361 625 0
953 812 864 0
954 839 840 0
956 34 966 0
956 901 622 0
958 733 555 0
959 806 808 0
959 916 746 0
960 23 218 0
960 232 582 0
960 442 977 0
961 26 238 0
961 566 659 0
962 875 882 0
964 181 815 0
966 177 371 0
966 371 901 0
967 144 326 0
967 147 345 0
967 148 332 0
967 326 148 0
967 345 320 0
968 73 989 0
968 393 200 0
969 209 971 0
969 210 209 0
970 553 225 0
974 860 632 0
974 951 860 0
975 635 980 0
976 539 202 0
976 644 782 0
976 862 999 0
979 765 982 0
981 207 993 0
984 103 436 0
985 583 443 0
987 216 224 0
987 998 405 0
988 102 784 0
990 308 301 0
991 63 835 0
994 1003 88 0
995 237 12 0
996 233 418 0
997 674 663 0
998 987 652 0
998 1002 393 0
999 540 847 0
999 1004 540 0
1002 998 652 0
1003 994 241 0
1004 645 540 0
1004 999 862 0

End
