MeshVersionFormatted 1

Dimension
2

Vertices
249
0.0 0.0 1
0.5 0.0 1
0.5 0.5 1
0.0 0.5 1
0.25 0.0 1
0.5 0.25 1
0.25 0.5 1
0.10257311989553392 0.23681091931796494 0
0.0 0.25 1
0.0 0.375 1
0.125 0.5 1
0.21992726126727336 0.4109655146418051 0
0.37053063954676496 0.3674280874457929 0
0.259278347957277 0.3044086889654492 0
0.19329486966546866 0.3172192934601995 0
0.3588450392763993 0.21208757035930856 0
0.4527449761518006 0.21877579667877262 0
0.5 0.125 1
0.5 0.1875 1
0.30185985348686906 0.18623379684939909 0
0.375 0.0 1
0.3125 0.0 1
0.22975992669206274 0.18996835356839703 0
0.125 0.0 1
0.17398202830229803 0.07920317973819416 0
0.17293721144853635 0.22760763391741332 0
0.3231611994995467 0.31791981262921387 0
0.3314973289508834 0.31506512911305223 0
0.375 0.5 1
0.27300975224648666 0.4360500251024733 0
0.1875 0.5 1
0.16498284221490553 0.45736913567946774 0
0.11728809092390954 0.37144932651924084 0
0.0 0.125 1
0.07978646897318149 0.13108402384959866 0
0.1586078697731409 0.1334279221108937 0
0.10039423176155532 0.19962943586965093 0
0.06017741172428139 0.21236997539990818 0
0.0 0.1875 1
0.04616012104039235 0.15336683044117774 0
0.0625 0.0 1
0.0 0.0625 1
0.04494452693348653 0.039614485174182854 0
0.1875 0.0 1
0.14851391070821968 0.039957475479905635 0
0.15767396387819307 0.2816865519806083 0
0.41615512439743024 0.1319720763708477 0
0.39569593534281083 0.10282353627055556 0
0.5 0.0625 1
0.4375 0.0 1
0.5 0.375 1
0.5 0.3125 1
0.3368972721605386 0.44927743258261194 0
0.4375 0.5 1
0.0 0.4375 1
0.2706086470158392 0.2615751180269156 0
0.399440511753199 0.2365852134258296 0
0.44443928235409225 0.1563507105311142 0
0.39447000829849993 0.2921754517097388 0
0.26709275358262513 0.19226003946314987 0
0.327709875454835 0.22024608719629682 0
0.3451524595447844 0.14269921715461834 0
0.324180150441051 0.16462038240796018 0
0.28734978999409627 0.10502750322945409 0
0.3535229312137258 0.05336133665024847 0
0.1443619493377246 0.24106319579171429 0
0.19202926817373608 0.28695630060258814 0
0.15350886487684584 0.2045491845900858 0
0.2993758070758592 0.2943968084110046 0
0.33803594024007966 0.3389478729028457 0
0.3236856918667633 0.34563908759506257 0
0.31997757255685005 0.33005835255702726 0
0.2121632836389618 0.4548703496408415 0
0.1874625649206478 0.4253360529859033 0
0.13852240253285408 0.3425280329474953 0
0.17069830468993424 0.30720310785195026 0
0.12482405723757353 0.21530578935326553 0
0.04561446732600188 0.3392637111781017 0
0.06467630144893022 0.2793040857673446 0
0.04204410208278522 0.09768735644134095 0
0.1252059426623592 0.08491462037991754 0
0.21097065130245005 0.0501731202250297 0
0.39258596206688445 0.0520776954980034 0
0.2501041476816479 0.38349384279458476 0
0.44936191576991813 0.27452287445783674 0
0.37711562229460593 0.4387372236674948 0
0.4564090949824874 0.452400352989555 0
0.22562106273734797 0.2657549940729268 0
0.28930689753193634 0.32128551380551146 0
0.4160351657160286 0.18974516491263155 0
0.30939134634962295 0.25349652204489354 0
0.3928633061313595 0.3352232272746243 0
0.3565168481040738 0.16388596793792207 0
0.3416385808493952 0.09066621855862994 0
0.20035343443229509 0.18812157087514073 0
0.2256986347885754 0.1610175688388793 0
0.24385870922993405 0.12655246880535073 0
0.06640289144689408 0.44447611509239804 0
0.08195063390052391 0.36433296350019706 0
0.08710126522344257 0.32526843566524005 0
0.21024202118441035 0.330940270494542 0
0.18629172504105707 0.11464510446607382 0
0.13036351425557705 0.1499654691576278 0
0.07885131452593819 0.08013387594666128 0
0.14531578731539987 0.17877500696573673 0
0.11736688026112246 0.27294702092601186 0
0.2183595978027306 0.30873610175557864 0
0.4416546505806807 0.3347959060249697 0
0.36413283849710854 0.3757801720400455 0
0.420720351011928 0.4238239979291103 0
0.39253806707955347 0.12124399930573206 0
0.3831807621779197 0.1699388534459723 0
0.2603433945283566 0.057239823719184096 0
0.3167664768955072 0.11032353719189633 0
0.2566276185149723 0.16188671741069005 0
0.13091162148263719 0.4002568509239 0
0.17497366226884023 0.34448089707569696 0
0.16581569039130253 0.18068387632241095 0
0.19791185709990797 0.16053692694698965 0
0.151974884890885 0.12476509216331888 0
0.21741022129444354 0.09128193633303043 0
0.14470405238817952 0.1616430619845784 0
0.10674907102453633 0.3034493235344049 0
0.14366905257265472 0.32299134975518834 0
0.3814692714180187 0.13426050563470782 0
0.27697499603730197 0.34862905719000786 0
0.3491419334627778 0.36751031090558983 0
0.34448300723835396 0.3940356732129917 0
0.3595495843034816 0.1157051965523183 0
0.3386455842763495 0.18958745390644163 0
0.31382582676094667 0.06731077218453607 0
0.174883697405159 0.16414718877958404 0
0.15983415046733265 0.1524233557953053 0
0.3453793926215893 0.17320158845319472 0
0.0 0.3125 1
0.3125 0.5 1
0.1712926270304508 0.3999527084789894 0
0.19435209280381457 0.3990630566329941 0
0.1829103460380761 0.37989793252414195 0
0.342635369472754 0.3099927497244933 0
0.2127295925799843 0.37468169265350587 0
0.1555567241484381 0.10463096940538566 0
0.3959908360035426 0.14663114042208972 0
0.40289138288052423 0.3675468632717663 0
0.3776443783871944 0.3586478586352441 0
0.28518082616625556 0.3894233498578245 0
0.0860902363066912 0.16916451661062934 0
0.32204109224254607 0.13129301102857857 0
0.3106005593830117 0.3638226584058239 0
0.23475909475759482 0.34173737387610004 0
0.34000614136736124 0.11634701176790782 0
0.3368632416091751 0.3787108857807752 0
0.1806904196277741 0.20012068215415726 0
0.44164877168320144 0.09177594410854108 0
0.442676056341591 0.3878958800662866 0
0.41220572153885815 0.4628695950424433 0
0.36865698927811025 0.08816667798405055 0
0.16958653113048883 0.3646850415027063 0
0.3832573355556133 0.19628780679638277 0
0.1828201035816176 0.12569769507275216 0
0.13504167628581534 0.3614798697403184 0
0.3619501264034985 0.3195131544802025 0
0.15998209745918426 0.1679429284442317 0
0.15598446333881166 0.34930445229870893 0
0.4120721305332203 0.39410564882555377 0
0.1909950594182482 0.35812596374371775 0
0.3652314380830362 0.34480677606984383 0
0.1910323050946832 0.3366344760471647 0
0.18115569807350018 0.2544994209626095 0
0.33014581989016933 0.14545004673633477 0
0.18513950519160208 0.17873315457332958 0
0.20564719713997304 0.22137628811409676 0
0.14269615025204294 0.3790380720983514 0
0.3749468514933689 0.11101103885737183 0
0.34351405456846923 0.1570679367219088 0
0.15047299917352233 0.3672101653969636 0
0.20774603376519998 0.3488193006546027 0
0.3602976239548474 0.1388576995233439 0
0.3230111765603362 0.4051745258133962 0
0.10376835275197892 0.34807569762153895 0
0.2471866431793656 0.22684035836327582 0
0.10829425276636093 0.1139263794234058 0
0.3702024907136477 0.14315761376671463 0
0.37848533071038953 0.37666884796000566 0
0.35282680039751163 0.2900457652871277 0
0.35188340268530577 0.2558663823043426 0
0.36486083286193854 0.15409521974250512 0
0.35410459729801547 0.15019893403158896 0
0.2881961399116505 0.22575335211992842 0
0.04987648320208375 0.3931387610619963 0
0.2840271036673445 0.1670890052364351 0
0.15400895647158253 0.41653930005692136 0
0.09635902963873576 0.40254437856212105 0
0.1757007346993908 0.3243308714767176 0
0.10778901438640949 0.14611690070051886 0
0.13412299215074036 0.3021824317227659 0
0.12055302376684195 0.1726883521548311 0
0.12394250441877354 0.43702949392381973 0
0.301938967500664 0.16357166468849393 0
0.31325140043364263 0.15264990784634122 0
0.32490097372473203 0.3048257106647273 0
0.3561247456812665 0.4147639820602916 0
0.2930655813589399 0.14985160632904476 0
0.12583066026044706 0.19520014151755843 0
0.3927985323292849 0.41008155983516487 0
0.3938531944342044 0.38999547594767414 0
0.13061663155200004 0.129959337813841 0
0.1477502707145731 0.14205893116225565 0
0.11846223324705693 0.32874299685349423 0
0.3517272366417221 0.3351455670462078 0
0.34274684576132386 0.32446685122311103 0
0.36667939989956927 0.12738728304675112 0
0.3369886349840579 0.12865684283645784 0
0.3612702827565044 0.1826550278448115 0
0.3514312388016336 0.12804057847915928 0
0.31168470270377197 0.31685366188143455 0
0.09694452316112917 0.03708738330659863 0
0.3059344116981543 0.33808123496619785 0
0.3794466960251543 0.1535890226452666 0
0.3642607932069749 0.3925317699821057 0
0.20484568702352024 0.1314449383871912 0
0.36714909244149924 0.1647949755569522 0
0.30120063901944566 0.12605539062981314 0
0.15882170384554736 0.336180823499358 0
0.16067758832517043 0.3176688250454938 0
0.38172610025512216 0.3984909968165908 0
0.15354064171249693 0.3957856544716211 0
0.37268057938374577 0.410745842917471 0
0.12499871334364661 0.35074488777266305 0
0.1611372559609107 0.3810677048192697 0
0.15483319243619922 0.3068882005382825 0
0.33218847519242534 0.34468765412013164 0
0.13029741465013606 0.11155762948121788 0
0.5 0.4375 1
0.35247435142198746 0.3813284799616707 0
0.3289437936109994 0.11961322055634585 0
0.3352321909129156 0.3580599193304874 0
0.171459647958296 0.13477651315259154 0
0.18323215686892735 0.14529850554717663 0
0.3293277095274281 0.3407210636225554 0
0.278191311293965 0.13695565122361258 0
0.3288672718797186 0.2818117366716958 0
0.33119432026243745 0.3295068013105289 0
0.1681769221302035 0.12429188710289066 0
0.36389041108378384 0.36081029207248977 0
0.3492255174584518 0.3505338022437348 0
0.4088318929371019 0.15736265273554487 0
0.46059541124676195 0.4123479473566364 0
0.0625 0.5 1

Edges
32
1 41 1
1 42 1
2 49 1
2 50 1
3 54 1
3 234 1
4 55 1
4 249 1
5 22 1
5 44 1
6 19 1
6 52 1
7 31 1
7 136 1
9 39 1
9 135 1
10 55 1
10 135 1
11 31 1
11 249 1
18 19 1
18 49 1
21 22 1
21 50 1
24 41 1
24 44 1
29 54 1
29 136 1
34 39 1
34 42 1
51 52 1
51 234 1

Triangles
464
1 43 42 0
5 22 113 0
5 82 44 0
5 113 82 0
8 37 77 0
8 38 37 0
8 66 106 0
9 38 79 0
10 135 78 0
11 98 198 0
12 73 74 0
12 141 84 0
13 109 245 0
13 184 109 0
14 89 126 0
14 107 88 0
14 126 150 0
15 67 107 0
15 101 168 0
15 168 194 0
15 194 76 0
16 61 130 0
16 130 214 0
17 19 6 0
17 57 90 0
18 58 154 0
19 17 58 0
20 60 191 0
20 61 189 0
20 130 61 0
20 189 60 0
20 191 199 0
21 65 22 0
23 60 181 0
23 95 96 0
23 96 115 0
24 44 45 0
25 45 82 0
25 82 121 0
26 66 68 0
26 68 153 0
26 153 172 0
27 243 72 0
28 27 201 0
28 140 211 0
28 211 243 0
30 7 73 0
30 12 84 0
30 53 136 0
30 73 12 0
30 84 146 0
30 136 7 0
31 11 32 0
31 73 7 0
32 11 198 0
33 116 193 0
33 173 116 0
33 229 161 0
35 40 80 0
35 195 147 0
36 238 133 0
37 38 147 0
37 147 197 0
38 8 79 0
38 39 40 0
38 40 147 0
39 34 40 0
39 38 9 0
40 34 80 0
40 35 147 0
41 217 43 0
42 80 34 0
43 1 41 0
43 80 42 0
45 25 81 0
45 81 217 0
46 66 169 0
46 76 231 0
46 196 106 0
47 48 154 0
47 58 247 0
48 47 111 0
48 83 154 0
48 111 174 0
48 157 83 0
49 50 2 0
49 154 50 0
51 234 248 0
52 108 85 0
53 30 179 0
57 16 159 0
57 186 16 0
58 17 90 0
58 18 19 0
58 90 247 0
59 85 108 0
59 162 185 0
59 185 186 0
60 23 115 0
60 115 191 0
61 16 186 0
61 91 189 0
62 170 213 0
62 213 215 0
63 20 199 0
63 170 175 0
63 199 200 0
64 113 131 0
64 114 223 0
65 21 83 0
65 94 131 0
66 8 77 0
66 26 169 0
66 46 106 0
67 15 76 0
67 46 169 0
68 77 204 0
68 105 118 0
69 14 56 0
69 56 91 0
69 91 242 0
69 201 216 0
70 210 246 0
70 232 240 0
70 243 211 0
71 72 240 0
71 237 149 0
72 71 218 0
72 216 27 0
73 31 32 0
74 32 192 0
74 73 32 0
74 137 138 0
74 138 12 0
75 124 224 0
75 209 124 0
76 46 67 0
76 194 225 0
77 37 204 0
77 68 66 0
78 100 99 0
79 8 106 0
79 100 78 0
79 106 123 0
79 135 9 0
80 43 104 0
81 142 233 0
81 182 104 0
81 233 182 0
82 45 44 0
83 21 50 0
84 126 146 0
84 150 126 0
85 6 52 0
85 17 6 0
85 57 17 0
85 59 57 0
86 29 53 0
86 53 202 0
86 156 29 0
86 202 228 0
87 3 54 0
87 54 156 0
87 234 3 0
88 56 14 0
88 172 181 0
89 14 69 0
89 69 216 0
89 216 218 0
90 57 159 0
91 56 189 0
91 61 186 0
91 186 242 0
92 59 108 0
93 187 222 0
93 188 187 0
94 65 157 0
94 114 131 0
95 23 172 0
95 153 171 0
96 95 119 0
96 221 97 0
97 115 96 0
97 241 115 0
98 4 55 0
98 55 190 0
98 193 198 0
98 249 4 0
99 33 193 0
100 79 123 0
100 123 209 0
101 107 150 0
102 121 221 0
102 160 244 0
104 35 80 0
104 43 217 0
104 217 81 0
105 68 204 0
105 122 163 0
105 197 122 0
105 204 197 0
106 196 123 0
107 67 88 0
107 101 15 0
108 52 51 0
109 127 245 0
109 184 220 0
110 86 205 0
110 87 156 0
110 156 86 0
110 248 87 0
112 159 214 0
112 214 222 0
112 247 90 0
113 64 97 0
114 64 131 0
114 94 151 0
114 148 223 0
114 151 236 0
116 192 198 0
117 224 194 0
118 105 163 0
118 153 68 0
118 171 153 0
119 95 171 0
119 132 239 0
119 221 96 0
120 207 233 0
120 244 36 0
121 82 113 0
121 102 25 0
121 113 97 0
125 143 219 0
125 174 111 0
125 212 174 0
126 89 218 0
127 109 235 0
127 152 237 0
128 152 235 0
129 94 157 0
129 174 212 0
130 20 63 0
130 63 134 0
130 134 214 0
131 22 65 0
131 113 22 0
132 118 163 0
132 119 171 0
132 133 239 0
133 122 208 0
133 132 163 0
133 208 36 0
133 238 239 0
134 175 93 0
135 79 78 0
136 53 29 0
137 74 192 0
137 139 138 0
137 192 227 0
138 139 141 0
138 141 12 0
139 137 230 0
140 28 201 0
140 242 185 0
141 139 166 0
141 166 177 0
142 25 102 0
142 81 25 0
142 120 233 0
143 47 247 0
143 111 47 0
143 112 219 0
143 125 111 0
144 92 108 0
144 165 206 0
144 206 184 0
145 92 144 0
145 167 92 0
145 245 167 0
146 126 149 0
146 179 30 0
147 195 197 0
148 114 236 0
148 170 200 0
149 152 179 0
149 179 146 0
149 237 152 0
150 84 141 0
150 107 14 0
150 141 177 0
151 94 129 0
151 129 215 0
151 213 236 0
152 127 235 0
153 95 172 0
154 49 18 0
154 58 47 0
154 83 50 0
155 51 248 0
155 108 51 0
155 110 165 0
155 144 108 0
156 54 29 0
157 65 83 0
157 174 129 0
158 117 166 0
158 164 117 0
158 230 176 0
159 112 90 0
160 102 221 0
160 238 244 0
161 75 164 0
161 173 33 0
161 229 75 0
162 59 92 0
162 140 185 0
162 167 210 0
162 211 140 0
163 122 133 0
165 144 155 0
165 205 206 0
166 139 158 0
166 168 177 0
167 162 92 0
167 245 246 0
168 166 117 0
169 88 67 0
170 62 175 0
170 63 200 0
170 148 213 0
171 118 132 0
172 23 181 0
172 88 169 0
172 169 26 0
173 161 176 0
173 230 227 0
174 157 48 0
175 134 63 0
175 188 93 0
176 161 164 0
176 164 158 0
177 101 150 0
177 168 101 0
178 62 215 0
178 187 188 0
178 188 62 0
179 152 128 0
179 202 53 0
180 33 99 0
180 99 100 0
181 56 88 0
181 189 56 0
182 35 104 0
182 233 207 0
183 178 212 0
183 219 187 0
184 13 145 0
184 145 144 0
184 206 226 0
186 57 59 0
186 185 242 0
187 178 183 0
187 219 222 0
188 175 62 0
189 181 60 0
190 10 78 0
190 55 10 0
190 78 99 0
190 99 193 0
191 115 241 0
192 32 198 0
193 98 190 0
194 168 117 0
194 224 225 0
195 35 182 0
196 46 231 0
196 209 123 0
197 103 122 0
197 195 103 0
197 204 37 0
198 193 116 0
199 191 203 0
199 203 200 0
200 223 148 0
201 27 216 0
201 69 242 0
202 128 220 0
202 179 128 0
203 191 241 0
205 86 228 0
205 165 110 0
206 205 226 0
207 103 195 0
207 195 182 0
207 208 103 0
208 120 36 0
208 122 103 0
208 207 120 0
209 75 229 0
209 180 100 0
209 196 124 0
209 229 180 0
210 70 211 0
210 167 246 0
211 162 210 0
212 125 183 0
212 215 129 0
213 148 236 0
213 151 215 0
214 93 222 0
214 134 93 0
214 159 16 0
215 212 178 0
216 72 218 0
217 24 45 0
217 41 24 0
218 71 149 0
218 149 126 0
219 112 222 0
219 183 125 0
220 184 226 0
220 226 228 0
220 228 202 0
220 235 109 0
221 121 97 0
221 239 160 0
223 200 203 0
223 241 64 0
224 117 164 0
224 124 225 0
224 164 75 0
225 124 231 0
225 231 76 0
226 205 228 0
227 116 173 0
227 192 116 0
227 230 137 0
229 33 180 0
230 158 139 0
230 173 176 0
231 124 196 0
232 70 246 0
232 71 240 0
234 87 248 0
235 220 128 0
237 71 232 0
237 246 127 0
238 36 244 0
238 160 239 0
239 221 119 0
240 72 243 0
241 97 64 0
241 223 203 0
242 140 201 0
243 27 28 0
243 70 240 0
244 120 142 0
244 142 102 0
245 127 246 0
245 145 13 0
246 237 232 0
247 112 143 0
248 110 155 0
249 98 11 0

End
