MeshVersionFormatted 1

Dimension
2

Vertices
1010
0.0 0.0 1
0.5 0.0 1
0.5 0.5 1
0.0 0.5 1
0.25 0.0 1
0.5 0.25 1
0.25 0.5 1
0.12567896085910063 0.2604261221642236 0
0.0 0.375 1
0.125 0.5 1
0.18891316724690663 0.38302372523780076 0
0.2005968629225572 0.3001540919582196 0
0.3288861275865281 0.3034176465225867 0
0.4204899633832244 0.2754369482588216 0
0.5 0.125 1
0.5 0.1875 1
0.25963478029247855 0.11670449441462628 0
0.2870812776540297 0.20219716602680102 0
0.3243722511946748 0.14525490488854345 0
0.375 0.0 1
0.3125 0.0 1
0.125 0.0 1
0.2794915124089876 0.30525616244338377 0
0.3138217432823717 0.35359730620511226 0
0.375 0.5 1
0.3125 0.5 1
0.23904502208686956 0.3901076059864103 0
0.1875 0.5 1
0.20341510011162506 0.4672272970350275 0
0.14768168590410752 0.426604466321433 0
0.08803251644381757 0.35410234067951996 0
0.13990507310019146 0.37837883711285897 0
0.0625 0.5 1
0.10577971710800642 0.4526825728363171 0
0.0 0.125 1
0.09628834247646308 0.13626190113134218 0
0.1180587895681301 0.2001156085571223 0
0.0 0.1875 1
0.02605188748763699 0.3284633369790773 0
0.0 0.3125 1
0.030269780829853456 0.1590381693440254 0
0.0625 0.0 1
0.034930161630724245 0.07240765626442462 0
0.0 0.0625 1
0.11677793069577316 0.06573977103895182 0
0.15630876308879485 0.034161415208869415 0
0.3065108960741168 0.05226631458257725 0
0.5 0.0625 1
0.4375 0.0 1
0.03301501899000241 0.3881772836722772 0
0.5 0.375 1
0.44087763856007817 0.3203550360895517 0
0.5 0.3125 1
0.38522263780760607 0.3298973562804576 0
0.429730612846518 0.42375117719238053 0
0.5 0.4375 1
0.3415929532443512 0.43565488847842926 0
0.4375 0.5 1
0.0 0.4375 1
0.2305953978168059 0.253429674391016 0
0.29569552541036137 0.28050214646740246 0
0.5 0.22116043503464355 1
0.5 0.15596421201581223 1
0.4740013917689726 0.1701479262493246 0
0.34710457989254356 0.29123010153163525 0
0.2714722281934714 0.23393813093260027 0
0.27202660249011157 0.15936135192401443 0
0.3511808572799061 0.156079895601738 0
0.29239803003761844 0.16976906071985445 0
0.2811162764189688 0.0 1
0.34168770048303426 0.0885714027198957 0
0.24398326468292172 0.14042327182742168 0
0.2402204011750237 0.10560118245977392 0
0.2635562433302636 0.3148002726777242 0
0.26589826988105875 0.2783972934105801 0
0.33415036507283097 0.3554532228466868 0
0.28768612625976825 0.343423404712584 0
0.31791126509564677 0.33193920164512675 0
0.34286503227599824 0.5 1
0.23962601353375348 0.3655247773080867 0
0.2210254467069034 0.3758836781187464 0
0.1566469596950974 0.5 1
0.21943569476424446 0.5 1
0.2730012871656505 0.41909623891250763 0
0.14131010073536068 0.4752055678212207 0
0.17219285112531324 0.4062661094592803 0
0.14448354699147833 0.40120087345047944 0
0.15807996413766645 0.3809349085452756 0
0.12043419057711859 0.368902304231894 0
0.11046957465345517 0.342539128266457 0
0.17837420021390665 0.30151103710717747 0
0.16667769952184716 0.36641750345979757 0
0.040137418562628605 0.46046355323451 0
0.09262084272366991 0.5 1
0.08142906856793883 0.4661075015316809 0
0.11214667556456757 0.4739121091319082 0
0.1139254062168465 0.43450980152804686 0
0.11729121872955298 0.14783312066108517 0
0.1419940255902016 0.22862342035528285 0
0.11949286363650348 0.16433475319608248 0
0.08737126220246681 0.20833159445439314 0
0.0 0.15784646966655388 1
0.0 0.21993705100995545 1
0.09631896471271957 0.33176020333433826 0
0.11309495723268564 0.3144723878806435 0
0.025890989990984433 0.3573463651850714 0
0.05587148325846678 0.2926080482104247 0
0.04953344299728713 0.34285688006529275 0
0.0 0.34298469559746936 1
0.06423691984530959 0.1504999219703959 0
0.026248926563872628 0.18216876152850786 0
0.09178478754494265 0.0 1
0.07322870817242276 0.1113896718097604 0
0.1486852238418093 0.08641187491939226 0
0.10859206772205247 0.023158614882738168 0
0.058835065620198405 0.040636716007470056 0
0.08543975363044091 0.03465183995412472 0
0.22029281789333993 0.0 1
0.155269709347411 0.0 1
0.13547291735744063 0.05202488219310269 0
0.1702393093610855 0.04956396694969185 0
0.3320448897561302 0.0614083932912873 0
0.28318825206325277 0.09491116112442066 0
0.2786155877664341 0.032884013789619054 0
0.46332370532888784 0.08126853446075864 0
0.40676912416911004 0.1114096967264563 0
0.5 0.09349844153514392 1
0.40861640253149084 0.0 1
0.059324497075393764 0.38391944910731396 0
0.40485616889819653 0.35148870311818453 0
0.45982711836895573 0.2615738637048466 0
0.44275308529762486 0.2909654411027403 0
0.3781823040786565 0.30118832706668447 0
0.39779632527931397 0.28907381126387005 0
0.41558411029009173 0.32335147739181946 0
0.3906489922465289 0.47269065159220824 0
0.40139766261696785 0.40837960428901837 0
0.5 0.4710624034559858 1
0.5 0.40582170578045534 1
0.34813921438585205 0.40699931745017287 0
0.3007755653393084 0.41520583455452253 0
0.3174280931695576 0.3624991268891131 0
0.33709787669345403 0.41688777527302184 0
0.3255976646852368 0.4627807548701304 0
0.4049247381327996 0.5 1
0.4696207705006274 0.5 1
0.4465109200058525 0.43501060677900977 0
0.0 0.40717339102679156 1
0.2478742900182873 0.26628622049021067 0
0.35034072668894206 0.34302741489689836 0
0.37082989644668973 0.3305537957457669 0
0.2824681850418968 0.2723575449550134 0
0.2895887871141201 0.30275304562694605 0
0.3083203408095275 0.290070294055522 0
0.29882270005537476 0.26066458930572944 0
0.338195644865685 0.21369144014602684 0
0.47551306510770297 0.2306861846763563 0
0.44574425341431134 0.1785860046119145 0
0.4043806794448733 0.19842520756027635 0
0.4275632187952788 0.1896963592120664 0
0.3609304267287603 0.2626626724231127 0
0.3394764654631429 0.3026216591398726 0
0.34438037518938425 0.22724684703457168 0
0.36826652041182983 0.2351032049651201 0
0.39097242374108077 0.26003275214977833 0
0.29613573623592626 0.213587123410272 0
0.2728718596729353 0.25691129123607953 0
0.30136515010444503 0.1989143003707328 0
0.31169008743641297 0.22540875533590823 0
0.2590056204158544 0.13416403824980416 0
0.2567058533160716 0.15503257090913092 0
0.2775056191670407 0.18648175188543775 0
0.37220726951725464 0.11763612708026167 0
0.3349421161286071 0.14650533739071836 0
0.29145768798231025 0.18962467706900923 0
0.30499037696836667 0.1562010042304735 0
0.28103105481240276 0.16976823593964738 0
0.2756361046999987 0.12900873836224963 0
0.27103941508882745 0.1449741484258504 0
0.29967035909538275 0.13930818061452888 0
0.31394430269976265 0.07899083138532052 0
0.3323356195895656 0.121139906083908 0
0.29970350758338643 0.01930691716008153 0
0.36580131378939296 0.0336580919544179 0
0.27858223377623587 0.21887524008662723 0
0.2695292318607134 0.20245018424173603 0
0.23800615091865865 0.15651887672220943 0
0.2047496564617932 0.09259183871373648 0
0.22850911462614767 0.12780716423270705 0
0.17533871407099144 0.23874430231547925 0
0.14517919213931868 0.24856746640646812 0
0.16474549807088867 0.2507799542402227 0
0.17440756051654815 0.2654227081420617 0
0.18038273824961654 0.25175399253713854 0
0.1888294088028486 0.2768979641581212 0
0.21445067412258062 0.26335120457291494 0
0.14821345535172673 0.19655265467788083 0
0.18565606536402135 0.2267275500574542 0
0.2672380524954321 0.32525530096914695 0
0.28279078476370867 0.29012979257590166 0
0.31090061336324515 0.3016370757851944 0
0.32338458777054074 0.35333183388781103 0
0.343542734978329 0.3608471912824247 0
0.3371169778304152 0.3485122554614432 0
0.3076038511478319 0.34835606048087203 0
0.2767231802554874 0.3363886096950217 0
0.3128227432932218 0.31951697124081885 0
0.3163748618552597 0.34626081033677036 0
0.3327306471105902 0.33171020368474274 0
0.2918423255928853 0.4411115595377058 0
0.25797786445089776 0.4426693134197126 0
0.27963649619291914 0.4687489780435671 0
0.254454513070266 0.35763154169025396 0
0.20379155433092322 0.37722790569073594 0
0.24935312710406762 0.4155252496773337 0
0.17111666441728038 0.4738263486609203 0
0.1995957803529288 0.3929293329376906 0
0.2253719691616984 0.43601052279818503 0
0.21686970383640397 0.3914026835624304 0
0.12895227181842792 0.45193456912028895 0
0.1876474356322003 0.39209648569219985 0
0.163447103812215 0.4132252153046485 0
0.18996168921132836 0.40477056205318956 0
0.19810296863340945 0.43996286345076663 0
0.16027391338948938 0.4331147681545104 0
0.14187629729372328 0.38926893121549894 0
0.1480421340186632 0.4114660467574994 0
0.15618931833261654 0.40057919907766515 0
0.16617410053320908 0.3896269636375211 0
0.14886917662075472 0.38173644577152177 0
0.17791256746040313 0.38564745052873145 0
0.09989577050533774 0.3553928405774335 0
0.12506174969338368 0.32903537574904673 0
0.1094889810472254 0.35043035404913997 0
0.12190485278345213 0.3566520765277787 0
0.1912262650022836 0.3000230779638853 0
0.16405912762569186 0.3142090822805706 0
0.184382528299609 0.3287304523221027 0
0.17522407469974804 0.3679066054285881 0
0.16342173104614105 0.3495258432679308 0
0.1390377685881758 0.3694716360161992 0
0.12985916020731197 0.3750730968281936 0
0.13105234719686598 0.43256498210771105 0
0.13559769969849883 0.4169451511108628 0
0.17142630441499132 0.1285066994045746 0
0.10307716326453864 0.14669880568465565 0
0.1322438294987578 0.1519830755953884 0
0.12605018997345707 0.09765967338858762 0
0.12540606337864363 0.21748608448536885 0
0.1250608334664603 0.23884490469616015 0
0.10884284091257594 0.15984824138026102 0
0.1002428786320991 0.18216067777848602 0
0.1193206946129755 0.15725808242482994 0
0.12216757830534011 0.176643837864401 0
0.14447550718103894 0.1641164578129564 0
0.12664995911502816 0.18784287558688142 0
0.14796042214906083 0.17078841929810165 0
0.01945503916615394 0.21273524595299334 0
0.1009436338610415 0.1974370305196317 0
0.08669421450913553 0.19211653390643887 0
0.07138916899681307 0.2171384266138193 0
0.10540191916401999 0.212721682550808 0
0.02423908579059131 0.3016157888406728 0
0.07362669349945036 0.2396856289020753 0
0.08865974247875258 0.2574248430991938 0
0.08413500705534478 0.34035918210639426 0
0.09869856199112698 0.344692381042493 0
0.11184398708321396 0.30036329898194336 0
0.08159901886362311 0.3015757712009732 0
0.08288426124466312 0.2797696399919447 0
0.0989460791123002 0.29173300419774617 0
0.11460238096264956 0.2881495563044801 0
0.06992723435330485 0.3517057918724059 0
0.06779840227121553 0.3295107478506973 0
0.04719690024103111 0.3162683832149384 0
0.052330748875538555 0.36569584369888475 0
0.08297799826461143 0.14419688034995884 0
0.05262156431873726 0.1701082501329078 0
0.02767382418336025 0.1064818787558204 0
0.02556385953414079 0.13502324413448885 0
0.09706205247018258 0.05945772473522691 0
0.08873099366800691 0.12318119009224322 0
0.05704797658974962 0.09401517030062118 0
0.06842948619495517 0.1318823589742297 0
0.02996115384045874 0.03468819724118001 0
0.1541040346872753 0.09454853547893596 0
0.13893877302432678 0.07283277762897028 0
0.11320161562934015 0.04341157023446384 0
0.13201942295006958 0.02503689985815569 0
0.2630034212510908 0.09169395622928496 0
0.20355605978529515 0.07377199889981456 0
0.2252893607054264 0.08316158600764795 0
0.18451191141691273 0.07008820988707076 0
0.16703068407615568 0.07154093165158402 0
0.27707198082919676 0.10952719599038005 0
0.2856512413319563 0.0722983435788246 0
0.14003828293999476 0.2661947351779395 0
0.10661671068390725 0.2723056134073767 0
0.19768382328440876 0.28960199121797525 0
0.18326257653557312 0.28974485394102645 0
0.16760538148357462 0.3044739155714684 0
0.14660953607092567 0.27783764062014193 0
0.4198395813467049 0.03005203426268631 0
0.4238419351704 0.1409525299865744 0
0.43037624646537675 0.15710951281564833 0
0.47485522328755186 0.14072286016781443 0
0.3505816454999407 0.07485856737366847 0
0.3937153284049211 0.09051470202712485 0
0.4100931656629619 0.09693426727275417 0
0.4210513122962368 0.10975504798119273 0
0.38908457278218905 0.10541091280878272 0
0.41290147767613844 0.12605013828068373 0
0.44833374294788925 0.22612394285536874 0
0.18318784788939385 0.3611872937412653 0
0.2070982689307703 0.3633557992016796 0
0.20904107050754997 0.3100713049979662 0
0.19640851866903802 0.31033682806716995 0
0.21767109875495524 0.32311885928745515 0
0.24929906012124312 0.3252086183379308 0
0.46154001418538165 0.03691268135109852 0
0.07649582073809919 0.37222722657458907 0
0.0961049784482324 0.3671171039713503 0
0.058751210542188265 0.40644673362159106 0
0.032766299124743416 0.42164613867598233 0
0.4734497598216342 0.36502724191465474 0
0.4742474666728896 0.393690061896528 0
0.4669631756664714 0.30059705937054304 0
0.3832023894460041 0.35186515393816176 0
0.3748912227526169 0.2813673559246988 0
0.39625076398511794 0.3141078783445538 0
0.4229733356114637 0.34030154707305604 0
0.40203693459943174 0.33387830781580213 0
0.4110683387990166 0.4568852813648336 0
0.3741595248286111 0.4531031215397443 0
0.3888288286449802 0.38318005103905156 0
0.4147914480362864 0.423932694124953 0
0.4029386750205846 0.3730060344185325 0
0.42879994078953465 0.4009139071136738 0
0.4808948878026867 0.4152592660866284 0
0.3538170566514506 0.4204883033682629 0
0.37523793234253144 0.40816128538416013 0
0.3368009332714312 0.4036959310671702 0
0.30500058675163216 0.3987325797951164 0
0.3061262925067986 0.3595388874708181 0
0.29835714654117107 0.38386590709075985 0
0.3211891733222279 0.40628826572419097 0
0.4214380870211039 0.47683557376244623 0
0.46674721439418454 0.4589699977618233 0
0.21432079532445508 0.29438478597732254 0
0.24869461607726717 0.28695521489197134 0
0.3393030484431768 0.3297377978406239 0
0.32845635710608334 0.32183517668134337 0
0.34898870666707243 0.3344291628760328 0
0.37534421229461945 0.3181297204401914 0
0.36339069690852815 0.3100721584849895 0
0.35347746701289084 0.32753931337465264 0
0.2956420447642857 0.29375190866418865 0
0.32058947772256824 0.29580791098453096 0
0.3273469282017527 0.22818724491011247 0
0.3083390906537646 0.27476548444605386 0
0.29157697259897236 0.23595960673620692 0
0.40251844241228096 0.22009147320359637 0
0.3543559553879414 0.21490574597167142 0
0.4200210678239726 0.2427393758510649 0
0.4691493848391079 0.20217431008040224 0
0.33420233970686053 0.31094613922196396 0
0.2652949811099316 0.172068047822899 0
0.3786972662231026 0.1606699267414491 0
0.3632157991727231 0.13273868137660025 0
0.3941906201831353 0.11482249008540615 0
0.35640273359100394 0.10434090371708662 0
0.33848243079503343 0.1520747137148268 0
0.3010085719555212 0.18581016191432115 0
0.3174998361465187 0.20814322532649762 0
0.2990347006016105 0.1644183647620037 0
0.31146854522496953 0.15203069282644976 0
0.2904198591678766 0.16285547092074443 0
0.28150094165743933 0.14154813252859588 0
0.3068290946998921 0.14674882773610398 0
0.28914939590708805 0.13332109146122548 0
0.31012625404420335 0.1388065104954974 0
0.33489363272293804 0.08056020181272787 0
0.3277491935028242 0.09262966810350548 0
0.3035439530170658 0.10694996083498468 0
0.3251630415321994 0.13117123823132368 0
0.35013131319599217 0.05410725636102519 0
0.25092382147453773 0.23967792233050678 0
0.2600208119056882 0.21989244846057437 0
0.2506471144040499 0.20306328728700174 0
0.22876069399928317 0.1706875656176001 0
0.2463607918556417 0.17356000937863122 0
0.2595319336773897 0.1868697936778412 0
0.24533807661533036 0.18944980995366698 0
0.2119143729819159 0.19708766441132355 0
0.24575990613489274 0.12471149200186678 0
0.22978035136865962 0.14456495846224166 0
0.22230642432246883 0.15649361454160146 0
0.1563883491250903 0.26409072001073197 0
0.21186027379446515 0.2437912247171959 0
0.19504545103345441 0.25953856049245055 0
0.19616027738862885 0.20045566272600215 0
0.1657948392993808 0.21115258177564156 0
0.13755886973335188 0.18807715758800006 0
0.14253305436304828 0.21124151317365292 0
0.35704641596580716 0.3611166279328411 0
0.34932388128926795 0.349512175726525 0
0.3315170309107174 0.34653860823264604 0
0.3378415079584126 0.3431124039079522 0
0.3435190082899401 0.34590436322516904 0
0.28003851331575097 0.3202623379867537 0
0.30023228008893404 0.3398899888832614 0
0.30453080342001704 0.30797617103114044 0
0.3316704389938219 0.339150483089228 0
0.23878926837157718 0.4692190699906232 0
0.35191132697604754 0.45185293593826714 0
0.2768871406169478 0.3570459515361338 0
0.2406530898383157 0.3451721595718934 0
0.25772150864514404 0.3744976616445862 0
0.22324341601647688 0.40985455302862617 0
0.14446916877949334 0.4386939792716082 0
0.17820564687311952 0.44923786229023754 0
0.1523441267893451 0.39086638720850847 0
0.14669852856361096 0.3734069894976292 0
0.11769459298558135 0.33676177776064886 0
0.17407124638304253 0.3113721723008039 0
0.1711217848981455 0.35248859561154433 0
0.17911453911636155 0.31985107419321906 0
0.16381252781991484 0.35806225617123766 0
0.16971880725499902 0.34356527538755105 0
0.14605752091454657 0.3568656674647189 0
0.13947732805526775 0.4081423158866457 0
0.1664074336610634 0.1533632803008617 0
0.1601504132126887 0.18665500709679136 0
0.16373468534133487 0.13008512985819642 0
0.1697507432317803 0.11826004178734058 0
0.12739751543160746 0.14452517950748964 0
0.12030195066527932 0.12208609200188299 0
0.12058630210680614 0.08238947638890587 0
0.13519155725211418 0.08978237840677566 0
0.1583284451044337 0.23605267344537137 0
0.12453589189000694 0.1532062293635126 0
0.14493139355922688 0.1580619153566195 0
0.12938269322563525 0.16832211418610002 0
0.13801870032197952 0.170104705078469 0
0.10042458661105015 0.1687208502323805 0
0.05185596102321496 0.19780431849275235 0
0.10850164265148589 0.23017482521166727 0
0.09848715921977855 0.30928171834544577 0
0.10674054040335867 0.33429023210353914 0
0.13194993219193715 0.3243601237487673 0
0.12351865336034387 0.3083826224237401 0
0.08525227094958758 0.3201222111244431 0
0.09393595774437424 0.1579312837763561 0
0.07107795847553618 0.18268556410981956 0
0.05041538125622184 0.12130379717545096 0
0.10151803780863795 0.09865401159607584 0
0.07844695948851574 0.09170763618103761 0
0.07110872438478179 0.06742130907101714 0
0.04926042673036912 0.1453996331418108 0
0.16254901386558754 0.10959212299005701 0
0.17901755972670655 0.10076777548828793 0
0.25232149891841027 0.06379375028080943 0
0.24234720047681016 0.024245311477901852 0
0.1968032120038512 0.048624196826486485 0
0.22327187390253794 0.05278224201790113 0
0.1832623034635327 0.027248420753280017 0
0.15347925860179817 0.0596358864364537 0
0.17483917381390204 0.28078625613948155 0
0.1605495009894762 0.2994544617131476 0
0.4065172390053215 0.07761947775195904 0
0.4449924280241131 0.10926163588785094 0
0.4740777015820948 0.11451554197350262 0
0.42960684386722725 0.08683644748782118 0
0.38851081556300743 0.1361766295532658 0
0.3995148652869795 0.17174153801750747 0
0.45449997975249123 0.12987750071770013 0
0.45280632463777404 0.15312894033687013 0
0.38096552504327846 0.092950474613428 0
0.3991400505617486 0.10245970154099313 0
0.40886709243482827 0.1409531286592799 0
0.42403677181138033 0.21294102428300166 0
0.1786868375385946 0.35499115373210804 0
0.17371744749939128 0.3605102412432502 0
0.22170250769960784 0.3543233495764645 0
0.18476483430019444 0.3107528502094786 0
0.19168548169922114 0.3212462702277705 0
0.2212906884289638 0.33943726172085203 0
0.42904734310165027 0.06164134567257304 0
0.11009425629608216 0.3626192734637291 0
0.07735925012007391 0.3936892826576106 0
0.06512778941262984 0.43508441148433086 0
0.38182985356312105 0.35926676811118313 0
0.44462143072365085 0.352453103105694 0
0.47135553784569734 0.33387706682504803 0
0.36861525346986823 0.3577187514584969 0
0.351007725583513 0.30538055000186193 0
0.419080276380164 0.3030780277879432 0
0.4235934632949139 0.43793756017041896 0
0.361038555760148 0.47405359993045126 0
0.39111182489842217 0.3917254975236658 0
0.37860668099683414 0.3737375225863186 0
0.4045490098982382 0.4366765882856954 0
0.3992667368379826 0.3858073410900905 0
0.4097187565013736 0.3628481327021722 0
0.39992582964884454 0.39742010097561065 0
0.43364866182542816 0.3692368583441828 0
0.4599396056924863 0.41489521817101854 0
0.4219291591610893 0.41379565964386544 0
0.4480219795389422 0.47800366483742507 0
0.36223323179044964 0.4358482709490878 0
0.36219237171132335 0.4085524597794898 0
0.39186958194921184 0.41032169326548745 0
0.38259751635200046 0.3989189303823311 0
0.3636833484618567 0.3799126589858678 0
0.3441780809452099 0.3944484606025508 0
0.319468537261191 0.4298333764888743 0
0.3087041993659792 0.3723090839550349 0
0.31656515828826376 0.3868358087695475 0
0.3276988282368554 0.36361296190363634 0
0.32129153864952903 0.37314607463897975 0
0.43602113898939027 0.4566835765013726 0
0.4697605042958225 0.43318547037575295 0
0.22823931657122884 0.2774191060025158 0
0.32617761021712677 0.313804576700195 0
0.3584256874049998 0.3449040895864879 0
0.36423353247709084 0.35552812524045263 0
0.3624750140862292 0.2950632063614152 0
0.3421575836720899 0.33292995710975687 0
0.362966815797403 0.32207783582122923 0
0.3561111236882584 0.336808937777797 0
0.3391048386183741 0.24766544413877578 0
0.386945147128183 0.20742263897160035 0
0.3745019958667958 0.1963875640811404 0
0.35869841917581935 0.19778916895955864 0
0.36167312546333324 0.17733868982813622 0
0.36655680014196934 0.18623979225382886 0
0.38855146396856255 0.18938783538500562 0
0.38837009981581805 0.17690116824270335 0
0.42559648604029804 0.17446260972191008 0
0.33295318051249884 0.2915138776550664 0
0.34675014099946433 0.12498886404163843 0
0.3721665922512297 0.12549571910970966 0
0.3587069923895171 0.1443682597797984 0
0.3839502362334911 0.11618195868176875 0
0.40150534817377137 0.12211421230688854 0
0.34735830959437963 0.1003633625008173 0
0.36517810788472443 0.10989888137919644 0
0.35690927441230497 0.09320691779912758 0
0.30048054372122135 0.17453870771081162 0
0.33326269130317393 0.19664666681656928 0
0.31008888309698424 0.17966595281985104 0
0.3208580913189676 0.14930426685569906 0
0.2840388923509387 0.15425381183471104 0
0.29197365652510593 0.14518233230970784 0
0.2947079269735776 0.15534168506075313 0
0.2877292981010145 0.12044864842590085 0
0.31407190421710884 0.145972477879521 0
0.31965975429369403 0.1414878001026407 0
0.30693233680415627 0.11995965057795449 0
0.3154535326923203 0.11089299849669167 0
0.3139797067658921 0.09738478065034563 0
0.29179007712888694 0.10560555274570896 0
0.33622910643720566 0.10060571250135102 0
0.31840519825901664 0.13371921449464802 0
0.3269619005681986 0.12488480851450723 0
0.3246245686537743 0.13804685561004074 0
0.3296344020263043 0.03133131530820209 0
0.3659878869188742 0.08241478812891291 0
0.238288608371107 0.21885303951900223 0
0.23635950665370442 0.19940827135054376 0
0.22225756147824638 0.20737183313336954 0
0.20373034016564628 0.18611888110604008 0
0.22407760893803208 0.19427486929964757 0
0.2186063202629889 0.18177763339831202 0
0.1878310789594368 0.1067985610925866 0
0.1885649340668393 0.08801749007596632 0
0.21768650418621896 0.10794910380074581 0
0.21552339566983317 0.1671423374174752 0
0.2157028634926133 0.1427208523473022 0
0.19171080011250027 0.2410798941581895 0
0.2062312338187501 0.2779183677262904 0
0.20126696567123134 0.22722793343056535 0
0.16980145312901596 0.2238566633782906 0
0.18116320564654342 0.21090845722626614 0
0.1328502924196759 0.17884577464415088 0
0.13503565124932196 0.20042550756949168 0
0.14398908706039534 0.17833510955081366 0
0.34941865658909477 0.35640099997541125 0
0.3426932256807126 0.3526833894502815 0
0.2875434277679505 0.31155317400054483 0
0.2945111301368435 0.35282135356158467 0
0.2648065150774091 0.39505700998108073 0
0.18162354329879227 0.42346807065215947 0
0.15503392161208956 0.45288009271915664 0
0.1527451640788726 0.3680499830724725 0
0.11421770104694058 0.32618301890478907 0
0.11909211849876579 0.3461255665717139 0
0.12653384995997946 0.33955164551103373 0
0.1304843765214939 0.3650685803011118 0
0.1500521687028499 0.31936340546058 0
0.17291582465020253 0.32594710283256617 0
0.16663228426005117 0.32391854123317093 0
0.15904164002458993 0.36316302701266673 0
0.16496659857107762 0.33447710999978775 0
0.16052536093637093 0.3423732135701428 0
0.15120352110206786 0.3267270720005053 0
0.15605601785476228 0.354065867011366 0
0.13801266010762167 0.35189072633320306 0
0.1350159727557175 0.39657103031605523 0
0.12126947280202675 0.4188245061287681 0
0.14873433301924147 0.18508550162238327 0
0.1707366479240577 0.19158087113434824 0
0.16189216203138687 0.19907104303362155 0
0.15536962548681274 0.13114995766866816 0
0.1679360712533647 0.136896465453159 0
0.1596059924399257 0.13818172437574633 0
0.1724694874261629 0.14995143686295198 0
0.20783187267080053 0.12650654904435235 0
0.14611647538064876 0.1442330957680741 0
0.13127705046639737 0.12705547378067014 0
0.10582008162759832 0.12306250325679717 0
0.11099760065156833 0.13486250698499905 0
0.12371224266720049 0.1344884198057988 0
0.14439697314325106 0.09763991303057622 0
0.14967529048261993 0.15308511818739723 0
0.1408030599925262 0.15223403281889034 0
0.12712261292117186 0.1589473117474958 0
0.1371039061367145 0.1615257841163034 0
0.1630288671044162 0.16102946561096637 0
0.1529411889491673 0.161254538747923 0
0.10857844415769499 0.2501328552874224 0
0.09015199412151285 0.22492882902993197 0
0.10148220836407366 0.32279139421979247 0
0.14122646473564307 0.3236136097432628 0
0.06697101655856638 0.3129675360070412 0
0.07494921451197849 0.19758314513186553 0
0.07489141839998668 0.16388783295534406 0
0.11352600014616544 0.10778997163323177 0
0.1725003928321308 0.08577873041281492 0
0.12838268392672142 0.2784599360871972 0
0.16278278669825225 0.2782544065808942 0
0.16887880699524466 0.2916666190080156 0
0.15869296539287886 0.3060265376138023 0
0.15484928029136957 0.28961489369480997 0
0.4377397429270726 0.1400958838412607 0
0.3932129813761849 0.12458606128481564 0
0.39879973387003065 0.1430574115895553 0
0.3787449915192236 0.13716102736634983 0
0.41211289106433124 0.1629114373619495 0
0.40039471659865933 0.1588524507275122 0
0.3675500234860649 0.09624739791029761 0
0.39830774542622016 0.1495177547812768 0
0.40040031907652324 0.13258921126971193 0
0.19595401343271782 0.3578382105644909 0
0.20364598200494394 0.3219818500838315 0
0.2651911084363587 0.29612912938540514 0
0.09441518040722058 0.3829158416660734 0
0.09224082249655068 0.43742043096809613 0
0.37604024512704604 0.35250071447214026 0
0.3746723705004427 0.3621806023207612 0
0.39157957145283084 0.35610550908206634 0
0.37796442643281214 0.3422413558303819 0
0.3668466440573451 0.3497462256794711 0
0.3807937246129868 0.3674014670527053 0
0.37822087864880005 0.38163763245216537 0
0.37319513288945344 0.3689152364221202 0
0.37030069231863666 0.383525098232775 0
0.3928607913208945 0.45052611819928373 0
0.41868442244656046 0.40533551275607543 0
0.41793977102158403 0.3724214934713586 0
0.4216897176514919 0.35758753890055517 0
0.4496741803808597 0.37451337030964926 0
0.4301996037998465 0.38573034121666455 0
0.4407133693219749 0.41384641921575305 0
0.37012417218683263 0.4204746296402204 0
0.3568132330080293 0.3973573010395677 0
0.39897602407717375 0.42158683466535685 0
0.35904294985518065 0.36772611400179545 0
0.33158458809962515 0.3925020915313183 0
0.330772554865197 0.37155894182974725 0
0.2336479458051225 0.29759748675023023 0
0.3426150724755601 0.3144974630163714 0
0.36313202372454984 0.331645235075308 0
0.3142537051884065 0.24349302249625937 0
0.37136374558109125 0.21234204825827255 0
0.3771663456199014 0.17001358094800414 0
0.34624642522945426 0.20287579369043243 0
0.35630759295242515 0.15935953715071025 0
0.3569645695294814 0.16821803376342867 0
0.37224900181336323 0.1607958864713623 0
0.37741710197890715 0.18250865965897323 0
0.3221763923315885 0.28171147141417907 0
0.3579990103405195 0.11277785264061961 0
0.354466365921 0.13036798731235086 0
0.33974373925061047 0.12250567758810926 0
0.34332337989739475 0.1377285273062224 0
0.35352335703269044 0.14912514634856977 0
0.3640037887000006 0.14005883753438395 0
0.3648308373807639 0.1506577567943916 0
0.376480182583608 0.10771488642154191 0
0.3442158766824326 0.15752246750656596 0
0.326967028332951 0.1560635934628047 0
0.31180191250285433 0.1917900147163981 0
0.3190160180187405 0.17131106228941856 0
0.2988880125301702 0.12785471928155026 0
0.3088530210107629 0.13028106580382565 0
0.3182683734855405 0.1236026230531836 0
0.3259853552813593 0.11627731059490179 0
0.29950663643620445 0.09407333767124319 0
0.2979458875313516 0.11590430648361467 0
0.32648740096828033 0.10551259373659151 0
0.32924557514018554 0.1420232415563045 0
0.21876882254382105 0.22464227262039194 0
0.2337268990542245 0.1841163655671779 0
0.19423101767000242 0.21555876257966997 0
0.18599645357068464 0.17399120965258336 0
0.2892746817298624 0.33060814013305073 0
0.30172374460537793 0.32731955908832633 0
0.15197132535232624 0.3612901404745377 0
0.12853419718427747 0.34904397110705304 0
0.13330857274524205 0.3323869006600604 0
0.15843691260304066 0.3276129010137144 0
0.14911640582555025 0.34526717489146785 0
0.13654037375625663 0.3415269416209137 0
0.12820007674686762 0.40633739347266445 0
0.16949457226202244 0.1818748430227932 0
0.18181260266070914 0.19586888310615638 0
0.17146813895359986 0.20115282627607267 0
0.15496261718298132 0.1459057976348617 0
0.16427521991325858 0.1457384573067805 0
0.1982978209788279 0.10926848100193703 0
0.18704274411049646 0.13477202506153185 0
0.178918322518193 0.12038951888977888 0
0.21023444917945472 0.15596833349534486 0
0.13360251619308802 0.13581888432154862 0
0.13586397550150825 0.1028764597422451 0
0.08825622796874118 0.10374247119442079 0
0.15195496943631925 0.10351451232250074 0
0.15337532450789357 0.20643295609035975 0
0.15853967810848593 0.1534502082459713 0
0.09341182334210489 0.23976408130373886 0
0.12298988180421373 0.3193188119349914 0
0.14398354845061417 0.3128895574525638 0
0.12610537799436908 0.29495505625475815 0
0.13541364228257138 0.3040148791335821 0
0.12784155685508705 0.1096291042076933 0
0.16099567004143278 0.12009794462465884 0
0.14673936182304348 0.12185686357994031 0
0.21129878536892352 0.02569109191979783 0
0.15409751833749985 0.313041396071719 0
0.392070134626686 0.02072688624532264 0
0.3689409376694102 0.06138380811230152 0
0.3803382315297768 0.12629626775395253 0
0.3890459525925502 0.1640368393939863 0
0.20630967339429462 0.34782783638653736 0
0.20838989034407612 0.3338238482106851 0
0.19409882891329736 0.3304310061953913 0
0.10825557153650986 0.3759340714674633 0
0.10342216810547024 0.4181606004329539 0
0.3907152273300324 0.34474199517947335 0
0.3943392167443571 0.37630101336008354 0
0.3894712103131815 0.36540488275683664 0
0.3840095695259953 0.3889874680041688 0
0.36596979389552126 0.3635897960692388 0
0.365697671434647 0.371956943917327 0
0.4140907798832671 0.3832456328533653 0
0.3838663383779502 0.4174615566985005 0
0.3700027239683056 0.39855060331515674 0
0.3654815439884709 0.3889543341404312 0
0.34506626680592206 0.36816777031189574 0
0.3568648485501034 0.3745992683965667 0
0.2861834147570591 0.39824407768582676 0
0.32993317241874803 0.37974517805968194 0
0.22150570089710786 0.30765664494887734 0
0.2482090467438197 0.3059883696192589 0
0.3410168935343158 0.32309654999890364 0
0.353371417339468 0.31666131302066286 0
0.3345609638469599 0.31749025910844636 0
0.36577663060022586 0.3389172369939906 0
0.3392688613938414 0.2730146303950074 0
0.3357035677909557 0.18432097737507416 0
0.36736608802110987 0.16963993349636872 0
0.411802811949096 0.18008671427965228 0
0.3210106145696127 0.2638741389785247 0
0.34991416023231126 0.11004988951656561 0
0.3609638787429083 0.12571143513331348 0
0.35403134173403666 0.11938513386216851 0
0.35734512280965514 0.13855974299718635 0
0.34473625610169184 0.1170355532982437 0
0.33519755826230246 0.11310443559496833 0
0.3333530484429548 0.12870989757884105 0
0.3509550064815433 0.13761671325352184 0
0.34083019102915324 0.14510123549733145 0
0.3470671945676034 0.1319083638989899 0
0.33628907367784 0.13994331790963846 0
0.37058437972877334 0.13677666462883914 0
0.36768832278768016 0.15480197466706055 0
0.3636841304857513 0.14581225379535265 0
0.3564101148328606 0.15350837882037904 0
0.33475124884508595 0.15927030783008006 0
0.3498376278767062 0.16265715077093293 0
0.3175055111183535 0.16014902268679934 0
0.3085578931827886 0.16771356672371654 0
0.23054055001499021 0.23614221298337415 0
0.20855929565119047 0.1744482787861279 0
0.20736982462769812 0.21170453727961389 0
0.2948753501655943 0.3673115877806678 0
0.1571031572346538 0.3208506532440229 0
0.14423033976920316 0.33341528940933707 0
0.17392782292972878 0.1722355757324443 0
0.16543502961889925 0.16702574499760792 0
0.1533235206861908 0.1777815774419316 0
0.16306936657133123 0.17614799287177207 0
0.19003029132847146 0.18632349311540503 0
0.17912394939535697 0.18345338158801155 0
0.17248482883033286 0.15979865632557966 0
0.1978349073849894 0.13265531714422066 0
0.19531788113882745 0.12344766295409551 0
0.17740327648748846 0.1459683213260277 0
0.19566264065458044 0.14378076864855596 0
0.17711756289888525 0.13733149654918655 0
0.16510094391210267 0.09793421319221451 0
0.15529575296254447 0.2192392990519538 0
0.14019721983730518 0.2909546779948954 0
0.14969189985052017 0.3029411620116092 0
0.1328619561860622 0.3157444654496495 0
0.15481347301853035 0.11494822225591374 0
0.14045661996773373 0.12916295356639393 0
0.1391775031931468 0.12133208723390496 0
0.14347832458555707 0.10670843802283275 0
0.38450197061632296 0.07743183872359717 0
0.37560261173649084 0.14547673519164062 0
0.39096318210277836 0.1542441679837134 0
0.3907371736001015 0.14682280387267355 0
0.19861238545286508 0.3404077283508965 0
0.2327572417567462 0.32921442777121424 0
0.1313358444378196 0.3854730223490065 0
0.1223439173619056 0.39465869671969717 0
0.0820182597136619 0.41529265940931503 0
0.39758482336860707 0.3634270199260251 0
0.3937042863164116 0.3705532926979724 0
0.37227572946506937 0.37661140233994433 0
0.3834563589199275 0.43371257519311757 0
0.3747458422209523 0.3900506242637067 0
0.3371308020276758 0.3661842652526198 0
0.3538873738959608 0.38482116021079377 0
0.3525605055705518 0.3677946463881987 0
0.3387063906741387 0.1744683462106908 0
0.3302156650599018 0.17391143634306938 0
0.34579592531519016 0.19077322903593288 0
0.3973876163945936 0.18321833323126654 0
0.36272046333104363 0.11774205009349627 0
0.3536347942302504 0.14167933411656203 0
0.34249278489926854 0.1078379179224597 0
0.3412011965041032 0.12971282129404735 0
0.3685998987724358 0.1436988137420325 0
0.3591962752703091 0.14917695352178492 0
0.27993320338932626 0.37866083519484045 0
0.1577446483281226 0.16941714094648888 0
0.20361070943011267 0.13771064920491735 0
0.19408846284022507 0.1643344349824282 0
0.1826939594953723 0.16197982188999777 0
0.13718294995728542 0.14360470291371227 0
0.15132510763069745 0.13687916486358748 0
0.14770612447131443 0.13069568337875195 0
0.36888882304602016 0.14878730596049447 0
0.233419328183976 0.31454242535115534 0
0.1143469385316469 0.4052581507767416 0
0.09655974553620669 0.40098208691130344 0
0.3865050011692094 0.3740583097487163 0
0.3411158014409882 0.38323549165850423 0
0.3481397553410012 0.17215961365303337 0
0.34190538012748867 0.16611843731904813 0
0.3555161472796589 0.18418671740861114 0
0.3234256480021449 0.18526076569030014 0
0.3272885644060333 0.16497580632991618 0
0.3476731244341883 0.14475324498307848 0
0.3311608240597601 0.13564199030888704 0
0.38334872950755716 0.15778720537879676 0
0.33464116390869453 0.16847381168395306 0
0.184358621467058 0.1447361802026254 0
0.1984397907196271 0.17543825407443456 0
0.1785753763307561 0.1530850235548769 0
0.14316196936892742 0.13761500005982658 0
0.15536667721191466 0.12409478556826829 0
0.34781307757276964 0.37480358361590704 0
0.3385632793962625 0.3744767721518073 0
0.3465423253978123 0.17987972937680238 0
0.3540448144040692 0.17606743771466435 0
0.3833923323473005 0.1496980758957109 0
0.19939553767839405 0.1550696842029658 0
0.20509129050806435 0.147071459924355 0
0.20420361529163053 0.1663318356743755 0
0.3756237540452069 0.15420789073259022 0
0.18886557855513866 0.15397002201448512 0
0.5 0.28125 1
0.46875 0.0 1
0.20389640894666997 0.0 1
0.5 0.03125 1
0.0 0.28125 1
0.15404593315284276 0.07505277362861042 0
0.319240632407945 0.3059903905539885 0
0.3176862301715845 0.31355297588028047 0
0.3152867480673591 0.32547110884784647 0
0.31702949910863726 0.3376514039731981 0
0.18186451884463092 0.3741386775759279 0
0.4106915703882165 0.41177062438987017 0
0.3282784523938614 0.32789107474871454 0
0.3339715313675514 0.3253293629515792 0
0.32039512455383723 0.31933762544545286 0
0.3390709417476508 0.33547665745120603 0
0.3436365960274643 0.3393253166993273 0
0.30128266536798465 0.30144679019209664 0
0.31181124283883604 0.31155466352758454 0
0.32464482326815797 0.34327942623589636 0
0.14622835757690675 0.36530757195190217 0
0.08758858461581417 0.1738294585424872 0
0.3858333339847031 0.40820158650715105 0
0.39211323119942565 0.40225368306179565 0
0.29992891002067007 0.14870698384969153 0
0.35711937862239773 0.3529150991582613 0
0.31097486416892706 0.3411539241057133 0
0.3103007240787499 0.33281355563082776 0
0.296340774586427 0.31045220995713635 0
0.15359480411405943 0.37524856554669345 0
0.13889556307283843 0.3610268635561462 0
0.15970910603464675 0.08559903276589455 0
0.30382532248430594 0.31736688318388345 0
0.3095543454167783 0.32465511803323416 0
0.13110562223328767 0.35604454404734975 0
0.13670526994173668 0.11199968406977721 0
0.1201726597724141 0.38214058818761 0
0.10932981466880361 0.3903273681643023 0
0.19177876452904521 0.36829769142078217 0
0.3222128705461579 0.3265872323178489 0
0.32548842677077583 0.33373986075907014 0
0.5 0.3578887858098597 1
0.03451535253197504 0.2691460007971099 0
0.3578262809811245 0.2812491907010263 0
0.2902743180226551 0.17880860312306468 0
0.20700343421741754 0.4030530002578726 0
0.17592810501060147 0.3962522439497138 0
0.16909178998770155 0.37640820857603163 0
0.11088836809538433 0.17266600823707526 0
0.1130595691702694 0.18673828941612294 0
0.16013152984586326 0.3728322171836263 0
0.17136967727397176 0.31917302820136434 0
0.18606370417962692 0.3509612081431546 0
0.17809636730415937 0.3468530426005748 0
0.4185200694728444 0.3954008952095052 0
0.4474483486984387 0.39765098844034463 0
0.3037481499574817 0.13476736121104133 0
0.09954460801785059 0.11240711239551046 0
0.3460725842904331 0.3280908520611942 0
0.34736120955146466 0.3221589666683864 0
0.14488240220216894 0.11319568583415475 0
0.19386894603099217 0.34700659579892884 0
0.3372466499558467 0.13394237003268322 0
0.17646682564322502 0.3380512394635795 0
0.34881867153214935 0.3628433225291771 0
0.18710931115922086 0.34044551705637494 0
0.43376864408255705 0.12818928540671745 0
0.4160718851516328 0.15101099302070561 0
0.44378647748999434 0.20056984258720437 0
0.3847927460818289 0.22204902372347363 0
0.36190149202312405 0.1551129610693809 0
0.3648341029048204 0.1617404852407373 0
0.2598823299814329 0.34049536979103506 0
0.20509137485720033 0.4183246305508366 0
0.04584299382023232 0.23570144435657261 0
0.24615172382206083 0.08681626739056116 0
0.1554811008502066 0.33496692994616806 0
0.32862728404980285 0.14855098257717447 0
0.29279641292651576 0.3195845508247481 0
0.39415272801830303 0.2362357733453837 0
0.17134883073465634 0.10812806564593645 0
0.36985331245316005 0.17678964867123917 0
0.1715335263448471 0.14322025508901737 0
0.3437354390484547 0.0 1
0.0 0.09258027137074679 1
0.39420796118031376 0.05247977564141423 0
0.4055463736726672 0.15102715297680694 0
0.0 0.2505935255049777 1
0.2655581382094844 0.0 1
0.09363998353773283 0.14623183931891734 0
0.1046856651231862 0.08153029911055727 0
0.11298808010974755 0.09385686000199488 0
0.08769470793811146 0.07795091624338954 0
0.37368581494558967 0.1301915047056055 0
0.4093256456214926 0.4018281195619279 0
0.34583791994784974 0.14980011411209246 0
0.3216521496060078 0.19522838065260142 0
0.18908780122649235 0.12692140173869415 0
0.1304208374225793 0.11848864674102444 0
0.16033557728296763 0.1257800439988719 0
0.40894422989471524 0.39360633348881086 0
0.36849167222201296 0.12983649887847537 0
0.33205103979837686 0.1528811879010713 0
0.1875646362078977 0.11562098369777983 0
0.3667287705339693 0.12361581947137457 0
0.09202727726944118 0.09083159545042083 0
0.3650101176560995 0.127788122550189 0
0.06391221794743747 0.2622833916923232 0
0.19255135897584677 0.0999366658861839 0
0.17883045545556983 0.11307169490253816 0
0.38286178388232955 0.14275446008997988 0
0.1657734347509285 0.12420677083923848 0
0.1817956439394268 0.1299797354368951 0
0.166501540245797 0.401067288978076 0
0.0 0.03125 1

Edges
61
1 42 1
1 1010 1
2 897 1
2 899 1
3 138 1
3 146 1
4 33 1
4 59 1
5 118 1
5 984 1
6 62 1
6 896 1
7 26 1
7 83 1
9 109 1
9 148 1
10 82 1
10 94 1
15 63 1
15 127 1
16 62 1
16 63 1
20 128 1
20 979 1
21 70 1
21 979 1
22 112 1
22 119 1
25 79 1
25 145 1
26 79 1
28 82 1
28 83 1
33 94 1
35 102 1
35 980 1
38 102 1
38 103 1
40 109 1
40 900 1
42 112 1
44 980 1
44 1010 1
48 127 1
48 899 1
49 128 1
49 897 1
51 139 1
51 937 1
53 896 1
53 937 1
56 138 1
56 139 1
58 145 1
58 146 1
59 148 1
70 984 1
103 983 1
118 898 1
119 898 1
900 983 1

Triangles
1957
1 42 285 0
4 59 93 0
7 83 414 0
8 191 297 0
8 640 298 0
9 106 50 0
10 94 96 0
11 214 217 0
11 231 906 0
11 906 934 0
12 236 299 0
12 317 236 0
13 162 366 0
13 358 540 0
13 366 524 0
13 524 902 0
14 134 165 0
14 165 364 0
14 364 131 0
14 497 134 0
15 63 306 0
15 306 472 0
16 62 365 0
17 73 290 0
17 170 395 0
17 290 295 0
17 395 73 0
18 168 166 0
18 172 175 0
18 185 186 0
19 552 558 0
19 558 566 0
19 566 712 0
19 712 973 0
20 128 751 0
20 184 979 0
20 751 184 0
21 567 183 0
23 410 74 0
23 656 200 0
24 142 344 0
24 205 208 0
25 79 499 0
25 136 145 0
26 7 212 0
27 215 419 0
27 418 592 0
28 29 83 0
29 28 216 0
29 224 218 0
29 421 224 0
30 222 225 0
30 225 420 0
30 243 244 0
31 232 322 0
32 226 837 0
32 423 230 0
32 837 242 0
33 4 93 0
33 93 95 0
34 95 658 0
36 246 985 0
36 277 282 0
36 282 621 0
36 621 622 0
37 256 586 0
37 259 945 0
37 262 259 0
38 111 258 0
39 40 263 0
39 109 40 0
41 102 280 0
41 280 459 0
42 112 117 0
42 117 116 0
43 116 458 0
43 285 116 0
43 980 44 0
44 285 43 0
45 120 287 0
45 287 438 0
45 986 281 0
46 119 466 0
46 120 289 0
46 121 467 0
46 289 119 0
47 122 181 0
47 183 567 0
48 320 899 0
49 320 303 0
49 897 320 0
50 106 276 0
50 129 323 0
50 148 9 0
50 323 324 0
51 325 937 0
52 132 327 0
52 327 494 0
52 497 132 0
53 494 327 0
53 937 494 0
54 330 332 0
54 354 330 0
54 662 151 0
54 760 662 0
55 508 674 0
56 348 522 0
57 143 340 0
57 340 510 0
57 516 143 0
58 145 347 0
58 347 509 0
60 399 804 0
61 152 155 0
61 154 357 0
61 155 360 0
62 6 157 0
62 157 365 0
63 16 64 0
63 64 306 0
64 16 365 0
64 477 306 0
65 540 780 0
65 780 939 0
66 361 167 0
66 387 388 0
66 388 185 0
67 179 553 0
68 688 801 0
68 697 799 0
69 177 377 0
69 375 549 0
69 549 940 0
70 21 183 0
70 124 984 0
71 382 307 0
71 383 382 0
72 170 171 0
72 171 187 0
72 189 395 0
73 292 971 0
73 395 189 0
75 200 656 0
75 656 350 0
76 202 407 0
76 845 519 0
77 717 411 0
78 904 935 0
78 905 923 0
79 26 144 0
80 213 418 0
80 417 213 0
80 484 417 0
81 27 219 0
81 80 27 0
82 10 85 0
83 29 414 0
84 210 211 0
84 215 592 0
85 10 96 0
85 220 594 0
86 223 593 0
86 593 222 0
87 226 422 0
87 227 431 0
87 431 609 0
88 229 422 0
88 230 925 0
88 925 946 0
88 946 943 0
89 599 242 0
89 758 489 0
90 424 597 0
91 236 485 0
91 642 300 0
92 239 943 0
92 943 946 0
93 59 324 0
93 324 491 0
94 33 95 0
94 95 96 0
95 93 491 0
95 491 658 0
96 95 34 0
96 220 85 0
97 658 759 0
98 246 622 0
98 251 246 0
98 436 441 0
98 622 623 0
99 191 250 0
99 249 404 0
99 404 823 0
99 440 191 0
100 251 253 0
100 253 627 0
100 254 944 0
100 443 254 0
101 259 262 0
101 260 259 0
101 261 636 0
102 35 280 0
102 111 38 0
103 38 258 0
104 266 452 0
105 268 451 0
105 596 633 0
106 9 109 0
106 39 108 0
106 108 276 0
107 263 938 0
107 270 269 0
107 635 275 0
107 938 1003 0
108 39 275 0
108 273 276 0
109 39 106 0
110 277 637 0
110 278 459 0
111 41 278 0
111 102 41 0
111 278 446 0
111 446 258 0
112 22 115 0
112 115 117 0
113 282 284 0
113 283 457 0
113 284 455 0
113 457 737 0
114 286 624 0
114 287 901 0
116 117 458 0
116 285 42 0
117 115 288 0
117 281 458 0
118 463 749 0
119 289 22 0
119 898 466 0
120 45 288 0
120 46 467 0
120 288 289 0
121 46 466 0
121 293 294 0
121 294 467 0
122 47 567 0
122 307 382 0
122 567 386 0
123 296 709 0
123 562 295 0
124 47 296 0
124 70 183 0
124 183 47 0
124 463 984 0
125 48 127 0
125 127 472 0
125 320 48 0
125 471 473 0
125 472 471 0
125 488 320 0
126 309 310 0
126 310 312 0
126 312 545 0
126 479 309 0
127 15 472 0
128 49 303 0
129 50 276 0
129 276 321 0
130 331 671 0
130 504 840 0
130 661 760 0
131 157 6 0
131 327 132 0
132 14 131 0
133 134 330 0
133 329 134 0
133 330 354 0
133 354 355 0
133 355 527 0
135 330 497 0
136 25 499 0
136 334 668 0
136 347 145 0
137 505 990 0
137 512 919 0
139 326 51 0
140 143 342 0
140 342 515 0
140 515 676 0
140 676 511 0
141 84 772 0
141 346 516 0
141 772 343 0
142 517 344 0
143 140 340 0
144 26 212 0
144 57 415 0
144 499 79 0
144 516 57 0
146 138 3 0
146 348 138 0
147 55 674 0
147 507 522 0
147 521 498 0
147 522 348 0
148 50 324 0
149 387 167 0
149 523 60 0
150 353 530 0
150 406 409 0
150 409 912 0
151 354 54 0
151 779 683 0
152 200 75 0
153 23 200 0
153 590 23 0
153 913 924 0
154 61 360 0
154 692 358 0
154 913 357 0
155 152 167 0
155 167 361 0
155 361 684 0
157 313 365 0
158 64 365 0
158 305 477 0
158 365 964 0
159 532 537 0
159 783 160 0
160 158 964 0
160 481 159 0
160 539 158 0
161 329 939 0
161 531 164 0
162 13 540 0
162 65 496 0
162 496 682 0
163 531 359 0
164 165 161 0
164 685 965 0
164 965 975 0
165 134 329 0
165 164 975 0
165 329 161 0
166 168 374 0
167 75 149 0
167 152 75 0
168 18 175 0
168 175 373 0
168 373 703 0
169 166 374 0
170 17 178 0
170 72 395 0
171 67 367 0
171 179 67 0
171 367 391 0
172 177 940 0
172 186 392 0
173 542 1000 0
173 544 753 0
173 547 700 0
174 372 998 0
174 712 795 0
175 172 940 0
176 375 555 0
176 376 802 0
176 920 379 0
177 67 553 0
177 69 940 0
177 367 67 0
178 17 295 0
178 179 170 0
178 295 556 0
178 378 179 0
178 556 380 0
179 171 170 0
179 378 553 0
180 379 920 0
180 380 705 0
180 705 952 0
181 122 382 0
181 296 47 0
181 382 383 0
181 561 709 0
182 565 708 0
182 695 791 0
184 751 981 0
185 18 166 0
185 166 361 0
185 361 66 0
186 172 18 0
186 185 388 0
186 389 392 0
187 171 391 0
187 396 72 0
188 291 292 0
188 292 577 0
188 577 731 0
188 1004 576 0
189 72 396 0
189 396 579 0
189 577 73 0
189 579 618 0
190 440 583 0
190 580 194 0
191 8 250 0
191 398 297 0
192 190 194 0
193 192 194 0
193 195 468 0
193 468 641 0
194 580 400 0
195 193 400 0
195 299 300 0
195 400 581 0
196 60 523 0
196 523 581 0
197 403 611 0
197 404 586 0
197 433 613 0
198 190 583 0
198 583 584 0
198 584 715 0
198 715 582 0
199 74 410 0
199 206 968 0
200 152 61 0
200 357 153 0
201 154 358 0
201 358 902 0
202 24 208 0
202 142 24 0
202 208 915 0
202 519 142 0
203 76 589 0
203 588 960 0
204 76 407 0
204 408 409 0
204 409 589 0
204 589 76 0
205 24 344 0
205 344 591 0
206 77 416 0
206 199 410 0
206 416 968 0
207 903 910 0
207 904 929 0
207 928 914 0
208 205 922 0
208 905 915 0
209 413 936 0
209 909 351 0
210 84 141 0
210 144 212 0
210 516 144 0
211 210 212 0
211 215 84 0
212 414 211 0
213 417 968 0
214 11 934 0
214 81 219 0
214 315 81 0
215 27 592 0
215 211 218 0
216 28 82 0
216 82 85 0
216 594 421 0
217 214 219 0
217 219 941 0
218 414 29 0
218 419 215 0
218 969 419 0
219 27 419 0
219 419 941 0
220 34 97 0
220 96 34 0
220 97 243 0
220 243 420 0
220 420 594 0
221 11 217 0
221 217 223 0
222 30 227 0
222 227 228 0
222 1009 86 0
223 217 941 0
223 941 969 0
223 942 221 0
224 421 593 0
224 593 969 0
224 969 218 0
225 222 593 0
225 421 594 0
225 594 420 0
226 32 230 0
226 87 609 0
226 230 422 0
227 30 244 0
227 87 228 0
227 244 431 0
228 87 422 0
228 229 1009 0
229 228 422 0
229 231 942 0
229 942 1009 0
229 943 231 0
230 88 422 0
230 423 925 0
231 11 221 0
231 221 942 0
232 267 234 0
233 596 742 0
233 742 450 0
234 90 597 0
234 489 232 0
235 234 597 0
235 597 720 0
235 720 930 0
236 91 300 0
236 317 485 0
237 425 947 0
237 808 750 0
238 427 486 0
238 486 757 0
238 601 427 0
238 961 959 0
239 92 483 0
239 314 906 0
239 906 943 0
240 426 428 0
240 428 607 0
240 605 429 0
241 599 926 0
241 926 916 0
242 241 32 0
242 837 932 0
242 932 89 0
243 30 420 0
243 610 244 0
244 610 725 0
245 434 1007 0
245 435 733 0
245 733 1008 0
246 36 622 0
246 453 985 0
247 436 863 0
247 626 628 0
247 627 441 0
248 438 439 0
248 439 736 0
248 638 987 0
248 736 746 0
249 37 586 0
249 250 447 0
250 8 631 0
250 249 99 0
251 98 253 0
251 445 453 0
251 944 445 0
252 445 944 0
253 98 441 0
253 441 627 0
254 256 945 0
255 257 444 0
256 37 945 0
256 254 585 0
256 403 586 0
257 255 630 0
258 446 970 0
258 970 983 0
258 983 103 0
259 252 945 0
259 260 252 0
260 101 636 0
260 454 917 0
260 917 252 0
261 101 632 0
261 264 970 0
261 446 636 0
262 37 249 0
262 249 447 0
262 447 632 0
263 275 39 0
264 261 632 0
264 265 1003 0
264 741 265 0
265 270 1003 0
265 298 270 0
266 31 273 0
266 104 267 0
266 273 274 0
266 274 452 0
267 31 266 0
267 90 234 0
267 104 449 0
267 232 31 0
268 105 448 0
268 271 272 0
268 744 451 0
269 270 271 0
269 452 635 0
269 635 107 0
270 107 1003 0
271 268 448 0
271 270 298 0
271 448 269 0
272 271 298 0
272 298 640 0
273 31 321 0
273 108 274 0
274 275 635 0
275 263 107 0
275 274 108 0
276 273 321 0
277 36 985 0
277 110 284 0
277 453 637 0
278 41 459 0
278 110 637 0
279 35 980 0
279 43 283 0
279 283 455 0
280 35 279 0
280 279 455 0
280 455 459 0
281 288 45 0
281 986 988 0
282 113 737 0
282 277 284 0
282 737 953 0
283 43 458 0
283 113 455 0
284 110 459 0
285 1010 1 0
286 114 927 0
286 822 738 0
287 114 439 0
287 467 901 0
288 115 289 0
288 281 117 0
289 115 22 0
290 73 971 0
290 123 295 0
291 188 576 0
291 293 464 0
291 464 465 0
292 73 577 0
292 462 971 0
293 121 464 0
293 291 576 0
294 293 639 0
294 639 927 0
296 123 290 0
296 181 709 0
296 290 462 0
297 398 302 0
298 265 631 0
299 236 300 0
299 349 12 0
300 468 195 0
301 91 425 0
301 425 237 0
301 469 642 0
301 643 469 0
302 640 297 0
302 641 644 0
304 312 962 0
304 645 305 0
304 963 480 0
305 158 539 0
305 539 649 0
305 649 963 0
307 122 386 0
307 752 568 0
308 309 479 0
308 478 831 0
308 831 470 0
309 308 470 0
309 473 310 0
310 471 962 0
311 308 479 0
311 478 308 0
312 304 480 0
312 310 962 0
312 480 653 0
313 131 364 0
313 157 131 0
313 364 481 0
313 481 964 0
314 239 483 0
314 482 948 0
315 214 934 0
315 654 755 0
316 12 349 0
316 318 655 0
316 349 774 0
316 655 317 0
317 12 316 0
318 316 774 0
318 487 756 0
318 756 655 0
318 867 836 0
319 74 199 0
319 199 968 0
319 775 74 0
319 867 775 0
321 31 322 0
321 322 657 0
321 490 129 0
322 232 489 0
322 489 758 0
323 129 490 0
323 490 839 0
323 839 491 0
324 59 148 0
324 323 491 0
325 51 326 0
325 326 672 0
325 672 493 0
326 139 339 0
326 951 672 0
327 896 53 0
328 492 659 0
328 662 760 0
329 527 939 0
330 134 497 0
330 135 332 0
331 52 493 0
331 135 52 0
331 332 135 0
331 493 671 0
332 331 130 0
333 136 668 0
333 347 136 0
333 498 521 0
334 136 499 0
334 415 510 0
334 510 843 0
335 870 761 0
336 498 502 0
336 502 677 0
336 677 907 0
337 504 670 0
337 670 766 0
337 840 504 0
338 669 950 0
338 673 951 0
339 56 522 0
339 139 56 0
340 140 511 0
340 511 675 0
341 511 768 0
341 675 511 0
342 143 346 0
343 772 345 0
345 518 343 0
346 141 343 0
346 143 516 0
346 679 342 0
347 333 521 0
347 521 509 0
348 56 138 0
348 146 509 0
349 299 581 0
349 581 523 0
349 681 774 0
350 149 75 0
350 656 775 0
351 776 954 0
351 911 209 0
352 524 778 0
352 908 935 0
352 910 524 0
353 150 912 0
353 356 530 0
353 954 356 0
354 151 529 0
355 354 529 0
355 496 527 0
355 529 777 0
356 529 683 0
356 777 529 0
356 954 955 0
357 200 61 0
358 13 902 0
359 156 163 0
359 374 156 0
359 531 684 0
360 155 784 0
361 166 169 0
362 159 481 0
362 364 975 0
362 532 159 0
363 163 156 0
363 164 163 0
364 165 975 0
365 313 964 0
366 162 682 0
366 682 778 0
367 172 392 0
367 177 172 0
368 686 690 0
368 690 894 0
368 879 754 0
368 894 879 0
369 694 786 0
369 698 788 0
369 786 1002 0
370 126 545 0
370 479 126 0
370 545 646 0
371 546 548 0
371 547 693 0
371 548 651 0
371 693 785 0
372 174 793 0
372 701 800 0
372 793 991 0
372 800 998 0
373 175 940 0
374 168 703 0
374 359 169 0
374 550 156 0
374 703 992 0
375 69 377 0
375 176 803 0
375 377 555 0
376 176 379 0
376 379 557 0
377 177 553 0
377 553 555 0
378 380 554 0
379 180 381 0
379 381 557 0
380 180 554 0
380 378 178 0
380 556 705 0
381 180 952 0
383 71 563 0
384 559 710 0
384 562 709 0
385 564 707 0
385 565 791 0
385 791 878 0
386 752 307 0
387 60 804 0
387 66 167 0
387 149 60 0
387 569 388 0
389 186 388 0
389 393 392 0
389 569 570 0
390 187 391 0
390 574 578 0
391 367 392 0
391 392 393 0
391 714 390 0
393 389 570 0
394 571 806 0
394 572 574 0
394 574 573 0
396 187 397 0
396 397 579 0
397 187 390 0
397 390 578 0
398 191 192 0
398 192 193 0
399 60 196 0
399 196 400 0
399 400 580 0
399 580 582 0
399 582 713 0
400 193 194 0
400 196 581 0
401 572 394 0
401 584 727 0
401 814 572 0
402 583 823 0
403 197 586 0
403 256 585 0
403 585 587 0
403 587 611 0
404 197 739 0
404 249 586 0
404 739 823 0
405 588 921 0
405 847 960 0
406 150 525 0
407 408 204 0
407 915 413 0
408 407 413 0
408 413 911 0
408 911 912 0
409 406 589 0
409 408 912 0
410 23 590 0
410 590 974 0
411 591 77 0
411 717 718 0
411 718 923 0
411 922 205 0
412 201 914 0
412 913 201 0
412 914 928 0
413 209 911 0
413 915 936 0
414 212 7 0
414 218 211 0
415 57 510 0
416 77 591 0
416 213 968 0
416 418 213 0
417 319 968 0
417 836 319 0
418 27 80 0
421 29 216 0
421 225 593 0
423 32 241 0
423 241 916 0
423 595 925 0
424 233 598 0
424 449 596 0
424 596 233 0
425 485 427 0
427 485 486 0
427 947 425 0
428 92 603 0
428 483 92 0
428 603 607 0
429 426 240 0
429 604 959 0
429 949 426 0
430 607 719 0
430 608 723 0
430 723 607 0
430 916 926 0
431 244 725 0
433 197 611 0
433 612 613 0
433 812 813 0
433 813 726 0
434 615 616 0
434 995 1007 0
435 245 1007 0
435 460 976 0
435 976 1005 0
436 98 623 0
437 620 623 0
437 621 638 0
437 638 746 0
437 746 994 0
438 248 987 0
438 287 439 0
439 114 624 0
439 624 736 0
440 99 823 0
440 190 192 0
440 192 191 0
441 436 247 0
442 255 628 0
442 630 255 0
443 100 627 0
443 444 585 0
444 257 587 0
444 443 628 0
444 628 255 0
446 261 970 0
446 278 454 0
446 454 636 0
447 250 631 0
447 631 741 0
448 105 633 0
449 90 267 0
449 104 633 0
449 424 90 0
450 634 721 0
450 721 233 0
450 742 826 0
451 742 105 0
451 744 745 0
452 269 448 0
452 274 635 0
452 633 104 0
453 246 251 0
453 277 985 0
453 917 637 0
454 260 636 0
454 278 637 0
454 637 917 0
455 284 459 0
456 638 953 0
456 737 1001 0
456 986 987 0
457 283 458 0
457 458 988 0
457 988 1001 0
458 281 988 0
460 435 747 0
460 738 822 0
461 576 1004 0
461 822 639 0
461 1005 976 0
462 124 296 0
462 290 971 0
462 292 465 0
462 463 124 0
462 465 463 0
463 5 984 0
463 118 5 0
464 749 465 0
465 292 291 0
466 464 121 0
466 749 464 0
467 287 120 0
468 300 642 0
469 825 644 0
470 473 309 0
470 488 473 0
470 831 981 0
470 981 488 0
471 476 962 0
472 306 476 0
473 471 310 0
473 488 125 0
474 646 653 0
474 648 753 0
474 834 1006 0
475 649 783 0
475 754 650 0
476 306 477 0
476 471 472 0
476 645 962 0
477 64 158 0
477 305 645 0
478 568 831 0
478 700 651 0
479 370 311 0
480 647 653 0
480 963 982 0
481 160 964 0
481 364 362 0
482 314 483 0
483 426 482 0
483 428 426 0
484 80 81 0
484 81 315 0
484 315 755 0
484 487 417 0
485 317 486 0
485 425 91 0
486 317 655 0
486 655 757 0
487 318 836 0
487 755 756 0
488 303 320 0
488 981 303 0
489 234 235 0
489 235 89 0
490 321 657 0
490 657 869 0
492 328 661 0
492 661 762 0
493 494 325 0
493 506 671 0
494 493 52 0
494 937 325 0
495 659 660 0
496 65 527 0
496 355 777 0
497 14 132 0
497 52 135 0
498 55 147 0
498 333 502 0
498 336 55 0
499 144 415 0
499 415 334 0
500 335 503 0
500 503 505 0
500 505 919 0
500 763 335 0
501 664 870 0
502 333 668 0
502 668 843 0
503 335 761 0
503 337 766 0
503 766 996 0
504 130 671 0
505 137 919 0
505 503 996 0
506 670 671 0
506 672 673 0
507 147 674 0
507 326 339 0
507 674 951 0
508 55 336 0
508 336 907 0
508 338 674 0
509 146 58 0
509 521 348 0
510 340 675 0
510 675 843 0
511 676 768 0
512 137 677 0
512 677 767 0
512 767 918 0
512 918 919 0
513 341 768 0
513 500 919 0
513 768 844 0
513 918 341 0
514 667 769 0
514 765 842 0
514 769 846 0
515 342 679 0
515 679 871 0
516 210 141 0
517 345 807 0
517 518 345 0
517 807 344 0
518 346 343 0
518 517 520 0
518 773 679 0
519 202 76 0
519 520 142 0
520 517 142 0
520 519 680 0
520 680 773 0
521 147 348 0
522 507 339 0
523 149 350 0
524 366 778 0
524 910 903 0
525 530 779 0
525 921 406 0
526 405 921 0
526 663 495 0
526 764 405 0
526 921 663 0
527 65 939 0
527 329 133 0
528 351 954 0
529 151 683 0
530 356 683 0
530 525 150 0
530 683 779 0
531 163 164 0
531 784 684 0
532 533 537 0
532 965 685 0
533 532 685 0
533 534 536 0
533 685 534 0
534 363 687 0
534 685 363 0
534 850 874 0
535 782 977 0
536 535 977 0
536 691 533 0
537 538 851 0
537 691 538 0
540 65 162 0
540 358 692 0
540 692 780 0
541 695 789 0
541 794 855 0
542 173 753 0
542 753 989 0
542 989 997 0
543 698 798 0
543 798 857 0
544 173 700 0
544 311 370 0
544 370 646 0
544 646 753 0
544 700 311 0
545 312 653 0
546 71 548 0
546 371 785 0
546 563 71 0
546 785 854 0
547 173 852 0
548 71 307 0
549 373 940 0
549 375 803 0
549 551 373 0
550 374 992 0
550 687 156 0
550 781 850 0
551 549 803 0
552 376 557 0
552 557 558 0
552 702 802 0
552 802 376 0
552 973 702 0
553 378 554 0
553 554 555 0
554 180 920 0
555 554 920 0
556 295 562 0
556 562 710 0
557 381 558 0
558 381 564 0
558 564 566 0
559 384 560 0
559 560 707 0
559 705 710 0
560 561 711 0
561 181 383 0
561 384 709 0
561 560 384 0
562 123 709 0
562 384 710 0
563 546 854 0
564 381 706 0
564 385 566 0
564 706 707 0
565 182 791 0
565 385 707 0
565 707 708 0
566 385 878 0
567 184 386 0
567 979 184 0
568 478 651 0
568 548 307 0
568 651 548 0
569 389 388 0
569 571 570 0
569 713 571 0
570 714 393 0
573 570 571 0
573 571 394 0
573 574 714 0
574 390 714 0
574 805 578 0
575 461 1004 0
575 731 999 0
575 999 1005 0
576 639 293 0
577 618 731 0
579 892 860 0
580 190 198 0
581 299 195 0
582 580 198 0
582 715 806 0
583 402 584 0
583 440 823 0
584 401 715 0
585 254 443 0
585 444 587 0
587 257 812 0
588 405 960 0
588 406 921 0
588 589 406 0
589 588 203 0
590 153 924 0
591 344 807 0
591 411 205 0
592 418 858 0
593 223 969 0
594 216 85 0
595 603 946 0
595 916 719 0
596 105 742 0
596 449 633 0
597 598 720 0
598 233 721 0
598 597 424 0
598 721 724 0
599 89 235 0
599 235 930 0
599 241 242 0
600 743 750 0
601 602 947 0
601 604 602 0
601 959 604 0
602 237 947 0
602 604 722 0
602 722 808 0
603 92 946 0
603 595 719 0
604 605 972 0
605 604 429 0
605 723 972 0
606 600 808 0
606 972 809 0
607 603 719 0
607 605 240 0
607 723 605 0
608 430 926 0
608 720 724 0
608 724 723 0
608 926 930 0
608 930 720 0
609 431 725 0
610 243 97 0
610 759 868 0
611 587 812 0
612 433 726 0
612 727 728 0
613 612 728 0
613 739 197 0
614 434 616 0
614 865 885 0
614 995 434 0
615 245 821 0
615 434 245 0
615 730 616 0
616 864 614 0
617 730 978 0
617 816 432 0
618 577 189 0
618 579 860 0
618 818 731 0
618 860 817 0
619 626 863 0
619 863 884 0
620 437 994 0
620 829 828 0
621 282 953 0
621 437 622 0
622 437 623 0
623 620 735 0
624 738 830 0
625 442 626 0
625 619 729 0
625 630 442 0
625 740 630 0
626 247 863 0
626 619 625 0
627 247 628 0
628 443 627 0
628 626 442 0
629 816 811 0
629 859 630 0
630 740 629 0
630 859 257 0
631 8 298 0
631 265 741 0
632 101 262 0
632 447 741 0
633 452 448 0
634 600 606 0
634 606 809 0
638 248 746 0
638 456 987 0
638 621 953 0
639 576 461 0
639 822 927 0
640 8 297 0
640 302 824 0
641 302 398 0
641 398 193 0
641 468 642 0
641 642 644 0
642 91 301 0
642 469 644 0
643 237 750 0
643 301 237 0
644 824 302 0
645 304 962 0
645 476 477 0
646 474 753 0
646 545 653 0
647 474 653 0
647 480 982 0
648 474 1006 0
648 796 989 0
649 475 650 0
649 539 783 0
650 652 982 0
650 754 833 0
650 833 652 0
651 547 371 0
651 700 547 0
652 647 982 0
652 834 647 0
654 314 948 0
654 934 314 0
654 948 957 0
655 756 757 0
656 23 74 0
656 74 775 0
657 322 758 0
657 758 933 0
658 97 34 0
659 492 660 0
659 495 663 0
660 492 664 0
660 664 666 0
660 666 764 0
662 328 659 0
662 659 663 0
662 779 151 0
663 525 779 0
663 779 662 0
664 492 762 0
664 501 666 0
665 335 763 0
665 501 870 0
665 763 844 0
665 844 667 0
666 501 842 0
667 514 842 0
667 842 665 0
668 334 843 0
669 338 508 0
669 508 907 0
669 907 990 0
670 504 671 0
670 506 673 0
670 673 766 0
672 506 493 0
673 338 950 0
673 672 951 0
674 338 951 0
675 341 767 0
675 767 843 0
677 137 907 0
677 502 843 0
678 405 764 0
678 764 765 0
679 346 518 0
679 773 871 0
680 519 845 0
680 845 887 0
681 349 523 0
681 523 350 0
681 775 867 0
682 776 778 0
682 777 955 0
684 169 359 0
684 361 169 0
685 164 363 0
686 368 754 0
686 538 691 0
686 977 782 0
687 363 156 0
687 550 850 0
688 799 966 0
688 967 689 0
689 782 535 0
690 686 782 0
691 536 977 0
691 537 533 0
692 154 360 0
692 360 784 0
692 784 780 0
693 547 852 0
694 369 788 0
694 541 787 0
694 788 792 0
694 794 541 0
695 541 855 0
695 790 789 0
696 793 795 0
696 795 958 0
697 68 991 0
697 543 857 0
697 853 543 0
698 543 788 0
698 796 856 0
699 797 966 0
700 478 311 0
701 68 801 0
701 801 873 0
701 991 68 0
702 876 802 0
702 998 800 0
703 373 551 0
703 551 875 0
703 875 992 0
704 551 803 0
704 802 876 0
704 803 802 0
704 875 551 0
705 556 710 0
705 559 706 0
705 706 952 0
706 381 952 0
706 559 707 0
707 560 708 0
708 560 711 0
708 790 182 0
711 383 563 0
711 561 383 0
711 563 790 0
711 790 708 0
712 566 878 0
713 569 804 0
713 804 399 0
713 806 571 0
714 391 393 0
714 570 573 0
715 401 806 0
716 814 815 0
716 815 810 0
716 861 882 0
716 862 861 0
717 77 206 0
717 206 410 0
717 410 974 0
718 928 929 0
720 598 724 0
721 634 809 0
722 606 808 0
723 724 809 0
723 809 972 0
724 721 809 0
725 610 868 0
725 838 609 0
727 584 728 0
727 612 815 0
727 814 401 0
727 815 814 0
728 402 613 0
728 584 402 0
729 616 730 0
729 619 864 0
729 730 740 0
729 740 625 0
730 615 978 0
730 617 432 0
731 575 1004 0
731 818 999 0
732 820 881 0
732 881 821 0
732 1008 993 0
733 435 1005 0
733 993 1008 0
734 397 578 0
734 578 893 0
734 579 397 0
735 436 623 0
735 620 828 0
735 863 436 0
737 456 953 0
737 457 1001 0
738 460 827 0
738 624 286 0
738 827 956 0
739 402 823 0
739 613 402 0
740 432 629 0
740 730 432 0
741 264 632 0
742 451 826 0
743 600 634 0
743 745 825 0
744 268 272 0
744 272 640 0
744 640 824 0
745 826 451 0
746 736 931 0
746 931 994 0
747 435 1007 0
748 828 829 0
748 829 956 0
748 885 865 0
749 463 465 0
749 898 118 0
750 808 600 0
751 128 303 0
752 184 981 0
752 386 184 0
752 831 568 0
753 648 989 0
754 475 538 0
754 538 686 0
755 487 484 0
755 654 957 0
756 755 835 0
757 756 835 0
758 932 933 0
759 610 97 0
759 658 839 0
760 54 332 0
760 332 130 0
760 661 328 0
761 337 503 0
761 841 337 0
762 661 840 0
762 840 841 0
762 870 664 0
763 500 513 0
763 513 844 0
764 495 660 0
764 526 495 0
764 666 765 0
765 666 842 0
765 771 678 0
766 673 950 0
766 950 996 0
767 341 918 0
767 677 843 0
768 676 769 0
768 769 844 0
769 667 844 0
770 203 960 0
770 887 845 0
771 765 514 0
771 846 886 0
772 84 592 0
772 592 858 0
772 858 345 0
773 518 520 0
773 680 887 0
774 681 867 0
775 681 350 0
776 351 909 0
776 682 955 0
776 909 778 0
777 356 955 0
777 682 496 0
778 909 352 0
780 161 939 0
780 531 161 0
781 550 875 0
781 848 888 0
782 967 690 0
783 159 851 0
783 539 160 0
784 155 684 0
784 531 780 0
785 787 789 0
785 789 854 0
786 694 787 0
786 787 852 0
786 852 1000 0
786 1000 1002 0
787 541 789 0
787 693 852 0
787 785 693 0
788 543 853 0
789 790 854 0
790 563 854 0
790 695 182 0
791 695 855 0
791 855 958 0
792 696 794 0
792 877 696 0
793 174 795 0
793 696 877 0
793 877 991 0
794 694 792 0
794 696 855 0
795 712 878 0
795 878 958 0
796 369 997 0
796 648 832 0
796 698 369 0
796 832 856 0
797 690 967 0
798 698 856 0
798 699 857 0
798 866 699 0
799 688 68 0
799 697 857 0
800 701 873 0
800 873 880 0
801 688 689 0
801 872 873 0
803 176 802 0
804 569 387 0
805 574 572 0
805 882 893 0
805 893 578 0
806 401 394 0
806 713 582 0
807 416 591 0
807 858 416 0
808 237 602 0
810 726 813 0
810 815 726 0
811 813 859 0
811 816 810 0
811 859 629 0
812 257 859 0
812 433 611 0
813 811 810 0
813 812 859 0
814 882 572 0
815 612 726 0
816 617 883 0
816 629 432 0
816 862 810 0
817 820 732 0
817 993 818 0
818 618 817 0
818 993 999 0
819 617 978 0
819 881 883 0
820 817 860 0
820 860 892 0
820 891 895 0
820 895 881 0
821 245 1008 0
821 978 615 0
822 286 927 0
822 976 460 0
824 745 744 0
824 825 745 0
825 469 643 0
825 643 750 0
825 750 743 0
825 824 644 0
826 634 450 0
826 743 634 0
826 745 743 0
827 460 747 0
827 747 885 0
827 748 956 0
828 748 865 0
828 865 884 0
828 884 735 0
829 620 994 0
829 931 956 0
830 736 624 0
830 738 956 0
830 931 736 0
831 752 981 0
832 648 1006 0
832 866 856 0
832 890 894 0
832 894 866 0
833 754 879 0
834 474 647 0
834 652 833 0
834 833 890 0
834 890 1006 0
835 755 957 0
835 961 757 0
836 417 487 0
837 226 609 0
838 725 868 0
838 837 609 0
838 868 933 0
839 490 869 0
839 658 491 0
840 337 841 0
840 661 130 0
841 761 870 0
842 501 665 0
845 76 203 0
845 203 770 0
846 515 871 0
846 676 515 0
846 769 676 0
846 771 514 0
846 871 886 0
847 405 678 0
847 678 771 0
847 770 960 0
847 771 886 0
848 781 849 0
848 849 880 0
848 872 888 0
849 704 876 0
849 781 875 0
849 876 880 0
850 534 687 0
850 781 888 0
851 159 537 0
851 475 783 0
851 538 475 0
852 173 1000 0
853 697 877 0
853 792 788 0
855 696 958 0
857 966 799 0
858 418 416 0
858 807 345 0
861 862 895 0
861 895 891 0
862 716 810 0
862 816 883 0
863 735 884 0
864 616 729 0
864 619 884 0
865 614 864 0
865 864 884 0
866 797 699 0
866 798 856 0
867 318 774 0
867 319 836 0
869 657 933 0
869 759 839 0
869 868 759 0
870 335 665 0
870 762 841 0
871 773 887 0
872 801 689 0
872 848 873 0
873 848 880 0
874 535 536 0
874 536 534 0
874 850 888 0
874 888 889 0
874 889 535 0
875 550 992 0
875 704 849 0
876 702 800 0
877 697 991 0
877 792 853 0
878 791 958 0
880 876 800 0
881 819 821 0
882 805 572 0
882 814 716 0
882 861 893 0
883 617 819 0
883 881 895 0
885 747 995 0
885 748 827 0
886 770 847 0
886 871 887 0
886 887 770 0
888 872 889 0
889 689 535 0
889 872 689 0
890 832 1006 0
890 833 879 0
890 879 894 0
891 820 892 0
891 892 734 0
892 579 734 0
893 861 891 0
893 891 734 0
894 690 797 0
894 797 866 0
895 862 883 0
896 131 6 0
896 327 131 0
897 899 320 0
898 749 466 0
899 897 2 0
900 263 40 0
900 938 263 0
901 467 294 0
901 927 114 0
902 524 903 0
902 914 201 0
903 207 914 0
904 78 923 0
904 207 910 0
904 910 935 0
904 923 929 0
905 78 936 0
905 208 922 0
905 922 923 0
906 231 943 0
906 314 934 0
907 137 990 0
908 209 936 0
908 352 909 0
908 936 935 0
909 209 908 0
910 352 935 0
911 351 528 0
912 528 353 0
912 911 528 0
913 153 357 0
913 154 201 0
913 412 924 0
914 902 903 0
915 407 202 0
915 905 936 0
916 430 719 0
916 595 423 0
917 445 252 0
917 453 445 0
918 513 919 0
920 176 555 0
921 525 663 0
922 411 923 0
923 718 929 0
924 412 928 0
924 928 974 0
925 595 946 0
926 599 930 0
927 901 294 0
928 207 929 0
928 718 974 0
931 829 994 0
931 830 956 0
932 758 89 0
932 837 838 0
933 868 869 0
933 932 838 0
934 654 315 0
936 78 935 0
942 86 1009 0
942 223 86 0
943 229 88 0
944 251 100 0
944 945 252 0
945 944 254 0
947 427 601 0
948 482 949 0
949 429 959 0
949 482 426 0
949 959 961 0
950 990 996 0
951 326 507 0
954 353 528 0
954 776 955 0
957 948 961 0
959 601 238 0
961 238 757 0
961 835 957 0
961 948 949 0
963 304 305 0
965 362 975 0
965 532 362 0
966 797 967 0
966 857 699 0
967 688 966 0
967 782 689 0
969 941 419 0
970 938 983 0
970 1003 938 0
972 606 722 0
972 722 604 0
973 174 998 0
973 552 19 0
973 712 174 0
974 590 924 0
974 718 717 0
976 822 461 0
977 686 691 0
978 821 819 0
979 567 21 0
980 43 279 0
981 751 303 0
982 649 650 0
982 963 649 0
983 938 900 0
986 45 438 0
986 438 987 0
986 456 1001 0
988 986 1001 0
989 796 997 0
990 505 996 0
990 950 669 0
991 701 372 0
993 733 999 0
993 817 732 0
995 614 885 0
995 747 1007 0
997 369 1002 0
997 1000 542 0
998 702 973 0
999 733 1005 0
1000 997 1002 0
1003 970 264 0
1004 188 731 0
1005 461 575 0
1008 732 821 0
1009 222 228 0
1010 285 44 0

End
