MeshVersionFormatted 1

Dimension
2

Vertices
511
0.0 0.0 1
0.5 0.0 1
0.5 0.5 1
0.0 0.5 1
0.25 0.0 1
0.5 0.25 1
0.25 0.5 1
0.13027028161447812 0.2440028840499727 0
0.0 0.25 1
0.0 0.375 1
0.125 0.5 1
0.19976355742564125 0.38049881741072145 0
0.27775966155167636 0.23857166472952493 0
0.35534162416253373 0.22145266141183487 0
0.5 0.1875 1
0.27407130250501616 0.10895288423044844 0
0.2860660008237489 0.18583817255048915 0
0.31972902426698124 0.14617432160849234 0
0.375 0.0 1
0.3125 0.0 1
0.23732272275458233 0.15690284356199777 0
0.125 0.0 1
0.17109728391326082 0.21831059460779553 0
0.29033150903372207 0.2925290538694525 0
0.3043527337787885 0.35682539633344373 0
0.375 0.5 1
0.3125 0.5 1
0.1875 0.5 1
0.06210242493241355 0.36346949033693327 0
0.12958371514070852 0.3820683070545219 0
0.0625 0.5 1
0.12340905547416009 0.45894479643642266 0
0.0 0.125 1
0.09704932759231442 0.14290509792690373 0
0.04706799814976482 0.18328432404440903 0
0.0 0.1875 1
0.0392033005725953 0.26218802700441846 0
0.0 0.3125 1
0.05621140229152308 0.13658826499623444 0
0.0625 0.0 1
0.045228271552368186 0.07465892328507567 0
0.0 0.0625 1
0.11186844104775072 0.05887372455553035 0
0.08591319875666767 0.040313130288663374 0
0.1875 0.0 1
0.1851372658701401 0.06139129217034968 0
0.3017007172592104 0.07290272367760597 0
0.3912798770386879 0.1016434629839197 0
0.46178899387784045 0.2201031198938144 0
0.23581065607680102 0.34770490797777226 0
0.5 0.0625 1
0.4375 0.0 1
0.5 0.375 1
0.42996476873447764 0.3524710485029073 0
0.5 0.3125 1
0.4555992546629969 0.26958931389252416 0
0.40227054942216417 0.31496549391205597 0
0.436453009579678 0.4332758284173036 0
0.5 0.4375 1
0.3608564926167969 0.43762581998710093 0
0.31290194400416316 0.39374975325942646 0
0.28925245645136133 0.453461379699272 0
0.4375 0.5 1
0.0 0.4375 1
0.33523172902149995 0.3213943414861517 0
0.30444409546603973 0.22473391205083015 0
0.40840763521388196 0.16013609424066363 0
0.3532857017679019 0.25452900748902463 0
0.3478006417366958 0.2807096438455439 0
0.40879289303823024 0.2795376501424044 0
0.28202832649690945 0.2091022170994655 0
0.32831745947863145 0.21033385304373636 0
0.27287427215561677 0.15541367793410965 0
0.3596253413302706 0.14777443195629997 0
0.3004037068203946 0.17597936340238168 0
0.2872755498623654 0.1264967399535959 0
0.3414554808914246 0.0 1
0.2643030670080208 0.19225760954214366 0
0.2528159649014365 0.1463454171777175 0
0.24881727929736241 0.0964305409206529 0
0.15408037038120675 0.2477985760309766 0
0.1916417839331217 0.26962280755515655 0
0.19785982095708032 0.22105724084779582 0
0.26551396682663386 0.30139941338526127 0
0.2750077678314151 0.27063206990420546 0
0.30457780084602726 0.2973731785756483 0
0.3467617389778049 0.35361303482417694 0
0.285740911112154 0.3516025342387275 0
0.32455197896841775 0.32928666756992353 0
0.2405849333952168 0.4335123222819473 0
0.20118823915048042 0.4584660830393868 0
0.19915005066543595 0.4227657551595688 0
0.15779626192577204 0.4627257283321952 0
0.16908210979786154 0.3964016542595327 0
0.13788567406496446 0.40805327422859494 0
0.09832100820193887 0.38736617405133794 0
0.08677083921570837 0.3518849554641012 0
0.18534231062472015 0.32049722809477643 0
0.091244257925472 0.4656286071090177 0
0.11086728449146467 0.12990215604716318 0
0.1250199300758038 0.22104379382741152 0
0.11369851855373661 0.1717528321945343 0
0.12833556012226224 0.17072773080614978 0
0.039251450558578836 0.22098146477958852 0
0.09024467070045289 0.1910635534015648 0
0.07264943151248018 0.27551767662978216 0
0.06991665665445887 0.3301234248712553 0
0.07718157928620858 0.14014286249354305 0
0.06278614121260856 0.15778781000853945 0
0.038692991719239504 0.03565436113166026 0
0.08758732391330462 0.10498273845373564 0
0.1308399610986113 0.03312689559417744 0
0.16228708260149943 0.07174085203458129 0
0.18284852383682204 0.08632711476167312 0
0.27350480618848594 0.07913333438410457 0
0.28419437729959784 0.042637229564310014 0
0.13852959953906074 0.2708697801319797 0
0.4069599484823808 0.14446462798407692 0
0.22326635487600843 0.3716606844784594 0
0.22084814358099486 0.3247058354405248 0
0.25995064420022806 0.34850474797632924 0
0.4605572785723899 0.03801664201773783 0
0.03157073986031454 0.38218833375004513 0
0.4635089225404097 0.3527387904586443 0
0.38965586120524426 0.33444498303015496 0
0.41159573392281207 0.4611637378716642 0
0.39572063672584906 0.3984566149038602 0
0.5 0.4710624034559858 1
0.5 0.40582170578045534 1
0.3564506394988431 0.4144969813911606 0
0.36872026196055574 0.4661861903712736 0
0.2812892264025954 0.40646004455351376 0
0.3401615963232454 0.4274077743451854 0
0.46813969149991497 0.4237086980106285 0
0.33272637538243527 0.3096153313441169 0
0.35555326611285953 0.3342356809069653 0
0.30924471955713645 0.28189952818246694 0
0.30233751441853496 0.25619349349254356 0
0.4575639045819254 0.1730391420770644 0
0.46105141860366344 0.12751639976646872 0
0.4303419926937915 0.20211864562191614 0
0.42439277696599964 0.23769988035917003 0
0.40434535663844856 0.21273965081657595 0
0.3288518758336256 0.2391517331726742 0
0.30608861894734696 0.1955317710344301 0
0.30971840041058335 0.16560868305715049 0
0.29703633869635787 0.13906132184383604 0
0.35123557604331407 0.070538725520133 0
0.3261595239092334 0.044107937658674705 0
0.3645390086310797 0.039395430497358976 0
0.24475255466226595 0.25036914780625685 0
0.25599482955484276 0.21756656959332563 0
0.25285264886391806 0.17066261773125996 0
0.2517757226263181 0.12337111033009579 0
0.20776926902005255 0.11144653196263198 0
0.2294671239267865 0.11592088363374814 0
0.16617224261213112 0.26834731969227754 0
0.17652459551114388 0.28688784758287705 0
0.1983295429739652 0.2925743437894479 0
0.22018392791762445 0.277916434927466 0
0.14264658750770376 0.195678274575546 0
0.14770333024734095 0.22635324783622598 0
0.297447297555332 0.3081112952340146 0
0.35906984141034926 0.3598191529067394 0
0.3463171129636405 0.3399437469816029 0
0.2768418153522949 0.3273039573836157 0
0.31043409013499845 0.30909352840161647 0
0.2986750406274059 0.3462043966060568 0
0.26945662082825533 0.3738529393560399 0
0.2468250783941957 0.391795869116404 0
0.24723183538063193 0.3668401066406267 0
0.14063495815505014 0.43341283547254844 0
0.18958701988030058 0.3981600133575894 0
0.15783191268266053 0.41338527868116665 0
0.1771525296060484 0.41178847614808417 0
0.13311066940080207 0.39601442772696166 0
0.1166622198822028 0.3784261535653143 0
0.16396107258107823 0.3320618583681074 0
0.16976790830156377 0.3453827127742187 0
0.17775980183037912 0.38004054089116546 0
0.16019133989971043 0.38193608380355787 0
0.1467430193816067 0.379397132378685 0
0.1306907418954535 0.3723050301456961 0
0.12277215233330017 0.42076956356946266 0
0.13481597013703622 0.13367096472126822 0
0.12083956301954853 0.09977038027523072 0
0.10428318741998734 0.15826485540404986 0
0.1366841486897451 0.1590359153809692 0
0.14287989733137502 0.1705836980826838 0
0.108026166273744 0.18809769090057002 0
0.09618297152377717 0.17430388679980663 0
0.10024821201397731 0.21100839034571237 0
0.07145948679662598 0.20383630628871435 0
0.10868026386144129 0.23643231925241 0
0.0939099313412025 0.3161889388673108 0
0.11700869697754591 0.30780000170862276 0
0.09654814211178732 0.29123743554594334 0
0.04043555037329893 0.29955924145138074 0
0.07425383424822159 0.3029934087747772 0
0.07541019924251402 0.17793089356858696 0
0.034184159951320084 0.1505659681936913 0
0.03888550150275614 0.11408508163521965 0
0.10397715435881037 0.0950424754804266 0
0.09140753956793539 0.12473799418203066 0
0.06983164430665169 0.11977031819608512 0
0.06584375539989244 0.09865117110190884 0
0.16071096560367454 0.09398491903425514 0
0.16684837207959163 0.038094698068605735 0
0.2016788105874209 0.09350134240630176 0
0.22269241189585953 0.09152599378332202 0
0.20674959603118853 0.07197307695088571 0
0.29588543220232477 0.11035632848148555 0
0.18226325798542709 0.3054367923240562 0
0.1692535695032992 0.3182532242504177 0
0.16728678618899998 0.3022175760165075 0
0.15562425265558172 0.2888841020413096 0
0.41172960775709566 0.04625560080849813 0
0.453568050269702 0.08136642809507239 0
0.42887813442812256 0.1137970822188572 0
0.4121040402962815 0.08822777676207834 0
0.4074353787618301 0.11015932273193187 0
0.17588158135609452 0.36627875179109015 0
0.034094528849947535 0.3449278882543498 0
0.0830454556643092 0.37243770695687206 0
0.0460798143405145 0.46024847184470546 0
0.40893329350326263 0.338921491027655 0
0.37358842154549426 0.27571038021354854 0
0.43862072114553047 0.31599300975224165 0
0.391878899643339 0.386471414075172 0
0.4406947213154832 0.40606952455517553 0
0.4691924479131716 0.3877854251426854 0
0.3692457122636322 0.38726085104610547 0
0.33620694982349364 0.4033966947937512 0
0.3166437987374151 0.3709662731815967 0
0.46000624740634627 0.4619778878545439 0
0.2000009094869082 0.31341666370073784 0
0.34071809813783654 0.29819535813824377 0
0.3460664166605123 0.32701311881282197 0
0.37771971111337066 0.31758958334914783 0
0.35949277122068546 0.32146410936394243 0
0.3285935905372621 0.28744580704922135 0
0.3799890931017134 0.17147638401193102 0
0.3852617068127235 0.24165349168090025 0
0.3797110300800098 0.20938698217679996 0
0.3936429781913025 0.19292224188836957 0
0.3927629533735055 0.16663996192356315 0
0.2728429704523424 0.17448824140681232 0
0.3658634114856148 0.15489257148628405 0
0.36170169994354295 0.12684254772329745 0
0.37312176115333257 0.09974376819042824 0
0.34937998916934593 0.15066040055097943 0
0.32931893864143397 0.14350825843953718 0
0.32908806072619035 0.15551356630593186 0
0.3130438795708304 0.17821789079831954 0
0.31735398947259696 0.15737601735376616 0
0.29090590610036304 0.15325575550051004 0
0.30638281566870307 0.1515660014577599 0
0.31074850760078904 0.13660210079687607 0
0.32737878781371044 0.08241843853256677 0
0.3082442579482194 0.0961503293713879 0
0.3231728020902992 0.10337729470310264 0
0.33421596207141113 0.1236934172373914 0
0.2398723032367789 0.19517880377353572 0
0.21156696768845107 0.19519735760393647 0
0.20765320092079245 0.1712659023517329 0
0.18922914316669498 0.10660874233683275 0
0.2337121253613559 0.13837945059927065 0
0.17910039869563193 0.2437436764525214 0
0.15470532405676515 0.20613305467325316 0
0.12478085365865042 0.19892166896533406 0
0.357916423419374 0.3454007062310715 0
0.3208655993957696 0.3519768113708072 0
0.21640990878716237 0.3991028191041638 0
0.17310807258159594 0.4342318522658438 0
0.11838450207774921 0.36468875668016393 0
0.21167541439593499 0.34897659329094016 0
0.17806585047743267 0.33214566048891114 0
0.15571605235656374 0.3634090337616457 0
0.1571607800814358 0.35245075488140143 0
0.13278825839671826 0.3606247151412848 0
0.12273578654552807 0.4066122173324448 0
0.1653155782704515 0.1491860197587068 0
0.15688430492261293 0.14252666976949946 0
0.18823526045537167 0.16768376241659053 0
0.1632541763951216 0.1306645429801947 0
0.17562106834143135 0.12874300420296012 0
0.21099151835280658 0.13437026008991415 0
0.14501300205267698 0.13892424765600198 0
0.12262944096084526 0.11644048221795573 0
0.1407452305520078 0.08834270529084993 0
0.1358156889280664 0.10744175326512824 0
0.12286497216258079 0.14024127506581097 0
0.12154706607327025 0.15591780475325845 0
0.14635888659684845 0.15055211115706024 0
0.13461512719980823 0.14618933679532353 0
0.14850541853279028 0.1609826809996608 0
0.08555514592059017 0.15851256181687023 0
0.07729304381579861 0.23872133405644325 0
0.10555921967191141 0.2627402963213625 0
0.09579192813550622 0.3345244204347916 0
0.10834834672618307 0.3244132849310054 0
0.12486385688515161 0.32694940341412176 0
0.08799964713710876 0.07899351559448986 0
0.20643008042370126 0.03857829046048269 0
0.1420285664264487 0.32449047353406324 0
0.15086095519485107 0.33403085032060875 0
0.39432984433181245 0.15180267739036482 0
0.24929688384756546 0.3248861319660262 0
0.038709673142387976 0.4188159376965687 0
0.11032997827087399 0.43723743219960515 0
0.370305482144811 0.33641873933387517 0
0.3880059441507949 0.37487566583382204 0
0.381983412260438 0.39330113525807375 0
0.38760104163825176 0.4372173451375844 0
0.40645544427570685 0.3872756308654932 0
0.3794620323824545 0.38116097973987895 0
0.3698851461178498 0.3765564716952169 0
0.3326007850921462 0.3810160267789708 0
0.35617431079338396 0.39632837694648393 0
0.2948087195142449 0.375467605153378 0
0.34567967702815333 0.37442811305864104 0
0.3328145686717642 0.45815829841703504 0
0.3151042009847714 0.42342950495166565 0
0.3679004423664168 0.3510805681046482 0
0.3612138857735192 0.30085957755404324 0
0.3458559642801658 0.31309574059017276 0
0.3761528743473612 0.1872418189278224 0
0.3467714298036032 0.19686629225398092 0
0.35964321123645426 0.18488420300961558 0
0.38231824828219635 0.15784796628501607 0
0.2868119801683506 0.16795213105396534 0
0.345967396468114 0.12781002537934735 0
0.3662605851589772 0.11377809786012608 0
0.380635677737204 0.07624658764655198 0
0.34605488927946504 0.0915374677500081 0
0.3575719128416517 0.10280702536137788 0
0.3386453720229158 0.14680331732224336 0
0.32253580078199795 0.1680214464810857 0
0.28350734687488216 0.1415326378522301 0
0.3112502134473252 0.1127891881113418 0
0.2907050623735248 0.09327745601887745 0
0.31444977436776267 0.12476457104483336 0
0.3241068711309803 0.1325641511696779 0
0.22652693206033206 0.2211617300756341 0
0.22839137600278517 0.1738253849784626 0
0.18735783942231435 0.1995141800007741 0
0.21968911021388582 0.15490175233244152 0
0.20986766701395096 0.24749328309842758 0
0.19464415089515005 0.1838427355272761 0
0.16832546066230386 0.1974315521485565 0
0.13482417039697486 0.18357333432085707 0
0.13902038457420993 0.20943279052528055 0
0.10118099425396092 0.3666538888641039 0
0.1832495308611135 0.3444140258473369 0
0.19547083746425903 0.33404273304488213 0
0.1435360061970162 0.369580853527071 0
0.1457155294811916 0.3578345996389209 0
0.1912705564545163 0.12536759424741903 0
0.10637715196882022 0.11181152848919432 0
0.1350069243716884 0.12122162131003753 0
0.12156308802009907 0.1827318114651824 0
0.15658122250842488 0.15511935389992781 0
0.1573347546856386 0.16836801685486066 0
0.16774012051412027 0.11931870659827226 0
0.2414646357801116 0.05985835126981824 0
0.1176901738714262 0.2850186777734826 0
0.138238446507176 0.3378052479879176 0
0.15132314340278763 0.3095303295049211 0
0.39459354830965115 0.11998349685369113 0
0.3801168867310034 0.11445101681151443 0
0.39511366060656194 0.1360634873365299 0
0.42808431541388736 0.14583139398299738 0
0.24865693110076784 0.28026858877301364 0
0.11651536596380416 0.3929426232606063 0
0.07127627862120835 0.39336797410524293 0
0.38106623305279475 0.34978091132820954 0
0.3885823918283119 0.36317949516715453 0
0.3720982870932724 0.36356582157895123 0
0.3973397071607119 0.4150454349557804 0
0.3755144989008809 0.4187632904965927 0
0.4004338447486509 0.37338758032990554 0
0.4079953642118858 0.3564565106165181 0
0.440717226157459 0.37678373230341916 0
0.41714026073746974 0.3753439675141748 0
0.37975168962384814 0.3731311115734994 0
0.2371471777381479 0.3020235950008666 0
0.3283451012593973 0.2666188606406128 0
0.32835532363509057 0.1849654950975477 0
0.34492052047461297 0.10665019994307536 0
0.35417707494185047 0.13374547950888016 0
0.3339747489016889 0.11124788587301572 0
0.35400062769335605 0.14223667673722373 0
0.3617139706165652 0.13831624069839502 0
0.3617379035762555 0.08803577338839431 0
0.2703739149921512 0.13371385974868866 0
0.30291231123879514 0.12478143738886241 0
0.3234407579305869 0.1180037582897152 0
0.10648172298741568 0.34829513124303685 0
0.12457677789322527 0.3458585536021189 0
0.15773704077885198 0.3423724113567943 0
0.1640758836719234 0.18239557602875645 0
0.17928685723327598 0.1830888992383068 0
0.1749968169129188 0.1498890338147822 0
0.18212746890910034 0.13952771589643503 0
0.14859191500887411 0.10318280078289381 0
0.15853576030949285 0.10990814193709515 0
0.37214547445624313 0.1242372126789068 0
0.38228206540258297 0.12851059421285427 0
0.3739611766551986 0.15303652349952984 0
0.07710400222279057 0.4306310158717536 0
0.35788451243505603 0.3799147053554551 0
0.3457181884634252 0.3867835397099938 0
0.3530114821124385 0.11738810928108633 0
0.33500070475816696 0.0991991972111925 0
0.3465404194077816 0.13967625854314086 0
0.3363536199104797 0.1358088797129212 0
0.13812668259847777 0.34933079670692707 0
0.1481391589518241 0.34520473817797426 0
0.15547785901083505 0.193092442846047 0
0.1495529588521521 0.18233573152137456 0
0.16959686275564018 0.13994828319808325 0
0.1534102641045918 0.13246831590489735 0
0.14663218215619822 0.1151338918501457 0
0.13433557067150942 0.3127361538342862 0
0.13587090271785254 0.2949095588555125 0
0.3686588779842803 0.14527496962643618 0
0.21535459164541756 0.30210702463144073 0
0.10224804343298792 0.41006448337817497 0
0.36333283715101283 0.36901865539184153 0
0.34046735058158606 0.15679280386937183 0
0.20129703951219632 0.15330532591109564 0
0.15559692647858156 0.12260233571342331 0
0.14498444101602534 0.1275453989964084 0
0.3812626344217375 0.1439321008483873 0
0.37134441337862023 0.1346905189084719 0
0.34660608330623544 0.17858874663020624 0
0.3364352807809134 0.16776019984545915 0
0.3494099215623722 0.16398150672031592 0
0.18660531085797336 0.15190820351256806 0
0.19454370712780172 0.14087547685782303 0
0.5 0.09375 1
0.15625 0.0 1
0.46875 0.5 1
0.0 0.09375 1
0.34375 0.5 1
0.5 0.15625 1
0.395892792366379 0.3470656917025709 0
0.1383725301214734 0.06178877049120693 0
0.32837514941685997 0.3003909807766401 0
0.3253623164083081 0.3174805911944427 0
0.33660889290963614 0.33439739606366004 0
0.3216838016268944 0.3087841037617339 0
0.31661004357067557 0.31901245760008606 0
0.3084973656407974 0.34326529790357113 0
0.14983556526419695 0.39511831562220856 0
0.1175350757811714 0.08058490328033127 0
0.29889880989248707 0.16268353421122064 0
0.3352890376698033 0.3473267848113986 0
0.29661335630458696 0.33410613790360955 0
0.15527368534926783 0.37243195004456214 0
0.1250506318001101 0.1283342697218472 0
0.33522500978719794 0.3633347928505524 0
0.31685310728940463 0.2974650158597759 0
0.0 0.28125 1
0.13827188936988574 0.37773421554974723 0
0.14014133278841337 0.38759863515554605 0
0.4099106564264992 0.12865259594473874 0
0.40809668751206873 0.40124468813873443 0
0.16516623904500832 0.3698664667136584 0
0.15601467473971306 0.32388828148598087 0
0.3634693804095436 0.19993227026068108 0
0.17331761897701362 0.10564697967314651 0
0.3571801467949647 0.15617010875872842 0
0.3844441830650479 0.2978841809957844 0
0.32670654358745116 0.3409634952483537 0
0.16683819252390042 0.3591431938413352 0
0.11108897360418807 0.14539400835754684 0
0.0 0.40625 1
0.3422196440216308 0.11738648728276414 0
0.31234834051269056 0.3313317335290532 0
0.30379309153795214 0.3197847945286668 0
0.3181896891283046 0.3392241785271024 0
0.1632709919808604 0.23446321170690737 0
0.36767990641212056 0.17386255926092353 0
0.3716950010133355 0.16249692149240483 0
0.4232416160692509 0.1749452291492883 0
0.37074874196977603 0.4025853794251873 0
0.11192091761865505 0.3361607342595447 0
0.2942425470818871 0.2753784234383808 0
0.35691282032320315 0.17291033577301448 0
0.18008484581930848 0.35528113153247853 0
0.3615579440975755 0.1640874442533039 0
0.19371930389739667 0.3522635029138418 0
0.20361912875373486 0.36449767066711236 0
0.3535937336992746 0.12651432204973878 0
0.3891412044188023 0.1790612539107265 0
0.4103294498994235 0.4332665419132259 0
0.17941122490949324 0.1170465353642358 0
0.16752778715601432 0.1586425276755268 0
0.17227309136610122 0.1699442442561005 0
0.40267657532336765 0.1774990005625654 0
0.17787151669677886 0.15953678741976376 0
0.41136919567077096 0.1924244581994535 0
0.18843575123266848 0.3664104404585976 0
0.38533788049520207 0.4061938039698849 0
0.2839106514015572 0.30927753944475317 0
0.41958958611974817 0.41515483442565126 0
0.29246346328118156 0.3199876276195694 0
0.3488683115035069 0.3633314170641355 0
0.4215772089282034 0.3917308264390942 0
0.35428123537184036 0.36982185979668963 0

Edges
42
1 40 1
1 42 1
2 51 1
2 52 1
3 128 1
3 443 1
4 31 1
4 64 1
5 20 1
5 45 1
6 15 1
6 55 1
7 27 1
7 28 1
9 36 1
9 464 1
10 38 1
10 478 1
11 28 1
11 31 1
15 446 1
19 52 1
19 77 1
20 77 1
22 40 1
22 442 1
26 63 1
26 445 1
27 445 1
33 36 1
33 444 1
38 464 1
42 444 1
45 442 1
51 441 1
53 55 1
53 129 1
59 128 1
59 129 1
63 443 1
64 478 1
441 446 1

Triangles
978
1 40 110 0
2 51 122 0
4 225 31 0
5 20 116 0
5 304 45 0
6 55 56 0
8 81 117 0
8 101 162 0
9 36 104 0
10 38 223 0
11 32 93 0
11 99 32 0
12 173 180 0
12 273 173 0
13 66 138 0
13 151 152 0
14 68 144 0
15 139 446 0
16 76 395 0
16 80 115 0
16 115 341 0
17 71 78 0
17 78 247 0
17 247 331 0
18 252 253 0
18 253 255 0
18 257 258 0
18 258 343 0
19 52 217 0
21 153 345 0
23 268 483 0
23 350 346 0
24 85 489 0
24 86 163 0
24 137 86 0
24 163 506 0
25 454 272 0
28 11 93 0
28 91 7 0
28 93 91 0
29 223 107 0
29 375 123 0
30 177 183 0
30 374 177 0
30 466 176 0
32 172 93 0
33 201 36 0
34 108 204 0
35 109 200 0
35 201 109 0
36 35 104 0
37 9 104 0
37 104 298 0
37 198 464 0
37 464 9 0
38 464 198 0
39 108 109 0
39 109 201 0
39 202 205 0
40 22 44 0
40 44 110 0
41 42 110 0
41 44 303 0
41 202 444 0
41 206 202 0
42 1 110 0
43 44 112 0
43 112 448 0
43 303 44 0
43 448 456 0
44 22 112 0
44 41 110 0
45 208 442 0
46 113 208 0
46 208 304 0
47 260 341 0
48 221 369 0
48 250 334 0
48 334 220 0
48 369 370 0
49 6 56 0
49 15 6 0
49 139 15 0
50 119 276 0
50 120 308 0
50 121 171 0
53 129 231 0
54 124 383 0
54 383 384 0
54 384 382 0
55 53 124 0
55 124 228 0
57 70 228 0
57 239 474 0
58 126 497 0
58 497 507 0
60 130 380 0
60 131 322 0
60 314 131 0
61 132 320 0
61 233 323 0
61 323 132 0
62 27 7 0
62 322 27 0
63 26 126 0
63 126 235 0
65 89 450 0
65 135 326 0
66 13 71 0
66 71 145 0
66 72 144 0
67 118 372 0
67 372 486 0
68 14 243 0
68 69 387 0
68 387 144 0
69 68 227 0
69 227 325 0
69 237 241 0
69 241 387 0
70 57 474 0
70 142 56 0
71 17 145 0
72 14 144 0
72 66 145 0
72 145 388 0
72 328 14 0
73 79 395 0
73 247 153 0
73 256 331 0
74 251 392 0
75 145 17 0
75 331 457 0
76 16 212 0
76 147 339 0
76 212 396 0
76 339 395 0
77 19 150 0
77 150 149 0
78 71 152 0
78 153 247 0
79 21 267 0
79 73 153 0
79 153 21 0
80 154 156 0
81 8 162 0
81 162 483 0
82 157 268 0
82 268 348 0
83 23 346 0
83 264 344 0
83 344 348 0
83 346 264 0
84 24 506 0
85 13 138 0
85 24 84 0
85 84 373 0
85 138 489 0
87 164 509 0
87 165 271 0
88 25 320 0
88 166 459 0
88 168 25 0
89 65 451 0
89 451 475 0
89 475 482 0
90 7 91 0
90 62 7 0
91 92 90 0
93 274 91 0
94 173 175 0
94 180 173 0
94 455 181 0
95 176 455 0
96 428 375 0
97 29 107 0
97 107 300 0
97 224 29 0
97 353 224 0
98 213 236 0
99 11 31 0
99 410 310 0
100 34 204 0
100 289 461 0
101 8 194 0
101 192 270 0
101 352 162 0
102 103 361 0
102 187 293 0
102 190 191 0
103 102 293 0
103 188 189 0
103 189 351 0
104 35 193 0
105 192 193 0
105 193 200 0
106 37 298 0
106 198 37 0
107 195 300 0
107 198 199 0
108 34 297 0
108 39 205 0
109 108 297 0
111 203 359 0
111 204 205 0
111 205 206 0
111 206 303 0
112 208 448 0
113 46 114 0
113 114 207 0
113 290 448 0
114 46 211 0
114 209 266 0
114 266 472 0
115 47 341 0
115 365 116 0
116 20 149 0
116 47 115 0
117 81 157 0
117 157 216 0
118 67 307 0
118 467 372 0
119 12 494 0
119 50 171 0
119 170 273 0
120 50 276 0
120 276 355 0
121 50 308 0
121 308 166 0
122 52 2 0
123 309 478 0
123 478 10 0
124 53 231 0
125 57 226 0
125 376 311 0
125 447 376 0
126 26 131 0
126 58 235 0
126 314 497 0
127 229 315 0
127 315 468 0
127 379 505 0
128 3 443 0
129 134 231 0
130 60 133 0
130 233 319 0
131 314 126 0
131 445 322 0
132 62 90 0
134 129 59 0
135 65 450 0
135 237 326 0
135 450 452 0
136 165 238 0
136 271 165 0
137 24 489 0
137 138 387 0
137 241 463 0
137 463 86 0
138 66 144 0
138 137 489 0
138 144 387 0
139 49 141 0
139 140 446 0
139 141 486 0
141 49 142 0
141 143 503 0
142 49 56 0
143 141 142 0
143 142 243 0
143 243 244 0
143 245 503 0
145 254 388 0
146 75 457 0
146 254 75 0
147 76 396 0
147 256 339 0
148 149 150 0
148 334 394 0
149 20 77 0
149 47 116 0
149 148 259 0
149 259 47 0
150 19 217 0
150 217 334 0
151 13 85 0
152 71 13 0
153 78 263 0
153 263 345 0
154 80 16 0
154 267 156 0
154 395 79 0
156 155 210 0
156 210 80 0
156 267 287 0
156 287 155 0
157 81 268 0
157 82 158 0
158 82 159 0
158 159 213 0
158 213 215 0
159 82 160 0
160 82 348 0
160 151 373 0
160 348 151 0
160 386 427 0
160 427 159 0
161 269 352 0
161 351 420 0
162 23 483 0
163 86 167 0
163 167 481 0
163 481 508 0
164 87 271 0
164 271 324 0
164 324 378 0
164 429 511 0
165 87 458 0
166 84 506 0
166 88 121 0
166 308 84 0
167 86 463 0
167 452 453 0
167 453 481 0
168 88 459 0
169 121 88 0
169 132 170 0
169 170 171 0
169 171 121 0
169 320 132 0
170 90 273 0
170 119 171 0
170 132 90 0
172 95 174 0
172 174 274 0
172 310 184 0
173 92 175 0
174 175 274 0
174 455 94 0
175 92 274 0
175 174 94 0
177 275 183 0
178 179 400 0
178 277 179 0
178 470 214 0
179 277 354 0
179 279 400 0
179 354 491 0
180 94 181 0
180 504 12 0
181 455 182 0
181 460 469 0
181 469 180 0
182 455 466 0
182 460 181 0
183 465 30 0
184 95 172 0
184 281 95 0
185 288 295 0
185 360 433 0
186 203 456 0
187 34 477 0
187 102 191 0
187 191 297 0
188 103 293 0
188 293 295 0
188 294 296 0
189 188 296 0
190 102 361 0
190 105 191 0
190 192 105 0
191 105 200 0
191 200 297 0
192 101 194 0
192 190 270 0
192 194 298 0
193 35 200 0
193 192 298 0
194 8 299 0
195 301 300 0
196 302 301 0
196 425 424 0
197 195 199 0
197 196 195 0
198 107 223 0
198 223 38 0
199 106 197 0
199 195 107 0
199 198 106 0
200 109 297 0
201 35 36 0
202 33 444 0
202 39 201 0
202 201 33 0
203 111 303 0
203 303 456 0
204 108 205 0
204 111 359 0
205 202 206 0
206 41 303 0
207 114 472 0
208 45 304 0
208 112 442 0
208 113 448 0
209 114 211 0
209 155 266 0
210 155 209 0
211 46 304 0
211 210 209 0
211 304 365 0
211 365 210 0
212 16 341 0
212 260 340 0
212 340 396 0
213 98 214 0
213 214 215 0
214 277 178 0
215 214 368 0
216 157 158 0
216 158 215 0
217 52 122 0
217 220 334 0
218 122 51 0
218 217 122 0
218 219 220 0
218 220 217 0
219 218 140 0
219 467 221 0
220 221 48 0
221 220 219 0
222 469 476 0
223 29 123 0
223 123 10 0
224 353 96 0
225 4 64 0
225 64 309 0
225 99 31 0
227 70 474 0
227 243 70 0
228 54 226 0
228 56 55 0
228 70 56 0
228 124 54 0
228 226 57 0
229 127 313 0
229 312 381 0
230 58 507 0
230 134 58 0
230 507 510 0
231 134 230 0
232 313 487 0
232 411 317 0
233 61 318 0
233 130 133 0
233 133 323 0
233 318 412 0
234 25 272 0
234 61 320 0
234 272 462 0
234 318 61 0
235 58 134 0
235 59 128 0
235 134 59 0
235 443 63 0
236 213 159 0
237 69 325 0
237 135 449 0
237 325 326 0
238 326 240 0
238 451 65 0
239 57 125 0
239 240 325 0
239 325 474 0
240 136 238 0
240 239 311 0
240 311 136 0
241 137 387 0
241 449 463 0
242 246 496 0
242 327 484 0
243 142 70 0
243 227 68 0
244 14 471 0
244 243 14 0
244 245 143 0
245 244 327 0
245 327 496 0
245 496 501 0
245 501 503 0
246 67 501 0
246 330 307 0
247 73 331 0
248 409 485 0
248 473 74 0
249 390 495 0
249 407 435 0
250 333 336 0
250 336 394 0
250 370 333 0
251 430 337 0
251 473 438 0
252 18 343 0
252 343 416 0
253 252 337 0
253 337 430 0
253 430 437 0
254 145 75 0
254 146 338 0
255 146 257 0
255 338 146 0
256 73 339 0
256 147 257 0
257 18 255 0
257 147 258 0
257 457 256 0
258 147 396 0
258 342 343 0
259 148 335 0
259 335 414 0
260 47 259 0
260 212 341 0
261 259 414 0
261 260 259 0
261 391 397 0
261 397 340 0
262 391 479 0
262 397 391 0
263 78 152 0
264 349 265 0
266 155 358 0
266 358 498 0
267 154 79 0
268 23 83 0
268 81 483 0
269 23 162 0
269 161 419 0
269 162 352 0
269 350 23 0
270 161 352 0
270 190 361 0
271 136 311 0
272 454 482 0
272 458 462 0
273 12 119 0
273 90 92 0
273 92 173 0
274 92 91 0
274 93 172 0
275 177 353 0
276 119 494 0
277 98 355 0
277 214 98 0
278 279 476 0
278 357 279 0
279 179 476 0
280 183 275 0
280 275 399 0
280 356 183 0
280 417 357 0
281 176 95 0
283 282 362 0
284 402 500 0
284 431 265 0
284 439 431 0
285 283 422 0
285 364 286 0
285 421 283 0
286 364 498 0
286 404 421 0
286 421 285 0
287 267 347 0
287 358 155 0
288 294 295 0
288 422 283 0
288 433 422 0
289 100 359 0
289 186 291 0
289 291 360 0
289 359 186 0
289 360 461 0
290 113 207 0
290 186 456 0
290 291 186 0
291 290 405 0
291 405 423 0
292 185 295 0
292 293 477 0
292 461 185 0
293 187 477 0
293 292 295 0
294 188 295 0
294 288 283 0
296 294 362 0
296 362 363 0
297 34 187 0
298 104 193 0
298 299 106 0
299 8 117 0
299 197 106 0
299 298 194 0
300 301 488 0
300 398 97 0
300 488 398 0
301 195 196 0
301 302 488 0
302 305 367 0
302 399 488 0
302 424 305 0
303 43 456 0
305 368 470 0
305 424 368 0
306 178 400 0
306 305 470 0
307 67 246 0
307 371 118 0
307 434 371 0
308 120 386 0
308 386 84 0
309 123 375 0
309 375 410 0
309 410 225 0
310 32 99 0
310 172 32 0
310 410 428 0
310 428 184 0
311 239 125 0
311 324 271 0
312 229 316 0
312 316 385 0
312 377 381 0
313 127 505 0
314 60 380 0
314 379 497 0
315 229 381 0
315 381 384 0
315 510 468 0
316 229 313 0
316 232 317 0
316 313 232 0
316 317 385 0
318 462 321 0
319 233 412 0
319 412 411 0
319 487 130 0
320 25 234 0
320 169 88 0
321 411 412 0
321 412 318 0
321 462 509 0
321 509 511 0
322 133 60 0
322 323 133 0
323 62 132 0
323 322 62 0
324 311 376 0
325 227 474 0
325 240 326 0
326 238 65 0
327 242 496 0
327 329 484 0
328 72 388 0
328 436 329 0
329 327 471 0
329 436 490 0
330 242 485 0
330 246 242 0
331 75 17 0
331 256 457 0
332 262 479 0
332 390 415 0
332 413 495 0
332 416 262 0
333 249 413 0
333 370 407 0
333 407 249 0
334 148 150 0
334 250 394 0
335 389 414 0
336 333 413 0
336 389 335 0
338 253 437 0
338 255 253 0
338 388 254 0
339 73 395 0
340 260 261 0
342 340 397 0
342 396 340 0
343 262 416 0
343 397 262 0
344 152 151 0
344 263 152 0
344 264 263 0
345 263 264 0
345 264 265 0
345 347 21 0
346 349 264 0
347 267 21 0
347 345 265 0
348 268 83 0
348 344 151 0
349 284 265 0
349 402 284 0
350 269 419 0
351 161 270 0
351 189 420 0
351 361 103 0
352 101 270 0
353 97 398 0
353 177 96 0
353 398 275 0
354 277 355 0
355 98 236 0
355 236 120 0
355 493 354 0
356 182 465 0
356 278 460 0
356 357 278 0
357 356 280 0
357 418 279 0
358 286 498 0
358 287 440 0
358 404 286 0
358 440 404 0
359 100 204 0
359 203 186 0
360 185 461 0
360 291 423 0
361 351 270 0
362 294 283 0
362 499 363 0
363 189 296 0
363 420 189 0
363 499 500 0
364 285 432 0
364 406 472 0
364 472 498 0
365 5 116 0
365 80 210 0
365 115 80 0
365 304 5 0
366 196 197 0
366 197 299 0
366 299 117 0
367 305 306 0
367 399 302 0
368 214 470 0
368 216 215 0
368 425 216 0
369 221 467 0
369 371 408 0
370 250 48 0
370 369 408 0
370 408 407 0
371 467 118 0
372 139 486 0
372 140 139 0
372 219 140 0
372 467 219 0
373 151 85 0
373 386 160 0
374 30 176 0
374 96 177 0
374 176 281 0
374 281 428 0
375 29 224 0
375 224 96 0
376 377 378 0
377 376 447 0
377 385 378 0
377 447 382 0
378 317 429 0
378 324 376 0
378 385 317 0
379 127 468 0
379 380 505 0
379 468 507 0
380 130 487 0
380 379 314 0
380 487 505 0
381 377 382 0
382 226 54 0
383 124 231 0
383 231 230 0
383 510 384 0
384 381 382 0
385 377 312 0
386 373 84 0
388 338 437 0
389 336 413 0
389 391 414 0
389 413 479 0
390 249 393 0
390 332 495 0
390 392 415 0
391 261 414 0
391 389 479 0
392 251 415 0
392 390 393 0
392 393 74 0
393 249 435 0
394 335 148 0
394 336 335 0
395 154 16 0
396 342 258 0
397 343 342 0
398 399 275 0
401 350 419 0
401 363 500 0
401 402 350 0
401 419 420 0
402 346 350 0
402 349 346 0
402 401 500 0
403 404 439 0
403 421 404 0
403 439 502 0
403 499 282 0
403 502 499 0
404 440 439 0
405 290 207 0
405 406 423 0
406 207 472 0
406 364 432 0
406 405 207 0
408 371 434 0
408 434 435 0
409 330 485 0
409 426 434 0
409 434 330 0
410 99 225 0
410 375 428 0
411 232 319 0
411 321 511 0
413 249 495 0
413 332 479 0
415 251 337 0
416 332 415 0
416 337 252 0
416 415 337 0
417 280 399 0
417 399 367 0
417 418 357 0
418 306 400 0
418 367 306 0
418 400 279 0
418 417 367 0
419 161 420 0
420 363 401 0
421 282 283 0
421 403 282 0
422 432 285 0
423 432 433 0
424 302 196 0
424 425 368 0
425 117 216 0
425 196 366 0
425 366 117 0
426 74 393 0
426 248 74 0
426 409 248 0
427 120 236 0
427 236 159 0
427 386 120 0
428 96 374 0
428 281 184 0
429 164 378 0
429 317 411 0
429 411 511 0
430 251 438 0
431 287 347 0
431 347 265 0
432 422 433 0
432 423 406 0
433 288 185 0
433 360 423 0
434 307 330 0
435 407 408 0
435 426 393 0
435 434 426 0
436 328 388 0
436 388 437 0
437 430 438 0
438 436 437 0
438 473 492 0
438 490 436 0
439 284 502 0
440 287 431 0
440 431 439 0
441 140 218 0
441 218 51 0
441 446 140 0
442 112 22 0
443 235 128 0
444 42 41 0
445 27 322 0
445 131 26 0
447 125 226 0
447 226 382 0
448 290 456 0
449 135 452 0
449 241 237 0
449 452 463 0
450 89 453 0
451 165 458 0
451 238 165 0
451 458 475 0
452 167 463 0
452 450 453 0
453 89 480 0
453 480 481 0
454 25 168 0
454 459 480 0
454 480 482 0
455 174 95 0
455 176 466 0
457 257 146 0
458 87 462 0
458 272 475 0
459 166 508 0
459 454 168 0
460 182 356 0
461 292 100 0
462 87 509 0
462 318 234 0
465 182 466 0
465 183 356 0
466 30 465 0
467 371 369 0
469 222 180 0
469 278 476 0
469 460 278 0
470 178 306 0
471 14 328 0
471 327 244 0
471 328 329 0
472 266 498 0
473 248 492 0
473 251 74 0
475 272 482 0
476 179 491 0
477 34 100 0
477 100 292 0
478 309 64 0
480 89 482 0
480 459 481 0
481 459 508 0
484 329 490 0
485 242 484 0
485 484 492 0
486 141 503 0
486 501 67 0
487 313 505 0
487 319 232 0
488 399 398 0
491 222 476 0
491 354 493 0
492 248 485 0
492 484 490 0
492 490 438 0
493 276 494 0
493 355 276 0
493 494 504 0
494 12 504 0
496 246 501 0
497 379 507 0
499 362 282 0
500 499 502 0
501 486 503 0
502 284 500 0
504 180 222 0
504 222 491 0
504 491 493 0
506 508 166 0
507 468 510 0
508 506 163 0
509 164 511 0
510 315 384 0
510 383 230 0

End
