MeshVersionFormatted 1

Dimension
2

Vertices
156
0.0 0.0 1
0.5 0.0 1
0.5 0.5 1
0.0 0.5 1
0.25 0.0 1
0.5 0.25 1
0.25 0.5 1
0.11643279949825759 0.2325999884748521 0
0.0 0.25 1
0.0 0.375 1
0.125 0.5 1
0.22359198705324201 0.3718795130811254 0
0.3901252613009785 0.35536282170673417 0
0.293095889339903 0.24348929550443746 0
0.20050882165748227 0.27024301897074315 0
0.2522010592443164 0.33499878289772556 0
0.31916023242680563 0.32215903595435713 0
0.3343753191344055 0.23241632570759002 0
0.5 0.125 1
0.5 0.1875 1
0.23810375593039507 0.11771983772693288 0
0.30309271739118265 0.20100258228515677 0
0.3418000039845155 0.13005450887212155 0
0.375 0.0 1
0.3125 0.0 1
0.2543099554916845 0.21384119010037891 0
0.125 0.0 1
0.1770285102723768 0.05151890260599232 0
0.21174093350670514 0.22838329885128478 0
0.2825931462561706 0.2906957902367585 0
0.31839421683477476 0.35622767824336676 0
0.375 0.5 1
0.27993684166395966 0.37482543594823475 0
0.1875 0.5 1
0.2253038288016943 0.43173512964416305 0
0.15005461825294927 0.4452028266247349 0
0.04249483608440438 0.3918263036954729 0
0.1290553558024949 0.39046138618476073 0
0.0625 0.5 1
0.0 0.125 1
0.12403528843137382 0.15252021447013978 0
0.11693848007250571 0.19274493009432064 0
0.051349948147097355 0.3017028264043273 0
0.04345183867741757 0.3414304226925745 0
0.0 0.3125 1
0.06791502472588226 0.18839829694138638 0
0.0625 0.0 1
0.051992198099965865 0.07578949996575708 0
0.0 0.0625 1
0.10670283382168158 0.04377844901188252 0
0.1875 0.0 1
0.14736527740614813 0.0330917432054252 0
0.2770140324920103 0.07593339907823518 0
0.1682979993304936 0.24335369283055797 0
0.4505917276534186 0.08405922987760392 0
0.44977357065719265 0.13458972349113185 0
0.37551619021750066 0.09515389389418763 0
0.21128059378163275 0.3326462052653524 0
0.5 0.0625 1
0.4375 0.0 1
0.5 0.375 1
0.5 0.3125 1
0.4317940917281543 0.2798837844247434 0
0.3912506448762132 0.3023166822087128 0
0.4221803969124833 0.4437114875712326 0
0.454339755335224 0.3810071685153974 0
0.5 0.4375 1
0.3729148441580242 0.43392648944315737 0
0.31308681872828686 0.38326670589350403 0
0.31346383810079015 0.42480328952722707 0
0.4375 0.5 1
0.0 0.4375 1
0.25010854333029514 0.25668445393201733 0
0.36473160311376085 0.31887523906014464 0
0.31082330187282453 0.28448017943462933 0
0.42820546712125485 0.2164285561213436 0
0.30621812258071296 0.15544232161430055 0
0.285388431764862 0.12288059321757523 0
0.3488750090256561 0.0593624231223822 0
0.21256047357467125 0.05944003457886114 0
0.33827133462996894 0.3706113115803768 0
0.2910296975606475 0.3333068156889258 0
0.17600194957443666 0.39587742156050526 0
0.08923113015631706 0.36753557219652006 0
0.16897378316189507 0.28246888465955483 0
0.1845142135813544 0.3602500984750153 0
0.12806253025590622 0.3573302433502066 0
0.08277125403680347 0.4328217032973575 0
0.17084644974212873 0.08934447334031508 0
0.12338056607770932 0.12128998791698649 0
0.13549448337395445 0.17607801769290016 0
0.07134865473326887 0.24874143776626068 0
0.08221335420469313 0.3251913400948731 0
0.08205441979481577 0.1312043298176183 0
0.10950399948647462 0.09054353161959136 0
0.44109143222390645 0.1717072610702559 0
0.39502149244218404 0.05358138545004049 0
0.4236530954995058 0.33162829212453787 0
0.38807557614843446 0.3267196801167057 0
0.40160868567230007 0.39681645722925907 0
0.3607703191171982 0.3958829996006044 0
0.23634935811688773 0.2977596089788231 0
0.3691705451867425 0.3439198729904966 0
0.3485500416272209 0.28276754343986726 0
0.3851496518825524 0.24782274946408564 0
0.3724363642942824 0.1737327399614917 0
0.35972927161008067 0.16074429956297565 0
0.37873674001188473 0.13099424581661165 0
0.3726095429802798 0.20058400704311705 0
0.3372345979865179 0.18669504526978328 0
0.3213456800183972 0.13654754201345903 0
0.26102546979963603 0.1651861530141198 0
0.32552452141611643 0.10737178092272984 0
0.35429866344097555 0.11014678928837798 0
0.2200465103550538 0.19082690872189398 0
0.21613349007077348 0.1479096127444401 0
0.1805926301315899 0.20389130801824304 0
0.14301034194985313 0.19986365078234702 0
0.11172189319024561 0.32423766852043967 0
0.16671113887954178 0.31295517222308333 0
0.19158392888246564 0.30401246044060587 0
0.15564646372625135 0.3455495495260649 0
0.19621666741452096 0.16966385378621093 0
0.1889404156986979 0.12316159987975721 0
0.14359687881771915 0.136653659734197 0
0.1523665540019247 0.1553932607649326 0
0.16304811015959655 0.17650778651678772 0
0.10040015900939991 0.28592954392381453 0
0.14306506092991592 0.0918642782346171 0
0.13637339715207733 0.2996346494104635 0
0.40328388899658957 0.17794714684185725 0
0.4112657249966758 0.3672356728438228 0
0.35805560411633797 0.3696321226431972 0
0.3647786150006736 0.1502437528524276 0
0.40869431593573796 0.14196486307053918 0
0.36131000308558087 0.17498066559389466 0
0.36042408450163393 0.13401383928562405 0
0.18058574324966242 0.33017582672323764 0
0.1401273362290433 0.32513701280296525 0
0.18682811879769698 0.14812056523468298 0
0.16316173998330388 0.14475015457566873 0
0.13685549824269846 0.2693059481770409 0
0.3821581046708679 0.3693059427865513 0
0.3366728096261386 0.39232730810857847 0
0.3543272220544238 0.14952590155633255 0
0.38409947787235904 0.15510194801541105 0
0.40712633706185786 0.10889587590640977 0
0.34263733665261653 0.15349312953336092 0
0.30441386855425073 0.3095764438847981 0
0.34552537662937327 0.33169400234016316 0
0.3304690861607112 0.30226262156444195 0
0.3480194188763125 0.35632592054548284 0
0.34455743176423886 0.30992036954844565 0
0.15608697870568883 0.11561621735293585 0
0.1539719213925285 0.36382478943554186 0
0.14551599894149467 0.06534462309973918 0

Edges
30
1 47 1
1 49 1
2 59 1
2 60 1
3 67 1
3 71 1
4 39 1
4 72 1
5 25 1
5 51 1
6 20 1
6 62 1
7 32 1
7 34 1
9 40 1
9 45 1
10 45 1
10 72 1
11 34 1
11 39 1
19 20 1
19 59 1
24 25 1
24 60 1
27 47 1
27 51 1
32 71 1
40 49 1
61 62 1
61 67 1

Triangles
280
3 71 67 0
5 25 53 0
5 53 80 0
5 80 51 0
6 62 63 0
6 76 20 0
7 34 35 0
7 35 70 0
8 42 118 0
8 46 42 0
8 128 92 0
9 40 46 0
10 44 37 0
11 39 88 0
11 88 36 0
12 16 33 0
12 33 35 0
12 35 83 0
12 83 86 0
14 18 75 0
15 29 73 0
15 73 102 0
15 121 85 0
16 12 58 0
16 30 82 0
16 58 102 0
17 31 82 0
17 82 149 0
17 151 153 0
18 14 22 0
18 22 110 0
18 104 75 0
20 56 19 0
21 53 78 0
21 78 112 0
21 124 80 0
22 14 26 0
22 26 112 0
22 77 110 0
23 137 145 0
24 60 97 0
24 79 25 0
24 97 79 0
26 14 73 0
27 51 52 0
28 52 51 0
29 15 54 0
29 26 73 0
29 115 26 0
30 14 75 0
30 16 102 0
30 73 14 0
30 75 149 0
31 17 150 0
31 150 152 0
32 7 70 0
33 69 70 0
33 70 35 0
34 11 36 0
35 34 36 0
35 36 83 0
36 38 83 0
37 44 84 0
38 36 88 0
38 84 87 0
38 87 155 0
40 48 94 0
41 46 94 0
41 126 91 0
42 91 118 0
43 9 92 0
43 44 45 0
43 45 9 0
43 93 44 0
44 10 45 0
46 8 92 0
46 40 94 0
46 41 42 0
47 27 50 0
47 49 1 0
47 50 48 0
48 95 94 0
49 47 48 0
49 48 40 0
50 27 52 0
50 52 156 0
52 28 156 0
53 113 78 0
54 15 85 0
55 56 147 0
55 59 19 0
56 55 19 0
56 96 135 0
56 135 147 0
57 114 79 0
58 86 138 0
59 60 2 0
60 55 97 0
60 59 55 0
62 61 66 0
62 66 98 0
63 76 6 0
63 98 64 0
64 74 104 0
64 98 99 0
64 105 63 0
65 32 68 0
65 66 67 0
65 68 100 0
65 71 32 0
66 65 100 0
66 132 98 0
67 66 61 0
68 32 70 0
68 144 101 0
69 33 31 0
69 81 144 0
71 65 67 0
72 10 37 0
72 39 4 0
73 30 102 0
74 64 99 0
74 99 103 0
75 104 151 0
76 63 105 0
76 131 96 0
77 22 112 0
78 77 112 0
78 111 77 0
79 53 25 0
79 113 53 0
80 28 51 0
80 53 21 0
81 31 152 0
81 69 31 0
81 133 144 0
82 30 149 0
82 31 33 0
82 33 16 0
83 38 155 0
84 44 93 0
84 88 37 0
84 93 119 0
85 142 54 0
86 58 12 0
86 83 155 0
86 122 138 0
87 84 119 0
87 119 139 0
87 122 155 0
88 39 72 0
88 72 37 0
88 84 38 0
89 28 80 0
89 156 28 0
90 94 95 0
90 95 129 0
90 129 154 0
91 42 41 0
92 9 46 0
92 128 43 0
93 43 128 0
94 90 41 0
95 48 50 0
95 50 156 0
96 20 76 0
96 56 20 0
97 57 79 0
97 147 57 0
98 13 99 0
98 63 62 0
99 13 103 0
100 68 101 0
100 143 132 0
101 133 143 0
102 58 121 0
103 143 133 0
103 150 74 0
104 18 105 0
104 74 153 0
105 64 104 0
105 109 76 0
106 136 107 0
107 146 106 0
107 148 145 0
108 114 57 0
108 134 137 0
108 147 135 0
109 18 110 0
109 105 18 0
109 110 136 0
109 131 76 0
110 77 148 0
111 113 23 0
111 148 77 0
112 26 115 0
112 116 21 0
113 79 114 0
113 111 78 0
114 23 113 0
114 108 137 0
115 29 117 0
115 116 112 0
115 123 116 0
116 140 124 0
117 29 54 0
117 54 118 0
117 123 115 0
117 127 123 0
118 54 8 0
120 121 138 0
120 130 85 0
121 15 102 0
121 58 138 0
121 120 85 0
122 86 155 0
122 87 139 0
122 120 138 0
123 127 140 0
124 21 116 0
124 89 80 0
124 154 89 0
125 41 90 0
125 154 141 0
126 41 125 0
126 127 91 0
127 117 118 0
127 118 91 0
127 141 140 0
128 8 142 0
128 119 93 0
128 130 119 0
129 89 154 0
129 95 156 0
130 120 139 0
130 128 142 0
130 139 119 0
130 142 85 0
131 109 106 0
131 135 96 0
132 13 98 0
132 66 100 0
133 101 144 0
133 152 103 0
134 107 145 0
134 108 146 0
135 146 108 0
136 106 109 0
136 110 148 0
136 148 107 0
137 23 114 0
137 134 145 0
139 120 122 0
140 116 123 0
140 141 124 0
141 126 125 0
141 127 126 0
142 8 54 0
143 13 132 0
143 100 101 0
143 103 13 0
144 68 70 0
144 70 69 0
146 107 134 0
146 131 106 0
146 135 131 0
147 97 55 0
147 108 57 0
148 23 145 0
148 111 23 0
149 75 151 0
150 103 152 0
150 153 74 0
151 17 149 0
151 104 153 0
152 133 81 0
153 150 17 0
154 124 141 0
154 125 90 0
156 89 129 0

End
