MeshVersionFormatted 1

Dimension
2

Vertices
77
0.0 0.0 1
0.5 0.0 1
0.5 0.5 1
0.0 0.5 1
0.25 0.0 1
0.5 0.25 1
0.25 0.5 1
0.0 0.25 1
0.0 0.375 1
0.125 0.5 1
0.2854766188616104 0.4240907826556518 0
0.1890083942412969 0.24205862556135502 0
0.31053842694493405 0.25813107475563046 0
0.5 0.1875 1
0.2818141251146346 0.19019088625688177 0
0.375 0.0 1
0.21502232146341235 0.1553494705185498 0
0.125 0.0 1
0.2825874977256933 0.061616417812684614 0
0.375 0.5 1
0.0 0.1875 1
0.0625 0.0 1
0.0 0.0625 1
0.5 0.0625 1
0.4375 0.0 1
0.5 0.3125 1
0.5 0.4375 1
0.2016257423391896 0.0895101008528695 0
0.4268470443685413 0.09194081317876913 0
0.2242355166475535 0.36981103788141234 0
0.42604052083956434 0.21241433308504543 0
0.29425212995128036 0.3495530543641842 0
0.16374004959446226 0.37085769718552447 0
0.3728062181069765 0.25650144307981854 0
0.3466410346089031 0.3813863135959199 0
0.4375 0.5 1
0.29948944537140576 0.1314037522270083 0
0.0755047281105613 0.2537201054538449 0
0.04923371673607511 0.43776973628337046 0
0.3125 0.0 1
0.18870658045929142 0.18787874655613948 0
0.43176868067168556 0.2895565233307871 0
0.11513353923282328 0.088663083227401 0
0.22919670484368168 0.2158164192452069 0
0.38215873422412655 0.15738285037368135 0
0.17760687656636573 0.33491660540540985 0
0.12061156510552867 0.20900394968170324 0
0.3519816473577777 0.20008605964711168 0
0.41772607144473534 0.43469786707625313 0
0.37132256045120643 0.29858706197936585 0
0.40676740967249797 0.3865298630889816 0
0.2274946223202477 0.2934846356287892 0
0.35304443077103553 0.05389751793371013 0
0.07321566282628449 0.31117250675489494 0
0.1691178341718959 0.14403880756425944 0
0.07024831678711267 0.15265607355267646 0
0.44259147197273824 0.3676528892700442 0
0.3882864766644276 0.35207240346151436 0
0.19859697771488016 0.43005144561618036 0
0.15783218484685346 0.23025976713602023 0
0.11231141063185407 0.4232327055160157 0
0.24582256690409854 0.1180783630985282 0
0.3302607434591144 0.1523128835742478 0
0.3400647605079155 0.3223108154591332 0
0.38452097163218685 0.405548805812135 0
0.3627257257435958 0.43018446331407717 0
0.04547137445288965 0.2975257966491568 0
0.125134096397017 0.3250960879491273 0
0.14090640931092965 0.2684593128472219 0
0.15057893060782596 0.1880781319476433 0
0.34169764887784093 0.10147756479492215 0
0.07230632230768187 0.375611412333762 0
0.12493474086805476 0.15166349326293915 0
0.5 0.375 1
0.0 0.4375 1
0.0 0.3125 1
0.040364225559999745 0.34293478708544617 0

Edges
26
1 22 1
1 23 1
2 24 1
2 25 1
3 27 1
3 36 1
4 10 1
4 75 1
5 18 1
5 40 1
6 14 1
6 26 1
7 10 1
7 20 1
8 21 1
8 76 1
9 75 1
9 76 1
14 24 1
16 25 1
16 40 1
18 22 1
20 36 1
21 23 1
26 74 1
27 74 1

Triangles
126
4 39 10 0
5 19 28 0
6 26 42 0
6 31 14 0
7 10 59 0
8 38 67 0
9 72 39 0
9 76 77 0
10 39 61 0
11 30 32 0
11 35 66 0
11 59 30 0
12 41 44 0
13 32 52 0
13 48 34 0
13 64 32 0
15 13 44 0
15 17 62 0
15 37 63 0
16 25 29 0
16 29 53 0
17 15 44 0
17 55 28 0
18 28 43 0
18 43 22 0
19 37 62 0
19 71 37 0
20 7 11 0
20 11 66 0
21 38 8 0
23 1 22 0
23 56 21 0
24 25 2 0
25 24 29 0
26 57 42 0
27 36 49 0
28 18 5 0
28 62 17 0
29 24 14 0
29 31 45 0
29 71 53 0
30 33 46 0
30 52 32 0
31 29 14 0
31 42 34 0
33 30 59 0
33 59 61 0
33 61 72 0
34 42 50 0
34 48 31 0
35 11 32 0
35 32 64 0
35 65 66 0
36 27 3 0
37 15 62 0
38 21 56 0
38 54 67 0
38 69 54 0
39 75 9 0
40 19 5 0
41 60 70 0
42 31 6 0
42 58 50 0
43 23 22 0
43 28 55 0
44 41 17 0
44 52 12 0
45 31 48 0
45 48 63 0
45 63 71 0
46 33 68 0
46 52 30 0
46 68 69 0
47 38 56 0
47 56 73 0
47 70 60 0
48 13 15 0
48 15 63 0
49 20 66 0
49 36 20 0
49 51 57 0
49 65 51 0
50 13 34 0
50 58 64 0
52 44 13 0
52 69 12 0
53 19 40 0
53 40 16 0
54 68 72 0
54 72 77 0
55 17 41 0
55 41 70 0
55 73 43 0
56 23 43 0
56 43 73 0
57 27 49 0
57 51 58 0
57 74 27 0
58 35 64 0
58 42 57 0
58 65 35 0
59 10 61 0
59 11 7 0
60 41 12 0
60 69 47 0
61 39 72 0
62 28 19 0
63 37 71 0
64 13 50 0
65 49 66 0
65 58 51 0
67 54 77 0
67 76 8 0
68 33 72 0
68 54 69 0
69 38 47 0
69 52 46 0
69 60 12 0
70 47 73 0
71 19 53 0
71 29 45 0
72 9 77 0
73 55 70 0
74 57 26 0
75 39 4 0
76 67 77 0

End
