MeshVersionFormatted 1

Dimension
2

Vertices
1003
0.0 0.0 1
0.5 0.0 1
0.5 0.5 1
0.0 0.5 1
0.25 0.0 1
0.5 0.25 1
0.25 0.5 1
0.11676662855793023 0.25017998632665733 0
0.0 0.25 1
0.0 0.375 1
0.125 0.5 1
0.19491735894691845 0.38450418634649586 0
0.36625029087400707 0.3707391469449323 0
0.25658041740275966 0.2662079846697902 0
0.19770059331600448 0.2980586584389446 0
0.2603282491791442 0.34740402676826493 0
0.319765365558467 0.31542238423113367 0
0.3952049680455728 0.17544296106200338 0
0.3438469328450232 0.22637151744908832 0
0.4273804452653348 0.2683501179097507 0
0.4079959767967445 0.2260430108893565 0
0.5 0.125 1
0.5 0.1875 1
0.4339328462906937 0.18146698514038237 0
0.37744517767836805 0.2783853142670688 0
0.26406577672395254 0.12733224059101164 0
0.27919739240802866 0.1914692973806899 0
0.3228877502690883 0.13858502515263424 0
0.375 0.0 1
0.3125 0.0 1
0.3513805247153013 0.06963752830296967 0
0.22984553305075003 0.21644749409078246 0
0.125 0.0 1
0.18259126538930473 0.09574213444933641 0
0.17883379282111497 0.22987712595565812 0
0.2658494309873793 0.2969675525208524 0
0.30396154611027326 0.35183566448620235 0
0.2697101128499597 0.43083387381972554 0
0.375 0.5 1
0.3125 0.5 1
0.1875 0.5 1
0.22448506315396488 0.44205938049333515 0
0.13999942110291821 0.32781431190974253 0
0.05959021131045082 0.4441169770528183 0
0.0625 0.5 1
0.09988413209112249 0.4526478077427876 0
0.0 0.125 1
0.09674558581236999 0.1357568011989997 0
0.14971045273870448 0.14824514775889686 0
0.12368569982485576 0.18808152463883923 0
0.04986661687773217 0.21161665982530908 0
0.0 0.1875 1
0.10290751360945236 0.3059999748466848 0
0.02366462475680476 0.326201866643242 0
0.0 0.3125 1
0.03446000326942041 0.15612335583622006 0
0.0625 0.0 1
0.04834098588334372 0.07394223117694017 0
0.0 0.0625 1
0.08155178464283164 0.041237907510494914 0
0.2360644664466406 0.06975844137029409 0
0.1875 0.0 1
0.16804195196438615 0.04759325819962911 0
0.2991249912000459 0.07277257440654576 0
0.2640543395457378 0.024574543890871905 0
0.15762404781134068 0.2709006881007312 0
0.4315073388841477 0.07791907415683964 0
0.4282356531440073 0.11925104579463017 0
0.3844988087594095 0.09483826745508224 0
0.45219218667116035 0.21777877425570452 0
0.21690204158351814 0.34132981176987315 0
0.5 0.0625 1
0.4375 0.0 1
0.0515479066688209 0.38654645689514955 0
0.5 0.375 1
0.5 0.3125 1
0.4655971640577663 0.28684736608194034 0
0.400760838097687 0.31986789565240187 0
0.4410549273272911 0.43735242434449023 0
0.4716799809099973 0.39068269837504055 0
0.5 0.4375 1
0.3590714655677195 0.4392004407543385 0
0.31143051073172684 0.40818412084704053 0
0.31149370840022883 0.4544272838734997 0
0.4375 0.5 1
0.46194089186884657 0.46068255427619675 0
0.24226028520199366 0.2795210738275639 0
0.34513579115015003 0.3335126019741091 0
0.29473679453912044 0.2800200095629752 0
0.30241069610715715 0.2558067740854155 0
0.3680415259021924 0.20559563725737268 0
0.4191492865551693 0.24416370096275394 0
0.5 0.21851076302538244 1
0.5 0.15749057520314222 1
0.41836241110648453 0.19231970877390434 0
0.47205284839707157 0.18521283726039645 0
0.4154283373268683 0.2090996258844486 0
0.3651995492890143 0.2607043945110991 0
0.33706614292547543 0.2982982264380645 0
0.40151154211723 0.27960227236527474 0
0.27077520868354726 0.22614685339960755 0
0.30602098029775926 0.2151258671564174 0
0.27250493315542457 0.16325900996683265 0
0.35992200349377484 0.1646639372363704 0
0.2880506977468481 0.126958150272292 0
0.3425319441982049 0.0 1
0.2810199257487504 0.0 1
0.34139986500743436 0.10015384772697791 0
0.3296863319763895 0.030031317931962908 0
0.36087695879408227 0.025131827967366686 0
0.24226387374133754 0.2473422793023271 0
0.2117512016820702 0.2028986680299591 0
0.25275048926947813 0.1393674108310343 0
0.2117538506479114 0.17691234000513964 0
0.2296445063459746 0.1206123977064292 0
0.14235217741565223 0.23646473774854204 0
0.18413748556465095 0.26488806812429383 0
0.2592576248107146 0.31346776118627434 0
0.2976700682389523 0.3035492610357818 0
0.3231195078022666 0.35649680517928284 0
0.28154780802569385 0.3494828190316914 0
0.31862764635403434 0.3373409692627914 0
0.2816932621512662 0.5 1
0.3444940670295424 0.5 1
0.2510620073714304 0.3597641060706946 0
0.2569297382781374 0.41209564245707403 0
0.15651863122126736 0.5 1
0.2186316921037741 0.5 1
0.24421191380997262 0.4269929944562125 0
0.20124603827874243 0.47732494597288966 0
0.2096904413451594 0.42435522457733627 0
0.14323651266938842 0.4732506124637319 0
0.1560890946866859 0.4181432104625827 0
0.1406138520176703 0.4165053334792879 0
0.17050372332792554 0.38732746661689343 0
0.11052322295270994 0.3623264999402003 0
0.17102988737573155 0.3067403204127485 0
0.1729861914041434 0.34687071665433455 0
0.042939296935391835 0.47012998017641167 0
0.09297430222654396 0.5 1
0.07937200883725186 0.4688700613212887 0
0.11243939783344543 0.4711845104231107 0
0.11914130950736725 0.4469956484902437 0
0.0842238799819876 0.44147400779581336 0
0.16592831953152268 0.15764542090595943 0
0.170937300267942 0.111140047176539 0
0.11755996545990771 0.1384935137724432 0
0.1114339121174685 0.15951148485273717 0
0.030040037599256924 0.23489969174469066 0
0.08264226012460342 0.19921467495946615 0
0.0 0.15748153751480315 1
0.0 0.21815777182636065 1
0.024614918719229335 0.20218145880206456 0
0.05988671062912241 0.23471089227755265 0
0.02492563152314414 0.2677837129771171 0
0.0916011189327031 0.31498531832580356 0
0.1257432728699017 0.31255994030851747 0
0.024087960318120903 0.35503009213738934 0
0.046394807292467956 0.28513807979278644 0
0.048456678498106524 0.337502742531322 0
0.0 0.28055585429049773 1
0.0 0.34424494552458595 1
0.019406299968474528 0.13713355438073718 0
0.07068471987808973 0.1454966130729161 0
0.04696140145276093 0.183891717326255 0
0.0926640481069367 0.0 1
0.028791073751257543 0.0 1
0.02336089600060622 0.11541866743445472 0
0.054540735388109864 0.03038641034261028 0
0.0 0.029680317137094375 1
0.0 0.09231086597863973 1
0.02495138931461584 0.06971313208081387 0
0.14611760664130313 0.0838433228556827 0
0.10777364186387864 0.11028553103878598 0
0.07675763476555 0.018865186051977203 0
0.06370133312009142 0.05750598941957122 0
0.102501919809353 0.0386278739056399 0
0.23529088755139937 0.02352829524231308 0
0.25513935609481714 0.08870724757273767 0
0.21894111598135566 0.08340440420074523 0
0.2198058330325996 0.0 1
0.15695714559125395 0.0 1
0.17825031614467982 0.024489529508052166 0
0.1677595450906571 0.06632819763284814 0
0.3341712988972154 0.06638485860011702 0
0.2776621754284185 0.08368534441238402 0
0.2621710625481395 0.06689860563776245 0
0.27405159519672484 0.0478879775492045 0
0.24889761935661447 0.04645235257894973 0
0.16957331549448976 0.24184099866609907 0
0.13399732996796915 0.24989707241280398 0
0.4204498696164074 0.026190747370636872 0
0.4113284490148611 0.14264709364105604 0
0.43771044689151584 0.1614259370326239 0
0.4311525817933987 0.09988143393400366 0
0.45882683733448676 0.12889665455817945 0
0.36132826008977437 0.08163329019571991 0
0.41351472211771284 0.08973252013960352 0
0.41048498396362976 0.12605559192073826 0
0.4466520378066977 0.24553729424639384 0
0.47464355948748954 0.23325881639162618 0
0.21162893924035703 0.3178046751819639 0
0.24136461094853148 0.34615272956304355 0
0.5 0.0913479185928832 1
0.47583501287944585 0.07877460360223594 0
0.40833796687260315 0.0 1
0.45536189012717987 0.03277329119799479 0
0.026376238739828427 0.38256499270357225 0
0.05156362586384532 0.4236963515424083 0
0.40187986861346287 0.362158061323942 0
0.5 0.3443125939687018 1
0.5 0.2818235998071152 1
0.442919213278932 0.2857003775461088 0
0.47932447158593766 0.31253309327676776 0
0.4638018979127652 0.3395079352603386 0
0.37036645306181354 0.33735864827064005 0
0.386064038774048 0.2953929944237954 0
0.4032230718780441 0.30306419025191744 0
0.434131801006887 0.33896990902444973 0
0.44626175437450527 0.3680754038111795 0
0.5 0.40768776432414155 1
0.360080940738824 0.41033293032199813 0
0.3542991959730762 0.47059546906060196 0
0.29214660268908055 0.4206641199277864 0
0.3345695701685481 0.41881476854553623 0
0.2920644707643255 0.4440537360426748 0
0.3326052981050934 0.44838834104938546 0
0.0 0.4070637601999575 1
0.0 0.470784980583463 1
0.026912773420421587 0.4376572298812679 0
0.21379347282000752 0.27999547146790305 0
0.2568538108277731 0.2840447962666344 0
0.3493282273438458 0.34678942305616534 0
0.3568625872328426 0.3377465740346102 0
0.27244772950260376 0.2806345975530338 0
0.317607923607742 0.24365740142716463 0
0.27927390808548314 0.26139586927461866 0
0.37089915773444027 0.18180680710066358 0
0.35735421191338895 0.21579561161332805 0
0.39303084764158186 0.1884248752944347 0
0.3791172293421439 0.1937712627479685 0
0.37219188325891406 0.22106322971989129 0
0.36047860394884385 0.2296452385330848 0
0.3750208111388928 0.2403847351553886 0
0.40587823947026913 0.18396829897151928 0
0.40378592166965127 0.19745458500612542 0
0.4292475684876503 0.22435880633529415 0
0.35379537466168 0.24365539522070606 0
0.3550384350878714 0.2823248281676117 0
0.31572532687920096 0.29128874240385283 0
0.2752652257325388 0.2086735216734677 0
0.2645609043202096 0.2453057378887775 0
0.2851347148115154 0.24093049364151636 0
0.30371429955718565 0.23415477868925166 0
0.2921519779718812 0.2036923285371941 0
0.32293773836361295 0.22645597260864192 0
0.3333957463966032 0.21520840534403912 0
0.26281111483360925 0.15134450624936568 0
0.2572028236949395 0.1641943597534489 0
0.2832578912393153 0.17547642295976867 0
0.35859161308168636 0.18085394352340411 0
0.29658633483285973 0.18654784772340477 0
0.3076373064467788 0.1988599540261956 0
0.3153786494056347 0.14166581693637945 0
0.2869137287470233 0.16143375850814334 0
0.2772126245515496 0.1335968133566303 0
0.2784346001863533 0.14852857158712374 0
0.343851018618121 0.08403666179795011 0
0.3131364213470367 0.08687572463468764 0
0.33294084100814714 0.11026296305103436 0
0.29541444924573673 0.030048934951209437 0
0.3503084697070068 0.05045422967548524 0
0.23888086131063985 0.26438839203487313 0
0.25843103115055444 0.21286046983932236 0
0.24208506557873552 0.2153794480576007 0
0.22043622850375721 0.2104313231006777 0
0.2423579167762803 0.16363229326107967 0
0.22042540008698955 0.1761442204644321 0
0.2140011239761117 0.19295125918436848 0
0.23238694584528788 0.20546959740731002 0
0.24631141046271152 0.19945165532938353 0
0.23124860629164284 0.18107488077640155 0
0.24832207717199986 0.12258189852766342 0
0.2055367258205132 0.10752025401818052 0
0.16508922460660988 0.23050428481464694 0
0.1262793697129968 0.23499712188264987 0
0.14736985796774543 0.2494522681843776 0
0.1831027901986851 0.24384796077162701 0
0.1705837076259621 0.26752383047803924 0
0.18887590925393502 0.2870102151018259 0
0.15102899538222772 0.19861498057282465 0
0.18113325797708965 0.21467542673916923 0
0.2203458532146018 0.22435928371257538 0
0.19275488423457487 0.22269257828892738 0
0.25129156493737265 0.4502587288712218 0
0.2944326532944583 0.4713555728305034 0
0.32499167586545913 0.4743884358903239 0
0.26720718783165226 0.3681145513089957 0
0.22106365979248183 0.39088754413588545 0
0.2572700315902401 0.39114468135141656 0
0.23730024831687252 0.4046583867650406 0
0.17327611193059278 0.4774045048887869 0
0.21643899710003772 0.40763953876611975 0
0.14237958745768037 0.44749305635720177 0
0.1556741558536088 0.4059820773786619 0
0.16018729304178098 0.43577294372434683 0
0.19111162506307053 0.4247794247573347 0
0.14160757023594434 0.39225319041192086 0
0.15966423439010186 0.3860729807780194 0
0.17552428095073871 0.3778690586052606 0
0.0986311365869559 0.35480384059688114 0
0.1307821942329412 0.3300084263750498 0
0.1018256784370883 0.33853902466973407 0
0.11147869252574907 0.3491989536845251 0
0.15931725958053497 0.31455575923469115 0
0.16494726938755397 0.32690218475353344 0
0.15655800127434907 0.3369041446798656 0
0.17045043271497906 0.3715269624177546 0
0.13166619446274835 0.43119294569965155 0
0.10329908977248092 0.4354280029345561 0
0.15824754033664643 0.1534908320686074 0
0.15188317277113236 0.1313673522767836 0
0.16705134103983726 0.14071775614401014 0
0.17230648607864488 0.09916485348839103 0
0.10850902197285635 0.13755055152260284 0
0.13385099696162217 0.14125023295831893 0
0.12089371787426298 0.21818477191263963 0
0.10255340401360734 0.14783255865033 0
0.11885715049327329 0.17423883870921067 0
0.11422023382876652 0.14668660879804524 0
0.12469921554668768 0.16232870288119314 0
0.14015590336558634 0.14723475473876224 0
0.15286236042141174 0.16769763860395254 0
0.10044599663967888 0.20045308835761558 0
0.09294287810659324 0.18534564338976361 0
0.0211968251310967 0.1774697511358801 0
0.0722233551733372 0.2153183120031512 0
0.05033228329922217 0.25877621783459587 0
0.07439818177965223 0.25458083974481255 0
0.0884632760466215 0.3286934818762599 0
0.10204465353227898 0.3221516831918757 0
0.12334246787291671 0.32378850248456165 0
0.13302355615283545 0.32060481883188174 0
0.08866805367216814 0.27092070487040254 0
0.10953500286116807 0.27027267371349245 0
0.09922639521666278 0.28891030494204006 0
0.11747402607123932 0.302327637060651 0
0.06822554749586557 0.2760606845177956 0
0.07146032409754853 0.3336175373342424 0
0.045226221750418835 0.31100876075058964 0
0.06450613042411574 0.3715547448967228 0
0.023346255343070988 0.2971745680260742 0
0.08162192756535443 0.13091220595517442 0
0.0652081280251709 0.19817368510161332 0
0.05988719006748906 0.1618169351822 0
0.09306533868425891 0.023948825157571907 0
0.08100681437854805 0.1081591455654866 0
0.056531927375700036 0.09357797623188345 0
0.07482465959515784 0.11912037618363201 0
0.025284714666130064 0.04080974451926328 0
0.04323773403174185 0.05440720507264911 0
0.16053627380166136 0.10407992397102629 0
0.12262721942419491 0.04288291169875847 0
0.14553575749144818 0.043191447675926475 0
0.10498779873604132 0.12766346141916476 0
0.11521568948015691 0.13002905886849653 0
0.12130578510667529 0.09066958063702261 0
0.11869863323725026 0.0621782616965596 0
0.08514607376340398 0.06461230640525 0
0.26206591838666143 0.10907788098935677 0
0.24193497092438104 0.10556191424857274 0
0.2216007715037312 0.1022151040241121 0
0.23471055578871397 0.089822570588653 0
0.19327172937785506 0.06932571887999893 0
0.1365315513178068 0.02222931457949218 0
0.14427036853780933 0.07105527097488118 0
0.2060988277305475 0.023828574273301116 0
0.17939648620232396 0.07473973517814987 0
0.1566611184854688 0.07504232312149285 0
0.28821192650187444 0.11591782064477268 0
0.1607259260147453 0.25585772724669903 0
0.14432920357613757 0.2631143909629652 0
0.1235241832293602 0.2762676207717261 0
0.18562367792603157 0.2967964488994217 0
0.17972483807456832 0.27763320494181193 0
0.17632138225385816 0.2908429644149829 0
0.15375118018566272 0.3085146588467143 0
0.15601188570282862 0.28086269112489326 0
0.4287588931039311 0.05307740629035455 0
0.39074699830559695 0.024206777838237346 0
0.4731188878951536 0.10971248226463448 0
0.4520082500516099 0.0907246664222445 0
0.4076996765221198 0.17060303744610358 0
0.42178912164531324 0.16678394960532036 0
0.4547641620913643 0.1729869668836581 0
0.4476172906697247 0.11347663428251638 0
0.4419840989688558 0.13228553150857736 0
0.4772012930392001 0.1392137481299227 0
0.35611403885335446 0.09579387944304135 0
0.3987757828065022 0.09978764362114323 0
0.3990952740894427 0.1145313575585733 0
0.4252698258545706 0.13640045200000028 0
0.4537510278420835 0.1944939662625474 0
0.20061115397057072 0.35980769379691585 0
0.2116227185308157 0.35368678771758927 0
0.21069137982054031 0.36715710496065695 0
0.22246146832194413 0.37470876404313025 0
0.19898146935889352 0.31198686442309936 0
0.18880765575936123 0.31842688276420766 0
0.208849196221175 0.3318097712682268 0
0.2279712932888349 0.3391730126299469 0
0.47694926817113303 0.05407853782841042 0
0.45346980066585835 0.06465471500597014 0
0.08319775985974238 0.36591885452428496 0
0.06194671564461292 0.4058386201611811 0
0.07207169781959463 0.42426300300396386 0
0.03662278448279417 0.4071244037040161 0
0.47648953246610753 0.363746969719156 0
0.39423461476052457 0.38148549169907764 0
0.42151000035609604 0.35754296304393696 0
0.40774330973895045 0.33909618002842945 0
0.3585663855970098 0.3059976285126807 0
0.42356078717112655 0.2941634388816209 0
0.4193907994888455 0.3177609059666379 0
0.4247611263245399 0.46547101590827383 0
0.3881674488978375 0.4618111099185422 0
0.40480957969103654 0.40384974877837243 0
0.46872833435880495 0.42298637236974945 0
0.4374707441729139 0.4050105309100876 0
0.3842514603792768 0.4244382901446146 0
0.38057651153155186 0.39784960464866587 0
0.34083146043059204 0.39399575231336115 0
0.291669733384842 0.4024704704971205 0
0.3125554420049116 0.43237846393330276 0
0.20397400113152514 0.27357960331940606 0
0.20179368532723407 0.2844138407253149 0
0.2113713874684678 0.2938526219981934 0
0.3831504331700878 0.18002423812751026 0
0.3890863592580396 0.22521756537766632 0
0.38731202598903103 0.26004340856579866 0
0.4338954235067083 0.20334090876406305 0
0.3343033426239421 0.24352978426926372 0
0.2889205759558251 0.22148138126822978 0
0.3441958530391252 0.2101999243089078 0
0.3665977070477338 0.15103557381665447 0
0.3872289504138651 0.10775197987571726 0
0.3990598223669442 0.13609309112935128 0
0.36368747221197256 0.19246133575133156 0
0.3645962986218047 0.17192769960082216 0
0.3539103695670846 0.1704394332718209 0
0.3544671900961774 0.20186097084734375 0
0.3219779848241243 0.2072566328127616 0
0.32896610284749184 0.1497204310440675 0
0.30969127613362574 0.187917822500115 0
0.2925916909848168 0.15027020610497407 0
0.32827151985071745 0.08316661201989009 0
0.2964848208040881 0.09293376879885788 0
0.3260051702373769 0.09792193730212259 0
0.31431978143396294 0.053654573575439665 0
0.36754348977086043 0.06574380833124285 0
0.2522747483211295 0.22928940253195187 0
0.2389176867851283 0.13335832275953682 0
0.2138596245101038 0.18378984093896486 0
0.15641779218085944 0.23979746171274363 0
0.176104587252641 0.25478999711548017 0
0.16417279439431645 0.19602982370988822 0
0.13473331754486265 0.18870603223611096 0
0.14480950951564348 0.2099212366807821 0
0.19260841241020596 0.2069445825854417 0
0.22584510694187354 0.25717059467864745 0
0.1982205955996494 0.26196372085877934 0
0.29619388409369585 0.32814248096726795 0
0.2639908865567617 0.47472894641307967 0
0.29126460597121856 0.36948763748154045 0
0.23561592913522078 0.3642270802204941 0
0.27441457451701806 0.40759574430704787 0
0.24924722049286152 0.37350831860874706 0
0.22627755733311794 0.4211921522645643 0
0.1881417215706403 0.45820661756804 0
0.16412769011965014 0.3967487575039577 0
0.14941195655470016 0.3841420861760212 0
0.1398912699840312 0.3813904930095924 0
0.1470862384458394 0.3756754689381397 0
0.12222962065706382 0.34430163603260244 0
0.16510299259861907 0.33588233922126914 0
0.15740752058254162 0.32332726151936103 0
0.1678827426699942 0.3429821896044967 0
0.1427753831471021 0.3356182736309168 0
0.165207907007975 0.37840701563053464 0
0.15305657107480292 0.18012188116433622 0
0.19279062819209725 0.13770105219024667 0
0.16005781350324944 0.12655134960407438 0
0.16640309220763103 0.14924359243314897 0
0.1587564101679585 0.14455141042970301 0
0.19327682570634 0.11376971655332786 0
0.1436312495945165 0.13859072915793397 0
0.12914003980529373 0.19680677567675214 0
0.12415537796018415 0.14414209373185682 0
0.15087485941350978 0.15858759641161616 0
0.15895655258117214 0.16243485759319967 0
0.11741654859474501 0.2014384219621313 0
0.10934207649972857 0.18678702563011707 0
0.10278509032009832 0.17312459862309854 0
0.10731879986042141 0.21313690138280175 0
0.09218732162255808 0.21548207006821882 0
0.14518695495343167 0.3100010682831437 0
0.13506954725419304 0.2944788246146128 0
0.12998151551578332 0.3033795267315804 0
0.08496636062532556 0.34574233670405913 0
0.07802297842505332 0.31636493056612897 0
0.06178753186883376 0.3197650613476581 0
0.0661676154256527 0.3532398343641145 0
0.046720854883708016 0.36450971732528425 0
0.08904589277938875 0.1722307630303669 0
0.11223328041299073 0.02129763353855723 0
0.06602721448690131 0.1091184633862693 0
0.08552821930554251 0.11858033267588386 0
0.033220182132631886 0.09259703848454927 0
0.053250507644313806 0.14470049443705021 0
0.16042415476452063 0.1160576603965206 0
0.13566568111454982 0.05938679174792401 0
0.15715692284164648 0.02749861340885239 0
0.12602035122588945 0.13336201266386313 0
0.13041073859476354 0.07703250931462925 0
0.09468254453398621 0.1109237958601782 0
0.07442752521710348 0.09495846719285408 0
0.10228028572407473 0.0998554471310651 0
0.11131487911482082 0.07808080592671728 0
0.10267055165949467 0.06419410565731203 0
0.2113370931549922 0.06614714352250531 0
0.1529358512101495 0.06038310043124861 0
0.16114177647872183 0.08934688266699707 0
0.11605460062618815 0.2878550276331592 0
0.13509596118319292 0.2753591400639092 0
0.16611926957483855 0.2911471877017773 0
0.14732057971794138 0.2772573688973033 0
0.4024377034452711 0.04756983027413567 0
0.4548123736044527 0.1494948144624697 0
0.4764332589245064 0.16535083052244134 0
0.37046703002449244 0.09377032817885556 0
0.41359773362393304 0.10824588407807129 0
0.45115400880521456 0.2693909424779149 0
0.4754035592705159 0.20605212612804322 0
0.1883732562190793 0.3626713984993631 0
0.22552725971847484 0.3514651163960026 0
0.1879033389313748 0.30693347814897115 0
0.17767147400965305 0.31338578313472465 0
0.17284215042730888 0.33040850802537597 0
0.19942028148404306 0.3238633979962403 0
0.22139688966649007 0.32980361428026767 0
0.2516531401115923 0.3303049406804991 0
0.09885758033584738 0.3679098925560969 0
0.07563395885265264 0.387551547436779 0
0.4730269609359927 0.26106245156237484 0
0.4471535588090045 0.3109640644466825 0
0.41347631004388 0.43299254617687755 0
0.41782945584796816 0.3796544967969587 0
0.19272606351753538 0.2747231780335979 0
0.20808742220214163 0.30540617217523436 0
0.22754242798078508 0.29074396361473026 0
0.3137377900688218 0.2726448085245801 0
0.3439784525323801 0.26109784342823755 0
0.23938878377615458 0.17525066401874673 0
0.2629835290217894 0.19656629412722373 0
0.2655352091412193 0.1791709530344094 0
0.34930436947304255 0.13427260695028106 0
0.35209899535768036 0.15403469889523516 0
0.3687687245877277 0.16175409500896962 0
0.3968275372782572 0.12569113385644662 0
0.3895772211296201 0.1421965189518676 0
0.3478878754227 0.11926143705508273 0
0.37088042266576066 0.12465243899044193 0
0.3407628261026679 0.16256392882280302 0
0.3510704101250687 0.1894863397689815 0
0.3340440468888395 0.2049764103221579 0
0.31885838183174864 0.19313127867967525 0
0.316394456230709 0.1723926532448427 0
0.30206700787605845 0.15081276694378673 0
0.3102004803895012 0.1022121571483249 0
0.32058716969228457 0.11157363573761593 0
0.33840195180346483 0.14280496542634158 0
0.37805375119162826 0.08079542567977957 0
0.3767083889069058 0.046563425311076614 0
0.2349662187250542 0.22896848578791473 0
0.23748786074243292 0.148302638288657 0
0.23097393352353646 0.1702061530145243 0
0.22254875002787636 0.18780945243479236 0
0.22256084105684748 0.19913524086288623 0
0.17185016652467436 0.206332484215694 0
0.13065020117498313 0.17888110580156838 0
0.15869839859380644 0.2084648421700249 0
0.1529494001498545 0.22341210186341712 0
0.13627969973318574 0.2223013527012026 0
0.2067518950040005 0.21492130076553378 0
0.226870031128119 0.27316389736339813 0
0.20601720048943578 0.23362387294078488 0
0.19632467324633185 0.24645971253102195 0
0.21030403047477733 0.25089022397323907 0
0.28042849691761973 0.38791537551894556 0
0.1649954669975445 0.4555536270405286 0
0.189934281334845 0.3974852951744381 0
0.15270066561626125 0.3949363639181636 0
0.13946609559336626 0.37161703774178717 0
0.12336983491125926 0.35618921542021104 0
0.15936564478322393 0.3306191244125936 0
0.1713559097134374 0.35413318075772293 0
0.1484512579331597 0.32449750700652696 0
0.13757542955176938 0.34155439692688716 0
0.1496167807690343 0.3364933722498741 0
0.1558645298563795 0.3764251646207427 0
0.11750497884804549 0.43019194088209767 0
0.15470328722483967 0.17356625662319372 0
0.2110874605901003 0.15923284150420366 0
0.2152948989560737 0.12794642462682088 0
0.19242291967916306 0.14798131664108088 0
0.20436224490028165 0.12070725566059072 0
0.18339833753190535 0.13206678860635243 0
0.1741265406110435 0.15380314486987792 0
0.1313245937116596 0.15266447200988006 0
0.12096420791784053 0.153195961961032 0
0.09554694218469532 0.16028001747486872 0
0.10620622640592343 0.23099211169933245 0
0.09646903143376469 0.252011212135673 0
0.11415317328864233 0.31597773202587304 0
0.1419901909090778 0.3184973341253053 0
0.08211076139277758 0.28730512392276564 0
0.1360122511090886 0.31133499626424255 0
0.13975025263535965 0.30286304273591325 0
0.08706160941447008 0.3021932833635182 0
0.07942200500495837 0.16119585114399862 0
0.08777304670233414 0.14675897382992445 0
0.07381854406067732 0.180184348866032 0
0.15097700986837428 0.1215303817215988 0
0.14859534289166274 0.09777580025753226 0
0.1358596781677998 0.13306660066769488 0
0.1263559321689145 0.10299027090690739 0
0.06903871166706033 0.077853656029112 0
0.08969215419916361 0.09755275885900616 0
0.19433056611476981 0.04854715084149379 0
0.12611293809271557 0.29460314202018323 0
0.41012206738778423 0.06959523187945721 0
0.3957310777556289 0.16186950655104904 0
0.37693456626469524 0.10340187625482986 0
0.3534261291796036 0.10975898032529513 0
0.1886757562803571 0.34652378158013375 0
0.2051878660473886 0.3430143133704548 0
0.22124671481394637 0.361985376614316 0
0.18107313014224383 0.3343992749100384 0
0.2351801508462034 0.32959787621849995 0
0.24672394806042433 0.298037106257212 0
0.1203923708208833 0.3694851849520114 0
0.33182637295282524 0.2776381932265562 0
0.3240397618856629 0.2594174959577901 0
0.24206877040588604 0.18550599169293558 0
0.24997707187878476 0.17598313993120301 0
0.3767277170442655 0.13275773311043193 0
0.3318577313626793 0.17040884523316643 0
0.3412941598694417 0.19680007186030102 0
0.3085160871767635 0.1156528700018439 0
0.23065740400518323 0.1597909934213993 0
0.2330197785658813 0.19316541051913294 0
0.17003812450877887 0.18821010174548772 0
0.16812460669149826 0.21892455276253467 0
0.13923407772215962 0.19841476908912906 0
0.2133376344061625 0.26618355410004235 0
0.22326941335876851 0.2405755488848544 0
0.1874288994558936 0.2543291709036736 0
0.13154711554980184 0.3655360767212948 0
0.1625246006479203 0.36969110037232145 0
0.13133444404867986 0.3476057722725444 0
0.16606136021197138 0.34909816257431264 0
0.1449454780909255 0.34247526937919065 0
0.09135808095481637 0.4222268718546342 0
0.12383605359191184 0.4174407375680411 0
0.14406899671813678 0.18985363935168395 0
0.20338209103656057 0.16466998655999135 0
0.20329909297558282 0.13279969591242768 0
0.2125465326465194 0.1691223845229453 0
0.21323655573500241 0.14045610632403535 0
0.2261316639372772 0.1371568795077474 0
0.2152765220551144 0.11573536538510286 0
0.16930940413729795 0.12239452593686648 0
0.08355869227078483 0.23400835035932688 0
0.06709261279010846 0.2995194402918061 0
0.14440821202923182 0.2942161349612711 0
0.1499404003035309 0.11041524706902207 0
0.1426547533918474 0.12774902608544572 0
0.11864187491178989 0.11162592965421614 0
0.09708641204350538 0.07559444620305025 0
0.22194736087877123 0.04624770969205262 0
0.1293644421328688 0.2854517864896083 0
0.39554065353010986 0.08346267176843687 0
0.37749371686176175 0.15378837597220957 0
0.1980988175116856 0.335421699646543 0
0.24216087547176232 0.3155984784279027 0
0.12984789975367278 0.37663606399907057 0
0.21994755989577003 0.3051113165906063 0
0.2534835496156529 0.18749249429342119 0
0.325363106672993 0.17650899062972106 0
0.3298779568051965 0.19643511966113925 0
0.13784466225021397 0.17210370115404158 0
0.13107385689086282 0.2081096421555765 0
0.19151934133552637 0.23547451684001808 0
0.15512667008697473 0.34938560610266833 0
0.1471916042012303 0.3675609785122296 0
0.08203194993182804 0.40678260134913197 0
0.1081760870701081 0.41961598596658456 0
0.14059454497238766 0.1809861911811305 0
0.22124929070850577 0.16426761674966867 0
0.180979538754531 0.12009925604518668 0
0.12243413739858948 0.1222908168883759 0
0.13527336801861278 0.09307159498149031 0
0.13860059671209926 0.106102362608874 0
0.13994716452594494 0.2857339104144222 0
0.388337679660855 0.06557509640631021 0
0.10791605346157339 0.3756021620965291 0
0.09369864230771763 0.38046662602014036 0
0.22701330336529818 0.3173596363570611 0
0.23275965640859828 0.30540178829508347 0
0.3408045492448949 0.1704747491478684 0
0.32698960190422316 0.18616274044944428 0
0.1414942430544213 0.1561039747773423 0
0.13505564070026269 0.35630723193590347 0
0.22142013092793963 0.1512098042044945 0
0.1930336846157833 0.12616316789562193 0
0.13292913894175923 0.12461562782365646 0
0.12991167222165592 0.11415404540071458 0
0.1407390453791091 0.11751096507308056 0
0.13110571604398924 0.4025938307053149 0
0.1196270704772725 0.38261640018647963 0
0.1070036662058815 0.3913796120375826 0
0.3421068747062046 0.18689690173828682 0
0.14069017453702334 0.3633215746062463 0
0.14448151325819833 0.35662090162122184 0
0.19567256034967412 0.19543075511333494 0
0.13026715188892474 0.38812607701209145 0
0.12073742034725493 0.3941971466773323 0
0.09137761970048029 0.39463146800718235 0
0.09969885139187207 0.4064961265158032 0
0.1149765794785717 0.40533300164261427 0
0.40625 0.5 1
0.5 0.03125 1
0.02971106195134473 0.5 1
0.4703510107403659 0.0 1
0.40669448130868174 0.258992346874231 0
0.20874226560202605 0.45843628730662606 0
0.3179716793018539 0.07244068568871857 0
0.28123173256296385 0.06502030430754156 0
0.42372358123641346 0.1517600763064005 0
0.3879038172593382 0.3294998957352272 0
0.3604195637568015 0.3474960781139622 0
0.3916720184798025 0.20018503111929578 0
0.3854741434689697 0.16873676678840344 0
0.29665939759390414 0.171282538932733 0
0.2671504980057557 0.1401944810397872 0
0.2983687517003027 0.13231938446164035 0
0.3159209847023149 0.1330355781857875 0
0.20584845474174077 0.19529404721978952 0
0.20892906303711067 0.1887238396223964 0
0.19938339183660247 0.41029552737138997 0
0.18337665034523232 0.4108397173849926 0
0.17270729253051642 0.4228728059905251 0
0.2004649215436837 0.4411778768751806 0
0.17936092138885462 0.4399894943197363 0
0.18648031149598668 0.3748997281744584 0
0.17781532647047807 0.36807074697027026 0
0.16909706758428233 0.1714398858805361 0
0.12919878948425692 0.17007518688215817 0
0.03979925190035036 0.13240058623089607 0
0.1120096994488913 0.12009086104999113 0
0.11446259525124311 0.1013733504960853 0
0.1804828573102534 0.061418862346544395 0
0.27682806296709955 0.11943983409420561 0
0.2980876806284838 0.12112086087125071 0
0.16634023382147514 0.28137807543938503 0
0.1626075575531138 0.3060197442407059 0
0.16927254400440525 0.2989917166709988 0
0.4098888406035808 0.15708170451886302 0
0.41761640891917967 0.17920337020563565 0
0.4366888987980099 0.14632836726514376 0
0.19827023499277885 0.3717633090966928 0
0.20871737463946233 0.38086596120120225 0
0.38668843047281454 0.34794330258619355 0
0.3312852705113767 0.3742372100530106 0
0.3625263518467888 0.38806031421578524 0
0.37532152502070576 0.17121374824897867 0
0.3340826632256474 0.15251719883754628 0
0.3267675676821295 0.1447641851398849 0
0.3176341779793079 0.12305826122613078 0
0.3253765532181226 0.13044195000930522 0
0.32825416685021813 0.12076063704181679 0
0.33183662171330525 0.13811807880384686 0
0.2713357297240431 0.3300398279841496 0
0.23107966463511295 0.4716331775727991 0
0.23736846429809716 0.3833774249590889 0
0.16820965589438772 0.40852005151721504 0
0.17656378940153325 0.3979461293048853 0
0.1301023930187763 0.33861384161928776 0
0.1639993216843046 0.32017308744154815 0
0.1676686620610279 0.31377926047837396 0
0.19468107895336922 0.1629816612932113 0
0.19853117161276376 0.18000284410454262 0
0.18227171789583077 0.10672252699135786 0
0.06174107704784462 0.12775384665738307 0
0.1737402468915538 0.33920081317653095 0
0.17983119216398316 0.32447080276006945 0
0.17095303730441175 0.32159236752503056 0
0.34033880222326496 0.35871200982115475 0
0.35636546890187687 0.3588684738875595 0
0.3527754796763849 0.12676556013819004 0
0.35254616108709097 0.14134635292413245 0
0.33495823283736215 0.12880411290978852 0
0.35725535326676916 0.14883175068541848 0
0.3450494439871115 0.14405643496693887 0
0.3456312317715311 0.15151155918206424 0
0.3874203487721733 0.13139239399934974 0
0.38200400318420685 0.13898936826579605 0
0.3559750126096749 0.11972238312879765 0
0.31980437203488954 0.1561017540570395 0
0.30799684701317714 0.16664859709672689 0
0.30748569925085967 0.1778019383909875 0
0.3086717707236299 0.14616635037161677 0
0.29700005064445223 0.10862821256438024 0
0.3416401804462405 0.1364500638295043 0
0.3395763106965192 0.1486820915646038 0
0.20304168775044232 0.20246139855608608 0
0.16911881747413712 0.36295044767754847 0
0.17795630255570546 0.3585379113453426 0
0.1509315107265912 0.31648434842472345 0
0.14674005677996002 0.33086898004811216 0
0.15288876805466062 0.33050819234122114 0
0.1601757212831287 0.16915188425925576 0
0.10960521547193285 0.09164071024004719 0
0.3881965700633291 0.15214326791957364 0
0.37604459946715296 0.11461653515196443 0
0.36404122083606516 0.11677067406045945 0
0.2011967040706296 0.35087202083336916 0
0.3734726128897426 0.14262416607499132 0
0.3352053698557759 0.16546053949633885 0
0.3345272913021328 0.1591583926168134 0
0.34721641535505476 0.16576599676948153 0
0.16174303756027014 0.18664342564859934 0
0.1603264273601582 0.3442429930364084 0
0.16530130888768396 0.16480087353914175 0
0.20076544073524594 0.15522265759663692 0
0.17489724699641285 0.13729043457856702 0
0.17388296909781276 0.14559239673916308 0
0.1484373802718541 0.30229989693326786 0
0.3783877942785541 0.16302481474237113 0
0.3850210355985389 0.1598859553881784 0
0.32409558204409267 0.167980793751996 0
0.1470965782780423 0.17468779134378334 0
0.16080073259522942 0.3506543214570681 0
0.15230717232454954 0.3430569535158238 0
0.1400354844733233 0.3490497246376827 0
0.15483670304080716 0.3684070259791082 0
0.18273388173974925 0.14292365860731285 0
0.19155209604335863 0.15608654721171075 0
0.18342435305267898 0.15266315131513708 0
0.19591472433684756 0.34468941311406326 0
0.18109878228767018 0.34429926732045163 0
0.18894245430976883 0.33917846157935594 0
0.31738802213675454 0.18237620366414406 0
0.13468533190778723 0.16318758080471057 0
0.1598368223688097 0.36229455833850216 0
0.15701786963343292 0.3553602103776762 0
0.33560367367308774 0.17971467933942778 0
0.3351472635621274 0.18917679808871316 0
0.1513710785410863 0.36134286433300467 0
0.15114015414071327 0.354617347907666 0
0.250605658114014 0.1535368316066369 0
0.28901919317008073 0.13890569295966632 0
0.29961375029181936 0.1593439165095639 0
0.33854578784829914 0.11974565293575966 0
0.0467271160378075 0.11167148389825884 0
0.3613886411159328 0.12596395882689523 0
0.3076210849372593 0.13721461101381704 0
0.3989290338223124 0.14878666287822226 0
0.36611155996491945 0.10571134547924475 0
0.3100124202852105 0.15590007336641334 0
0.3429669331316872 0.11187915631980673 0
0.39761529635394355 0.24241237712274114 0
0.39843585394137987 0.21121171371359565 0
0.30765090910296544 0.12718021391064546 0
0.28107299755543425 0.10368602578953257 0
0.20511808609985135 0.39555947061842106 0
0.3496975205952414 0.37415624093395244 0
0.20481374388218487 0.17385180707848932 0
0.20673411962551894 0.1824475591263683 0
0.3441140511377414 0.12753088327219914 0
0.35966122421790786 0.15691604735158182 0
0.3465800062109567 0.15871966059226755 0
0.3295952657060175 0.16347048930492689 0
0.3235826602910777 0.15004331753954264 0
0.2997567209855549 0.14250398580989423 0
0.3331535818290637 0.14617527984839668 0
0.3623414589296598 0.14175612880681593 0
0.18452072024277905 0.3526230679975511 0
0.19633063857930977 0.17198442862255023 0
0.3821998279652449 0.14602092641157052 0
0.16899335481142022 0.1819139949930226 0
0.14401038341350428 0.16529704242502474 0
0.16394165661181292 0.35577729041200173 0
0.3469954536564223 0.17828759521778859 0
0.14805509451994503 0.34922520099220816 0
0.3276881750640339 0.15612547498277507 0
0.31648217445901106 0.14916025741420263 0
0.366994672874722 0.13361163867211034 0
0.12227764872134561 0.33415733696789757 0
0.11414136492158385 0.33901014883184144 0
0.11287908385603018 0.32880056405863983 0
0.1028343669373523 0.11849571175552345 0
0.12733757589137581 0.26425552597038293 0
0.1778323946909729 0.30231583240701376 0
0.31216036110731926 0.3721841606909663 0
0.30149206921769756 0.38813089102156556 0
0.15249961732338735 0.13985258289061048 0
0.09442828775982086 0.12388833730065786 0
0.18247306247480094 0.38669302415954704 0
0.09940588556895177 0.08741612489911403 0
0.3705659791224751 0.3551584795267658 0
0.38287138145195687 0.3666597679620166 0
0.37689209248894723 0.38117932925464193 0
0.32087395126114604 0.3900566051876409 0
0.3418865052942476 0.31806152498942575 0
0.146270663552899 0.42970156627916073 0
0.15941410889138327 0.1359591005298871 0
0.1088285948795246 0.2963140776786681 0
0.20559959885035353 0.09303238504292653 0
0.20397186804512496 0.07960685684274571 0
0.1906046877816791 0.08584452713936981 0
0.1680606286673731 0.07875828387523519 0
0.33503172227624123 0.09133455413419599 0
0.33214785485439985 0.05014361374709744 0
0.29292370362181114 0.053805836531507036 0
0.2787200014431786 0.3112266236255133 0
0.1931884778708288 0.10063349694941574 0
0.17561272036633144 0.08715881571163862 0
0.18936873524581563 0.3293641415109784 0
0.20951405309239934 0.14987194093176803 0
0.17504132984749488 0.1287916600351125 0
0.08550800737425385 0.08313003206946958 0
0.17977803050613214 0.16052705872960632 0
0.20182700720510355 0.1442644980161202 0
0.2743676314844826 0.45434118553505204 0
0.37294842374998627 0.31935790706566514 0
0.383148914469213 0.20965046783660915 0
0.18514984490571437 0.17504768465719248 0
0.38773498847692417 0.11983806450186762 0
0.37971741558075583 0.12469482493385839 0
0.1724845154231659 0.16257137108648304 0
0.16749958553546734 0.13213510515980728 0
0.18624585988588643 0.16239733856308503 0
0.3575707161250414 0.13413565272090947 0
0.3506420387986472 0.1480384944815437 0
0.34021784732795884 0.15546992117346062 0
0.2009111120652643 0.18796560283382033 0
0.17962133880407222 0.16828005504150007 0
0.17663070763218616 0.1860379231734649 0
0.1931273342776212 0.35318206534280927 0
0.3531989879183061 0.16179886264377322 0
0.18540361612004883 0.19063574302865305 0
0.32356268687620393 0.16134939318331495 0
0.3574373096934898 0.32524651970560353 0
0.38787004647350043 0.3121649950245888 0
0.18860393435655956 0.16982913298615515 0
0.0 0.44003615326068657 1
0.2819697452251443 0.29444605569771537 0
0.33463347689613204 0.3438846770152618 0
0.3752590887812476 0.30554700718163874 0
0.3705921886685357 0.2937037510817278 0
0.33163358635769746 0.32975882905141357 0
0.19184064113080906 0.17775621711944314 0
0.19386059793675875 0.18526315780400007 0
0.10843990670276092 0.05205063067565229 0
0.09603144390237746 0.052227317129156715 0
0.2688551073020058 0.0962196120369887 0
0.14504567475776642 0.4040110424525798 0
0.3471468216914685 0.13907977090221424 0
0.178256714186905 0.14913312048955749 0
0.17764300389058643 0.35146510770483774 0
0.347468400162293 0.17115070822527592 0
0.18653965852194 0.19878334632805886 0
0.16045704278932613 0.2970805554390911 0
0.1817406563449428 0.20505684904204446 0
0.1758076021031238 0.1953315311713568 0
0.15894973716401287 0.2888822763193524 0
0.15311695137453155 0.29485183413614735 0
0.13620246899453575 0.3347855193777421 0
0.1556990197673965 0.30165529360647997 0
0.15018615324990958 0.28692559466322676 0
0.16214368221456615 0.1759715392515773 0
0.1293028237079188 0.460253914110895 0
0.14980898711269516 0.41115216446626923 0
0.32707263596033825 0.4026350578149846 0
0.3169307268137793 0.16348906608079877 0
0.15350827336448217 0.19013817221065954 0
0.32109510794850016 0.1448226820901294 0
0.14741481021355574 0.18370758763540318 0
0.1458232815125943 0.3620671795557264 0
0.1512130951095527 0.37156461605643903 0
0.17769086930298605 0.17805300553822492 0
0.18418998831633598 0.1818116606949978 0

Edges
62
1 167 1
1 170 1
2 742 1
2 744 1
3 81 1
3 85 1
4 229 1
4 743 1
5 107 1
5 181 1
6 93 1
6 212 1
7 123 1
7 128 1
9 152 1
9 161 1
10 162 1
10 228 1
11 127 1
11 140 1
22 94 1
22 204 1
23 93 1
23 94 1
29 106 1
29 206 1
30 106 1
30 107 1
33 166 1
33 182 1
39 124 1
39 741 1
40 123 1
40 124 1
41 127 1
41 128 1
45 140 1
45 743 1
47 151 1
47 171 1
52 151 1
52 152 1
55 161 1
55 162 1
57 166 1
57 167 1
59 170 1
59 171 1
62 181 1
62 182 1
72 204 1
72 742 1
73 206 1
73 744 1
75 211 1
75 221 1
76 211 1
76 212 1
81 221 1
85 741 1
228 967 1
229 967 1

Triangles
1942
1 167 170 0
2 742 744 0
3 85 86 0
4 229 743 0
5 65 178 0
6 212 554 0
7 794 473 0
8 191 913 0
8 622 286 0
8 623 622 0
9 149 155 0
9 155 161 0
10 158 208 0
10 208 228 0
11 140 142 0
12 765 781 0
12 782 886 0
12 919 765 0
13 921 922 0
14 87 273 0
14 111 252 0
14 232 87 0
15 290 436 0
15 408 546 0
15 436 437 0
15 559 408 0
16 121 298 0
16 125 203 0
16 203 551 0
17 99 925 0
17 119 250 0
17 472 119 0
17 925 972 0
18 240 438 0
18 438 753 0
18 642 393 0
18 753 642 0
19 239 243 0
19 243 248 0
19 248 442 0
19 256 257 0
19 444 239 0
20 92 200 0
20 100 745 0
20 200 542 0
20 213 423 0
21 92 882 0
21 97 247 0
21 882 439 0
22 94 398 0
23 93 543 0
23 96 539 0
24 194 395 0
24 394 194 0
24 395 403 0
25 100 217 0
25 217 971 0
26 113 283 0
26 266 755 0
26 283 370 0
26 370 773 0
28 264 757 0
28 757 790 0
28 788 998 0
28 790 792 0
29 206 390 0
30 106 109 0
30 109 271 0
31 185 272 0
31 272 460 0
32 276 280 0
33 182 375 0
35 190 285 0
35 285 663 0
35 292 294 0
35 294 703 0
36 118 650 0
36 235 968 0
36 936 118 0
37 915 474 0
38 126 476 0
38 224 226 0
38 226 945 0
38 295 129 0
39 124 223 0
39 223 426 0
39 426 741 0
41 127 302 0
42 129 295 0
42 763 131 0
43 312 343 0
43 488 989 0
44 139 230 0
44 209 416 0
45 139 141 0
47 171 168 0
48 325 328 0
48 328 631 0
48 353 918 0
49 321 499 0
49 496 917 0
49 722 332 0
50 329 590 0
50 467 497 0
50 501 502 0
51 149 153 0
51 153 165 0
51 165 354 0
52 151 336 0
53 156 629 0
53 341 156 0
53 346 928 0
54 55 352 0
54 162 55 0
55 161 352 0
56 151 163 0
56 163 769 0
56 165 336 0
57 166 175 0
58 172 361 0
58 176 637 0
58 358 518 0
59 170 360 0
60 169 175 0
60 175 356 0
60 177 976 0
61 179 373 0
61 180 530 0
62 181 377 0
63 639 772 0
64 186 748 0
64 269 457 0
64 459 747 0
64 748 935 0
65 5 107 0
65 107 271 0
65 188 189 0
66 289 775 0
66 388 536 0
67 195 198 0
67 198 641 0
67 389 413 0
68 195 396 0
68 199 541 0
68 396 397 0
69 446 643 0
70 247 441 0
70 543 201 0
71 405 646 0
71 410 550 0
71 411 545 0
72 204 205 0
72 205 412 0
73 192 206 0
74 208 513 0
74 415 417 0
75 418 211 0
77 213 542 0
77 554 212 0
78 218 424 0
78 750 965 0
79 86 425 0
79 428 86 0
79 429 428 0
80 75 221 0
80 221 428 0
80 418 75 0
81 3 86 0
81 86 428 0
82 223 227 0
83 225 434 0
83 916 924 0
83 924 995 0
84 227 297 0
84 434 227 0
86 85 425 0
87 560 595 0
87 650 560 0
88 233 969 0
89 90 561 0
89 119 968 0
90 236 653 0
90 237 253 0
90 253 254 0
91 241 947 0
92 20 745 0
92 21 247 0
92 745 882 0
93 6 201 0
93 201 543 0
94 23 539 0
95 97 246 0
95 245 779 0
95 441 97 0
95 779 24 0
96 23 543 0
96 395 539 0
97 21 883 0
98 25 249 0
98 249 562 0
98 440 25 0
99 17 250 0
99 249 422 0
99 250 652 0
100 25 440 0
100 423 218 0
100 440 745 0
101 251 443 0
101 252 461 0
102 254 443 0
102 255 263 0
102 263 452 0
103 258 267 0
103 260 565 0
104 449 450 0
104 450 961 0
104 891 568 0
104 961 891 0
105 380 774 0
106 29 110 0
107 30 271 0
108 268 399 0
108 458 933 0
108 644 881 0
109 106 110 0
109 110 272 0
109 272 934 0
110 29 390 0
111 14 273 0
111 273 470 0
111 584 461 0
111 666 584 0
112 279 588 0
112 594 826 0
113 258 871 0
113 755 258 0
114 278 463 0
114 678 278 0
115 283 462 0
115 614 681 0
115 680 614 0
116 191 286 0
117 289 465 0
117 465 667 0
117 667 471 0
118 695 650 0
119 89 250 0
119 472 936 0
120 37 122 0
120 122 969 0
120 915 37 0
121 37 474 0
122 17 972 0
123 7 473 0
123 473 296 0
124 40 297 0
125 16 298 0
125 298 477 0
126 38 129 0
126 129 301 0
126 300 476 0
128 41 130 0
128 130 794 0
129 42 478 0
130 41 302 0
130 302 479 0
130 479 746 0
130 746 794 0
131 478 42 0
132 11 142 0
132 127 11 0
132 142 993 0
132 304 600 0
132 600 302 0
133 134 994 0
133 305 796 0
133 306 926 0
134 133 926 0
134 319 674 0
134 729 978 0
134 978 994 0
135 309 489 0
135 310 919 0
136 311 314 0
136 604 651 0
136 651 716 0
136 716 552 0
137 547 800 0
137 776 777 0
137 777 914 0
138 671 487 0
138 805 861 0
138 861 981 0
139 44 141 0
139 45 743 0
139 229 230 0
140 45 141 0
141 142 140 0
141 144 46 0
142 141 46 0
142 143 993 0
143 46 320 0
143 142 46 0
143 304 993 0
143 319 304 0
143 320 611 0
144 44 416 0
144 141 44 0
144 320 46 0
144 416 673 0
146 803 710 0
147 325 366 0
147 366 523 0
148 328 330 0
148 329 503 0
148 503 621 0
148 620 331 0
149 9 152 0
149 51 154 0
149 152 153 0
149 154 338 0
150 334 505 0
150 337 354 0
151 47 163 0
151 56 336 0
152 52 153 0
153 52 336 0
154 51 337 0
154 337 683 0
154 683 339 0
155 149 338 0
156 510 629 0
157 342 624 0
157 347 508 0
157 508 627 0
157 624 347 0
158 10 162 0
158 54 160 0
159 348 684 0
159 352 155 0
160 54 350 0
160 349 512 0
160 350 511 0
161 155 352 0
162 54 158 0
163 47 168 0
164 519 804 0
164 631 630 0
165 56 355 0
165 153 336 0
165 355 632 0
166 33 515 0
167 57 169 0
167 169 360 0
168 518 875 0
168 769 163 0
169 57 175 0
169 60 176 0
169 176 361 0
170 167 360 0
171 59 172 0
171 518 168 0
172 58 518 0
172 59 360 0
172 360 361 0
173 379 532 0
173 524 376 0
174 525 527 0
174 527 771 0
174 688 770 0
174 770 912 0
175 166 356 0
176 58 361 0
176 60 369 0
176 369 637 0
177 363 975 0
177 975 976 0
178 65 189 0
178 377 181 0
179 61 187 0
179 186 977 0
179 370 371 0
179 371 373 0
180 61 373 0
180 929 930 0
181 5 178 0
182 62 183 0
182 183 522 0
183 62 377 0
183 63 522 0
183 377 639 0
183 639 63 0
184 63 772 0
184 378 932 0
184 379 531 0
184 531 63 0
185 31 268 0
185 268 456 0
185 456 747 0
185 459 934 0
186 64 457 0
186 179 187 0
186 187 748 0
186 457 885 0
186 885 977 0
187 61 189 0
187 188 748 0
188 65 271 0
188 187 189 0
188 271 935 0
189 61 690 0
190 288 465 0
190 381 464 0
191 8 286 0
191 116 287 0
191 287 382 0
192 73 207 0
192 207 389 0
192 389 537 0
193 199 402 0
193 402 749 0
193 749 778 0
193 778 878 0
194 394 749 0
194 749 780 0
195 67 392 0
195 68 541 0
195 392 396 0
196 391 398 0
196 396 391 0
196 398 538 0
197 31 460 0
197 268 31 0
197 460 582 0
198 195 541 0
198 400 692 0
199 68 402 0
199 193 447 0
199 401 541 0
199 447 569 0
200 70 201 0
200 554 542 0
201 6 554 0
202 408 559 0
202 410 549 0
202 718 550 0
203 125 475 0
203 411 649 0
203 475 545 0
204 22 391 0
205 392 413 0
206 192 390 0
207 73 744 0
207 413 389 0
207 742 412 0
208 74 417 0
208 158 513 0
209 44 230 0
209 230 417 0
210 419 922 0
210 420 557 0
212 76 214 0
212 214 77 0
213 20 542 0
213 77 555 0
214 76 211 0
214 211 215 0
214 555 77 0
215 219 555 0
215 220 219 0
215 418 220 0
216 750 783 0
216 946 750 0
216 964 946 0
217 100 218 0
217 970 971 0
218 78 965 0
218 423 424 0
219 421 424 0
219 424 555 0
220 80 429 0
220 420 219 0
220 429 557 0
221 81 428 0
222 82 225 0
222 225 432 0
222 432 785 0
223 82 426 0
223 124 297 0
224 38 476 0
224 83 434 0
224 433 83 0
225 82 227 0
225 83 995 0
225 227 434 0
226 84 296 0
226 224 434 0
226 296 945 0
227 223 297 0
228 208 417 0
228 230 967 0
229 139 743 0
230 228 417 0
230 229 967 0
233 88 234 0
233 234 751 0
234 88 964 0
235 14 237 0
235 36 232 0
235 89 968 0
235 232 14 0
236 90 254 0
236 254 256 0
236 256 442 0
236 442 653 0
237 14 252 0
237 89 235 0
237 90 89 0
237 252 253 0
238 261 449 0
238 449 786 0
239 91 242 0
239 242 243 0
239 451 91 0
240 18 245 0
240 245 246 0
240 246 752 0
241 240 752 0
241 438 240 0
241 448 238 0
241 752 947 0
242 91 947 0
242 244 243 0
242 439 244 0
244 248 243 0
245 18 393 0
245 95 246 0
246 97 883 0
247 70 200 0
247 97 441 0
247 200 92 0
248 98 562 0
248 244 98 0
249 25 971 0
249 99 652 0
250 89 561 0
250 561 652 0
251 27 255 0
251 101 274 0
251 255 443 0
251 564 27 0
252 101 253 0
252 111 461 0
253 101 443 0
254 102 256 0
254 253 443 0
255 27 262 0
255 102 443 0
255 262 263 0
256 19 442 0
256 102 452 0
257 256 452 0
257 452 575 0
258 103 259 0
258 259 871 0
259 103 565 0
259 277 871 0
259 565 655 0
260 103 265 0
260 262 27 0
260 265 754 0
261 238 448 0
261 448 574 0
261 574 904 0
262 260 754 0
262 754 821 0
263 262 454 0
263 454 576 0
264 28 998 0
264 822 877 0
265 103 267 0
265 267 455 0
265 455 873 0
266 26 773 0
266 105 872 0
266 267 755 0
266 773 105 0
267 258 755 0
267 266 872 0
268 108 933 0
268 197 399 0
269 64 747 0
269 456 458 0
269 458 579 0
270 108 881 0
270 458 108 0
271 109 459 0
271 459 935 0
272 110 583 0
272 185 934 0
274 101 461 0
274 275 281 0
275 32 280 0
275 280 281 0
275 461 584 0
275 584 32 0
276 32 293 0
276 293 594 0
277 259 655 0
278 282 587 0
278 678 709 0
279 112 758 0
279 587 588 0
279 759 463 0
280 276 588 0
280 661 281 0
281 654 698 0
282 278 586 0
282 563 654 0
282 586 563 0
283 113 462 0
283 115 371 0
284 372 681 0
285 190 464 0
285 592 663 0
286 593 116 0
286 622 327 0
287 116 464 0
287 381 382 0
288 190 35 0
288 597 667 0
289 66 381 0
289 117 385 0
289 381 465 0
290 15 384 0
290 385 558 0
291 664 675 0
291 675 997 0
291 997 466 0
292 35 663 0
292 985 469 0
293 32 584 0
294 292 469 0
294 594 596 0
295 38 945 0
295 794 42 0
296 40 123 0
296 297 40 0
296 473 945 0
297 296 84 0
298 121 474 0
298 300 477 0
298 474 599 0
299 407 795 0
299 795 301 0
300 126 301 0
300 298 599 0
301 129 478 0
302 127 132 0
302 600 479 0
303 299 301 0
303 478 131 0
303 886 299 0
304 132 993 0
304 319 926 0
305 133 994 0
305 480 796 0
305 978 602 0
306 304 926 0
307 131 763 0
307 760 131 0
307 761 760 0
307 763 764 0
308 736 482 0
309 480 602 0
310 135 489 0
310 489 318 0
310 765 919 0
310 766 765 0
311 136 552 0
311 313 314 0
311 414 509 0
312 43 989 0
312 342 343 0
312 798 909 0
314 313 910 0
314 484 604 0
315 486 829 0
315 799 486 0
316 485 605 0
316 486 799 0
316 799 807 0
317 831 605 0
317 843 854 0
318 489 669 0
318 669 827 0
319 134 926 0
319 143 611 0
319 611 674 0
320 144 673 0
320 673 707 0
321 49 494 0
321 145 500 0
321 494 493 0
322 492 927 0
322 687 633 0
323 493 494 0
323 494 927 0
324 34 803 0
324 146 362 0
324 362 532 0
324 938 34 0
325 48 365 0
325 147 330 0
325 365 366 0
326 332 619 0
326 523 635 0
328 148 621 0
328 325 330 0
328 621 631 0
329 50 502 0
329 148 331 0
329 331 768 0
329 502 503 0
330 147 498 0
330 498 620 0
331 619 864 0
332 496 49 0
333 499 500 0
333 902 499 0
334 150 335 0
334 335 502 0
334 501 504 0
334 504 505 0
335 150 632 0
337 51 354 0
337 150 505 0
337 505 683 0
338 159 155 0
339 338 154 0
339 344 348 0
339 348 338 0
340 156 341 0
340 313 509 0
341 53 624 0
341 313 340 0
341 911 313 0
342 157 343 0
342 312 909 0
342 909 911 0
343 157 627 0
344 339 623 0
344 345 346 0
344 623 345 0
344 626 348 0
345 533 346 0
345 913 383 0
346 53 629 0
346 533 928 0
346 629 626 0
347 53 928 0
347 533 640 0
347 624 53 0
347 640 508 0
348 159 338 0
348 626 684 0
349 509 512 0
349 511 510 0
350 159 684 0
350 352 159 0
351 74 513 0
351 512 414 0
351 553 74 0
352 350 54 0
353 48 631 0
353 517 918 0
353 804 359 0
354 165 632 0
355 164 630 0
355 519 164 0
355 630 632 0
356 166 515 0
356 177 60 0
357 359 516 0
357 517 359 0
358 58 637 0
358 516 875 0
359 517 353 0
360 169 361 0
362 146 520 0
362 520 686 0
363 364 521 0
363 368 975 0
364 375 522 0
364 522 63 0
365 48 918 0
366 365 770 0
367 524 712 0
367 636 771 0
367 771 833 0
368 363 521 0
368 529 975 0
369 60 976 0
369 529 689 0
369 689 942 0
370 179 977 0
370 283 371 0
370 885 773 0
371 115 372 0
371 372 373 0
372 115 681 0
372 180 373 0
372 929 180 0
374 530 930 0
374 931 378 0
375 182 522 0
375 364 363 0
376 379 173 0
377 178 690 0
378 772 374 0
378 931 938 0
379 184 932 0
379 376 531 0
380 773 885 0
381 66 382 0
381 190 465 0
381 287 464 0
382 66 536 0
383 534 691 0
384 386 290 0
385 117 558 0
385 290 386 0
385 386 775 0
386 384 914 0
386 535 775 0
387 315 829 0
387 506 848 0
387 848 990 0
389 67 641 0
390 537 583 0
390 583 110 0
391 22 398 0
391 205 204 0
392 67 413 0
392 205 391 0
393 642 778 0
393 779 245 0
394 24 779 0
394 393 778 0
395 96 403 0
395 194 538 0
395 538 539 0
396 196 397 0
396 392 391 0
397 196 538 0
397 402 68 0
397 538 780 0
398 94 539 0
399 197 540 0
399 540 879 0
400 69 692 0
400 198 541 0
400 446 69 0
401 199 569 0
401 400 541 0
401 569 949 0
402 397 780 0
403 70 441 0
403 96 543 0
405 71 545 0
405 404 837 0
405 545 647 0
406 404 405 0
406 405 647 0
407 299 782 0
407 406 647 0
408 202 549 0
408 409 546 0
409 408 549 0
409 549 939 0
410 71 646 0
410 202 550 0
410 646 694 0
411 71 550 0
411 550 649 0
412 205 413 0
412 742 72 0
413 207 412 0
414 311 552 0
414 553 351 0
415 74 553 0
415 209 417 0
415 416 209 0
418 80 220 0
418 215 211 0
420 220 557 0
420 421 219 0
421 78 424 0
421 210 783 0
421 420 210 0
421 750 78 0
422 249 971 0
422 964 925 0
423 100 20 0
423 213 555 0
424 423 555 0
425 426 556 0
425 556 79 0
426 425 741 0
426 430 556 0
427 430 431 0
428 429 80 0
429 79 556 0
430 82 222 0
430 222 431 0
430 426 82 0
431 222 785 0
431 419 427 0
431 923 419 0
432 225 995 0
432 784 887 0
432 924 784 0
433 224 476 0
433 476 599 0
433 599 916 0
434 84 226 0
435 231 436 0
435 471 665 0
436 231 437 0
436 558 435 0
437 231 560 0
438 238 786 0
438 241 238 0
440 98 244 0
440 244 882 0
441 24 403 0
441 95 24 0
442 248 562 0
442 562 653 0
444 19 257 0
444 257 575 0
444 658 451 0
445 568 891 0
445 813 897 0
445 838 693 0
446 400 401 0
446 401 949 0
447 193 878 0
447 570 816 0
448 91 451 0
448 241 91 0
448 451 574 0
449 104 568 0
449 261 450 0
449 568 786 0
450 841 961 0
450 904 982 0
451 239 444 0
451 658 574 0
452 263 576 0
452 576 700 0
453 787 906 0
453 788 896 0
454 262 821 0
454 821 863 0
455 578 873 0
455 872 895 0
456 268 933 0
456 269 747 0
457 269 579 0
457 579 823 0
457 823 885 0
458 270 580 0
458 456 933 0
459 64 935 0
459 109 934 0
459 185 747 0
460 272 583 0
460 583 715 0
461 275 274 0
462 113 585 0
462 585 680 0
463 278 587 0
465 288 667 0
466 589 591 0
466 662 986 0
466 842 662 0
467 50 590 0
467 590 708 0
468 291 591 0
468 592 593 0
469 985 983 0
470 273 595 0
470 595 665 0
470 598 666 0
471 435 558 0
471 558 117 0
471 597 598 0
471 598 665 0
471 667 597 0
472 17 122 0
472 37 121 0
472 121 793 0
472 122 37 0
472 793 936 0
474 915 916 0
475 407 647 0
475 477 795 0
476 300 599 0
477 475 125 0
478 303 301 0
480 135 797 0
480 305 602 0
480 309 135 0
481 308 482 0
481 309 602 0
481 610 309 0
482 483 481 0
483 482 603 0
483 705 1001 0
484 909 798 0
485 316 548 0
485 317 605 0
485 843 317 0
486 316 605 0
486 605 831 0
486 607 829 0
487 485 805 0
487 671 843 0
488 608 989 0
488 672 608 0
489 309 610 0
490 842 997 0
490 852 612 0
491 617 725 0
491 677 944 0
492 633 520 0
493 145 321 0
493 323 847 0
493 618 145 0
494 49 917 0
494 917 927 0
495 284 616 0
495 616 725 0
495 710 803 0
495 803 937 0
496 322 917 0
496 326 635 0
496 332 326 0
496 635 687 0
497 467 664 0
497 664 702 0
498 326 619 0
498 523 326 0
498 619 620 0
499 321 500 0
500 145 844 0
500 832 333 0
500 844 832 0
501 50 497 0
501 327 504 0
501 334 502 0
501 702 327 0
502 335 503 0
503 335 514 0
503 514 621 0
505 504 622 0
506 387 829 0
506 627 628 0
507 640 691 0
507 714 685 0
508 628 627 0
508 640 507 0
509 313 311 0
509 349 340 0
509 414 512 0
510 156 340 0
510 340 349 0
511 349 160 0
511 350 684 0
512 351 513 0
512 513 160 0
513 158 160 0
515 33 375 0
515 177 356 0
515 363 177 0
515 375 363 0
516 359 804 0
516 526 357 0
517 525 918 0
518 171 172 0
518 358 875 0
519 56 769 0
519 355 56 0
520 633 686 0
520 682 492 0
521 364 531 0
521 376 524 0
521 524 368 0
523 366 711 0
523 498 147 0
523 711 726 0
524 173 712 0
524 528 368 0
525 174 912 0
525 517 357 0
525 638 527 0
525 912 918 0
526 358 637 0
526 516 358 0
526 637 942 0
526 638 357 0
527 638 920 0
528 524 367 0
528 529 368 0
528 920 689 0
529 369 976 0
530 180 930 0
530 374 639 0
530 639 690 0
531 364 63 0
531 376 521 0
532 379 932 0
532 634 173 0
532 932 938 0
533 345 383 0
533 347 928 0
533 383 691 0
534 383 913 0
534 536 714 0
534 913 382 0
535 386 777 0
536 388 991 0
536 534 382 0
536 991 714 0
537 389 641 0
537 390 192 0
537 641 715 0
538 194 780 0
538 398 539 0
540 643 879 0
543 70 403 0
544 765 766 0
544 766 828 0
544 828 898 0
544 960 404 0
545 411 203 0
545 475 647 0
546 384 15 0
546 409 547 0
547 409 806 0
547 806 807 0
548 316 807 0
548 648 805 0
548 805 485 0
549 410 694 0
549 694 939 0
551 118 793 0
551 203 649 0
551 649 695 0
553 414 717 0
553 717 738 0
554 77 542 0
554 200 201 0
555 214 215 0
556 427 429 0
556 430 427 0
557 419 210 0
557 427 419 0
557 429 427 0
558 436 290 0
559 15 437 0
559 437 697 0
560 650 719 0
560 697 437 0
560 719 697 0
561 90 653 0
562 249 652 0
562 652 653 0
563 277 655 0
563 586 277 0
564 251 274 0
564 274 281 0
564 281 698 0
564 565 27 0
565 260 27 0
565 564 698 0
566 810 954 0
566 811 979 0
567 813 891 0
567 955 813 0
568 445 693 0
568 849 786 0
569 447 816 0
570 447 878 0
570 834 900 0
571 644 818 0
571 810 890 0
572 835 950 0
572 908 876 0
573 720 839 0
573 956 892 0
574 658 732 0
575 452 700 0
576 454 863 0
577 821 820 0
577 851 699 0
577 863 821 0
578 455 895 0
578 822 880 0
579 458 580 0
579 580 659 0
579 659 823 0
580 789 659 0
580 791 789 0
581 825 896 0
582 69 540 0
582 460 715 0
582 540 197 0
582 692 69 0
585 277 660 0
585 660 724 0
585 871 277 0
586 278 709 0
586 660 277 0
587 279 463 0
587 282 661 0
588 276 112 0
588 587 661 0
588 661 280 0
589 292 663 0
589 466 986 0
589 663 591 0
590 768 701 0
591 291 466 0
591 592 468 0
592 116 593 0
592 285 464 0
592 464 116 0
592 591 663 0
593 286 327 0
593 327 702 0
593 702 468 0
594 112 276 0
594 294 469 0
595 273 87 0
595 560 231 0
596 293 666 0
596 594 293 0
596 597 703 0
598 470 665 0
598 596 666 0
598 597 596 0
599 474 916 0
600 304 306 0
601 760 761 0
601 761 797 0
601 886 760 0
602 308 481 0
603 482 696 0
603 668 733 0
603 705 483 0
604 136 314 0
604 670 723 0
606 138 981 0
607 486 831 0
607 625 829 0
608 670 798 0
608 672 855 0
609 317 854 0
609 672 488 0
610 481 483 0
610 483 1001 0
610 669 489 0
611 320 707 0
612 333 832 0
612 852 333 0
613 676 845 0
613 845 940 0
614 616 681 0
615 491 944 0
615 845 858 0
615 857 491 0
616 284 681 0
617 491 857 0
617 710 725 0
617 846 941 0
618 493 847 0
618 847 980 0
618 859 943 0
618 943 951 0
618 951 145 0
619 331 620 0
619 332 722 0
619 722 864 0
620 148 330 0
621 630 631 0
622 504 327 0
623 8 345 0
623 339 683 0
623 683 622 0
624 911 341 0
625 43 343 0
625 506 829 0
625 607 43 0
625 627 506 0
626 344 346 0
627 625 343 0
628 507 685 0
628 508 507 0
628 685 848 0
629 510 684 0
630 514 632 0
630 621 514 0
631 164 353 0
632 150 354 0
632 514 335 0
633 492 322 0
633 687 728 0
634 362 686 0
634 532 362 0
634 686 713 0
634 713 712 0
635 523 726 0
636 367 712 0
636 688 771 0
637 369 942 0
638 525 357 0
639 374 772 0
639 377 690 0
640 533 691 0
641 198 692 0
641 692 715 0
642 834 878 0
643 446 835 0
643 540 69 0
644 108 399 0
644 399 879 0
644 571 881 0
645 860 960 0
645 862 860 0
646 405 837 0
648 861 805 0
649 550 718 0
650 87 232 0
650 232 36 0
651 604 668 0
651 696 730 0
651 730 716 0
652 561 653 0
654 655 698 0
654 661 282 0
655 565 698 0
655 654 563 0
656 572 950 0
656 817 838 0
656 838 908 0
657 699 851 0
658 444 575 0
658 575 700 0
658 700 868 0
659 774 823 0
659 789 884 0
660 586 709 0
660 709 724 0
661 654 281 0
662 901 959 0
664 291 468 0
664 467 675 0
665 231 435 0
665 595 231 0
666 111 470 0
666 293 584 0
668 604 723 0
668 723 733 0
669 610 856 0
669 856 865 0
670 484 798 0
670 604 484 0
670 608 855 0
671 138 606 0
671 606 903 0
672 609 854 0
672 854 905 0
673 416 706 0
673 706 739 0
674 611 707 0
674 707 740 0
674 729 134 0
675 467 708 0
675 708 999 0
676 613 678 0
676 678 888 0
677 614 679 0
677 616 614 0
677 679 944 0
677 725 616 0
678 114 888 0
678 613 709 0
679 614 680 0
679 680 724 0
679 724 940 0
679 940 944 0
680 115 462 0
680 585 724 0
682 146 710 0
682 520 146 0
682 710 941 0
682 941 952 0
683 505 622 0
684 510 511 0
684 626 629 0
685 714 991 0
686 633 728 0
687 322 496 0
687 635 726 0
687 726 728 0
688 174 771 0
688 636 727 0
688 711 770 0
689 529 528 0
690 61 530 0
690 178 189 0
691 534 714 0
692 582 715 0
693 834 850 0
694 646 860 0
694 860 862 0
694 862 939 0
695 118 551 0
695 649 718 0
696 482 736 0
696 651 668 0
696 668 603 0
696 736 730 0
697 202 559 0
700 576 721 0
700 721 868 0
702 501 497 0
702 664 468 0
703 288 35 0
703 294 596 0
703 597 288 0
704 843 853 0
704 853 866 0
704 866 870 0
704 870 905 0
705 603 733 0
705 733 1000 0
705 856 1001 0
706 415 553 0
706 416 415 0
706 553 738 0
707 673 739 0
707 739 740 0
708 590 701 0
708 852 999 0
709 613 724 0
710 495 725 0
710 617 941 0
711 366 770 0
711 688 727 0
712 173 634 0
712 713 636 0
713 686 728 0
714 507 691 0
715 583 537 0
716 717 552 0
717 414 552 0
717 716 731 0
718 202 697 0
719 650 695 0
719 695 718 0
719 718 697 0
720 573 841 0
720 657 839 0
720 841 982 0
721 576 863 0
721 699 867 0
721 863 699 0
721 867 868 0
722 49 499 0
724 613 940 0
725 677 491 0
726 711 727 0
726 727 728 0
727 636 713 0
727 713 728 0
729 308 978 0
729 674 740 0
729 736 308 0
729 737 736 0
730 731 716 0
731 730 737 0
731 739 738 0
732 658 868 0
732 867 904 0
733 723 734 0
733 734 1000 0
734 723 855 0
734 869 1000 0
735 469 983 0
735 758 826 0
735 826 469 0
736 737 730 0
737 729 740 0
738 717 731 0
738 739 706 0
739 731 740 0
740 731 737 0
741 425 85 0
742 207 744 0
745 440 882 0
746 42 794 0
748 188 935 0
749 394 778 0
749 402 780 0
750 421 783 0
750 946 965 0
751 216 921 0
751 234 216 0
751 809 233 0
752 246 883 0
753 438 786 0
754 820 821 0
755 113 26 0
756 774 884 0
756 872 105 0
756 884 877 0
756 895 872 0
757 264 877 0
757 789 790 0
757 884 789 0
758 957 759 0
759 279 758 0
759 889 463 0
760 303 131 0
761 307 762 0
762 306 133 0
762 307 764 0
762 764 306 0
762 796 761 0
763 42 746 0
763 746 479 0
764 479 600 0
764 600 306 0
764 763 479 0
765 544 781 0
766 310 318 0
766 318 827 0
766 827 828 0
767 832 844 0
767 844 951 0
767 901 992 0
767 951 958 0
767 958 1002 0
768 590 329 0
769 804 519 0
769 875 804 0
770 365 912 0
771 527 833 0
772 378 184 0
773 380 105 0
774 380 823 0
774 659 884 0
774 756 105 0
775 289 385 0
775 388 66 0
775 987 388 0
776 137 800 0
776 315 387 0
776 387 990 0
776 800 315 0
777 386 914 0
777 776 984 0
778 642 878 0
779 393 394 0
781 404 406 0
781 544 404 0
781 782 12 0
782 299 886 0
782 406 407 0
782 781 406 0
783 210 922 0
783 921 216 0
783 922 921 0
784 120 808 0
784 808 887 0
784 915 120 0
785 13 923 0
785 432 887 0
785 887 13 0
786 849 753 0
787 453 896 0
787 825 956 0
787 840 906 0
788 28 792 0
788 894 998 0
791 270 874 0
791 580 270 0
791 790 789 0
791 812 790 0
791 874 812 0
792 790 812 0
792 824 581 0
793 16 551 0
793 118 936 0
793 121 16 0
794 7 128 0
794 295 473 0
795 300 301 0
795 407 475 0
795 477 300 0
796 762 133 0
797 761 796 0
797 796 480 0
798 989 608 0
800 799 315 0
800 807 799 0
802 889 957 0
802 957 974 0
803 34 937 0
803 146 324 0
804 353 164 0
804 875 516 0
805 138 487 0
806 409 939 0
806 548 807 0
806 648 548 0
806 939 648 0
807 800 547 0
808 233 809 0
808 809 887 0
809 921 13 0
810 566 890 0
810 571 818 0
810 876 954 0
811 566 954 0
811 813 955 0
811 814 979 0
811 954 897 0
812 874 890 0
813 811 897 0
814 581 824 0
814 811 955 0
814 824 979 0
814 825 581 0
815 567 892 0
815 814 955 0
815 825 814 0
815 955 567 0
816 570 817 0
816 656 950 0
817 656 816 0
817 900 838 0
818 644 836 0
819 880 907 0
820 873 880 0
820 996 577 0
822 264 907 0
822 578 895 0
823 380 885 0
824 566 979 0
824 792 812 0
824 890 566 0
825 787 896 0
825 815 956 0
826 594 469 0
826 758 112 0
827 606 828 0
827 669 865 0
827 903 606 0
828 606 981 0
830 43 607 0
830 488 43 0
830 607 831 0
830 609 488 0
831 317 609 0
831 609 830 0
832 767 992 0
833 527 920 0
833 528 367 0
834 570 878 0
834 642 850 0
834 693 900 0
835 446 949 0
835 572 836 0
835 949 950 0
836 572 876 0
836 644 879 0
836 876 818 0
836 879 835 0
837 404 960 0
837 860 646 0
838 445 897 0
838 900 693 0
839 893 840 0
840 573 839 0
840 787 956 0
840 893 906 0
840 956 573 0
841 450 982 0
842 490 992 0
842 992 901 0
843 485 487 0
843 671 853 0
843 704 854 0
845 615 944 0
845 676 801 0
845 801 858 0
846 617 857 0
847 323 846 0
847 846 857 0
847 857 980 0
848 506 628 0
848 685 988 0
849 568 693 0
849 693 850 0
850 642 753 0
850 753 849 0
851 577 996 0
851 893 657 0
852 490 999 0
852 701 902 0
852 708 701 0
852 902 333 0
854 704 905 0
855 723 670 0
856 610 1001 0
857 859 980 0
858 801 953 0
859 615 858 0
859 618 980 0
859 857 615 0
859 858 953 0
860 837 960 0
861 645 898 0
861 648 862 0
861 898 981 0
862 645 861 0
863 577 699 0
864 701 768 0
864 722 902 0
864 768 331 0
864 902 701 0
865 856 869 0
866 853 903 0
866 869 870 0
867 657 720 0
867 699 657 0
867 720 904 0
867 732 868 0
869 705 1000 0
869 734 870 0
869 856 705 0
869 866 865 0
871 585 113 0
872 455 267 0
873 578 880 0
873 754 265 0
873 820 754 0
874 571 890 0
874 881 571 0
875 769 168 0
876 810 818 0
876 908 954 0
877 822 895 0
877 884 757 0
877 895 756 0
879 643 835 0
880 819 996 0
880 822 907 0
881 874 270 0
882 244 439 0
883 21 439 0
885 370 977 0
886 303 760 0
886 601 12 0
887 809 13 0
888 114 889 0
888 889 802 0
889 114 463 0
889 759 957 0
890 824 812 0
891 813 445 0
892 567 961 0
892 841 573 0
893 839 657 0
893 851 963 0
894 453 906 0
894 788 453 0
894 819 907 0
894 906 819 0
894 907 998 0
896 788 792 0
896 792 581 0
897 908 838 0
898 828 981 0
898 960 544 0
899 676 888 0
899 801 676 0
899 802 973 0
899 888 802 0
899 973 966 0
900 817 570 0
901 662 842 0
901 767 1002 0
902 722 499 0
903 827 865 0
903 853 671 0
903 865 866 0
904 450 261 0
904 574 732 0
904 720 982 0
905 734 855 0
905 855 672 0
905 870 734 0
906 893 963 0
907 264 998 0
908 572 656 0
909 910 911 0
910 313 911 0
910 484 314 0
910 909 484 0
911 624 342 0
912 365 918 0
913 191 382 0
913 345 8 0
914 384 546 0
914 546 547 0
914 547 137 0
915 784 924 0
916 83 433 0
917 322 927 0
919 12 601 0
919 601 797 0
919 797 135 0
920 528 833 0
920 942 689 0
921 809 751 0
922 419 923 0
922 923 13 0
923 431 785 0
924 432 995 0
924 916 915 0
925 88 972 0
925 99 422 0
925 964 88 0
927 492 952 0
929 284 937 0
929 372 284 0
931 34 938 0
931 374 930 0
931 929 937 0
931 930 929 0
931 937 34 0
932 378 938 0
936 968 119 0
937 284 495 0
938 324 532 0
939 862 648 0
940 845 944 0
941 846 952 0
942 638 526 0
942 920 638 0
943 859 953 0
945 473 295 0
946 422 970 0
946 964 422 0
947 439 242 0
947 752 883 0
947 883 439 0
948 958 966 0
948 973 1003 0
949 569 816 0
949 816 950 0
951 844 145 0
951 943 958 0
952 323 927 0
952 492 682 0
952 846 323 0
954 908 897 0
956 815 892 0
957 758 735 0
958 943 953 0
958 948 1002 0
958 953 966 0
959 901 1002 0
959 962 986 0
959 986 662 0
960 898 645 0
961 567 891 0
961 841 892 0
962 735 983 0
962 959 1003 0
962 983 986 0
963 819 906 0
963 996 819 0
964 216 234 0
965 217 218 0
965 970 217 0
966 801 899 0
966 953 801 0
968 936 36 0
969 233 808 0
969 808 120 0
969 972 88 0
970 422 971 0
970 965 946 0
972 969 122 0
973 802 974 0
973 948 966 0
973 974 1003 0
974 735 962 0
974 957 735 0
974 962 1003 0
975 529 976 0
978 305 994 0
978 308 602 0
984 535 777 0
984 776 990 0
984 987 535 0
985 292 589 0
985 589 986 0
986 983 985 0
987 775 535 0
987 984 988 0
988 685 991 0
988 990 848 0
988 991 987 0
989 798 312 0
990 988 984 0
991 388 987 0
992 490 612 0
992 612 832 0
996 820 880 0
996 963 851 0
997 842 466 0
997 999 490 0
999 997 675 0
1002 1003 959 0
1003 1002 948 0

End
