MeshVersionFormatted 1

Dimension
2

Vertices
77
0.0 0.0 1
0.5 0.0 1
0.5 0.5 1
0.0 0.5 1
0.25 0.0 1
0.5 0.25 1
0.25 0.5 1
0.0 0.375 1
0.125 0.5 1
0.5 0.125 1
0.21117785940000242 0.12135288224742981 0
0.125 0.0 1
0.1922588711520844 0.1816865395524167 0
0.375 0.5 1
0.0625 0.5 1
0.0 0.1875 1
0.0 0.0625 1
0.4375 0.0 1
0.5 0.375 1
0.10099929990542261 0.23046403672802612 0
0.13738837861079434 0.18242435976904375 0
0.388140339856652 0.35008099729462056 0
0.2539327224115782 0.17903825368799073 0
0.30240643146502966 0.41740868099869816 0
0.24924139899450018 0.3667669293460752 0
0.12430331302020961 0.3477189360098253 0
0.3087060565555645 0.11093059437989215 0
0.34754679507386554 0.21683453319473525 0
0.11934803764553113 0.386259710373914 0
0.32830768439442537 0.2815852307092009 0
0.41511486808537756 0.2400976415595686 0
0.42290228139181113 0.14584452472333967 0
0.0 0.3125 1
0.1999261360572635 0.34103690923246693 0
0.36951420062035817 0.06190539517634719 0
0.34096991609727995 0.14964606275326284 0
0.3209378272603698 0.1471873114736738 0
0.14423503510424304 0.11086085281485197 0
0.19004096825562536 0.06443179541164816 0
0.1985100029863123 0.38792253080777644 0
0.43328867458507275 0.07458795988140672 0
0.3125 0.0 1
0.11660007536545865 0.06425860323907398 0
0.5 0.1875 1
0.2239100259364809 0.22888558555042396 0
0.15965939765388276 0.22183728347924858 0
0.16859042996929635 0.27640141963358966 0
0.2437992100182646 0.2974672923307513 0
0.07020408642890993 0.3746383698981074 0
0.2828432918061515 0.23244427281333185 0
0.054702830713265434 0.44652998693010204 0
0.060604584780944354 0.10050841733457395 0
0.11151242771867724 0.13056411029288592 0
0.26942235080972965 0.07044848598162909 0
0.2752440105806171 0.12992057539662047 0
0.1491692625980763 0.3296181686057432 0
0.3652665418600486 0.14351895036678175 0
0.3413124075224757 0.16792177953998116 0
0.154432543537355 0.3721003030253929 0
0.3744915727650122 0.12055123863572266 0
0.16383283871252757 0.42614413876647295 0
0.23322820693853463 0.41435799963893516 0
0.342183713152703 0.10847428691947791 0
0.089228008133276 0.3071772383069712 0
0.30803471569134383 0.35061174016860197 0
0.3082359661801206 0.1768759654333624 0
0.3209358291860825 0.06634527562825612 0
0.06820827751927779 0.18326205553885566 0
0.0 0.25 1
0.5 0.3125 1
0.0625 0.0 1
0.13943608004182736 0.14662838915472468 0
0.16343371404870072 0.14509343936497535 0
0.106145541839729 0.4301225794711752 0
0.37268676277606155 0.18577252060832392 0
0.0 0.4375 1
0.375 0.0 1

Edges
25
1 17 1
1 71 1
2 10 1
2 18 1
3 14 1
3 19 1
4 15 1
4 76 1
5 12 1
5 42 1
6 44 1
6 70 1
7 9 1
7 14 1
8 33 1
8 76 1
9 15 1
10 44 1
12 71 1
16 17 1
16 69 1
18 77 1
19 70 1
33 69 1
42 77 1

Triangles
127
2 10 41 0
2 41 18 0
4 51 15 0
7 9 61 0
9 74 61 0
10 32 41 0
11 13 73 0
11 23 13 0
11 54 55 0
12 5 39 0
13 21 73 0
13 23 45 0
14 7 24 0
15 74 9 0
16 17 52 0
17 1 71 0
19 3 14 0
20 21 46 0
20 46 47 0
20 47 64 0
20 64 69 0
21 13 46 0
21 20 68 0
21 53 72 0
21 72 73 0
22 14 24 0
22 19 14 0
22 30 31 0
22 65 30 0
23 11 55 0
23 66 50 0
24 7 62 0
24 25 65 0
25 24 62 0
25 34 48 0
25 48 65 0
26 29 49 0
26 49 64 0
26 59 29 0
27 37 55 0
27 54 67 0
28 31 30 0
28 58 75 0
28 66 58 0
29 59 61 0
29 61 74 0
30 50 28 0
31 6 70 0
31 44 6 0
31 75 32 0
32 10 44 0
32 57 60 0
32 60 41 0
33 49 8 0
34 40 59 0
34 47 48 0
35 41 60 0
35 60 63 0
35 63 67 0
35 77 18 0
36 57 58 0
37 36 58 0
37 63 36 0
38 11 73 0
38 39 11 0
38 43 39 0
38 53 43 0
39 54 11 0
40 25 62 0
40 34 25 0
41 35 18 0
42 35 67 0
42 54 5 0
43 12 39 0
44 31 32 0
45 23 50 0
45 46 13 0
47 34 56 0
47 46 45 0
48 47 45 0
49 33 64 0
49 51 8 0
49 74 51 0
50 30 48 0
50 48 45 0
50 66 28 0
51 76 8 0
52 17 71 0
52 43 53 0
52 53 68 0
52 71 43 0
53 21 68 0
53 38 72 0
54 27 55 0
54 39 5 0
54 42 67 0
55 37 66 0
56 59 26 0
56 64 47 0
57 32 75 0
57 63 60 0
58 57 75 0
59 40 61 0
59 56 34 0
61 40 62 0
62 7 61 0
63 27 67 0
63 37 27 0
63 57 36 0
64 56 26 0
65 22 24 0
65 48 30 0
66 23 55 0
66 37 58 0
68 16 52 0
68 20 69 0
68 69 16 0
69 64 33 0
70 19 22 0
70 22 31 0
71 12 43 0
72 38 73 0
74 15 51 0
74 49 29 0
75 31 28 0
76 51 4 0
77 35 42 0

End
