MeshVersionFormatted 1

Dimension
2

Vertices
513
0.0 0.0 1
0.5 0.0 1
0.5 0.5 1
0.0 0.5 1
0.25 0.0 1
0.5 0.25 1
0.25 0.5 1
0.12126543404210859 0.24963944570065286 0
0.0 0.25 1
0.0 0.375 1
0.125 0.5 1
0.18655981129214386 0.37922377517754763 0
0.3379731867630065 0.36637317450933754 0
0.2755587992557807 0.2519003039812788 0
0.27616233438677296 0.3324274700218753 0
0.3182398065182817 0.2937367028752665 0
0.37996878343985824 0.17551978592644826 0
0.40684526686741546 0.26669682600391087 0
0.3740769803288064 0.2281617550262128 0
0.5 0.125 1
0.5 0.1875 1
0.4298312450672194 0.1871360418857818 0
0.3691525526080427 0.24824196141935967 0
0.2644002088582496 0.12173393611980829 0
0.3354901343686496 0.14356842862667543 0
0.375 0.0 1
0.3125 0.0 1
0.35667984241533107 0.0645527219150211 0
0.18428428412280445 0.17998651027040588 0
0.22888721947892282 0.1662219767883861 0
0.125 0.0 1
0.18279519498399213 0.10608972270514498 0
0.28326616070838656 0.3019573723418306 0
0.30940968413395625 0.35101528129264253 0
0.3003053473274954 0.4265422584435712 0
0.375 0.5 1
0.3125 0.5 1
0.2559593321129922 0.38149062324872013 0
0.1875 0.5 1
0.2414543354683344 0.462689519890739 0
0.1434690875009633 0.43495541009999655 0
0.1314717417659323 0.38608645120782165 0
0.14617115511245213 0.3257245909668042 0
0.06785257645768304 0.4566020306356522 0
0.0625 0.5 1
0.10192206859300554 0.4646259793125029 0
0.0 0.125 1
0.08721877390267647 0.14010347171677584 0
0.15810470032139454 0.13692815600888977 0
0.0 0.1875 1
0.09512707614927833 0.2977870867817589 0
0.04772196487100462 0.31115948056204146 0
0.0 0.3125 1
0.03550030888659958 0.15138676529455802 0
0.0625 0.0 1
0.051322298664596415 0.07838344802753817 0
0.0 0.0625 1
0.13519553551253882 0.06364903847182728 0
0.0958854273537591 0.045096763683588524 0
0.23892516760682145 0.040563217349596684 0
0.17573573418506044 0.04430160135690626 0
0.27688731787041665 0.057633901403735824 0
0.27547762028405237 0.028832175642226985 0
0.1605867045218104 0.27168251432223434 0
0.45384829193767 0.051650944378710935 0
0.4555335813287978 0.12102441720666449 0
0.3900203133619165 0.09356336961863874 0
0.4174755073560713 0.24480031608582015 0
0.2247052659054243 0.3505108436074431 0
0.5 0.0625 1
0.4375 0.0 1
0.5 0.375 1
0.4326566804137181 0.3651069635028569 0
0.5 0.3125 1
0.4310280899528606 0.2784579488680332 0
0.3820326207555389 0.3212314274184984 0
0.43609114412690647 0.43216975873356145 0
0.45969165314965793 0.3918582492307147 0
0.5 0.4375 1
0.36281377868339193 0.4573573383330415 0
0.33364784728506897 0.4284184129231779 0
0.32205595406283055 0.46277582094767766 0
0.4375 0.5 1
0.0 0.4375 1
0.25399642049451127 0.2667606971563776 0
0.3452792444451722 0.30346763165294444 0
0.29534905936271894 0.275630852524394 0
0.35621410162170525 0.20554495148869506 0
0.3783400296412312 0.19993649474427294 0
0.3449004655480139 0.23138315562581632 0
0.39422647968207536 0.24493355488858862 0
0.46399482682357324 0.16609352397996296 0
0.4078600404240198 0.16021261133283402 0
0.4030102609515701 0.2156943057844748 0
0.3278790373679291 0.246198842564631 0
0.38269860982258075 0.27586376507177907 0
0.2629320877560045 0.22829727766400068 0
0.27443800845601435 0.1553448207396785 0
0.35398572213836665 0.16360115609562054 0
0.3127237383042206 0.16767809459528799 0
0.28315259072268417 0.11912984527763555 0
0.34288161404015105 0.08718993476594081 0
0.34173328904449796 0.03631129653717709 0
0.37106704470896784 0.04290733103761418 0
0.25329512955655975 0.245582006493287 0
0.2702579975991271 0.19814508745882609 0
0.20215403998790643 0.20162121942178257 0
0.25940662560646177 0.14227667535897545 0
0.19815273134045303 0.17193245913206756 0
0.235092586360999 0.20655173208306002 0
0.2218989229677789 0.11023615002749496 0
0.193631680678138 0.2565186399324035 0
0.175602188029412 0.2163902457189668 0
0.30344871212458735 0.3220693990901532 0
0.2811707090294106 0.4608451616597242 0
0.26032914237841426 0.35719274320134525 0
0.230088503799374 0.3774652902613304 0
0.21259442977567297 0.4045470323110869 0
0.25928769678296565 0.4242503285362855 0
0.16020678759247434 0.4049972991225314 0
0.16685030796063927 0.4471268821139234 0
0.14605418973941298 0.39943552939042354 0
0.1685659787206417 0.38361449408704845 0
0.11233660512760496 0.3771126240233407 0
0.18202598311292556 0.32391386899532865 0
0.17396910956208228 0.3551339468123763 0
0.03609857783443573 0.4643047528888036 0
0.17839227920546638 0.16452593365504042 0
0.16998895253890867 0.11630030696815634 0
0.11560621296116944 0.13324014774476484 0
0.11461014087967715 0.22137259367367865 0
0.1039712617127609 0.15546947627431687 0
0.13288240083616634 0.16959050385696645 0
0.027181404033495428 0.21951515120873802 0
0.07644646802781865 0.19525028189475296 0
0.0586795663888913 0.21812062811324692 0
0.04222101632102116 0.25196347887244414 0
0.07758872410605187 0.24443486021621025 0
0.1196788294083431 0.30662517322363264 0
0.06656714426829925 0.2787176736769267 0
0.10136057055480148 0.26493116944282774 0
0.035282932552153985 0.3474320473180313 0
0.03078376215882922 0.2818992376844408 0
0.06767380076189583 0.33263597444556103 0
0.06355233418930491 0.14548071032052895 0
0.031579918131960066 0.10358706164258882 0
0.040005380067148016 0.04334141124105321 0
0.060261400213428754 0.1030516733585521 0
0.16331320557369372 0.0858026784617835 0
0.1065904238833636 0.026497460878693348 0
0.10895424439555425 0.10010481081006596 0
0.11533770859200976 0.05320055215155151 0
0.2507718908914987 0.10057091692766305 0
0.22968696181817394 0.08130796765751883 0
0.20165767039897556 0.029498558939448694 0
0.1551374880024804 0.06358302082958357 0
0.17906135703313417 0.09326788968572149 0
0.304619751186534 0.0443927899175494 0
0.29246724252430645 0.09994467393596766 0
0.1724813826896879 0.254081508560484 0
0.14002187136382888 0.2534049807860784 0
0.16159074784032934 0.28449519379054516 0
0.1680253329844855 0.30699658100355476 0
0.40553264266426664 0.03762736095286733 0
0.4717531662613816 0.09152600431795636 0
0.40707609544078316 0.13426335319408722 0
0.43234672066329755 0.1507159001510754 0
0.4406430599343275 0.09522546720605826 0
0.3663683041017391 0.08859834797096713 0
0.4122252171399356 0.07506787526858048 0
0.41234140918433343 0.10616749618327542 0
0.4614985604444339 0.20811804536521578 0
0.21899543222556 0.36574305439631327 0
0.2174303830250744 0.3331978375270603 0
0.24902072124669022 0.3346893607042569 0
0.06831535706666578 0.36572047853172124 0
0.45856660627366685 0.3462542775302086 0
0.4067898735638122 0.3625611650402528 0
0.37261185127497043 0.3373847457660961 0
0.3577410171928503 0.28404571341587836 0
0.40264009442730325 0.2919890734984033 0
0.4024738653308629 0.46153886996715315 0
0.3938818467133529 0.4244948198553693 0
0.3634100889247739 0.41808293977848593 0
0.31504894729657074 0.39894684843713135 0
0.037585925084438185 0.39199628205489667 0
0.22283104902150394 0.27970810779865707 0
0.26735544887713647 0.2815805229321116 0
0.36377111401665907 0.18489219433884785 0
0.39608328095439416 0.18350601383074852 0
0.3066124970124411 0.24594594081407264 0
0.32741738109178153 0.19543669420354245 0
0.36583486750978006 0.16939442257227308 0
0.37157809249487056 0.13018987821058106 0
0.3388146724432227 0.15345089068285991 0
0.3473573308867615 0.18465843079935407 0
0.3155453737764071 0.1424372100882652 0
0.2896361109801218 0.1525839320154654 0
0.30911384059056657 0.1348283128291596 0
0.307949463917356 0.10026203377002062 0
0.33237992651094417 0.12099355028298427 0
0.24196180645778445 0.22510913573974584 0
0.2508110916970079 0.20994267996135016 0
0.1878294659082819 0.19337022168343804 0
0.2148860906504066 0.20556316372001354 0
0.2413195588205961 0.1530718264973969 0
0.21838018174090223 0.1553172649823313 0
0.19195630288604917 0.1802224767596125 0
0.20235640433391625 0.1848986222478247 0
0.24865860183256788 0.19121250954599173 0
0.2309107625106069 0.18524159975275825 0
0.2133404480368996 0.18940078156489787 0
0.1991484401334202 0.11410423358186296 0
0.24464738110278697 0.12699217243733146 0
0.15497213096003398 0.24318609414846287 0
0.1544567856182611 0.25766419896325143 0
0.17941945972595666 0.2777092688194717 0
0.17425211514573247 0.20360954548906177 0
0.14523247127042502 0.2185844882208239 0
0.17023941974442441 0.23091583194483153 0
0.18785999540282047 0.20813134837571043 0
0.18860943498272428 0.2244442774652455 0
0.22307781681421118 0.22117123286493598 0
0.18544781679730626 0.24305678288694355 0
0.23679344312925574 0.26174193030983095 0
0.2867468290403447 0.3944518538113408 0
0.2368771560864987 0.3579034799713105 0
0.1566688410814293 0.3916070532211143 0
0.14642778160511633 0.38484950667909057 0
0.11330793748975514 0.43215871201095574 0
0.13565964352391802 0.34446924205775403 0
0.11366537455015728 0.35691985546006977 0
0.1300858011913668 0.35395185128761253 0
0.16916994174605776 0.3251557464343207 0
0.17579362229594908 0.3374493097662943 0
0.17520820350308625 0.3678113889643672 0
0.15599111022497772 0.3664983742143696 0
0.1848157204115021 0.1734094679306337 0
0.16267278233632737 0.12705764531916233 0
0.17497541952443793 0.13770522933351168 0
0.1438453447134478 0.14522915111584372 0
0.11635019481371683 0.17700796114462458 0
0.1356719809368491 0.15694445102932877 0
0.12690257191495374 0.1987252406106465 0
0.1559105333499097 0.1699117710043073 0
0.10163991598578256 0.19614804952366752 0
0.08982430642038466 0.1749509457755421 0
0.09920244791958195 0.23928831244178508 0
0.10788246601833713 0.33828685466710684 0
0.10719185673765966 0.3182097397042388 0
0.13590904922194344 0.3130326559107334 0
0.12111867115714278 0.2867421823496376 0
0.07296336784021541 0.30921745746328466 0
0.08946965690213757 0.3509434387040585 0
0.06711209301330949 0.1683121827778478 0
0.07424653550386087 0.12110044842633051 0
0.04950685273044862 0.1255825423316276 0
0.16790113661871292 0.10337584038064813 0
0.14175034260231217 0.07992248157518127 0
0.14550516583577963 0.033053927197695974 0
0.09887168306542843 0.12260540558233692 0
0.1214093013232359 0.11715289579579134 0
0.11835375217272213 0.07883913665288089 0
0.08651271954474517 0.10218055528186168 0
0.09745228114337127 0.06819069268749953 0
0.20314394307419967 0.05914430586104495 0
0.1549484329005327 0.3113999935692236 0
0.39169766460960304 0.16438553432373743 0
0.38463171396058216 0.06712150043313812 0
0.188068623850587 0.36157806023853656 0
0.20108164271440876 0.322181256498334 0
0.23285527999509167 0.3397619177764382 0
0.09430867675435999 0.3741423997176906 0
0.053556176312744515 0.43093748614566785 0
0.41714367701816985 0.39351629322137893 0
0.4231546494551452 0.3366258809670694 0
0.38380278912499 0.386376344969247 0
0.20199327906679182 0.2731471964018353 0
0.21326516421192884 0.31277102736148094 0
0.2562502685282636 0.3082449305252819 0
0.2438679055159252 0.281986893997591 0
0.2611715255944587 0.17961142192365273 0
0.36215153753463314 0.15334945631331562 0
0.38664686300573103 0.1180173969403043 0
0.35529003259215597 0.10428218938682297 0
0.3326639851668794 0.18548494370213173 0
0.34299777462250236 0.16306020140956187 0
0.30570372929247086 0.1186162397168765 0
0.2241131065670867 0.13605607207956605 0
0.21177586662218412 0.1729505567752838 0
0.18369517592157386 0.1199483210832303 0
0.16125442567877343 0.21511775874160335 0
0.13447813311709217 0.21301899936522892 0
0.15353571677260858 0.227777796337097 0
0.2042525318137895 0.21768973391094087 0
0.22847982722891494 0.24222912972401647 0
0.2132273539588403 0.26014240732982474 0
0.2802815230835305 0.36650988567022963 0
0.1254468494997631 0.41494560724038176 0
0.12313192856476232 0.34162316943316623 0
0.127065973137248 0.36745234427280865 0
0.14596550981134396 0.3361395500239185 0
0.14754871207251996 0.3656190606254849 0
0.14501735287514 0.34329672344549117 0
0.15918311889503664 0.19286544110998322 0
0.1498355934929613 0.12791138950444145 0
0.08802955017550572 0.2197287212578773 0
0.1213583559624068 0.3249698319868917 0
0.1486513173817893 0.3024205594725379 0
0.13623922433612276 0.2802256624303973 0
0.09139541777709193 0.32354655152507567 0
0.081682045179853 0.1558846107542607 0
0.1280922442359528 0.09848008135039327 0
0.1466184514644175 0.27015170075625733 0
0.3853248428180358 0.14919859316335835 0
0.19919443910460527 0.33662760775398853 0
0.18746526096885358 0.3448198935270361 0
0.18879470961895634 0.3308411318382274 0
0.0818906368595748 0.43545578275006797 0
0.08286510416071509 0.4053367868762943 0
0.23231747341497097 0.3221449512394981 0
0.2466221761226704 0.1734082286497786 0
0.3710692506871365 0.10559614166929716 0
0.3260570198088143 0.15759927735631662 0
0.20867402312124325 0.14226975112263732 0
0.2095919326331905 0.12514658483307933 0
0.18183877314730856 0.13073215443734876 0
0.13643292124969772 0.23330738111069826 0
0.20489757954460475 0.2384431215171017 0
0.10714562362444738 0.39145127032694704 0
0.17509306735570312 0.17377127856095162 0
0.14587561888583134 0.20080993128299995 0
0.15628337883829344 0.11461989950832117 0
0.13406535490093668 0.13077793902047102 0
0.14991707684699124 0.09887327050129496 0
0.12820357101243002 0.2670693879983962 0
0.22963673639926913 0.2990882047986079 0
0.33924978151289614 0.17364740488703037 0
0.19329743709314687 0.14736070044487642 0
0.194632416785539 0.13185861996960577 0
0.14226113515917602 0.3524611997323995 0
0.15233244526120124 0.1850029106011458 0
0.13966646126657456 0.11557850670201664 0
0.34375 0.5 1
0.15635269219461634 0.5 1
0.045132399407308066 0.19138536828079725 0
0.09294737524672345 0.0 1
0.0 0.09313013866233597 1
0.02405222568100892 0.07393484953709271 0
0.07304388440062669 0.058070890812703876 0
0.2195648302637193 0.0 1
0.15627042426610843 0.0 1
0.16911791015461708 0.022225188347112394 0
0.44920603742095805 0.2473366138825383 0
0.43152051383046564 0.21923503885456805 0
0.46505366824704725 0.27950847128294726 0
0.3271039846420835 0.3221505123913927 0
0.3629446353309277 0.3221514371771912 0
0.2941505118675551 0.22225336982170557 0
0.33337893131189605 0.2111092127635601 0
0.27929923986349015 0.13886057572986796 0
0.27761684374034673 0.17603375863343362 0
0.21525347015244006 0.38495878927313276 0
0.21794699655860805 0.4307168542718833 0
0.23278288618108037 0.40303716019225294 0
0.14135377169337235 0.4677235472519062 0
0.16127874991479688 0.4265907604901476 0
0.17644672596038571 0.4163517505235974 0
0.18702524201621837 0.4334420483129403 0
0.17134142759845147 0.47018707644401114 0
0.27243425352352685 0.08289786468309004 0
0.25332199759263374 0.07352868144032625 0
0.19798756220603053 0.09120973785683704 0
0.33038746102839045 0.06793616948336897 0
0.2737374154118101 0.10563700943923801 0
0.1747602568094216 0.3152235977403595 0
0.42926548544043924 0.12032666942052272 0
0.3451475724797495 0.32801088452166216 0
0.3858765809241617 0.3620217004277579 0
0.37714406400711453 0.30000238668952944 0
0.35641893807692515 0.3891955505722274 0
0.20867091644408423 0.29329788063312145 0
0.34252777937702317 0.26008047407561735 0
0.32079950213875397 0.2652732803447004 0
0.3194059324030738 0.2240107841323107 0
0.31586427508609627 0.20438490268796747 0
0.25829932300475744 0.16366138490427012 0
0.3556130573121747 0.1754431979279228 0
0.2937955508768793 0.19350866157417743 0
0.31205593787431374 0.15813077810868706 0
0.3233758342454592 0.14131690260680876 0
0.303532233048475 0.1575996870393862 0
0.30557254998138494 0.14774686463740166 0
0.2946014545257955 0.13477449227770402 0
0.31829991881140157 0.13416600677931187 0
0.3232572504791711 0.08978189482809149 0
0.30167465672200205 0.07782007542614816 0
0.3186017050044105 0.12597843162248779 0
0.3366675598375332 0.10545764746622985 0
0.3282876230678017 0.1350640957316567 0
0.20312472795289827 0.1582419270386852 0
0.1940965817974033 0.28740195673686453 0
0.1963546848578372 0.41040251820483703 0
0.18428121772757217 0.3957199270291088 0
0.1868240381036315 0.3190470469060543 0
0.1621988917223082 0.3442304980633857 0
0.16090118374834445 0.335003971712227 0
0.16378092342403852 0.3729938872539523 0
0.1655203411268474 0.36394265753455407 0
0.16881075034533652 0.15410650424393102 0
0.15461479317894844 0.15063137735068083 0
0.16619667263838173 0.14369061734790628 0
0.16740949381582634 0.13437624619943236 0
0.12530683319220506 0.14621852503833538 0
0.14654678532286475 0.1545270161455023 0
0.15219722404974445 0.15843081164649184 0
0.13565648180670034 0.1821072286623885 0
0.14407865776452383 0.16429269250805037 0
0.16797049559947033 0.16689219918785786 0
0.14284006954199757 0.17601747119759922 0
0.13290454939991353 0.3315353846534692 0
0.09763895484785914 0.08648456234324926 0
0.0771912639929759 0.08259274928779158 0
0.17885441211110928 0.0711239082045409 0
0.17224150132806218 0.294502680282933 0
0.16312688554206392 0.3017943271878909 0
0.19430254467702557 0.30819283398088704 0
0.3634546972098032 0.3611538431278503 0
0.37326619279822365 0.1468189200455335 0
0.3474527319663059 0.1183903200369224 0
0.36399848657542594 0.11895741638362983 0
0.3484128388365705 0.17180395886144367 0
0.1529064953427408 0.34059980675573204 0
0.14167158781410463 0.37518538209351926 0
0.15068483469768018 0.35845226529572005 0
0.15136103898158093 0.34952418664925333 0
0.17516750215434512 0.1470130543374513 0
0.16193248245019398 0.3089663495649424 0
0.13766577887550005 0.2952796831373405 0
0.1496760747622076 0.27850526448638024 0
0.3955363132401636 0.1493252534377642 0
0.3868387905798242 0.13731918465100768 0
0.36278109440132417 0.14183511928680675 0
0.3504197779196871 0.14374416668605994 0
0.3153444153292402 0.1822391268564759 0
0.3341465226444982 0.15779108821867713 0
0.32263667413164965 0.14922995121968957 0
0.17236226757784306 0.1277379313023598 0
0.33175115776424613 0.1652425007711186 0
0.32580196056498745 0.17448518635617807 0
0.1808222627717194 0.15299400128327817 0
0.19018045516529464 0.16153447129060244 0
0.1402142678883758 0.3634887163725453 0
0.18420602464175204 0.14027689565418064 0
0.1828964727107774 0.2954653067533522 0
0.3371707254833818 0.2841862217736806 0
0.3772380671406674 0.16161853944086796 0
0.33916277090206776 0.19806676462523828 0
0.15830340225257877 0.3060817062150433 0
0.4529370324769062 0.30954174354074004 0
0.3504774224993804 0.15404122971122633 0
0.15232387798488747 0.33224177000109434 0
0.16391357543328686 0.17986294014419668 0
0.32132458531718516 0.11063144346013425 0
0.08009861043464721 0.03072849644428595 0
0.2985561867579139 0.16886478593765183 0
0.20385204602981913 0.37481874599751525 0
0.1975592632207663 0.3916233628363289 0
0.19956021215550174 0.4631394804265556 0
0.16573106630103587 0.3146392015040183 0
0.35556878911936035 0.3431480342252942 0
0.3308546350178649 0.1511891749285134 0
0.3412389742866282 0.13145601028216727 0
0.1734454975521473 0.18814982208171688 0
0.1702913136472757 0.39838266367120784 0
0.1547037661854828 0.3778166562634972 0
0.16123317385848454 0.35776243588952444 0
0.1620344215629473 0.16012674464171608 0
0.18044878102206421 0.3067117841655685 0
0.15849714815851634 0.29601531333830106 0
0.19177698130066717 0.32310218981471717 0
0.3553052757935883 0.13093551577312543 0
0.14697049424589886 0.2912450879592215 0
0.3234990977917647 0.16268626864091595 0
0.15846282886792176 0.324273329753426 0
0.327504120362001 0.1453159235325862 0
0.31970348381057606 0.15692098857335154 0
0.21875 0.5 1
0.1462341273140308 0.4173823679844946 0
0.10093443883408683 0.13848778571222056 0
0.030200659865551826 0.12578509225066625 0
0.39317227256173426 0.33728409058449 0
0.3972040869161865 0.31462967661052404 0
0.3357130706419265 0.38912798027031376 0
0.3182407590364056 0.37803614744708675 0
0.3388589056639633 0.40005931387682436 0
0.12497340027208943 0.1634422216985839 0
0.20607873429865986 0.3596813061402878 0
0.21100642257343288 0.34943088190237825 0
0.10192702959058524 0.4154540934656677 0
0.3723576557223827 0.11728805813841182 0
0.12645685880824636 0.17254966537757221 0
0.30200567611357026 0.377644366937674 0
0.3378051343077878 0.3452446281626323 0
0.3146936368553619 0.15102343916469507 0
0.34658249847535777 0.3529093139438116 0
0.42056585938310276 0.3084357530838538 0
0.18780609806575504 0.0 1
0.1989589909341015 0.34934044777462314 0
0.5 0.09375 1
0.0 0.21875 1
0.28125 0.0 1
0.0 0.28125 1

Edges
43
1 55 1
1 57 1
2 70 1
2 71 1
3 79 1
3 83 1
4 45 1
4 84 1
5 351 1
5 512 1
6 21 1
6 74 1
7 37 1
7 488 1
9 511 1
9 513 1
10 53 1
10 84 1
11 45 1
11 345 1
20 21 1
20 510 1
26 27 1
26 71 1
27 512 1
31 347 1
31 352 1
36 83 1
36 344 1
37 344 1
39 345 1
39 488 1
47 50 1
47 348 1
50 511 1
53 513 1
55 347 1
57 348 1
70 510 1
72 74 1
72 79 1
351 508 1
352 508 1

Triangles
981
1 55 147 0
2 65 71 0
3 83 79 0
4 84 127 0
5 63 60 0
6 74 356 0
7 40 115 0
8 131 328 0
8 141 248 0
8 161 336 0
9 134 137 0
10 53 142 0
11 45 46 0
11 46 366 0
12 123 236 0
12 236 270 0
12 270 467 0
12 467 468 0
13 34 504 0
13 381 494 0
13 428 381 0
13 494 495 0
13 504 506 0
14 85 105 0
14 87 188 0
14 191 87 0
15 33 114 0
15 116 175 0
16 33 87 0
16 86 357 0
16 87 384 0
17 89 189 0
17 189 193 0
17 193 457 0
18 68 75 0
19 23 90 0
19 88 89 0
19 89 94 0
20 21 92 0
20 66 165 0
21 6 172 0
22 93 167 0
22 172 355 0
22 190 93 0
23 19 91 0
23 91 96 0
23 96 180 0
23 180 383 0
24 101 361 0
24 108 214 0
24 153 375 0
25 400 473 0
25 472 486 0
26 71 164 0
27 26 103 0
27 158 63 0
28 102 374 0
28 103 104 0
28 104 269 0
29 331 238 0
30 207 206 0
30 290 207 0
31 150 347 0
32 129 258 0
32 157 373 0
32 213 291 0
33 15 280 0
33 16 114 0
34 13 495 0
34 15 114 0
34 114 357 0
34 298 15 0
34 357 504 0
34 495 503 0
35 81 82 0
35 82 115 0
35 119 226 0
35 185 81 0
36 80 182 0
37 7 115 0
38 116 298 0
38 117 227 0
38 119 365 0
39 345 370 0
39 370 469 0
39 469 488 0
40 7 488 0
41 230 299 0
41 299 489 0
41 366 230 0
42 122 299 0
42 124 301 0
42 299 330 0
42 301 434 0
43 267 485 0
44 45 127 0
44 274 319 0
45 4 127 0
45 44 46 0
46 44 319 0
46 230 366 0
47 146 491 0
48 145 256 0
48 256 261 0
48 261 490 0
49 239 413 0
49 241 306 0
49 412 411 0
50 47 54 0
50 54 346 0
51 139 250 0
51 140 141 0
51 141 252 0
51 250 311 0
52 53 143 0
52 140 253 0
53 52 142 0
54 47 491 0
54 145 255 0
54 255 346 0
55 347 465 0
56 146 349 0
56 147 350 0
56 350 423 0
57 1 147 0
57 147 349 0
58 259 263 0
58 260 156 0
59 150 152 0
59 152 265 0
59 265 350 0
59 350 465 0
60 62 372 0
60 154 266 0
60 372 154 0
61 155 266 0
61 260 353 0
61 266 424 0
62 60 63 0
62 63 158 0
62 158 397 0
62 371 372 0
63 512 27 0
64 160 217 0
64 440 314 0
65 2 70 0
65 70 165 0
65 165 168 0
65 168 170 0
66 20 92 0
66 92 167 0
66 167 377 0
67 169 269 0
67 170 171 0
67 171 284 0
67 284 323 0
68 18 91 0
68 91 94 0
68 94 355 0
69 173 499 0
69 174 272 0
71 65 164 0
72 78 177 0
73 78 275 0
73 178 276 0
74 72 177 0
74 177 460 0
75 68 354 0
75 181 18 0
75 354 356 0
75 460 507 0
76 380 493 0
77 78 79 0
77 83 182 0
77 182 183 0
77 275 78 0
78 73 177 0
79 78 72 0
80 36 344 0
80 81 184 0
81 80 82 0
81 185 496 0
82 37 115 0
82 80 344 0
82 344 37 0
83 36 182 0
83 77 79 0
84 10 186 0
84 274 127 0
85 14 188 0
85 188 281 0
86 16 456 0
86 358 378 0
86 380 358 0
87 33 188 0
87 191 384 0
88 19 90 0
89 17 190 0
89 88 189 0
90 360 88 0
90 383 95 0
91 18 96 0
91 19 94 0
92 22 167 0
92 172 22 0
93 166 167 0
93 190 268 0
93 268 441 0
94 22 355 0
95 191 385 0
95 384 191 0
95 385 90 0
96 18 181 0
96 181 380 0
97 14 105 0
97 105 202 0
97 202 203 0
98 108 361 0
98 362 387 0
99 193 388 0
99 388 432 0
100 390 487 0
100 450 445 0
101 159 288 0
101 288 394 0
101 375 159 0
102 28 169 0
102 169 285 0
102 285 399 0
103 26 104 0
103 28 374 0
104 26 164 0
104 164 269 0
105 85 225 0
105 296 202 0
106 97 203 0
106 203 210 0
106 210 282 0
106 282 362 0
106 362 389 0
107 204 209 0
107 205 295 0
107 209 212 0
108 24 361 0
108 98 387 0
109 208 238 0
109 238 452 0
110 203 202 0
111 153 214 0
111 289 326 0
111 373 154 0
112 160 224 0
112 224 329 0
113 218 221 0
113 220 292 0
113 221 222 0
114 16 357 0
115 119 35 0
116 15 298 0
116 38 227 0
117 38 365 0
117 173 227 0
118 403 468 0
119 38 226 0
119 40 364 0
119 115 40 0
119 364 365 0
120 489 122 0
121 41 367 0
121 366 41 0
121 367 369 0
121 369 469 0
122 42 229 0
122 228 120 0
123 12 404 0
123 404 475 0
124 42 330 0
125 234 376 0
125 376 405 0
125 405 481 0
126 235 317 0
126 236 409 0
126 409 477 0
127 274 44 0
128 331 419 0
128 451 452 0
129 32 291 0
129 239 333 0
129 291 448 0
130 132 490 0
130 261 262 0
130 262 334 0
130 334 414 0
131 8 248 0
131 244 293 0
131 293 328 0
132 48 490 0
132 242 247 0
132 312 48 0
132 414 497 0
133 418 420 0
133 497 243 0
134 136 137 0
134 511 50 0
135 136 346 0
135 307 136 0
136 134 346 0
137 136 138 0
138 136 307 0
139 51 252 0
139 251 308 0
140 51 253 0
140 52 143 0
140 137 138 0
140 138 141 0
141 8 336 0
141 138 248 0
142 52 144 0
143 9 137 0
143 137 140 0
143 513 9 0
144 52 253 0
144 176 142 0
144 253 311 0
144 254 176 0
145 48 312 0
145 54 257 0
146 47 348 0
146 56 148 0
146 148 257 0
146 257 491 0
146 348 349 0
147 55 465 0
147 56 349 0
148 56 423 0
148 256 257 0
149 157 258 0
149 258 335 0
149 424 157 0
150 31 260 0
150 465 347 0
151 263 313 0
151 264 422 0
152 260 58 0
152 263 265 0
153 24 214 0
153 111 154 0
153 154 372 0
153 371 375 0
155 61 353 0
155 508 351 0
156 149 259 0
157 32 258 0
158 27 103 0
158 103 374 0
158 374 397 0
159 200 288 0
159 371 397 0
160 64 216 0
160 220 224 0
161 216 314 0
161 314 336 0
162 64 217 0
162 425 480 0
163 376 470 0
163 425 479 0
164 65 170 0
164 170 269 0
165 66 168 0
165 510 20 0
166 93 441 0
166 171 377 0
166 442 284 0
167 166 377 0
168 66 377 0
169 28 269 0
169 67 323 0
170 67 269 0
170 168 171 0
171 166 284 0
171 168 377 0
172 6 354 0
172 92 21 0
173 69 227 0
173 117 363 0
173 363 467 0
173 467 498 0
173 498 499 0
174 279 321 0
174 499 316 0
175 116 227 0
175 227 272 0
175 272 321 0
175 280 15 0
176 254 273 0
176 273 320 0
177 276 460 0
178 73 275 0
178 277 379 0
178 379 492 0
179 358 76 0
179 471 358 0
179 492 379 0
180 86 456 0
180 96 380 0
181 75 507 0
182 80 183 0
183 80 184 0
183 184 277 0
184 81 496 0
185 35 226 0
185 226 503 0
185 494 496 0
186 10 142 0
186 142 176 0
186 176 320 0
186 320 274 0
187 278 297 0
187 281 337 0
187 337 382 0
188 33 280 0
188 280 281 0
189 88 196 0
189 196 388 0
190 17 268 0
190 22 94 0
190 94 89 0
192 286 458 0
192 360 386 0
192 445 286 0
193 99 283 0
193 189 388 0
194 284 442 0
194 429 443 0
194 431 501 0
194 482 431 0
195 287 446 0
195 444 461 0
195 446 472 0
196 286 338 0
196 338 432 0
196 458 286 0
197 199 395 0
197 391 447 0
197 447 505 0
198 362 98 0
198 466 362 0
199 197 393 0
199 288 398 0
199 393 394 0
200 159 397 0
200 396 464 0
201 398 464 0
201 399 430 0
201 473 400 0
203 110 210 0
204 29 208 0
204 107 221 0
204 208 209 0
204 218 474 0
205 107 212 0
205 211 110 0
205 223 295 0
206 108 387 0
206 214 108 0
206 289 214 0
206 322 30 0
206 387 322 0
207 290 401 0
208 29 238 0
208 109 209 0
209 109 290 0
210 110 211 0
210 211 322 0
211 30 322 0
211 205 212 0
211 212 290 0
212 209 290 0
213 32 373 0
213 111 326 0
213 326 340 0
215 160 216 0
215 216 161 0
216 64 314 0
217 160 112 0
217 278 402 0
217 455 425 0
218 113 292 0
218 204 221 0
218 292 305 0
219 292 294 0
219 293 332 0
219 294 328 0
220 113 222 0
220 160 215 0
220 215 294 0
220 222 224 0
221 107 295 0
222 221 295 0
222 295 329 0
222 329 224 0
223 110 202 0
223 205 110 0
225 187 297 0
225 281 187 0
226 38 298 0
226 298 503 0
227 69 272 0
228 122 229 0
228 123 475 0
228 476 123 0
229 42 434 0
230 46 319 0
230 319 500 0
231 233 300 0
231 302 304 0
232 254 249 0
232 273 254 0
232 301 124 0
233 231 341 0
234 125 235 0
234 235 407 0
235 125 318 0
235 126 406 0
235 406 407 0
236 123 408 0
236 126 270 0
236 408 409 0
237 303 435 0
237 408 476 0
238 128 452 0
239 49 306 0
239 129 448 0
239 306 333 0
240 327 454 0
240 412 413 0
241 49 411 0
241 243 414 0
242 132 497 0
242 246 247 0
242 497 502 0
243 241 415 0
243 418 133 0
244 131 246 0
244 242 417 0
244 246 242 0
244 332 293 0
245 342 420 0
245 416 478 0
245 463 342 0
246 135 247 0
246 307 135 0
247 135 255 0
247 255 312 0
248 138 307 0
248 307 131 0
249 250 308 0
250 139 308 0
250 249 311 0
251 43 421 0
251 139 439 0
251 267 43 0
252 141 336 0
252 439 139 0
253 51 311 0
254 311 249 0
255 145 312 0
256 145 257 0
256 148 264 0
257 54 491 0
258 129 333 0
258 333 335 0
259 58 156 0
259 149 335 0
260 31 352 0
260 61 156 0
260 152 150 0
260 352 353 0
261 130 490 0
261 151 262 0
261 264 151 0
262 151 313 0
262 313 343 0
263 151 422 0
263 152 58 0
263 259 313 0
264 148 423 0
264 261 256 0
265 263 422 0
265 422 423 0
266 155 60 0
266 373 424 0
267 251 309 0
267 438 470 0
267 459 438 0
267 470 485 0
268 17 457 0
268 315 441 0
270 126 317 0
270 317 509 0
271 174 316 0
271 279 174 0
271 316 481 0
271 427 279 0
272 174 321 0
273 124 330 0
273 232 124 0
274 84 186 0
275 77 183 0
275 277 178 0
276 177 73 0
276 178 492 0
276 492 493 0
276 493 507 0
277 184 381 0
277 275 183 0
277 381 428 0
278 112 297 0
278 187 382 0
278 217 112 0
278 382 402 0
279 337 321 0
280 175 321 0
280 321 337 0
281 225 85 0
281 280 337 0
282 210 322 0
283 99 461 0
283 457 193 0
284 194 501 0
285 169 323 0
285 323 431 0
286 445 450 0
287 99 432 0
287 449 446 0
287 461 99 0
288 199 394 0
288 200 464 0
289 111 214 0
289 206 207 0
289 207 325 0
289 325 326 0
290 30 211 0
290 109 401 0
291 213 340 0
291 327 448 0
292 220 294 0
292 332 305 0
293 219 328 0
295 223 329 0
296 105 225 0
296 223 202 0
296 297 329 0
297 112 329 0
297 296 225 0
298 34 503 0
299 122 489 0
299 230 500 0
300 232 249 0
300 233 232 0
300 421 231 0
301 232 233 0
301 233 453 0
302 43 462 0
302 421 43 0
303 237 476 0
303 434 453 0
304 302 433 0
304 433 436 0
305 332 342 0
305 342 463 0
306 241 334 0
306 334 343 0
307 246 131 0
308 251 421 0
308 300 249 0
309 251 439 0
309 480 459 0
310 252 336 0
310 440 483 0
311 254 144 0
312 132 247 0
313 259 335 0
313 335 343 0
314 310 336 0
315 268 457 0
315 457 429 0
316 317 318 0
316 318 481 0
316 499 509 0
317 235 318 0
317 316 509 0
318 125 481 0
319 274 320 0
320 273 330 0
320 500 319 0
323 284 501 0
324 446 449 0
324 447 472 0
324 449 484 0
324 484 487 0
325 401 339 0
326 325 340 0
327 291 340 0
328 161 8 0
328 215 161 0
328 294 215 0
329 223 296 0
330 299 500 0
331 29 474 0
331 128 238 0
332 292 219 0
332 417 342 0
333 306 343 0
334 241 414 0
334 262 343 0
335 333 343 0
337 279 382 0
338 286 450 0
338 287 432 0
339 340 325 0
339 401 452 0
339 454 340 0
340 454 327 0
341 231 304 0
341 304 436 0
342 417 420 0
346 134 50 0
346 255 135 0
348 57 349 0
350 147 465 0
350 265 423 0
351 5 60 0
351 60 155 0
353 352 508 0
354 6 356 0
354 355 172 0
355 354 68 0
356 460 75 0
357 86 378 0
357 378 504 0
358 471 378 0
359 14 97 0
359 97 106 0
359 191 14 0
359 389 386 0
360 192 458 0
360 458 88 0
361 198 98 0
361 394 198 0
362 282 387 0
362 466 389 0
363 365 118 0
363 468 467 0
364 40 469 0
364 118 365 0
364 403 118 0
365 363 117 0
366 121 370 0
366 345 11 0
367 41 489 0
367 368 369 0
368 367 120 0
368 475 404 0
369 364 469 0
370 121 469 0
370 345 366 0
371 62 397 0
371 153 372 0
371 159 375 0
373 111 213 0
373 157 424 0
373 266 154 0
374 102 396 0
374 396 397 0
375 101 24 0
376 163 479 0
376 234 470 0
378 471 504 0
379 428 179 0
380 76 358 0
380 86 180 0
380 181 493 0
381 184 496 0
382 279 427 0
383 90 23 0
383 180 456 0
383 384 95 0
383 456 384 0
384 456 16 0
385 191 359 0
385 359 386 0
385 360 90 0
385 386 360 0
386 445 192 0
387 282 322 0
388 196 432 0
389 359 106 0
389 445 386 0
390 100 392 0
390 392 393 0
390 393 505 0
391 197 395 0
392 100 466 0
392 198 393 0
393 197 505 0
393 198 394 0
394 361 101 0
395 199 398 0
395 398 400 0
396 102 399 0
396 200 397 0
396 399 464 0
398 201 400 0
398 288 464 0
399 201 464 0
399 285 430 0
400 391 395 0
400 486 391 0
401 109 452 0
401 325 207 0
402 382 427 0
402 427 455 0
403 364 369 0
403 369 368 0
404 12 468 0
404 403 368 0
404 468 403 0
405 376 479 0
405 479 427 0
406 126 477 0
407 433 462 0
407 485 234 0
408 123 476 0
408 237 409 0
409 237 477 0
410 128 419 0
410 419 478 0
410 437 451 0
412 49 413 0
412 240 437 0
412 410 411 0
412 437 410 0
414 132 130 0
414 243 497 0
415 241 411 0
415 416 418 0
416 245 418 0
416 415 411 0
417 133 420 0
417 332 244 0
417 502 133 0
418 243 415 0
418 245 420 0
419 245 478 0
419 331 463 0
421 300 308 0
421 302 231 0
422 264 423 0
424 149 156 0
424 156 61 0
425 162 217 0
425 426 480 0
425 455 479 0
426 163 438 0
426 425 163 0
426 438 459 0
426 459 480 0
427 479 455 0
427 481 405 0
428 13 506 0
428 379 277 0
428 471 179 0
429 442 315 0
430 431 482 0
430 473 201 0
431 323 501 0
431 430 285 0
433 302 462 0
433 407 406 0
434 301 453 0
434 476 229 0
435 341 436 0
435 453 341 0
435 477 237 0
436 433 406 0
437 240 454 0
438 163 470 0
439 252 310 0
439 483 309 0
440 64 162 0
440 310 314 0
441 315 442 0
442 166 441 0
442 429 194 0
443 283 444 0
443 429 283 0
444 25 473 0
444 195 25 0
445 466 100 0
446 324 472 0
447 324 487 0
447 391 486 0
447 487 505 0
448 240 413 0
448 327 240 0
448 413 239 0
449 287 338 0
449 338 450 0
449 450 484 0
450 100 484 0
451 128 410 0
451 339 452 0
451 437 454 0
453 233 341 0
453 435 303 0
454 339 451 0
455 217 402 0
457 283 429 0
458 196 88 0
459 267 309 0
460 276 507 0
460 356 74 0
461 287 195 0
461 444 283 0
462 43 485 0
463 245 419 0
463 474 305 0
465 150 59 0
466 198 392 0
466 445 389 0
467 270 498 0
468 363 118 0
469 40 488 0
470 234 485 0
471 428 506 0
472 25 195 0
472 447 486 0
473 430 482 0
474 29 204 0
474 218 305 0
474 463 331 0
475 120 228 0
475 368 120 0
476 228 229 0
476 434 303 0
477 435 436 0
477 436 406 0
478 411 410 0
478 416 411 0
480 309 483 0
480 483 162 0
481 427 271 0
482 194 443 0
482 443 444 0
482 444 473 0
483 439 310 0
483 440 162 0
484 100 487 0
485 407 462 0
486 400 25 0
487 390 505 0
489 120 367 0
492 76 493 0
492 179 76 0
493 181 507 0
494 185 495 0
494 381 496 0
495 185 503 0
497 133 502 0
498 270 509 0
499 174 69 0
499 498 509 0
500 320 330 0
502 417 242 0
504 471 506 0
508 155 353 0
510 165 70 0
511 134 9 0
512 63 5 0
513 143 53 0

End
