MeshVersionFormatted 1

Dimension
2

Vertices
154
0.0 0.0 1
0.5 0.0 1
0.5 0.5 1
0.0 0.5 1
0.25 0.0 1
0.5 0.25 1
0.25 0.5 1
0.10448165167987171 0.2331366482329127 0
0.0 0.25 1
0.0 0.375 1
0.125 0.5 1
0.44138900323624236 0.32811856116669136 0
0.2280242941349908 0.23686101918834077 0
0.17180827991941025 0.27376943720535074 0
0.41140482886336865 0.13799486897995816 0
0.2953064431530985 0.24525606380128723 0
0.44036238512026993 0.2062401621925778 0
0.5 0.125 1
0.5 0.1875 1
0.44814068797974727 0.15513910749471185 0
0.3410562488346329 0.24784805568184132 0
0.2497355977319925 0.13636641496350638 0
0.31729032125924733 0.06971457953391488 0
0.3125 0.0 1
0.22343177307816378 0.20549881655211344 0
0.125 0.0 1
0.15795533009669585 0.0431128503901539 0
0.14608823142698113 0.2417922665186216 0
0.3072022014334174 0.3456723012160841 0
0.375 0.5 1
0.23714881032530827 0.39771212232583353 0
0.1875 0.5 1
0.22124327905780192 0.447405682677728 0
0.16541924065730804 0.4485027579082028 0
0.09786429244470976 0.3654175613776859 0
0.14068994594939388 0.3902894312419256 0
0.12653087768376758 0.33406251548814625 0
0.0625 0.5 1
0.0 0.125 1
0.09301476798604671 0.16694808676791173 0
0.12034384530965703 0.14001782148565017 0
0.1016287290213317 0.2013061038558228 0
0.05969146017898751 0.21209997658164567 0
0.0 0.1875 1
0.06307287816922347 0.27934701759405367 0
0.0913401146867412 0.3220071940159237 0
0.05120872069792352 0.3468773051485619 0
0.0499136051985381 0.15257654700750498 0
0.0625 0.0 1
0.06145461115127848 0.0879394614935359 0
0.0 0.0625 1
0.11012460626807456 0.05420572395648281 0
0.209963565859502 0.05229118207733384 0
0.1875 0.0 1
0.27254958422443476 0.0531976711811954 0
0.22177197591895037 0.3075210231725601 0
0.5 0.0625 1
0.4375 0.0 1
0.06921453096169974 0.41137560015286223 0
0.5 0.375 1
0.4031234585301634 0.2732621613050135 0
0.37628880249693053 0.34689304135392746 0
0.5 0.4375 1
0.425094152224139 0.4154233360078905 0
0.28462844306214247 0.4408486186563457 0
0.0 0.4375 1
0.21551059648030904 0.26804963624011174 0
0.38403546059283955 0.21286800885615126 0
0.3796972059157078 0.10631317178997952 0
0.19124392583101532 0.19777631334948031 0
0.19844176519631954 0.1594895002629747 0
0.19115386752658275 0.23317594774166867 0
0.1651748761003425 0.20993394949600086 0
0.1426665893026432 0.3567217859728855 0
0.17724477881061604 0.3395022337091331 0
0.14297221188345777 0.1677252206016303 0
0.1316050051553629 0.20803448661093604 0
0.1117283810799134 0.10323091510662649 0
0.08947446803714125 0.1311295053633959 0
0.12482614192535976 0.2834582021228534 0
0.435640056604173 0.09193872968975006 0
0.11427116277474098 0.3947653707894059 0
0.31118908670341894 0.1792350945905135 0
0.0 0.3125 1
0.4375 0.5 1
0.2659081682707413 0.21909630928724166 0
0.30063576478436826 0.28843776606272004 0
0.2553101178391909 0.35642356705941663 0
0.2516945942565854 0.2698979214958637 0
0.40440115838006147 0.17073711086532337 0
0.354121102571609 0.14695454842425915 0
0.3421430781523014 0.09715636061300181 0
0.22528410503348395 0.15118705732359475 0
0.20162229536070436 0.10378108292408941 0
0.15710074812483824 0.31251161204232986 0
0.1947517998311735 0.2964768201608402 0
0.12520013003795974 0.17704796574961326 0
0.340503493839863 0.15628712042605583 0
0.34102216888011266 0.19747076394709237 0
0.14025774946396197 0.15703685713534882 0
0.17613791518467653 0.13181133570867215 0
0.13741350095866192 0.11238087146752855 0
0.24545785882761684 0.0984928610438107 0
0.223975858076507 0.3372355901238779 0
0.26493508911536695 0.31333102188394535 0
0.1712614865305736 0.1888165659772051 0
0.1972912792108663 0.3246577281817321 0
0.33486355947683155 0.17242125046766707 0
0.34394853503045 0.4035916784685702 0
0.2834309651690254 0.38982846504678864 0
0.3718849356165667 0.0595608926093569 0
0.21144739244532493 0.17696016476469703 0
0.11384193936374945 0.44764012179256907 0
0.3437340109193905 0.12110526060948784 0
0.3614871737362002 0.1737947450770939 0
0.1556956830638651 0.33732664032446674 0
0.36056717522303683 0.12992545471326172 0
0.2462271060813123 0.173538673377208 0
0.34766275136640973 0.3006812638084821 0
0.12786739549037127 0.37095549849891074 0
0.16338367465793238 0.17183788588163718 0
0.30722421893202745 0.21673243603553013 0
0.15852434669661009 0.3645223612243851 0
0.21974110292622037 0.3687556264421693 0
0.1841082180928884 0.36506073425088076 0
0.31894098163979573 0.1566334531225619 0
0.16054278086189055 0.15564052205985715 0
0.20368887615832276 0.13808977177522086 0
0.1805029551356005 0.15609875660488684 0
0.1451648023204583 0.08041213867266357 0
0.14718794552541445 0.41017446311517436 0
0.1889024040391859 0.1754277609201492 0
0.20223654326200396 0.34521088120526394 0
0.2845150882377416 0.12431631440987244 0
0.30801819699909067 0.13782389756310426 0
0.28937598787266955 0.09165368877359809 0
0.3180705319524584 0.11115957000831828 0
0.15029156862301388 0.18641112235348004 0
0.17597749382081623 0.31027526407238337 0
0.16372804061568658 0.3834379138529642 0
0.33339546927203056 0.13632566578049105 0
0.19060950415697406 0.40392279596236613 0
0.28876486690530684 0.18572022456281706 0
0.14609360944579283 0.37062136704789433 0
0.22312372673862643 0.12638190817142694 0
0.1502852734243677 0.1324108055438243 0
0.16207126938455954 0.1056231149901427 0
0.2864073528855173 0.15625440664611231 0
0.17562007298284169 0.07888285677959722 0
0.378900130295644 0.14367032961012066 0
0.347183240034096 0.133524462346376 0
0.16675776240815862 0.32672421465878637 0
0.5 0.3125 1
0.375 0.0 1

Edges
31
1 49 1
1 51 1
2 57 1
2 58 1
3 63 1
3 85 1
4 38 1
4 66 1
5 24 1
5 54 1
6 19 1
6 153 1
7 30 1
7 32 1
9 44 1
9 84 1
10 66 1
10 84 1
11 32 1
11 38 1
18 19 1
18 57 1
24 154 1
26 49 1
26 54 1
30 85 1
39 44 1
39 51 1
58 154 1
60 63 1
60 153 1

Triangles
275
5 24 55 0
5 55 53 0
6 12 61 0
6 61 17 0
7 32 33 0
7 33 65 0
8 42 77 0
9 43 45 0
10 47 59 0
11 38 113 0
12 153 60 0
13 25 86 0
13 72 25 0
14 28 72 0
14 95 80 0
14 139 95 0
15 69 81 0
16 86 122 0
17 19 6 0
17 68 90 0
18 19 20 0
18 81 57 0
19 17 20 0
20 81 18 0
20 90 15 0
21 61 119 0
21 99 68 0
21 122 99 0
22 103 134 0
22 145 103 0
23 137 136 0
24 23 55 0
24 111 23 0
25 112 118 0
26 27 52 0
27 26 54 0
27 53 149 0
28 8 77 0
28 14 80 0
28 80 8 0
29 87 119 0
29 88 105 0
29 109 110 0
30 7 65 0
30 65 109 0
31 33 142 0
31 65 33 0
31 88 110 0
31 110 65 0
31 124 88 0
32 11 34 0
33 32 34 0
33 34 142 0
34 11 113 0
34 131 142 0
35 37 120 0
36 120 144 0
37 35 46 0
37 46 80 0
37 74 120 0
37 95 116 0
38 59 113 0
40 41 97 0
40 42 43 0
40 43 48 0
41 40 79 0
41 78 102 0
41 79 78 0
41 146 100 0
42 8 43 0
43 8 45 0
43 44 48 0
44 39 48 0
44 43 9 0
45 46 47 0
45 80 46 0
45 84 9 0
46 35 47 0
47 35 59 0
48 39 50 0
48 79 40 0
49 26 52 0
49 51 1 0
49 52 50 0
50 78 79 0
51 49 50 0
51 50 39 0
52 130 78 0
53 54 5 0
53 55 103 0
53 94 149 0
54 53 27 0
55 136 103 0
56 67 89 0
56 89 105 0
57 58 2 0
59 35 82 0
59 38 66 0
59 66 10 0
59 82 113 0
60 64 12 0
61 12 62 0
61 62 119 0
61 68 17 0
62 29 119 0
62 109 29 0
64 30 109 0
64 60 63 0
64 62 12 0
64 63 85 0
66 38 4 0
67 13 89 0
67 14 72 0
67 96 14 0
68 61 21 0
68 99 115 0
69 92 111 0
69 111 81 0
69 150 117 0
70 72 73 0
70 106 132 0
72 13 67 0
72 28 73 0
72 70 25 0
74 37 116 0
74 123 144 0
75 107 133 0
75 116 152 0
76 100 127 0
76 121 138 0
77 73 28 0
78 50 52 0
79 48 50 0
80 45 8 0
80 95 37 0
81 20 15 0
81 58 57 0
82 36 131 0
82 120 36 0
83 99 122 0
83 122 143 0
84 45 47 0
84 47 10 0
85 30 64 0
85 63 3 0
86 25 118 0
86 89 13 0
86 118 143 0
87 16 21 0
87 21 119 0
87 89 16 0
88 29 110 0
88 104 105 0
89 86 16 0
89 87 105 0
90 20 17 0
90 68 115 0
90 115 150 0
91 117 150 0
92 23 111 0
92 69 114 0
92 114 137 0
93 22 118 0
93 128 145 0
94 53 103 0
94 101 147 0
94 103 145 0
94 147 149 0
95 139 152 0
96 56 107 0
96 67 56 0
96 107 139 0
97 41 100 0
97 42 40 0
97 76 138 0
97 77 42 0
97 138 77 0
98 108 126 0
98 115 108 0
98 151 91 0
99 83 108 0
99 108 115 0
100 76 97 0
101 94 128 0
101 127 146 0
101 128 129 0
102 78 130 0
102 130 147 0
104 56 105 0
104 88 124 0
104 107 56 0
104 124 133 0
105 87 29 0
106 70 73 0
106 121 132 0
107 104 133 0
107 152 139 0
108 83 126 0
109 62 64 0
109 65 110 0
111 58 81 0
111 154 58 0
112 25 70 0
112 70 132 0
112 71 93 0
112 93 118 0
113 131 34 0
114 117 151 0
114 141 137 0
115 91 150 0
115 98 91 0
116 75 123 0
116 95 152 0
117 91 151 0
117 114 69 0
118 22 148 0
120 74 144 0
120 82 35 0
121 76 127 0
121 106 138 0
121 127 129 0
122 21 16 0
122 86 143 0
123 74 116 0
123 125 140 0
123 140 144 0
124 31 142 0
125 75 133 0
125 123 75 0
125 133 124 0
125 142 140 0
126 83 148 0
126 141 98 0
127 100 146 0
127 101 129 0
128 71 129 0
128 93 71 0
128 94 145 0
129 132 121 0
130 52 27 0
130 149 147 0
131 36 140 0
131 113 82 0
132 71 112 0
132 129 71 0
134 103 136 0
134 136 137 0
135 126 148 0
135 134 137 0
135 137 141 0
136 55 23 0
137 23 92 0
138 73 77 0
138 106 73 0
139 14 96 0
140 36 144 0
140 142 131 0
141 114 151 0
141 126 135 0
142 125 124 0
145 22 93 0
146 41 102 0
146 147 101 0
147 146 102 0
148 22 134 0
148 83 143 0
148 134 135 0
148 143 118 0
149 130 27 0
150 15 90 0
150 69 15 0
151 98 141 0
152 107 75 0
153 12 6 0
154 111 24 0

End
