MeshVersionFormatted 1

Dimension
2

Vertices
245
0.0 0.0 1
0.5 0.0 1
0.5 0.5 1
0.0 0.5 1
0.25 0.0 1
0.5 0.25 1
0.25 0.5 1
0.12007184045618588 0.23694635622796467 0
0.0 0.25 1
0.0 0.375 1
0.125 0.5 1
0.1803416495356867 0.3795621341146569 0
0.3883140736506996 0.32116522815193504 0
0.2060784972194519 0.28217657536540197 0
0.2608208685014115 0.3747012324168293 0
0.34830501923490637 0.30824001022178776 0
0.34937163036375823 0.2125491045750815 0
0.4522218080679295 0.2752292270089318 0
0.4094595922801729 0.2466868748120054 0
0.5 0.125 1
0.5 0.1875 1
0.44267728415802043 0.17194653393371648 0
0.3776503014842294 0.2809948166293903 0
0.24858455770981092 0.09872640957525962 0
0.2780216820275089 0.16435692110224914 0
0.3298570629677803 0.1415161005080925 0
0.375 0.0 1
0.3125 0.0 1
0.33839959566826994 0.0431751429248915 0
0.18465004552553085 0.16897966158683425 0
0.2309010570674003 0.21440106816862292 0
0.22800677433842165 0.1439652726813448 0
0.125 0.0 1
0.17572436491553411 0.2374964382952032 0
0.2969007964506544 0.2989778679441611 0
0.375 0.5 1
0.20328955571830964 0.37807566413747945 0
0.1875 0.5 1
0.20394117130477318 0.44943603314457087 0
0.1504877693769406 0.4627945449913126 0
0.08085431410780135 0.370912837432023 0
0.12932306375543656 0.38629338886136283 0
0.045961503823458184 0.45086638399669055 0
0.0625 0.5 1
0.10137019907495955 0.4559181907100958 0
0.0 0.125 1
0.11012730155516699 0.15923048919356633 0
0.11771757196849215 0.20834653970356606 0
0.044221933253232364 0.2156731823248896 0
0.0 0.1875 1
0.05067405480906652 0.2643083388244087 0
0.07107318732105775 0.29608289334191495 0
0.0625 0.0 1
0.13989190711479263 0.06510113721063512 0
0.11123810492773442 0.03986447135261289 0
0.24813744764808177 0.05907519241145818 0
0.1875 0.0 1
0.18392048107842843 0.04852953630546158 0
0.2906738014584626 0.04361407149366965 0
0.16421988015980282 0.2654939207870575 0
0.4337208462177404 0.08110651967494328 0
0.4180670713292614 0.1282215199429238 0
0.39734881494225416 0.09938153079998295 0
0.45441643643231816 0.22148626951821232 0
0.24197012390394532 0.34190175261057654 0
0.5 0.0625 1
0.4375 0.0 1
0.04471203655962354 0.3977299177635395 0
0.5 0.375 1
0.4421221000060097 0.3368605801112043 0
0.5 0.3125 1
0.4120715908658942 0.29391033195588673 0
0.388168157978697 0.4521222900183585 0
0.43242623185253054 0.4143392721406128 0
0.5 0.4375 1
0.4375 0.5 1
0.0 0.4375 1
0.2560876544925893 0.2769291435385957 0
0.3321680004919884 0.2667410650233788 0
0.41141162878451676 0.19840760976816177 0
0.29826138286261467 0.21878465457858304 0
0.2972114975799273 0.14917838404472752 0
0.2751960549255105 0.11149377886657444 0
0.26059738771170843 0.23257423763547216 0
0.26601788591307135 0.1917340962610412 0
0.2049136823918083 0.1967485851782449 0
0.24879359143238464 0.1298028542157344 0
0.1975887979304007 0.15615328688748162 0
0.2526170367716118 0.1567229588419774 0
0.22792073965146822 0.17693772495533208 0
0.2144271759475877 0.07649389182277537 0
0.14740203182250589 0.2440385364033903 0
0.18587211819915522 0.26450669461742116 0
0.17881083049213767 0.2060739973559419 0
0.20444774792318432 0.22508371877829278 0
0.19135454387707868 0.4026190144665303 0
0.15000250987695013 0.40120945498608046 0
0.11268330953265143 0.3647063047962918 0
0.10532808872328701 0.33989476520479844 0
0.1870045642466327 0.30394967447557114 0
0.17286103869335007 0.3330378462722149 0
0.1272269136257008 0.4190201829562495 0
0.14471331911643934 0.1524807130870625 0
0.11657645525615289 0.18094649629901685 0
0.14804096368357117 0.17206689091297644 0
0.07245634073299681 0.32842548626770685 0
0.1001334052545893 0.26960082585707523 0
0.03643774354389939 0.3014396108621777 0
0.040714584427810674 0.34642869695362627 0
0.09314270579709982 0.10229475036064445 0
0.165867054350108 0.11051022000547456 0
0.15284698284070003 0.0347755721248665 0
0.1437507303440421 0.10219095615641828 0
0.17860899550535436 0.2826679849407977 0
0.1510490883783081 0.28747273348681535 0
0.39424358371137086 0.14286627563562382 0
0.38707074864041924 0.05468184703971259 0
0.18875268353156133 0.3392976110298069 0
0.20665012215653275 0.3217675483363619 0
0.36146675387396643 0.40464760583891524 0
0.0 0.3121014594196633 1
0.2596040621984092 0.31343788067828404 0
0.3529942869081682 0.12638252528377744 0
0.33935317275886195 0.17896085309406198 0
0.27481065202351784 0.13809153904459895 0
0.2227738011950407 0.11198900744076505 0
0.13869074340697357 0.18804252191860438 0
0.22883492542505846 0.24648141542168908 0
0.2025349820103934 0.25242442262413134 0
0.13938677943556904 0.36341542033924473 0
0.15709476506493616 0.33091722487105385 0
0.08321859186313317 0.41492515919271616 0
0.1803935677363002 0.14675657266382972 0
0.08685102099053403 0.2308096753766887 0
0.08697462847578362 0.18265181025942617 0
0.13558167142446423 0.26474030049855873 0
0.2358597261808398 0.30871617947001556 0
0.35651185081032577 0.1487895559825819 0
0.33844845986287103 0.12166457276506493 0
0.20381945210366187 0.13595621498652102 0
0.19314435972481028 0.10764794495187861 0
0.16355519872506008 0.16153207190062727 0
0.14697633781939165 0.2149853943362299 0
0.0 0.28105072970983164 1
0.38332072320144733 0.21541586922514272 0
0.3611411014256319 0.24788649426099546 0
0.2771399482750175 0.34134181015918874 0
0.3597110529594513 0.3566850423651864 0
0.2937589809980608 0.37616590878475376 0
0.3177532331456835 0.3484328753123017 0
0.28941849568130756 0.45221426977053597 0
0.23052953895694311 0.40666451028642975 0
0.04451587389889416 0.15848221615497896 0
0.16461398974871602 0.05960475009995512 0
0.21485648387914658 0.03599588156322929 0
0.3512487838112479 0.18995516196289453 0
0.32821453603794776 0.23315777697132573 0
0.3269834258149025 0.19732124913645055 0
0.36316102510656717 0.16337405797987223 0
0.3393347420153391 0.1498043747915925 0
0.2997175138875824 0.18123668932120354 0
0.31601009177997724 0.13924898154294912 0
0.2794852552263718 0.08240340719732477 0
0.3502925866610969 0.07979668538162772 0
0.3006578419524704 0.10558601585144066 0
0.3279367860504499 0.1036778130473833 0
0.37168739709604137 0.0918585905143286 0
0.2927341077399425 0.2537858138721511 0
0.16408201147628204 0.42216560647364865 0
0.1679461280666805 0.39595346239970786 0
0.1487591302865432 0.38203566582479986 0
0.16339672435896618 0.3808673949961431 0
0.11252572811756367 0.13062701698892465 0
0.11445200967572623 0.07478909112088931 0
0.07892420406094229 0.14115617917705106 0
0.049071285118441596 0.10656782778905573 0
0.1547146942995024 0.083570221919456 0
0.17950142983349224 0.08428023699171443 0
0.1363877863819079 0.08511286894109522 0
0.14903577722508568 0.3051000616223056 0
0.16611543103503035 0.29872416748117725 0
0.1285897648816086 0.2933381860692265 0
0.3758196328037334 0.16015072191981583 0
0.4058689280617052 0.16527229550983025 0
0.3848577027195991 0.18587524171852698 0
0.20829731632724835 0.3522853379957358 0
0.18927925492684677 0.36200600427624646 0
0.1847826215308663 0.3220670045739228 0
0.4005237364798778 0.36607244031392006 0
0.37574133121412445 0.13632166087026043 0
0.3734707812115385 0.11176360463896116 0
0.3511255918994715 0.10615227029517402 0
0.3220082772238082 0.17306266360425582 0
0.15769102062260656 0.19299647912790308 0
0.14915624029050065 0.3192897834341749 0
0.34105120085231616 0.1370965421422926 0
0.34490442649084746 0.15566732072803102 0
0.15465839672205078 0.1799319609478767 0
0.15519640702065604 0.35564225432908636 0
0.16441764319124172 0.34758512589073914 0
0.12621068002328248 0.3419135347437791 0
0.0 0.056633102253259474 1
0.3150991320790479 0.5 1
0.27243163189159514 0.41709707887431996 0
0.34525538990840327 0.45639541513530607 0
0.36672715342981166 0.17766835611481385 0
0.34986548909367426 0.16530149865844146 0
0.3264678918401218 0.15085262711407027 0
0.29750400808841515 0.1270490455655948 0
0.3124693428632161 0.12005416213422822 0
0.3146519545660984 0.07595112711074413 0
0.32698702235871474 0.12678320355906111 0
0.14659382438031593 0.34569150245660646 0
0.13000502713580941 0.3205854738871568 0
0.07095434275696165 0.062496278016490214 0
0.12099174501848244 0.10509616214394198 0
0.1757144894460689 0.350500158230505 0
0.39331195595009577 0.12411323358948799 0
0.17071502205265662 0.18272633652838122 0
0.16630714739673283 0.3155130093183762 0
0.1005708746916842 0.3059204227017187 0
0.3197005684162771 0.4124445507859668 0
0.1401544075359124 0.3312334031331713 0
0.19014663231898352 0.18462562960505868 0
0.21046488318528478 0.15551794914219796 0
0.20128600683114034 0.17499581738452438 0
0.12942902370373519 0.16699282476468272 0
0.18024736860762075 0.1263035671903742 0
0.23364596167184062 0.37190406527659825 0
0.14003237928118198 0.12493476906906377 0
0.1291409040712049 0.14676071273764765 0
0.1625197962952086 0.13812928832329013 0
0.4643908775615414 0.1255426820353785 0
0.10612024668888594 0.3907403597582213 0
0.35416030484830924 0.2789237223540196 0
0.2476057374238553 0.44474001556005716 0
0.1582308611699344 0.3908748946592454 0
0.3648708380080298 0.19542619921777116 0
0.31174237227544543 0.15980633043677378 0
0.17009616134508743 0.36645775063084357 0
0.16406468354307382 0.3565249032261169 0
0.1548316513537286 0.36786346007656257 0
0.3534126032615914 0.17527325938973928 0
0.33664034307863366 0.16188653277753215 0
0.3286662271813312 0.3746044880814787 0

Edges
33
1 53 1
1 202 1
2 66 1
2 67 1
3 75 1
3 76 1
4 44 1
4 77 1
5 28 1
5 57 1
6 21 1
6 71 1
7 38 1
7 203 1
9 50 1
9 144 1
10 77 1
10 121 1
11 38 1
11 44 1
20 21 1
20 66 1
27 28 1
27 67 1
33 53 1
33 57 1
36 76 1
36 203 1
46 50 1
46 202 1
69 71 1
69 75 1
121 144 1

Triangles
455
3 76 75 0
4 43 44 0
5 28 59 0
5 59 56 0
6 18 64 0
7 38 39 0
7 39 236 0
7 151 203 0
8 92 136 0
8 107 134 0
8 134 48 0
8 143 92 0
9 49 51 0
11 44 45 0
12 37 96 0
12 96 170 0
12 172 240 0
13 23 72 0
13 70 189 0
14 100 114 0
14 128 78 0
15 147 149 0
15 149 204 0
16 13 148 0
16 35 79 0
16 79 235 0
16 148 150 0
17 145 146 0
17 156 238 0
17 157 158 0
18 6 71 0
18 19 64 0
18 70 72 0
19 23 146 0
19 72 23 0
20 21 233 0
21 6 64 0
21 22 233 0
22 21 64 0
22 62 233 0
22 80 184 0
23 13 16 0
23 16 235 0
24 87 126 0
25 82 161 0
25 85 89 0
25 89 125 0
27 29 28 0
27 67 117 0
28 29 59 0
29 27 117 0
29 211 59 0
30 226 224 0
31 84 128 0
31 86 90 0
32 87 89 0
32 89 90 0
32 90 225 0
33 57 112 0
34 92 143 0
34 94 95 0
34 95 129 0
34 129 93 0
35 16 150 0
36 203 205 0
36 205 73 0
37 12 187 0
37 186 229 0
38 11 40 0
39 38 40 0
39 40 169 0
39 96 152 0
39 152 236 0
40 11 45 0
40 45 102 0
41 98 234 0
41 132 68 0
42 98 130 0
42 102 234 0
43 4 77 0
43 68 132 0
44 43 45 0
45 132 102 0
47 104 135 0
47 227 104 0
49 50 153 0
50 46 153 0
50 49 9 0
51 49 134 0
51 52 108 0
51 108 144 0
51 144 9 0
52 51 107 0
52 106 108 0
53 33 55 0
53 55 215 0
53 215 202 0
54 55 112 0
54 112 154 0
54 154 177 0
54 177 179 0
55 33 112 0
55 54 174 0
55 174 215 0
56 24 91 0
56 91 155 0
56 163 24 0
57 5 155 0
57 58 112 0
60 34 93 0
60 92 34 0
60 93 114 0
60 114 115 0
60 115 136 0
61 63 117 0
61 66 233 0
62 22 184 0
62 61 233 0
62 116 218 0
63 61 62 0
64 80 22 0
65 15 229 0
65 137 122 0
65 147 15 0
66 20 233 0
66 67 2 0
67 61 117 0
67 66 61 0
68 10 109 0
68 77 10 0
68 109 41 0
70 13 72 0
70 69 74 0
70 71 69 0
70 74 189 0
71 70 18 0
72 19 18 0
73 76 36 0
73 205 120 0
74 73 120 0
74 76 73 0
74 120 189 0
75 74 69 0
76 74 75 0
77 68 43 0
78 84 168 0
78 122 137 0
79 146 235 0
80 19 145 0
80 64 19 0
81 84 85 0
81 85 161 0
81 157 168 0
82 25 125 0
82 125 209 0
82 162 239 0
83 24 163 0
83 87 24 0
84 31 85 0
84 78 128 0
84 81 168 0
85 25 161 0
85 31 90 0
86 31 95 0
86 94 224 0
86 224 226 0
87 32 126 0
87 83 125 0
88 30 133 0
88 140 225 0
88 225 226 0
89 85 90 0
89 87 125 0
90 86 226 0
91 24 126 0
91 58 155 0
91 126 141 0
91 178 58 0
92 60 136 0
93 14 114 0
94 34 143 0
94 86 95 0
94 143 194 0
94 194 219 0
94 219 224 0
95 31 128 0
95 128 129 0
96 37 152 0
96 39 169 0
97 42 171 0
97 171 237 0
98 41 99 0
98 42 234 0
98 201 130 0
100 119 188 0
100 188 220 0
101 118 217 0
101 188 118 0
101 220 188 0
102 42 97 0
102 132 234 0
102 169 40 0
103 227 231 0
103 230 232 0
104 48 135 0
104 127 48 0
105 103 142 0
105 127 227 0
105 142 198 0
106 41 109 0
106 52 221 0
106 99 41 0
107 8 136 0
107 51 134 0
107 136 182 0
108 106 109 0
110 173 175 0
110 174 216 0
110 175 176 0
110 176 215 0
111 113 177 0
111 141 228 0
111 177 178 0
111 178 141 0
111 228 232 0
111 230 113 0
111 232 230 0
112 58 154 0
114 100 181 0
115 114 181 0
115 180 182 0
116 62 184 0
116 183 190 0
116 190 218 0
117 164 29 0
118 119 186 0
118 187 217 0
118 188 119 0
119 14 137 0
119 65 186 0
119 100 14 0
120 148 189 0
120 222 245 0
121 108 109 0
121 109 10 0
122 35 147 0
122 78 35 0
123 139 192 0
123 196 139 0
124 158 193 0
124 193 244 0
124 207 243 0
125 83 209 0
126 32 140 0
126 140 141 0
127 104 227 0
127 105 198 0
128 14 129 0
129 14 93 0
130 171 42 0
130 199 242 0
131 195 220 0
131 213 223 0
131 223 195 0
132 41 234 0
132 45 43 0
133 140 88 0
135 48 134 0
135 134 49 0
135 175 47 0
136 115 182 0
137 14 78 0
137 65 119 0
138 123 190 0
138 160 196 0
138 196 123 0
138 207 197 0
139 196 212 0
140 32 225 0
140 133 228 0
142 30 219 0
142 133 30 0
142 232 133 0
143 8 48 0
143 48 127 0
143 127 194 0
144 108 121 0
145 17 238 0
145 19 146 0
145 185 80 0
146 23 235 0
146 157 17 0
147 35 150 0
147 65 122 0
148 13 189 0
148 120 245 0
149 147 150 0
149 245 222 0
150 148 245 0
151 7 236 0
151 222 205 0
152 15 204 0
152 204 236 0
152 229 15 0
153 46 176 0
153 135 49 0
154 58 178 0
155 5 56 0
155 58 57 0
156 124 243 0
156 158 124 0
156 206 238 0
157 79 168 0
157 81 158 0
157 146 79 0
158 156 17 0
158 161 193 0
159 138 183 0
159 206 243 0
160 26 196 0
160 138 197 0
160 197 244 0
161 158 81 0
161 239 193 0
162 26 208 0
162 82 209 0
162 208 239 0
162 209 210 0
162 212 26 0
163 56 59 0
163 59 211 0
164 117 167 0
164 166 211 0
164 192 166 0
165 83 163 0
165 163 211 0
165 166 210 0
165 209 83 0
165 210 209 0
166 139 212 0
166 165 211 0
166 192 139 0
167 63 191 0
167 117 63 0
168 35 78 0
168 79 35 0
169 102 97 0
169 170 96 0
170 97 237 0
170 169 97 0
170 172 12 0
171 130 242 0
171 172 237 0
172 170 237 0
172 171 242 0
173 47 175 0
173 110 216 0
173 231 47 0
174 54 179 0
174 110 215 0
174 179 216 0
175 135 153 0
175 153 176 0
176 46 202 0
177 113 179 0
177 154 178 0
178 91 141 0
179 113 216 0
180 115 181 0
180 181 220 0
180 195 214 0
182 180 214 0
182 214 221 0
183 138 190 0
183 184 185 0
183 185 206 0
183 206 159 0
184 80 185 0
184 183 116 0
185 145 238 0
186 65 229 0
186 187 118 0
187 186 37 0
187 240 217 0
190 123 191 0
190 191 218 0
191 63 218 0
191 192 167 0
192 164 167 0
192 191 123 0
193 208 244 0
194 127 198 0
194 198 219 0
196 26 212 0
197 207 244 0
198 142 219 0
199 200 241 0
199 213 200 0
200 131 101 0
200 217 241 0
201 98 99 0
201 99 214 0
202 1 53 0
202 215 176 0
204 149 222 0
204 151 236 0
205 203 151 0
205 222 120 0
206 156 243 0
206 185 238 0
207 124 244 0
207 138 159 0
207 159 243 0
208 26 160 0
208 160 244 0
208 193 239 0
210 166 212 0
211 29 164 0
212 162 210 0
213 130 201 0
213 131 200 0
213 199 130 0
214 99 221 0
214 223 201 0
216 113 230 0
216 230 173 0
217 200 101 0
217 240 241 0
218 63 62 0
219 30 224 0
220 101 131 0
220 181 100 0
220 195 180 0
221 52 107 0
221 99 106 0
221 107 182 0
222 151 204 0
223 213 201 0
223 214 195 0
225 90 226 0
226 30 88 0
227 47 231 0
227 103 105 0
228 141 140 0
229 152 37 0
230 231 173 0
231 230 103 0
232 142 103 0
232 228 133 0
239 161 82 0
240 187 12 0
241 242 199 0
242 240 172 0
242 241 240 0
245 149 150 0

End
