MeshVersionFormatted 1

Dimension
2

Vertices
78
0.0 0.0 1
0.5 0.0 1
0.5 0.5 1
0.0 0.5 1
0.25 0.0 1
0.5 0.25 1
0.25 0.5 1
0.125 0.25 0
0.0 0.25 1
0.0 0.375 1
0.125 0.5 1
0.1875 0.375 0
0.3645833333333333 0.3645833333333333 0
0.269345238095238 0.2559523809523811 0
0.19552788220551365 0.29286105889724307 0
0.2747189153439154 0.34730489417989435 0
0.24678993490671106 0.30311346943748285 0
0.33075869236583505 0.29817413076341653 0
0.5 0.125 1
0.37332356627378077 0.17048638161317992 0
0.3336465531068025 0.2281984007651484 0
0.4132282888184842 0.2665301514242851 0
0.25333165388336654 0.13048692469690312 0
0.27941288079256177 0.19091275104910793 0
0.19167711085211672 0.19294004777878446 0
0.1772183983079618 0.24353196624480783 0
0.125 0.0 1
0.07578286452162113 0.125 0
0.0 0.125 1
0.0 0.1875 1
0.0625 0.21875 0
0.12130465583096832 0.17926568833806336 0
0.16554036894499732 0.0959314812782997 0
0.16381276777420045 0.14842220117666333 0
0.04834804404588944 0.16892891190822107 0
0.0 0.0625 1
0.0625 0.0 1
0.09375 0.05988502182919368 0
0.5 0.1875 1
0.4397163684129351 0.1562499999999999 0
0.375 0.0 1
0.4321387203701832 0.06786127962981713 0
0.4162928639509956 0.20894508024572836 0
0.38375345874310907 0.31300061982375194 0
0.5 0.375 1
0.4525240351556339 0.32403700596294605 0
0.5 0.3125 1
0.43057739012555857 0.3920772617010723 0
0.375 0.5 1
0.3752751266252927 0.43186986205446487 0
0.4375 0.5 1
0.5 0.4375 1
0.3124999999999999 0.4656819847991691 0
0.3125 0.5 1
0.24825372097778964 0.4227481395111052 0
0.17869823791758166 0.4487241189587909 0
0.1875 0.5 1
0.09374999999999997 0.4011948626589281 0
0.12456804936993839 0.4457921873352003 0
0.05659296692906426 0.459818200857417 0
0.0625 0.5 1
0.0 0.4375 1
0.44531530269403485 0.4453153026940351 0
0.1240067533615284 0.32862162331923583 0
0.06016651231333216 0.29220802462666434 0
0.0566970683361914 0.3529447787461117 0
0.3109990051255408 0.40094341320456545 0
0.3429916013410006 0.08493668688809183 0
0.31452288020444835 0.13991688568518199 0
0.3948985172606584 0.11468489857784583 0
0.38278304688811615 0.05143256947909715 0
0.3125 0.0 1
0.276267182800244 0.0646153288939109 0
0.21309140360551942 0.05265062821462631 0
0.1875 0.0 1
0.5 0.0625 1
0.4375 0.0 1
0.0 0.3125 1

Edges
32
1 36 1
1 37 1
2 76 1
2 77 1
3 51 1
3 52 1
4 61 1
4 62 1
5 72 1
5 75 1
6 39 1
6 47 1
7 54 1
7 57 1
9 30 1
9 78 1
10 62 1
10 78 1
11 57 1
11 61 1
19 39 1
19 76 1
27 37 1
27 75 1
29 30 1
29 36 1
41 72 1
41 77 1
45 47 1
45 52 1
49 51 1
49 54 1

Triangles
122
3 51 63 0
5 72 73 0
5 73 74 0
6 22 43 0
8 15 64 0
8 31 32 0
8 64 65 0
9 30 31 0
9 31 65 0
12 15 17 0
12 16 55 0
12 55 56 0
12 56 59 0
12 58 64 0
13 16 18 0
13 18 44 0
13 44 48 0
13 48 50 0
13 50 67 0
14 15 26 0
15 8 26 0
15 12 64 0
15 14 17 0
16 12 17 0
16 13 67 0
16 17 18 0
17 14 18 0
18 14 21 0
18 21 22 0
18 22 44 0
19 39 40 0
19 40 42 0
20 21 69 0
20 40 43 0
20 69 70 0
21 14 24 0
21 20 43 0
21 24 69 0
22 6 46 0
22 21 43 0
23 24 25 0
23 25 34 0
23 33 74 0
24 14 25 0
24 23 69 0
25 14 26 0
25 26 32 0
25 32 34 0
26 8 32 0
27 33 38 0
28 32 35 0
28 33 34 0
28 36 38 0
29 28 35 0
30 29 35 0
31 8 65 0
31 30 35 0
32 28 34 0
32 31 35 0
33 23 34 0
33 28 38 0
33 75 74 0
36 28 29 0
36 37 38 0
37 27 38 0
37 36 1 0
39 6 43 0
40 20 70 0
40 39 43 0
42 40 70 0
42 70 71 0
42 76 19 0
44 22 46 0
44 46 48 0
46 45 48 0
46 47 45 0
47 46 6 0
48 52 63 0
49 50 63 0
50 48 63 0
50 49 53 0
50 53 67 0
51 49 63 0
52 3 63 0
52 48 45 0
53 7 55 0
53 54 7 0
53 55 67 0
54 53 49 0
55 7 56 0
55 16 67 0
56 11 59 0
56 57 11 0
57 56 7 0
58 10 66 0
58 12 59 0
58 59 60 0
58 62 10 0
59 11 60 0
60 61 4 0
61 60 11 0
62 58 60 0
62 60 4 0
64 58 66 0
65 64 66 0
65 78 9 0
66 78 65 0
68 69 73 0
69 23 73 0
69 68 70 0
70 68 71 0
71 72 41 0
71 77 42 0
72 68 73 0
72 71 68 0
73 23 74 0
74 75 5 0
75 33 27 0
76 77 2 0
77 71 41 0
77 76 42 0
78 66 10 0

End
