MeshVersionFormatted 1

Dimension
2

Vertices
249
0.0 0.0 1
0.5 0.0 1
0.5 0.5 1
0.0 0.5 1
0.25 0.0 1
0.5 0.25 1
0.25 0.5 1
0.125 0.25 0
0.0 0.25 1
0.0 0.375 1
0.125 0.5 1
0.1875 0.375 0
0.3645833333333333 0.3645833333333333 0
0.269345238095238 0.2559523809523811 0
0.19552788220551365 0.29286105889724307 0
0.2658301259100127 0.3411938514440863 0
0.3274862076135275 0.3010431584914671 0
0.38253223280934573 0.1700362237431028 0
0.3374526057192909 0.22816281564466828 0
0.4138034175991909 0.2757254255862096 0
0.3927308074294798 0.22448952247461287 0
0.36764554941673966 0.26475812459387343 0
0.38006628900213296 0.31509871276385193 0
0.38680605776923804 0.28673317792992775 0
0.3473707048237684 0.3320332775747109 0
0.30656951853577774 0.3363385440214395 0
0.29640970073187606 0.4244341509706209 0
0.375 0.5 1
0.29101614381475055 0.379178472232073 0
0.28292019214455383 0.2984780235086093 0
0.30706928522060956 0.26733968966168853 0
0.3376057951518071 0.2718770775767333 0
0.29806570856198217 0.22898682450618157 0
0.3164358001357383 0.16531952187558852 0
0.21660072158099994 0.1709976846700096 0
0.25150758654744776 0.20817628272177685 0
0.2704294684409316 0.22832959760631394 0
0.3171616138829983 0.20001277913764715 0
0.3542639703894244 0.1946568656411248 0
0.2817613124872783 0.18339916391092898 0
0.24960137638490898 0.17498974715147517 0
0.2776847092449638 0.1332902678439019 0
0.2902997057129492 0.15748425013401 0
0.3647296989039065 0.22087843262724946 0
0.3822650789149977 0.1982679554884883 0
0.5 0.125 1
0.5 0.1875 1
0.44087556838770203 0.19007430151034918 0
0.375 0.0 1
0.3506893566422432 0.08442089218917331 0
0.321483675951999 0.11975583897984593 0
0.3510245430687858 0.1460900524826443 0
0.39951365111807335 0.1149910116922752 0
0.38095641166250666 0.13940809853457894 0
0.42215015850249044 0.15145538300563222 0
0.35984193684255084 0.11520663681315507 0
0.4509179347431462 0.10833842133596752 0
0.4267286798724843 0.1233547297702424 0
0.41157431057225224 0.18043257997613435 0
0.4375 0.0 1
0.4181919106940421 0.057391476272401876 0
0.4646097458043308 0.14862909944484762 0
0.5 0.15625 1
0.4700224106517324 0.1792471941938266 0
0.46908571209407485 0.22137114429071844 0
0.5 0.21875 1
0.4310851465604365 0.22726148690273118 0
0.2853212752157972 0.06012895837306947 0
0.2906670501594448 0.09766615603318202 0
0.31708373912029797 0.07475483109386237 0
0.3460302295198484 0.037368397432638874 0
0.3125 0.0 1
0.21307455403997833 0.08956706349719944 0
0.2508563239047553 0.10333571039969977 0
0.23722111496116707 0.13893491153391424 0
0.19018934736407123 0.13134971214958066 0
0.2442571424980636 0.06272241436730122 0
0.125 0.0 1
0.1875 0.0 1
0.20139510901443633 0.04446720666097316 0
0.2328522737451017 0.03005407092227828 0
0.21875 0.0 1
0.26772024189158683 0.0300294661185363 0
0.28125 0.0 1
0.15625 0.03416957196483965 0
0.15968870532743737 0.08748521905561704 0
0.18586316136971176 0.10182150111232567 0
0.17415444589538032 0.05978350371939958 0
0.0 0.125 1
0.08785071469469846 0.06534984524297166 0
0.1170033131974521 0.03868815032480036 0
0.0625 0.0 1
0.08223216847089267 0.029937422558827857 0
0.09375 0.0 1
0.0 0.0625 1
0.03777088479192378 0.037770884791923774 0
0.12401444688574927 0.0756232647716728 0
0.08269745123735708 0.15227714091951644 0
0.12686609930491904 0.1266223444790418 0
0.15913749575993968 0.12081810628093682 0
0.15397363917923498 0.18472334750226457 0
0.16537068245700953 0.15348303137034935 0
0.18542713061903154 0.17849907724356465 0
0.1803655323363969 0.23550606424783974 0
0.09677406152127328 0.10272569769818647 0
0.09944358017068025 0.13025922500192869 0
0.04416787612711564 0.09553209601384581 0
0.06597295551173628 0.1221797742091896 0
0.0331242966160429 0.12681385504383402 0
0.0 0.1875 1
0.0 0.15625 1
0.042194794351418874 0.171875 0
0.07186711442892264 0.08891900510186895 0
0.035562488708486974 0.21875 0
0.02622020322452726 0.19352146785485275 0
0.0 0.21875 1
0.030460697369111105 0.06781531562835216 0
0.0 0.09375 1
0.22495193297772312 0.24530905932228456 0
0.21339609006034427 0.2089827728982619 0
0.19801651130855 0.26152151107694366 0
0.15860490460913323 0.27416047437782765 0
0.15341589325287858 0.33020700153004 0
0.16708947560153328 0.30320948312640533 0
0.11565591929339152 0.29844755903696646 0
0.13151984508979303 0.27638235846277276 0
0.15348757917017508 0.24582734548142493 0
0.08331349743718874 0.37522749363609426 0
0.1113861787028764 0.34185084624070855 0
0.0 0.3125 1
0.05895889468249902 0.3147817233533669 0
0.0905557960680237 0.31789002645831355 0
0.07197015186942009 0.34466859387597093 0
0.029833234485605296 0.3452372498522619 0
0.0 0.34375 1
0.04162459319979374 0.38688985088494504 0
0.0625 0.5 1
0.07855368804721782 0.43855572162218753 0
0.06945437571564976 0.4060288188423693 0
0.029143151776175026 0.43484197907821426 0
0.0 0.4375 1
0.017542966631312586 0.46875000000000006 0
0.0 0.46875 1
0.0 0.40625 1
0.11886491198669175 0.4097425613863427 0
0.14258038062241965 0.3727723673395971 0
0.11284640952093039 0.37157314264088925 0
0.029400952157724994 0.3156691484326874 0
0.04282934227829515 0.27024090627456615 0
0.08104561081142712 0.27968913001753765 0
0.07056498889049019 0.2400683711632009 0
0.09605122555280932 0.25452322740363326 0
0.10403860548458545 0.2107445962780818 0
0.07507992389458062 0.18818619345966625 0
0.06289727460016789 0.21326356469818328 0
0.0 0.28125 1
0.02499325791324903 0.28966744541413003 0
0.12072705672942242 0.4549532155529339 0
0.1875 0.47134547145013445 0
0.1875 0.5 1
0.21874999999999994 0.48567273572506714 0
0.21875 0.5 1
0.15625 0.48567273572506714 0
0.15625 0.5 1
0.2284952005242053 0.42317273572506725 0
0.21479872423155108 0.45304688866397214 0
0.182975705042567 0.4203801058365382 0
0.1525470408636775 0.4052572757787872 0
0.1537305590051269 0.4410501080853579 0
0.1439616004186013 0.4639841128508865 0
0.20707956181687173 0.39986762243702895 0
0.2476955745231176 0.38403680857296946 0
0.26260427901244776 0.41562901476002373 0
0.2691653303927868 0.4597361543355792 0
0.3125 0.5 1
0.3079180254629618 0.46147965872304564 0
0.34375 0.4767501463909984 0
0.34375 0.5 1
0.28125 0.5 1
0.22232376101807783 0.34803796479750715 0
0.1923875735863795 0.3284810765505902 0
0.17261952588860674 0.32297174486897623 0
0.22110618052228612 0.3758364982271021 0
0.2380502448955092 0.3063056503157615 0
0.2257104711486881 0.2770508229661377 0
0.2571502167830884 0.2832747589396658 0
0.2677473356840859 0.3672648390414852 0
0.10500494728873871 0.43295710442605134 0
0.08900581740643998 0.47410590472263114 0
0.09375 0.5 1
0.028055959850270637 0.24606762252193226 0
0.1197942055223967 0.16529593290176878 0
0.1265961830744898 0.19310927462609787 0
0.03125 0.0 1
0.0 0.03125 1
0.18181952025580844 0.026179610416094068 0
0.15625 0.0 1
0.2163831571915102 0.11853792371015144 0
0.3106622798965502 0.03537630663486642 0
0.34375 0.0 1
0.3792086625728533 0.057839996905663216 0
0.40625 0.0 1
0.3906249999999998 0.027936182141991017 0
0.42187500000000006 0.02668694263954969 0
0.4729062187814961 0.04838143604409113 0
0.5 0.0625 1
0.47248867131663735 0.08223872886796743 0
0.5 0.09375 1
0.447543833266568 0.06499987375486505 0
0.3817240932887344 0.08912885048569032 0
0.33281222390476733 0.3971464696843268 0
0.33962088064616275 0.4367642199327128 0
0.32976657912089785 0.3623941619465628 0
0.3067148971311944 0.4002567405113594 0
0.5 0.375 1
0.4331320527278972 0.35886664787067374 0
0.4226866899450554 0.31747761378050293 0
0.5 0.3125 1
0.4595931373121387 0.2878042253869167 0
0.466722762245796 0.2549282382119454 0
0.43364906525969776 0.29332413387003803 0
0.4622775217408307 0.3294986305364378 0
0.46735097410568194 0.36367994895258 0
0.5 0.34375 1
0.4375 0.5 1
0.46132949898194103 0.43378974949097043 0
0.5 0.4375 1
0.4732193082422851 0.3994974403138004 0
0.5 0.40625 1
0.42874590096670584 0.4032850151353067 0
0.4774884702964058 0.46874999999999994 0
0.5 0.46875 1
0.4416500720296756 0.46410031692042714 0
0.40625000000000017 0.47819772055577425 0
0.40625 0.5 1
0.4110723528491371 0.43881179385378727 0
0.37490131336085514 0.4533271687452092 0
0.37772070414081294 0.40802762859316627 0
0.35826737828912486 0.3902017416408231 0
0.40067082705654977 0.37808696210754983 0
0.39985827001529833 0.3434885896787396 0
0.43684465552147317 0.2566284774070057 0
0.5 0.28125 1
0.3946681592072846 0.25364410322795533 0
0.46875 0.0 1
0.16592456190620988 0.35605306596511926 0
0.0535913290085148 0.46485307982010277 0
0.46875 0.5 1
0.03125 0.5 1

Edges
63
1 194 1
1 195 1
2 206 1
2 245 1
3 232 1
3 248 1
4 143 1
4 249 1
5 82 1
5 84 1
6 66 1
6 243 1
7 162 1
7 179 1
9 116 1
9 156 1
10 135 1
10 144 1
11 164 1
11 190 1
28 178 1
28 235 1
46 63 1
46 208 1
47 63 1
47 66 1
49 200 1
49 202 1
60 202 1
60 245 1
72 84 1
72 200 1
78 94 1
78 197 1
79 82 1
79 197 1
89 111 1
89 118 1
92 94 1
92 194 1
95 118 1
95 195 1
110 111 1
110 116 1
130 135 1
130 156 1
137 190 1
137 249 1
141 143 1
141 144 1
160 162 1
160 164 1
175 178 1
175 179 1
206 208 1
215 224 1
215 229 1
218 224 1
218 243 1
225 235 1
225 248 1
227 229 1
227 232 1

Triangles
433
7 161 174 0
8 126 152 0
8 152 153 0
8 153 193 0
9 116 191 0
10 134 136 0
11 158 170 0
12 146 246 0
12 167 168 0
12 180 183 0
13 23 241 0
14 30 186 0
15 121 185 0
15 181 182 0
16 26 187 0
16 180 184 0
17 23 25 0
17 25 26 0
17 26 30 0
17 30 31 0
17 31 32 0
18 39 52 0
18 52 54 0
18 54 55 0
18 55 59 0
19 22 32 0
19 31 33 0
19 33 38 0
19 38 39 0
19 39 44 0
20 24 244 0
21 44 45 0
21 45 59 0
21 59 67 0
21 67 244 0
22 19 44 0
22 24 32 0
22 44 244 0
23 13 25 0
23 17 32 0
23 24 217 0
23 217 241 0
24 20 217 0
24 22 244 0
24 23 32 0
25 13 213 0
26 16 30 0
26 25 213 0
26 29 187 0
27 173 214 0
28 177 237 0
29 26 213 0
29 172 187 0
29 213 214 0
30 14 31 0
30 16 184 0
30 184 186 0
31 14 33 0
31 19 32 0
33 14 37 0
33 37 40 0
34 38 40 0
34 40 43 0
34 43 51 0
34 51 52 0
35 41 120 0
36 37 119 0
36 119 120 0
37 14 119 0
37 36 40 0
38 33 40 0
38 34 39 0
39 18 45 0
39 34 52 0
40 36 41 0
40 41 43 0
41 35 75 0
41 36 120 0
41 42 43 0
42 41 75 0
43 42 51 0
44 21 244 0
44 39 45 0
45 18 59 0
48 55 62 0
48 62 64 0
48 64 65 0
48 65 67 0
49 202 203 0
50 51 70 0
50 70 71 0
50 71 201 0
50 201 210 0
51 42 69 0
51 50 56 0
51 69 70 0
52 51 56 0
53 54 56 0
53 56 210 0
54 52 56 0
54 53 55 0
55 48 59 0
55 53 58 0
55 58 62 0
56 50 210 0
57 46 62 0
57 58 61 0
57 61 209 0
57 208 46 0
58 53 61 0
58 57 62 0
59 48 67 0
61 53 210 0
61 201 203 0
61 203 204 0
61 204 209 0
62 63 64 0
63 47 64 0
63 62 46 0
64 47 65 0
65 6 220 0
65 66 6 0
66 65 47 0
67 65 220 0
67 220 242 0
67 242 244 0
68 69 74 0
68 74 77 0
68 77 83 0
68 83 199 0
69 42 74 0
69 68 70 0
70 68 199 0
71 49 203 0
71 70 199 0
71 200 49 0
73 74 198 0
73 87 88 0
74 42 75 0
74 73 77 0
74 75 198 0
75 35 76 0
75 76 198 0
76 35 103 0
76 87 198 0
77 73 80 0
77 80 81 0
77 81 83 0
78 85 91 0
79 82 196 0
80 73 88 0
80 82 81 0
80 88 196 0
81 5 83 0
81 82 5 0
82 80 196 0
83 84 199 0
84 72 199 0
84 83 5 0
85 88 97 0
86 87 100 0
87 73 198 0
87 76 100 0
87 86 88 0
88 85 196 0
88 86 97 0
90 91 97 0
90 97 105 0
90 105 113 0
90 113 117 0
91 85 97 0
91 90 93 0
91 94 78 0
92 93 96 0
93 90 96 0
94 91 93 0
94 93 92 0
95 96 117 0
96 90 117 0
96 194 92 0
97 86 99 0
97 99 105 0
98 106 192 0
99 86 100 0
99 100 102 0
99 102 192 0
100 76 102 0
101 102 103 0
101 103 104 0
101 104 127 0
101 127 193 0
102 76 103 0
102 101 192 0
103 35 120 0
104 103 120 0
104 119 121 0
104 121 122 0
104 122 127 0
105 99 106 0
105 106 108 0
105 108 113 0
106 98 108 0
106 99 192 0
107 108 109 0
107 118 117 0
108 98 112 0
108 107 113 0
109 108 112 0
109 111 89 0
109 118 107 0
110 111 115 0
111 109 112 0
111 112 115 0
112 98 154 0
112 154 155 0
113 107 117 0
114 115 155 0
114 151 191 0
115 112 155 0
115 116 110 0
116 114 191 0
116 115 114 0
117 118 95 0
118 109 89 0
119 14 185 0
119 104 120 0
121 15 122 0
121 119 185 0
122 15 124 0
122 124 126 0
122 126 127 0
123 124 182 0
123 182 246 0
124 15 182 0
124 123 125 0
124 125 126 0
125 123 129 0
125 129 132 0
125 132 150 0
125 150 152 0
126 8 127 0
126 125 152 0
127 8 193 0
128 129 147 0
129 123 146 0
129 128 133 0
129 146 147 0
130 156 157 0
131 132 133 0
131 133 134 0
131 134 148 0
131 148 157 0
131 149 150 0
132 129 133 0
132 131 150 0
133 128 136 0
134 133 136 0
134 135 148 0
135 130 148 0
135 134 10 0
136 128 139 0
136 139 140 0
136 144 10 0
138 139 188 0
138 188 189 0
138 189 247 0
139 128 145 0
139 138 140 0
139 145 188 0
140 138 247 0
141 140 142 0
142 140 247 0
142 143 141 0
142 249 4 0
143 142 4 0
144 136 140 0
144 140 141 0
145 128 147 0
145 146 168 0
145 158 188 0
145 168 169 0
146 12 168 0
146 123 246 0
146 145 147 0
148 130 157 0
149 131 157 0
149 157 191 0
150 149 151 0
150 151 152 0
151 114 155 0
151 149 191 0
152 151 153 0
153 151 155 0
153 154 192 0
153 192 193 0
154 98 192 0
154 153 155 0
156 9 191 0
157 156 191 0
158 11 189 0
158 145 169 0
158 169 170 0
159 160 163 0
159 163 170 0
160 159 161 0
161 159 166 0
161 162 160 0
161 166 174 0
162 161 7 0
163 11 170 0
163 164 11 0
164 163 160 0
165 166 167 0
165 167 171 0
165 171 172 0
165 172 173 0
165 173 174 0
166 159 167 0
166 165 174 0
167 12 171 0
167 159 169 0
168 167 169 0
169 159 170 0
171 12 183 0
172 29 173 0
172 171 183 0
172 180 187 0
173 27 174 0
173 29 214 0
174 27 176 0
174 179 7 0
175 176 177 0
176 27 212 0
176 179 174 0
177 176 212 0
177 178 175 0
177 212 237 0
178 177 28 0
179 176 175 0
180 12 181 0
180 16 187 0
180 172 183 0
180 181 184 0
181 12 246 0
181 15 184 0
182 181 246 0
184 15 185 0
184 185 186 0
185 14 186 0
188 158 189 0
189 137 247 0
189 190 137 0
190 189 11 0
192 101 193 0
194 195 1 0
195 96 95 0
195 194 96 0
196 197 79 0
197 85 78 0
197 196 85 0
199 200 71 0
200 199 72 0
201 61 210 0
201 71 203 0
202 60 204 0
203 202 204 0
204 60 205 0
204 205 209 0
205 206 207 0
205 207 209 0
205 245 2 0
206 205 2 0
207 57 209 0
208 57 207 0
208 207 206 0
211 212 214 0
211 213 239 0
212 27 214 0
212 211 239 0
213 13 239 0
213 211 214 0
216 217 222 0
216 222 223 0
216 223 230 0
216 230 240 0
216 240 241 0
217 20 221 0
217 216 241 0
217 221 222 0
219 218 222 0
219 221 242 0
219 243 218 0
220 219 242 0
220 243 219 0
221 20 242 0
221 219 222 0
222 224 223 0
223 215 228 0
223 224 215 0
223 228 230 0
224 222 218 0
226 227 231 0
226 229 227 0
226 231 233 0
226 233 236 0
228 226 230 0
229 226 228 0
229 228 215 0
230 226 236 0
230 236 238 0
230 238 240 0
231 232 3 0
232 231 227 0
233 225 234 0
233 234 236 0
233 248 225 0
234 28 237 0
234 235 28 0
235 234 225 0
236 234 237 0
236 237 238 0
237 212 238 0
238 212 239 0
238 239 240 0
239 13 240 0
240 13 241 0
242 20 244 0
243 220 6 0
245 205 60 0
247 249 142 0
248 231 3 0
248 233 231 0
249 247 137 0

End
