MeshVersionFormatted 1

Dimension
2

Vertices
154
0.0 0.0 1
0.5 0.0 1
0.5 0.5 1
0.0 0.5 1
0.25 0.0 1
0.5 0.25 1
0.25 0.5 1
0.125 0.25 0
0.0 0.25 1
0.0 0.375 1
0.125 0.5 1
0.1875 0.375 0
0.3645833333333333 0.3645833333333333 0
0.269345238095238 0.2559523809523811 0
0.19552788220551365 0.29286105889724307 0
0.2658301259100127 0.3411938514440863 0
0.3274862076135275 0.3010431584914671 0
0.38253223280934573 0.1700362237431028 0
0.3374526057192909 0.22816281564466828 0
0.4138034175991909 0.2757254255862096 0
0.3927308074294798 0.22448952247461287 0
0.4476472953691474 0.2318545256921538 0
0.5 0.125 1
0.5 0.1875 1
0.5 0.21875 1
0.44461385405949944 0.15624999999999994 0
0.4198114941383756 0.19123587614170348 0
0.4212742019996652 0.22008069566210425 0
0.5 0.15625 1
0.375 0.0 1
0.4315719349387654 0.06842806506123482 0
0.4034341463623963 0.117485999405583 0
0.36715893609889905 0.06408154473329042 0
0.3983065662094392 0.08194665549302016 0
0.25723150242879605 0.12890932210720135 0
0.28240613458885083 0.1906079456135315 0
0.3318415616704402 0.1772673406329437 0
0.2975459037368041 0.14844526685448367 0
0.3477344385863735 0.12354085560661353 0
0.2994360871458322 0.07485997549761075 0
0.3107178752787745 0.11196669271108882 0
0.231955168360912 0.06566976757152852 0
0.14365931880468116 0.13763204789585676 0
0.20452590755052782 0.18639982814674552 0
0.2444601376263071 0.1701056307138062 0
0.24060973600663937 0.21775197720590375 0
0.19062803226475247 0.23883605852933265 0
0.22663570333791283 0.2628050062998863 0
0.2382753641693217 0.3059782040993067 0
0.2826662358844893 0.29963225977700003 0
0.20588101650183005 0.3353347012993055 0
0.13999724355889248 0.3288955244443344 0
0.30607460012832094 0.2686222569356928 0
0.1502717023666806 0.20007999574249993 0
0.1706188947581367 0.1663514519480964 0
0.1977587470182241 0.1138611440718506 0
0.23235419422542222 0.10218142972334276 0
0.125 0.0 1
0.16517039814044424 0.05450805815430743 0
0.1875 0.0 1
0.20227450804794683 0.03788024585311899 0
0.15625 0.0 1
0.19585632628427918 0.0762826785179945 0
0.0 0.125 1
0.06283000999348597 0.18716999000651408 0
0.1043970553168956 0.20821305707551793 0
0.10227779365625057 0.16082341014219648 0
0.05480396833001773 0.13244772564205956 0
0.059047535551333186 0.24621752555784723 0
0.0 0.1875 1
0.03155932470677138 0.21481176541119976 0
0.0 0.15625 1
0.03559572628188762 0.16321468953678447 0
0.033648549729954534 0.31249999999999994 0
0.0 0.3125 1
0.03115258695846803 0.27353596924761386 0
0.03640164561796006 0.0625 0
0.0 0.0625 1
0.03113138844920422 0.10128110188920338 0
0.10227922774907487 0.08256304512547404 0
0.10753750677849623 0.12169332400303232 0
0.12267649105927901 0.04376840792485096 0
0.0625 0.0 1
0.07731377301522849 0.04288483437778888 0
0.03125 0.0 1
0.14491042830097356 0.09361046762623448 0
0.08928785685070405 0.29581300262849036 0
0.09130948458623887 0.2605632386458376 0
0.1053941266341379 0.41207206331706914 0
0.08653382958873111 0.35543973300355336 0
0.05085275453226775 0.3987793145034984 0
0.0625 0.5 1
0.06771826277344019 0.44811909135605943 0
0.0 0.4375 1
0.03562692565539453 0.43153626882208035 0
0.09375 0.5 1
0.112047158865049 0.456738386679369 0
0.1875 0.45771715220921594 0
0.1875 0.5 1
0.15014967825511757 0.4282343855879967 0
0.14962011040812656 0.4690586661850496 0
0.04254410651059374 0.3555811420760804 0
0.1285292403029842 0.37291067044508164 0
0.15732054052975145 0.39354554419072835 0
0.06762632463245909 0.3246894706084455 0
0.03125 0.5 1
0.1586066415781411 0.35724569111483373 0
0.1515108592670898 0.285833727608545 0
0.2697176838987651 0.04073212904618961 0
0.3125 0.0 1
0.34375 0.0 1
0.32888506522819283 0.041746553577403055 0
0.2975008929642229 0.2276025601922052 0
0.40142361719407466 0.03575370427953566 0
0.4375 0.0 1
0.5 0.0625 1
0.4632945517265451 0.03670544827345483 0
0.4682364394406186 0.0937499999999999 0
0.44076684652769493 0.11908176745718402 0
0.4601105376787563 0.1934913520173216 0
0.36497324596075326 0.26904789209621977 0
0.37337551133416047 0.31685070090040834 0
0.5 0.375 1
0.43361239665043927 0.3526221768776233 0
0.3968894818460967 0.3458579489854636 0
0.375 0.5 1
0.41131302790606233 0.4290977158020981 0
0.45453617500972743 0.4002121912853271 0
0.5 0.4375 1
0.4375 0.5 1
0.5 0.46875 1
0.46875 0.5 1
0.4531249999999992 0.45394200367625437 0
0.40625 0.5 1
0.5 0.3125 1
0.4623894065202976 0.28125000000000017 0
0.43435038285843947 0.31143224745597226 0
0.5 0.34375 1
0.3157775443582557 0.35047854387421234 0
0.27656110499994485 0.4224556018248189 0
0.3269683424011831 0.4032478061162528 0
0.284439044760847 0.3800758723174533 0
0.23587063048992013 0.3794265741701741 0
0.20810298597815588 0.41635857610460797 0
0.23463077318963116 0.45538455824131097 0
0.3125 0.5 1
0.31634588748578457 0.4511172184345499 0
0.2761559344383746 0.46603481177991113 0
0.36295760677173805 0.4363472918534814 0
0.34861717902377587 0.4720258416066179 0
0.34375 0.5 1
0.3917241992390616 0.46333082012728327 0
0.3823623756848212 0.40088648995653453 0
0.41832956684224215 0.38773629799072695 0

Edges
45
1 78 1
1 85 1
2 115 1
2 116 1
3 131 1
3 132 1
4 94 1
4 106 1
5 60 1
5 110 1
6 25 1
6 135 1
7 99 1
7 146 1
9 70 1
9 75 1
10 75 1
10 94 1
11 96 1
11 99 1
23 29 1
23 116 1
24 25 1
24 29 1
30 111 1
30 115 1
58 62 1
58 83 1
60 62 1
64 72 1
64 78 1
70 72 1
83 85 1
92 96 1
92 106 1
110 111 1
123 129 1
123 138 1
126 134 1
126 151 1
129 131 1
130 132 1
130 134 1
135 138 1
146 151 1

Triangles
261
2 116 117 0
5 42 61 0
6 135 136 0
7 99 145 0
7 145 148 0
8 47 108 0
8 87 88 0
9 70 71 0
9 71 76 0
10 75 102 0
10 91 95 0
11 96 97 0
11 97 101 0
12 51 143 0
12 104 107 0
12 143 144 0
13 122 125 0
13 125 153 0
14 46 113 0
15 47 48 0
15 48 49 0
15 49 51 0
15 51 52 0
15 52 108 0
16 49 50 0
16 50 139 0
16 139 142 0
16 142 143 0
17 50 53 0
17 53 121 0
17 121 122 0
17 122 139 0
18 19 37 0
18 26 27 0
18 37 39 0
19 18 21 0
19 21 121 0
19 53 113 0
20 21 28 0
20 22 136 0
20 136 137 0
21 18 27 0
21 20 121 0
21 27 28 0
22 6 136 0
22 20 28 0
22 25 6 0
22 28 120 0
23 26 119 0
24 25 120 0
25 22 120 0
26 18 32 0
26 29 120 0
26 32 119 0
27 26 120 0
28 27 120 0
29 24 120 0
29 26 23 0
30 33 112 0
31 34 114 0
31 114 117 0
31 117 118 0
31 118 119 0
32 18 39 0
32 34 119 0
33 30 114 0
33 34 39 0
33 39 41 0
33 40 112 0
34 31 119 0
34 32 39 0
34 33 114 0
35 38 45 0
35 40 41 0
35 45 56 0
35 56 57 0
36 37 113 0
37 19 113 0
37 36 38 0
37 38 39 0
38 35 41 0
38 36 45 0
39 38 41 0
40 33 41 0
40 35 57 0
40 42 109 0
40 109 112 0
42 5 109 0
42 40 57 0
42 57 63 0
43 54 67 0
43 67 81 0
43 81 86 0
44 45 46 0
44 46 47 0
44 47 54 0
44 54 55 0
44 55 56 0
45 36 46 0
45 44 56 0
46 14 48 0
46 36 113 0
47 8 54 0
47 15 108 0
47 46 48 0
48 14 49 0
49 14 50 0
49 16 51 0
50 14 53 0
50 17 139 0
51 12 107 0
51 16 143 0
52 51 107 0
52 87 108 0
53 14 113 0
53 19 121 0
54 8 66 0
54 43 55 0
54 66 67 0
55 43 56 0
56 43 86 0
57 56 63 0
58 62 82 0
58 82 84 0
59 60 61 0
59 61 63 0
59 62 60 0
59 63 86 0
60 5 61 0
61 42 63 0
62 59 82 0
63 56 86 0
64 68 73 0
64 78 79 0
65 66 69 0
65 69 71 0
65 71 73 0
66 8 88 0
66 65 67 0
67 65 68 0
67 68 81 0
68 64 79 0
68 65 73 0
68 79 80 0
68 80 81 0
69 66 88 0
70 72 73 0
71 69 76 0
71 70 73 0
72 64 73 0
74 75 76 0
74 76 87 0
74 87 105 0
75 9 76 0
75 74 102 0
76 69 87 0
78 77 79 0
78 85 77 0
79 77 80 0
80 77 84 0
80 82 86 0
81 80 86 0
82 59 86 0
82 80 84 0
83 58 84 0
84 85 83 0
85 78 1 0
85 84 77 0
87 8 108 0
87 52 90 0
87 69 88 0
87 90 105 0
89 90 103 0
89 103 104 0
90 52 103 0
90 89 91 0
90 91 102 0
90 102 105 0
91 10 102 0
91 89 93 0
91 93 95 0
93 89 97 0
93 96 92 0
93 106 95 0
94 10 95 0
94 106 4 0
96 93 97 0
97 89 100 0
97 100 101 0
98 99 101 0
98 100 144 0
98 144 145 0
99 11 101 0
99 98 145 0
100 89 104 0
100 98 101 0
100 104 144 0
102 74 105 0
103 52 107 0
104 12 144 0
104 103 107 0
106 93 92 0
106 94 95 0
109 110 112 0
110 109 5 0
110 111 112 0
111 30 112 0
114 115 117 0
115 2 117 0
115 114 30 0
116 23 118 0
117 116 118 0
118 23 119 0
121 20 122 0
122 13 139 0
122 20 137 0
124 123 128 0
124 125 137 0
124 128 154 0
124 138 123 0
125 122 137 0
125 124 154 0
126 150 152 0
127 128 133 0
127 133 152 0
127 149 153 0
127 153 154 0
128 127 154 0
128 129 133 0
129 128 123 0
129 131 133 0
130 134 152 0
131 132 133 0
132 130 133 0
132 131 3 0
133 130 152 0
134 126 152 0
136 135 137 0
137 138 124 0
138 137 135 0
139 13 141 0
139 141 142 0
140 141 147 0
140 147 148 0
141 13 153 0
141 140 142 0
142 140 143 0
143 140 144 0
144 140 145 0
145 140 148 0
146 7 148 0
146 147 150 0
147 141 149 0
147 146 148 0
147 149 150 0
149 127 152 0
149 141 153 0
150 149 152 0
150 151 146 0
151 150 126 0
153 125 154 0

End
